<svg id="Layer_1" data-name="Layer 1" xmlns="http://www.w3.org/2000/svg" viewBox="0 0 600 375"><defs><style>.cls-1{fill:none;stroke:#5c9ad2;stroke-miterlimit:10;}.cls-2{fill:#231f20;}</style></defs><title>thesis_final_website</title><circle class="cls-1" cx="229.54" cy="117.19" r="100.23"/><circle class="cls-1" cx="369.04" cy="117.28" r="100.23"/><circle class="cls-1" cx="228.16" cy="256.7" r="100.23"/><circle class="cls-1" cx="371.84" cy="257.81" r="100.23"/><path class="cls-2" d="M168,81.71a5.19,5.19,0,0,0,3.88,1.78c2,0,3.28-1.08,3.28-2.64s-1.08-2.18-2.38-2.76l-2-.9c-1.14-.5-2.66-1.32-2.66-3.28s1.64-3.24,3.82-3.24a5,5,0,0,1,3.68,1.58l-0.54.62A4.18,4.18,0,0,0,172,71.51c-1.74,0-2.9.92-2.9,2.36s1.32,2.1,2.28,2.54l2,0.88c1.46,0.66,2.76,1.48,2.76,3.5s-1.66,3.54-4.22,3.54a5.81,5.81,0,0,1-4.44-2Z"/><path class="cls-2" d="M182.11,74.25c2.28,0,3.68,1.62,3.68,4.44a4.35,4.35,0,0,1,0,.72h-6.92c0,2.42,1.46,4.16,3.62,4.16a4.25,4.25,0,0,0,2.58-.86l0.36,0.68a5.35,5.35,0,0,1-3,.94c-2.46,0-4.44-1.88-4.44-5S180,74.25,182.11,74.25Zm2.84,4.48c0-2.46-1.1-3.72-2.82-3.72s-3.1,1.42-3.3,3.72h6.12Z"/><path class="cls-2" d="M188.39,74.49h0.76l0.08,1.78h0.06a3.3,3.3,0,0,1,2.72-2,2,2,0,0,1,1,.2l-0.2.8a2.09,2.09,0,0,0-.88-0.16c-0.86,0-1.88.66-2.62,2.46v6.54h-0.88v-9.6Z"/><path class="cls-2" d="M193.66,74.49h1l2.16,6c0.3,0.92.66,1.88,1,2.76h0.08c0.32-.88.66-1.84,1-2.76l2.16-6h0.9l-3.56,9.6h-1Z"/><path class="cls-2" d="M203.6,71.39a0.8,0.8,0,1,1,.8.78A0.77,0.77,0,0,1,203.6,71.39Zm0.34,3.1h0.88v9.6h-0.88v-9.6Z"/><path class="cls-2" d="M212.11,74.25a3.94,3.94,0,0,1,2.82,1.18l-0.52.62a3.27,3.27,0,0,0-2.28-1c-2,0-3.48,1.74-3.48,4.28s1.38,4.24,3.48,4.24a3.86,3.86,0,0,0,2.56-1.1l0.46,0.6a4.54,4.54,0,0,1-3.06,1.28c-2.48,0-4.36-1.84-4.36-5S209.77,74.25,212.11,74.25Z"/><path class="cls-2" d="M220.54,74.25c2.28,0,3.68,1.62,3.68,4.44a4.35,4.35,0,0,1,0,.72h-6.92c0,2.42,1.46,4.16,3.62,4.16a4.25,4.25,0,0,0,2.58-.86l0.36,0.68a5.35,5.35,0,0,1-3,.94c-2.46,0-4.44-1.88-4.44-5S218.41,74.25,220.54,74.25Zm2.84,4.48c0-2.46-1.1-3.72-2.82-3.72s-3.1,1.42-3.3,3.72h6.12Z"/><path class="cls-2" d="M168.49,92.31h3c4.06,0,6,2.56,6,6.54s-1.94,6.64-6,6.64h-3.06V92.31Zm2.94,12.4c3.58,0,5.14-2.42,5.14-5.86s-1.56-5.76-5.14-5.76h-2v11.62h2Z"/><path class="cls-2" d="M183.81,95.65c2.28,0,3.68,1.62,3.68,4.44a4.35,4.35,0,0,1,0,.72h-6.92c0,2.42,1.46,4.16,3.62,4.16a4.25,4.25,0,0,0,2.58-.86l0.36,0.68a5.35,5.35,0,0,1-3,.94c-2.46,0-4.44-1.88-4.44-5S181.67,95.65,183.81,95.65Zm2.84,4.48c0-2.46-1.1-3.72-2.82-3.72s-3.1,1.42-3.3,3.72h6.12Z"/><path class="cls-2" d="M189.41,103.75a4.46,4.46,0,0,0,3.06,1.22,2,2,0,0,0,2.28-1.9c0-1.2-1.24-1.72-2.34-2.12-1.46-.52-3.06-1.1-3.06-2.74,0-1.4,1.1-2.56,3.1-2.56a4.45,4.45,0,0,1,2.74,1l-0.48.62a3.63,3.63,0,0,0-2.3-.86c-1.48,0-2.16.86-2.16,1.74,0,1.06,1.12,1.52,2.26,1.94,1.5,0.56,3.14,1.06,3.14,2.94,0,1.44-1.16,2.7-3.24,2.7a5.56,5.56,0,0,1-3.52-1.32Z"/><path class="cls-2" d="M197.84,92.79a0.8,0.8,0,1,1,.8.78A0.77,0.77,0,0,1,197.84,92.79Zm0.34,3.1h0.88v9.6h-0.88v-9.6Z"/><path class="cls-2" d="M203.39,105.13v-0.08a1.71,1.71,0,0,1-.84-1.54,2.26,2.26,0,0,1,1-1.76v-0.08a3.58,3.58,0,0,1-1.2-2.64,3.3,3.3,0,0,1,3.38-3.38,3.44,3.44,0,0,1,1.26.24h3.26v0.74H208a3.2,3.2,0,0,1,1.06,2.42,3.28,3.28,0,0,1-3.34,3.38,3.34,3.34,0,0,1-1.6-.4,1.73,1.73,0,0,0-.78,1.38c0,0.7.4,1.26,1.84,1.26h2.06c2.16,0,3.16.68,3.16,2.2s-1.78,3.24-4.54,3.24c-2.42,0-3.94-1-3.94-2.66A3,3,0,0,1,203.39,105.13Zm2.62,4.26c2.16,0,3.54-1.22,3.54-2.42s-0.78-1.46-2.22-1.46h-2.06a5.92,5.92,0,0,1-1.2-.16,2.51,2.51,0,0,0-1.26,2C202.81,108.58,204,109.39,206,109.39ZM208.25,99a2.5,2.5,0,1,0-5,0A2.5,2.5,0,1,0,208.25,99Z"/><path class="cls-2" d="M212.51,95.89h0.76l0.08,1.48h0.06a4.69,4.69,0,0,1,3.3-1.72c2,0,2.9,1.2,2.9,3.68v6.16h-0.88v-6c0-2-.64-3-2.2-3-1.14,0-2,.6-3.14,1.8v7.24h-0.88v-9.6Z"/><path class="cls-2" d="M364.59,81.91a5.19,5.19,0,0,0,3.88,1.78c2,0,3.28-1.08,3.28-2.64s-1.08-2.18-2.38-2.76l-2-.9c-1.14-.5-2.66-1.32-2.66-3.28s1.64-3.24,3.82-3.24a5,5,0,0,1,3.68,1.58l-0.54.62a4.18,4.18,0,0,0-3.14-1.36c-1.74,0-2.9.92-2.9,2.36s1.32,2.1,2.28,2.54l2,0.88c1.46,0.66,2.76,1.48,2.76,3.5s-1.66,3.54-4.22,3.54a5.81,5.81,0,0,1-4.44-2Z"/><path class="cls-2" d="M375.5,75.45H374V74.77l1.52-.08,0.12-2.78h0.76v2.78h2.78v0.76H376.4v6.26c0,1.22.3,2,1.62,2a3.21,3.21,0,0,0,1.2-.3l0.24,0.72a5.36,5.36,0,0,1-1.56.36c-1.86,0-2.4-1.18-2.4-2.9V75.45Z"/><path class="cls-2" d="M381.52,74.69h0.76l0.08,1.78h0.06a3.3,3.3,0,0,1,2.72-2,2,2,0,0,1,1,.2l-0.2.8a2.09,2.09,0,0,0-.88-0.16c-0.86,0-1.88.66-2.62,2.46v6.54h-0.88v-9.6Z"/><path class="cls-2" d="M393.06,78.27c0-1.46-.38-3-2.26-3a5.29,5.29,0,0,0-3.06,1.12l-0.4-.66a6.41,6.41,0,0,1,3.56-1.24c2.28,0,3,1.64,3,3.7v6.14H393.2l-0.1-1.24h0a5.7,5.7,0,0,1-3.4,1.48,2.53,2.53,0,0,1-2.8-2.64C386.85,79.77,388.79,78.75,393.06,78.27Zm-3.26,5.5a5,5,0,0,0,3.26-1.56V79c-3.94.46-5.28,1.38-5.28,2.9A1.8,1.8,0,0,0,389.8,83.77Z"/><path class="cls-2" d="M397.59,75.45h-1.5V74.77l1.52-.08,0.12-2.78h0.76v2.78h2.78v0.76H398.5v6.26c0,1.22.3,2,1.62,2a3.21,3.21,0,0,0,1.2-.3l0.24,0.72a5.36,5.36,0,0,1-1.56.36c-1.86,0-2.4-1.18-2.4-2.9V75.45Z"/><path class="cls-2" d="M406.79,74.45c2.28,0,3.68,1.62,3.68,4.44a4.35,4.35,0,0,1,0,.72h-6.92c0,2.42,1.46,4.16,3.62,4.16a4.25,4.25,0,0,0,2.58-.86l0.36,0.68a5.35,5.35,0,0,1-3,.94c-2.46,0-4.44-1.88-4.44-5S404.66,74.45,406.79,74.45Zm2.84,4.48c0-2.46-1.1-3.72-2.82-3.72s-3.1,1.42-3.3,3.72h6.12Z"/><path class="cls-2" d="M413.5,83.93V83.85a1.71,1.71,0,0,1-.84-1.54,2.26,2.26,0,0,1,1-1.76V80.47a3.58,3.58,0,0,1-1.2-2.64,3.3,3.3,0,0,1,3.38-3.38,3.46,3.46,0,0,1,1.26.24h3.26v0.74h-2.24a3.2,3.2,0,0,1,1.06,2.42,3.28,3.28,0,0,1-3.34,3.38,3.33,3.33,0,0,1-1.6-.4,1.73,1.73,0,0,0-.78,1.38c0,0.7.4,1.26,1.84,1.26h2.06c2.16,0,3.16.68,3.16,2.2s-1.78,3.24-4.54,3.24c-2.42,0-3.94-1-3.94-2.66A3,3,0,0,1,413.5,83.93Zm2.62,4.26c2.16,0,3.54-1.22,3.54-2.42s-0.78-1.46-2.22-1.46h-2.06a5.92,5.92,0,0,1-1.2-.16,2.51,2.51,0,0,0-1.26,2C412.92,87.37,414.08,88.19,416.12,88.19Zm2.24-10.36a2.5,2.5,0,1,0-5,0A2.5,2.5,0,1,0,418.36,77.83Z"/><path class="cls-2" d="M422.28,71.59a0.8,0.8,0,1,1,.8.78A0.77,0.77,0,0,1,422.28,71.59Zm0.34,3.1h0.88v9.6h-0.88v-9.6Z"/><path class="cls-2" d="M430.78,74.45a3.94,3.94,0,0,1,2.82,1.18l-0.52.62a3.27,3.27,0,0,0-2.28-1c-2,0-3.48,1.74-3.48,4.28s1.38,4.24,3.48,4.24a3.86,3.86,0,0,0,2.56-1.1l0.46,0.6a4.54,4.54,0,0,1-3.06,1.28c-2.48,0-4.36-1.84-4.36-5S428.44,74.45,430.78,74.45Z"/><path class="cls-2" d="M365,92.51h3c4.06,0,6,2.56,6,6.54s-1.94,6.64-6,6.64H365V92.51Zm2.94,12.4c3.58,0,5.14-2.42,5.14-5.86s-1.56-5.76-5.14-5.76h-2v11.62h2Z"/><path class="cls-2" d="M380.35,95.85c2.28,0,3.68,1.62,3.68,4.44a4.35,4.35,0,0,1,0,.72h-6.92c0,2.42,1.46,4.16,3.62,4.16a4.25,4.25,0,0,0,2.58-.86l0.36,0.68a5.35,5.35,0,0,1-3,.94c-2.46,0-4.44-1.88-4.44-5S378.21,95.85,380.35,95.85Zm2.84,4.48c0-2.46-1.1-3.72-2.82-3.72s-3.1,1.42-3.3,3.72h6.12Z"/><path class="cls-2" d="M386,104a4.46,4.46,0,0,0,3.06,1.22,2,2,0,0,0,2.28-1.9c0-1.2-1.24-1.72-2.34-2.12-1.46-.52-3.06-1.1-3.06-2.74,0-1.4,1.1-2.56,3.1-2.56a4.45,4.45,0,0,1,2.74,1l-0.48.62a3.63,3.63,0,0,0-2.3-.86c-1.48,0-2.16.86-2.16,1.74,0,1.06,1.12,1.52,2.26,1.94,1.5,0.56,3.14,1.06,3.14,2.94,0,1.44-1.16,2.7-3.24,2.7a5.56,5.56,0,0,1-3.52-1.32Z"/><path class="cls-2" d="M394.39,93a0.8,0.8,0,1,1,.8.78A0.77,0.77,0,0,1,394.39,93Zm0.34,3.1h0.88v9.6h-0.88v-9.6Z"/><path class="cls-2" d="M399.93,105.33v-0.08a1.71,1.71,0,0,1-.84-1.54,2.26,2.26,0,0,1,1-1.76v-0.08a3.58,3.58,0,0,1-1.2-2.64,3.3,3.3,0,0,1,3.38-3.38,3.44,3.44,0,0,1,1.26.24h3.26v0.74h-2.24a3.2,3.2,0,0,1,1.06,2.42,3.28,3.28,0,0,1-3.34,3.38,3.34,3.34,0,0,1-1.6-.4,1.73,1.73,0,0,0-.78,1.38c0,0.7.4,1.26,1.84,1.26h2.06c2.16,0,3.16.68,3.16,2.2s-1.78,3.24-4.54,3.24c-2.42,0-3.94-1-3.94-2.66A3,3,0,0,1,399.93,105.33Zm2.62,4.26c2.16,0,3.54-1.22,3.54-2.42s-0.78-1.46-2.22-1.46h-2.06a5.92,5.92,0,0,1-1.2-.16,2.51,2.51,0,0,0-1.26,2C399.35,108.77,400.51,109.59,402.55,109.59Zm2.24-10.36a2.5,2.5,0,1,0-5,0A2.5,2.5,0,1,0,404.79,99.23Z"/><path class="cls-2" d="M409.05,96.09h0.76l0.08,1.48H410a4.69,4.69,0,0,1,3.3-1.72c2,0,2.9,1.2,2.9,3.68v6.16h-0.88v-6c0-2-.64-3-2.2-3-1.14,0-2,.6-3.14,1.8v7.24h-0.88v-9.6Z"/><path class="cls-2" d="M362.29,235.5h3c4.06,0,6,2.56,6,6.54s-1.94,6.64-6,6.64h-3.06V235.5Zm2.94,12.4c3.58,0,5.14-2.42,5.14-5.86s-1.56-5.76-5.14-5.76h-2v11.62h2Z"/><path class="cls-2" d="M377.6,238.85c2.28,0,3.68,1.62,3.68,4.44a4.35,4.35,0,0,1,0,.72h-6.92c0,2.42,1.46,4.16,3.62,4.16a4.25,4.25,0,0,0,2.58-.86l0.36,0.68a5.35,5.35,0,0,1-3,.94c-2.46,0-4.44-1.88-4.44-5S375.46,238.85,377.6,238.85Zm2.84,4.48c0-2.46-1.1-3.72-2.82-3.72s-3.1,1.42-3.3,3.72h6.12Z"/><path class="cls-2" d="M383.2,246.95a4.46,4.46,0,0,0,3.06,1.22,2,2,0,0,0,2.28-1.9c0-1.2-1.24-1.72-2.34-2.12-1.46-.52-3.06-1.1-3.06-2.74,0-1.4,1.1-2.56,3.1-2.56a4.45,4.45,0,0,1,2.74,1l-0.48.62a3.63,3.63,0,0,0-2.3-.86c-1.48,0-2.16.86-2.16,1.74,0,1.06,1.12,1.52,2.26,1.94,1.5,0.56,3.14,1.06,3.14,2.94,0,1.44-1.16,2.7-3.24,2.7a5.56,5.56,0,0,1-3.52-1.32Z"/><path class="cls-2" d="M391.64,236a0.8,0.8,0,1,1,.8.78A0.77,0.77,0,0,1,391.64,236Zm0.34,3.1h0.88v9.6H392v-9.6Z"/><path class="cls-2" d="M397.18,248.33v-0.08a1.71,1.71,0,0,1-.84-1.54,2.26,2.26,0,0,1,1-1.76v-0.08a3.58,3.58,0,0,1-1.2-2.64,3.3,3.3,0,0,1,3.38-3.38,3.46,3.46,0,0,1,1.26.24h3.26v0.74h-2.24a3.2,3.2,0,0,1,1.06,2.42,3.28,3.28,0,0,1-3.34,3.38,3.33,3.33,0,0,1-1.6-.4,1.73,1.73,0,0,0-.78,1.38c0,0.7.4,1.26,1.84,1.26h2.06c2.16,0,3.16.68,3.16,2.2s-1.78,3.24-4.54,3.24c-2.42,0-3.94-1-3.94-2.66A3,3,0,0,1,397.18,248.33Zm2.62,4.26c2.16,0,3.54-1.22,3.54-2.42s-0.78-1.46-2.22-1.46h-2.06a5.92,5.92,0,0,1-1.2-.16,2.51,2.51,0,0,0-1.26,2C396.6,251.77,397.76,252.59,399.8,252.59ZM402,242.23a2.5,2.5,0,1,0-5,0A2.5,2.5,0,1,0,402,242.23Z"/><path class="cls-2" d="M406.3,239.08h0.76l0.08,1.48h0.06a4.69,4.69,0,0,1,3.3-1.72c2,0,2.9,1.2,2.9,3.68v6.16h-0.88v-6c0-2-.64-3-2.2-3-1.14,0-2,.6-3.14,1.8v7.24H406.3v-9.6Z"/><path class="cls-2" d="M365.12,260.3h-4.2v-0.8h9.3v0.8H366v12.38h-0.92V260.3Z"/><path class="cls-2" d="M372.58,258.3h0.88v6.28a4.72,4.72,0,0,1,3.32-1.74c2,0,2.9,1.2,2.9,3.68v6.16h-0.88v-6c0-2-.64-3-2.2-3-1.14,0-2,.6-3.14,1.8v7.24h-0.88V258.3Z"/><path class="cls-2" d="M382.8,260a0.8,0.8,0,1,1,.8.78A0.77,0.77,0,0,1,382.8,260Zm0.34,3.1H384v9.6h-0.88v-9.6Z"/><path class="cls-2" d="M387.72,263.08h0.76l0.08,1.48h0.06a4.69,4.69,0,0,1,3.3-1.72c2,0,2.9,1.2,2.9,3.68v6.16h-0.88v-6c0-2-.64-3-2.2-3-1.14,0-2,.6-3.14,1.8v7.24h-0.88v-9.6Z"/><path class="cls-2" d="M398.36,258.3h0.88v10.6h0l4.74-5.82h1l-3.12,3.8,3.64,5.8h-1l-3.18-5.14-2.16,2.52v2.62h-0.88V258.3Z"/><path class="cls-2" d="M407.3,260a0.8,0.8,0,1,1,.8.78A0.77,0.77,0,0,1,407.3,260Zm0.34,3.1h0.88v9.6h-0.88v-9.6Z"/><path class="cls-2" d="M412.22,263.08H413l0.08,1.48h0.06a4.69,4.69,0,0,1,3.3-1.72c2,0,2.9,1.2,2.9,3.68v6.16h-0.88v-6c0-2-.64-3-2.2-3-1.14,0-2,.6-3.14,1.8v7.24h-0.88v-9.6Z"/><path class="cls-2" d="M423.48,272.33v-0.08a1.71,1.71,0,0,1-.84-1.54,2.26,2.26,0,0,1,1-1.76v-0.08a3.58,3.58,0,0,1-1.2-2.64,3.3,3.3,0,0,1,3.38-3.38,3.46,3.46,0,0,1,1.26.24h3.26v0.74h-2.24a3.2,3.2,0,0,1,1.06,2.42,3.28,3.28,0,0,1-3.34,3.38,3.33,3.33,0,0,1-1.6-.4,1.73,1.73,0,0,0-.78,1.38c0,0.7.4,1.26,1.84,1.26h2.06c2.16,0,3.16.68,3.16,2.2s-1.78,3.24-4.54,3.24c-2.42,0-3.94-1-3.94-2.66A3,3,0,0,1,423.48,272.33Zm2.62,4.26c2.16,0,3.54-1.22,3.54-2.42s-0.78-1.46-2.22-1.46h-2.06a5.92,5.92,0,0,1-1.2-.16,2.51,2.51,0,0,0-1.26,2C422.9,275.77,424.06,276.59,426.1,276.59Zm2.24-10.36a2.5,2.5,0,1,0-5,0A2.5,2.5,0,1,0,428.34,266.23Z"/><path class="cls-2" d="M141.55,235.5h3.6c2.94,0,4.68,1,4.68,3.68s-1.76,3.84-4.68,3.84h-2.68v5.66h-0.92V235.5Zm3.36,6.74c2.7,0,4-.9,4-3.06s-1.3-2.9-4-2.9h-2.44v6h2.44Z"/><path class="cls-2" d="M152.53,239.08h0.76l0.08,1.78h0.06a3.3,3.3,0,0,1,2.72-2,2,2,0,0,1,1,.2l-0.2.8a2.09,2.09,0,0,0-.88-0.16c-0.86,0-1.88.66-2.62,2.46v6.54h-0.88v-9.6Z"/><path class="cls-2" d="M162.17,238.85c2.32,0,4.32,1.84,4.32,5.06s-2,5-4.32,5-4.3-1.84-4.3-5S159.87,238.85,162.17,238.85Zm0,9.3c1.94,0,3.4-1.72,3.4-4.24s-1.46-4.28-3.4-4.28-3.38,1.74-3.38,4.28S160.23,248.15,162.17,248.15Z"/><path class="cls-2" d="M172.83,238.85a4.44,4.44,0,0,1,2.9,1.18l0-1.76v-4h0.88v14.38h-0.76l-0.08-1.24h-0.06a4.49,4.49,0,0,1-3.12,1.48c-2.42,0-4-1.78-4-5S170.55,238.85,172.83,238.85Zm-0.16,9.3a4.34,4.34,0,0,0,3-1.58v-5.7a4.06,4.06,0,0,0-2.8-1.24c-1.92,0-3.38,1.86-3.38,4.28S170.63,248.15,172.67,248.15Z"/><path class="cls-2" d="M180.11,239.08H181v6c0,2,.64,3,2.18,3,1.14,0,2-.6,3.1-2v-7.08h0.88v9.6h-0.74l-0.1-1.6h0a4.29,4.29,0,0,1-3.26,1.84c-2,0-2.9-1.2-2.9-3.68v-6.16Z"/><path class="cls-2" d="M194.41,238.85a3.94,3.94,0,0,1,2.82,1.18l-0.52.62a3.27,3.27,0,0,0-2.28-1c-2,0-3.48,1.74-3.48,4.28s1.38,4.24,3.48,4.24A3.86,3.86,0,0,0,197,247l0.46,0.6a4.54,4.54,0,0,1-3.06,1.28c-2.48,0-4.36-1.84-4.36-5S192.07,238.85,194.41,238.85Z"/><path class="cls-2" d="M200,239.85h-1.5v-0.68l1.52-.08,0.12-2.78h0.76v2.78h2.78v0.76h-2.78v6.26c0,1.22.3,2,1.62,2a3.21,3.21,0,0,0,1.2-.3l0.24,0.72a5.36,5.36,0,0,1-1.56.36c-1.86,0-2.4-1.18-2.4-2.9v-6.18Z"/><path class="cls-2" d="M209.63,246.31a5.19,5.19,0,0,0,3.88,1.78c2,0,3.28-1.08,3.28-2.64s-1.08-2.18-2.38-2.76l-2-.9c-1.14-.5-2.66-1.32-2.66-3.28s1.64-3.24,3.82-3.24a5,5,0,0,1,3.68,1.58l-0.54.62a4.18,4.18,0,0,0-3.14-1.36c-1.74,0-2.9.92-2.9,2.36s1.32,2.1,2.28,2.54l2,0.88c1.46,0.66,2.76,1.48,2.76,3.5s-1.66,3.54-4.22,3.54a5.81,5.81,0,0,1-4.44-2Z"/><path class="cls-2" d="M223.69,238.85c2.28,0,3.68,1.62,3.68,4.44a4.35,4.35,0,0,1,0,.72h-6.92c0,2.42,1.46,4.16,3.62,4.16a4.25,4.25,0,0,0,2.58-.86L227,248a5.35,5.35,0,0,1-3,.94c-2.46,0-4.44-1.88-4.44-5S221.55,238.85,223.69,238.85Zm2.84,4.48c0-2.46-1.1-3.72-2.82-3.72s-3.1,1.42-3.3,3.72h6.12Z"/><path class="cls-2" d="M230,239.08h0.76l0.08,1.78h0.06a3.3,3.3,0,0,1,2.72-2,2,2,0,0,1,1,.2l-0.2.8a2.09,2.09,0,0,0-.88-0.16c-0.86,0-1.88.66-2.62,2.46v6.54H230v-9.6Z"/><path class="cls-2" d="M235.25,239.08h1l2.16,6c0.3,0.92.66,1.88,1,2.76h0.08c0.32-.88.66-1.84,1-2.76l2.16-6h0.9l-3.56,9.6h-1Z"/><path class="cls-2" d="M245.19,236a0.8,0.8,0,1,1,.8.78A0.77,0.77,0,0,1,245.19,236Zm0.34,3.1h0.88v9.6h-0.88v-9.6Z"/><path class="cls-2" d="M253.69,238.85a3.94,3.94,0,0,1,2.82,1.18l-0.52.62a3.27,3.27,0,0,0-2.28-1c-2,0-3.48,1.74-3.48,4.28s1.38,4.24,3.48,4.24a3.86,3.86,0,0,0,2.56-1.1l0.46,0.6a4.54,4.54,0,0,1-3.06,1.28c-2.48,0-4.36-1.84-4.36-5S251.35,238.85,253.69,238.85Z"/><path class="cls-2" d="M262.13,238.85c2.28,0,3.68,1.62,3.68,4.44a4.35,4.35,0,0,1,0,.72h-6.92c0,2.42,1.46,4.16,3.62,4.16a4.25,4.25,0,0,0,2.58-.86l0.36,0.68a5.35,5.35,0,0,1-3,.94c-2.46,0-4.44-1.88-4.44-5S260,238.85,262.13,238.85Zm2.84,4.48c0-2.46-1.1-3.72-2.82-3.72s-3.1,1.42-3.3,3.72H265Z"/><path class="cls-2" d="M145.7,267.71a5.19,5.19,0,0,0,3.88,1.78c2,0,3.28-1.08,3.28-2.64s-1.08-2.18-2.38-2.76l-2-.9c-1.14-.5-2.66-1.32-2.66-3.28s1.64-3.24,3.82-3.24a5,5,0,0,1,3.68,1.58l-0.54.62a4.18,4.18,0,0,0-3.14-1.36c-1.74,0-2.9.92-2.9,2.36s1.32,2.1,2.28,2.54l2,0.88c1.46,0.66,2.76,1.48,2.76,3.5s-1.66,3.54-4.22,3.54a5.81,5.81,0,0,1-4.44-2Z"/><path class="cls-2" d="M156,273.65c1.18,0,2-1.08,2.46-2.54l0.26-.84-3.94-9.78h1l2.32,6c0.3,0.8.68,1.84,1,2.68h0.08c0.3-.84.62-1.88,0.88-2.68l2.06-6H163l-3.8,10.8c-0.54,1.6-1.5,3.18-3.22,3.18a2.44,2.44,0,0,1-1-.2l0.2-.78A2.25,2.25,0,0,0,156,273.65Z"/><path class="cls-2" d="M164.42,268.35a4.46,4.46,0,0,0,3.06,1.22,2,2,0,0,0,2.28-1.9c0-1.2-1.24-1.72-2.34-2.12-1.46-.52-3.06-1.1-3.06-2.74,0-1.4,1.1-2.56,3.1-2.56a4.45,4.45,0,0,1,2.74,1l-0.48.62a3.63,3.63,0,0,0-2.3-.86c-1.48,0-2.16.86-2.16,1.74,0,1.06,1.12,1.52,2.26,1.94,1.5,0.56,3.14,1.06,3.14,2.94,0,1.44-1.16,2.7-3.24,2.7A5.56,5.56,0,0,1,163.9,269Z"/><path class="cls-2" d="M173.42,261.25h-1.5v-0.68l1.52-.08,0.12-2.78h0.76v2.78h2.78v0.76h-2.78v6.26c0,1.22.3,2,1.62,2a3.21,3.21,0,0,0,1.2-.3l0.24,0.72a5.36,5.36,0,0,1-1.56.36c-1.86,0-2.4-1.18-2.4-2.9v-6.18Z"/><path class="cls-2" d="M182.62,260.25c2.28,0,3.68,1.62,3.68,4.44a4.35,4.35,0,0,1,0,.72h-6.92c0,2.42,1.46,4.16,3.62,4.16a4.25,4.25,0,0,0,2.58-.86l0.36,0.68a5.35,5.35,0,0,1-3,.94c-2.46,0-4.44-1.88-4.44-5S180.48,260.25,182.62,260.25Zm2.84,4.48c0-2.46-1.1-3.72-2.82-3.72s-3.1,1.42-3.3,3.72h6.12Z"/><path class="cls-2" d="M188.9,260.49h0.76l0.08,1.48h0.06a4.4,4.4,0,0,1,3-1.72,2.5,2.5,0,0,1,2.66,2c1.1-1.2,2.16-2,3.26-2,1.92,0,2.88,1.2,2.88,3.68v6.16h-0.9v-6c0-2-.68-3-2.14-3-0.9,0-1.82.6-2.88,1.8v7.24h-0.88v-6c0-2-.68-3-2.16-3q-1.29,0-2.88,1.8v7.24H188.9v-9.6Z"/><path class="cls-2" d="M209.16,256.91h3c4.06,0,6,2.56,6,6.54s-1.94,6.64-6,6.64h-3.06V256.91Zm2.94,12.4c3.58,0,5.14-2.42,5.14-5.86s-1.56-5.76-5.14-5.76h-2v11.62h2Z"/><path class="cls-2" d="M224.48,260.25c2.28,0,3.68,1.62,3.68,4.44a4.35,4.35,0,0,1,0,.72H221.2c0,2.42,1.46,4.16,3.62,4.16a4.25,4.25,0,0,0,2.58-.86l0.36,0.68a5.35,5.35,0,0,1-3,.94c-2.46,0-4.44-1.88-4.44-5S222.34,260.25,224.48,260.25Zm2.84,4.48c0-2.46-1.1-3.72-2.82-3.72s-3.1,1.42-3.3,3.72h6.12Z"/><path class="cls-2" d="M230.08,268.35a4.46,4.46,0,0,0,3.06,1.22,2,2,0,0,0,2.28-1.9c0-1.2-1.24-1.72-2.34-2.12-1.46-.52-3.06-1.1-3.06-2.74,0-1.4,1.1-2.56,3.1-2.56a4.45,4.45,0,0,1,2.74,1l-0.48.62a3.63,3.63,0,0,0-2.3-.86c-1.48,0-2.16.86-2.16,1.74,0,1.06,1.12,1.52,2.26,1.94,1.5,0.56,3.14,1.06,3.14,2.94,0,1.44-1.16,2.7-3.24,2.7a5.56,5.56,0,0,1-3.52-1.32Z"/><path class="cls-2" d="M238.52,257.39a0.8,0.8,0,1,1,.8.78A0.77,0.77,0,0,1,238.52,257.39Zm0.34,3.1h0.88v9.6h-0.88v-9.6Z"/><path class="cls-2" d="M244.06,269.73v-0.08a1.71,1.71,0,0,1-.84-1.54,2.26,2.26,0,0,1,1-1.76v-0.08a3.58,3.58,0,0,1-1.2-2.64,3.3,3.3,0,0,1,3.38-3.38,3.44,3.44,0,0,1,1.26.24H251v0.74h-2.24a3.2,3.2,0,0,1,1.06,2.42,3.28,3.28,0,0,1-3.34,3.38,3.34,3.34,0,0,1-1.6-.4,1.73,1.73,0,0,0-.78,1.38c0,0.7.4,1.26,1.84,1.26H248c2.16,0,3.16.68,3.16,2.2s-1.78,3.24-4.54,3.24c-2.42,0-3.94-1-3.94-2.66A3,3,0,0,1,244.06,269.73Zm2.62,4.26c2.16,0,3.54-1.22,3.54-2.42s-0.78-1.46-2.22-1.46h-2.06a5.92,5.92,0,0,1-1.2-.16,2.51,2.51,0,0,0-1.26,2C243.48,273.17,244.64,274,246.68,274Zm2.24-10.36a2.5,2.5,0,1,0-5,0A2.5,2.5,0,1,0,248.92,263.63Z"/><path class="cls-2" d="M253.18,260.49h0.76L254,262h0.06a4.69,4.69,0,0,1,3.3-1.72c2,0,2.9,1.2,2.9,3.68v6.16H259.4v-6c0-2-.64-3-2.2-3-1.14,0-2,.6-3.14,1.8v7.24h-0.88v-9.6Z"/></svg>