<svg id="Layer_1" data-name="Layer 1" xmlns="http://www.w3.org/2000/svg" viewBox="0 0 600 375"><defs><style>.cls-1{fill:#000100;}.cls-2{fill:#231f20;}.cls-3,.cls-4{fill:none;stroke:#000;stroke-miterlimit:10;}.cls-3{stroke-width:0.5px;}</style></defs><title>thesis_final_website</title><path class="cls-1" d="M256.27,36.74a3.55,3.55,0,0,0,3,1.67,2.31,2.31,0,0,0,2.54-2.23,2.37,2.37,0,0,0-1.48-1.94L259,33.41a3.19,3.19,0,0,1-1.82-2.77,3.45,3.45,0,0,1,3.67-3.28A4.25,4.25,0,0,1,264.21,29l-0.92.83a3.28,3.28,0,0,0-2.54-1.28,2,2,0,0,0-2.14,1.91c0,0.92.67,1.4,1.53,1.93l1.37,0.81A3,3,0,0,1,263.3,36c0,2.11-1.71,3.62-4.11,3.62a4.57,4.57,0,0,1-3.94-2.09Z"/><path class="cls-1" d="M269.49,30.42c2,0,2.7,1.37,2.7,3.17a5.7,5.7,0,0,1-.31,1.71h-5.69c-0.32,2.25.85,3.21,2.38,3.21a3.49,3.49,0,0,0,2-.76l0.54,0.92a4.9,4.9,0,0,1-2.83.94c-2.07,0-3.44-1.31-3.44-3.65C264.81,32.65,267.2,30.42,269.49,30.42Zm1.44,3.94a4.64,4.64,0,0,0,.09-0.9,1.68,1.68,0,0,0-1.69-1.94,3.43,3.43,0,0,0-3,2.84h4.59Z"/><path class="cls-1" d="M275.09,30.64h1.13L276,32.31h0.07a3.55,3.55,0,0,1,2.72-1.89,2,2,0,0,1,.83.16l-0.49,1.22a1.7,1.7,0,0,0-.76-0.14c-0.86,0-1.84.77-2.57,2.2l-1.1,5.53h-1.37Z"/><path class="cls-1" d="M280.13,30.64h1.37l0.65,5.06c0.09,0.85.16,1.76,0.25,2.61h0.07c0.41-.86.85-1.75,1.3-2.61l2.58-5.06h1.39l-4.66,8.75H281.4Z"/><path class="cls-1" d="M289.43,30.64h1.39l-1.76,8.75h-1.37ZM289.72,28a1,1,0,0,1,1-1,0.83,0.83,0,0,1,.88.83,1,1,0,0,1-1,1A0.81,0.81,0,0,1,289.72,28Z"/><path class="cls-1" d="M296.94,30.42a2.89,2.89,0,0,1,2.27,1.06l-0.81.86a1.83,1.83,0,0,0-1.55-.79c-1.75,0-3.39,2.05-3.39,4.45,0,1.58.68,2.45,2.07,2.45a3.19,3.19,0,0,0,1.94-.77l0.61,0.9a4.47,4.47,0,0,1-2.81,1c-1.91,0-3.22-1.28-3.22-3.51C292.06,32.83,294.4,30.42,296.94,30.42Z"/><path class="cls-1" d="M304.3,30.42c2,0,2.7,1.37,2.7,3.17a5.7,5.7,0,0,1-.31,1.71H301c-0.32,2.25.85,3.21,2.38,3.21a3.49,3.49,0,0,0,2-.76l0.54,0.92a4.9,4.9,0,0,1-2.83.94c-2.07,0-3.44-1.31-3.44-3.65C299.62,32.65,302,30.42,304.3,30.42Zm1.44,3.94a4.64,4.64,0,0,0,.09-0.9,1.68,1.68,0,0,0-1.69-1.94,3.43,3.43,0,0,0-3,2.84h4.59Z"/><path class="cls-1" d="M314.06,27.58h1.4L313.34,38.2h5l-0.23,1.19H311.7Z"/><path class="cls-1" d="M319.83,36.09c0-3.31,2.32-5.67,4.72-5.67,1.89,0,3.13,1.33,3.13,3.51,0,3.31-2.34,5.67-4.74,5.67C321.06,39.6,319.83,38.27,319.83,36.09Zm1.39-.09c0,1.58.67,2.45,1.87,2.45,1.62,0,3.19-2,3.19-4.43,0-1.58-.67-2.47-1.87-2.47C322.8,31.56,321.22,33.55,321.22,36Z"/><path class="cls-1" d="M337.37,30.64l-1.84,9.16c-0.47,2.32-1.91,3.62-4.1,3.62a4.82,4.82,0,0,1-3.06-1.21l0.65-1a3.8,3.8,0,0,0,2.47,1c1.49,0,2.38-1,2.75-2.61l0.43-1.8h-0.05a4.36,4.36,0,0,1-3,1.4c-1.48,0-2.54-1-2.54-3.08,0-3.21,2.27-5.8,4.63-5.8a2.37,2.37,0,0,1,2.11,1.31h0.05l0.34-1.1h1.13Zm-2.58,6,0.77-3.75a2.1,2.1,0,0,0-1.78-1.3c-1.69,0-3.26,2.16-3.26,4.45,0,1.42.59,2.13,1.57,2.13A3.78,3.78,0,0,0,334.79,36.61Z"/><path class="cls-1" d="M340.26,30.64h1.39l-1.76,8.75h-1.37ZM340.55,28a1,1,0,0,1,1-1,0.83,0.83,0,0,1,.88.83,1,1,0,0,1-1,1A0.81,0.81,0,0,1,340.55,28Z"/><path class="cls-1" d="M347.77,30.42A2.89,2.89,0,0,1,350,31.48l-0.81.86a1.83,1.83,0,0,0-1.55-.79c-1.75,0-3.39,2.05-3.39,4.45,0,1.58.68,2.45,2.07,2.45a3.19,3.19,0,0,0,1.94-.77l0.61,0.9a4.47,4.47,0,0,1-2.81,1c-1.91,0-3.22-1.28-3.22-3.51C342.89,32.83,345.23,30.42,347.77,30.42Z"/><path class="cls-1" d="M184.41,110c0-2.57,1.68-5.2,4.09-5.2,1.89,0,2.91,1.4,2.91,3.52,0,2.58-1.68,5.21-4.09,5.21C185.44,113.55,184.41,112.15,184.41,110Zm1-.08c0,1.64.6,2.75,2,2.75,1.81,0,3-2.3,3-4.26,0-1.66-.62-2.75-2-2.75C186.64,105.68,185.43,108,185.43,109.94Z"/><path class="cls-1" d="M197.24,106.12c0.26-1.26.94-2,2-2a2.36,2.36,0,0,1,1.12.3l-0.36.72a1.09,1.09,0,0,0-1.75,1L198,107.16h1.27l-0.17.8h-1.26l-1.09,5.44h-1l1.09-5.44h-2.48l-1.1,5.44h-1l1.09-5.44H192.6l0.14-.73,0.83-.06,0.18-.91a2.15,2.15,0,0,1,2.05-2,2.55,2.55,0,0,1,1.19.3l-0.35.72a1.48,1.48,0,0,0-.77-0.22,1.23,1.23,0,0,0-1.14,1.19l-0.19.94H197Z"/><path class="cls-1" d="M201.07,104.26h1l-1.6,8a1.06,1.06,0,0,0,0,.24,0.21,0.21,0,0,0,.22.23,0.53,0.53,0,0,0,.21,0v0.76a1.61,1.61,0,0,1-.62.1,0.74,0.74,0,0,1-.83-0.81,2.43,2.43,0,0,1,.08-0.54Z"/><path class="cls-1" d="M203.67,107.16h1l-1.26,6.24h-1Zm0.21-1.87a0.74,0.74,0,0,1,.74-0.74,0.59,0.59,0,0,1,.63.59,0.73,0.73,0,0,1-.74.73A0.58,0.58,0,0,1,203.88,105.29Z"/><path class="cls-1" d="M206.7,107.16h0.81l-0.09.94h0.05a3.49,3.49,0,0,1,2.18-1.09,1.34,1.34,0,0,1,1.48,1.55,3.55,3.55,0,0,1-.1.86l-0.79,4h-1l0.77-3.85a3.76,3.76,0,0,0,.1-0.73,0.83,0.83,0,0,0-.92-1,3,3,0,0,0-1.87,1.13l-0.89,4.41h-1Z"/><path class="cls-1" d="M215.62,107c1.4,0,1.92,1,1.92,2.26a4.07,4.07,0,0,1-.22,1.22h-4.05c-0.23,1.6.6,2.28,1.69,2.28a2.49,2.49,0,0,0,1.4-.54l0.38,0.65a3.5,3.5,0,0,1-2,.67,2.34,2.34,0,0,1-2.45-2.6A3.71,3.71,0,0,1,215.62,107Zm1,2.81a3.33,3.33,0,0,0,.06-0.64,1.2,1.2,0,0,0-1.21-1.39,2.44,2.44,0,0,0-2.13,2h3.27Z"/><path class="cls-1" d="M395.39,110c0-2.57,1.68-5.2,4.09-5.2,1.89,0,2.91,1.4,2.91,3.52,0,2.58-1.68,5.21-4.09,5.21C396.42,113.55,395.39,112.15,395.39,110Zm1-.08c0,1.64.6,2.75,2,2.75,1.81,0,3-2.3,3-4.26,0-1.66-.62-2.75-2-2.75C397.62,105.68,396.41,108,396.41,109.94Z"/><path class="cls-1" d="M404.37,107.16h0.81l-0.09.94h0.05a3.49,3.49,0,0,1,2.18-1.09,1.34,1.34,0,0,1,1.48,1.55,3.55,3.55,0,0,1-.1.86l-0.79,4h-1l0.77-3.85a3.76,3.76,0,0,0,.1-0.73,0.83,0.83,0,0,0-.92-1A3,3,0,0,0,405,109l-0.89,4.41h-1Z"/><path class="cls-1" d="M411.7,104.26h1l-1.6,8a1.06,1.06,0,0,0,0,.24,0.21,0.21,0,0,0,.22.23,0.53,0.53,0,0,0,.21,0v0.76a1.61,1.61,0,0,1-.62.1,0.74,0.74,0,0,1-.83-0.81,2.43,2.43,0,0,1,.08-0.54Z"/><path class="cls-1" d="M414.3,107.16h1L414,113.4h-1Zm0.21-1.87a0.74,0.74,0,0,1,.74-0.74,0.59,0.59,0,0,1,.63.59,0.73,0.73,0,0,1-.74.73A0.58,0.58,0,0,1,414.51,105.29Z"/><path class="cls-1" d="M417.33,107.16h0.81l-0.09.94h0.05a3.49,3.49,0,0,1,2.18-1.09,1.34,1.34,0,0,1,1.48,1.55,3.55,3.55,0,0,1-.1.86l-0.79,4h-1l0.77-3.85a3.76,3.76,0,0,0,.1-0.73,0.83,0.83,0,0,0-.92-1A3,3,0,0,0,418,109l-0.89,4.41h-1Z"/><path class="cls-1" d="M426.25,107c1.4,0,1.92,1,1.92,2.26a4.07,4.07,0,0,1-.22,1.22H423.9c-0.23,1.6.6,2.28,1.69,2.28a2.49,2.49,0,0,0,1.4-.54l0.38,0.65a3.5,3.5,0,0,1-2,.67,2.34,2.34,0,0,1-2.45-2.6A3.71,3.71,0,0,1,426.25,107Zm1,2.81a3.33,3.33,0,0,0,.06-0.64,1.2,1.2,0,0,0-1.21-1.39,2.44,2.44,0,0,0-2.13,2h3.27Z"/><path class="cls-2" d="M398.82,186.48h-4.18l-1.23,3.62h-0.75l3.73-10.55h0.74l3.71,10.55H400Zm-0.21-.62-0.67-2c-0.42-1.25-.8-2.35-1.17-3.65H396.7c-0.37,1.3-.74,2.4-1.17,3.65l-0.67,2h3.75Z"/><path class="cls-2" d="M402.37,178.59h0.7v10.58c0,0.34.14,0.5,0.34,0.5a1.23,1.23,0,0,0,.29,0l0.13,0.58a1.48,1.48,0,0,1-.51.08c-0.62,0-.94-0.38-0.94-1.22V178.59Z"/><path class="cls-2" d="M405.07,182.41h0.77l1.38,5c0.19,0.7.37,1.36,0.53,2h0.06c0.18-.69.37-1.34,0.56-2l1.39-5h0.85l1.39,5c0.19,0.7.38,1.36,0.58,2h0.06c0.18-.69.37-1.34,0.54-2l1.36-5h0.72l-2.21,7.68h-0.93l-1.34-4.77c-0.22-.74-0.37-1.44-0.59-2.19h-0.06c-0.18.75-.37,1.49-0.61,2.23l-1.33,4.74h-0.85Z"/><path class="cls-2" d="M421.49,185.28c0-1.17-.3-2.43-1.81-2.43a4.23,4.23,0,0,0-2.45.9l-0.32-.53a5.13,5.13,0,0,1,2.85-1c1.83,0,2.43,1.31,2.43,3v4.91H421.6l-0.08-1h0a4.56,4.56,0,0,1-2.72,1.18,2,2,0,0,1-2.24-2.11C416.53,186.48,418.08,185.66,421.49,185.28Zm-2.61,4.4a4,4,0,0,0,2.61-1.25v-2.61c-3.15.37-4.23,1.1-4.23,2.32A1.44,1.44,0,0,0,418.88,189.68Z"/><path class="cls-2" d="M424.64,192.95c0.94,0,1.58-.86,2-2l0.21-.67-3.15-7.83h0.77l1.86,4.83c0.24,0.64.54,1.47,0.83,2.15h0.06c0.24-.67.5-1.5,0.7-2.15l1.65-4.83h0.72l-3,8.64c-0.43,1.28-1.2,2.54-2.58,2.54a2,2,0,0,1-.79-0.16l0.16-.62A1.8,1.8,0,0,0,424.64,192.95Z"/><path class="cls-2" d="M431.37,188.71a3.56,3.56,0,0,0,2.45,1,1.6,1.6,0,0,0,1.83-1.52c0-1-1-1.38-1.87-1.7-1.17-.42-2.45-0.88-2.45-2.19,0-1.12.88-2,2.48-2a3.56,3.56,0,0,1,2.19.8l-0.38.5a2.91,2.91,0,0,0-1.84-.69,1.49,1.49,0,0,0-1.73,1.39c0,0.85.9,1.22,1.81,1.55,1.2,0.45,2.51.85,2.51,2.35,0,1.15-.93,2.16-2.59,2.16a4.45,4.45,0,0,1-2.82-1.06Z"/><path class="cls-2" d="M384.66,267.91h0.79l1.31,6.21c0.26,1.15.5,2.31,0.74,3.44h0.06c0.24-1.14.53-2.29,0.8-3.44l1.66-6.21h0.74l1.67,6.21c0.27,1.15.56,2.29,0.83,3.44h0.06c0.24-1.15.46-2.29,0.7-3.44l1.31-6.21h0.74l-2.37,10.55h-0.82L391,271.22c-0.19-.83-0.37-1.55-0.56-2.39h-0.06c-0.18.83-.38,1.55-0.58,2.39l-1.89,7.23h-0.82Z"/><path class="cls-2" d="M398,266.95h0.7v5a3.78,3.78,0,0,1,2.66-1.39c1.58,0,2.32,1,2.32,2.94v4.93h-0.71v-4.83c0-1.63-.51-2.4-1.76-2.4-0.91,0-1.57.48-2.51,1.44v5.79H398V266.95Z"/><path class="cls-2" d="M409.11,270.58c1.82,0,2.95,1.3,2.95,3.55a3.46,3.46,0,0,1,0,.58h-5.54c0,1.94,1.17,3.33,2.9,3.33a3.4,3.4,0,0,0,2.06-.69l0.29,0.54a4.28,4.28,0,0,1-2.42.75c-2,0-3.55-1.5-3.55-4S407.4,270.58,409.11,270.58Zm2.27,3.59c0-2-.88-3-2.26-3s-2.48,1.14-2.64,3h4.9Z"/><path class="cls-2" d="M414.13,270.77h0.61l0.06,1.42h0a2.63,2.63,0,0,1,2.18-1.62,1.58,1.58,0,0,1,.77.16l-0.16.64a1.67,1.67,0,0,0-.7-0.13c-0.69,0-1.5.53-2.1,2v5.23h-0.7v-7.68Z"/><path class="cls-2" d="M421.75,270.58c1.82,0,2.95,1.3,2.95,3.55a3.46,3.46,0,0,1,0,.58h-5.54c0,1.94,1.17,3.33,2.9,3.33a3.4,3.4,0,0,0,2.06-.69l0.29,0.54a4.28,4.28,0,0,1-2.42.75c-2,0-3.55-1.5-3.55-4S420,270.58,421.75,270.58Zm2.27,3.59c0-2-.88-3-2.26-3s-2.48,1.14-2.64,3H424Z"/><path class="cls-2" d="M425.69,270.77h0.77l1.73,4.82c0.24,0.74.53,1.5,0.77,2.21H429c0.26-.7.53-1.47,0.78-2.21l1.73-4.82h0.72l-2.85,7.68h-0.83Z"/><path class="cls-2" d="M436.62,270.58c1.82,0,2.95,1.3,2.95,3.55a3.46,3.46,0,0,1,0,.58H434c0,1.94,1.17,3.33,2.9,3.33a3.4,3.4,0,0,0,2.06-.69l0.29,0.54a4.28,4.28,0,0,1-2.42.75c-2,0-3.55-1.5-3.55-4S434.9,270.58,436.62,270.58Zm2.27,3.59c0-2-.88-3-2.26-3s-2.48,1.14-2.64,3h4.9Z"/><path class="cls-2" d="M441.64,270.77h0.61l0.06,1.42h0a2.63,2.63,0,0,1,2.18-1.62,1.58,1.58,0,0,1,.77.16l-0.16.64a1.67,1.67,0,0,0-.7-0.13c-0.69,0-1.5.53-2.1,2v5.23h-0.7v-7.68Z"/><path class="cls-2" d="M176.68,183.5a4.16,4.16,0,0,0,3.11,1.42c1.6,0,2.63-.86,2.63-2.11s-0.86-1.74-1.91-2.21l-1.6-.72a2.9,2.9,0,0,1-2.13-2.62c0-1.52,1.31-2.59,3.06-2.59a4,4,0,0,1,2.95,1.26l-0.43.5a3.34,3.34,0,0,0-2.51-1.09c-1.39,0-2.32.74-2.32,1.89s1.06,1.68,1.83,2l1.6,0.7c1.17,0.53,2.21,1.18,2.21,2.8s-1.33,2.83-3.38,2.83a4.65,4.65,0,0,1-3.55-1.58Z"/><path class="cls-2" d="M185.93,186.08v2.8h-0.7V177.73h0.61l0.06,1h0a4.49,4.49,0,0,1,2.61-1.15c2,0,3.07,1.54,3.07,3.92,0,2.61-1.58,4.15-3.39,4.15a4.06,4.06,0,0,1-2.3-.94v1.42Zm2.27-1.1c1.55,0,2.67-1.44,2.67-3.52,0-1.89-.67-3.3-2.43-3.3a4.07,4.07,0,0,0-2.51,1.26V184A3.76,3.76,0,0,0,188.21,185Z"/><path class="cls-2" d="M196.64,177.53c1.82,0,2.95,1.3,2.95,3.55a3.45,3.45,0,0,1,0,.58H194c0,1.94,1.17,3.33,2.9,3.33a3.4,3.4,0,0,0,2.06-.69l0.29,0.54a4.28,4.28,0,0,1-2.42.75c-2,0-3.55-1.5-3.55-4S194.92,177.53,196.64,177.53Zm2.27,3.58c0-2-.88-3-2.26-3s-2.48,1.14-2.64,3h4.9Z"/><path class="cls-2" d="M204.52,177.53a3.15,3.15,0,0,1,2.26.94l-0.42.5a2.62,2.62,0,0,0-1.83-.82c-1.57,0-2.79,1.39-2.79,3.42s1.1,3.39,2.79,3.39a3.09,3.09,0,0,0,2-.88l0.37,0.48a3.63,3.63,0,0,1-2.45,1c-2,0-3.49-1.47-3.49-4S202.65,177.53,204.52,177.53Z"/><path class="cls-2" d="M208.57,175.25a0.64,0.64,0,1,1,.64.62A0.61,0.61,0,0,1,208.57,175.25Zm0.27,2.48h0.7v7.68h-0.7v-7.68Z"/><path class="cls-2" d="M215.45,174.54a2.08,2.08,0,0,0-.93-0.22c-0.82,0-1.2.64-1.2,1.75v1.66h1.78v0.61h-1.78v7.08h-0.7v-7.08h-1.06v-0.54l1.06-.06V176c0-1.52.69-2.3,1.9-2.3a2.86,2.86,0,0,1,1.12.26Z"/><path class="cls-2" d="M216.44,175.25a0.64,0.64,0,1,1,.64.62A0.61,0.61,0,0,1,216.44,175.25Zm0.27,2.48h0.7v7.68h-0.7v-7.68Z"/><path class="cls-2" d="M223.24,177.53a3.15,3.15,0,0,1,2.26.94l-0.42.5a2.62,2.62,0,0,0-1.83-.82c-1.57,0-2.79,1.39-2.79,3.42s1.1,3.39,2.79,3.39a3.09,3.09,0,0,0,2-.88l0.37,0.48a3.63,3.63,0,0,1-2.45,1c-2,0-3.49-1.47-3.49-4S221.37,177.53,223.24,177.53Z"/><path class="cls-2" d="M171.16,197.54h0.61l0.06,1.18h0a3.52,3.52,0,0,1,2.42-1.38,2,2,0,0,1,2.13,1.57,3.86,3.86,0,0,1,2.61-1.57c1.54,0,2.3,1,2.3,2.95v4.93h-0.72v-4.83c0-1.63-.54-2.4-1.71-2.4a3.35,3.35,0,0,0-2.3,1.44v5.79h-0.7v-4.83c0-1.63-.54-2.4-1.73-2.4a3.41,3.41,0,0,0-2.3,1.44v5.79h-0.7v-7.68Z"/><path class="cls-2" d="M186.95,197.35c1.86,0,3.46,1.47,3.46,4s-1.6,4-3.46,4-3.44-1.47-3.44-4S185.11,197.35,186.95,197.35Zm0,7.44c1.55,0,2.72-1.38,2.72-3.39S188.5,198,186.95,198s-2.71,1.39-2.71,3.43S185.4,204.79,186.95,204.79Z"/><path class="cls-2" d="M192.71,197.54h0.61l0.06,1.18h0a3.52,3.52,0,0,1,2.42-1.38,2,2,0,0,1,2.13,1.57,3.86,3.86,0,0,1,2.61-1.57c1.54,0,2.3,1,2.3,2.95v4.93h-0.72v-4.83c0-1.63-.54-2.4-1.71-2.4a3.35,3.35,0,0,0-2.3,1.44v5.79h-0.7v-4.83c0-1.63-.54-2.4-1.73-2.4a3.41,3.41,0,0,0-2.3,1.44v5.79h-0.7v-7.68Z"/><path class="cls-2" d="M208.4,197.35c1.82,0,2.95,1.3,2.95,3.55a3.46,3.46,0,0,1,0,.58h-5.54c0,1.94,1.17,3.33,2.9,3.33a3.4,3.4,0,0,0,2.06-.69l0.29,0.54a4.28,4.28,0,0,1-2.42.75c-2,0-3.55-1.5-3.55-4S206.69,197.35,208.4,197.35Zm2.27,3.59c0-2-.88-3-2.26-3s-2.48,1.14-2.64,3h4.9Z"/><path class="cls-2" d="M213.43,197.54H214l0.06,1.18h0a3.75,3.75,0,0,1,2.64-1.38c1.58,0,2.32,1,2.32,2.95v4.93H218.4v-4.83c0-1.63-.51-2.4-1.76-2.4-0.91,0-1.57.48-2.51,1.44v5.79h-0.7v-7.68Z"/><path class="cls-2" d="M222.11,198.15h-1.2V197.6l1.22-.06,0.1-2.23h0.61v2.23h2.22v0.61h-2.22v5c0,1,.24,1.63,1.3,1.63a2.58,2.58,0,0,0,1-.24l0.19,0.58a4.29,4.29,0,0,1-1.25.29c-1.49,0-1.92-.94-1.92-2.32v-4.95Z"/><path class="cls-2" d="M226.39,203.83a3.56,3.56,0,0,0,2.45,1,1.59,1.59,0,0,0,1.83-1.52c0-1-1-1.38-1.87-1.7-1.17-.42-2.45-0.88-2.45-2.19,0-1.12.88-2,2.48-2a3.56,3.56,0,0,1,2.19.8l-0.38.5a2.9,2.9,0,0,0-1.84-.69,1.49,1.49,0,0,0-1.73,1.39c0,0.85.9,1.22,1.81,1.55,1.2,0.45,2.51.85,2.51,2.35,0,1.15-.93,2.16-2.59,2.16a4.45,4.45,0,0,1-2.82-1.06Z"/><path class="cls-2" d="M170.84,267.91h0.74v9.91h4.85v0.64h-5.59V267.91Z"/><path class="cls-2" d="M180.79,270.58c1.86,0,3.46,1.47,3.46,4s-1.6,4-3.46,4-3.44-1.47-3.44-4S178.95,270.58,180.79,270.58Zm0,7.44c1.55,0,2.72-1.38,2.72-3.39s-1.17-3.43-2.72-3.43-2.71,1.39-2.71,3.43S179.24,278,180.79,278Z"/><path class="cls-2" d="M189.41,270.58a3.15,3.15,0,0,1,2.26.94l-0.42.5a2.62,2.62,0,0,0-1.83-.82c-1.57,0-2.79,1.39-2.79,3.43s1.1,3.39,2.79,3.39a3.09,3.09,0,0,0,2-.88l0.37,0.48a3.63,3.63,0,0,1-2.45,1c-2,0-3.49-1.47-3.49-4S187.54,270.58,189.41,270.58Z"/><path class="cls-2" d="M198.1,273.64c0-1.17-.3-2.43-1.81-2.43a4.23,4.23,0,0,0-2.45.9l-0.32-.53a5.13,5.13,0,0,1,2.85-1c1.83,0,2.43,1.31,2.43,3v4.91h-0.59l-0.08-1h0a4.56,4.56,0,0,1-2.72,1.18,2,2,0,0,1-2.24-2.11C193.14,274.84,194.69,274,198.1,273.64Zm-2.61,4.4a4,4,0,0,0,2.61-1.25v-2.61c-3.15.37-4.23,1.1-4.23,2.32A1.44,1.44,0,0,0,195.49,278Z"/><path class="cls-2" d="M201.73,271.38h-1.2v-0.54l1.22-.06,0.1-2.23h0.61v2.23h2.22v0.61h-2.22v5c0,1,.24,1.63,1.3,1.63a2.58,2.58,0,0,0,1-.24l0.19,0.58a4.29,4.29,0,0,1-1.25.29c-1.49,0-1.92-.94-1.92-2.32v-4.95Z"/><path class="cls-2" d="M206.27,268.29a0.64,0.64,0,1,1,.64.62A0.61,0.61,0,0,1,206.27,268.29Zm0.27,2.48h0.7v7.68h-0.7v-7.68Z"/><path class="cls-2" d="M213,270.58c1.86,0,3.46,1.47,3.46,4s-1.6,4-3.46,4-3.44-1.47-3.44-4S211.17,270.58,213,270.58Zm0,7.44c1.55,0,2.72-1.38,2.72-3.39s-1.17-3.43-2.72-3.43-2.71,1.39-2.71,3.43S211.46,278,213,278Z"/><path class="cls-2" d="M218.77,270.77h0.61l0.06,1.18h0a3.75,3.75,0,0,1,2.64-1.38c1.58,0,2.32,1,2.32,2.94v4.93h-0.71v-4.83c0-1.63-.51-2.4-1.76-2.4-0.91,0-1.57.48-2.51,1.44v5.79h-0.7v-7.68Z"/><path class="cls-2" d="M226.74,277.06a3.56,3.56,0,0,0,2.45,1,1.6,1.6,0,0,0,1.83-1.52c0-1-1-1.38-1.87-1.7-1.17-.42-2.45-0.88-2.45-2.19,0-1.12.88-2,2.48-2a3.56,3.56,0,0,1,2.19.8l-0.38.5a2.91,2.91,0,0,0-1.84-.69,1.49,1.49,0,0,0-1.73,1.39c0,0.85.9,1.22,1.81,1.55,1.2,0.45,2.51.85,2.51,2.35,0,1.15-.93,2.16-2.59,2.16a4.45,4.45,0,0,1-2.82-1.06Z"/><path class="cls-2" d="M228.08,337H231c2.35,0,3.75.77,3.75,2.95S233.3,343,231,343h-2.14v4.53h-0.74V337Zm2.69,5.39c2.16,0,3.19-.72,3.19-2.45s-1-2.32-3.19-2.32h-2v4.77h2Z"/><path class="cls-2" d="M236.87,339.88h0.61l0.06,1.42h0a2.63,2.63,0,0,1,2.18-1.62,1.58,1.58,0,0,1,.77.16l-0.16.64a1.67,1.67,0,0,0-.7-0.13c-0.69,0-1.5.53-2.1,2v5.23h-0.7v-7.68Z"/><path class="cls-2" d="M244.58,339.69c1.86,0,3.46,1.47,3.46,4s-1.6,4-3.46,4-3.44-1.47-3.44-4S242.74,339.69,244.58,339.69Zm0,7.44c1.55,0,2.72-1.38,2.72-3.39s-1.17-3.43-2.72-3.43-2.71,1.39-2.71,3.43S243,347.14,244.58,347.14Z"/><path class="cls-2" d="M253.11,339.69a3.55,3.55,0,0,1,2.32.94l0-1.41v-3.17h0.71v11.51h-0.61l-0.06-1h0a3.6,3.6,0,0,1-2.5,1.18c-1.94,0-3.19-1.42-3.19-4S251.28,339.69,253.11,339.69ZM253,347.14a3.47,3.47,0,0,0,2.42-1.26v-4.56a3.25,3.25,0,0,0-2.24-1c-1.54,0-2.71,1.49-2.71,3.43S251.35,347.14,253,347.14Z"/><path class="cls-2" d="M258.93,339.88h0.7v4.83c0,1.63.51,2.4,1.75,2.4,0.91,0,1.58-.48,2.48-1.57v-5.67h0.7v7.68H264l-0.08-1.28h0a3.43,3.43,0,0,1-2.61,1.47c-1.58,0-2.32-1-2.32-2.94v-4.93Z"/><path class="cls-2" d="M270.37,339.69a3.15,3.15,0,0,1,2.26.94l-0.42.5a2.62,2.62,0,0,0-1.83-.82c-1.57,0-2.79,1.39-2.79,3.43s1.1,3.39,2.79,3.39a3.09,3.09,0,0,0,2-.88l0.37,0.48a3.63,3.63,0,0,1-2.45,1c-2,0-3.49-1.47-3.49-4S268.5,339.69,270.37,339.69Z"/><path class="cls-2" d="M274.86,340.49h-1.2v-0.54l1.22-.06,0.1-2.23h0.61v2.23h2.22v0.61h-2.22v5c0,1,.24,1.63,1.3,1.63a2.58,2.58,0,0,0,1-.24l0.19,0.58a4.29,4.29,0,0,1-1.25.29c-1.49,0-1.92-.94-1.92-2.32v-4.95Z"/><path class="cls-2" d="M282.54,345.66a4.16,4.16,0,0,0,3.11,1.42c1.6,0,2.63-.86,2.63-2.11s-0.86-1.74-1.91-2.21l-1.6-.72a2.89,2.89,0,0,1-2.13-2.62c0-1.52,1.31-2.59,3.06-2.59a4,4,0,0,1,2.95,1.26l-0.43.5a3.34,3.34,0,0,0-2.51-1.09c-1.39,0-2.32.74-2.32,1.89s1.06,1.68,1.83,2l1.6,0.7c1.17,0.53,2.21,1.18,2.21,2.8s-1.33,2.83-3.38,2.83a4.65,4.65,0,0,1-3.55-1.58Z"/><path class="cls-2" d="M293.79,339.69c1.82,0,2.95,1.3,2.95,3.55a3.46,3.46,0,0,1,0,.58h-5.54c0,1.94,1.17,3.33,2.9,3.33a3.4,3.4,0,0,0,2.06-.69l0.29,0.54a4.28,4.28,0,0,1-2.42.75c-2,0-3.55-1.5-3.55-4S292.08,339.69,293.79,339.69Zm2.27,3.59c0-2-.88-3-2.26-3s-2.48,1.14-2.64,3h4.9Z"/><path class="cls-2" d="M298.82,339.88h0.61l0.06,1.42h0a2.63,2.63,0,0,1,2.18-1.62,1.58,1.58,0,0,1,.77.16l-0.16.64a1.67,1.67,0,0,0-.7-0.13c-0.69,0-1.5.53-2.1,2v5.23h-0.7v-7.68Z"/><path class="cls-2" d="M303,339.88h0.77l1.73,4.82c0.24,0.74.53,1.5,0.77,2.21h0.06c0.26-.7.53-1.47,0.78-2.21l1.73-4.82h0.72l-2.85,7.68h-0.83Z"/><path class="cls-2" d="M311,337.4a0.64,0.64,0,1,1,.64.62A0.61,0.61,0,0,1,311,337.4Zm0.27,2.48H312v7.68h-0.7v-7.68Z"/><path class="cls-2" d="M317.79,339.69a3.15,3.15,0,0,1,2.26.94l-0.42.5a2.62,2.62,0,0,0-1.83-.82c-1.57,0-2.79,1.39-2.79,3.43s1.1,3.39,2.79,3.39a3.09,3.09,0,0,0,2-.88l0.37,0.48a3.63,3.63,0,0,1-2.45,1c-2,0-3.49-1.47-3.49-4S315.92,339.69,317.79,339.69Z"/><path class="cls-2" d="M324.54,339.69c1.82,0,2.95,1.3,2.95,3.55a3.46,3.46,0,0,1,0,.58h-5.54c0,1.94,1.17,3.33,2.9,3.33a3.4,3.4,0,0,0,2.06-.69l0.29,0.54a4.28,4.28,0,0,1-2.42.75c-2,0-3.55-1.5-3.55-4S322.83,339.69,324.54,339.69Zm2.27,3.59c0-2-.88-3-2.26-3s-2.48,1.14-2.64,3h4.9Z"/><path class="cls-2" d="M332.43,345.66a4.16,4.16,0,0,0,3.11,1.42c1.6,0,2.63-.86,2.63-2.11s-0.86-1.74-1.91-2.21l-1.6-.72a2.89,2.89,0,0,1-2.13-2.62c0-1.52,1.31-2.59,3.06-2.59a4,4,0,0,1,2.95,1.26l-0.43.5a3.34,3.34,0,0,0-2.51-1.09c-1.39,0-2.32.74-2.32,1.89s1.06,1.68,1.83,2l1.6,0.7c1.17,0.53,2.21,1.18,2.21,2.8s-1.33,2.83-3.38,2.83a4.65,4.65,0,0,1-3.55-1.58Z"/><path class="cls-2" d="M340.67,350.42c0.94,0,1.58-.86,2-2l0.21-.67-3.15-7.83h0.77l1.86,4.83c0.24,0.64.54,1.47,0.83,2.15h0.06c0.24-.67.5-1.5,0.7-2.15l1.65-4.83h0.72l-3,8.64c-0.43,1.28-1.2,2.54-2.58,2.54a2,2,0,0,1-.79-0.16l0.16-.62A1.8,1.8,0,0,0,340.67,350.42Z"/><path class="cls-2" d="M347.4,346.17a3.56,3.56,0,0,0,2.45,1,1.6,1.6,0,0,0,1.83-1.52c0-1-1-1.38-1.87-1.7-1.17-.42-2.45-0.88-2.45-2.19,0-1.12.88-2,2.48-2a3.56,3.56,0,0,1,2.19.8l-0.38.5a2.91,2.91,0,0,0-1.84-.69,1.49,1.49,0,0,0-1.73,1.39c0,0.85.9,1.22,1.81,1.55,1.2,0.45,2.51.85,2.51,2.35,0,1.15-.93,2.16-2.59,2.16A4.45,4.45,0,0,1,347,346.7Z"/><path class="cls-2" d="M354.6,340.49h-1.2v-0.54l1.22-.06,0.1-2.23h0.61v2.23h2.22v0.61h-2.22v5c0,1,.24,1.63,1.3,1.63a2.58,2.58,0,0,0,1-.24l0.19,0.58a4.29,4.29,0,0,1-1.25.29c-1.49,0-1.92-.94-1.92-2.32v-4.95Z"/><path class="cls-2" d="M362,339.69c1.82,0,2.95,1.3,2.95,3.55a3.46,3.46,0,0,1,0,.58h-5.54c0,1.94,1.17,3.33,2.9,3.33a3.4,3.4,0,0,0,2.06-.69l0.29,0.54a4.28,4.28,0,0,1-2.42.75c-2,0-3.55-1.5-3.55-4S360.25,339.69,362,339.69Zm2.27,3.59c0-2-.88-3-2.26-3s-2.48,1.14-2.64,3h4.9Z"/><path class="cls-2" d="M367,339.88h0.61l0.06,1.18h0a3.52,3.52,0,0,1,2.42-1.38,2,2,0,0,1,2.13,1.57,3.86,3.86,0,0,1,2.61-1.57c1.54,0,2.3,1,2.3,2.94v4.93h-0.72v-4.83c0-1.63-.54-2.4-1.71-2.4a3.35,3.35,0,0,0-2.3,1.44v5.79h-0.7v-4.83c0-1.63-.54-2.4-1.73-2.4a3.42,3.42,0,0,0-2.3,1.44v5.79H367v-7.68Z"/><path class="cls-1" d="M81.56,180.17H79.12l0.17-.86h5.89l-0.17.86H82.56l-1.5,7.56h-1Z"/><path class="cls-1" d="M86.11,181.49h1l-1.26,6.24h-1Zm0.21-1.87a0.74,0.74,0,0,1,.74-0.74,0.59,0.59,0,0,1,.63.59,0.73,0.73,0,0,1-.74.73A0.58,0.58,0,0,1,86.32,179.62Z"/><path class="cls-1" d="M89.14,181.49h0.81l-0.09.94h0.05A3.39,3.39,0,0,1,92,181.34a1.28,1.28,0,0,1,1.44,1.22,3.63,3.63,0,0,1,2.21-1.22,1.35,1.35,0,0,1,1.48,1.55,4.39,4.39,0,0,1-.1.86l-0.8,4h-1L96,183.88a3.76,3.76,0,0,0,.1-0.73,0.83,0.83,0,0,0-.91-1,3.09,3.09,0,0,0-1.76,1.13l-0.89,4.41h-1l0.77-3.85a3.84,3.84,0,0,0,.1-0.73,0.82,0.82,0,0,0-.9-1,3,3,0,0,0-1.76,1.13l-0.89,4.41h-1Z"/><path class="cls-1" d="M101.57,181.34c1.4,0,1.92,1,1.92,2.26a4.07,4.07,0,0,1-.22,1.22H99.22c-0.23,1.6.6,2.28,1.69,2.28a2.49,2.49,0,0,0,1.4-.54l0.38,0.65a3.5,3.5,0,0,1-2,.67,2.34,2.34,0,0,1-2.45-2.6A3.71,3.71,0,0,1,101.57,181.34Zm1,2.81a3.33,3.33,0,0,0,.06-0.64,1.2,1.2,0,0,0-1.21-1.39,2.44,2.44,0,0,0-2.13,2h3.27Z"/><path class="cls-1" d="M274.31,134.49h-2.44l0.17-.86h5.89l-0.17.86h-2.45l-1.5,7.56h-1Z"/><path class="cls-1" d="M276.7,139.7c0-2.36,1.66-4,3.36-4a2.22,2.22,0,0,1,2.23,2.5c0,2.36-1.67,4-3.37,4A2.21,2.21,0,0,1,276.7,139.7Zm1-.06c0,1.13.48,1.75,1.33,1.75,1.16,0,2.27-1.41,2.27-3.16,0-1.13-.47-1.76-1.33-1.76C278.82,136.47,277.69,137.89,277.69,139.63Z"/><path class="cls-1" d="M287.91,142h-0.81l0.1-.95h-0.05a3.52,3.52,0,0,1-2.16,1.1,1.35,1.35,0,0,1-1.48-1.55,3.48,3.48,0,0,1,.1-0.86l0.8-4h1l-0.78,3.85a3.75,3.75,0,0,0-.1.73,0.83,0.83,0,0,0,.92,1,2.93,2.93,0,0,0,1.85-1.13l0.89-4.41h1Z"/><path class="cls-1" d="M293.53,135.66a2.06,2.06,0,0,1,1.62.76l-0.58.62a1.3,1.3,0,0,0-1.1-.56c-1.25,0-2.41,1.46-2.41,3.17,0,1.13.49,1.75,1.48,1.75a2.27,2.27,0,0,0,1.39-.55l0.44,0.64a3.18,3.18,0,0,1-2,.73,2.24,2.24,0,0,1-2.3-2.5A3.81,3.81,0,0,1,293.53,135.66Z"/><path class="cls-1" d="M297.38,132.91h1l-0.62,3-0.21.78h0.05a3.46,3.46,0,0,1,2.14-1.05,1.34,1.34,0,0,1,1.48,1.55,3.55,3.55,0,0,1-.1.86l-0.79,4h-1l0.77-3.85a3.76,3.76,0,0,0,.1-0.73,0.83,0.83,0,0,0-.92-1,3,3,0,0,0-1.87,1.13L296.54,142h-1Z"/><path class="cls-1" d="M303.07,142.64l-0.4,2h-1l1.77-8.87h0.81l-0.08.82h0a3.54,3.54,0,0,1,2.16-1c1.09,0,1.8.81,1.8,2.26,0,2.4-1.64,4.29-3.36,4.29a1.76,1.76,0,0,1-1.5-.9h0Zm1-5.13-0.59,3a1.43,1.43,0,0,0,1.27.9c1.25,0,2.39-1.59,2.39-3.32,0-1.05-.44-1.58-1.14-1.58A2.91,2.91,0,0,0,304.11,137.5Z"/><path class="cls-1" d="M309.19,139.7c0-2.36,1.66-4,3.36-4a2.22,2.22,0,0,1,2.23,2.5c0,2.36-1.67,4-3.37,4A2.21,2.21,0,0,1,309.19,139.7Zm1-.06c0,1.13.48,1.75,1.33,1.75,1.16,0,2.27-1.41,2.27-3.16,0-1.13-.47-1.76-1.33-1.76C311.31,136.47,310.18,137.89,310.18,139.63Z"/><path class="cls-1" d="M316.94,135.81h1L316.67,142h-1Zm0.21-1.87a0.74,0.74,0,0,1,.74-0.74,0.59,0.59,0,0,1,.63.59,0.73,0.73,0,0,1-.74.73A0.58,0.58,0,0,1,317.15,133.94Z"/><path class="cls-1" d="M320,135.81h0.81l-0.09.94h0.05a3.49,3.49,0,0,1,2.18-1.09,1.34,1.34,0,0,1,1.48,1.55,3.55,3.55,0,0,1-.1.86l-0.79,4h-1l0.77-3.85a3.76,3.76,0,0,0,.1-0.73,0.83,0.83,0,0,0-.92-1,3,3,0,0,0-1.87,1.13L319.71,142h-1Z"/><path class="cls-1" d="M326.76,136.61h-0.91l0.14-.73,1-.06,0.46-1.72h0.83l-0.35,1.72h1.58l-0.15.8h-1.6L327,140.17a2.72,2.72,0,0,0,0,.46,0.67,0.67,0,0,0,.79.77,1.56,1.56,0,0,0,.66-0.19l0.22,0.71a2.85,2.85,0,0,1-1.18.28,1.29,1.29,0,0,1-1.49-1.39,5.84,5.84,0,0,1,.06-0.69Z"/><path class="cls-1" d="M329.81,140.53a2,2,0,0,0,1.6.91,1.22,1.22,0,0,0,1.32-1c0-.45-0.27-0.71-1.14-1.18s-1.42-1-1.42-1.71a2,2,0,0,1,2.14-1.86,2.5,2.5,0,0,1,1.83.83l-0.56.55a1.74,1.74,0,0,0-1.3-.62,1.09,1.09,0,0,0-1.18,1,1.55,1.55,0,0,0,1.1,1.1c1.12,0.62,1.46,1.09,1.46,1.77a2.06,2.06,0,0,1-2.34,1.92,2.73,2.73,0,0,1-2.14-1.18Z"/><path class="cls-1" d="M78.71,267.67h2.37c1.58,0,2.64.59,2.64,2.05,0,2.07-1.54,3-3.68,3H78.7L78,276.09H77Zm1.37,4.22c1.73,0,2.66-.69,2.66-2,0-1-.67-1.39-1.9-1.39h-1.3l-0.68,3.43h1.22Z"/><path class="cls-1" d="M85.86,267h1l-1.6,8a1.06,1.06,0,0,0,0,.24,0.21,0.21,0,0,0,.22.23,0.53,0.53,0,0,0,.21,0v0.76a1.61,1.61,0,0,1-.62.1,0.74,0.74,0,0,1-.83-0.81,2.43,2.43,0,0,1,.08-0.54Z"/><path class="cls-1" d="M90.7,269.7a1.67,1.67,0,0,1,1.5.94h0.05l0.24-.78h0.8L92,276.09H91.24l0.1-.92H91.29a3.11,3.11,0,0,1-2.17,1.08c-1.09,0-1.8-.8-1.8-2.26C87.32,271.58,89,269.7,90.7,269.7Zm0.75,4.53L92,271.44a1.47,1.47,0,0,0-1.27-.92c-1.25,0-2.4,1.59-2.4,3.31,0,1.08.45,1.59,1.14,1.59A2.57,2.57,0,0,0,91.44,274.23Z"/><path class="cls-1" d="M97.66,269.7a2.06,2.06,0,0,1,1.62.76l-0.58.62a1.3,1.3,0,0,0-1.1-.56c-1.25,0-2.41,1.46-2.41,3.17,0,1.13.49,1.75,1.48,1.75a2.27,2.27,0,0,0,1.39-.55l0.44,0.64a3.18,3.18,0,0,1-2,.73,2.24,2.24,0,0,1-2.3-2.5A3.81,3.81,0,0,1,97.66,269.7Z"/><path class="cls-1" d="M102.91,269.7c1.4,0,1.92,1,1.92,2.26a4.07,4.07,0,0,1-.22,1.22h-4.05c-0.23,1.6.6,2.28,1.69,2.28a2.49,2.49,0,0,0,1.4-.54l0.38,0.65a3.5,3.5,0,0,1-2,.67,2.34,2.34,0,0,1-2.45-2.6A3.71,3.71,0,0,1,102.91,269.7Zm1,2.81a3.33,3.33,0,0,0,.06-0.64,1.2,1.2,0,0,0-1.21-1.39,2.44,2.44,0,0,0-2.13,2h3.27Z"/><line class="cls-3" x1="302.54" y1="153.93" x2="302.54" y2="301.94"/><polyline class="cls-4" points="203.21 339.61 198.81 342.94 203.21 346.11"/><polyline class="cls-4" points="397.81 346.11 402.21 342.77 397.81 339.61"/></svg>