<svg id="Layer_1" data-name="Layer 1" xmlns="http://www.w3.org/2000/svg" viewBox="0 0 600 375"><defs><style>.cls-1{fill:#fff;stroke:#5c9ad2;stroke-miterlimit:10;}.cls-2{fill:#231f20;}</style></defs><title>thesis_final_website</title><circle class="cls-1" cx="301.09" cy="187.81" r="128.17"/><circle class="cls-1" cx="195.13" cy="292.37" r="64.21"/><circle class="cls-1" cx="406.34" cy="81.16" r="64.21"/><circle class="cls-1" cx="193.66" cy="81.16" r="64.21"/><circle class="cls-1" cx="406.34" cy="293.84" r="64.21"/><path class="cls-2" d="M241.18,182.77h3.26c2.42,0,4,.92,4,2.93a2.61,2.61,0,0,1-2.14,2.63v0.07c1.77,0.26,2.89,1.24,2.89,2.91,0,2.32-1.76,3.51-4.48,3.51h-3.49V182.77Zm2.91,5.31c2.49,0,3.48-.8,3.48-2.4s-1.15-2.21-3.37-2.21H242v4.61h2.07Zm0.37,6.06c2.4,0,3.86-.88,3.86-2.82,0-1.72-1.41-2.56-3.86-2.56H242v5.38h2.43Z"/><path class="cls-2" d="M251.59,186h0.69l0.07,1.63h0.06a3,3,0,0,1,2.49-1.85,1.81,1.81,0,0,1,.88.18l-0.18.73a1.92,1.92,0,0,0-.8-0.15c-0.79,0-1.72.6-2.4,2.25v6h-0.8V186Z"/><path class="cls-2" d="M262.15,189.32c0-1.34-.35-2.78-2.07-2.78a4.85,4.85,0,0,0-2.8,1l-0.37-.6a5.87,5.87,0,0,1,3.26-1.13c2.09,0,2.78,1.5,2.78,3.38v5.62h-0.68l-0.09-1.13h0A5.21,5.21,0,0,1,259,195a2.31,2.31,0,0,1-2.56-2.42C256.48,190.69,258.25,189.75,262.15,189.32Zm-3,5a4.6,4.6,0,0,0,3-1.43v-3c-3.6.42-4.83,1.26-4.83,2.65A1.65,1.65,0,0,0,259.17,194.35Z"/><path class="cls-2" d="M266.1,186h0.69l0.07,1.35h0.06a4.29,4.29,0,0,1,3-1.57c1.81,0,2.65,1.1,2.65,3.37v5.63h-0.8V189.3c0-1.87-.59-2.74-2-2.74-1,0-1.79.55-2.87,1.65v6.62h-0.8V186Z"/><path class="cls-2" d="M279,185.82a4.06,4.06,0,0,1,2.65,1.08l0-1.61v-3.62h0.8v13.15h-0.7l-0.07-1.13H281.6a4.11,4.11,0,0,1-2.85,1.35c-2.21,0-3.64-1.63-3.64-4.59S276.92,185.82,279,185.82Zm-0.15,8.51a4,4,0,0,0,2.76-1.45v-5.21a3.72,3.72,0,0,0-2.56-1.13c-1.76,0-3.09,1.7-3.09,3.92S277,194.33,278.86,194.33Z"/><path class="cls-2" d="M289.47,182.77h6.59v0.73h-5.74v4.56h4.83v0.73h-4.83v5.31h5.93v0.73h-6.77V182.77Z"/><path class="cls-2" d="M300.27,190.23L297.52,186h0.9l1.43,2.23c0.29,0.48.6,1,.93,1.45h0.07c0.31-.48.59-1,0.9-1.45l1.37-2.23H304l-2.73,4.26,3,4.52h-0.9l-1.56-2.4c-0.33-.55-0.68-1.1-1-1.61h-0.07c-0.35.51-.66,1.06-1,1.61l-1.5,2.4h-0.86Z"/><path class="cls-2" d="M307,195.59v3.2h-0.8V186h0.69l0.07,1.1H307a5.13,5.13,0,0,1,3-1.32c2.34,0,3.51,1.76,3.51,4.48,0,3-1.81,4.74-3.88,4.74A4.64,4.64,0,0,1,307,194v1.63Zm2.6-1.26c1.77,0,3.06-1.65,3.06-4,0-2.16-.77-3.77-2.78-3.77A4.65,4.65,0,0,0,307,188v5.21A4.3,4.3,0,0,0,309.56,194.33Z"/><path class="cls-2" d="M319.21,185.82c2.08,0,3.37,1.48,3.37,4.06a3.92,3.92,0,0,1,0,.66h-6.33c0,2.21,1.34,3.81,3.31,3.81a3.89,3.89,0,0,0,2.36-.79l0.33,0.62a4.89,4.89,0,0,1-2.76.86c-2.25,0-4.06-1.72-4.06-4.59S317.25,185.82,319.21,185.82Zm2.6,4.1c0-2.25-1-3.4-2.58-3.4s-2.83,1.3-3,3.4h5.6Z"/><path class="cls-2" d="M325,186h0.69l0.07,1.63h0.06a3,3,0,0,1,2.49-1.85,1.81,1.81,0,0,1,.88.18l-0.18.73a1.92,1.92,0,0,0-.8-0.15c-0.79,0-1.72.6-2.4,2.25v6H325V186Z"/><path class="cls-2" d="M330.44,183.21a0.73,0.73,0,1,1,.73.71A0.7,0.7,0,0,1,330.44,183.21Zm0.31,2.84h0.8v8.78h-0.8V186Z"/><path class="cls-2" d="M338,185.82c2.08,0,3.37,1.48,3.37,4.06a3.92,3.92,0,0,1,0,.66H335c0,2.21,1.34,3.81,3.31,3.81a3.89,3.89,0,0,0,2.36-.79l0.33,0.62a4.89,4.89,0,0,1-2.76.86c-2.25,0-4.06-1.72-4.06-4.59S336.08,185.82,338,185.82Zm2.6,4.1c0-2.25-1-3.4-2.58-3.4s-2.83,1.3-3,3.4h5.6Z"/><path class="cls-2" d="M343.78,186h0.69l0.07,1.35h0.06a4.29,4.29,0,0,1,3-1.57c1.81,0,2.65,1.1,2.65,3.37v5.63h-0.8V189.3c0-1.87-.59-2.74-2-2.74-1,0-1.79.55-2.87,1.65v6.62h-0.8V186Z"/><path class="cls-2" d="M356.79,185.82a3.6,3.6,0,0,1,2.58,1.08l-0.48.57a3,3,0,0,0-2.08-.93c-1.79,0-3.18,1.59-3.18,3.92s1.26,3.88,3.18,3.88a3.53,3.53,0,0,0,2.34-1l0.42,0.55a4.15,4.15,0,0,1-2.8,1.17c-2.27,0-4-1.68-4-4.59S354.65,185.82,356.79,185.82Z"/><path class="cls-2" d="M364.51,185.82c2.08,0,3.37,1.48,3.37,4.06a3.92,3.92,0,0,1,0,.66h-6.33c0,2.21,1.34,3.81,3.31,3.81a3.89,3.89,0,0,0,2.36-.79l0.33,0.62a4.89,4.89,0,0,1-2.76.86c-2.25,0-4.06-1.72-4.06-4.59S362.56,185.82,364.51,185.82Zm2.6,4.1c0-2.25-1-3.4-2.58-3.4s-2.83,1.3-3,3.4h5.6Z"/><path class="cls-2" d="M167.19,74.59H168V86.65h-0.84V74.59Z"/><path class="cls-2" d="M174.58,77.65a4.06,4.06,0,0,1,2.65,1.08l0-1.61V73.49H178V86.65h-0.7l-0.07-1.13h-0.05a4.11,4.11,0,0,1-2.85,1.35c-2.21,0-3.64-1.63-3.64-4.59S172.5,77.65,174.58,77.65Zm-0.15,8.51a4,4,0,0,0,2.76-1.45V79.5a3.72,3.72,0,0,0-2.56-1.13c-1.76,0-3.09,1.7-3.09,3.92S172.57,86.15,174.44,86.15Z"/><path class="cls-2" d="M184.47,77.65c2.08,0,3.37,1.48,3.37,4.06a3.92,3.92,0,0,1,0,.66h-6.33c0,2.21,1.34,3.81,3.31,3.81a3.89,3.89,0,0,0,2.36-.79L187.47,86a4.89,4.89,0,0,1-2.76.86c-2.25,0-4.06-1.72-4.06-4.59S182.51,77.65,184.47,77.65Zm2.6,4.1c0-2.25-1-3.4-2.58-3.4s-2.83,1.3-3,3.4h5.6Z"/><path class="cls-2" d="M190.21,77.87h0.69L191,79.22H191a4.29,4.29,0,0,1,3-1.57c1.81,0,2.65,1.1,2.65,3.37v5.63h-0.8V81.12c0-1.87-.59-2.74-2-2.74-1,0-1.79.55-2.87,1.65v6.62h-0.8V77.87Z"/><path class="cls-2" d="M200.15,78.56h-1.37V77.94l1.39-.07,0.11-2.54H201v2.54h2.54v0.69H201v5.73c0,1.12.27,1.87,1.48,1.87a2.94,2.94,0,0,0,1.1-.27l0.22,0.66a4.92,4.92,0,0,1-1.43.33c-1.7,0-2.2-1.08-2.2-2.65V78.56Z"/><path class="cls-2" d="M205.35,75a0.73,0.73,0,1,1,.73.71A0.7,0.7,0,0,1,205.35,75Zm0.31,2.84h0.8v8.78h-0.8V77.87Z"/><path class="cls-2" d="M210,78.56h-1.37V77.94l1.39-.07,0.11-2.54h0.7v2.54h2.54v0.69h-2.54v5.73c0,1.12.27,1.87,1.48,1.87a2.94,2.94,0,0,0,1.1-.27l0.22,0.66a4.92,4.92,0,0,1-1.43.33c-1.7,0-2.2-1.08-2.2-2.65V78.56Z"/><path class="cls-2" d="M215.21,89.91c1.08,0,1.81-1,2.25-2.32l0.24-.77-3.6-8.95H215l2.12,5.52c0.27,0.73.62,1.68,1,2.45h0.07c0.27-.77.57-1.72,0.81-2.45l1.88-5.52h0.82l-3.48,9.88c-0.49,1.46-1.37,2.91-2.95,2.91a2.22,2.22,0,0,1-.9-0.18l0.18-.71A2.05,2.05,0,0,0,215.21,89.91Z"/><path class="cls-2" d="M383.83,74.59h0.9l2.23,7c0.46,1.46.77,2.58,1.26,4h0.07c0.49-1.46.82-2.58,1.28-4l2.23-7h0.84l-3.93,12.06H387.8Z"/><path class="cls-2" d="M399.26,81.14c0-1.34-.35-2.78-2.07-2.78a4.85,4.85,0,0,0-2.8,1l-0.37-.6a5.87,5.87,0,0,1,3.26-1.13c2.09,0,2.78,1.5,2.78,3.38v5.62h-0.68l-0.09-1.13h0a5.21,5.21,0,0,1-3.11,1.35,2.31,2.31,0,0,1-2.56-2.42C393.59,82.51,395.36,81.58,399.26,81.14Zm-3,5a4.6,4.6,0,0,0,3-1.43v-3c-3.6.42-4.83,1.26-4.83,2.65A1.65,1.65,0,0,0,396.28,86.17Z"/><path class="cls-2" d="M403.21,73.49H404V85.59c0,0.38.16,0.57,0.38,0.57a1.44,1.44,0,0,0,.33,0l0.15,0.66a1.71,1.71,0,0,1-.58.09c-0.71,0-1.08-.44-1.08-1.39v-12Z"/><path class="cls-2" d="M407.42,77.87h0.81v5.52c0,1.87.58,2.74,2,2.74,1,0,1.81-.55,2.84-1.79V77.87h0.8v8.78h-0.68l-0.09-1.46h0a3.92,3.92,0,0,1-3,1.68c-1.81,0-2.65-1.1-2.65-3.37V77.87Z"/><path class="cls-2" d="M420.32,77.65c2.08,0,3.37,1.48,3.37,4.06a3.92,3.92,0,0,1,0,.66h-6.33c0,2.21,1.34,3.81,3.31,3.81a3.89,3.89,0,0,0,2.36-.79L423.32,86a4.89,4.89,0,0,1-2.76.86c-2.25,0-4.06-1.72-4.06-4.59S418.36,77.65,420.32,77.65Zm2.6,4.1c0-2.25-1-3.4-2.58-3.4s-2.83,1.3-3,3.4h5.6Z"/><path class="cls-2" d="M425.45,85.06a4.07,4.07,0,0,0,2.8,1.12,1.82,1.82,0,0,0,2.09-1.74c0-1.1-1.13-1.57-2.14-1.94-1.34-.48-2.8-1-2.8-2.51,0-1.28,1-2.34,2.84-2.34a4.07,4.07,0,0,1,2.51.91l-0.44.57a3.32,3.32,0,0,0-2.1-.79,1.7,1.7,0,0,0-2,1.59c0,1,1,1.39,2.07,1.78,1.37,0.51,2.87,1,2.87,2.69,0,1.32-1.06,2.47-3,2.47A5.09,5.09,0,0,1,425,85.66Z"/><path class="cls-2" d="M380.18,301.09a4.75,4.75,0,0,0,3.55,1.63c1.83,0,3-1,3-2.42s-1-2-2.18-2.52l-1.83-.82c-1-.46-2.43-1.21-2.43-3s1.5-3,3.5-3a4.59,4.59,0,0,1,3.37,1.45l-0.49.57a3.82,3.82,0,0,0-2.87-1.24c-1.59,0-2.65.84-2.65,2.16s1.21,1.92,2.09,2.32L385,297c1.34,0.6,2.53,1.35,2.53,3.2s-1.52,3.24-3.86,3.24a5.31,5.31,0,0,1-4.06-1.81Z"/><path class="cls-2" d="M393,294.26c2.08,0,3.37,1.48,3.37,4.06a3.92,3.92,0,0,1,0,.66H390c0,2.21,1.34,3.81,3.31,3.81a3.89,3.89,0,0,0,2.36-.79l0.33,0.62a4.89,4.89,0,0,1-2.76.86c-2.25,0-4.06-1.72-4.06-4.59S391.08,294.26,393,294.26Zm2.6,4.1c0-2.25-1-3.4-2.58-3.4s-2.83,1.3-3,3.4h5.6Z"/><path class="cls-2" d="M398.79,294.48h0.69l0.07,1.63h0.06a3,3,0,0,1,2.49-1.85,1.81,1.81,0,0,1,.88.18l-0.18.73A1.92,1.92,0,0,0,402,295c-0.79,0-1.72.6-2.4,2.25v6h-0.8v-8.78Z"/><path class="cls-2" d="M403.62,294.48h0.88l2,5.51c0.27,0.84.6,1.72,0.88,2.52h0.07c0.29-.8.6-1.68,0.9-2.52l2-5.51h0.82l-3.26,8.78h-1Z"/><path class="cls-2" d="M412.71,291.65a0.73,0.73,0,1,1,.73.71A0.7,0.7,0,0,1,412.71,291.65Zm0.31,2.83h0.8v8.78H413v-8.78Z"/><path class="cls-2" d="M420.49,294.26a3.6,3.6,0,0,1,2.58,1.08l-0.48.57a3,3,0,0,0-2.08-.93c-1.79,0-3.18,1.59-3.18,3.92s1.26,3.88,3.18,3.88a3.53,3.53,0,0,0,2.34-1l0.42,0.55a4.15,4.15,0,0,1-2.8,1.17c-2.27,0-4-1.68-4-4.59S418.35,294.26,420.49,294.26Z"/><path class="cls-2" d="M428.21,294.26c2.08,0,3.37,1.48,3.37,4.06a3.92,3.92,0,0,1,0,.66h-6.33c0,2.21,1.34,3.81,3.31,3.81a3.89,3.89,0,0,0,2.36-.79l0.33,0.62a4.89,4.89,0,0,1-2.76.86c-2.25,0-4.06-1.72-4.06-4.59S426.25,294.26,428.21,294.26Zm2.6,4.1c0-2.25-1-3.4-2.58-3.4s-2.83,1.3-3,3.4h5.6Z"/><path class="cls-2" d="M433.33,301.67a4.07,4.07,0,0,0,2.8,1.12,1.82,1.82,0,0,0,2.09-1.74c0-1.1-1.13-1.57-2.14-1.94-1.34-.48-2.8-1-2.8-2.51,0-1.28,1-2.34,2.84-2.34a4.07,4.07,0,0,1,2.51.91l-0.44.57a3.32,3.32,0,0,0-2.1-.79,1.7,1.7,0,0,0-2,1.59c0,1,1,1.39,2.07,1.78,1.37,0.51,2.87,1,2.87,2.69,0,1.32-1.06,2.47-3,2.47a5.08,5.08,0,0,1-3.22-1.21Z"/><path class="cls-2" d="M140.35,287.52a4.11,4.11,0,0,1,3.13,1.45l-0.49.55a3.47,3.47,0,0,0-2.63-1.23c-2.63,0-4.28,2.1-4.28,5.45s1.63,5.51,4.21,5.51a3.86,3.86,0,0,0,3.05-1.48l0.49,0.53a4.48,4.48,0,0,1-3.59,1.72c-3,0-5-2.43-5-6.28S137.28,287.52,140.35,287.52Z"/><path class="cls-2" d="M149.34,290.8c2.12,0,4,1.68,4,4.63s-1.83,4.59-4,4.59-3.93-1.68-3.93-4.59S147.23,290.8,149.34,290.8Zm0,8.51c1.77,0,3.11-1.57,3.11-3.88s-1.34-3.92-3.11-3.92-3.09,1.59-3.09,3.92S147.56,299.3,149.34,299.3Z"/><path class="cls-2" d="M155.92,291h0.69l0.07,1.35h0.06a4,4,0,0,1,2.76-1.57,2.28,2.28,0,0,1,2.43,1.79,4.41,4.41,0,0,1,3-1.79c1.76,0,2.63,1.1,2.63,3.37v5.63h-0.82v-5.53c0-1.87-.62-2.74-2-2.74-0.82,0-1.67.55-2.63,1.65v6.62h-0.8v-5.53c0-1.87-.62-2.74-2-2.74a3.9,3.9,0,0,0-2.63,1.65v6.62h-0.8V291Z"/><path class="cls-2" d="M170.78,291h0.69l0.07,1.35h0.06a4,4,0,0,1,2.76-1.57,2.28,2.28,0,0,1,2.43,1.79,4.41,4.41,0,0,1,3-1.79c1.76,0,2.63,1.1,2.63,3.37v5.63H181.6v-5.53c0-1.87-.62-2.74-2-2.74-0.82,0-1.67.55-2.63,1.65v6.62h-0.8v-5.53c0-1.87-.62-2.74-2-2.74a3.9,3.9,0,0,0-2.63,1.65v6.62h-0.8V291Z"/><path class="cls-2" d="M185.51,291h0.81v5.53c0,1.87.58,2.74,2,2.74,1,0,1.81-.55,2.84-1.79V291H192v8.78h-0.68l-0.09-1.46h0a3.92,3.92,0,0,1-3,1.68c-1.81,0-2.65-1.1-2.65-3.37V291Z"/><path class="cls-2" d="M195.32,291H196l0.07,1.35h0.06a4.29,4.29,0,0,1,3-1.57c1.81,0,2.65,1.1,2.65,3.37v5.63H201v-5.53c0-1.87-.59-2.74-2-2.74-1,0-1.79.55-2.87,1.65v6.62h-0.8V291Z"/><path class="cls-2" d="M204.75,288.18a0.73,0.73,0,1,1,.73.71A0.7,0.7,0,0,1,204.75,288.18Zm0.31,2.83h0.8v8.78h-0.8V291Z"/><path class="cls-2" d="M212.52,290.8a3.6,3.6,0,0,1,2.58,1.08l-0.48.57a3,3,0,0,0-2.08-.93c-1.79,0-3.18,1.59-3.18,3.92s1.26,3.88,3.18,3.88a3.53,3.53,0,0,0,2.34-1l0.42,0.55a4.15,4.15,0,0,1-2.8,1.17c-2.27,0-4-1.68-4-4.59S210.38,290.8,212.52,290.8Z"/><path class="cls-2" d="M222.46,294.29c0-1.34-.35-2.78-2.07-2.78a4.85,4.85,0,0,0-2.8,1l-0.37-.6a5.87,5.87,0,0,1,3.26-1.13c2.09,0,2.78,1.5,2.78,3.38v5.62h-0.68l-0.09-1.13h0a5.21,5.21,0,0,1-3.11,1.35,2.31,2.31,0,0,1-2.56-2.42C216.79,295.66,218.56,294.73,222.46,294.29Zm-3,5a4.6,4.6,0,0,0,3-1.43v-3c-3.6.42-4.83,1.26-4.83,2.65A1.65,1.65,0,0,0,219.48,299.32Z"/><path class="cls-2" d="M226.62,291.71h-1.37v-0.62l1.39-.07,0.11-2.54h0.7V291H230v0.7h-2.54v5.73c0,1.12.27,1.87,1.48,1.87A2.94,2.94,0,0,0,230,299l0.22,0.66a4.92,4.92,0,0,1-1.43.33c-1.7,0-2.2-1.08-2.2-2.65v-5.65Z"/><path class="cls-2" d="M231.81,288.18a0.73,0.73,0,1,1,.73.71A0.7,0.7,0,0,1,231.81,288.18Zm0.31,2.83h0.8v8.78h-0.8V291Z"/><path class="cls-2" d="M239.51,290.8c2.12,0,4,1.68,4,4.63s-1.83,4.59-4,4.59-3.93-1.68-3.93-4.59S237.41,290.8,239.51,290.8Zm0,8.51c1.77,0,3.11-1.57,3.11-3.88s-1.34-3.92-3.11-3.92-3.09,1.59-3.09,3.92S237.74,299.3,239.51,299.3Z"/><path class="cls-2" d="M246.1,291h0.69l0.07,1.35h0.06a4.29,4.29,0,0,1,3-1.57c1.81,0,2.65,1.1,2.65,3.37v5.63h-0.8v-5.53c0-1.87-.59-2.74-2-2.74-1,0-1.79.55-2.87,1.65v6.62h-0.8V291Z"/></svg>