<svg id="Layer_1" data-name="Layer 1" xmlns="http://www.w3.org/2000/svg" xmlns:xlink="http://www.w3.org/1999/xlink" viewBox="0 0 600 375"><defs><style>.cls-1,.cls-3,.cls-5{fill:none;stroke-miterlimit:10;}.cls-1{stroke:#5c9ad2;stroke-width:1.8px;}.cls-2{fill:#231f20;}.cls-3,.cls-5{stroke-width:1.59px;}.cls-3{stroke:url(#linear-gradient);}.cls-4{fill:url(#linear-gradient-2);}.cls-5{stroke:url(#linear-gradient-3);}.cls-6{fill:url(#linear-gradient-4);}</style><linearGradient id="linear-gradient" x1="177.44" y1="270.14" x2="219.31" y2="270.14" gradientUnits="userSpaceOnUse"><stop offset="0.01" stop-color="#fff"/><stop offset="0.06" stop-color="#e6eff8"/><stop offset="0.14" stop-color="#c1d9ee"/><stop offset="0.24" stop-color="#a2c5e5"/><stop offset="0.34" stop-color="#88b5de"/><stop offset="0.44" stop-color="#74a9d9"/><stop offset="0.57" stop-color="#67a1d5"/><stop offset="0.73" stop-color="#5e9bd3"/><stop offset="1" stop-color="#5c9ad2"/></linearGradient><linearGradient id="linear-gradient-2" x1="177.44" y1="245.39" x2="219.31" y2="245.39" xlink:href="#linear-gradient"/><linearGradient id="linear-gradient-3" x1="335.78" y1="270.11" x2="381.02" y2="270.11" gradientUnits="userSpaceOnUse"><stop offset="0" stop-color="#5c9ad2"/><stop offset="0.27" stop-color="#5e9bd3"/><stop offset="0.43" stop-color="#67a1d5"/><stop offset="0.56" stop-color="#74a9d9"/><stop offset="0.66" stop-color="#88b5de"/><stop offset="0.76" stop-color="#a2c5e5"/><stop offset="0.86" stop-color="#c1d9ee"/><stop offset="0.94" stop-color="#e6eff8"/><stop offset="0.99" stop-color="#fff"/></linearGradient><linearGradient id="linear-gradient-4" x1="335.78" y1="245.08" x2="381.02" y2="245.08" xlink:href="#linear-gradient-3"/></defs><title>thesis_final_website</title><circle class="cls-1" cx="281.44" cy="166.64" r="126.37"/><path class="cls-2" d="M188.08,156.78H189l2.2,6.93c0.45,1.44.76,2.54,1.24,4h0.07c0.49-1.44.81-2.54,1.26-4l2.2-6.93h0.83l-3.87,11.87H192Z"/><path class="cls-2" d="M198.12,157.21a0.72,0.72,0,1,1,.72.7A0.69,0.69,0,0,1,198.12,157.21Zm0.31,2.79h0.79v8.64h-0.79V160Z"/><path class="cls-2" d="M201.94,167.08a4,4,0,0,0,2.75,1.1,1.79,1.79,0,0,0,2.05-1.71c0-1.08-1.12-1.55-2.11-1.91-1.31-.47-2.75-1-2.75-2.47,0-1.26,1-2.3,2.79-2.3a4,4,0,0,1,2.47.9l-0.43.56a3.27,3.27,0,0,0-2.07-.77,1.68,1.68,0,0,0-1.94,1.57c0,1,1,1.37,2,1.75,1.35,0.5,2.83,1,2.83,2.65,0,1.3-1,2.43-2.92,2.43a5,5,0,0,1-3.17-1.19Z"/><path class="cls-2" d="M209.71,160h0.79v5.44c0,1.84.58,2.7,2,2.7,1,0,1.78-.54,2.79-1.76V160h0.79v8.64h-0.67l-0.09-1.44h0a3.86,3.86,0,0,1-2.93,1.66c-1.78,0-2.61-1.08-2.61-3.31V160Z"/><path class="cls-2" d="M224.46,163.23c0-1.31-.34-2.74-2-2.74a4.76,4.76,0,0,0-2.75,1l-0.36-.59a5.77,5.77,0,0,1,3.21-1.12c2.05,0,2.74,1.48,2.74,3.33v5.53h-0.67l-0.09-1.12h0a5.13,5.13,0,0,1-3.06,1.33,2.28,2.28,0,0,1-2.52-2.38C218.87,164.58,220.62,163.66,224.46,163.23Zm-2.93,5a4.53,4.53,0,0,0,2.93-1.4v-2.94c-3.55.42-4.75,1.24-4.75,2.61A1.62,1.62,0,0,0,221.52,168.18Z"/><path class="cls-2" d="M228.34,155.7h0.79v11.9c0,0.38.16,0.56,0.38,0.56a1.43,1.43,0,0,0,.32,0l0.14,0.65a1.66,1.66,0,0,1-.58.09c-0.7,0-1.06-.43-1.06-1.37V155.7Z"/><path class="cls-2" d="M183,181.39a4,4,0,0,1,2.61,1.06l0-1.58V177.3h0.79v12.95h-0.68l-0.07-1.12h-0.05a4,4,0,0,1-2.81,1.33c-2.18,0-3.58-1.6-3.58-4.52S180.91,181.39,183,181.39Zm-0.14,8.37a3.9,3.9,0,0,0,2.72-1.42v-5.13a3.66,3.66,0,0,0-2.52-1.12c-1.73,0-3,1.67-3,3.85S181,189.76,182.81,189.76Z"/><path class="cls-2" d="M192.68,181.39c2.05,0,3.31,1.46,3.31,4a3.89,3.89,0,0,1,0,.65h-6.23c0,2.18,1.31,3.75,3.26,3.75a3.83,3.83,0,0,0,2.32-.77l0.32,0.61a4.81,4.81,0,0,1-2.72.85c-2.21,0-4-1.69-4-4.52S190.75,181.39,192.68,181.39Zm2.56,4c0-2.21-1-3.35-2.54-3.35s-2.79,1.28-3,3.35h5.51Z"/><path class="cls-2" d="M197.72,188.68a4,4,0,0,0,2.75,1.1,1.79,1.79,0,0,0,2.05-1.71c0-1.08-1.12-1.55-2.11-1.91-1.31-.47-2.75-1-2.75-2.47,0-1.26,1-2.3,2.79-2.3a4,4,0,0,1,2.47.9l-0.43.56a3.27,3.27,0,0,0-2.07-.77,1.68,1.68,0,0,0-1.94,1.57c0,1,1,1.37,2,1.75,1.35,0.5,2.83,1,2.83,2.65,0,1.3-1,2.43-2.92,2.43a5,5,0,0,1-3.17-1.19Z"/><path class="cls-2" d="M205.31,178.82a0.72,0.72,0,1,1,.72.7A0.69,0.69,0,0,1,205.31,178.82Zm0.31,2.79h0.79v8.64h-0.79v-8.64Z"/><path class="cls-2" d="M210.3,189.92v-0.07a1.54,1.54,0,0,1-.76-1.39,2,2,0,0,1,.94-1.58v-0.07a3.23,3.23,0,0,1-1.08-2.38,3,3,0,0,1,3-3,3.08,3.08,0,0,1,1.13.22h2.94v0.67h-2a2.88,2.88,0,0,1,1,2.18,3,3,0,0,1-3,3,3,3,0,0,1-1.44-.36,1.56,1.56,0,0,0-.7,1.24c0,0.63.36,1.13,1.66,1.13h1.85c1.94,0,2.84.61,2.84,2s-1.6,2.92-4.09,2.92c-2.18,0-3.55-.94-3.55-2.39A2.73,2.73,0,0,1,210.3,189.92Zm2.36,3.83c1.94,0,3.19-1.1,3.19-2.18s-0.7-1.31-2-1.31H212a5.39,5.39,0,0,1-1.08-.14,2.26,2.26,0,0,0-1.13,1.82C209.78,193,210.82,193.76,212.66,193.76Zm2-9.33a2.25,2.25,0,1,0-4.48,0A2.25,2.25,0,1,0,214.67,184.43Z"/><path class="cls-2" d="M218.51,181.61h0.68l0.07,1.33h0.05a4.22,4.22,0,0,1,3-1.55c1.78,0,2.61,1.08,2.61,3.31v5.55h-0.79v-5.44c0-1.84-.58-2.7-2-2.7-1,0-1.76.54-2.83,1.62v6.52h-0.79v-8.64Z"/><path class="cls-2" d="M231.12,181.39c2.05,0,3.31,1.46,3.31,4a3.89,3.89,0,0,1,0,.65h-6.23c0,2.18,1.31,3.75,3.26,3.75a3.83,3.83,0,0,0,2.32-.77l0.32,0.61a4.81,4.81,0,0,1-2.72.85c-2.21,0-4-1.69-4-4.52S229.2,181.39,231.12,181.39Zm2.56,4c0-2.21-1-3.35-2.54-3.35s-2.79,1.28-3,3.35h5.51Z"/><path class="cls-2" d="M236.78,181.61h0.68l0.07,1.6h0.05a3,3,0,0,1,2.45-1.82,1.77,1.77,0,0,1,.86.18l-0.18.72a1.89,1.89,0,0,0-.79-0.14c-0.77,0-1.69.59-2.36,2.21v5.89h-0.79v-8.64Z"/><path class="cls-2" d="M325.24,156.78h0.83v11.87h-0.83V156.78Z"/><path class="cls-2" d="M329.4,160h0.68l0.07,1.33h0.05a4.22,4.22,0,0,1,3-1.55c1.78,0,2.61,1.08,2.61,3.31v5.54H335v-5.44c0-1.84-.58-2.7-2-2.7-1,0-1.76.54-2.83,1.62v6.52H329.4V160Z"/><path class="cls-2" d="M339.17,160.69h-1.35v-0.61l1.37-.07,0.11-2.5H340V160h2.5v0.68H340v5.64c0,1.1.27,1.84,1.46,1.84a2.9,2.9,0,0,0,1.08-.27l0.22,0.65a4.85,4.85,0,0,1-1.4.32c-1.67,0-2.16-1.06-2.16-2.61v-5.56Z"/><path class="cls-2" d="M347.45,159.79c2.05,0,3.31,1.46,3.31,4a3.9,3.9,0,0,1,0,.65H344.5c0,2.18,1.31,3.75,3.26,3.75a3.83,3.83,0,0,0,2.32-.77l0.32,0.61a4.82,4.82,0,0,1-2.72.85c-2.21,0-4-1.69-4-4.52S345.53,159.79,347.45,159.79Zm2.56,4c0-2.21-1-3.35-2.54-3.35s-2.79,1.28-3,3.35H350Z"/><path class="cls-2" d="M353.1,160h0.68l0.07,1.6h0.05a3,3,0,0,1,2.45-1.82,1.78,1.78,0,0,1,.86.18l-0.18.72a1.88,1.88,0,0,0-.79-0.14c-0.77,0-1.69.59-2.36,2.21v5.89H353.1V160Z"/><path class="cls-2" d="M363.49,163.23c0-1.31-.34-2.74-2-2.74a4.76,4.76,0,0,0-2.75,1l-0.36-.59a5.77,5.77,0,0,1,3.21-1.12c2.05,0,2.74,1.48,2.74,3.33v5.53h-0.67l-0.09-1.12h0a5.13,5.13,0,0,1-3.06,1.33,2.28,2.28,0,0,1-2.52-2.38C357.91,164.58,359.66,163.66,363.49,163.23Zm-2.93,5a4.53,4.53,0,0,0,2.93-1.4v-2.94c-3.55.42-4.75,1.24-4.75,2.61A1.62,1.62,0,0,0,360.56,168.18Z"/><path class="cls-2" d="M370.6,159.79a3.55,3.55,0,0,1,2.54,1.06l-0.47.56a3,3,0,0,0-2.05-.92c-1.76,0-3.13,1.57-3.13,3.85s1.24,3.82,3.13,3.82a3.47,3.47,0,0,0,2.3-1l0.41,0.54a4.08,4.08,0,0,1-2.75,1.15c-2.23,0-3.92-1.66-3.92-4.52S368.49,159.79,370.6,159.79Z"/><path class="cls-2" d="M375.66,160.69h-1.35v-0.61l1.37-.07,0.11-2.5h0.68V160H379v0.68h-2.5v5.64c0,1.1.27,1.84,1.46,1.84a2.9,2.9,0,0,0,1.08-.27l0.22,0.65a4.85,4.85,0,0,1-1.4.32c-1.67,0-2.16-1.06-2.16-2.61v-5.56Z"/><path class="cls-2" d="M380.77,157.21a0.72,0.72,0,1,1,.72.7A0.69,0.69,0,0,1,380.77,157.21Zm0.31,2.79h0.79v8.64h-0.79V160Z"/><path class="cls-2" d="M388.35,159.79c2.09,0,3.89,1.66,3.89,4.56s-1.8,4.52-3.89,4.52-3.87-1.66-3.87-4.52S386.28,159.79,388.35,159.79Zm0,8.37c1.75,0,3.06-1.55,3.06-3.82s-1.31-3.85-3.06-3.85-3,1.57-3,3.85S386.6,168.16,388.35,168.16Z"/><path class="cls-2" d="M394.83,160h0.68l0.07,1.33h0.05a4.22,4.22,0,0,1,3-1.55c1.78,0,2.61,1.08,2.61,3.31v5.54h-0.79v-5.44c0-1.84-.58-2.7-2-2.7-1,0-1.76.54-2.83,1.62v6.52h-0.79V160Z"/><path class="cls-2" d="M336.6,181.39a4,4,0,0,1,2.61,1.06l0-1.58V177.3H340v12.95h-0.68l-0.07-1.12h-0.05a4,4,0,0,1-2.81,1.33c-2.18,0-3.58-1.6-3.58-4.52S334.55,181.39,336.6,181.39Zm-0.14,8.37a3.9,3.9,0,0,0,2.72-1.42v-5.13a3.65,3.65,0,0,0-2.52-1.12c-1.73,0-3,1.67-3,3.85S334.62,189.76,336.46,189.76Z"/><path class="cls-2" d="M346.32,181.39c2.05,0,3.31,1.46,3.31,4a3.89,3.89,0,0,1,0,.65h-6.23c0,2.18,1.31,3.75,3.26,3.75a3.83,3.83,0,0,0,2.32-.77l0.32,0.61a4.81,4.81,0,0,1-2.72.85c-2.21,0-4-1.69-4-4.52S344.39,181.39,346.32,181.39Zm2.56,4c0-2.21-1-3.35-2.54-3.35s-2.79,1.28-3,3.35h5.51Z"/><path class="cls-2" d="M351.36,188.68a4,4,0,0,0,2.75,1.1,1.79,1.79,0,0,0,2.05-1.71c0-1.08-1.12-1.55-2.11-1.91-1.31-.47-2.75-1-2.75-2.47,0-1.26,1-2.3,2.79-2.3a4,4,0,0,1,2.47.9l-0.43.56a3.27,3.27,0,0,0-2.07-.77,1.68,1.68,0,0,0-1.94,1.57c0,1,1,1.37,2,1.75,1.35,0.5,2.83,1,2.83,2.65,0,1.3-1,2.43-2.92,2.43a5,5,0,0,1-3.17-1.19Z"/><path class="cls-2" d="M359,178.82a0.72,0.72,0,1,1,.72.7A0.69,0.69,0,0,1,359,178.82Zm0.31,2.79h0.79v8.64h-0.79v-8.64Z"/><path class="cls-2" d="M363.94,189.92v-0.07a1.54,1.54,0,0,1-.76-1.39,2,2,0,0,1,.94-1.58v-0.07a3.23,3.23,0,0,1-1.08-2.38,3,3,0,0,1,3-3,3.08,3.08,0,0,1,1.13.22h2.94v0.67h-2a2.88,2.88,0,0,1,1,2.18,3,3,0,0,1-3,3,3,3,0,0,1-1.44-.36,1.56,1.56,0,0,0-.7,1.24c0,0.63.36,1.13,1.66,1.13h1.85c1.94,0,2.84.61,2.84,2s-1.6,2.92-4.09,2.92c-2.18,0-3.55-.94-3.55-2.39A2.73,2.73,0,0,1,363.94,189.92Zm2.36,3.83c1.94,0,3.19-1.1,3.19-2.18s-0.7-1.31-2-1.31h-1.85a5.39,5.39,0,0,1-1.08-.14,2.26,2.26,0,0,0-1.13,1.82C363.42,193,364.46,193.76,366.3,193.76Zm2-9.33a2.25,2.25,0,1,0-4.48,0A2.25,2.25,0,1,0,368.32,184.43Z"/><path class="cls-2" d="M372.15,181.61h0.68l0.07,1.33H373a4.22,4.22,0,0,1,3-1.55c1.78,0,2.61,1.08,2.61,3.31v5.55h-0.79v-5.44c0-1.84-.58-2.7-2-2.7-1,0-1.76.54-2.83,1.62v6.52h-0.79v-8.64Z"/><path class="cls-2" d="M384.77,181.39c2.05,0,3.31,1.46,3.31,4a3.89,3.89,0,0,1,0,.65h-6.23c0,2.18,1.31,3.75,3.26,3.75a3.83,3.83,0,0,0,2.32-.77l0.32,0.61a4.81,4.81,0,0,1-2.72.85c-2.21,0-4-1.69-4-4.52S382.84,181.39,384.77,181.39Zm2.56,4c0-2.21-1-3.35-2.54-3.35s-2.79,1.28-3,3.35h5.51Z"/><path class="cls-2" d="M390.42,181.61h0.68l0.07,1.6h0.05a3,3,0,0,1,2.45-1.82,1.77,1.77,0,0,1,.86.18l-0.18.72a1.89,1.89,0,0,0-.79-0.14c-0.77,0-1.69.59-2.36,2.21v5.89h-0.79v-8.64Z"/><path class="cls-2" d="M314.12,313.18a4,4,0,0,1,3.08,1.42l-0.49.54a3.42,3.42,0,0,0-2.59-1.21c-2.59,0-4.21,2.07-4.21,5.37s1.6,5.42,4.14,5.42a3.8,3.8,0,0,0,3-1.46l0.49,0.52a4.4,4.4,0,0,1-3.53,1.69c-2.92,0-5-2.39-5-6.18S311.09,313.18,314.12,313.18Z"/><path class="cls-2" d="M319.8,316.62h0.68l0.07,1.6h0.05a3,3,0,0,1,2.45-1.82,1.78,1.78,0,0,1,.86.18l-0.18.72a1.88,1.88,0,0,0-.79-0.14c-0.77,0-1.69.59-2.36,2.21v5.89H319.8v-8.64Z"/><path class="cls-2" d="M328.37,316.4c2.05,0,3.31,1.46,3.31,4a3.91,3.91,0,0,1,0,.65h-6.23c0,2.18,1.31,3.75,3.26,3.75A3.83,3.83,0,0,0,331,324l0.32,0.61a4.82,4.82,0,0,1-2.72.85c-2.21,0-4-1.69-4-4.52S326.45,316.4,328.37,316.4Zm2.56,4c0-2.21-1-3.35-2.54-3.35s-2.79,1.28-3,3.35h5.51Z"/><path class="cls-2" d="M338.85,319.84c0-1.31-.34-2.74-2-2.74a4.77,4.77,0,0,0-2.75,1l-0.36-.59a5.77,5.77,0,0,1,3.21-1.12c2.05,0,2.74,1.48,2.74,3.33v5.53H339l-0.09-1.12h0a5.13,5.13,0,0,1-3.06,1.33,2.28,2.28,0,0,1-2.52-2.38C333.27,321.19,335,320.27,338.85,319.84Zm-2.93,5a4.53,4.53,0,0,0,2.93-1.41v-2.93c-3.55.41-4.75,1.24-4.75,2.61A1.62,1.62,0,0,0,335.91,324.79Z"/><path class="cls-2" d="M342.93,317.3h-1.35v-0.61l1.37-.07,0.11-2.5h0.68v2.5h2.5v0.68h-2.5v5.64c0,1.1.27,1.84,1.46,1.84a2.9,2.9,0,0,0,1.08-.27l0.22,0.65a4.82,4.82,0,0,1-1.4.32c-1.67,0-2.16-1.06-2.16-2.61V317.3Z"/><path class="cls-2" d="M348,313.83a0.72,0.72,0,1,1,.72.7A0.69,0.69,0,0,1,348,313.83Zm0.31,2.79h0.79v8.64h-0.79v-8.64Z"/><path class="cls-2" d="M351,316.62h0.86l1.95,5.42c0.27,0.83.59,1.69,0.86,2.48h0.07c0.29-.79.59-1.66,0.88-2.48l1.94-5.42h0.81l-3.21,8.64h-0.94Z"/><path class="cls-2" d="M363.33,316.4c2.05,0,3.31,1.46,3.31,4a3.91,3.91,0,0,1,0,.65h-6.23c0,2.18,1.31,3.75,3.26,3.75A3.83,3.83,0,0,0,366,324l0.32,0.61a4.82,4.82,0,0,1-2.72.85c-2.21,0-4-1.69-4-4.52S361.4,316.4,363.33,316.4Zm2.56,4c0-2.21-1-3.35-2.54-3.35s-2.79,1.28-3,3.35h5.51Z"/><path class="cls-2" d="M372.76,317.3h-1.35v-0.61l1.37-.07,0.11-2.5h0.68v2.5h2.5v0.68h-2.5v5.64c0,1.1.27,1.84,1.46,1.84a2.9,2.9,0,0,0,1.08-.27l0.22,0.65a4.82,4.82,0,0,1-1.4.32c-1.67,0-2.16-1.06-2.16-2.61V317.3Z"/><path class="cls-2" d="M381,316.4c2.05,0,3.31,1.46,3.31,4a3.91,3.91,0,0,1,0,.65h-6.23c0,2.18,1.31,3.75,3.26,3.75a3.83,3.83,0,0,0,2.32-.77l0.32,0.61a4.82,4.82,0,0,1-2.72.85c-2.21,0-4-1.69-4-4.52S379.11,316.4,381,316.4Zm2.56,4c0-2.21-1-3.35-2.54-3.35s-2.79,1.28-3,3.35h5.51Z"/><path class="cls-2" d="M389.91,316.4a3.54,3.54,0,0,1,2.54,1.06L392,318a3,3,0,0,0-2.05-.92c-1.76,0-3.13,1.57-3.13,3.85s1.24,3.82,3.13,3.82a3.48,3.48,0,0,0,2.3-1l0.41,0.54a4.08,4.08,0,0,1-2.75,1.15c-2.23,0-3.92-1.66-3.92-4.52S387.81,316.4,389.91,316.4Z"/><path class="cls-2" d="M394.77,312.31h0.79V318a4.24,4.24,0,0,1,3-1.57c1.78,0,2.61,1.08,2.61,3.31v5.55h-0.79v-5.44c0-1.84-.58-2.7-2-2.7-1,0-1.76.54-2.83,1.62v6.52h-0.79V312.31Z"/><path class="cls-2" d="M404.28,316.62H405l0.07,1.33h0.05a4.22,4.22,0,0,1,3-1.55c1.78,0,2.61,1.08,2.61,3.31v5.55h-0.79v-5.44c0-1.84-.58-2.7-2-2.7-1,0-1.76.54-2.83,1.62v6.52h-0.79v-8.64Z"/><path class="cls-2" d="M417,316.4c2.09,0,3.89,1.66,3.89,4.55s-1.8,4.52-3.89,4.52-3.87-1.66-3.87-4.52S414.93,316.4,417,316.4Zm0,8.37c1.75,0,3.06-1.55,3.06-3.82s-1.31-3.85-3.06-3.85-3,1.57-3,3.85S415.26,324.77,417,324.77Z"/><path class="cls-2" d="M423.48,312.31h0.79v11.9c0,0.38.16,0.56,0.38,0.56a1.4,1.4,0,0,0,.32,0l0.14,0.65a1.69,1.69,0,0,1-.58.09c-0.7,0-1.06-.43-1.06-1.37V312.31Z"/><path class="cls-2" d="M430.9,316.4c2.09,0,3.89,1.66,3.89,4.55s-1.8,4.52-3.89,4.52S427,323.82,427,321,428.83,316.4,430.9,316.4Zm0,8.37c1.75,0,3.06-1.55,3.06-3.82s-1.31-3.85-3.06-3.85-3,1.57-3,3.85S429.15,324.77,430.9,324.77Z"/><path class="cls-2" d="M437.94,324.93v-0.07a1.54,1.54,0,0,1-.76-1.39,2,2,0,0,1,.94-1.58v-0.07a3.23,3.23,0,0,1-1.08-2.38,3,3,0,0,1,3-3,3.08,3.08,0,0,1,1.13.22h2.94v0.67h-2a2.88,2.88,0,0,1,1,2.18,3,3,0,0,1-3,3,3,3,0,0,1-1.44-.36,1.56,1.56,0,0,0-.7,1.24c0,0.63.36,1.13,1.66,1.13h1.85c1.94,0,2.84.61,2.84,2s-1.6,2.92-4.09,2.92c-2.18,0-3.55-.94-3.55-2.39A2.73,2.73,0,0,1,437.94,324.93Zm2.36,3.83c1.94,0,3.19-1.1,3.19-2.18s-0.7-1.31-2-1.31h-1.85a5.32,5.32,0,0,1-1.08-.14,2.26,2.26,0,0,0-1.13,1.82C437.41,328,438.46,328.77,440.29,328.77Zm2-9.33a2.25,2.25,0,1,0-4.48,0A2.25,2.25,0,1,0,442.31,319.44Z"/><path class="cls-2" d="M445.8,328.46c1.06,0,1.78-1,2.21-2.29l0.23-.76-3.55-8.8h0.86l2.09,5.44c0.27,0.72.61,1.66,0.94,2.41h0.07c0.27-.76.56-1.69,0.79-2.41l1.85-5.44h0.81l-3.42,9.72c-0.49,1.44-1.35,2.86-2.9,2.86a2.2,2.2,0,0,1-.88-0.18l0.18-.7A2,2,0,0,0,445.8,328.46Z"/><path class="cls-2" d="M265.49,98.54h0.83v11.15h5.46v0.72h-6.28V98.54Z"/><path class="cls-2" d="M276.58,101.54c2.05,0,3.31,1.46,3.31,4a3.9,3.9,0,0,1,0,.65h-6.23c0,2.18,1.31,3.75,3.26,3.75a3.83,3.83,0,0,0,2.32-.77l0.32,0.61a4.82,4.82,0,0,1-2.72.85c-2.21,0-4-1.69-4-4.52S274.65,101.54,276.58,101.54Zm2.56,4c0-2.21-1-3.35-2.54-3.35s-2.79,1.28-3,3.35h5.51Z"/><path class="cls-2" d="M287.06,105c0-1.31-.34-2.74-2-2.74a4.76,4.76,0,0,0-2.75,1l-0.36-.59a5.77,5.77,0,0,1,3.21-1.12c2.05,0,2.74,1.48,2.74,3.33v5.53h-0.67l-0.09-1.12h0a5.13,5.13,0,0,1-3.06,1.33,2.28,2.28,0,0,1-2.52-2.38C281.47,106.33,283.22,105.41,287.06,105Zm-2.93,5a4.53,4.53,0,0,0,2.93-1.4v-2.94c-3.55.42-4.75,1.24-4.75,2.61A1.62,1.62,0,0,0,284.12,109.93Z"/><path class="cls-2" d="M294.06,101.54a4,4,0,0,1,2.61,1.06l0-1.58V97.46h0.79V110.4h-0.68l-0.07-1.12h-0.05a4,4,0,0,1-2.81,1.33c-2.18,0-3.58-1.6-3.58-4.52S292,101.54,294.06,101.54Zm-0.14,8.37a3.91,3.91,0,0,0,2.72-1.42v-5.13a3.66,3.66,0,0,0-2.52-1.12c-1.73,0-3,1.67-3,3.85S292.08,109.91,293.91,109.91Z"/><path class="cls-2" d="M114.79,315.86H118c2.38,0,3.91.9,3.91,2.88a2.57,2.57,0,0,1-2.11,2.59v0.07c1.75,0.25,2.84,1.22,2.84,2.86,0,2.29-1.73,3.46-4.41,3.46h-3.44V315.86Zm2.86,5.22c2.45,0,3.42-.79,3.42-2.36s-1.13-2.18-3.31-2.18h-2.14v4.54h2Zm0.36,6c2.36,0,3.8-.86,3.8-2.77,0-1.69-1.39-2.52-3.8-2.52h-2.39V327H118Z"/><path class="cls-2" d="M124.9,319.08h0.79v5.44c0,1.84.58,2.7,2,2.7,1,0,1.78-.54,2.79-1.76v-6.37h0.79v8.64h-0.67l-0.09-1.44h0a3.86,3.86,0,0,1-2.93,1.66c-1.78,0-2.61-1.08-2.61-3.31v-5.55Z"/><path class="cls-2" d="M133.94,326.16a4,4,0,0,0,2.75,1.1,1.79,1.79,0,0,0,2.05-1.71c0-1.08-1.12-1.55-2.11-1.91-1.31-.47-2.75-1-2.75-2.47,0-1.26,1-2.3,2.79-2.3a4,4,0,0,1,2.47.9l-0.43.56a3.27,3.27,0,0,0-2.07-.77,1.68,1.68,0,0,0-1.94,1.57c0,1,1,1.37,2,1.75,1.35,0.5,2.83,1,2.83,2.65,0,1.3-1,2.43-2.92,2.43a5,5,0,0,1-3.17-1.19Z"/><path class="cls-2" d="M141.54,316.29a0.72,0.72,0,1,1,.72.7A0.69,0.69,0,0,1,141.54,316.29Zm0.31,2.79h0.79v8.64h-0.79v-8.64Z"/><path class="cls-2" d="M146,319.08h0.68l0.07,1.33h0.05a4.22,4.22,0,0,1,3-1.55c1.78,0,2.61,1.08,2.61,3.31v5.55h-0.79v-5.44c0-1.84-.58-2.7-2-2.7-1,0-1.76.54-2.83,1.62v6.52H146v-8.64Z"/><path class="cls-2" d="M158.58,318.87c2.05,0,3.31,1.46,3.31,4a3.91,3.91,0,0,1,0,.65h-6.23c0,2.18,1.31,3.75,3.26,3.75a3.83,3.83,0,0,0,2.32-.77l0.32,0.61a4.82,4.82,0,0,1-2.72.85c-2.21,0-4-1.69-4-4.52S156.66,318.87,158.58,318.87Zm2.56,4c0-2.21-1-3.35-2.54-3.35s-2.79,1.28-3,3.35h5.51Z"/><path class="cls-2" d="M163.62,326.16a4,4,0,0,0,2.75,1.1,1.79,1.79,0,0,0,2.05-1.71c0-1.08-1.12-1.55-2.11-1.91-1.31-.47-2.75-1-2.75-2.47,0-1.26,1-2.3,2.79-2.3a4,4,0,0,1,2.47.9l-0.43.56a3.27,3.27,0,0,0-2.07-.77,1.68,1.68,0,0,0-1.94,1.57c0,1,1,1.37,2,1.75,1.35,0.5,2.83,1,2.83,2.65,0,1.3-1,2.43-2.92,2.43a5,5,0,0,1-3.17-1.19Z"/><path class="cls-2" d="M170.91,326.16a4,4,0,0,0,2.75,1.1,1.79,1.79,0,0,0,2.05-1.71c0-1.08-1.12-1.55-2.11-1.91-1.31-.47-2.75-1-2.75-2.47,0-1.26,1-2.3,2.79-2.3a4,4,0,0,1,2.47.9l-0.43.56a3.27,3.27,0,0,0-2.07-.77,1.68,1.68,0,0,0-1.94,1.57c0,1,1,1.37,2,1.75,1.35,0.5,2.83,1,2.83,2.65,0,1.3-1,2.43-2.92,2.43a5,5,0,0,1-3.17-1.19Z"/><path class="cls-2" d="M185.51,318.87a4,4,0,0,1,2.61,1.06l0-1.58v-3.57h0.79v12.95h-0.68l-0.07-1.12h-0.05a4,4,0,0,1-2.81,1.33c-2.18,0-3.58-1.6-3.58-4.52S183.46,318.87,185.51,318.87Zm-0.14,8.37a3.91,3.91,0,0,0,2.72-1.42v-5.13a3.66,3.66,0,0,0-2.52-1.12c-1.73,0-3,1.67-3,3.85S183.53,327.24,185.37,327.24Z"/><path class="cls-2" d="M195.23,318.87c2.05,0,3.31,1.46,3.31,4a3.91,3.91,0,0,1,0,.65h-6.23c0,2.18,1.31,3.75,3.26,3.75a3.83,3.83,0,0,0,2.32-.77l0.32,0.61a4.82,4.82,0,0,1-2.72.85c-2.21,0-4-1.69-4-4.52S193.3,318.87,195.23,318.87Zm2.56,4c0-2.21-1-3.35-2.54-3.35s-2.79,1.28-3,3.35h5.51Z"/><path class="cls-2" d="M200.27,326.16a4,4,0,0,0,2.75,1.1,1.79,1.79,0,0,0,2.05-1.71c0-1.08-1.12-1.55-2.11-1.91-1.31-.47-2.75-1-2.75-2.47,0-1.26,1-2.3,2.79-2.3a4,4,0,0,1,2.47.9l-0.43.56a3.27,3.27,0,0,0-2.07-.77,1.68,1.68,0,0,0-1.94,1.57c0,1,1,1.37,2,1.75,1.35,0.5,2.83,1,2.83,2.65,0,1.3-1,2.43-2.92,2.43a5,5,0,0,1-3.17-1.19Z"/><path class="cls-2" d="M207.87,316.29a0.72,0.72,0,1,1,.72.7A0.69,0.69,0,0,1,207.87,316.29Zm0.31,2.79H209v8.64h-0.79v-8.64Z"/><path class="cls-2" d="M212.85,327.4v-0.07a1.54,1.54,0,0,1-.76-1.39,2,2,0,0,1,.94-1.58v-0.07a3.23,3.23,0,0,1-1.08-2.38,3,3,0,0,1,3-3,3.08,3.08,0,0,1,1.13.22h2.94v0.67h-2a2.88,2.88,0,0,1,1,2.18,3,3,0,0,1-3,3,3,3,0,0,1-1.44-.36,1.56,1.56,0,0,0-.7,1.24c0,0.63.36,1.13,1.66,1.13h1.85c1.94,0,2.84.61,2.84,2s-1.6,2.92-4.09,2.92c-2.18,0-3.55-.94-3.55-2.39A2.73,2.73,0,0,1,212.85,327.4Zm2.36,3.83c1.94,0,3.19-1.1,3.19-2.18s-0.7-1.31-2-1.31h-1.85a5.32,5.32,0,0,1-1.08-.14,2.26,2.26,0,0,0-1.13,1.82C212.33,330.5,213.37,331.24,215.21,331.24Zm2-9.33a2.25,2.25,0,1,0-4.48,0A2.25,2.25,0,1,0,217.23,321.91Z"/><path class="cls-2" d="M221.06,319.08h0.68l0.07,1.33h0.05a4.22,4.22,0,0,1,3-1.55c1.78,0,2.61,1.08,2.61,3.31v5.55h-0.79v-5.44c0-1.84-.58-2.7-2-2.7-1,0-1.76.54-2.83,1.62v6.52h-0.79v-8.64Z"/><path class="cls-2" d="M233.68,318.87c2.05,0,3.31,1.46,3.31,4a3.91,3.91,0,0,1,0,.65h-6.23c0,2.18,1.31,3.75,3.26,3.75a3.83,3.83,0,0,0,2.32-.77l0.32,0.61a4.82,4.82,0,0,1-2.72.85c-2.21,0-4-1.69-4-4.52S231.75,318.87,233.68,318.87Zm2.56,4c0-2.21-1-3.35-2.54-3.35s-2.79,1.28-3,3.35h5.51Z"/><path class="cls-2" d="M239.33,319.08H240l0.07,1.6h0.05a3,3,0,0,1,2.45-1.82,1.78,1.78,0,0,1,.86.18l-0.18.72a1.88,1.88,0,0,0-.79-0.14c-0.77,0-1.69.59-2.36,2.21v5.89h-0.79v-8.64Z"/><path class="cls-3" d="M178.24,300.09c1.49-29.31,20.83-48.2,39.31-59.27"/><path class="cls-4" d="M213.33,251a0.66,0.66,0,0,1-.32-0.88l4.3-9.13-10.09,0a0.66,0.66,0,1,1,0-1.32l11.13,0a0.66,0.66,0,0,1,.59.94l-4.74,10.07A0.66,0.66,0,0,1,213.33,251Z"/><path class="cls-5" d="M380.23,300.09c-1.61-29.35-22.63-48.26-42.68-59.31"/><path class="cls-6" d="M348.51,239.89a0.66,0.66,0,0,1-.63.69l-10.09.39,4.62,9a0.66,0.66,0,1,1-1.17.6l-5.1-9.9a0.66,0.66,0,0,1,.56-1l11.12-.43A0.66,0.66,0,0,1,348.51,239.89Z"/></svg>