<svg id="Layer_1" data-name="Layer 1" xmlns="http://www.w3.org/2000/svg" xmlns:xlink="http://www.w3.org/1999/xlink" viewBox="0 0 600 145.4"><defs><style>.cls-1,.cls-3,.cls-5{fill:none;stroke-miterlimit:10;stroke-width:1.59px;}.cls-1{stroke:url(#linear-gradient);}.cls-2{fill:url(#linear-gradient-2);}.cls-3{stroke:url(#linear-gradient-3);}.cls-4{fill:url(#linear-gradient-4);}.cls-5{stroke:url(#linear-gradient-5);}.cls-6{fill:url(#linear-gradient-6);}.cls-7{fill:#231f20;}</style><linearGradient id="linear-gradient" x1="73.41" y1="67.23" x2="114.06" y2="67.23" gradientUnits="userSpaceOnUse"><stop offset="0.01" stop-color="#fff"/><stop offset="0.06" stop-color="#e6eff8"/><stop offset="0.14" stop-color="#c1d9ee"/><stop offset="0.24" stop-color="#a2c5e5"/><stop offset="0.34" stop-color="#88b5de"/><stop offset="0.44" stop-color="#74a9d9"/><stop offset="0.57" stop-color="#67a1d5"/><stop offset="0.73" stop-color="#5e9bd3"/><stop offset="1" stop-color="#5c9ad2"/></linearGradient><linearGradient id="linear-gradient-2" x1="73.41" y1="67.24" x2="114.06" y2="67.24" xlink:href="#linear-gradient"/><linearGradient id="linear-gradient-3" x1="327.15" y1="67.23" x2="367.8" y2="67.23" xlink:href="#linear-gradient"/><linearGradient id="linear-gradient-4" x1="327.15" y1="67.24" x2="367.8" y2="67.24" xlink:href="#linear-gradient"/><linearGradient id="linear-gradient-5" x1="442.6" y1="67.23" x2="483.25" y2="67.23" xlink:href="#linear-gradient"/><linearGradient id="linear-gradient-6" x1="442.6" y1="67.24" x2="483.25" y2="67.24" xlink:href="#linear-gradient"/></defs><title>thesis_final_website</title><path class="cls-1" d="M73.41,67.23h39.06"/><path class="cls-2" d="M103.46,73.57a0.66,0.66,0,0,1,.2-0.91l8.51-5.42-8.51-5.42a0.66,0.66,0,0,1,.71-1.11l9.39,6a0.66,0.66,0,0,1,0,1.11l-9.39,6A0.66,0.66,0,0,1,103.46,73.57Z"/><path class="cls-3" d="M327.15,67.23h39.06"/><path class="cls-4" d="M357.19,73.57a0.66,0.66,0,0,1,.2-0.91l8.51-5.42-8.51-5.42a0.66,0.66,0,1,1,.71-1.11l9.39,6a0.66,0.66,0,0,1,0,1.11l-9.39,6A0.66,0.66,0,0,1,357.19,73.57Z"/><path class="cls-5" d="M442.6,67.23h39.06"/><path class="cls-6" d="M472.65,73.57a0.66,0.66,0,0,1,.2-0.91l8.51-5.42-8.51-5.42a0.66,0.66,0,1,1,.71-1.11l9.39,6a0.66,0.66,0,0,1,0,1.11l-9.39,6A0.66,0.66,0,0,1,472.65,73.57Z"/><path class="cls-7" d="M12.66,60.1h0.83V72H12.66V60.1Z"/><path class="cls-7" d="M19.94,63.1a4,4,0,0,1,2.61,1.06l0-1.58V59H23.3V72H22.62l-0.07-1.12H22.49a4,4,0,0,1-2.81,1.33c-2.18,0-3.58-1.6-3.58-4.52S17.88,63.1,19.94,63.1Zm-0.14,8.37a3.91,3.91,0,0,0,2.72-1.42V64.92A3.66,3.66,0,0,0,20,63.8c-1.73,0-3,1.67-3,3.85S18,71.47,19.79,71.47Z"/><path class="cls-7" d="M29.66,63.1c2.05,0,3.31,1.46,3.31,4a3.91,3.91,0,0,1,0,.65H26.7c0,2.18,1.31,3.75,3.26,3.75a3.83,3.83,0,0,0,2.32-.77l0.32,0.61a4.82,4.82,0,0,1-2.72.85c-2.21,0-4-1.69-4-4.52S27.73,63.1,29.66,63.1Zm2.56,4c0-2.21-1-3.35-2.54-3.35s-2.79,1.28-3,3.35h5.51Z"/><path class="cls-7" d="M35.31,63.32H36l0.07,1.33h0.05a4.22,4.22,0,0,1,3-1.55c1.78,0,2.61,1.08,2.61,3.31V72H40.91V66.52c0-1.84-.58-2.7-2-2.7-1,0-1.76.54-2.83,1.62V72H35.31V63.32Z"/><path class="cls-7" d="M45.08,64H43.73V63.39l1.37-.07,0.11-2.5h0.68v2.5h2.5V64h-2.5v5.64c0,1.1.27,1.84,1.46,1.84a2.9,2.9,0,0,0,1.08-.27l0.22,0.65a4.82,4.82,0,0,1-1.4.32c-1.67,0-2.16-1.06-2.16-2.61V64Z"/><path class="cls-7" d="M50.19,60.53a0.72,0.72,0,1,1,.72.7A0.69,0.69,0,0,1,50.19,60.53Zm0.31,2.79h0.79V72H50.5V63.32Z"/><path class="cls-7" d="M57.93,59.74a2.34,2.34,0,0,0-1-.25c-0.92,0-1.35.72-1.35,2v1.87h2V64h-2v8H54.75V64H53.56V63.39l1.19-.07V61.39c0-1.71.77-2.59,2.14-2.59a3.21,3.21,0,0,1,1.26.29Z"/><path class="cls-7" d="M59,75.17c1.06,0,1.78-1,2.21-2.29l0.23-.76-3.55-8.8h0.86l2.09,5.44c0.27,0.72.61,1.66,0.94,2.41h0.07c0.27-.76.56-1.69,0.79-2.41l1.85-5.44h0.81L61.91,73c-0.49,1.44-1.35,2.86-2.9,2.86a2.19,2.19,0,0,1-.88-0.18l0.18-.7A2,2,0,0,0,59,75.17Z"/><path class="cls-7" d="M134,60.1h2.74c3.65,0,5.4,2.3,5.4,5.89s-1.75,6-5.38,6H134V60.1Zm2.65,11.16c3.22,0,4.63-2.18,4.63-5.28s-1.4-5.19-4.63-5.19h-1.82V71.26h1.82Z"/><path class="cls-7" d="M147.75,63.1c2.05,0,3.31,1.46,3.31,4a3.91,3.91,0,0,1,0,.65h-6.23c0,2.18,1.31,3.75,3.26,3.75a3.83,3.83,0,0,0,2.32-.77l0.32,0.61a4.82,4.82,0,0,1-2.72.85c-2.21,0-4-1.69-4-4.52S145.82,63.1,147.75,63.1Zm2.56,4c0-2.21-1-3.35-2.54-3.35s-2.79,1.28-3,3.35h5.51Z"/><path class="cls-7" d="M152.78,70.39a4,4,0,0,0,2.75,1.1,1.79,1.79,0,0,0,2.05-1.71c0-1.08-1.12-1.55-2.11-1.91-1.31-.47-2.75-1-2.75-2.47,0-1.26,1-2.3,2.79-2.3A4,4,0,0,1,158,64l-0.43.56a3.27,3.27,0,0,0-2.07-.77,1.68,1.68,0,0,0-1.94,1.57c0,1,1,1.37,2,1.75,1.35,0.5,2.83,1,2.83,2.65,0,1.3-1,2.43-2.92,2.43A5,5,0,0,1,152.32,71Z"/><path class="cls-7" d="M163.91,63.1a3.54,3.54,0,0,1,2.54,1.06l-0.47.56a3,3,0,0,0-2.05-.92c-1.76,0-3.13,1.57-3.13,3.85s1.24,3.82,3.13,3.82a3.48,3.48,0,0,0,2.3-1L166.65,71a4.08,4.08,0,0,1-2.75,1.15c-2.23,0-3.92-1.66-3.92-4.52S161.8,63.1,163.91,63.1Z"/><path class="cls-7" d="M168.77,63.32h0.68l0.07,1.6h0.05A3,3,0,0,1,172,63.1a1.78,1.78,0,0,1,.86.18l-0.18.72a1.88,1.88,0,0,0-.79-0.14c-0.77,0-1.69.59-2.36,2.21V72h-0.79V63.32Z"/><path class="cls-7" d="M174.17,60.53a0.72,0.72,0,1,1,.72.7A0.69,0.69,0,0,1,174.17,60.53Zm0.31,2.79h0.79V72h-0.79V63.32Z"/><path class="cls-7" d="M178.6,59h0.79v3.75l0,1.69a4.93,4.93,0,0,1,3-1.35c2.3,0,3.46,1.73,3.46,4.41,0,2.93-1.78,4.66-3.82,4.66a4.46,4.46,0,0,1-2.59-1h0l-0.09.81H178.6V59Zm3.35,12.46c1.75,0,3-1.62,3-4,0-2.12-.76-3.71-2.74-3.71a4.53,4.53,0,0,0-2.83,1.42v5.13A4.15,4.15,0,0,0,181.95,71.47Z"/><path class="cls-7" d="M191.43,63.1c2.05,0,3.31,1.46,3.31,4a3.91,3.91,0,0,1,0,.65h-6.23c0,2.18,1.31,3.75,3.26,3.75a3.83,3.83,0,0,0,2.32-.77l0.32,0.61a4.82,4.82,0,0,1-2.72.85c-2.21,0-4-1.69-4-4.52S189.5,63.1,191.43,63.1Zm2.56,4c0-2.21-1-3.35-2.54-3.35s-2.79,1.28-3,3.35H194Z"/><path class="cls-7" d="M204.66,59.18h0.68l-5.47,15.67h-0.7Z"/><path class="cls-7" d="M210.67,63.32h0.68l0.07,1.33h0.05a4,4,0,0,1,2.72-1.55,2.25,2.25,0,0,1,2.39,1.76,4.33,4.33,0,0,1,2.93-1.76c1.73,0,2.59,1.08,2.59,3.31V72h-0.81V66.52c0-1.84-.61-2.7-1.93-2.7a3.77,3.77,0,0,0-2.59,1.62V72H216V66.52c0-1.84-.61-2.7-1.94-2.7a3.84,3.84,0,0,0-2.59,1.62V72h-0.79V63.32Z"/><path class="cls-7" d="M230.38,66.54c0-1.31-.34-2.74-2-2.74a4.77,4.77,0,0,0-2.75,1l-0.36-.59a5.77,5.77,0,0,1,3.21-1.12c2.05,0,2.74,1.48,2.74,3.33V72h-0.67l-0.09-1.12h0a5.13,5.13,0,0,1-3.06,1.33,2.28,2.28,0,0,1-2.52-2.38C224.8,67.89,226.55,67,230.38,66.54Zm-2.93,5a4.53,4.53,0,0,0,2.93-1.41V67.15c-3.55.41-4.75,1.24-4.75,2.61A1.62,1.62,0,0,0,227.45,71.49Z"/><path class="cls-7" d="M234.27,59h0.79v9.54h0l4.27-5.24h0.92l-2.81,3.42L240.75,72h-0.88L237,67.33l-1.95,2.27V72h-0.79V59Z"/><path class="cls-7" d="M245.45,63.1c2.05,0,3.31,1.46,3.31,4a3.91,3.91,0,0,1,0,.65h-6.23c0,2.18,1.31,3.75,3.26,3.75a3.83,3.83,0,0,0,2.32-.77l0.32,0.61a4.82,4.82,0,0,1-2.72.85c-2.21,0-4-1.69-4-4.52S243.52,63.1,245.45,63.1Zm2.56,4c0-2.21-1-3.35-2.54-3.35s-2.79,1.28-3,3.35H248Z"/><path class="cls-7" d="M254.88,64h-1.35V63.39l1.37-.07,0.11-2.5h0.68v2.5h2.5V64h-2.5v5.64c0,1.1.27,1.84,1.46,1.84a2.9,2.9,0,0,0,1.08-.27l0.22,0.65a4.82,4.82,0,0,1-1.4.32c-1.67,0-2.16-1.06-2.16-2.61V64Z"/><path class="cls-7" d="M265,66.54c0-1.31-.34-2.74-2-2.74a4.77,4.77,0,0,0-2.75,1l-0.36-.59a5.77,5.77,0,0,1,3.21-1.12c2.05,0,2.74,1.48,2.74,3.33V72h-0.67L265,70.84h0A5.13,5.13,0,0,1,262,72.18a2.28,2.28,0,0,1-2.52-2.38C259.43,67.89,261.18,67,265,66.54Zm-2.93,5A4.53,4.53,0,0,0,265,70.09V67.15c-3.55.41-4.75,1.24-4.75,2.61A1.62,1.62,0,0,0,262.08,71.49Z"/><path class="cls-7" d="M268.9,63.32h0.68l0.07,1.33h0.05a4.22,4.22,0,0,1,3-1.55c1.78,0,2.61,1.08,2.61,3.31V72H274.5V66.52c0-1.84-.58-2.7-2-2.7-1,0-1.76.54-2.83,1.62V72H268.9V63.32Z"/><path class="cls-7" d="M279,71.64V71.56a1.54,1.54,0,0,1-.76-1.39,2,2,0,0,1,.94-1.58V68.52a3.23,3.23,0,0,1-1.08-2.38,3,3,0,0,1,3-3,3.08,3.08,0,0,1,1.13.22h2.94V64h-2a2.88,2.88,0,0,1,1,2.18,3,3,0,0,1-3,3,3,3,0,0,1-1.44-.36,1.56,1.56,0,0,0-.7,1.24c0,0.63.36,1.13,1.66,1.13h1.85c1.94,0,2.84.61,2.84,2s-1.6,2.92-4.09,2.92c-2.18,0-3.55-.94-3.55-2.39A2.73,2.73,0,0,1,279,71.64Zm2.36,3.83c1.94,0,3.19-1.1,3.19-2.18s-0.7-1.31-2-1.31h-1.85a5.32,5.32,0,0,1-1.08-.14,2.26,2.26,0,0,0-1.13,1.82C278.51,74.73,279.56,75.47,281.39,75.47Zm2-9.33a2.25,2.25,0,1,0-4.48,0A2.25,2.25,0,1,0,283.41,66.15Z"/><path class="cls-7" d="M286.94,60.53a0.72,0.72,0,1,1,.72.7A0.69,0.69,0,0,1,286.94,60.53Zm0.31,2.79H288V72h-0.79V63.32Z"/><path class="cls-7" d="M291.36,59h0.79v3.75l0,1.69a4.93,4.93,0,0,1,3-1.35c2.3,0,3.46,1.73,3.46,4.41,0,2.93-1.78,4.66-3.82,4.66a4.46,4.46,0,0,1-2.59-1h0L292,72h-0.67V59Zm3.35,12.46c1.75,0,3-1.62,3-4,0-2.12-.76-3.71-2.74-3.71a4.53,4.53,0,0,0-2.83,1.42v5.13A4.15,4.15,0,0,0,294.71,71.47Z"/><path class="cls-7" d="M301.16,59h0.79v11.9c0,0.38.16,0.56,0.38,0.56a1.4,1.4,0,0,0,.32,0l0.14,0.65a1.69,1.69,0,0,1-.58.09c-0.7,0-1.06-.43-1.06-1.37V59Z"/><path class="cls-7" d="M308.46,63.1c2.05,0,3.31,1.46,3.31,4a3.91,3.91,0,0,1,0,.65h-6.23c0,2.18,1.31,3.75,3.26,3.75a3.83,3.83,0,0,0,2.32-.77l0.32,0.61a4.82,4.82,0,0,1-2.72.85c-2.21,0-4-1.69-4-4.52S306.54,63.1,308.46,63.1Zm2.56,4c0-2.21-1-3.35-2.54-3.35s-2.79,1.28-3,3.35H311Z"/><path class="cls-7" d="M388.79,59.88a4,4,0,0,1,3.08,1.42l-0.49.54a3.42,3.42,0,0,0-2.59-1.21c-2.59,0-4.21,2.07-4.21,5.37s1.6,5.42,4.14,5.42a3.8,3.8,0,0,0,3-1.46l0.49,0.52a4.4,4.4,0,0,1-3.53,1.69c-2.92,0-5-2.39-5-6.18S385.77,59.88,388.79,59.88Z"/><path class="cls-7" d="M394.48,63.32h0.68l0.07,1.6h0.05a3,3,0,0,1,2.45-1.82,1.78,1.78,0,0,1,.86.18l-0.18.72a1.88,1.88,0,0,0-.79-0.14c-0.77,0-1.69.59-2.36,2.21V72h-0.79V63.32Z"/><path class="cls-7" d="M403,63.1c2.05,0,3.31,1.46,3.31,4a3.91,3.91,0,0,1,0,.65h-6.23c0,2.18,1.31,3.75,3.26,3.75a3.83,3.83,0,0,0,2.32-.77L406,71.33a4.82,4.82,0,0,1-2.72.85c-2.21,0-4-1.69-4-4.52S401.12,63.1,403,63.1Zm2.56,4c0-2.21-1-3.35-2.54-3.35s-2.79,1.28-3,3.35h5.51Z"/><path class="cls-7" d="M413.52,66.54c0-1.31-.34-2.74-2-2.74a4.77,4.77,0,0,0-2.75,1l-0.36-.59a5.77,5.77,0,0,1,3.21-1.12c2.05,0,2.74,1.48,2.74,3.33V72h-0.67l-0.09-1.12h0a5.13,5.13,0,0,1-3.06,1.33,2.28,2.28,0,0,1-2.52-2.38C407.94,67.89,409.69,67,413.52,66.54Zm-2.93,5a4.53,4.53,0,0,0,2.93-1.41V67.15c-3.55.41-4.75,1.24-4.75,2.61A1.62,1.62,0,0,0,410.59,71.49Z"/><path class="cls-7" d="M417.61,64h-1.35V63.39l1.37-.07,0.11-2.5h0.68v2.5h2.5V64h-2.5v5.64c0,1.1.27,1.84,1.46,1.84a2.9,2.9,0,0,0,1.08-.27l0.22,0.65a4.82,4.82,0,0,1-1.4.32c-1.67,0-2.16-1.06-2.16-2.61V64Z"/><path class="cls-7" d="M425.89,63.1c2.05,0,3.31,1.46,3.31,4a3.91,3.91,0,0,1,0,.65h-6.23c0,2.18,1.31,3.75,3.26,3.75a3.83,3.83,0,0,0,2.32-.77l0.32,0.61a4.82,4.82,0,0,1-2.72.85c-2.21,0-4-1.69-4-4.52S424,63.1,425.89,63.1Zm2.56,4c0-2.21-1-3.35-2.54-3.35s-2.79,1.28-3,3.35h5.51Z"/><path class="cls-7" d="M507.3,59.88a4.25,4.25,0,0,1,3.22,1.42l-0.49.54a3.51,3.51,0,0,0-2.74-1.21c-2.72,0-4.39,2.07-4.39,5.37s1.6,5.42,4.3,5.42a3.82,3.82,0,0,0,2.65-.9V66.83H507v-0.7h3.62v4.7a4.73,4.73,0,0,1-3.51,1.35c-3,0-5.1-2.39-5.1-6.18S504.17,59.88,507.3,59.88Z"/><path class="cls-7" d="M513.53,63.32h0.68l0.07,1.6h0.05a3,3,0,0,1,2.45-1.82,1.78,1.78,0,0,1,.86.18l-0.18.72a1.88,1.88,0,0,0-.79-0.14c-0.77,0-1.69.59-2.36,2.21V72h-0.79V63.32Z"/><path class="cls-7" d="M522.2,63.1c2.09,0,3.89,1.66,3.89,4.55s-1.8,4.52-3.89,4.52-3.87-1.66-3.87-4.52S520.13,63.1,522.2,63.1Zm0,8.37c1.75,0,3.06-1.55,3.06-3.82s-1.31-3.85-3.06-3.85-3,1.57-3,3.85S520.46,71.47,522.2,71.47Z"/><path class="cls-7" d="M527.46,63.32h0.87l1.55,5.6c0.22,0.79.41,1.53,0.59,2.3h0.07c0.2-.77.41-1.51,0.63-2.3l1.57-5.6h1l1.57,5.6c0.22,0.79.43,1.53,0.65,2.3H536c0.2-.77.42-1.51,0.61-2.3l1.53-5.6h0.81L536.44,72h-1l-1.51-5.37c-0.25-.83-0.41-1.62-0.67-2.47h-0.07c-0.2.85-.41,1.67-0.68,2.5L531,72h-1Z"/><path class="cls-7" d="M548.59,59.18h0.68L543.8,74.84h-0.7Z"/><path class="cls-7" d="M554.24,69.82a4.67,4.67,0,0,0,3.49,1.6c1.8,0,3-1,3-2.38s-1-2-2.14-2.48l-1.8-.81c-1-.45-2.39-1.19-2.39-3s1.48-2.92,3.44-2.92a4.51,4.51,0,0,1,3.31,1.42l-0.49.56a3.76,3.76,0,0,0-2.83-1.22c-1.57,0-2.61.83-2.61,2.12s1.19,1.89,2.05,2.29l1.8,0.79c1.31,0.59,2.48,1.33,2.48,3.15s-1.49,3.19-3.8,3.19a5.23,5.23,0,0,1-4-1.78Z"/><path class="cls-7" d="M567.08,63.1a3.54,3.54,0,0,1,2.54,1.06l-0.47.56a3,3,0,0,0-2.05-.92c-1.76,0-3.13,1.57-3.13,3.85s1.24,3.82,3.13,3.82a3.48,3.48,0,0,0,2.3-1L569.81,71a4.08,4.08,0,0,1-2.75,1.15c-2.23,0-3.92-1.66-3.92-4.52S565,63.1,567.08,63.1Z"/><path class="cls-7" d="M576.85,66.54c0-1.31-.34-2.74-2-2.74a4.77,4.77,0,0,0-2.75,1l-0.36-.59a5.77,5.77,0,0,1,3.21-1.12c2.05,0,2.74,1.48,2.74,3.33V72H577l-0.09-1.12h0a5.13,5.13,0,0,1-3.06,1.33,2.28,2.28,0,0,1-2.52-2.38C571.27,67.89,573,67,576.85,66.54Zm-2.93,5a4.53,4.53,0,0,0,2.93-1.41V67.15c-3.55.41-4.75,1.24-4.75,2.61A1.62,1.62,0,0,0,573.92,71.49Z"/><path class="cls-7" d="M580.74,59h0.79v11.9c0,0.38.16,0.56,0.38,0.56a1.4,1.4,0,0,0,.32,0l0.14,0.65a1.69,1.69,0,0,1-.58.09c-0.7,0-1.06-.43-1.06-1.37V59Z"/><path class="cls-7" d="M588,63.1c2.05,0,3.31,1.46,3.31,4a3.91,3.91,0,0,1,0,.65h-6.23c0,2.18,1.31,3.75,3.26,3.75a3.83,3.83,0,0,0,2.32-.77L591,71.33a4.82,4.82,0,0,1-2.72.85c-2.21,0-4-1.69-4-4.52S586.12,63.1,588,63.1Zm2.56,4c0-2.21-1-3.35-2.54-3.35s-2.79,1.28-3,3.35h5.51Z"/></svg>