<svg id="Layer_1" data-name="Layer 1" xmlns="http://www.w3.org/2000/svg" viewBox="0 0 600 375"><defs><style>.cls-1{fill:none;stroke:#5c9ad2;stroke-miterlimit:10;stroke-width:1.8px;}.cls-2{fill:#231f20;}</style></defs><title>thesis_final_website</title><circle class="cls-1" cx="295.9" cy="182.35" r="88.04"/><circle class="cls-1" cx="295.9" cy="182.35" r="132.83"/><circle class="cls-1" cx="295.9" cy="182.35" r="35.18"/><path class="cls-2" d="M268.55,174.32h3.24c2.65,0,4.21.86,4.21,3.31s-1.58,3.46-4.21,3.46h-2.41v5.1h-0.83V174.32Zm3,6.07c2.43,0,3.58-.81,3.58-2.75S274,175,271.58,175h-2.2v5.37h2.2Z"/><path class="cls-2" d="M278.44,177.54h0.68l0.07,1.6h0.05a3,3,0,0,1,2.45-1.82,1.78,1.78,0,0,1,.86.18l-0.18.72a1.88,1.88,0,0,0-.79-0.14c-0.77,0-1.69.59-2.36,2.21v5.89h-0.79v-8.64Z"/><path class="cls-2" d="M287.11,177.33c2.09,0,3.89,1.66,3.89,4.55s-1.8,4.52-3.89,4.52-3.87-1.66-3.87-4.52S285,177.33,287.11,177.33Zm0,8.37c1.75,0,3.06-1.55,3.06-3.82s-1.31-3.85-3.06-3.85-3,1.57-3,3.85S285.37,185.7,287.11,185.7Z"/><path class="cls-2" d="M296.71,177.33a4,4,0,0,1,2.61,1.06l0-1.58v-3.57h0.79v12.95h-0.68l-0.07-1.12h-0.05a4,4,0,0,1-2.81,1.33c-2.18,0-3.58-1.6-3.58-4.52S294.65,177.33,296.71,177.33Zm-0.14,8.37a3.9,3.9,0,0,0,2.72-1.42v-5.13a3.65,3.65,0,0,0-2.52-1.12c-1.73,0-3,1.67-3,3.85S294.73,185.7,296.56,185.7Z"/><path class="cls-2" d="M303.26,177.54H304V183c0,1.84.58,2.7,2,2.7,1,0,1.78-.54,2.79-1.76v-6.37h0.79v8.64h-0.67l-0.09-1.44h0a3.86,3.86,0,0,1-2.93,1.66c-1.78,0-2.61-1.08-2.61-3.31v-5.55Z"/><path class="cls-2" d="M316.13,177.33a3.54,3.54,0,0,1,2.54,1.06l-0.47.56a3,3,0,0,0-2.05-.92c-1.76,0-3.13,1.57-3.13,3.85s1.24,3.82,3.13,3.82a3.48,3.48,0,0,0,2.3-1l0.41,0.54a4.08,4.08,0,0,1-2.75,1.15c-2.23,0-3.92-1.66-3.92-4.52S314,177.33,316.13,177.33Z"/><path class="cls-2" d="M321.19,178.23h-1.35v-0.61l1.37-.07,0.11-2.5H322v2.5h2.5v0.68H322v5.64c0,1.1.27,1.84,1.46,1.84a2.9,2.9,0,0,0,1.08-.27l0.22,0.65a4.82,4.82,0,0,1-1.4.32c-1.67,0-2.16-1.06-2.16-2.61v-5.56Z"/><path class="cls-2" d="M270.93,126.38a4.68,4.68,0,0,0,3.49,1.6c1.8,0,3-1,3-2.38s-1-2-2.14-2.48l-1.8-.81c-1-.45-2.39-1.19-2.39-3s1.48-2.92,3.44-2.92a4.51,4.51,0,0,1,3.31,1.42l-0.49.56a3.76,3.76,0,0,0-2.83-1.22c-1.57,0-2.61.83-2.61,2.12s1.19,1.89,2.05,2.29l1.8,0.79c1.31,0.59,2.48,1.33,2.48,3.15s-1.49,3.19-3.8,3.19a5.23,5.23,0,0,1-4-1.78Z"/><path class="cls-2" d="M283.58,119.66c2.05,0,3.31,1.46,3.31,4a3.91,3.91,0,0,1,0,.65h-6.23c0,2.18,1.31,3.75,3.26,3.75a3.83,3.83,0,0,0,2.32-.77l0.32,0.61a4.82,4.82,0,0,1-2.72.85c-2.21,0-4-1.69-4-4.52S281.66,119.66,283.58,119.66Zm2.56,4c0-2.21-1-3.35-2.54-3.35s-2.79,1.28-3,3.35h5.51Z"/><path class="cls-2" d="M289.24,119.88h0.68l0.07,1.6H290a3,3,0,0,1,2.45-1.82,1.78,1.78,0,0,1,.86.18l-0.18.72a1.88,1.88,0,0,0-.79-0.14c-0.77,0-1.69.59-2.36,2.21v5.89h-0.79v-8.64Z"/><path class="cls-2" d="M294,119.88h0.86l1.95,5.42c0.27,0.83.59,1.69,0.86,2.48h0.07c0.29-.79.59-1.66,0.88-2.48l1.94-5.42h0.81l-3.21,8.64h-0.94Z"/><path class="cls-2" d="M302.93,117.09a0.72,0.72,0,1,1,.72.7A0.69,0.69,0,0,1,302.93,117.09Zm0.31,2.79H304v8.64h-0.79v-8.64Z"/><path class="cls-2" d="M310.58,119.66a3.54,3.54,0,0,1,2.54,1.06l-0.47.56a3,3,0,0,0-2.05-.92c-1.76,0-3.13,1.57-3.13,3.85s1.24,3.82,3.13,3.82a3.48,3.48,0,0,0,2.3-1l0.41,0.54a4.08,4.08,0,0,1-2.75,1.15c-2.23,0-3.92-1.66-3.92-4.52S308.48,119.66,310.58,119.66Z"/><path class="cls-2" d="M318.18,119.66c2.05,0,3.31,1.46,3.31,4a3.91,3.91,0,0,1,0,.65h-6.23c0,2.18,1.31,3.75,3.26,3.75a3.83,3.83,0,0,0,2.32-.77l0.32,0.61a4.82,4.82,0,0,1-2.72.85c-2.21,0-4-1.69-4-4.52S316.25,119.66,318.18,119.66Zm2.56,4c0-2.21-1-3.35-2.54-3.35s-2.79,1.28-3,3.35h5.51Z"/><path class="cls-2" d="M270.63,80.55a4.68,4.68,0,0,0,3.49,1.6c1.8,0,3-1,3-2.38s-1-2-2.14-2.48l-1.8-.81c-1-.45-2.39-1.19-2.39-3s1.48-2.92,3.44-2.92A4.51,4.51,0,0,1,277.49,72l-0.49.56a3.76,3.76,0,0,0-2.83-1.22c-1.57,0-2.61.83-2.61,2.12s1.19,1.89,2.05,2.29l1.8,0.79c1.31,0.59,2.48,1.33,2.48,3.15s-1.49,3.19-3.8,3.19a5.23,5.23,0,0,1-4-1.78Z"/><path class="cls-2" d="M279.9,85.89c1.06,0,1.78-1,2.21-2.29l0.23-.76L278.8,74h0.86l2.09,5.44c0.27,0.72.61,1.66,0.94,2.41h0.07c0.27-.76.56-1.69,0.79-2.41L285.41,74h0.81l-3.42,9.72c-0.49,1.44-1.35,2.86-2.9,2.86a2.19,2.19,0,0,1-.88-0.18l0.18-.7A2,2,0,0,0,279.9,85.89Z"/><path class="cls-2" d="M287.48,81.12a4,4,0,0,0,2.75,1.1,1.79,1.79,0,0,0,2.05-1.71c0-1.08-1.12-1.55-2.11-1.91-1.31-.47-2.75-1-2.75-2.47,0-1.26,1-2.3,2.79-2.3a4,4,0,0,1,2.47.9l-0.43.56a3.27,3.27,0,0,0-2.07-.77,1.68,1.68,0,0,0-1.94,1.57c0,1,1,1.37,2,1.75,1.35,0.5,2.83,1,2.83,2.65,0,1.3-1,2.43-2.92,2.43A5,5,0,0,1,287,81.72Z"/><path class="cls-2" d="M295.58,74.73h-1.35V74.12L295.6,74l0.11-2.5h0.68V74h2.5v0.68h-2.5v5.64c0,1.1.27,1.84,1.46,1.84a2.9,2.9,0,0,0,1.08-.27l0.22,0.65a4.82,4.82,0,0,1-1.4.32c-1.67,0-2.16-1.06-2.16-2.61V74.73Z"/><path class="cls-2" d="M303.86,73.83c2.05,0,3.31,1.46,3.31,4a3.91,3.91,0,0,1,0,.65h-6.23c0,2.18,1.31,3.75,3.26,3.75a3.83,3.83,0,0,0,2.32-.77l0.32,0.61a4.82,4.82,0,0,1-2.72.85c-2.21,0-4-1.69-4-4.52S301.94,73.83,303.86,73.83Zm2.56,4c0-2.21-1-3.35-2.54-3.35s-2.79,1.28-3,3.35h5.51Z"/><path class="cls-2" d="M309.51,74h0.68l0.07,1.33h0.05A4,4,0,0,1,313,73.83a2.25,2.25,0,0,1,2.39,1.76,4.33,4.33,0,0,1,2.93-1.76c1.73,0,2.59,1.08,2.59,3.31v5.55h-0.81V77.25c0-1.84-.61-2.7-1.93-2.7a3.77,3.77,0,0,0-2.59,1.62v6.52h-0.79V77.25c0-1.84-.61-2.7-1.94-2.7a3.84,3.84,0,0,0-2.59,1.62v6.52h-0.79V74Z"/><path class="cls-2" d="M30.24,171.5h3.21c2.38,0,3.91.9,3.91,2.88A2.57,2.57,0,0,1,35.25,177V177c1.75,0.25,2.84,1.22,2.84,2.86,0,2.29-1.73,3.46-4.41,3.46H30.24V171.5Zm2.86,5.22c2.45,0,3.42-.79,3.42-2.36s-1.13-2.18-3.31-2.18H31.07v4.54h2Zm0.36,6c2.36,0,3.8-.86,3.8-2.77,0-1.69-1.39-2.52-3.8-2.52H31.07v5.29h2.39Z"/><path class="cls-2" d="M40.36,174.72h0.79v5.44c0,1.84.58,2.7,2,2.7,1,0,1.78-.54,2.79-1.76v-6.37H46.7v8.64H46l-0.09-1.44h0A3.86,3.86,0,0,1,43,183.58c-1.78,0-2.61-1.08-2.61-3.31v-5.55Z"/><path class="cls-2" d="M49.39,181.8a4,4,0,0,0,2.75,1.1,1.79,1.79,0,0,0,2.05-1.71c0-1.08-1.12-1.55-2.11-1.91-1.31-.47-2.75-1-2.75-2.47,0-1.26,1-2.3,2.79-2.3a4,4,0,0,1,2.47.9l-0.43.56a3.27,3.27,0,0,0-2.07-.77,1.68,1.68,0,0,0-1.94,1.57c0,1,1,1.37,2,1.75,1.35,0.5,2.83,1,2.83,2.65,0,1.3-1,2.43-2.92,2.43a5,5,0,0,1-3.17-1.19Z"/><path class="cls-2" d="M57,171.93a0.72,0.72,0,1,1,.72.7A0.69,0.69,0,0,1,57,171.93Zm0.31,2.79h0.79v8.64H57.3v-8.64Z"/><path class="cls-2" d="M61.42,174.72H62.1l0.07,1.33h0.05a4.22,4.22,0,0,1,3-1.55c1.78,0,2.61,1.08,2.61,3.31v5.55H67v-5.44c0-1.84-.58-2.7-2-2.7-1,0-1.76.54-2.83,1.62v6.52H61.42v-8.64Z"/><path class="cls-2" d="M74,174.51c2.05,0,3.31,1.46,3.31,4a3.91,3.91,0,0,1,0,.65H71.08c0,2.18,1.31,3.75,3.26,3.75a3.83,3.83,0,0,0,2.32-.77L77,182.73a4.82,4.82,0,0,1-2.72.85c-2.21,0-4-1.69-4-4.52S72.11,174.51,74,174.51Zm2.56,4c0-2.21-1-3.35-2.54-3.35s-2.79,1.28-3,3.35h5.51Z"/><path class="cls-2" d="M79.08,181.8a4,4,0,0,0,2.75,1.1,1.79,1.79,0,0,0,2.05-1.71c0-1.08-1.12-1.55-2.11-1.91-1.31-.47-2.75-1-2.75-2.47,0-1.26,1-2.3,2.79-2.3a4,4,0,0,1,2.47.9l-0.43.56a3.27,3.27,0,0,0-2.07-.77,1.68,1.68,0,0,0-1.94,1.57c0,1,1,1.37,2,1.75,1.35,0.5,2.83,1,2.83,2.65,0,1.3-1,2.43-2.92,2.43a5,5,0,0,1-3.17-1.19Z"/><path class="cls-2" d="M86.37,181.8a4,4,0,0,0,2.75,1.1,1.79,1.79,0,0,0,2.05-1.71c0-1.08-1.12-1.55-2.11-1.91-1.31-.47-2.75-1-2.75-2.47,0-1.26,1-2.3,2.79-2.3a4,4,0,0,1,2.47.9l-0.43.56a3.27,3.27,0,0,0-2.07-.77,1.68,1.68,0,0,0-1.94,1.57c0,1,1,1.37,2,1.75,1.35,0.5,2.83,1,2.83,2.65,0,1.3-1,2.43-2.92,2.43a5,5,0,0,1-3.17-1.19Z"/><path class="cls-2" d="M97.54,171.93a0.72,0.72,0,1,1,.72.7A0.69,0.69,0,0,1,97.54,171.93Zm0.31,2.79h0.79v8.64H97.85v-8.64Z"/><path class="cls-2" d="M102,174.72h0.68l0.07,1.33h0.05a4,4,0,0,1,2.72-1.55,2.25,2.25,0,0,1,2.39,1.76,4.33,4.33,0,0,1,2.93-1.76c1.73,0,2.59,1.08,2.59,3.31v5.55h-0.81v-5.44c0-1.84-.61-2.7-1.93-2.7a3.77,3.77,0,0,0-2.59,1.62v6.52H107.3v-5.44c0-1.84-.61-2.7-1.94-2.7a3.84,3.84,0,0,0-2.59,1.62v6.52H102v-8.64Z"/><path class="cls-2" d="M117.38,184.12v3.15h-0.79V174.72h0.68l0.07,1.08h0.05a5.05,5.05,0,0,1,2.93-1.3c2.3,0,3.46,1.73,3.46,4.41,0,2.93-1.78,4.66-3.82,4.66a4.56,4.56,0,0,1-2.59-1.06v1.6Zm2.56-1.24c1.75,0,3-1.62,3-4,0-2.12-.76-3.71-2.74-3.71a4.57,4.57,0,0,0-2.83,1.42v5.13A4.23,4.23,0,0,0,119.94,182.88Z"/><path class="cls-2" d="M131.21,177.94c0-1.31-.34-2.74-2-2.74a4.77,4.77,0,0,0-2.75,1l-0.36-.59a5.77,5.77,0,0,1,3.21-1.12c2.05,0,2.74,1.48,2.74,3.33v5.53h-0.67l-0.09-1.12h0a5.13,5.13,0,0,1-3.06,1.33,2.28,2.28,0,0,1-2.52-2.38C125.62,179.29,127.37,178.38,131.21,177.94Zm-2.93,5a4.53,4.53,0,0,0,2.93-1.41v-2.93c-3.55.41-4.75,1.24-4.75,2.61A1.62,1.62,0,0,0,128.27,182.9Z"/><path class="cls-2" d="M138.32,174.51a3.54,3.54,0,0,1,2.54,1.06l-0.47.56a3,3,0,0,0-2.05-.92c-1.76,0-3.13,1.57-3.13,3.85s1.24,3.82,3.13,3.82a3.48,3.48,0,0,0,2.3-1l0.41,0.54a4.08,4.08,0,0,1-2.75,1.15c-2.23,0-3.92-1.66-3.92-4.52S136.21,174.51,138.32,174.51Z"/><path class="cls-2" d="M143.37,175.41H142v-0.61l1.37-.07,0.11-2.5h0.68v2.5h2.5v0.68h-2.5V181c0,1.1.27,1.84,1.46,1.84a2.9,2.9,0,0,0,1.08-.27l0.22,0.65a4.82,4.82,0,0,1-1.4.32c-1.67,0-2.16-1.06-2.16-2.61v-5.56Z"/><path class="cls-2" d="M464.73,171.5h0.83v5.2h6.34v-5.2h0.83v11.87h-0.83v-5.94h-6.34v5.94h-0.83V171.5Z"/><path class="cls-2" d="M475.94,174.72h0.79v5.44c0,1.84.58,2.7,2,2.7,1,0,1.78-.54,2.79-1.76v-6.37h0.79v8.64h-0.67l-0.09-1.44h0a3.86,3.86,0,0,1-2.93,1.66c-1.78,0-2.61-1.08-2.61-3.31v-5.55Z"/><path class="cls-2" d="M485.59,174.72h0.68l0.07,1.33h0.05a4,4,0,0,1,2.72-1.55,2.25,2.25,0,0,1,2.39,1.76,4.33,4.33,0,0,1,2.93-1.76c1.73,0,2.59,1.08,2.59,3.31v5.55h-0.81v-5.44c0-1.84-.61-2.7-1.93-2.7a3.77,3.77,0,0,0-2.59,1.62v6.52h-0.79v-5.44c0-1.84-.61-2.7-1.94-2.7a3.84,3.84,0,0,0-2.59,1.62v6.52h-0.79v-8.64Z"/><path class="cls-2" d="M505.3,177.94c0-1.31-.34-2.74-2-2.74a4.77,4.77,0,0,0-2.75,1l-0.36-.59a5.77,5.77,0,0,1,3.21-1.12c2.05,0,2.74,1.48,2.74,3.33v5.53h-0.67l-0.09-1.12h0a5.13,5.13,0,0,1-3.06,1.33,2.28,2.28,0,0,1-2.52-2.38C499.72,179.29,501.46,178.38,505.3,177.94Zm-2.93,5a4.53,4.53,0,0,0,2.93-1.41v-2.93c-3.55.41-4.75,1.24-4.75,2.61A1.62,1.62,0,0,0,502.36,182.9Z"/><path class="cls-2" d="M509.18,174.72h0.68l0.07,1.33H510a4.22,4.22,0,0,1,3-1.55c1.78,0,2.61,1.08,2.61,3.31v5.55h-0.79v-5.44c0-1.84-.58-2.7-2-2.7-1,0-1.76.54-2.83,1.62v6.52h-0.79v-8.64Z"/><path class="cls-2" d="M522.34,174.72H523l0.07,1.33h0.05a4.22,4.22,0,0,1,3-1.55c1.78,0,2.61,1.08,2.61,3.31v5.55h-0.79v-5.44c0-1.84-.58-2.7-2-2.7-1,0-1.76.54-2.83,1.62v6.52h-0.79v-8.64Z"/><path class="cls-2" d="M535,174.51c2.05,0,3.31,1.46,3.31,4a3.91,3.91,0,0,1,0,.65H532c0,2.18,1.31,3.75,3.26,3.75a3.83,3.83,0,0,0,2.32-.77l0.32,0.61a4.82,4.82,0,0,1-2.72.85c-2.21,0-4-1.69-4-4.52S533,174.51,535,174.51Zm2.56,4c0-2.21-1-3.35-2.54-3.35s-2.79,1.28-3,3.35h5.51Z"/><path class="cls-2" d="M543.66,174.51c2.05,0,3.31,1.46,3.31,4a3.91,3.91,0,0,1,0,.65H540.7c0,2.18,1.31,3.75,3.26,3.75a3.83,3.83,0,0,0,2.32-.77l0.32,0.61a4.82,4.82,0,0,1-2.72.85c-2.21,0-4-1.69-4-4.52S541.73,174.51,543.66,174.51Zm2.56,4c0-2.21-1-3.35-2.54-3.35s-2.79,1.28-3,3.35h5.51Z"/><path class="cls-2" d="M552.42,174.51a4,4,0,0,1,2.61,1.06l0-1.58v-3.57h0.79v12.95H555.1L555,182.25H555a4,4,0,0,1-2.81,1.33c-2.18,0-3.58-1.6-3.58-4.52S550.37,174.51,552.42,174.51Zm-0.14,8.37a3.91,3.91,0,0,0,2.72-1.42v-5.13a3.66,3.66,0,0,0-2.52-1.12c-1.73,0-3,1.67-3,3.85S550.44,182.88,552.28,182.88Z"/><path class="cls-2" d="M563.09,170.58h0.68l-5.47,15.67h-0.7Z"/><path class="cls-2" d="M475.43,196.32h0.68l0.07,1.33h0.05a4,4,0,0,1,2.72-1.55,2.25,2.25,0,0,1,2.39,1.76,4.33,4.33,0,0,1,2.93-1.76c1.73,0,2.59,1.08,2.59,3.31V205h-0.81v-5.44c0-1.84-.61-2.7-1.93-2.7a3.77,3.77,0,0,0-2.59,1.62V205h-0.79v-5.44c0-1.84-.61-2.7-1.94-2.7a3.84,3.84,0,0,0-2.59,1.62V205h-0.79v-8.64Z"/><path class="cls-2" d="M493.19,196.11c2.09,0,3.89,1.66,3.89,4.55s-1.8,4.52-3.89,4.52-3.87-1.66-3.87-4.52S491.12,196.11,493.19,196.11Zm0,8.37c1.75,0,3.06-1.55,3.06-3.82s-1.31-3.85-3.06-3.85-3,1.57-3,3.85S491.45,204.48,493.19,204.48Z"/><path class="cls-2" d="M499.87,197h-1.35v-0.61l1.37-.07,0.11-2.5h0.68v2.5h2.5V197h-2.5v5.64c0,1.1.27,1.84,1.46,1.84a2.9,2.9,0,0,0,1.08-.27l0.22,0.65a4.82,4.82,0,0,1-1.4.32c-1.67,0-2.16-1.06-2.16-2.61V197Z"/><path class="cls-2" d="M505,193.53a0.72,0.72,0,1,1,.72.7A0.69,0.69,0,0,1,505,193.53Zm0.31,2.79h0.79V205h-0.79v-8.64Z"/><path class="cls-2" d="M508,196.32h0.86l1.94,5.42c0.27,0.83.59,1.69,0.87,2.48h0.07c0.29-.79.59-1.66,0.88-2.48l1.94-5.42h0.81L512.15,205h-0.94Z"/><path class="cls-2" d="M522,199.54c0-1.31-.34-2.74-2-2.74a4.77,4.77,0,0,0-2.75,1l-0.36-.59a5.77,5.77,0,0,1,3.21-1.12c2.05,0,2.74,1.48,2.74,3.33V205h-0.67L522,203.85h0a5.13,5.13,0,0,1-3.06,1.33,2.28,2.28,0,0,1-2.52-2.38C516.38,200.9,518.12,200,522,199.54Zm-2.93,5a4.53,4.53,0,0,0,2.93-1.4v-2.94c-3.55.41-4.75,1.24-4.75,2.61A1.62,1.62,0,0,0,519,204.5Z"/><path class="cls-2" d="M526,197h-1.35v-0.61l1.37-.07,0.11-2.5h0.68v2.5h2.5V197h-2.5v5.64c0,1.1.27,1.84,1.46,1.84a2.9,2.9,0,0,0,1.08-.27l0.22,0.65a4.82,4.82,0,0,1-1.4.32c-1.67,0-2.16-1.06-2.16-2.61V197Z"/><path class="cls-2" d="M531.16,193.53a0.72,0.72,0,1,1,.72.7A0.69,0.69,0,0,1,531.16,193.53Zm0.31,2.79h0.79V205h-0.79v-8.64Z"/><path class="cls-2" d="M538.73,196.11c2.09,0,3.89,1.66,3.89,4.55s-1.8,4.52-3.89,4.52-3.87-1.66-3.87-4.52S536.66,196.11,538.73,196.11Zm0,8.37c1.75,0,3.06-1.55,3.06-3.82s-1.31-3.85-3.06-3.85-3,1.57-3,3.85S537,204.48,538.73,204.48Z"/><path class="cls-2" d="M545.21,196.32h0.68l0.07,1.33H546a4.22,4.22,0,0,1,3-1.55c1.78,0,2.61,1.08,2.61,3.31V205h-0.79v-5.44c0-1.84-.58-2.7-2-2.7-1,0-1.76.54-2.83,1.62V205h-0.79v-8.64Z"/></svg>