<svg id="Layer_1" data-name="Layer 1" xmlns="http://www.w3.org/2000/svg" xmlns:xlink="http://www.w3.org/1999/xlink" viewBox="0 0 600 375"><defs><style>.cls-1,.cls-3,.cls-5{fill:none;}.cls-2{clip-path:url(#clip-path);}.cls-3,.cls-5{stroke:#5c9ad2;stroke-miterlimit:10;}.cls-3{stroke-width:2.52px;}.cls-4{fill:#231f20;}.cls-5{stroke-width:1.64px;}</style><clipPath id="clip-path"><rect class="cls-1" x="-229.57" y="-249.81" width="1138.08" height="144.83"/></clipPath></defs><title>thesis_final_website</title><g class="cls-2"><path class="cls-3" d="M-380.37,26.23C-130.19,93.15,53.28,92.52,178.52,77.41c149.06-18,263.51-62.23,413.09-32,57.63,11.65,107.51,31.74,196.61,33.27,75.6,1.29,138.55-11.48,181.14-23"/><path class="cls-3" d="M968.57,45.78A527.4,527.4,0,0,1,868.91,66c-28,2.91-57.75,3.83-90.07,3.4C690.73,68,641.33,48.25,584.34,36.86,436.63,7.24,323.56,51,175.72,68.83,149.19,72,120,74.59,88.11,76c-117.48,5.15-271.3-5.69-465.3-57.44"/><path class="cls-3" d="M967.77,35.89C936.42,46.17,903.42,54.24,863.7,57.81c-29.84,2.68-60.52,2.82-94.24,2.38-87.13-1.13-136-20.75-192.4-31.89-145.84-29-257.53,14.19-404.14,32-26.25,3.18-55.11,5.71-86.65,7.1C-30.36,72.56-182.61,61.75-374,10.85"/><path class="cls-3" d="M967,26c-34.44,12-67.82,20.44-108.49,23.57-31.69,2.44-63.3,1.75-98.41,1.36-86.15-1-134.57-20.32-190.29-31.2C425.83-8.63,315.52,34,170.13,51.67c-26,3.15-54.5,5.66-85.7,7.05C-31.35,64-182,53.22-370.81,3.16"/><path class="cls-3" d="M966.18,16.13c-37.52,13.73-71.28,22.51-112.9,25.23-33.53,2.19-66.07.67-102.57,0.33-85.16-.8-133.1-19.9-188.18-30.51-142.09-27.75-251,14.37-395.19,31.92-25.68,3.12-53.9,5.61-84.74,7-114.93,5.33-264-5.41-450.2-54.63"/><path class="cls-3" d="M965.38,6.24c-40.61,15.45-74.75,24.57-117.31,26.88-35.39,1.93-68.85-.4-106.74-0.69C657.14,31.78,609.7,13,555.25,2.61,415-24.51,307.47,17.07,164.53,34.51c-25.39,3.09-53.29,5.57-83.79,7-114.08,5.39-261.61-5.32-445.17-53.69"/><path class="cls-3" d="M964.58-3.64C920.88,13.54,886.36,23,842.86,24.9c-37.24,1.66-71.62-1.47-110.91-1.72-83.2-.52-130.16-19-184-29.13C409.64-32.45,303.45,8.6,161.73,25.93,136.62,29,109,31.45,78.89,32.84c-113.23,5.45-259.18-5.23-440.14-52.76"/><path class="cls-3" d="M963.79-13.52C917,5.38,882.09,15.11,837.65,16.67c-39.09,1.38-74.39-2.55-115.08-2.74-82.21-.4-128.71-18.49-181.87-28.44C404.18-40.07,299.43.13,158.93,17.36c-24.82,3-52.09,5.47-81.88,6.86-112.38,5.51-256.76-5.13-435.11-51.82"/><path class="cls-3" d="M963-23.41C913.11-2.78,877.82,7.24,832.44,8.44c-41,1.09-77.17-3.62-119.25-3.77-81.23-.28-127.24-18-179.76-27.75C398.77-48,295.4-8.35,156.13,8.78c-24.53,3-51.48,5.42-80.92,6.81-111.53,5.57-254.33-5-430.08-50.89"/><path class="cls-3" d="M962.19-33.29c-53,22.35-88.65,32.64-135,33.51-42.81.8-79.94-4.7-123.42-4.79C623.56-4.75,578-22.17,526.15-31.63,393.37-55.86,291.38-16.82,153.33.2c-24.25,3-50.88,5.37-80,6.77C-37.32,12.59-178.54,2-351.69-43"/><path class="cls-3" d="M961.4-43.17C905.34-19.09,869.27-8.53,822-8c-44.67.5-82.72-5.77-127.59-5.82C615.17-13.9,570.12-31,518.88-40.2,388-63.76,287.36-25.29,150.53-8.38c-24,2.94-50.27,5.33-79,6.72C-38.31,4-178-6.52-348.5-50.68"/></g><path class="cls-4" d="M170.7,75.18h2.74c3.65,0,5.4,2.3,5.4,5.89s-1.75,6-5.38,6H170.7V75.18Zm2.65,11.16c3.22,0,4.63-2.18,4.63-5.28s-1.4-5.19-4.63-5.19h-1.82V86.34h1.82Z"/><path class="cls-4" d="M181.14,75.61a0.72,0.72,0,1,1,.72.7A0.69,0.69,0,0,1,181.14,75.61Zm0.31,2.79h0.79V87h-0.79V78.4Z"/><path class="cls-4" d="M185,85.48a4,4,0,0,0,2.75,1.1,1.79,1.79,0,0,0,2.05-1.71c0-1.08-1.12-1.55-2.11-1.91-1.31-.47-2.75-1-2.75-2.47,0-1.26,1-2.3,2.79-2.3a4,4,0,0,1,2.47.9l-0.43.56a3.27,3.27,0,0,0-2.07-.77,1.68,1.68,0,0,0-1.94,1.57c0,1,1,1.37,2,1.75,1.35,0.5,2.83,1,2.83,2.65,0,1.3-1,2.43-2.92,2.43a5,5,0,0,1-3.17-1.19Z"/><path class="cls-4" d="M196.08,78.18a3.54,3.54,0,0,1,2.54,1.06l-0.47.56a3,3,0,0,0-2.05-.92c-1.76,0-3.13,1.57-3.13,3.85s1.24,3.82,3.13,3.82a3.48,3.48,0,0,0,2.3-1l0.41,0.54a4.08,4.08,0,0,1-2.75,1.15c-2.23,0-3.92-1.66-3.92-4.52S194,78.18,196.08,78.18Z"/><path class="cls-4" d="M200.63,75.61a0.72,0.72,0,1,1,.72.7A0.69,0.69,0,0,1,200.63,75.61Zm0.31,2.79h0.79V87h-0.79V78.4Z"/><path class="cls-4" d="M205.85,87.8V91h-0.79V78.4h0.68l0.07,1.08h0.05a5.05,5.05,0,0,1,2.93-1.3c2.3,0,3.46,1.73,3.46,4.41,0,2.93-1.78,4.66-3.82,4.66a4.57,4.57,0,0,1-2.59-1.06v1.6Zm2.56-1.24c1.75,0,3-1.62,3-4,0-2.12-.76-3.71-2.74-3.71a4.58,4.58,0,0,0-2.83,1.42v5.13A4.24,4.24,0,0,0,208.41,86.56Z"/><path class="cls-4" d="M214.85,74.1h0.79V86c0,0.38.16,0.56,0.38,0.56a1.41,1.41,0,0,0,.32,0l0.14,0.65a1.68,1.68,0,0,1-.58.09c-0.7,0-1.06-.43-1.06-1.37V74.1Z"/><path class="cls-4" d="M218.81,75.61a0.72,0.72,0,1,1,.72.7A0.69,0.69,0,0,1,218.81,75.61Zm0.31,2.79h0.79V87h-0.79V78.4Z"/><path class="cls-4" d="M223.24,78.4h0.68L224,79.73h0.05a4.22,4.22,0,0,1,3-1.55c1.78,0,2.61,1.08,2.61,3.31V87h-0.79V81.61c0-1.84-.58-2.7-2-2.7-1,0-1.76.54-2.83,1.62V87h-0.79V78.4Z"/><path class="cls-4" d="M235.86,78.18c2.05,0,3.31,1.46,3.31,4a3.9,3.9,0,0,1,0,.65h-6.23c0,2.18,1.31,3.75,3.26,3.75a3.83,3.83,0,0,0,2.32-.77l0.32,0.61a4.81,4.81,0,0,1-2.72.85c-2.21,0-4-1.69-4-4.52S233.93,78.18,235.86,78.18Zm2.56,4c0-2.21-1-3.35-2.54-3.35s-2.79,1.28-3,3.35h5.51Z"/><path class="cls-4" d="M153.05,106.5a4.67,4.67,0,0,0,3.49,1.6c1.8,0,3-1,3-2.38s-1-2-2.14-2.48l-1.8-.81c-1-.45-2.39-1.19-2.39-3s1.48-2.92,3.44-2.92A4.51,4.51,0,0,1,159.91,98l-0.49.56a3.76,3.76,0,0,0-2.83-1.22c-1.57,0-2.61.83-2.61,2.12s1.19,1.89,2.05,2.29l1.8,0.79c1.31,0.59,2.48,1.33,2.48,3.15s-1.49,3.19-3.8,3.19a5.23,5.23,0,0,1-4-1.78Z"/><path class="cls-4" d="M165.71,99.78c2.05,0,3.31,1.46,3.31,4a3.9,3.9,0,0,1,0,.65h-6.23c0,2.18,1.31,3.75,3.26,3.75a3.83,3.83,0,0,0,2.32-.77l0.32,0.61a4.82,4.82,0,0,1-2.72.85c-2.21,0-4-1.69-4-4.52S163.78,99.78,165.71,99.78Zm2.56,4c0-2.21-1-3.35-2.54-3.35s-2.79,1.28-3,3.35h5.51Z"/><path class="cls-4" d="M171.36,100H172l0.07,1.6h0.05a3,3,0,0,1,2.45-1.82,1.78,1.78,0,0,1,.86.18l-0.18.72a1.89,1.89,0,0,0-.79-0.14c-0.77,0-1.69.59-2.36,2.21v5.89h-0.79V100Z"/><path class="cls-4" d="M176.11,100H177l1.94,5.42c0.27,0.83.59,1.69,0.87,2.48h0.07c0.29-.79.59-1.66,0.88-2.48l1.94-5.42h0.81l-3.21,8.64h-0.94Z"/><path class="cls-4" d="M185.05,97.21a0.72,0.72,0,1,1,.72.7A0.69,0.69,0,0,1,185.05,97.21Zm0.31,2.79h0.79v8.64h-0.79V100Z"/><path class="cls-4" d="M192.71,99.78a3.55,3.55,0,0,1,2.54,1.06l-0.47.56a3,3,0,0,0-2.05-.92c-1.76,0-3.13,1.57-3.13,3.85s1.24,3.82,3.13,3.82a3.47,3.47,0,0,0,2.3-1l0.41,0.54a4.08,4.08,0,0,1-2.75,1.15c-2.23,0-3.92-1.66-3.92-4.52S190.6,99.78,192.71,99.78Z"/><path class="cls-4" d="M200.3,99.78c2.05,0,3.31,1.46,3.31,4a3.9,3.9,0,0,1,0,.65h-6.23c0,2.18,1.31,3.75,3.26,3.75a3.83,3.83,0,0,0,2.32-.77l0.32,0.61a4.82,4.82,0,0,1-2.72.85c-2.21,0-4-1.69-4-4.52S198.37,99.78,200.3,99.78Zm2.56,4c0-2.21-1-3.35-2.54-3.35s-2.79,1.28-3,3.35h5.51Z"/><path class="cls-4" d="M209.57,96.78h2.74c3.65,0,5.4,2.3,5.4,5.89s-1.75,6-5.38,6h-2.75V96.78Zm2.65,11.16c3.22,0,4.63-2.18,4.63-5.28s-1.4-5.19-4.63-5.19H210.4v10.46h1.82Z"/><path class="cls-4" d="M223.36,99.78c2.05,0,3.31,1.46,3.31,4a3.9,3.9,0,0,1,0,.65H220.4c0,2.18,1.31,3.75,3.26,3.75a3.83,3.83,0,0,0,2.32-.77l0.32,0.61a4.82,4.82,0,0,1-2.72.85c-2.21,0-4-1.69-4-4.52S221.43,99.78,223.36,99.78Zm2.56,4c0-2.21-1-3.35-2.54-3.35s-2.79,1.28-3,3.35h5.51Z"/><path class="cls-4" d="M228.4,107.08a4,4,0,0,0,2.75,1.1,1.79,1.79,0,0,0,2.05-1.71c0-1.08-1.12-1.55-2.11-1.91-1.31-.47-2.75-1-2.75-2.47,0-1.26,1-2.3,2.79-2.3a4,4,0,0,1,2.47.9l-0.43.56a3.27,3.27,0,0,0-2.07-.77,1.68,1.68,0,0,0-1.94,1.57c0,1,1,1.37,2,1.75,1.35,0.5,2.83,1,2.83,2.65,0,1.3-1,2.43-2.92,2.43a5,5,0,0,1-3.17-1.19Z"/><path class="cls-4" d="M236,97.21a0.72,0.72,0,1,1,.72.7A0.69,0.69,0,0,1,236,97.21ZM236.3,100h0.79v8.64H236.3V100Z"/><path class="cls-4" d="M241,108.32v-0.07a1.54,1.54,0,0,1-.76-1.39,2,2,0,0,1,.94-1.58V105.2a3.23,3.23,0,0,1-1.08-2.38,3,3,0,0,1,3-3,3.09,3.09,0,0,1,1.13.22h2.94v0.67h-2a2.88,2.88,0,0,1,1,2.18,3,3,0,0,1-3,3,3,3,0,0,1-1.44-.36,1.55,1.55,0,0,0-.7,1.24c0,0.63.36,1.13,1.66,1.13h1.85c1.94,0,2.84.61,2.84,2s-1.6,2.92-4.09,2.92c-2.18,0-3.55-.94-3.55-2.39A2.73,2.73,0,0,1,241,108.32Zm2.36,3.84c1.94,0,3.19-1.1,3.19-2.18s-0.7-1.31-2-1.31h-1.85a5.36,5.36,0,0,1-1.08-.14,2.26,2.26,0,0,0-1.13,1.82C240.46,111.42,241.5,112.15,243.34,112.15Zm2-9.33a2.25,2.25,0,1,0-4.48,0A2.25,2.25,0,1,0,245.35,102.83Z"/><path class="cls-4" d="M249.19,100h0.68l0.07,1.33H250a4.22,4.22,0,0,1,3-1.55c1.78,0,2.61,1.08,2.61,3.31v5.55h-0.79v-5.44c0-1.84-.58-2.7-2-2.7-1,0-1.76.54-2.83,1.62v6.52h-0.79V100Z"/><path class="cls-4" d="M245.14,263h3.24c2.65,0,4.21.86,4.21,3.31s-1.58,3.46-4.21,3.46H246v5.1h-0.83V263Zm3,6.07c2.43,0,3.58-.81,3.58-2.75s-1.17-2.61-3.58-2.61H246V269h2.2Z"/><path class="cls-4" d="M255,266.2h0.68l0.07,1.6h0.05a3,3,0,0,1,2.45-1.82,1.78,1.78,0,0,1,.86.18l-0.18.72a1.89,1.89,0,0,0-.79-0.14c-0.77,0-1.69.59-2.36,2.21v5.89H255V266.2Z"/><path class="cls-4" d="M263.7,266c2.09,0,3.89,1.66,3.89,4.56s-1.8,4.52-3.89,4.52-3.87-1.66-3.87-4.52S261.63,266,263.7,266Zm0,8.37c1.75,0,3.06-1.55,3.06-3.82s-1.31-3.85-3.06-3.85-3,1.57-3,3.85S262,274.36,263.7,274.36Z"/><path class="cls-4" d="M273.3,266a4,4,0,0,1,2.61,1.06l0-1.58V261.9h0.79v12.95H276l-0.07-1.12h-0.05a4,4,0,0,1-2.81,1.33c-2.18,0-3.58-1.6-3.58-4.52S271.25,266,273.3,266Zm-0.14,8.37a3.9,3.9,0,0,0,2.72-1.42V267.8a3.66,3.66,0,0,0-2.52-1.12c-1.73,0-3,1.67-3,3.85S271.32,274.36,273.15,274.36Z"/><path class="cls-4" d="M279.85,266.2h0.79v5.44c0,1.84.58,2.7,2,2.7,1,0,1.78-.54,2.79-1.76V266.2h0.79v8.64h-0.67l-0.09-1.44h0a3.86,3.86,0,0,1-2.93,1.66c-1.78,0-2.61-1.08-2.61-3.31V266.2Z"/><path class="cls-4" d="M292.72,266a3.55,3.55,0,0,1,2.54,1.06l-0.47.56a3,3,0,0,0-2.05-.92c-1.76,0-3.13,1.57-3.13,3.85s1.24,3.82,3.13,3.82a3.47,3.47,0,0,0,2.3-1l0.41,0.54a4.08,4.08,0,0,1-2.75,1.15c-2.23,0-3.92-1.66-3.92-4.52S290.61,266,292.72,266Z"/><path class="cls-4" d="M297.78,266.88h-1.35v-0.61l1.37-.07,0.11-2.5h0.68v2.5h2.5v0.68h-2.5v5.64c0,1.1.27,1.84,1.46,1.84a2.89,2.89,0,0,0,1.08-.27l0.22,0.65a4.85,4.85,0,0,1-1.4.32c-1.67,0-2.16-1.06-2.16-2.61v-5.56Z"/><path class="cls-4" d="M306.42,272.7a4.68,4.68,0,0,0,3.49,1.6c1.8,0,3-1,3-2.38s-1-2-2.14-2.48l-1.8-.81c-1-.45-2.39-1.19-2.39-3s1.48-2.92,3.44-2.92a4.51,4.51,0,0,1,3.31,1.42l-0.49.56a3.76,3.76,0,0,0-2.83-1.22c-1.57,0-2.61.83-2.61,2.12s1.19,1.89,2.05,2.29l1.8,0.79c1.31,0.59,2.48,1.33,2.48,3.15s-1.49,3.19-3.8,3.19a5.23,5.23,0,0,1-4-1.78Z"/><path class="cls-4" d="M319.07,266c2.05,0,3.31,1.46,3.31,4a3.9,3.9,0,0,1,0,.65h-6.23c0,2.18,1.31,3.75,3.26,3.75a3.83,3.83,0,0,0,2.32-.77l0.32,0.61a4.82,4.82,0,0,1-2.72.85c-2.21,0-4-1.69-4-4.52S317.14,266,319.07,266Zm2.56,4c0-2.21-1-3.35-2.54-3.35s-2.79,1.28-3,3.35h5.51Z"/><path class="cls-4" d="M324.72,266.2h0.68l0.07,1.6h0.05A3,3,0,0,1,328,266a1.78,1.78,0,0,1,.86.18l-0.18.72a1.89,1.89,0,0,0-.79-0.14c-0.77,0-1.69.59-2.36,2.21v5.89h-0.79V266.2Z"/><path class="cls-4" d="M329.47,266.2h0.86l1.94,5.42c0.27,0.83.59,1.69,0.87,2.48h0.07c0.29-.79.59-1.66,0.88-2.48L336,266.2h0.81l-3.21,8.64h-0.94Z"/><path class="cls-4" d="M338.42,263.41a0.72,0.72,0,1,1,.72.7A0.69,0.69,0,0,1,338.42,263.41Zm0.31,2.79h0.79v8.64h-0.79V266.2Z"/><path class="cls-4" d="M346.07,266a3.55,3.55,0,0,1,2.54,1.06l-0.47.56a3,3,0,0,0-2.05-.92c-1.76,0-3.13,1.57-3.13,3.85s1.24,3.82,3.13,3.82a3.47,3.47,0,0,0,2.3-1l0.41,0.54a4.08,4.08,0,0,1-2.75,1.15c-2.23,0-3.92-1.66-3.92-4.52S344,266,346.07,266Z"/><path class="cls-4" d="M353.67,266c2.05,0,3.31,1.46,3.31,4a3.9,3.9,0,0,1,0,.65h-6.23c0,2.18,1.31,3.75,3.26,3.75a3.83,3.83,0,0,0,2.32-.77l0.32,0.61a4.82,4.82,0,0,1-2.72.85c-2.21,0-4-1.69-4-4.52S351.74,266,353.67,266Zm2.56,4c0-2.21-1-3.35-2.54-3.35s-2.79,1.28-3,3.35h5.51Z"/><path class="cls-4" d="M248.88,294.3a4.68,4.68,0,0,0,3.49,1.6c1.8,0,3-1,3-2.38s-1-2-2.14-2.48l-1.8-.81c-1-.45-2.39-1.19-2.39-3s1.48-2.92,3.44-2.92a4.51,4.51,0,0,1,3.31,1.42l-0.49.56a3.76,3.76,0,0,0-2.83-1.22c-1.57,0-2.61.83-2.61,2.12s1.19,1.89,2.05,2.29l1.8,0.79c1.31,0.59,2.48,1.33,2.48,3.15s-1.49,3.19-3.8,3.19a5.23,5.23,0,0,1-4-1.78Z"/><path class="cls-4" d="M258.15,299.65c1.06,0,1.78-1,2.21-2.29l0.23-.76-3.55-8.8h0.86l2.09,5.44c0.27,0.72.61,1.66,0.94,2.41H261c0.27-.76.56-1.69,0.79-2.41l1.85-5.44h0.81L261,297.52c-0.49,1.44-1.35,2.86-2.9,2.86a2.2,2.2,0,0,1-.88-0.18l0.18-.7A2,2,0,0,0,258.15,299.65Z"/><path class="cls-4" d="M265.73,294.88a4,4,0,0,0,2.75,1.1,1.79,1.79,0,0,0,2.05-1.71c0-1.08-1.12-1.55-2.11-1.91-1.31-.47-2.75-1-2.75-2.47,0-1.26,1-2.3,2.79-2.3a4,4,0,0,1,2.47.9l-0.43.56a3.27,3.27,0,0,0-2.07-.77,1.68,1.68,0,0,0-1.94,1.57c0,1,1,1.37,2,1.75,1.35,0.5,2.83,1,2.83,2.65,0,1.3-1,2.43-2.92,2.43a5,5,0,0,1-3.17-1.19Z"/><path class="cls-4" d="M273.83,288.48h-1.35v-0.61l1.37-.07,0.11-2.5h0.68v2.5h2.5v0.68h-2.5v5.64c0,1.1.27,1.84,1.46,1.84a2.89,2.89,0,0,0,1.08-.27l0.22,0.65a4.83,4.83,0,0,1-1.4.32c-1.67,0-2.16-1.06-2.16-2.61v-5.56Z"/><path class="cls-4" d="M282.11,287.59c2.05,0,3.31,1.46,3.31,4a3.9,3.9,0,0,1,0,.65h-6.23c0,2.18,1.31,3.75,3.26,3.75a3.83,3.83,0,0,0,2.32-.77l0.32,0.61a4.81,4.81,0,0,1-2.72.85c-2.21,0-4-1.69-4-4.52S280.18,287.59,282.11,287.59Zm2.56,4c0-2.21-1-3.35-2.54-3.35s-2.79,1.28-3,3.35h5.51Z"/><path class="cls-4" d="M287.76,287.8h0.68l0.07,1.33h0.05a4,4,0,0,1,2.72-1.55,2.25,2.25,0,0,1,2.39,1.76,4.34,4.34,0,0,1,2.93-1.76c1.73,0,2.59,1.08,2.59,3.31v5.55H298.4V291c0-1.84-.61-2.7-1.93-2.7a3.77,3.77,0,0,0-2.59,1.62v6.52h-0.79V291c0-1.84-.61-2.7-1.94-2.7a3.84,3.84,0,0,0-2.59,1.62v6.52h-0.79V287.8Z"/><path class="cls-4" d="M306,284.58h2.74c3.65,0,5.4,2.3,5.4,5.89s-1.75,6-5.38,6H306V284.58Zm2.65,11.16c3.22,0,4.63-2.18,4.63-5.28s-1.4-5.19-4.63-5.19h-1.82v10.46h1.82Z"/><path class="cls-4" d="M319.78,287.59c2.05,0,3.31,1.46,3.31,4a3.9,3.9,0,0,1,0,.65h-6.23c0,2.18,1.31,3.75,3.26,3.75a3.83,3.83,0,0,0,2.32-.77l0.32,0.61a4.81,4.81,0,0,1-2.72.85c-2.21,0-4-1.69-4-4.52S317.86,287.59,319.78,287.59Zm2.56,4c0-2.21-1-3.35-2.54-3.35s-2.79,1.28-3,3.35h5.51Z"/><path class="cls-4" d="M324.82,294.88a4,4,0,0,0,2.75,1.1,1.79,1.79,0,0,0,2.05-1.71c0-1.08-1.12-1.55-2.11-1.91-1.31-.47-2.75-1-2.75-2.47,0-1.26,1-2.3,2.79-2.3a4,4,0,0,1,2.47.9l-0.43.56a3.27,3.27,0,0,0-2.07-.77,1.68,1.68,0,0,0-1.94,1.57c0,1,1,1.37,2,1.75,1.35,0.5,2.83,1,2.83,2.65,0,1.3-1,2.43-2.92,2.43a5,5,0,0,1-3.17-1.19Z"/><path class="cls-4" d="M332.42,285a0.72,0.72,0,1,1,.72.7A0.69,0.69,0,0,1,332.42,285Zm0.31,2.79h0.79v8.64h-0.79V287.8Z"/><path class="cls-4" d="M337.4,296.12V296a1.54,1.54,0,0,1-.76-1.39,2,2,0,0,1,.94-1.58V293a3.23,3.23,0,0,1-1.08-2.38,3,3,0,0,1,3-3,3.09,3.09,0,0,1,1.13.22h2.94v0.67h-2a2.88,2.88,0,0,1,1,2.18,3,3,0,0,1-3,3,3,3,0,0,1-1.44-.36,1.56,1.56,0,0,0-.7,1.24c0,0.63.36,1.13,1.66,1.13h1.85c1.94,0,2.84.61,2.84,2s-1.6,2.92-4.09,2.92c-2.18,0-3.55-.94-3.55-2.39A2.73,2.73,0,0,1,337.4,296.12Zm2.36,3.84c1.94,0,3.19-1.1,3.19-2.18s-0.7-1.31-2-1.31H339.1a5.36,5.36,0,0,1-1.08-.14,2.26,2.26,0,0,0-1.13,1.82C336.88,299.22,337.93,300,339.76,300Zm2-9.33a2.25,2.25,0,1,0-4.48,0A2.25,2.25,0,1,0,341.78,290.63Z"/><path class="cls-4" d="M345.61,287.8h0.68l0.07,1.33h0.05a4.22,4.22,0,0,1,3-1.55c1.78,0,2.61,1.08,2.61,3.31v5.55h-0.79V291c0-1.84-.58-2.7-2-2.7-1,0-1.76.54-2.83,1.62v6.52h-0.79V287.8Z"/><path class="cls-4" d="M373.28,82.41h-4.7l-1.39,4.07h-0.85l4.2-11.87h0.83l4.18,11.87h-0.88Zm-0.23-.7-0.76-2.21c-0.47-1.4-.9-2.65-1.31-4.1H370.9c-0.41,1.46-.83,2.7-1.31,4.1l-0.76,2.21H373Z"/><path class="cls-4" d="M378.07,87.24v3.15h-0.79V77.84H378L378,78.92h0.05a5.05,5.05,0,0,1,2.93-1.3c2.3,0,3.46,1.73,3.46,4.41,0,2.93-1.78,4.66-3.82,4.66a4.57,4.57,0,0,1-2.59-1.06v1.6ZM380.62,86c1.75,0,3-1.62,3-4,0-2.12-.76-3.71-2.74-3.71a4.57,4.57,0,0,0-2.83,1.42v5.13A4.23,4.23,0,0,0,380.62,86Z"/><path class="cls-4" d="M387.86,87.24v3.15h-0.79V77.84h0.68l0.07,1.08h0.05a5.05,5.05,0,0,1,2.93-1.3c2.3,0,3.46,1.73,3.46,4.41,0,2.93-1.78,4.66-3.82,4.66a4.57,4.57,0,0,1-2.59-1.06v1.6ZM390.42,86c1.75,0,3-1.62,3-4,0-2.12-.76-3.71-2.74-3.71a4.58,4.58,0,0,0-2.83,1.42v5.13A4.24,4.24,0,0,0,390.42,86Z"/><path class="cls-4" d="M396.86,77.84h0.68l0.07,1.6h0.05a3,3,0,0,1,2.45-1.82,1.78,1.78,0,0,1,.86.18l-0.18.72a1.89,1.89,0,0,0-.79-0.14c-0.77,0-1.69.59-2.36,2.21v5.89h-0.79V77.84Z"/><path class="cls-4" d="M405.54,77.62c2.09,0,3.89,1.66,3.89,4.56s-1.8,4.52-3.89,4.52-3.87-1.66-3.87-4.52S403.47,77.62,405.54,77.62Zm0,8.37c1.75,0,3.06-1.55,3.06-3.82s-1.31-3.85-3.06-3.85-3,1.57-3,3.85S403.79,86,405.54,86Z"/><path class="cls-4" d="M416.84,81.06c0-1.31-.34-2.74-2-2.74a4.77,4.77,0,0,0-2.75,1l-0.36-.59a5.77,5.77,0,0,1,3.21-1.12c2.05,0,2.74,1.48,2.74,3.33v5.53H417l-0.09-1.12h0a5.13,5.13,0,0,1-3.06,1.33,2.28,2.28,0,0,1-2.52-2.38C411.26,82.41,413,81.5,416.84,81.06Zm-2.93,5a4.53,4.53,0,0,0,2.93-1.4V81.67c-3.55.41-4.75,1.24-4.75,2.61A1.62,1.62,0,0,0,413.91,86Z"/><path class="cls-4" d="M424,77.62a3.54,3.54,0,0,1,2.54,1.06l-0.47.56a3,3,0,0,0-2.05-.92c-1.76,0-3.13,1.57-3.13,3.85S422.08,86,424,86a3.48,3.48,0,0,0,2.3-1l0.41,0.54a4.08,4.08,0,0,1-2.75,1.15C421.7,86.7,420,85,420,82.18S421.84,77.62,424,77.62Z"/><path class="cls-4" d="M428.81,73.54h0.79v5.65a4.24,4.24,0,0,1,3-1.57c1.78,0,2.61,1.08,2.61,3.31v5.55h-0.79V81c0-1.84-.58-2.7-2-2.7-1,0-1.76.54-2.83,1.62v6.52h-0.79V73.54Z"/><path class="cls-4" d="M345.09,96.22h2.74c3.65,0,5.4,2.3,5.4,5.89s-1.75,6-5.38,6h-2.75V96.22Zm2.65,11.16c3.22,0,4.63-2.18,4.63-5.28s-1.4-5.19-4.63-5.19h-1.82v10.46h1.82Z"/><path class="cls-4" d="M358.88,99.22c2.05,0,3.31,1.46,3.31,4a3.9,3.9,0,0,1,0,.65h-6.23c0,2.18,1.31,3.75,3.26,3.75a3.83,3.83,0,0,0,2.32-.77l0.32,0.61a4.82,4.82,0,0,1-2.72.85c-2.21,0-4-1.69-4-4.52S357,99.22,358.88,99.22Zm2.56,4c0-2.21-1-3.35-2.54-3.35s-2.79,1.28-3,3.35h5.51Z"/><path class="cls-4" d="M363.92,106.52a4,4,0,0,0,2.75,1.1,1.79,1.79,0,0,0,2.05-1.71c0-1.08-1.12-1.55-2.11-1.91-1.31-.47-2.75-1-2.75-2.47,0-1.26,1-2.3,2.79-2.3a4,4,0,0,1,2.47.9l-0.43.56a3.27,3.27,0,0,0-2.07-.77,1.68,1.68,0,0,0-1.94,1.57c0,1,1,1.37,2,1.75,1.35,0.5,2.83,1,2.83,2.65,0,1.3-1,2.43-2.92,2.43a5,5,0,0,1-3.17-1.19Z"/><path class="cls-4" d="M371.52,96.65a0.72,0.72,0,1,1,.72.7A0.69,0.69,0,0,1,371.52,96.65Zm0.31,2.79h0.79v8.64h-0.79V99.44Z"/><path class="cls-4" d="M376.5,107.76v-0.07a1.54,1.54,0,0,1-.76-1.39,2,2,0,0,1,.94-1.58v-0.07a3.23,3.23,0,0,1-1.08-2.38,3,3,0,0,1,3-3,3.09,3.09,0,0,1,1.13.22h2.94v0.67h-2a2.88,2.88,0,0,1,1,2.18,3,3,0,0,1-3,3,3,3,0,0,1-1.44-.36,1.55,1.55,0,0,0-.7,1.24c0,0.63.36,1.13,1.66,1.13H380c1.94,0,2.84.61,2.84,2s-1.6,2.92-4.09,2.92c-2.18,0-3.55-.94-3.55-2.39A2.73,2.73,0,0,1,376.5,107.76Zm2.36,3.84c1.94,0,3.19-1.1,3.19-2.18s-0.7-1.31-2-1.31H378.2a5.36,5.36,0,0,1-1.08-.14,2.26,2.26,0,0,0-1.13,1.82C376,110.86,377,111.59,378.86,111.59Zm2-9.33a2.25,2.25,0,1,0-4.48,0A2.25,2.25,0,1,0,380.88,102.27Z"/><path class="cls-4" d="M384.71,99.44h0.68l0.07,1.33h0.05a4.22,4.22,0,0,1,3-1.55c1.78,0,2.61,1.08,2.61,3.31v5.55h-0.79v-5.44c0-1.84-.58-2.7-2-2.7-1,0-1.76.54-2.83,1.62v6.52h-0.79V99.44Z"/><path class="cls-4" d="M400.46,96.94h-3.78V96.22h8.37v0.72h-3.76v11.15h-0.83V96.94Z"/><path class="cls-4" d="M407.17,95.14H408v5.65a4.24,4.24,0,0,1,3-1.57c1.78,0,2.61,1.08,2.61,3.31v5.55h-0.79v-5.44c0-1.84-.58-2.7-2-2.7-1,0-1.76.54-2.83,1.62v6.52h-0.79V95.14Z"/><path class="cls-4" d="M416.37,96.65a0.72,0.72,0,1,1,.72.7A0.69,0.69,0,0,1,416.37,96.65Zm0.31,2.79h0.79v8.64h-0.79V99.44Z"/><path class="cls-4" d="M420.8,99.44h0.68l0.07,1.33h0.05a4.22,4.22,0,0,1,3-1.55c1.78,0,2.61,1.08,2.61,3.31v5.55H426.4v-5.44c0-1.84-.58-2.7-2-2.7-1,0-1.76.54-2.83,1.62v6.52H420.8V99.44Z"/><path class="cls-4" d="M430.38,95.14h0.79v9.54h0l4.27-5.24h0.92l-2.81,3.42,3.28,5.22H436l-2.86-4.63-1.95,2.27v2.36h-0.79V95.14Z"/><path class="cls-4" d="M438.42,96.65a0.72,0.72,0,1,1,.72.7A0.69,0.69,0,0,1,438.42,96.65Zm0.31,2.79h0.79v8.64h-0.79V99.44Z"/><path class="cls-4" d="M442.85,99.44h0.68l0.07,1.33h0.05a4.22,4.22,0,0,1,3-1.55c1.78,0,2.61,1.08,2.61,3.31v5.55h-0.79v-5.44c0-1.84-.58-2.7-2-2.7-1,0-1.76.54-2.83,1.62v6.52h-0.79V99.44Z"/><path class="cls-4" d="M453,107.76v-0.07a1.54,1.54,0,0,1-.76-1.39,2,2,0,0,1,.94-1.58v-0.07a3.23,3.23,0,0,1-1.08-2.38,3,3,0,0,1,3-3,3.09,3.09,0,0,1,1.13.22h2.94v0.67h-2a2.88,2.88,0,0,1,1,2.18,3,3,0,0,1-3,3,3,3,0,0,1-1.44-.36,1.55,1.55,0,0,0-.7,1.24c0,0.63.36,1.13,1.66,1.13h1.85c1.94,0,2.84.61,2.84,2s-1.6,2.92-4.09,2.92c-2.18,0-3.55-.94-3.55-2.39A2.73,2.73,0,0,1,453,107.76Zm2.36,3.84c1.94,0,3.19-1.1,3.19-2.18s-0.7-1.31-2-1.31h-1.85a5.36,5.36,0,0,1-1.08-.14,2.26,2.26,0,0,0-1.13,1.82C452.46,110.86,453.51,111.59,455.34,111.59Zm2-9.33a2.25,2.25,0,1,0-4.48,0A2.25,2.25,0,1,0,457.36,102.27Z"/><circle class="cls-5" cx="375.64" cy="145.8" r="108.76"/><circle class="cls-5" cx="224.36" cy="150.18" r="108.76"/><circle class="cls-5" cx="300.45" cy="229.2" r="108.76"/></svg>