<svg id="Layer_1" data-name="Layer 1" xmlns="http://www.w3.org/2000/svg" viewBox="0 0 600 375"><defs><style>.cls-1{fill:none;stroke:#5c9ad2;stroke-miterlimit:10;stroke-width:1.8px;}.cls-2{fill:#231f20;}.cls-3{fill:#000100;}</style></defs><title>thesis_final_website</title><circle class="cls-1" cx="287.82" cy="172.78" r="83.71"/><path class="cls-2" d="M219.15,177.59a4.68,4.68,0,0,0,3.49,1.6c1.8,0,3-1,3-2.38s-1-2-2.14-2.49l-1.8-.81c-1-.45-2.39-1.19-2.39-3s1.48-2.92,3.44-2.92a4.51,4.51,0,0,1,3.31,1.42l-0.49.56a3.76,3.76,0,0,0-2.83-1.22c-1.57,0-2.61.83-2.61,2.12s1.19,1.89,2.05,2.29l1.8,0.79c1.31,0.59,2.48,1.33,2.48,3.15s-1.49,3.19-3.8,3.19a5.23,5.23,0,0,1-4-1.78Z"/><path class="cls-2" d="M231.8,170.88c2.05,0,3.31,1.46,3.31,4a3.89,3.89,0,0,1,0,.65h-6.23c0,2.18,1.31,3.75,3.26,3.75a3.83,3.83,0,0,0,2.32-.77l0.32,0.61A4.82,4.82,0,0,1,232,180c-2.21,0-4-1.69-4-4.52S229.88,170.88,231.8,170.88Zm2.56,4c0-2.21-1-3.35-2.54-3.35s-2.79,1.28-3,3.35h5.51Z"/><path class="cls-2" d="M237.45,171.09h0.68l0.07,1.6h0.05a3,3,0,0,1,2.45-1.82,1.77,1.77,0,0,1,.86.18l-0.18.72a1.89,1.89,0,0,0-.79-0.14c-0.77,0-1.69.59-2.36,2.21v5.89h-0.79v-8.64Z"/><path class="cls-2" d="M242.2,171.09h0.86l1.95,5.42c0.27,0.83.59,1.69,0.86,2.49h0.07c0.29-.79.59-1.66,0.88-2.49l1.94-5.42h0.81l-3.21,8.64h-0.94Z"/><path class="cls-2" d="M251.15,168.3a0.72,0.72,0,1,1,.72.7A0.69,0.69,0,0,1,251.15,168.3Zm0.31,2.79h0.79v8.64h-0.79v-8.64Z"/><path class="cls-2" d="M258.8,170.88a3.55,3.55,0,0,1,2.54,1.06l-0.47.56a3,3,0,0,0-2.05-.92c-1.76,0-3.13,1.57-3.13,3.85s1.24,3.82,3.13,3.82a3.48,3.48,0,0,0,2.3-1l0.41,0.54a4.08,4.08,0,0,1-2.75,1.15c-2.23,0-3.92-1.66-3.92-4.52S256.69,170.88,258.8,170.88Z"/><path class="cls-2" d="M266.4,170.88c2.05,0,3.31,1.46,3.31,4a3.89,3.89,0,0,1,0,.65h-6.23c0,2.18,1.31,3.75,3.26,3.75a3.83,3.83,0,0,0,2.32-.77l0.32,0.61a4.82,4.82,0,0,1-2.72.85c-2.21,0-4-1.69-4-4.52S264.47,170.88,266.4,170.88Zm2.56,4c0-2.21-1-3.35-2.54-3.35s-2.79,1.28-3,3.35H269Z"/><path class="cls-2" d="M279.63,167h0.68l-5.47,15.67h-0.7Z"/><path class="cls-2" d="M285.67,167.87h6.48v0.72H286.5v4.48h4.75v0.72H286.5V179h5.83v0.72h-6.66V167.87Z"/><path class="cls-2" d="M296.29,175.22l-2.7-4.12h0.88l1.4,2.2c0.29,0.47.59,1,.92,1.42h0.07c0.31-.47.58-1,0.88-1.42l1.35-2.2h0.83l-2.68,4.2,2.93,4.45H299.3l-1.53-2.36c-0.32-.54-0.67-1.08-1-1.58h-0.07c-0.34.5-.65,1-1,1.58l-1.48,2.36h-0.85Z"/><path class="cls-2" d="M302.88,180.49v3.15h-0.79V171.09h0.68l0.07,1.08h0.05a5.06,5.06,0,0,1,2.93-1.3c2.3,0,3.46,1.73,3.46,4.41,0,2.93-1.78,4.66-3.82,4.66a4.57,4.57,0,0,1-2.59-1.06v1.6Zm2.56-1.24c1.75,0,3-1.62,3-4,0-2.12-.76-3.71-2.74-3.71a4.58,4.58,0,0,0-2.83,1.42v5.13A4.24,4.24,0,0,0,305.44,179.25Z"/><path class="cls-2" d="M314.92,170.88c2.05,0,3.31,1.46,3.31,4a3.89,3.89,0,0,1,0,.65H312c0,2.18,1.31,3.75,3.26,3.75a3.83,3.83,0,0,0,2.32-.77l0.32,0.61a4.82,4.82,0,0,1-2.72.85c-2.21,0-4-1.69-4-4.52S313,170.88,314.92,170.88Zm2.56,4c0-2.21-1-3.35-2.54-3.35s-2.79,1.28-3,3.35h5.51Z"/><path class="cls-2" d="M320.57,171.09h0.68l0.07,1.6h0.05a3,3,0,0,1,2.45-1.82,1.77,1.77,0,0,1,.86.18l-0.18.72a1.89,1.89,0,0,0-.79-0.14c-0.77,0-1.69.59-2.36,2.21v5.89h-0.79v-8.64Z"/><path class="cls-2" d="M326,168.3a0.72,0.72,0,1,1,.72.7A0.69,0.69,0,0,1,326,168.3Zm0.31,2.79h0.79v8.64h-0.79v-8.64Z"/><path class="cls-2" d="M333.45,170.88c2.05,0,3.31,1.46,3.31,4a3.89,3.89,0,0,1,0,.65h-6.23c0,2.18,1.31,3.75,3.26,3.75a3.83,3.83,0,0,0,2.32-.77l0.32,0.61a4.82,4.82,0,0,1-2.72.85c-2.21,0-4-1.69-4-4.52S331.52,170.88,333.45,170.88Zm2.56,4c0-2.21-1-3.35-2.54-3.35s-2.79,1.28-3,3.35H336Z"/><path class="cls-2" d="M339.1,171.09h0.68l0.07,1.33h0.05a4.22,4.22,0,0,1,3-1.55c1.78,0,2.61,1.08,2.61,3.31v5.55H344.7V174.3c0-1.84-.58-2.7-2-2.7-1,0-1.76.54-2.83,1.62v6.52H339.1v-8.64Z"/><path class="cls-2" d="M351.9,170.88a3.55,3.55,0,0,1,2.54,1.06l-0.47.56a3,3,0,0,0-2.05-.92c-1.76,0-3.13,1.57-3.13,3.85s1.24,3.82,3.13,3.82a3.48,3.48,0,0,0,2.3-1l0.41,0.54a4.08,4.08,0,0,1-2.75,1.15c-2.23,0-3.92-1.66-3.92-4.52S349.79,170.88,351.9,170.88Z"/><path class="cls-2" d="M359.49,170.88c2.05,0,3.31,1.46,3.31,4a3.89,3.89,0,0,1,0,.65h-6.23c0,2.18,1.31,3.75,3.26,3.75a3.83,3.83,0,0,0,2.32-.77l0.32,0.61a4.82,4.82,0,0,1-2.72.85c-2.21,0-4-1.69-4-4.52S357.57,170.88,359.49,170.88Zm2.56,4c0-2.21-1-3.35-2.54-3.35s-2.79,1.28-3,3.35H362Z"/><path class="cls-2" d="M256.32,40.53h3.21c2.38,0,3.91.9,3.91,2.88A2.56,2.56,0,0,1,261.32,46v0.07c1.75,0.25,2.84,1.22,2.84,2.86,0,2.29-1.73,3.46-4.41,3.46h-3.44V40.53Zm2.86,5.22c2.45,0,3.42-.79,3.42-2.36s-1.13-2.18-3.31-2.18h-2.14v4.54h2Zm0.36,6c2.36,0,3.8-.86,3.8-2.77,0-1.69-1.39-2.52-3.8-2.52h-2.39v5.29h2.39Z"/><path class="cls-2" d="M266.56,43.76h0.68l0.07,1.6h0.05a3,3,0,0,1,2.45-1.82,1.77,1.77,0,0,1,.86.18l-0.18.72a1.89,1.89,0,0,0-.79-0.14c-0.77,0-1.69.59-2.36,2.21V52.4h-0.79V43.76Z"/><path class="cls-2" d="M276.95,47c0-1.31-.34-2.74-2-2.74a4.77,4.77,0,0,0-2.75,1l-0.36-.59A5.77,5.77,0,0,1,275,43.54c2.05,0,2.74,1.48,2.74,3.33V52.4h-0.67L277,51.28h0a5.13,5.13,0,0,1-3.06,1.33,2.28,2.28,0,0,1-2.52-2.38C271.36,48.33,273.11,47.41,276.95,47Zm-2.93,5a4.53,4.53,0,0,0,2.93-1.4V47.59c-3.55.41-4.75,1.24-4.75,2.61A1.62,1.62,0,0,0,274,51.93Z"/><path class="cls-2" d="M280.83,43.76h0.68l0.07,1.33h0.05a4.22,4.22,0,0,1,3-1.55c1.78,0,2.61,1.08,2.61,3.31V52.4h-0.79V47c0-1.84-.58-2.7-2-2.7-1,0-1.76.54-2.83,1.62V52.4h-0.79V43.76Z"/><path class="cls-2" d="M293.52,43.54a4,4,0,0,1,2.61,1.06l0-1.58V39.45h0.79V52.4h-0.68l-0.07-1.12h-0.05a4,4,0,0,1-2.81,1.33c-2.18,0-3.58-1.6-3.58-4.52S291.47,43.54,293.52,43.54Zm-0.14,8.37a3.9,3.9,0,0,0,2.72-1.42V45.36a3.65,3.65,0,0,0-2.52-1.12c-1.73,0-3,1.67-3,3.85S291.54,51.91,293.38,51.91Z"/><path class="cls-2" d="M299.9,41a0.72,0.72,0,1,1,.72.7A0.69,0.69,0,0,1,299.9,41Zm0.31,2.79H301V52.4H300.2V43.76Z"/><path class="cls-2" d="M304.32,43.76H305l0.07,1.33h0.05a4.22,4.22,0,0,1,3-1.55c1.78,0,2.61,1.08,2.61,3.31V52.4h-0.79V47c0-1.84-.58-2.7-2-2.7-1,0-1.76.54-2.83,1.62V52.4h-0.79V43.76Z"/><path class="cls-2" d="M314.46,52.08V52a1.54,1.54,0,0,1-.76-1.39,2,2,0,0,1,.94-1.58V49a3.23,3.23,0,0,1-1.08-2.38,3,3,0,0,1,3-3,3.08,3.08,0,0,1,1.13.22h2.94v0.67h-2a2.88,2.88,0,0,1,1,2.18,3,3,0,0,1-3,3,3,3,0,0,1-1.44-.36,1.55,1.55,0,0,0-.7,1.24c0,0.63.36,1.13,1.66,1.13H318c1.94,0,2.84.61,2.84,2s-1.6,2.92-4.09,2.92c-2.18,0-3.55-.94-3.55-2.39A2.73,2.73,0,0,1,314.46,52.08Zm2.36,3.83c1.94,0,3.19-1.1,3.19-2.18s-0.7-1.31-2-1.31h-1.85a5.39,5.39,0,0,1-1.08-.14,2.26,2.26,0,0,0-1.13,1.82C313.94,55.17,315,55.91,316.82,55.91Zm2-9.33a2.25,2.25,0,1,0-4.48,0A2.25,2.25,0,1,0,318.83,46.58Z"/><path class="cls-3" d="M261.56,59.78h1l-0.13,4.63c-0.05.9-.06,1.82-0.13,2.73h0.05c0.4-.91.82-1.83,1.19-2.73l2.1-4.63h0.91l0.12,4.63c0,0.89,0,1.81,0,2.73h0.05c0.35-.92.72-1.83,1.06-2.73l1.82-4.63h1l-3.46,8.42h-1.27l-0.09-5.15c0-.62,0-1.31,0-2H265.8c-0.24.67-.54,1.31-0.82,2l-2.3,5.15h-1.25Z"/><path class="cls-3" d="M270.33,65.85c0-2.36,1.66-4,3.36-4a2.22,2.22,0,0,1,2.23,2.5c0,2.36-1.67,4-3.37,4A2.21,2.21,0,0,1,270.33,65.85Zm1-.06c0,1.13.48,1.75,1.33,1.75,1.16,0,2.27-1.41,2.27-3.16,0-1.13-.47-1.76-1.33-1.76C272.45,62.62,271.32,64,271.32,65.79Z"/><path class="cls-3" d="M278.66,59.06h1l-1.6,8a1.06,1.06,0,0,0,0,.24,0.21,0.21,0,0,0,.22.23,0.53,0.53,0,0,0,.21,0v0.76a1.61,1.61,0,0,1-.62.1,0.74,0.74,0,0,1-.83-0.81,2.42,2.42,0,0,1,.08-0.54Z"/><path class="cls-3" d="M285.1,60.92c0.26-1.26.94-2,2-2a2.36,2.36,0,0,1,1.12.29l-0.36.72a1.09,1.09,0,0,0-1.75,1L285.87,62h1.27l-0.17.8h-1.26l-1.09,5.44h-1l1.09-5.44h-2.48l-1.1,5.44h-1l1.09-5.44h-0.81L280.6,62l0.83-.06,0.18-.91a2.15,2.15,0,0,1,2.05-2,2.55,2.55,0,0,1,1.19.3l-0.35.72a1.48,1.48,0,0,0-.77-0.22A1.23,1.23,0,0,0,282.6,61l-0.19.94h2.49Z"/><path class="cls-3" d="M289.94,64.82c0-2.57,1.68-5.2,4.09-5.2,1.89,0,2.91,1.4,2.91,3.52,0,2.58-1.68,5.21-4.09,5.21C291,68.35,289.94,67,289.94,64.82Zm1-.08c0,1.64.6,2.75,2,2.75,1.81,0,3-2.3,3-4.26,0-1.66-.62-2.75-2-2.75C292.17,60.49,291,62.77,291,64.75Z"/><path class="cls-3" d="M299.51,59.06h1l-1.6,8a1.06,1.06,0,0,0,0,.24,0.21,0.21,0,0,0,.22.23,0.53,0.53,0,0,0,.21,0v0.76a1.61,1.61,0,0,1-.62.1,0.74,0.74,0,0,1-.83-0.81,2.42,2.42,0,0,1,.08-0.54Z"/><path class="cls-3" d="M302.12,62h1l-1.26,6.24h-1Zm0.21-1.87a0.74,0.74,0,0,1,.74-0.74,0.59,0.59,0,0,1,.63.59,0.73,0.73,0,0,1-.74.73A0.58,0.58,0,0,1,302.32,60.09Z"/><path class="cls-3" d="M305.15,62H306l-0.09.94h0.05a3.49,3.49,0,0,1,2.18-1.09,1.34,1.34,0,0,1,1.48,1.55,3.55,3.55,0,0,1-.1.86l-0.79,4h-1l0.77-3.85a3.76,3.76,0,0,0,.1-0.73,0.83,0.83,0,0,0-.92-1,3,3,0,0,0-1.87,1.13l-0.89,4.42h-1Z"/><path class="cls-3" d="M310.82,66.68a2,2,0,0,0,1.6.91,1.22,1.22,0,0,0,1.32-1c0-.45-0.27-0.71-1.14-1.18s-1.42-1-1.42-1.71a2,2,0,0,1,2.14-1.86,2.5,2.5,0,0,1,1.83.83l-0.56.55a1.74,1.74,0,0,0-1.3-.62,1.09,1.09,0,0,0-1.18,1,1.55,1.55,0,0,0,1.1,1.1c1.12,0.62,1.46,1.09,1.46,1.77a2.06,2.06,0,0,1-2.34,1.92,2.73,2.73,0,0,1-2.14-1.18Z"/><path class="cls-3" d="M266.82,298.62h-3l-1.35,2.63h-1.1l4.57-8.42h1.15l1,8.42h-1Zm-0.08-.77-0.13-1.44c-0.08-.89-0.17-1.78-0.23-2.75h-0.05c-0.45,1-.87,1.82-1.35,2.75l-0.74,1.44h2.5Z"/><path class="cls-3" d="M272.57,294.86a2.06,2.06,0,0,1,1.62.76l-0.58.62a1.3,1.3,0,0,0-1.1-.56c-1.25,0-2.41,1.46-2.41,3.17,0,1.13.49,1.75,1.48,1.75A2.27,2.27,0,0,0,273,300l0.44,0.64a3.18,3.18,0,0,1-2,.73,2.24,2.24,0,0,1-2.3-2.5A3.81,3.81,0,0,1,272.57,294.86Z"/><path class="cls-3" d="M278,294.86a2.06,2.06,0,0,1,1.62.76l-0.58.62a1.3,1.3,0,0,0-1.1-.56c-1.25,0-2.41,1.46-2.41,3.17,0,1.13.49,1.75,1.48,1.75a2.27,2.27,0,0,0,1.39-.55l0.44,0.64a3.18,3.18,0,0,1-2,.73,2.24,2.24,0,0,1-2.3-2.5A3.81,3.81,0,0,1,278,294.86Z"/><path class="cls-3" d="M283.21,294.86c1.4,0,1.92,1,1.92,2.26a4.07,4.07,0,0,1-.22,1.22h-4.05c-0.23,1.6.6,2.28,1.69,2.28a2.49,2.49,0,0,0,1.4-.54l0.38,0.65a3.5,3.5,0,0,1-2,.67,2.34,2.34,0,0,1-2.45-2.6A3.71,3.71,0,0,1,283.21,294.86Zm1,2.81a3.34,3.34,0,0,0,.06-0.64,1.2,1.2,0,0,0-1.21-1.39,2.44,2.44,0,0,0-2.13,2h3.27Z"/><path class="cls-3" d="M287.2,295H288l-0.09.94H288a3.49,3.49,0,0,1,2.18-1.09,1.34,1.34,0,0,1,1.48,1.55,3.55,3.55,0,0,1-.1.86l-0.79,4h-1l0.77-3.85a3.76,3.76,0,0,0,.1-0.73,0.83,0.83,0,0,0-.92-1,3,3,0,0,0-1.87,1.13l-0.89,4.42h-1Z"/><path class="cls-3" d="M294,295.81h-0.91l0.14-.73,1-.06,0.46-1.72h0.83L295.14,295h1.58l-0.15.8H295l-0.73,3.57a2.72,2.72,0,0,0,0,.46,0.67,0.67,0,0,0,.79.77,1.56,1.56,0,0,0,.66-0.19l0.22,0.71a2.84,2.84,0,0,1-1.18.28,1.29,1.29,0,0,1-1.49-1.39,5.82,5.82,0,0,1,.06-0.69Z"/><path class="cls-3" d="M301.46,301.25h-0.81l0.1-1H300.7a3.51,3.51,0,0,1-2.16,1.1,1.34,1.34,0,0,1-1.48-1.55,3.48,3.48,0,0,1,.1-0.86l0.8-4h1l-0.78,3.85a3.74,3.74,0,0,0-.1.73,0.83,0.83,0,0,0,.92,1,2.93,2.93,0,0,0,1.85-1.13l0.89-4.42h1Z"/><path class="cls-3" d="M304.75,295h0.81l-0.14,1.19h0.05a2.53,2.53,0,0,1,1.94-1.35,1.42,1.42,0,0,1,.59.12l-0.35.87a1.22,1.22,0,0,0-.54-0.1,2.42,2.42,0,0,0-1.83,1.57l-0.78,3.94h-1Z"/><path class="cls-3" d="M311.2,294.86c1.4,0,1.92,1,1.92,2.26a4.07,4.07,0,0,1-.22,1.22h-4.05c-0.23,1.6.6,2.28,1.69,2.28a2.49,2.49,0,0,0,1.4-.54l0.38,0.65a3.5,3.5,0,0,1-2,.67,2.34,2.34,0,0,1-2.45-2.6A3.71,3.71,0,0,1,311.2,294.86Zm1,2.81a3.34,3.34,0,0,0,.06-0.64,1.2,1.2,0,0,0-1.21-1.39,2.44,2.44,0,0,0-2.13,2h3.27Z"/><path class="cls-3" d="M265.71,308.23h1.19l0.73,4.54,0.28,1.75H268l0.9-1.75,2.5-4.54h1.19l-1.68,8.42h-1l1-4.75c0.15-.76.4-1.75,0.6-2.48h-0.05l-1,1.87L268,315.76h-0.56l-0.78-4.47-0.28-1.87h-0.05c-0.1.76-.22,1.72-0.36,2.48l-1,4.75H264Z"/><path class="cls-3" d="M276.58,310.25a2.06,2.06,0,0,1,1.62.76l-0.58.62a1.3,1.3,0,0,0-1.1-.56c-1.25,0-2.41,1.46-2.41,3.17,0,1.13.49,1.75,1.48,1.75a2.28,2.28,0,0,0,1.39-.55l0.44,0.64a3.18,3.18,0,0,1-2,.73,2.24,2.24,0,0,1-2.3-2.5A3.81,3.81,0,0,1,276.58,310.25Z"/><path class="cls-3" d="M280.34,308.23h1l-0.83,4.16h0l4.22-4.16h1.13l-3.16,3.23,1.91,5.18h-1L282,312.1l-1.76,1.72-0.58,2.82h-1Z"/><path class="cls-3" d="M287,310.41h1l-1.26,6.24h-1Zm0.21-1.87a0.75,0.75,0,0,1,.74-0.74,0.59,0.59,0,0,1,.63.59,0.73,0.73,0,0,1-.74.73A0.58,0.58,0,0,1,287.23,308.53Z"/><path class="cls-3" d="M290,310.41h0.81l-0.09.94h0.05a3.49,3.49,0,0,1,2.18-1.09,1.34,1.34,0,0,1,1.48,1.55,3.55,3.55,0,0,1-.1.86l-0.79,4h-1l0.77-3.85a3.76,3.76,0,0,0,.1-0.73,0.83,0.83,0,0,0-.92-1,3,3,0,0,0-1.87,1.13l-0.89,4.41h-1Z"/><path class="cls-3" d="M295.72,315.13a2,2,0,0,0,1.6.91,1.22,1.22,0,0,0,1.32-1c0-.45-0.27-0.71-1.14-1.18s-1.42-1-1.42-1.71a2,2,0,0,1,2.14-1.86,2.5,2.5,0,0,1,1.83.83l-0.56.55a1.74,1.74,0,0,0-1.3-.62,1.09,1.09,0,0,0-1.18,1,1.55,1.55,0,0,0,1.1,1.1c1.12,0.62,1.46,1.09,1.46,1.77a2.06,2.06,0,0,1-2.34,1.92,2.73,2.73,0,0,1-2.14-1.18Z"/><path class="cls-3" d="M304.13,310.25c1.4,0,1.92,1,1.92,2.26a4.06,4.06,0,0,1-.22,1.22h-4.05c-0.23,1.6.6,2.28,1.69,2.28a2.49,2.49,0,0,0,1.4-.54l0.38,0.66a3.5,3.5,0,0,1-2,.67,2.34,2.34,0,0,1-2.45-2.61A3.71,3.71,0,0,1,304.13,310.25Zm1,2.81a3.32,3.32,0,0,0,.06-0.64A1.2,1.2,0,0,0,304,311a2.44,2.44,0,0,0-2.13,2h3.27Z"/><path class="cls-3" d="M306.29,318.53a2.11,2.11,0,0,0,1.63-1.42l0.23-.45-1.06-6.25h1l0.49,3.5c0.09,0.56.15,1.27,0.21,1.86h0.05c0.3-.59.62-1.27,0.92-1.86l1.8-3.5h1l-3.67,6.76c-0.65,1.22-1.41,2.16-2.61,2.16a1.69,1.69,0,0,1-.72-0.18l0.32-.73A1,1,0,0,0,306.29,318.53Z"/><path class="cls-3" d="M279.22,323.63h2.25c1.62,0,2.61.64,2.61,1.86a2.26,2.26,0,0,1-1.87,2.1v0.05a1.75,1.75,0,0,1,1.55,1.71c0,1.87-1.5,2.69-3.5,2.69h-2.69Zm0.92,7.64c1.6,0,2.62-.55,2.62-1.86,0-.85-0.68-1.42-1.92-1.42h-1.49l-0.67,3.29h1.46Zm0.55-4c1.6,0,2.36-.67,2.36-1.62,0-.77-0.56-1.22-1.83-1.22h-1.17l-0.56,2.84h1.21Z"/><path class="cls-3" d="M289.65,323.47a2.32,2.32,0,0,1,2.07,1.25l-0.69.53a1.65,1.65,0,0,0-1.42-.91c-2,0-3.27,2.33-3.27,4.38,0,1.53.63,2.63,2.14,2.63a2.72,2.72,0,0,0,1.78-.76l0.45,0.64a3.59,3.59,0,0,1-2.41,1c-1.92,0-3-1.39-3-3.4C285.3,326.15,287,323.47,289.65,323.47Z"/><path class="cls-3" d="M296.21,323.47a2.37,2.37,0,0,1,2.12,1.25l-0.71.53a1.65,1.65,0,0,0-1.46-.91c-2.12,0-3.4,2.33-3.4,4.38,0,1.5.62,2.64,2.23,2.64a2.2,2.2,0,0,0,1.44-.51l0.48-2.32h-1.75l0.17-.82H298l-0.73,3.64a3.68,3.68,0,0,1-2.39.86c-2,0-3.12-1.35-3.12-3.4C291.73,326.13,293.45,323.47,296.21,323.47Z"/><path class="cls-3" d="M469,197.81h4.65l-0.17.83h-3.66l-0.58,2.93h3.09l-0.17.85h-3.08l-0.77,3.81h-1Z"/><path class="cls-3" d="M474.15,207c-0.24,1.19-.77,2-1.85,2a1.88,1.88,0,0,1-1-.24l0.32-.73a1,1,0,0,0,.59.17c0.47,0,.74-0.44.91-1.18l1.42-7h1Zm0.64-8.89a0.74,0.74,0,0,1,.75-0.74,0.59,0.59,0,0,1,.62.59,0.73,0.73,0,0,1-.74.73A0.58,0.58,0,0,1,474.8,198.12Z"/><path class="cls-3" d="M476.49,203.88c0-2.36,1.66-4,3.36-4a2.22,2.22,0,0,1,2.23,2.5c0,2.36-1.67,4-3.37,4A2.21,2.21,0,0,1,476.49,203.88Zm1-.06c0,1.13.48,1.75,1.33,1.75,1.16,0,2.27-1.41,2.27-3.16,0-1.13-.47-1.76-1.33-1.76C478.61,200.64,477.48,202.07,477.48,203.81Z"/><path class="cls-3" d="M484.23,200H485l-0.14,1.19h0.05a2.53,2.53,0,0,1,1.94-1.35,1.42,1.42,0,0,1,.59.12l-0.35.87a1.22,1.22,0,0,0-.54-0.1,2.42,2.42,0,0,0-1.83,1.57L484,206.23h-1Z"/><path class="cls-3" d="M492.45,199.53l0.49-2.44h1l-1.85,9.14h-0.81l0.1-.92h-0.05a3.11,3.11,0,0,1-2.17,1.08c-1.09,0-1.8-.79-1.8-2.26,0-2.4,1.64-4.29,3.38-4.29a1.65,1.65,0,0,1,1.48.91h0Zm-1,4.84,0.56-2.78a1.47,1.47,0,0,0-1.27-.92c-1.25,0-2.4,1.59-2.4,3.31,0,1.08.45,1.59,1.14,1.59A2.59,2.59,0,0,0,491.48,204.36Z"/><path class="cls-3" d="M465.47,213.21h1l1.92,5.39,0.54,1.76H469c0.1-.83.21-1.81,0.38-2.68l0.89-4.47h1l-1.68,8.42h-1l-1.9-5.38-0.55-1.81H466c-0.1.87-.23,1.81-0.4,2.66l-0.9,4.53h-1Z"/><path class="cls-3" d="M475.16,215.23a1.67,1.67,0,0,1,1.5.94h0.05l0.24-.78h0.8l-1.25,6.24h-0.81l0.1-.92h-0.05a3.11,3.11,0,0,1-2.17,1.08c-1.09,0-1.8-.8-1.8-2.26C471.78,217.12,473.42,215.23,475.16,215.23Zm0.75,4.53,0.56-2.79a1.47,1.47,0,0,0-1.27-.92c-1.25,0-2.4,1.59-2.4,3.31,0,1.08.45,1.59,1.14,1.59A2.57,2.57,0,0,0,475.9,219.76Z"/><path class="cls-3" d="M479.85,216.18h-0.91l0.14-.73,1-.06,0.46-1.72h0.83L481,215.39h1.58l-0.15.8h-1.6l-0.73,3.57a2.71,2.71,0,0,0,0,.46,0.67,0.67,0,0,0,.79.77,1.56,1.56,0,0,0,.66-0.19l0.22,0.71a2.86,2.86,0,0,1-1.18.28,1.29,1.29,0,0,1-1.49-1.39,5.86,5.86,0,0,1,.06-0.69Z"/><path class="cls-3" d="M484,215.39h1l-1.26,6.24h-1Zm0.21-1.87a0.75,0.75,0,0,1,.74-0.74,0.59,0.59,0,0,1,.63.59,0.73,0.73,0,0,1-.74.73A0.58,0.58,0,0,1,484.19,213.51Z"/><path class="cls-3" d="M486.14,215.39h1l0.46,3.61c0.06,0.6.12,1.26,0.18,1.86h0.05c0.29-.62.6-1.25,0.92-1.86l1.83-3.61h1l-3.32,6.24h-1.18Z"/><path class="cls-3" d="M494.89,215.23c1.4,0,1.92,1,1.92,2.26a4.06,4.06,0,0,1-.22,1.22h-4.05c-0.23,1.6.6,2.28,1.69,2.28a2.49,2.49,0,0,0,1.4-.54l0.38,0.66a3.5,3.5,0,0,1-2,.67,2.34,2.34,0,0,1-2.45-2.61A3.71,3.71,0,0,1,494.89,215.23Zm1,2.81a3.32,3.32,0,0,0,.06-0.64,1.2,1.2,0,0,0-1.21-1.39,2.44,2.44,0,0,0-2.13,2h3.27Z"/><path class="cls-3" d="M459,228.6h1l-1.51,7.57h3.54l-0.17.85h-4.54Z"/><path class="cls-3" d="M464.47,230.79h1L464.2,237h-1Zm0.21-1.87a0.75,0.75,0,0,1,.74-0.74,0.59,0.59,0,0,1,.63.59,0.73,0.73,0,0,1-.74.73A0.58,0.58,0,0,1,464.68,228.91Z"/><path class="cls-3" d="M466.63,230.79h1l0.46,3.61c0.06,0.6.12,1.26,0.18,1.86h0.05c0.29-.62.6-1.25,0.92-1.86l1.83-3.61h1L468.72,237h-1.18Z"/><path class="cls-3" d="M475.38,230.63c1.4,0,1.92,1,1.92,2.26a4.06,4.06,0,0,1-.22,1.22H473c-0.23,1.6.6,2.28,1.69,2.28a2.49,2.49,0,0,0,1.4-.54l0.38,0.66a3.5,3.5,0,0,1-2,.67,2.34,2.34,0,0,1-2.45-2.61A3.71,3.71,0,0,1,475.38,230.63Zm1,2.81a3.32,3.32,0,0,0,.06-0.64,1.2,1.2,0,0,0-1.21-1.39,2.44,2.44,0,0,0-2.13,2h3.27Z"/><path class="cls-3" d="M478.46,230.79h1l0.21,3.67,0,1.75h0.05c0.26-.58.47-1.15,0.74-1.75l1.64-3.67h1l0.22,3.67c0,0.59,0,1.17.06,1.75h0.05c0.24-.58.45-1.15,0.72-1.75l1.63-3.67h0.92L483.85,237h-1.22l-0.18-3.41c0-.59,0-1.22,0-1.83h-0.05c-0.26.62-.5,1.24-0.76,1.83L480.09,237h-1.18Z"/><path class="cls-3" d="M487.08,234.67c0-2.36,1.66-4,3.36-4a2.22,2.22,0,0,1,2.23,2.5c0,2.36-1.67,4-3.37,4A2.21,2.21,0,0,1,487.08,234.67Zm1-.06c0,1.13.48,1.75,1.33,1.75,1.16,0,2.27-1.41,2.27-3.16,0-1.13-.47-1.76-1.33-1.76C489.2,231.44,488.07,232.86,488.07,234.61Z"/><path class="cls-3" d="M494.82,230.79h0.81L495.49,232h0.05a2.53,2.53,0,0,1,1.94-1.35,1.44,1.44,0,0,1,.59.12l-0.35.87a1.22,1.22,0,0,0-.54-0.1,2.42,2.42,0,0,0-1.83,1.57L494.56,237h-1Z"/><path class="cls-3" d="M499.8,227.88h1l-1.23,6.2h0l3.2-3.3h1.13l-2.49,2.6,1.5,3.63h-1l-1.19-3-1.44,1.46L499,237h-1Z"/><path class="cls-3" d="M128.84,208.59h-3l-1.35,2.63h-1.1l4.57-8.42h1.15l1,8.42h-1Zm-0.08-.77-0.13-1.44c-0.08-.89-0.17-1.78-0.23-2.75h-0.05c-0.45,1-.87,1.82-1.35,2.75l-0.74,1.44h2.5Z"/><path class="cls-3" d="M132.77,202.81h1L132.94,207h0l4.22-4.16h1.13L135.17,206l1.91,5.18h-1l-1.62-4.54-1.76,1.72-0.58,2.82h-1Z"/><path class="cls-3" d="M144.19,213.16a2.65,2.65,0,0,1-.83.14,2.8,2.8,0,0,1-2.94-2c-1.42-.32-2.18-1.62-2.18-3.45,0-2.57,1.68-5.2,4.09-5.2,1.89,0,2.91,1.4,2.91,3.52,0,2.48-1.55,5-3.8,5.2a2,2,0,0,0,2,1.1,3.1,3.1,0,0,0,.71-0.09Zm-3-2.64c1.81,0,3-2.3,3-4.26,0-1.66-.62-2.75-2-2.75-1.81,0-3,2.28-3,4.26C139.25,209.42,139.85,210.52,141.2,210.52Z"/><path class="cls-3" d="M150.33,208.59h-3L146,211.23h-1.1l4.57-8.42h1.15l1,8.42h-1Zm-0.08-.77-0.13-1.44c-0.08-.89-0.17-1.78-0.23-2.75h-0.05c-0.45,1-.87,1.82-1.35,2.75l-0.74,1.44h2.5Z"/><path class="cls-3" d="M129.77,218.21c1.57,0,2.63.55,2.63,2a2.79,2.79,0,0,1-2.48,2.8l1.48,3.66h-1.07l-1.39-3.57h-1.46l-0.71,3.57h-1l1.68-8.42h2.31Zm-0.85,4c1.6,0,2.49-.76,2.49-2,0-.92-0.66-1.3-1.89-1.3h-1.23l-0.64,3.25h1.27Z"/><path class="cls-3" d="M137.09,217.51h0.72l-5.58,11.17h-0.71Z"/><path class="cls-3" d="M142,218.05a2.37,2.37,0,0,1,2.12,1.25l-0.71.53a1.65,1.65,0,0,0-1.46-.91c-2.12,0-3.4,2.33-3.4,4.38,0,1.5.62,2.64,2.23,2.64a2.2,2.2,0,0,0,1.44-.51l0.48-2.32H141l0.17-.82h2.64L143,225.92a3.68,3.68,0,0,1-2.39.86c-2,0-3.12-1.35-3.12-3.4C137.54,220.71,139.26,218.05,142,218.05Z"/><path class="cls-3" d="M149.1,224h-3l-1.35,2.63h-1.1l4.57-8.42h1.15l1,8.42h-1Zm-0.08-.77-0.13-1.44c-0.08-.88-0.17-1.78-0.23-2.75h-0.05c-0.45,1-.87,1.82-1.35,2.75l-0.74,1.44H149Z"/><path class="cls-2" d="M114.55,175.31h-4.7l-1.39,4.07h-0.85l4.2-11.87h0.83l4.18,11.87h-0.88Zm-0.23-.7-0.76-2.21c-0.47-1.4-.9-2.65-1.31-4.11h-0.07c-0.41,1.46-.83,2.7-1.31,4.11l-0.76,2.21h4.21Z"/><path class="cls-2" d="M121.66,170.52a4,4,0,0,1,2.61,1.06l0-1.58v-3.57H125v12.95h-0.68l-0.07-1.12h-0.05a4,4,0,0,1-2.81,1.33c-2.18,0-3.58-1.6-3.58-4.52S119.6,170.52,121.66,170.52Zm-0.14,8.37a3.9,3.9,0,0,0,2.72-1.42v-5.13a3.65,3.65,0,0,0-2.52-1.12c-1.73,0-3,1.67-3,3.85S119.68,178.89,121.51,178.89Z"/><path class="cls-2" d="M126.89,170.73h0.86l1.94,5.42c0.27,0.83.59,1.69,0.87,2.49h0.07c0.29-.79.59-1.66,0.88-2.49l1.94-5.42h0.81l-3.21,8.64h-0.94Z"/><path class="cls-2" d="M139.19,170.52c2.05,0,3.31,1.46,3.31,4a3.89,3.89,0,0,1,0,.65h-6.23c0,2.18,1.31,3.75,3.26,3.75a3.83,3.83,0,0,0,2.32-.77l0.32,0.61a4.82,4.82,0,0,1-2.72.85c-2.21,0-4-1.69-4-4.52S137.26,170.52,139.19,170.52Zm2.56,4c0-2.21-1-3.35-2.54-3.35s-2.79,1.28-3,3.35h5.51Z"/><path class="cls-2" d="M144.84,170.73h0.68l0.07,1.6h0.05a3,3,0,0,1,2.45-1.82,1.77,1.77,0,0,1,.86.18l-0.18.72a1.89,1.89,0,0,0-.79-0.14c-0.77,0-1.69.59-2.36,2.21v5.89h-0.79v-8.64Z"/><path class="cls-2" d="M150.74,171.42h-1.35V170.8l1.37-.07,0.11-2.5h0.68v2.5h2.5v0.68h-2.5v5.64c0,1.1.27,1.84,1.46,1.84a2.88,2.88,0,0,0,1.08-.27l0.22,0.65a4.85,4.85,0,0,1-1.4.32c-1.67,0-2.16-1.06-2.16-2.61v-5.56Z"/><path class="cls-2" d="M155.86,167.94a0.72,0.72,0,1,1,.72.7A0.69,0.69,0,0,1,155.86,167.94Zm0.31,2.79H157v8.64h-0.79v-8.64Z"/><path class="cls-2" d="M159.67,177.81a4,4,0,0,0,2.75,1.1,1.79,1.79,0,0,0,2.05-1.71c0-1.08-1.12-1.55-2.11-1.91-1.31-.47-2.75-1-2.75-2.47,0-1.26,1-2.3,2.79-2.3a4,4,0,0,1,2.47.9l-0.43.56a3.27,3.27,0,0,0-2.07-.77,1.68,1.68,0,0,0-1.94,1.57c0,1,1,1.37,2,1.75,1.35,0.5,2.83,1,2.83,2.65,0,1.3-1,2.43-2.92,2.43a5,5,0,0,1-3.17-1.19Z"/><path class="cls-2" d="M167.27,167.94a0.72,0.72,0,1,1,.72.7A0.69,0.69,0,0,1,167.27,167.94Zm0.31,2.79h0.79v8.64h-0.79v-8.64Z"/><path class="cls-2" d="M171.69,170.73h0.68l0.07,1.33h0.05a4.22,4.22,0,0,1,3-1.55c1.78,0,2.61,1.08,2.61,3.31v5.55h-0.79v-5.44c0-1.84-.58-2.7-2-2.7-1,0-1.76.54-2.83,1.62v6.52h-0.79v-8.64Z"/><path class="cls-2" d="M181.83,179.05V179a1.54,1.54,0,0,1-.76-1.39A2,2,0,0,1,182,176v-0.07a3.23,3.23,0,0,1-1.08-2.38,3,3,0,0,1,3-3,3.08,3.08,0,0,1,1.13.22H188v0.67h-2a2.88,2.88,0,0,1,1,2.18,3,3,0,0,1-3,3,3,3,0,0,1-1.44-.36,1.55,1.55,0,0,0-.7,1.24c0,0.63.36,1.13,1.66,1.13h1.85c1.94,0,2.84.61,2.84,2s-1.6,2.92-4.09,2.92c-2.18,0-3.55-.94-3.55-2.39A2.73,2.73,0,0,1,181.83,179.05Zm2.36,3.83c1.94,0,3.19-1.1,3.19-2.18s-0.7-1.31-2-1.31h-1.85a5.39,5.39,0,0,1-1.08-.14,2.26,2.26,0,0,0-1.13,1.82C181.31,182.15,182.35,182.89,184.19,182.89Zm2-9.33a2.25,2.25,0,1,0-4.48,0A2.25,2.25,0,1,0,186.2,173.56Z"/><path class="cls-2" d="M252.56,270.28a4,4,0,0,1,3.08,1.42l-0.49.54a3.42,3.42,0,0,0-2.59-1.21c-2.59,0-4.21,2.07-4.21,5.37s1.6,5.42,4.14,5.42a3.8,3.8,0,0,0,3-1.46l0.49,0.52a4.41,4.41,0,0,1-3.53,1.69c-2.92,0-5-2.39-5-6.18S249.53,270.28,252.56,270.28Z"/><path class="cls-2" d="M261.39,273.51c2.09,0,3.89,1.66,3.89,4.56s-1.8,4.52-3.89,4.52-3.87-1.66-3.87-4.52S259.32,273.51,261.39,273.51Zm0,8.37c1.75,0,3.06-1.55,3.06-3.82s-1.31-3.85-3.06-3.85-3,1.57-3,3.85S259.65,281.88,261.39,281.88Z"/><path class="cls-2" d="M267.87,273.72h0.68l0.07,1.33h0.05a4.22,4.22,0,0,1,3-1.55c1.78,0,2.61,1.08,2.61,3.31v5.55h-0.79v-5.44c0-1.84-.58-2.7-2-2.7-1,0-1.76.54-2.83,1.62v6.52h-0.79v-8.64Z"/><path class="cls-2" d="M276.84,280.8a4,4,0,0,0,2.75,1.1,1.79,1.79,0,0,0,2.05-1.71c0-1.08-1.12-1.55-2.11-1.91-1.31-.47-2.75-1-2.75-2.47,0-1.26,1-2.3,2.79-2.3a4,4,0,0,1,2.47.9l-0.43.56a3.27,3.27,0,0,0-2.07-.77,1.68,1.68,0,0,0-1.94,1.57c0,1,1,1.37,2,1.75,1.35,0.5,2.83,1,2.83,2.65,0,1.3-1,2.43-2.92,2.43a5,5,0,0,1-3.17-1.19Z"/><path class="cls-2" d="M284.61,273.72h0.79v5.44c0,1.84.58,2.7,2,2.7,1,0,1.78-.54,2.79-1.76v-6.37H291v8.64h-0.67l-0.09-1.44h0a3.86,3.86,0,0,1-2.93,1.66c-1.78,0-2.61-1.08-2.61-3.31v-5.54Z"/><path class="cls-2" d="M294.26,269.42h0.79v11.9c0,0.38.16,0.56,0.38,0.56a1.4,1.4,0,0,0,.32,0l0.14,0.65a1.69,1.69,0,0,1-.58.09c-0.7,0-1.06-.43-1.06-1.37V269.42Z"/><path class="cls-2" d="M298.72,274.41h-1.35v-0.61l1.37-.07,0.11-2.5h0.68v2.5H302v0.68h-2.5V280c0,1.1.27,1.84,1.46,1.84a2.88,2.88,0,0,0,1.08-.27l0.22,0.65a4.85,4.85,0,0,1-1.4.32c-1.67,0-2.16-1.06-2.16-2.61v-5.56Z"/><path class="cls-2" d="M303.84,270.93a0.72,0.72,0,1,1,.72.7A0.69,0.69,0,0,1,303.84,270.93Zm0.31,2.79h0.79v8.64h-0.79v-8.64Z"/><path class="cls-2" d="M308.26,273.72h0.68l0.07,1.33h0.05a4.22,4.22,0,0,1,3-1.55c1.78,0,2.61,1.08,2.61,3.31v5.55h-0.79v-5.44c0-1.84-.58-2.7-2-2.7-1,0-1.76.54-2.83,1.62v6.52h-0.79v-8.64Z"/><path class="cls-2" d="M318.4,282V282a1.54,1.54,0,0,1-.76-1.39,2,2,0,0,1,.94-1.58v-0.07a3.23,3.23,0,0,1-1.08-2.38,3,3,0,0,1,3-3,3.08,3.08,0,0,1,1.13.22h2.94v0.67h-2a2.88,2.88,0,0,1,1,2.18,3,3,0,0,1-3,3,3,3,0,0,1-1.44-.36,1.55,1.55,0,0,0-.7,1.24c0,0.63.36,1.13,1.66,1.13h1.85c1.94,0,2.84.61,2.84,2s-1.6,2.92-4.09,2.92c-2.18,0-3.55-.94-3.55-2.39A2.73,2.73,0,0,1,318.4,282Zm2.36,3.83c1.94,0,3.19-1.1,3.19-2.18s-0.7-1.31-2-1.31h-1.85a5.39,5.39,0,0,1-1.08-.14,2.26,2.26,0,0,0-1.13,1.82C317.88,285.14,318.92,285.88,320.76,285.88Zm2-9.33a2.25,2.25,0,1,0-4.48,0A2.25,2.25,0,1,0,322.77,276.55Z"/><path class="cls-2" d="M387.92,167.87h2.74c3.65,0,5.4,2.3,5.4,5.89s-1.75,6-5.38,6h-2.75V167.87ZM390.57,179c3.22,0,4.63-2.18,4.63-5.28s-1.4-5.19-4.63-5.19h-1.82V179h1.82Z"/><path class="cls-2" d="M398.36,168.3a0.72,0.72,0,1,1,.72.7A0.69,0.69,0,0,1,398.36,168.3Zm0.31,2.79h0.79v8.64h-0.79v-8.64Z"/><path class="cls-2" d="M403.35,179.41v-0.07a1.54,1.54,0,0,1-.76-1.39,2,2,0,0,1,.94-1.58V176.3a3.23,3.23,0,0,1-1.08-2.38,3,3,0,0,1,3-3,3.08,3.08,0,0,1,1.13.22h2.94v0.67h-2a2.88,2.88,0,0,1,1,2.18,3,3,0,0,1-3,3,3,3,0,0,1-1.44-.36,1.55,1.55,0,0,0-.7,1.24c0,0.63.36,1.13,1.66,1.13h1.85c1.94,0,2.84.61,2.84,2s-1.6,2.92-4.09,2.92c-2.18,0-3.55-.94-3.55-2.39A2.73,2.73,0,0,1,403.35,179.41Zm2.36,3.83c1.94,0,3.19-1.1,3.19-2.18s-0.7-1.31-2-1.31H405a5.39,5.39,0,0,1-1.08-.14,2.26,2.26,0,0,0-1.13,1.82C402.83,182.51,403.87,183.25,405.71,183.25Zm2-9.33a2.25,2.25,0,1,0-4.48,0A2.25,2.25,0,1,0,407.72,173.92Z"/><path class="cls-2" d="M411.25,168.3a0.72,0.72,0,1,1,.72.7A0.69,0.69,0,0,1,411.25,168.3Zm0.31,2.79h0.79v8.64h-0.79v-8.64Z"/><path class="cls-2" d="M415.88,171.78h-1.35v-0.61l1.37-.07,0.11-2.5h0.68v2.5h2.5v0.68h-2.5v5.64c0,1.1.27,1.84,1.46,1.84a2.88,2.88,0,0,0,1.08-.27l0.22,0.65a4.85,4.85,0,0,1-1.4.32c-1.67,0-2.16-1.06-2.16-2.61v-5.56Z"/><path class="cls-2" d="M426,174.32c0-1.31-.34-2.74-2-2.74a4.77,4.77,0,0,0-2.75,1l-0.36-.59a5.77,5.77,0,0,1,3.21-1.12c2.05,0,2.74,1.48,2.74,3.33v5.53h-0.67L426,178.62h0A5.13,5.13,0,0,1,423,180a2.28,2.28,0,0,1-2.52-2.38C420.43,175.67,422.18,174.75,426,174.32Zm-2.93,5a4.53,4.53,0,0,0,2.93-1.4v-2.93c-3.55.41-4.75,1.24-4.75,2.61A1.62,1.62,0,0,0,423.08,179.27Z"/><path class="cls-2" d="M429.9,166.79h0.79v11.9c0,0.38.16,0.56,0.38,0.56a1.4,1.4,0,0,0,.32,0l0.14,0.65a1.69,1.69,0,0,1-.58.09c-0.7,0-1.06-.43-1.06-1.37V166.79Z"/><path class="cls-2" d="M441.74,167h0.68L437,182.62h-0.7Z"/><path class="cls-2" d="M447.39,177.59a4.68,4.68,0,0,0,3.49,1.6c1.8,0,3-1,3-2.38s-1-2-2.14-2.49l-1.8-.81c-1-.45-2.39-1.19-2.39-3s1.48-2.92,3.44-2.92a4.51,4.51,0,0,1,3.31,1.42l-0.49.56a3.76,3.76,0,0,0-2.83-1.22c-1.57,0-2.61.83-2.61,2.12s1.19,1.89,2.05,2.29l1.8,0.79c1.31,0.59,2.48,1.33,2.48,3.15s-1.49,3.19-3.8,3.19a5.23,5.23,0,0,1-4-1.78Z"/><path class="cls-2" d="M460,170.88c2.05,0,3.31,1.46,3.31,4a3.89,3.89,0,0,1,0,.65h-6.23c0,2.18,1.31,3.75,3.26,3.75a3.83,3.83,0,0,0,2.32-.77l0.32,0.61a4.82,4.82,0,0,1-2.72.85c-2.21,0-4-1.69-4-4.52S458.12,170.88,460,170.88Zm2.56,4c0-2.21-1-3.35-2.54-3.35s-2.79,1.28-3,3.35h5.51Z"/><path class="cls-2" d="M465.7,171.09h0.68l0.07,1.6h0.05a3,3,0,0,1,2.45-1.82,1.77,1.77,0,0,1,.86.18l-0.18.72a1.89,1.89,0,0,0-.79-0.14c-0.77,0-1.69.59-2.36,2.21v5.89H465.7v-8.64Z"/><path class="cls-2" d="M470.45,171.09h0.86l1.94,5.42c0.27,0.83.59,1.69,0.87,2.49h0.07c0.29-.79.59-1.66,0.88-2.49l1.94-5.42h0.81l-3.21,8.64h-0.94Z"/><path class="cls-2" d="M479.4,168.3a0.72,0.72,0,1,1,.72.7A0.69,0.69,0,0,1,479.4,168.3Zm0.31,2.79h0.79v8.64H479.7v-8.64Z"/><path class="cls-2" d="M487,170.88a3.55,3.55,0,0,1,2.54,1.06l-0.47.56a3,3,0,0,0-2.05-.92c-1.76,0-3.13,1.57-3.13,3.85s1.24,3.82,3.13,3.82a3.48,3.48,0,0,0,2.3-1l0.41,0.54A4.08,4.08,0,0,1,487,180c-2.23,0-3.92-1.66-3.92-4.52S484.94,170.88,487,170.88Z"/><path class="cls-2" d="M494.64,170.88c2.05,0,3.31,1.46,3.31,4a3.89,3.89,0,0,1,0,.65h-6.23c0,2.18,1.31,3.75,3.26,3.75a3.83,3.83,0,0,0,2.32-.77l0.32,0.61a4.82,4.82,0,0,1-2.72.85c-2.21,0-4-1.69-4-4.52S492.72,170.88,494.64,170.88Zm2.56,4c0-2.21-1-3.35-2.54-3.35s-2.79,1.28-3,3.35h5.51Z"/><path class="cls-2" d="M507,170.88a4,4,0,0,1,2.61,1.06l0-1.58v-3.57h0.79v12.95h-0.68l-0.07-1.12h-0.05a4,4,0,0,1-2.81,1.33c-2.18,0-3.58-1.6-3.58-4.52S504.94,170.88,507,170.88Zm-0.14,8.37a3.9,3.9,0,0,0,2.72-1.42V172.7a3.66,3.66,0,0,0-2.52-1.12c-1.73,0-3,1.67-3,3.85S505,179.25,506.85,179.25Z"/><path class="cls-2" d="M516.71,170.88c2.05,0,3.31,1.46,3.31,4a3.89,3.89,0,0,1,0,.65h-6.23c0,2.18,1.31,3.75,3.26,3.75a3.83,3.83,0,0,0,2.32-.77l0.32,0.61a4.82,4.82,0,0,1-2.72.85c-2.21,0-4-1.69-4-4.52S514.78,170.88,516.71,170.88Zm2.56,4c0-2.21-1-3.35-2.54-3.35s-2.79,1.28-3,3.35h5.51Z"/><path class="cls-2" d="M521.75,178.17a4,4,0,0,0,2.75,1.1,1.79,1.79,0,0,0,2.05-1.71c0-1.08-1.12-1.55-2.11-1.91-1.31-.47-2.75-1-2.75-2.47,0-1.26,1-2.3,2.79-2.3a4,4,0,0,1,2.47.9l-0.43.56a3.27,3.27,0,0,0-2.07-.77,1.68,1.68,0,0,0-1.94,1.57c0,1,1,1.37,2,1.75,1.35,0.5,2.83,1,2.83,2.65,0,1.3-1,2.43-2.92,2.43a5,5,0,0,1-3.17-1.19Z"/><path class="cls-2" d="M529.34,168.3a0.72,0.72,0,1,1,.72.7A0.69,0.69,0,0,1,529.34,168.3Zm0.31,2.79h0.79v8.64h-0.79v-8.64Z"/><path class="cls-2" d="M534.33,179.41v-0.07a1.54,1.54,0,0,1-.76-1.39,2,2,0,0,1,.94-1.58V176.3a3.23,3.23,0,0,1-1.08-2.38,3,3,0,0,1,3-3,3.08,3.08,0,0,1,1.13.22h2.94v0.67h-2a2.88,2.88,0,0,1,1,2.18,3,3,0,0,1-3,3,3,3,0,0,1-1.44-.36,1.55,1.55,0,0,0-.7,1.24c0,0.63.36,1.13,1.66,1.13h1.85c1.94,0,2.84.61,2.84,2s-1.6,2.92-4.09,2.92c-2.18,0-3.55-.94-3.55-2.39A2.73,2.73,0,0,1,534.33,179.41Zm2.36,3.83c1.94,0,3.19-1.1,3.19-2.18s-0.7-1.31-2-1.31H536a5.39,5.39,0,0,1-1.08-.14,2.26,2.26,0,0,0-1.13,1.82C533.81,182.51,534.85,183.25,536.69,183.25Zm2-9.33a2.25,2.25,0,1,0-4.48,0A2.25,2.25,0,1,0,538.71,173.92Z"/><path class="cls-2" d="M542.54,171.09h0.68l0.07,1.33h0.05a4.22,4.22,0,0,1,3-1.55c1.78,0,2.61,1.08,2.61,3.31v5.55h-0.79V174.3c0-1.84-.58-2.7-2-2.7-1,0-1.76.54-2.83,1.62v6.52h-0.79v-8.64Z"/><path class="cls-2" d="M559.69,167h0.68l-5.47,15.67h-0.7Z"/><path class="cls-2" d="M565.69,167.87h0.83v7.22c0,3.15,1.49,4.11,3.17,4.11s3.22-1,3.22-4.11v-7.22h0.79v7.31c0,3.71-2,4.77-4,4.77s-4-1.06-4-4.77v-7.31Z"/><path class="cls-2" d="M579,173.6l-3.31-5.73h0.9l2,3.49c0.31,0.54.56,1,1,1.62h0.07c0.34-.65.58-1.08,0.88-1.62l1.94-3.49h0.85l-3.31,5.76,3.57,6.1h-0.9l-2.07-3.64c-0.32-.59-0.67-1.17-1.08-1.89h-0.07c-0.38.72-.7,1.3-1,1.89l-2.05,3.64h-0.85Z"/></svg>