<svg id="Layer_1" data-name="Layer 1" xmlns="http://www.w3.org/2000/svg" viewBox="0 0 600 375"><defs><style>.cls-1{fill:#231f20;}.cls-2{fill:none;stroke:#5c9ad2;stroke-miterlimit:10;}</style></defs><title>thesis_final_website</title><path class="cls-1" d="M277.8,178.87a4.16,4.16,0,0,0,3.11,1.42c1.6,0,2.63-.86,2.63-2.11s-0.86-1.75-1.91-2.21l-1.6-.72a2.9,2.9,0,0,1-2.13-2.62c0-1.52,1.31-2.59,3.06-2.59a4,4,0,0,1,2.95,1.26l-0.43.5a3.34,3.34,0,0,0-2.51-1.09c-1.39,0-2.32.74-2.32,1.89s1.06,1.68,1.83,2l1.6,0.7c1.17,0.53,2.21,1.18,2.21,2.8s-1.33,2.83-3.38,2.83a4.65,4.65,0,0,1-3.55-1.58Z"/><path class="cls-1" d="M289.05,172.9c1.82,0,2.95,1.3,2.95,3.55a3.46,3.46,0,0,1,0,.58h-5.54c0,1.94,1.17,3.33,2.9,3.33a3.4,3.4,0,0,0,2.06-.69l0.29,0.54a4.28,4.28,0,0,1-2.42.75c-2,0-3.55-1.5-3.55-4S287.34,172.9,289.05,172.9Zm2.27,3.58c0-2-.88-3-2.26-3s-2.48,1.14-2.64,3h4.9Z"/><path class="cls-1" d="M294.07,173.09h0.61l0.06,1.42h0A2.63,2.63,0,0,1,297,172.9a1.58,1.58,0,0,1,.77.16l-0.16.64a1.68,1.68,0,0,0-.7-0.13c-0.69,0-1.5.53-2.1,2v5.23h-0.7v-7.68Z"/><path class="cls-1" d="M298.3,173.09h0.77l1.73,4.82c0.24,0.74.53,1.5,0.77,2.21h0.06c0.26-.7.53-1.47,0.78-2.21l1.73-4.82h0.72L302,180.78h-0.83Z"/><path class="cls-1" d="M306.25,170.61a0.64,0.64,0,1,1,.64.62A0.61,0.61,0,0,1,306.25,170.61Zm0.27,2.48h0.7v7.68h-0.7v-7.68Z"/><path class="cls-1" d="M313,172.9a3.15,3.15,0,0,1,2.26.94l-0.42.5a2.62,2.62,0,0,0-1.83-.82c-1.57,0-2.79,1.39-2.79,3.43s1.1,3.39,2.79,3.39a3.09,3.09,0,0,0,2-.88l0.37,0.48a3.63,3.63,0,0,1-2.45,1c-2,0-3.49-1.47-3.49-4S311.18,172.9,313,172.9Z"/><path class="cls-1" d="M319.8,172.9c1.82,0,2.95,1.3,2.95,3.55a3.46,3.46,0,0,1,0,.58h-5.54c0,1.94,1.17,3.33,2.9,3.33a3.4,3.4,0,0,0,2.06-.69l0.29,0.54A4.28,4.28,0,0,1,320,181c-2,0-3.55-1.5-3.55-4S318.09,172.9,319.8,172.9Zm2.27,3.58c0-2-.88-3-2.26-3s-2.48,1.14-2.64,3h4.9Z"/><path class="cls-1" d="M279.63,190h2.43c3.25,0,4.8,2,4.8,5.23s-1.55,5.31-4.79,5.31h-2.45V190ZM282,200c2.87,0,4.11-1.94,4.11-4.69s-1.25-4.61-4.11-4.61h-1.62V200H282Z"/><path class="cls-1" d="M291.88,192.71c1.82,0,2.95,1.3,2.95,3.55a3.46,3.46,0,0,1,0,.58h-5.54c0,1.94,1.17,3.33,2.9,3.33a3.4,3.4,0,0,0,2.06-.69l0.29,0.54a4.28,4.28,0,0,1-2.42.75c-2,0-3.55-1.5-3.55-4S290.17,192.71,291.88,192.71Zm2.27,3.58c0-2-.88-3-2.26-3s-2.48,1.14-2.64,3h4.9Z"/><path class="cls-1" d="M296.36,199.2a3.56,3.56,0,0,0,2.45,1,1.59,1.59,0,0,0,1.83-1.52c0-1-1-1.38-1.87-1.7-1.17-.42-2.45-0.88-2.45-2.19,0-1.12.88-2,2.48-2a3.57,3.57,0,0,1,2.19.8l-0.38.5a2.91,2.91,0,0,0-1.84-.69,1.49,1.49,0,0,0-1.73,1.39c0,0.85.9,1.22,1.81,1.55,1.2,0.45,2.51.85,2.51,2.35,0,1.15-.93,2.16-2.59,2.16a4.45,4.45,0,0,1-2.82-1.06Z"/><path class="cls-1" d="M303.11,190.43a0.64,0.64,0,1,1,.64.62A0.61,0.61,0,0,1,303.11,190.43Zm0.27,2.48h0.7v7.68h-0.7v-7.68Z"/><path class="cls-1" d="M307.54,200.3v-0.06a1.37,1.37,0,0,1-.67-1.23,1.81,1.81,0,0,1,.83-1.41v-0.06a2.87,2.87,0,0,1-1-2.11,2.64,2.64,0,0,1,2.71-2.71,2.73,2.73,0,0,1,1,.19h2.61v0.59h-1.79a2.56,2.56,0,0,1,.85,1.94,2.63,2.63,0,0,1-2.67,2.71,2.67,2.67,0,0,1-1.28-.32,1.38,1.38,0,0,0-.62,1.1c0,0.56.32,1,1.47,1h1.65c1.73,0,2.53.54,2.53,1.76s-1.42,2.59-3.63,2.59c-1.94,0-3.15-.83-3.15-2.13A2.42,2.42,0,0,1,307.54,200.3Zm2.1,3.41c1.73,0,2.83-1,2.83-1.94s-0.62-1.17-1.78-1.17H309a4.71,4.71,0,0,1-1-.13,2,2,0,0,0-1,1.62C307.08,203.05,308,203.71,309.64,203.71Zm1.79-8.29a2,2,0,1,0-4,0A2,2,0,1,0,311.43,195.42Z"/><path class="cls-1" d="M314.84,192.91h0.61l0.06,1.18h0a3.75,3.75,0,0,1,2.64-1.38c1.58,0,2.32,1,2.32,2.95v4.93h-0.71v-4.83c0-1.63-.51-2.4-1.76-2.4-0.91,0-1.57.48-2.51,1.44v5.79h-0.7v-7.68Z"/><path class="cls-1" d="M251.9,99.2h2.88c2.35,0,3.75.77,3.75,2.94s-1.41,3.07-3.75,3.07h-2.14v4.53H251.9V99.2Zm2.69,5.39c2.16,0,3.19-.72,3.19-2.45s-1-2.32-3.19-2.32h-2v4.77h2Z"/><path class="cls-1" d="M260.69,102.06h0.61l0.06,1.42h0a2.63,2.63,0,0,1,2.18-1.62,1.58,1.58,0,0,1,.77.16l-0.16.64a1.68,1.68,0,0,0-.7-0.13c-0.69,0-1.5.53-2.1,2v5.23h-0.7v-7.68Z"/><path class="cls-1" d="M268.4,101.87c1.86,0,3.46,1.47,3.46,4s-1.6,4-3.46,4-3.44-1.47-3.44-4S266.56,101.87,268.4,101.87Zm0,7.44c1.55,0,2.72-1.38,2.72-3.39s-1.17-3.43-2.72-3.43-2.71,1.39-2.71,3.43S266.85,109.31,268.4,109.31Z"/><path class="cls-1" d="M276.93,101.87a3.55,3.55,0,0,1,2.32.94l0-1.41V98.24h0.71v11.51h-0.61l-0.06-1h0a3.6,3.6,0,0,1-2.5,1.18c-1.94,0-3.19-1.42-3.19-4S275.1,101.87,276.93,101.87Zm-0.13,7.44a3.47,3.47,0,0,0,2.42-1.26v-4.56a3.25,3.25,0,0,0-2.24-1c-1.54,0-2.71,1.49-2.71,3.43S275.17,109.31,276.8,109.31Z"/><path class="cls-1" d="M282.75,102.06h0.7v4.83c0,1.63.51,2.4,1.75,2.4,0.91,0,1.58-.48,2.48-1.57v-5.67h0.7v7.68h-0.59l-0.08-1.28h0a3.44,3.44,0,0,1-2.61,1.47c-1.58,0-2.32-1-2.32-2.95v-4.93Z"/><path class="cls-1" d="M294.19,101.87a3.15,3.15,0,0,1,2.26.94l-0.42.5a2.62,2.62,0,0,0-1.83-.82c-1.57,0-2.79,1.39-2.79,3.43s1.1,3.39,2.79,3.39a3.09,3.09,0,0,0,2-.88l0.37,0.48a3.63,3.63,0,0,1-2.45,1c-2,0-3.49-1.47-3.49-4S292.32,101.87,294.19,101.87Z"/><path class="cls-1" d="M298.68,102.67h-1.2v-0.54l1.22-.06,0.1-2.22h0.61v2.22h2.22v0.61h-2.22v5c0,1,.24,1.63,1.3,1.63a2.58,2.58,0,0,0,1-.24l0.19,0.58a4.29,4.29,0,0,1-1.25.29c-1.49,0-1.92-.94-1.92-2.32v-4.95Z"/><path class="cls-1" d="M306.36,107.84a4.16,4.16,0,0,0,3.11,1.42c1.6,0,2.63-.86,2.63-2.11s-0.86-1.75-1.91-2.21l-1.6-.72a2.9,2.9,0,0,1-2.13-2.62c0-1.52,1.31-2.59,3.06-2.59a4,4,0,0,1,2.95,1.26l-0.43.5a3.34,3.34,0,0,0-2.51-1.09c-1.39,0-2.32.74-2.32,1.89s1.06,1.68,1.83,2l1.6,0.7c1.17,0.53,2.21,1.18,2.21,2.8s-1.33,2.83-3.38,2.83a4.65,4.65,0,0,1-3.55-1.58Z"/><path class="cls-1" d="M317.61,101.87c1.82,0,2.95,1.3,2.95,3.55a3.46,3.46,0,0,1,0,.58H315c0,1.94,1.17,3.33,2.9,3.33a3.4,3.4,0,0,0,2.06-.69l0.29,0.54a4.28,4.28,0,0,1-2.42.75c-2,0-3.55-1.5-3.55-4S315.9,101.87,317.61,101.87Zm2.27,3.58c0-2-.88-3-2.26-3s-2.48,1.14-2.64,3h4.9Z"/><path class="cls-1" d="M322.64,102.06h0.61l0.06,1.42h0a2.63,2.63,0,0,1,2.18-1.62,1.58,1.58,0,0,1,.77.16l-0.16.64a1.68,1.68,0,0,0-.7-0.13c-0.69,0-1.5.53-2.1,2v5.23h-0.7v-7.68Z"/><path class="cls-1" d="M326.86,102.06h0.77l1.73,4.82c0.24,0.74.53,1.5,0.77,2.21h0.06c0.26-.7.53-1.47,0.78-2.21l1.73-4.82h0.72l-2.85,7.68h-0.83Z"/><path class="cls-1" d="M334.81,99.58a0.64,0.64,0,1,1,.64.62A0.61,0.61,0,0,1,334.81,99.58Zm0.27,2.48h0.7v7.68h-0.7v-7.68Z"/><path class="cls-1" d="M341.61,101.87a3.15,3.15,0,0,1,2.26.94l-0.42.5a2.62,2.62,0,0,0-1.83-.82c-1.57,0-2.79,1.39-2.79,3.43s1.1,3.39,2.79,3.39a3.09,3.09,0,0,0,2-.88l0.37,0.48a3.63,3.63,0,0,1-2.45,1c-2,0-3.49-1.47-3.49-4S339.74,101.87,341.61,101.87Z"/><path class="cls-1" d="M348.36,101.87c1.82,0,2.95,1.3,2.95,3.55a3.46,3.46,0,0,1,0,.58h-5.54c0,1.94,1.17,3.33,2.9,3.33a3.4,3.4,0,0,0,2.06-.69l0.29,0.54a4.28,4.28,0,0,1-2.42.75c-2,0-3.55-1.5-3.55-4S346.65,101.87,348.36,101.87Zm2.27,3.58c0-2-.88-3-2.26-3s-2.48,1.14-2.64,3h4.9Z"/><path class="cls-1" d="M256.81,127.65a4.16,4.16,0,0,0,3.11,1.42c1.6,0,2.63-.86,2.63-2.11s-0.86-1.75-1.91-2.21L259,124a2.9,2.9,0,0,1-2.13-2.62c0-1.52,1.31-2.59,3.06-2.59a4,4,0,0,1,2.95,1.26l-0.43.5a3.34,3.34,0,0,0-2.51-1.09c-1.39,0-2.32.74-2.32,1.89s1.06,1.68,1.83,2l1.6,0.7c1.17,0.53,2.21,1.18,2.21,2.8s-1.33,2.83-3.38,2.83a4.65,4.65,0,0,1-3.55-1.58Z"/><path class="cls-1" d="M265.05,132.41c0.94,0,1.58-.87,2-2l0.21-.67-3.15-7.83h0.77l1.86,4.83c0.24,0.64.54,1.47,0.83,2.15h0.06c0.24-.67.5-1.5,0.7-2.15l1.65-4.83h0.72l-3,8.64c-0.43,1.28-1.2,2.55-2.58,2.55a2,2,0,0,1-.79-0.16l0.16-.62A1.79,1.79,0,0,0,265.05,132.41Z"/><path class="cls-1" d="M271.79,128.16a3.56,3.56,0,0,0,2.45,1,1.59,1.59,0,0,0,1.83-1.52c0-1-1-1.38-1.87-1.7-1.17-.42-2.45-0.88-2.45-2.19,0-1.12.88-2,2.48-2a3.57,3.57,0,0,1,2.19.8L276,123a2.91,2.91,0,0,0-1.84-.69,1.49,1.49,0,0,0-1.73,1.39c0,0.85.9,1.22,1.81,1.55,1.2,0.45,2.51.85,2.51,2.35,0,1.15-.93,2.16-2.59,2.16a4.45,4.45,0,0,1-2.82-1.06Z"/><path class="cls-1" d="M279,122.48h-1.2v-0.54l1.22-.06,0.1-2.23h0.61v2.23h2.22v0.61h-2.22v5c0,1,.24,1.63,1.3,1.63a2.58,2.58,0,0,0,1-.24l0.19,0.58a4.29,4.29,0,0,1-1.25.29c-1.49,0-1.92-.94-1.92-2.32v-4.95Z"/><path class="cls-1" d="M286.35,121.68c1.82,0,2.95,1.3,2.95,3.55a3.46,3.46,0,0,1,0,.58h-5.54c0,1.94,1.17,3.33,2.9,3.33a3.4,3.4,0,0,0,2.06-.69L289,129a4.28,4.28,0,0,1-2.42.75c-2,0-3.55-1.5-3.55-4S284.64,121.68,286.35,121.68Zm2.27,3.58c0-2-.88-3-2.26-3s-2.48,1.14-2.64,3h4.9Z"/><path class="cls-1" d="M291.37,121.87H292l0.06,1.18h0a3.52,3.52,0,0,1,2.42-1.38,2,2,0,0,1,2.13,1.57,3.86,3.86,0,0,1,2.61-1.57c1.54,0,2.3,1,2.3,2.95v4.93h-0.72v-4.83c0-1.63-.54-2.4-1.71-2.4a3.35,3.35,0,0,0-2.3,1.44v5.79h-0.7v-4.83c0-1.63-.54-2.4-1.73-2.4a3.42,3.42,0,0,0-2.3,1.44v5.79h-0.7v-7.68Z"/><path class="cls-1" d="M307.58,119H310c3.25,0,4.8,2,4.8,5.23s-1.55,5.31-4.79,5.31h-2.45V119Zm2.35,9.92c2.87,0,4.11-1.94,4.11-4.69s-1.25-4.61-4.11-4.61h-1.62v9.3h1.62Z"/><path class="cls-1" d="M319.84,121.68c1.82,0,2.95,1.3,2.95,3.55a3.46,3.46,0,0,1,0,.58h-5.54c0,1.94,1.17,3.33,2.9,3.33a3.4,3.4,0,0,0,2.06-.69l0.29,0.54a4.28,4.28,0,0,1-2.42.75c-2,0-3.55-1.5-3.55-4S318.12,121.68,319.84,121.68Zm2.27,3.58c0-2-.88-3-2.26-3s-2.48,1.14-2.64,3h4.9Z"/><path class="cls-1" d="M324.32,128.16a3.56,3.56,0,0,0,2.45,1,1.59,1.59,0,0,0,1.83-1.52c0-1-1-1.38-1.87-1.7-1.17-.42-2.45-0.88-2.45-2.19,0-1.12.88-2,2.48-2a3.57,3.57,0,0,1,2.19.8l-0.38.5a2.91,2.91,0,0,0-1.84-.69,1.49,1.49,0,0,0-1.73,1.39c0,0.85.9,1.22,1.81,1.55,1.2,0.45,2.51.85,2.51,2.35,0,1.15-.93,2.16-2.59,2.16a4.45,4.45,0,0,1-2.82-1.06Z"/><path class="cls-1" d="M331.07,119.39a0.64,0.64,0,1,1,.64.62A0.61,0.61,0,0,1,331.07,119.39Zm0.27,2.48H332v7.68h-0.7v-7.68Z"/><path class="cls-1" d="M335.5,129.27V129.2a1.37,1.37,0,0,1-.67-1.23,1.81,1.81,0,0,1,.83-1.41V126.5a2.87,2.87,0,0,1-1-2.11,2.64,2.64,0,0,1,2.71-2.71,2.73,2.73,0,0,1,1,.19H341v0.59h-1.79a2.56,2.56,0,0,1,.85,1.94,2.63,2.63,0,0,1-2.67,2.71,2.67,2.67,0,0,1-1.28-.32,1.38,1.38,0,0,0-.62,1.1c0,0.56.32,1,1.47,1h1.65c1.73,0,2.53.54,2.53,1.76s-1.42,2.59-3.63,2.59c-1.94,0-3.15-.83-3.15-2.13A2.42,2.42,0,0,1,335.5,129.27Zm2.1,3.41c1.73,0,2.83-1,2.83-1.94s-0.62-1.17-1.78-1.17H337a4.71,4.71,0,0,1-1-.13,2,2,0,0,0-1,1.62C335,132,336,132.68,337.6,132.68Zm1.79-8.29a2,2,0,1,0-4,0A2,2,0,1,0,339.39,124.39Z"/><path class="cls-1" d="M342.8,121.87h0.61l0.06,1.18h0a3.75,3.75,0,0,1,2.64-1.38c1.58,0,2.32,1,2.32,2.95v4.93h-0.71v-4.83c0-1.63-.51-2.4-1.76-2.4-0.91,0-1.57.48-2.51,1.44v5.79h-0.7v-7.68Z"/><path class="cls-1" d="M249.89,38.12h2.43c3.25,0,4.8,2,4.8,5.23s-1.55,5.31-4.79,5.31h-2.45V38.12ZM252.24,48c2.87,0,4.11-1.94,4.11-4.69s-1.25-4.61-4.11-4.61h-1.62V48h1.62Z"/><path class="cls-1" d="M262.15,40.8c1.82,0,2.95,1.3,2.95,3.55a3.46,3.46,0,0,1,0,.58h-5.54c0,1.94,1.17,3.33,2.9,3.33a3.4,3.4,0,0,0,2.06-.69l0.29,0.54a4.28,4.28,0,0,1-2.42.75c-2,0-3.55-1.5-3.55-4S260.43,40.8,262.15,40.8Zm2.27,3.58c0-2-.88-3-2.26-3s-2.48,1.14-2.64,3h4.9Z"/><path class="cls-1" d="M266.62,47.28a3.56,3.56,0,0,0,2.45,1,1.59,1.59,0,0,0,1.83-1.52c0-1-1-1.38-1.87-1.7-1.17-.42-2.45-0.88-2.45-2.19,0-1.12.88-2,2.48-2a3.57,3.57,0,0,1,2.19.8l-0.38.5A2.91,2.91,0,0,0,269,41.4a1.49,1.49,0,0,0-1.73,1.39c0,0.85.9,1.22,1.81,1.55,1.2,0.45,2.51.85,2.51,2.35,0,1.15-.93,2.16-2.59,2.16a4.45,4.45,0,0,1-2.82-1.06Z"/><path class="cls-1" d="M273.38,38.51a0.64,0.64,0,1,1,.64.62A0.61,0.61,0,0,1,273.38,38.51ZM273.65,41h0.7v7.68h-0.7V41Z"/><path class="cls-1" d="M277.81,48.38V48.32a1.37,1.37,0,0,1-.67-1.23,1.81,1.81,0,0,1,.83-1.41V45.61a2.87,2.87,0,0,1-1-2.11,2.64,2.64,0,0,1,2.71-2.71,2.75,2.75,0,0,1,1,.19h2.61v0.59h-1.79a2.56,2.56,0,0,1,.85,1.94,2.63,2.63,0,0,1-2.67,2.71,2.66,2.66,0,0,1-1.28-.32,1.38,1.38,0,0,0-.62,1.1c0,0.56.32,1,1.47,1h1.65c1.73,0,2.53.54,2.53,1.76s-1.42,2.59-3.63,2.59c-1.94,0-3.15-.83-3.15-2.13A2.42,2.42,0,0,1,277.81,48.38Zm2.1,3.41c1.73,0,2.83-1,2.83-1.94s-0.62-1.17-1.78-1.17h-1.65a4.71,4.71,0,0,1-1-.13,2,2,0,0,0-1,1.62C277.34,51.14,278.27,51.79,279.91,51.79Zm1.79-8.29a2,2,0,1,0-4,0A2,2,0,1,0,281.7,43.5Z"/><path class="cls-1" d="M285.1,41h0.61l0.06,1.18h0a3.75,3.75,0,0,1,2.64-1.38c1.58,0,2.32,1,2.32,2.95v4.93h-0.71V43.84c0-1.63-.51-2.4-1.76-2.4-0.91,0-1.57.48-2.51,1.44v5.79h-0.7V41Z"/><path class="cls-1" d="M299.1,38.76h-3.36V38.12h7.44v0.64h-3.35v9.91H299.1V38.76Z"/><path class="cls-1" d="M305.07,37.16h0.7v5a3.77,3.77,0,0,1,2.66-1.39c1.58,0,2.32,1,2.32,2.95v4.93H310V43.84c0-1.63-.51-2.4-1.76-2.4-0.91,0-1.57.48-2.51,1.44v5.79h-0.7V37.16Z"/><path class="cls-1" d="M313.25,38.51a0.64,0.64,0,1,1,.64.62A0.61,0.61,0,0,1,313.25,38.51ZM313.52,41h0.7v7.68h-0.7V41Z"/><path class="cls-1" d="M317.18,41h0.61l0.06,1.18h0a3.75,3.75,0,0,1,2.64-1.38c1.58,0,2.32,1,2.32,2.95v4.93h-0.71V43.84c0-1.63-.51-2.4-1.76-2.4-0.91,0-1.57.48-2.51,1.44v5.79h-0.7V41Z"/><path class="cls-1" d="M325.7,37.16h0.7v8.48h0L330.23,41H331l-2.5,3,2.91,4.64h-0.79l-2.54-4.11-1.73,2v2.1h-0.7V37.16Z"/><path class="cls-1" d="M332.85,38.51a0.64,0.64,0,1,1,.64.62A0.61,0.61,0,0,1,332.85,38.51ZM333.12,41h0.7v7.68h-0.7V41Z"/><path class="cls-1" d="M336.78,41h0.61l0.06,1.18h0a3.75,3.75,0,0,1,2.64-1.38c1.58,0,2.32,1,2.32,2.95v4.93h-0.71V43.84c0-1.63-.51-2.4-1.76-2.4-0.91,0-1.57.48-2.51,1.44v5.79h-0.7V41Z"/><path class="cls-1" d="M345.79,48.38V48.32a1.37,1.37,0,0,1-.67-1.23,1.81,1.81,0,0,1,.83-1.41V45.61a2.87,2.87,0,0,1-1-2.11,2.64,2.64,0,0,1,2.71-2.71,2.75,2.75,0,0,1,1,.19h2.61v0.59h-1.79a2.56,2.56,0,0,1,.85,1.94,2.63,2.63,0,0,1-2.67,2.71,2.66,2.66,0,0,1-1.28-.32,1.38,1.38,0,0,0-.62,1.1c0,0.56.32,1,1.47,1h1.65c1.73,0,2.53.54,2.53,1.76s-1.42,2.59-3.63,2.59c-1.94,0-3.15-.83-3.15-2.13A2.42,2.42,0,0,1,345.79,48.38Zm2.1,3.41c1.73,0,2.83-1,2.83-1.94s-0.62-1.17-1.78-1.17H347.3a4.71,4.71,0,0,1-1-.13,2,2,0,0,0-1,1.62C345.33,51.14,346.26,51.79,347.89,51.79Zm1.79-8.29a2,2,0,1,0-4,0A2,2,0,1,0,349.68,43.5Z"/><path class="cls-1" d="M249.21,66.58A4.16,4.16,0,0,0,252.32,68c1.6,0,2.63-.86,2.63-2.11s-0.86-1.75-1.91-2.21l-1.6-.72a2.9,2.9,0,0,1-2.13-2.62c0-1.52,1.31-2.59,3.06-2.59A4,4,0,0,1,255.31,59l-0.43.5a3.34,3.34,0,0,0-2.51-1.09c-1.39,0-2.32.74-2.32,1.89s1.06,1.68,1.83,2l1.6,0.7c1.17,0.53,2.21,1.18,2.21,2.8s-1.33,2.83-3.38,2.83a4.65,4.65,0,0,1-3.55-1.58Z"/><path class="cls-1" d="M257.93,61.41h-1.2V60.86l1.22-.06,0.1-2.23h0.61V60.8h2.22v0.61h-2.22v5c0,1,.24,1.63,1.3,1.63a2.58,2.58,0,0,0,1-.24l0.19,0.58a4.29,4.29,0,0,1-1.25.29c-1.49,0-1.92-.94-1.92-2.32V61.41Z"/><path class="cls-1" d="M262.75,60.8h0.61l0.06,1.42h0a2.63,2.63,0,0,1,2.18-1.62,1.58,1.58,0,0,1,.77.16l-0.16.64a1.68,1.68,0,0,0-.7-0.13c-0.69,0-1.5.53-2.1,2v5.23h-0.7V60.8Z"/><path class="cls-1" d="M272,63.66c0-1.17-.3-2.43-1.81-2.43a4.24,4.24,0,0,0-2.45.9l-0.32-.53a5.13,5.13,0,0,1,2.85-1c1.83,0,2.43,1.31,2.43,3v4.91h-0.59l-0.08-1h0a4.56,4.56,0,0,1-2.72,1.18A2,2,0,0,1,267,66.56C267,64.87,268.57,64,272,63.66Zm-2.61,4.4A4,4,0,0,0,272,66.82V64.21c-3.15.37-4.23,1.1-4.23,2.32A1.44,1.44,0,0,0,269.37,68.07Z"/><path class="cls-1" d="M275.61,61.41h-1.2V60.86l1.22-.06,0.1-2.23h0.61V60.8h2.22v0.61h-2.22v5c0,1,.24,1.63,1.3,1.63a2.58,2.58,0,0,0,1-.24l0.19,0.58a4.29,4.29,0,0,1-1.25.29c-1.49,0-1.92-.94-1.92-2.32V61.41Z"/><path class="cls-1" d="M283,60.61c1.82,0,2.95,1.3,2.95,3.55a3.46,3.46,0,0,1,0,.58h-5.54c0,1.94,1.17,3.33,2.9,3.33a3.4,3.4,0,0,0,2.06-.69l0.29,0.54a4.28,4.28,0,0,1-2.42.75c-2,0-3.55-1.5-3.55-4S281.26,60.61,283,60.61Zm2.27,3.58c0-2-.88-3-2.26-3s-2.48,1.14-2.64,3h4.9Z"/><path class="cls-1" d="M288.33,68.19V68.13a1.37,1.37,0,0,1-.67-1.23,1.81,1.81,0,0,1,.83-1.41V65.42a2.87,2.87,0,0,1-1-2.11,2.64,2.64,0,0,1,2.71-2.71,2.73,2.73,0,0,1,1,.19h2.61v0.59h-1.79a2.56,2.56,0,0,1,.85,1.94A2.63,2.63,0,0,1,290.24,66a2.67,2.67,0,0,1-1.28-.32,1.38,1.38,0,0,0-.62,1.1c0,0.56.32,1,1.47,1h1.65c1.73,0,2.53.54,2.53,1.76s-1.42,2.59-3.63,2.59c-1.94,0-3.15-.83-3.15-2.13A2.42,2.42,0,0,1,288.33,68.19Zm2.1,3.41c1.73,0,2.83-1,2.83-1.94s-0.62-1.17-1.78-1.17h-1.65a4.71,4.71,0,0,1-1-.13,2,2,0,0,0-1,1.62C287.87,70.95,288.79,71.6,290.43,71.6Zm1.79-8.29a2,2,0,1,0-4,0A2,2,0,1,0,292.22,63.31Z"/><path class="cls-1" d="M295.35,58.32a0.64,0.64,0,1,1,.64.62A0.61,0.61,0,0,1,295.35,58.32Zm0.27,2.48h0.7v7.68h-0.7V60.8Z"/><path class="cls-1" d="M302.16,60.61a3.15,3.15,0,0,1,2.26.94L304,62a2.62,2.62,0,0,0-1.83-.82c-1.57,0-2.79,1.39-2.79,3.43s1.1,3.39,2.79,3.39a3.09,3.09,0,0,0,2-.88l0.37,0.48a3.63,3.63,0,0,1-2.45,1c-2,0-3.49-1.47-3.49-4S300.28,60.61,302.16,60.61Z"/><path class="cls-1" d="M309.69,57.93h2.43c3.25,0,4.8,2,4.8,5.23s-1.55,5.31-4.79,5.31h-2.45V57.93ZM312,67.86c2.87,0,4.11-1.94,4.11-4.69s-1.25-4.61-4.11-4.61h-1.62v9.3H312Z"/><path class="cls-1" d="M321.95,60.61c1.82,0,2.95,1.3,2.95,3.55a3.46,3.46,0,0,1,0,.58h-5.54c0,1.94,1.17,3.33,2.9,3.33a3.4,3.4,0,0,0,2.06-.69l0.29,0.54a4.28,4.28,0,0,1-2.42.75c-2,0-3.55-1.5-3.55-4S320.23,60.61,321.95,60.61Zm2.27,3.58c0-2-.88-3-2.26-3s-2.48,1.14-2.64,3h4.9Z"/><path class="cls-1" d="M326.43,67.09a3.56,3.56,0,0,0,2.45,1,1.59,1.59,0,0,0,1.83-1.52c0-1-1-1.38-1.87-1.7-1.17-.42-2.45-0.88-2.45-2.19,0-1.12.88-2,2.48-2a3.57,3.57,0,0,1,2.19.8l-0.38.5a2.91,2.91,0,0,0-1.84-.69,1.49,1.49,0,0,0-1.73,1.39c0,0.85.9,1.22,1.81,1.55,1.2,0.45,2.51.85,2.51,2.35,0,1.15-.93,2.16-2.59,2.16A4.45,4.45,0,0,1,326,67.62Z"/><path class="cls-1" d="M333.18,58.32a0.64,0.64,0,1,1,.64.62A0.61,0.61,0,0,1,333.18,58.32Zm0.27,2.48h0.7v7.68h-0.7V60.8Z"/><path class="cls-1" d="M337.61,68.19V68.13a1.37,1.37,0,0,1-.67-1.23,1.81,1.81,0,0,1,.83-1.41V65.42a2.87,2.87,0,0,1-1-2.11,2.64,2.64,0,0,1,2.71-2.71,2.73,2.73,0,0,1,1,.19h2.61v0.59h-1.79a2.56,2.56,0,0,1,.85,1.94A2.63,2.63,0,0,1,339.51,66a2.67,2.67,0,0,1-1.28-.32,1.38,1.38,0,0,0-.62,1.1c0,0.56.32,1,1.47,1h1.65c1.73,0,2.53.54,2.53,1.76s-1.42,2.59-3.63,2.59c-1.94,0-3.15-.83-3.15-2.13A2.42,2.42,0,0,1,337.61,68.19Zm2.1,3.41c1.73,0,2.83-1,2.83-1.94s-0.62-1.17-1.78-1.17h-1.65a4.71,4.71,0,0,1-1-.13,2,2,0,0,0-1,1.62C337.15,70.95,338.07,71.6,339.71,71.6Zm1.79-8.29a2,2,0,1,0-4,0A2,2,0,1,0,341.5,63.31Z"/><path class="cls-1" d="M344.91,60.8h0.61L345.58,62h0a3.75,3.75,0,0,1,2.64-1.38c1.58,0,2.32,1,2.32,2.95v4.93h-0.71V63.65c0-1.63-.51-2.4-1.76-2.4-0.91,0-1.57.48-2.51,1.44v5.79h-0.7V60.8Z"/><circle class="cls-2" cx="300" cy="187.5" r="109.82"/><circle class="cls-2" cx="300" cy="187.5" r="165.68"/><circle class="cls-2" cx="300" cy="187.5" r="43.88"/></svg>