<svg id="Layer_1" data-name="Layer 1" xmlns="http://www.w3.org/2000/svg" viewBox="0 0 60 50"><defs><style>.cls-1{fill:#2857a6;}.cls-2{fill:none;stroke:#2857a6;stroke-miterlimit:10;}</style></defs><title>ss</title><path class="cls-1" d="M9.5,14.28c0-1.75-.46-3.65-2.71-3.65A6.36,6.36,0,0,0,3.12,12l-0.48-.79A7.7,7.7,0,0,1,6.91,9.7c2.74,0,3.65,2,3.65,4.44V21.5H9.67L9.55,20h0a6.84,6.84,0,0,1-4.08,1.78,3,3,0,0,1-3.36-3.17C2.06,16.08,4.39,14.86,9.5,14.28Zm-3.91,6.6A6,6,0,0,0,9.5,19V15.1c-4.73.55-6.34,1.66-6.34,3.48A2.16,2.16,0,0,0,5.59,20.88Z"/><path class="cls-1" d="M14.68,4.25h1.06v5l0,2.26a6.58,6.58,0,0,1,4-1.8c3.07,0,4.61,2.3,4.61,5.88,0,3.91-2.38,6.22-5.09,6.22a6,6,0,0,1-3.46-1.37h0L15.57,21.5H14.68V4.25Zm4.46,16.61c2.33,0,4-2.16,4-5.28,0-2.83-1-4.94-3.65-4.94a6,6,0,0,0-3.77,1.9v6.84A5.54,5.54,0,0,0,19.15,20.86Z"/><path class="cls-1" d="M31.94,9.7c2.78,0,5.18,2.21,5.18,6.07s-2.4,6-5.18,6-5.16-2.21-5.16-6S29.18,9.7,31.94,9.7Zm0,11.16c2.33,0,4.08-2.06,4.08-5.09s-1.75-5.14-4.08-5.14-4.06,2.09-4.06,5.14S29.61,20.86,31.94,20.86Z"/><path class="cls-1" d="M40.41,10h1.06v7.25c0,2.45.77,3.6,2.62,3.6,1.37,0,2.38-.72,3.72-2.35V10h1.06V21.5H48l-0.12-1.92h0a5.15,5.15,0,0,1-3.91,2.21c-2.38,0-3.48-1.44-3.48-4.42V10Z"/><path class="cls-1" d="M53.54,10.89h-1.8V10.08l1.82-.1,0.14-3.34h0.91V10H58v0.91H54.62v7.51c0,1.46.36,2.45,1.94,2.45A3.87,3.87,0,0,0,58,20.5l0.29,0.86a6.46,6.46,0,0,1-1.87.43c-2.23,0-2.88-1.42-2.88-3.48V10.89Z"/><line class="cls-2" x1="29.53" y1="46.42" x2="29.53" y2="30.08"/><line class="cls-2" x1="18.16" y1="38.25" x2="40.9" y2="38.25"/></svg>