<svg id="Layer_1" data-name="Layer 1" xmlns="http://www.w3.org/2000/svg" viewBox="0 0 101.15 28.83"><defs><style>.cls-1{fill:#2857a6;}.cls-2{fill:none;stroke:#2857a6;stroke-miterlimit:10;}</style></defs><title>ss</title><path class="cls-1" d="M46.08,14.28c0-1.75-.46-3.65-2.71-3.65A6.36,6.36,0,0,0,39.69,12l-0.48-.79A7.7,7.7,0,0,1,43.48,9.7c2.74,0,3.65,2,3.65,4.44V21.5H46.24L46.12,20h0A6.84,6.84,0,0,1,42,21.79a3,3,0,0,1-3.36-3.17C38.64,16.08,41,14.86,46.08,14.28Zm-3.91,6.6A6,6,0,0,0,46.08,19V15.1c-4.73.55-6.34,1.66-6.34,3.48A2.16,2.16,0,0,0,42.16,20.88Z"/><path class="cls-1" d="M51.26,4.25h1.06v5l0,2.26a6.58,6.58,0,0,1,4-1.8c3.07,0,4.61,2.3,4.61,5.88,0,3.91-2.38,6.22-5.09,6.22a6,6,0,0,1-3.46-1.37h0L52.15,21.5H51.26V4.25Zm4.46,16.61c2.33,0,4-2.16,4-5.28,0-2.83-1-4.94-3.65-4.94a6,6,0,0,0-3.77,1.9v6.84A5.54,5.54,0,0,0,55.72,20.86Z"/><path class="cls-1" d="M68.51,9.7c2.78,0,5.18,2.21,5.18,6.07s-2.4,6-5.18,6-5.16-2.21-5.16-6S65.76,9.7,68.51,9.7Zm0,11.16c2.33,0,4.08-2.06,4.08-5.09s-1.75-5.14-4.08-5.14-4.06,2.09-4.06,5.14S66.19,20.86,68.51,20.86Z"/><path class="cls-1" d="M77,10H78v7.25c0,2.45.77,3.6,2.62,3.6,1.37,0,2.38-.72,3.72-2.35V10h1.06V21.5H84.55l-0.12-1.92h0a5.15,5.15,0,0,1-3.91,2.21c-2.38,0-3.48-1.44-3.48-4.42V10Z"/><path class="cls-1" d="M90.12,10.9h-1.8V10.08l1.82-.1,0.14-3.34H91.2V10h3.34V10.9H91.2v7.51c0,1.46.36,2.45,1.94,2.45a3.87,3.87,0,0,0,1.44-.36l0.29,0.86a6.46,6.46,0,0,1-1.87.43c-2.23,0-2.88-1.42-2.88-3.48V10.9Z"/><line class="cls-2" x1="16.55" y1="23.17" x2="16.55" y2="6.83"/><line class="cls-2" x1="5.18" y1="15" x2="27.93" y2="15"/></svg>