<svg id="Layer_1" data-name="Layer 1" xmlns="http://www.w3.org/2000/svg" xmlns:xlink="http://www.w3.org/1999/xlink" viewBox="0 0 354.67 174.01"><defs><style>.cls-1,.cls-4{fill:none;}.cls-2{fill:#2e74b4;}.cls-3{fill:#231f20;}.cls-4{stroke:#2e74b4;stroke-linecap:square;stroke-linejoin:round;stroke-width:1.62px;}.cls-5{clip-path:url(#clip-path);}</style><clipPath id="clip-path"><rect class="cls-1" x="-1623.35" y="-2990.17" width="3475.47" height="2860.12"/></clipPath></defs><title>arrowr5</title><path class="cls-2" d="M18.92,46A4.92,4.92,0,0,0,15,44.08c-3.64,0-6.77,2.88-6.84,11.34a7.8,7.8,0,0,1,5.8-3.2c4,0,6.41,2.48,6.41,7.13,0,4.18-2.88,7.2-6.3,7.2-4.61,0-7.52-3.89-7.52-10.87,0-9.65,4-13,8.46-13a6.19,6.19,0,0,1,4.86,2.23ZM18.78,59.34c0-3.31-1.48-5.76-5-5.76-1.62,0-3.71.94-5.58,3.46,0.29,4.86,2.16,8.14,5.9,8.14C16.8,65.18,18.78,62.62,18.78,59.34Z"/><path class="cls-3" d="M7.13,103.38h5c4.12,0,6.55,1.34,6.55,5.15,0,3.61-2.46,5.38-6.55,5.38H8.42v7.92H7.13V103.38Zm4.7,9.44c3.78,0,5.57-1.26,5.57-4.28s-1.82-4.06-5.57-4.06H8.42v8.34h3.42Z"/><path class="cls-3" d="M22.2,108.39h1.06l0.11,2.49h0.08c0.9-1.65,2.21-2.83,3.81-2.83a2.77,2.77,0,0,1,1.34.28l-0.28,1.12a2.93,2.93,0,0,0-1.23-.22c-1.2,0-2.63.92-3.67,3.44v9.16H22.2V108.39Z"/><path class="cls-3" d="M35.5,108.06c3.19,0,5.15,2.27,5.15,6.22a6.12,6.12,0,0,1-.06,1H30.91c0.06,3.39,2,5.82,5.07,5.82a6,6,0,0,0,3.61-1.2l0.5,1a7.49,7.49,0,0,1-4.23,1.32c-3.44,0-6.22-2.63-6.22-7S32.5,108.06,35.5,108.06Zm4,6.27c0-3.44-1.54-5.21-3.95-5.21s-4.34,2-4.62,5.21h8.57Z"/><path class="cls-3" d="M48.83,108.06a6.21,6.21,0,0,1,4.06,1.65l-0.06-2.46V101.7h1.23v20.13H53l-0.11-1.74H52.8a6.29,6.29,0,0,1-4.37,2.07c-3.39,0-5.57-2.49-5.57-7C42.86,110.8,45.63,108.06,48.83,108.06Zm-0.22,13c1.48,0,2.8-.78,4.23-2.21v-8a5.68,5.68,0,0,0-3.92-1.74c-2.69,0-4.73,2.6-4.73,6C44.18,118.7,45.75,121.08,48.6,121.08Z"/><path class="cls-3" d="M58.43,104.05a1.12,1.12,0,1,1,1.12,1.09A1.07,1.07,0,0,1,58.43,104.05Zm0.48,4.34h1.23v13.44H58.91V108.39Z"/><path class="cls-3" d="M70,108.06A5.52,5.52,0,0,1,74,109.71l-0.73.87A4.58,4.58,0,0,0,70,109.15c-2.74,0-4.87,2.44-4.87,6s1.93,5.94,4.87,5.94a5.4,5.4,0,0,0,3.58-1.54l0.64,0.84A6.35,6.35,0,0,1,70,122.17c-3.47,0-6.1-2.58-6.1-7S66.74,108.06,70,108.06Z"/><path class="cls-3" d="M77.58,109.46h-2.1v-1l2.13-.11,0.17-3.89h1.06v3.89h3.89v1.06H78.84v8.76c0,1.71.42,2.86,2.27,2.86a4.51,4.51,0,0,0,1.68-.42l0.34,1a7.5,7.5,0,0,1-2.18.5c-2.6,0-3.36-1.65-3.36-4.06v-8.65Z"/><path class="cls-3" d="M85.22,104.05a1.12,1.12,0,1,1,1.12,1.09A1.07,1.07,0,0,1,85.22,104.05Zm0.48,4.34h1.23v13.44H85.7V108.39Z"/><path class="cls-3" d="M96.7,108.06c3.25,0,6,2.58,6,7.08s-2.8,7-6,7-6-2.58-6-7S93.48,108.06,96.7,108.06Zm0,13c2.72,0,4.76-2.41,4.76-5.94s-2-6-4.76-6-4.73,2.44-4.73,6S94,121.08,96.7,121.08Z"/><path class="cls-3" d="M106.48,108.39h1.06l0.11,2.07h0.08c1.37-1.37,2.77-2.41,4.62-2.41,2.77,0,4.06,1.68,4.06,5.15v8.62h-1.23v-8.46c0-2.86-.9-4.2-3.08-4.2-1.6,0-2.74.84-4.4,2.52v10.14h-1.23V108.39Z"/><path class="cls-3" d="M120.11,119.4a6.24,6.24,0,0,0,4.28,1.71c2.1,0,3.19-1.23,3.19-2.66,0-1.68-1.74-2.41-3.28-3-2-.73-4.28-1.54-4.28-3.84,0-2,1.54-3.58,4.34-3.58a6.24,6.24,0,0,1,3.84,1.4l-0.67.87a5.09,5.09,0,0,0-3.22-1.2c-2.07,0-3,1.2-3,2.44,0,1.48,1.57,2.13,3.16,2.72,2.1,0.78,4.4,1.48,4.4,4.12,0,2-1.62,3.78-4.54,3.78a7.78,7.78,0,0,1-4.93-1.85Z"/><path class="cls-3" d="M142.26,108.06c3.25,0,6,2.58,6,7.08s-2.8,7-6,7-6-2.58-6-7S139,108.06,142.26,108.06Zm0,13c2.72,0,4.76-2.41,4.76-5.94s-2-6-4.76-6-4.73,2.44-4.73,6S139.54,121.08,142.26,121.08Z"/><path class="cls-3" d="M152,108.39h1.06l0.11,2.07h0.08c1.37-1.37,2.77-2.41,4.62-2.41,2.77,0,4.06,1.68,4.06,5.15v8.62h-1.23v-8.46c0-2.86-.9-4.2-3.08-4.2-1.6,0-2.74.84-4.4,2.52v10.14H152V108.39Z"/><path class="cls-3" d="M172.19,109.46h-2.1v-1l2.13-.11,0.17-3.89h1.06v3.89h3.89v1.06h-3.89v8.76c0,1.71.42,2.86,2.27,2.86a4.51,4.51,0,0,0,1.68-.42l0.34,1a7.5,7.5,0,0,1-2.18.5c-2.6,0-3.36-1.65-3.36-4.06v-8.65Z"/><path class="cls-3" d="M180.31,101.7h1.23v8.79c1.4-1.4,2.8-2.44,4.65-2.44,2.77,0,4.06,1.68,4.06,5.15v8.62H189v-8.46c0-2.86-.9-4.2-3.08-4.2-1.6,0-2.74.84-4.4,2.52v10.14h-1.23V101.7Z"/><path class="cls-3" d="M199.52,108.06c3.19,0,5.15,2.27,5.15,6.22a6.12,6.12,0,0,1-.06,1h-9.69c0.06,3.39,2,5.82,5.07,5.82a6,6,0,0,0,3.61-1.2l0.5,1a7.49,7.49,0,0,1-4.23,1.32c-3.44,0-6.22-2.63-6.22-7S196.52,108.06,199.52,108.06Zm4,6.27c0-3.44-1.54-5.21-3.95-5.21s-4.34,2-4.62,5.21h8.57Z"/><path class="cls-3" d="M218.42,102.82a3.62,3.62,0,0,0-1.62-.39c-1.43,0-2.1,1.12-2.1,3.05v2.91h3.11v1.06h-3.11v12.38h-1.23V109.46h-1.85v-1l1.85-.11v-3c0-2.66,1.2-4,3.33-4a5,5,0,0,1,2,.45Z"/><path class="cls-3" d="M220.13,108.39h1.23v8.46c0,2.86.9,4.2,3.05,4.2,1.6,0,2.77-.84,4.34-2.74v-9.91H230v13.44h-1l-0.14-2.24h-0.06c-1.32,1.54-2.72,2.58-4.56,2.58-2.77,0-4.06-1.68-4.06-5.15v-8.62Z"/><path class="cls-3" d="M235.13,109.46H233v-1l2.13-.11,0.17-3.89h1.06v3.89h3.89v1.06h-3.89v8.76c0,1.71.42,2.86,2.27,2.86a4.51,4.51,0,0,0,1.68-.42l0.34,1a7.5,7.5,0,0,1-2.18.5c-2.6,0-3.36-1.65-3.36-4.06v-8.65Z"/><path class="cls-3" d="M243.06,108.39h1.23v8.46c0,2.86.9,4.2,3.05,4.2,1.6,0,2.77-.84,4.34-2.74v-9.91h1.23v13.44h-1l-0.14-2.24h-0.06c-1.32,1.54-2.72,2.58-4.56,2.58-2.77,0-4.06-1.68-4.06-5.15v-8.62Z"/><path class="cls-3" d="M257.76,108.39h1.06l0.11,2.49H259c0.9-1.65,2.21-2.83,3.81-2.83a2.77,2.77,0,0,1,1.34.28l-0.28,1.12a2.93,2.93,0,0,0-1.23-.22c-1.2,0-2.63.92-3.67,3.44v9.16h-1.23V108.39Z"/><path class="cls-3" d="M271.06,108.06c3.19,0,5.15,2.27,5.15,6.22a6.12,6.12,0,0,1-.06,1h-9.69c0.06,3.39,2,5.82,5.07,5.82a6,6,0,0,0,3.61-1.2l0.5,1a7.49,7.49,0,0,1-4.23,1.32c-3.44,0-6.22-2.63-6.22-7S268.06,108.06,271.06,108.06Zm4,6.27c0-3.44-1.54-5.21-3.95-5.21s-4.34,2-4.62,5.21H275Z"/><path class="cls-3" d="M12,141.66c3.25,0,6,2.58,6,7.08s-2.8,7-6,7-6-2.58-6-7S8.76,141.66,12,141.66Zm0,13c2.72,0,4.76-2.41,4.76-5.94s-2-6-4.76-6-4.73,2.44-4.73,6S9.26,154.68,12,154.68Z"/><path class="cls-3" d="M26.9,136.42a3.62,3.62,0,0,0-1.62-.39c-1.43,0-2.1,1.12-2.1,3.05V142h3.11v1.06H23.18v12.38H21.95V143.06H20.1v-1l1.85-.11v-3c0-2.66,1.2-4,3.33-4a5,5,0,0,1,2,.45Z"/><path class="cls-3" d="M33.12,153a6.24,6.24,0,0,0,4.28,1.71c2.1,0,3.19-1.23,3.19-2.66,0-1.68-1.74-2.41-3.28-3-2-.73-4.28-1.54-4.28-3.84,0-2,1.54-3.58,4.34-3.58a6.24,6.24,0,0,1,3.84,1.4l-0.67.87a5.09,5.09,0,0,0-3.22-1.2c-2.07,0-3,1.2-3,2.44,0,1.48,1.57,2.13,3.16,2.72,2.1,0.78,4.4,1.48,4.4,4.12,0,2-1.62,3.78-4.54,3.78a7.78,7.78,0,0,1-4.93-1.85Z"/><path class="cls-3" d="M49.83,141.66c3.19,0,5.15,2.27,5.15,6.22a6.12,6.12,0,0,1-.06,1H45.24c0.06,3.39,2,5.82,5.07,5.82a6,6,0,0,0,3.61-1.2l0.5,1a7.49,7.49,0,0,1-4.23,1.32c-3.44,0-6.22-2.63-6.22-7S46.84,141.66,49.83,141.66Zm4,6.27c0-3.44-1.54-5.21-3.95-5.21s-4.34,2-4.62,5.21h8.57Z"/><path class="cls-3" d="M58.32,142h1.06l0.11,2.49h0.08c0.9-1.65,2.21-2.83,3.81-2.83a2.77,2.77,0,0,1,1.34.28l-0.28,1.12a2.93,2.93,0,0,0-1.23-.22c-1.2,0-2.63.92-3.67,3.44v9.16H58.32V142Z"/><path class="cls-3" d="M64.65,142H66l3,8.43c0.42,1.29.92,2.63,1.34,3.86h0.11c0.45-1.23.92-2.58,1.37-3.86l3-8.43h1.26l-5,13.44H69.69Z"/><path class="cls-3" d="M78.25,137.65a1.12,1.12,0,1,1,1.12,1.09A1.07,1.07,0,0,1,78.25,137.65ZM78.73,142H80v13.44H78.73V142Z"/><path class="cls-3" d="M89.84,141.66a5.52,5.52,0,0,1,3.95,1.65l-0.73.87a4.58,4.58,0,0,0-3.19-1.43c-2.74,0-4.87,2.44-4.87,6s1.93,5.94,4.87,5.94a5.4,5.4,0,0,0,3.58-1.54L94.1,154a6.35,6.35,0,0,1-4.28,1.79c-3.47,0-6.1-2.58-6.1-7S86.57,141.66,89.84,141.66Z"/><path class="cls-3" d="M101.83,141.66c3.19,0,5.15,2.27,5.15,6.22a6.12,6.12,0,0,1-.06,1H97.24c0.06,3.39,2,5.82,5.07,5.82a6,6,0,0,0,3.61-1.2l0.5,1a7.49,7.49,0,0,1-4.23,1.32c-3.44,0-6.22-2.63-6.22-7S98.83,141.66,101.83,141.66Zm4,6.27c0-3.44-1.54-5.21-3.95-5.21s-4.34,2-4.62,5.21h8.57Z"/><path class="cls-3" d="M120.42,141.66a6.21,6.21,0,0,1,4.06,1.65l-0.06-2.46V135.3h1.23v20.13h-1.06l-0.11-1.74H124.4a6.29,6.29,0,0,1-4.37,2.07c-3.39,0-5.57-2.49-5.57-7C114.46,144.4,117.23,141.66,120.42,141.66Zm-0.22,13c1.48,0,2.8-.78,4.23-2.21v-8a5.68,5.68,0,0,0-3.92-1.74c-2.69,0-4.73,2.6-4.73,6C115.77,152.3,117.34,154.68,120.2,154.68Z"/><path class="cls-3" d="M135.23,141.66c3.19,0,5.15,2.27,5.15,6.22a6.12,6.12,0,0,1-.06,1h-9.69c0.06,3.39,2,5.82,5.07,5.82a6,6,0,0,0,3.61-1.2l0.5,1a7.49,7.49,0,0,1-4.23,1.32c-3.44,0-6.22-2.63-6.22-7S132.23,141.66,135.23,141.66Zm4,6.27c0-3.44-1.54-5.21-3.95-5.21s-4.34,2-4.62,5.21h8.57Z"/><path class="cls-3" d="M142.76,153a6.24,6.24,0,0,0,4.28,1.71c2.1,0,3.19-1.23,3.19-2.66,0-1.68-1.74-2.41-3.28-3-2-.73-4.28-1.54-4.28-3.84,0-2,1.54-3.58,4.34-3.58a6.24,6.24,0,0,1,3.84,1.4l-0.67.87a5.09,5.09,0,0,0-3.22-1.2c-2.07,0-3,1.2-3,2.44,0,1.48,1.57,2.13,3.16,2.72,2.1,0.78,4.4,1.48,4.4,4.12,0,2-1.62,3.78-4.54,3.78a7.78,7.78,0,0,1-4.93-1.85Z"/><path class="cls-3" d="M154.27,137.65a1.12,1.12,0,1,1,1.12,1.09A1.07,1.07,0,0,1,154.27,137.65Zm0.48,4.34H156v13.44h-1.23V142Z"/><path class="cls-3" d="M161.72,154.93v-0.11a2.4,2.4,0,0,1-1.18-2.16A3.16,3.16,0,0,1,162,150.2v-0.11a5,5,0,0,1-1.68-3.7,4.62,4.62,0,0,1,4.73-4.73,4.79,4.79,0,0,1,1.76.34h4.56v1h-3.14a4.47,4.47,0,0,1,1.48,3.39,4.59,4.59,0,0,1-4.68,4.73,4.67,4.67,0,0,1-2.24-.56,2.42,2.42,0,0,0-1.09,1.93c0,1,.56,1.76,2.58,1.76h2.88c3,0,4.42,1,4.42,3.08,0,2.32-2.49,4.54-6.36,4.54-3.39,0-5.52-1.46-5.52-3.72A4.24,4.24,0,0,1,161.72,154.93Zm3.67,6c3,0,5-1.71,5-3.39,0-1.48-1.09-2-3.11-2h-2.88a8.34,8.34,0,0,1-1.68-.22,3.51,3.51,0,0,0-1.76,2.83C160.91,159.74,162.53,160.89,165.39,160.89Zm3.14-14.5a3.49,3.49,0,1,0-7,0A3.5,3.5,0,1,0,168.52,146.39Z"/><path class="cls-3" d="M174.18,142h1.06l0.11,2.07h0.08c1.37-1.37,2.77-2.41,4.62-2.41,2.77,0,4.06,1.68,4.06,5.15v8.62h-1.23V147c0-2.86-.9-4.2-3.08-4.2-1.6,0-2.74.84-4.4,2.52v10.14h-1.23V142Z"/><polyline class="cls-4" points="4.5 84.76 350.35 84.76 326.35 67.54"/></svg>