<svg id="Layer_1" data-name="Layer 1" xmlns="http://www.w3.org/2000/svg" xmlns:xlink="http://www.w3.org/1999/xlink" viewBox="0 0 354.67 174.01"><defs><style>.cls-1,.cls-10,.cls-11,.cls-12,.cls-13,.cls-14,.cls-15,.cls-16,.cls-17,.cls-18,.cls-19,.cls-20,.cls-21,.cls-22,.cls-23,.cls-24,.cls-25,.cls-26,.cls-27,.cls-28,.cls-29,.cls-30,.cls-31,.cls-32,.cls-33,.cls-4,.cls-6,.cls-7,.cls-8,.cls-9{fill:none;}.cls-2{fill:#2e74b4;}.cls-3{fill:#231f20;}.cls-4{stroke:#2e74b4;stroke-linecap:square;stroke-linejoin:round;stroke-width:1.62px;}.cls-5{clip-path:url(#clip-path);}.cls-10,.cls-11,.cls-12,.cls-13,.cls-14,.cls-15,.cls-16,.cls-17,.cls-18,.cls-19,.cls-20,.cls-21,.cls-22,.cls-23,.cls-24,.cls-25,.cls-26,.cls-27,.cls-28,.cls-6,.cls-7,.cls-8,.cls-9{stroke:#b1d0e7;}.cls-10,.cls-11,.cls-12,.cls-13,.cls-14,.cls-15,.cls-16,.cls-17,.cls-18,.cls-19,.cls-20,.cls-21,.cls-22,.cls-23,.cls-24,.cls-25,.cls-26,.cls-27,.cls-28,.cls-29,.cls-30,.cls-31,.cls-32,.cls-33,.cls-6,.cls-7,.cls-8,.cls-9{stroke-miterlimit:10;}.cls-6{stroke-width:1.96px;}.cls-7{stroke-width:1.95px;}.cls-8{stroke-width:1.95px;}.cls-9{stroke-width:1.94px;}.cls-10{stroke-width:1.94px;}.cls-11{stroke-width:1.93px;}.cls-12{stroke-width:1.93px;}.cls-13{stroke-width:1.92px;}.cls-14{stroke-width:1.92px;}.cls-15{stroke-width:1.91px;}.cls-16{stroke-width:1.91px;}.cls-17{stroke-width:1.9px;}.cls-18{stroke-width:1.9px;}.cls-19{stroke-width:1.9px;}.cls-20{stroke-width:1.89px;}.cls-21{stroke-width:1.89px;}.cls-22{stroke-width:1.88px;}.cls-23{stroke-width:1.88px;}.cls-24{stroke-width:1.87px;}.cls-25{stroke-width:1.87px;}.cls-26{stroke-width:1.86px;}.cls-27{stroke-width:1.86px;}.cls-28{stroke-width:1.85px;}.cls-29,.cls-30,.cls-31,.cls-32,.cls-33{stroke:#b1d0e6;}.cls-29{stroke-width:1.85px;}.cls-30{stroke-width:1.84px;}.cls-31{stroke-width:1.84px;}.cls-32{stroke-width:1.84px;}.cls-33{stroke-width:1.83px;}</style><clipPath id="clip-path"><rect class="cls-1" x="2.79" y="-2990.17" width="3475.47" height="2860.12"/></clipPath></defs><title>arrowr1</title><path class="cls-2" d="M6.18,65.1c7.56-7.67,11.34-12,11.34-15.95,0-2.88-1.55-5.11-5-5.11a7.21,7.21,0,0,0-5.36,3l-1-1c1.73-1.91,3.74-3.38,6.55-3.38,4.1,0,6.48,2.56,6.48,6.44,0,4.57-4.18,9-10.55,15.73,1.26-.07,2.59-0.18,3.85-0.18h7.85v1.44H6.18v-1Z"/><path class="cls-3" d="M13.83,103a6.29,6.29,0,0,1,4.79,2.21l-0.76.84a5.32,5.32,0,0,0-4-1.88c-4,0-6.55,3.22-6.55,8.34S9.77,121,13.72,121a5.91,5.91,0,0,0,4.68-2.27l0.76,0.81a6.85,6.85,0,0,1-5.49,2.63c-4.54,0-7.73-3.72-7.73-9.6S9.12,103,13.83,103Z"/><path class="cls-3" d="M22.17,108.39H23.4v8.46c0,2.86.9,4.2,3.05,4.2,1.6,0,2.77-.84,4.34-2.74v-9.91H32v13.44H31l-0.14-2.24H30.8c-1.32,1.54-2.72,2.58-4.56,2.58-2.77,0-4.06-1.68-4.06-5.15v-8.62Z"/><path class="cls-3" d="M36.87,108.39h1.06L38,110.89h0.08c0.9-1.65,2.21-2.83,3.81-2.83a2.77,2.77,0,0,1,1.34.28L43,109.46a2.93,2.93,0,0,0-1.23-.22c-1.2,0-2.63.92-3.67,3.44v9.16H36.87V108.39Z"/><path class="cls-3" d="M45.44,108.39H46.5l0.11,2.49H46.7c0.9-1.65,2.21-2.83,3.81-2.83a2.77,2.77,0,0,1,1.34.28l-0.28,1.12a2.93,2.93,0,0,0-1.23-.22c-1.2,0-2.63.92-3.67,3.44v9.16H45.44V108.39Z"/><path class="cls-3" d="M58.74,108.06c3.19,0,5.15,2.27,5.15,6.22a6.12,6.12,0,0,1-.06,1H54.15c0.06,3.39,2,5.82,5.07,5.82a6,6,0,0,0,3.61-1.2l0.5,1a7.49,7.49,0,0,1-4.23,1.32c-3.44,0-6.22-2.63-6.22-7S55.74,108.06,58.74,108.06Zm4,6.27c0-3.44-1.54-5.21-3.95-5.21s-4.34,2-4.62,5.21h8.57Z"/><path class="cls-3" d="M67.22,108.39h1.06l0.11,2.07h0.08c1.37-1.37,2.77-2.41,4.62-2.41,2.77,0,4.06,1.68,4.06,5.15v8.62H75.93v-8.46c0-2.86-.9-4.2-3.08-4.2-1.6,0-2.74.84-4.4,2.52v10.14H67.22V108.39Z"/><path class="cls-3" d="M82.12,109.46H80v-1l2.13-.11,0.17-3.89h1.06v3.89h3.89v1.06H83.38v8.76c0,1.71.42,2.86,2.27,2.86a4.51,4.51,0,0,0,1.68-.42l0.34,1a7.5,7.5,0,0,1-2.18.5c-2.6,0-3.36-1.65-3.36-4.06v-8.65Z"/><path class="cls-3" d="M95.5,108.39h1.06l0.11,2.07h0.08a6.16,6.16,0,0,1,4.23-2.41,3.49,3.49,0,0,1,3.72,2.74c1.54-1.68,3-2.74,4.56-2.74,2.69,0,4,1.68,4,5.15v8.62H112v-8.46c0-2.86-1-4.2-3-4.2-1.26,0-2.55.84-4,2.52v10.14h-1.23v-8.46c0-2.86-1-4.2-3-4.2q-1.81,0-4,2.52v10.14H95.5V108.39Z"/><path class="cls-3" d="M122.83,108.06c3.25,0,6,2.58,6,7.08s-2.8,7-6,7-6-2.58-6-7S119.61,108.06,122.83,108.06Zm0,13c2.72,0,4.76-2.41,4.76-5.94s-2-6-4.76-6-4.73,2.44-4.73,6S120.11,121.08,122.83,121.08Z"/><path class="cls-3" d="M137.45,108.06a6.21,6.21,0,0,1,4.06,1.65l-0.06-2.46V101.7h1.23v20.13h-1.06l-0.11-1.74h-0.08a6.29,6.29,0,0,1-4.37,2.07c-3.39,0-5.57-2.49-5.57-7C131.48,110.8,134.25,108.06,137.45,108.06Zm-0.22,13c1.48,0,2.8-.78,4.23-2.21v-8a5.68,5.68,0,0,0-3.92-1.74c-2.69,0-4.73,2.6-4.73,6C132.8,118.7,134.37,121.08,137.22,121.08Z"/><path class="cls-3" d="M152.26,108.06c3.19,0,5.15,2.27,5.15,6.22a6.12,6.12,0,0,1-.06,1h-9.69c0.06,3.39,2,5.82,5.07,5.82a6,6,0,0,0,3.61-1.2l0.5,1a7.49,7.49,0,0,1-4.23,1.32c-3.44,0-6.22-2.63-6.22-7S149.26,108.06,152.26,108.06Zm4,6.27c0-3.44-1.54-5.21-3.95-5.21s-4.34,2-4.62,5.21h8.57Z"/><path class="cls-3" d="M160.74,101.7H162v18.51c0,0.59.25,0.87,0.59,0.87a2.19,2.19,0,0,0,.5-0.06l0.22,1a2.61,2.61,0,0,1-.9.14c-1.09,0-1.65-.67-1.65-2.13V101.7Z"/><path class="cls-3" d="M166.12,119.4a6.24,6.24,0,0,0,4.28,1.71c2.1,0,3.19-1.23,3.19-2.66,0-1.68-1.74-2.41-3.28-3-2-.73-4.28-1.54-4.28-3.84,0-2,1.54-3.58,4.34-3.58a6.24,6.24,0,0,1,3.84,1.4l-0.67.87a5.09,5.09,0,0,0-3.22-1.2c-2.07,0-3,1.2-3,2.44,0,1.48,1.57,2.13,3.16,2.72,2.1,0.78,4.4,1.48,4.4,4.12,0,2-1.62,3.78-4.54,3.78a7.78,7.78,0,0,1-4.93-1.85Z"/><path class="cls-3" d="M191.29,113.41c0.06-2-.53-4.26-3.16-4.26a7.42,7.42,0,0,0-4.28,1.57l-0.56-.92a9,9,0,0,1,5-1.74c3.19,0,4.26,2.3,4.26,5.18v8.6h-1l-0.14-1.74h-0.06a8,8,0,0,1-4.76,2.07c-2.13,0-3.92-1.15-3.92-3.7C182.61,115.51,185.32,114.08,191.29,113.41Zm-4.56,7.7c1.54,0,2.91-.76,4.56-2.18v-4.56c-5.52.64-7.39,1.93-7.39,4.06A2.52,2.52,0,0,0,186.72,121.11Z"/><path class="cls-3" d="M197,108.39h1.06l0.11,2.07h0.08c1.37-1.37,2.77-2.41,4.62-2.41,2.77,0,4.06,1.68,4.06,5.15v8.62h-1.23v-8.46c0-2.86-.9-4.2-3.08-4.2-1.6,0-2.74.84-4.4,2.52v10.14H197V108.39Z"/><path class="cls-3" d="M216.46,108.06a6.21,6.21,0,0,1,4.06,1.65l-0.06-2.46V101.7h1.23v20.13h-1.06l-0.11-1.74h-0.08a6.29,6.29,0,0,1-4.37,2.07c-3.39,0-5.57-2.49-5.57-7C210.5,110.8,213.27,108.06,216.46,108.06Zm-0.22,13c1.48,0,2.8-.78,4.23-2.21v-8a5.68,5.68,0,0,0-3.92-1.74c-2.69,0-4.73,2.6-4.73,6C211.81,118.7,213.38,121.08,216.24,121.08Z"/><path class="cls-3" d="M233,123v4.9H231.8V108.39h1.06l0.11,1.68h0.08a7.86,7.86,0,0,1,4.56-2c3.58,0,5.38,2.69,5.38,6.86,0,4.56-2.77,7.25-5.94,7.25a7.11,7.11,0,0,1-4-1.65V123Zm4-1.93c2.72,0,4.68-2.52,4.68-6.16,0-3.3-1.18-5.77-4.26-5.77-1.34,0-2.77.78-4.4,2.21v8A6.59,6.59,0,0,0,237,121.08Z"/><path class="cls-3" d="M246.73,108.39h1.06l0.11,2.49H248c0.9-1.65,2.21-2.83,3.81-2.83a2.77,2.77,0,0,1,1.34.28l-0.28,1.12a2.93,2.93,0,0,0-1.23-.22c-1.2,0-2.63.92-3.67,3.44v9.16h-1.23V108.39Z"/><path class="cls-3" d="M263.22,113.41c0.06-2-.53-4.26-3.16-4.26a7.42,7.42,0,0,0-4.28,1.57l-0.56-.92a9,9,0,0,1,5-1.74c3.19,0,4.26,2.3,4.26,5.18v8.6h-1l-0.14-1.74h-0.06a8,8,0,0,1-4.76,2.07c-2.13,0-3.92-1.15-3.92-3.7C254.54,115.51,257.25,114.08,263.22,113.41Zm-4.56,7.7c1.54,0,2.91-.76,4.56-2.18v-4.56c-5.52.64-7.39,1.93-7.39,4.06A2.52,2.52,0,0,0,258.65,121.11Z"/><path class="cls-3" d="M274,108.06a5.52,5.52,0,0,1,3.95,1.65l-0.73.87a4.58,4.58,0,0,0-3.19-1.43c-2.74,0-4.87,2.44-4.87,6s1.93,5.94,4.87,5.94a5.4,5.4,0,0,0,3.58-1.54l0.64,0.84a6.35,6.35,0,0,1-4.28,1.79c-3.47,0-6.1-2.58-6.1-7S270.69,108.06,274,108.06Z"/><path class="cls-3" d="M281.53,109.46h-2.1v-1l2.13-.11,0.17-3.89h1.06v3.89h3.89v1.06h-3.89v8.76c0,1.71.42,2.86,2.27,2.86a4.51,4.51,0,0,0,1.68-.42l0.34,1a7.5,7.5,0,0,1-2.18.5c-2.6,0-3.36-1.65-3.36-4.06v-8.65Z"/><path class="cls-3" d="M289.17,104.05a1.12,1.12,0,1,1,1.12,1.09A1.07,1.07,0,0,1,289.17,104.05Zm0.48,4.34h1.23v13.44h-1.23V108.39Z"/><path class="cls-3" d="M300.77,108.06a5.52,5.52,0,0,1,3.95,1.65l-0.73.87a4.58,4.58,0,0,0-3.19-1.43c-2.74,0-4.87,2.44-4.87,6s1.93,5.94,4.87,5.94a5.4,5.4,0,0,0,3.58-1.54l0.64,0.84a6.35,6.35,0,0,1-4.28,1.79c-3.47,0-6.1-2.58-6.1-7S297.49,108.06,300.77,108.06Z"/><path class="cls-3" d="M312.75,108.06c3.19,0,5.15,2.27,5.15,6.22a6.12,6.12,0,0,1-.06,1h-9.69c0.06,3.39,2,5.82,5.07,5.82a6,6,0,0,0,3.61-1.2l0.5,1a7.49,7.49,0,0,1-4.23,1.32c-3.44,0-6.22-2.63-6.22-7S309.75,108.06,312.75,108.06Zm4,6.27c0-3.44-1.54-5.21-3.95-5.21s-4.34,2-4.62,5.21h8.57Z"/><path class="cls-3" d="M320.28,119.4a6.24,6.24,0,0,0,4.28,1.71c2.1,0,3.19-1.23,3.19-2.66,0-1.68-1.74-2.41-3.28-3-2-.73-4.28-1.54-4.28-3.84,0-2,1.54-3.58,4.34-3.58a6.24,6.24,0,0,1,3.84,1.4l-0.67.87a5.09,5.09,0,0,0-3.22-1.2c-2.07,0-3,1.2-3,2.44,0,1.48,1.57,2.13,3.16,2.72,2.1,0.78,4.4,1.48,4.4,4.12,0,2-1.62,3.78-4.54,3.78a7.78,7.78,0,0,1-4.93-1.85Z"/><polyline class="cls-4" points="4.5 84.76 350.35 84.76 326.35 67.54"/><g class="cls-5"><path class="cls-6" d="M-196.79,31.63C-69.64-96.19-38-238.53-30-363.16c7-109,3.39-212.7,37.14-287,66.48-146.29-502.34-50.65-469.6-181.23,28.14-112.27,107.37-257.81,190.87-410,168.33-306.95,361.28-643.23,191-794.79C-316.59-2245.32,431.53-2460.8-409.61-3024"/><path class="cls-7" d="M-168.84,30.59C-44.56-98.82-10-245.36-3.66-369.13,1.92-477.38.54-584.75,33.44-659.32c64.44-146-498.43-51.57-465.66-182.18,28.15-112.21,106.84-257.39,189.06-408.69,165.69-305.17,360.63-640.17,190.62-792-234.21-209.18,506.87-422.52-327.88-982.65"/><path class="cls-8" d="M-140.89,29.55C-19.48-101.44,18-252.16,22.66-375.11c4.1-107.51,5-218.52,37.06-293.38C122.13-814.26-434.8-721-402-851.61c28.16-112.15,106.31-257,187.25-407.38C-51.69-1562.38,145-1895.91-24.55-2048.22c-232.62-208.91,501.69-420.41-326.67-977.42"/><path class="cls-9" d="M-112.94,28.51C5.6-104.07,46-259,49-381.08c2.62-106.75,5.8-221.4,37-296.58,60.39-145.48-490.62-53.4-457.77-184.06,28.16-112.09,105.77-256.56,185.44-406.08,160.41-301.61,359-633.65,189.77-786.45-231-208.64,496.51-418.3-325.46-972.2"/><path class="cls-10" d="M-85,27.47C30.68-106.69,74-265.72,75.3-387.06c1.15-106,6.59-224.26,37-299.79,58.39-145.15-486.71-54.31-453.83-185,28.17-112,105.24-256.14,183.63-404.77C-0.15-1576.45,200.21-1907,31.42-2060.28c-229.45-208.36,491.32-416.19-324.25-967"/><path class="cls-11" d="M-57,26.43C55.76-109.32,102-272.46,101.62-393c-0.32-105.21,7.38-227.1,36.93-303,56.4-144.81-482.8-55.23-449.89-186,28.18-112,104.71-255.72,181.82-403.46,155.14-298.06,357.3-627.12,188.92-780.88-227.86-208.07,486.14-414.07-323-961.76"/><path class="cls-12" d="M-29.08,25.4C80.84-111.95,130-279.19,127.94-399c-1.79-104.42,8.15-229.91,36.89-306.19,54.42-144.43-478.89-56.15-445.94-186.89,28.19-111.9,104.18-255.3,180-402.15,152.5-296.28,356.47-623.86,188.49-778.1-226.28-207.78,481-412-321.83-956.53"/><path class="cls-13" d="M-1.13,24.36C105.91-114.57,158-285.89,154.26-405,151-508.6,163.18-637.7,191.11-714.37c52.46-144-475-57.06-442-187.84,28.19-111.84,103.64-254.88,178.2-400.84,149.86-294.5,355.64-620.59,188.07-775.32-224.7-207.49,475.77-409.85-320.62-951.31"/><path class="cls-14" d="M26.82,23.32C131-117.2,186-292.58,180.58-411c-4.72-102.8,9.69-235.48,36.81-312.59,50.51-143.61-471.08-58-438.05-188.78,28.2-111.78,103.11-254.47,176.39-399.53,147.22-292.72,354.81-617.31,187.65-772.53C-79.76-2291.59,614-2492.14-176-3030.49"/><path class="cls-15" d="M54.78,22.28C156.07-119.82,214-299.24,206.9-416.94c-6.18-102,10.44-238.24,36.76-315.79,48.59-143.16-467.17-58.89-434.11-189.73,28.21-111.72,102.58-254,174.58-398.22,144.59-290.94,354-614,187.22-769.75-221.55-206.89,465.4-405.63-318.21-940.86"/><path class="cls-16" d="M82.73,21.24C181.15-122.45,242-305.88,233.22-422.91c-7.63-101.13,11.19-241,36.72-319,46.69-142.69-463.27-59.81-430.17-190.67,28.22-111.66,102-253.63,172.77-396.92,141.95-289.17,353.15-610.76,186.8-767-220-206.58,460.22-403.52-317-935.64"/><path class="cls-17" d="M110.68,20.2c95.55-145.28,159.39-332.7,148.86-449.09-9.07-100.27,11.94-243.68,36.68-322.19C341-893.27-163.14-811.8-130-942.69c28.22-111.6,101.51-253.21,171-395.61,139.31-287.39,352.32-607.48,186.37-764.19-218.42-206.26,455-401.41-315.79-930.42"/><path class="cls-18" d="M138.63,19.16c92.68-146.86,159.47-338.25,147.23-454-10.51-99.41,12.68-246.37,36.64-325.39C365.44-901.92-133-821.89-99.78-952.81c28.23-111.54,101-252.79,169.15-394.3C206-1632.72,420.85-1951.31,255.32-2108.52,38.47-2314.46,705.17-2507.81-59.27-3033.71"/><path class="cls-19" d="M166.59,18.13c89.81-148.45,159.55-343.79,145.59-459-11.94-98.53,13.42-249,36.6-328.59C389.88-910.55-102.77-832-69.56-962.93c28.24-111.48,100.45-252.38,167.34-393,134-283.83,350.66-600.91,185.52-758.62C68-2320.17,728-2511.73-30.07-3034.52"/><path class="cls-20" d="M194.54,17.09c86.93-150,159.64-349.3,144-463.9-13.36-97.63,14.16-251.68,36.55-331.79C414.35-919.15-72.59-842.07-39.34-973.05c28.25-111.41,99.92-252,165.53-391.68,131.39-282.05,349.82-597.62,185.1-755.84C97.56-2325.87,750.78-2515.65-.87-3035.32"/><path class="cls-21" d="M222.49,16c84.06-151.62,159.74-354.79,142.33-468.84-14.76-96.73,14.89-254.31,36.51-335C438.84-927.73-42.4-852.16-9.12-983.17c28.25-111.35,99.38-251.54,163.72-390.37,128.76-280.28,349-594.33,184.67-753.06-212.17-205,434.3-393-311-909.52"/><path class="cls-22" d="M250.44,15c81.19-153.21,159.84-360.26,140.7-473.78C375-554.58,406.75-715.68,427.61-797c35.75-139.33-439.83-65.3-406.5-196.33C49.36-1104.58,120-1244.41,183-1382.36c126.12-278.5,348.16-591,184.25-750.28-210.62-204.61,429.12-390.85-309.75-904.3"/><path class="cls-23" d="M278.39,14c78.31-154.8,160-365.7,139.06-478.71-17.54-94.88,16.34-259.5,36.43-341.39C487.9-944.82,18-872.35,51.32-1003.41c28.27-111.23,98.32-250.71,160.1-387.76,123.48-276.72,347.33-587.74,183.83-747.5C186.19-2342.93,819.19-2527.4,86.71-3037.74"/><path class="cls-24" d="M306.35,12.93C381.79-143.45,466.43-358.2,443.78-470.72c-18.91-93.94,17.07-262.07,36.39-344.59,32.31-138-432-67.13-398.62-198.22C109.82-1124.7,179.61-1263.7,239.84-1400c121.4-274.7,346.5-584.44,183.4-744.71C215.72-2348.61,842-2531.32,115.91-3038.55"/><path class="cls-25" d="M334.3,11.89c72.57-158,160.22-376.53,135.8-488.59-20.27-93,17.79-264.61,36.34-347.79,30.64-137.33-428.1-68-394.67-199.16,28.28-111.11,97.54-249.74,156.48-385.14,118.79-272.91,345.67-581.14,183-741.93-206-203.57,413.57-384.51-306.12-888.63"/><path class="cls-26" d="M362.25,10.86c69.7-159.56,160.37-381.92,134.16-493.53-21.61-92,33.76-265.31,36.3-351,52.9-129.25-424.2-69-390.73-200.11,28.29-111,97-249.32,154.67-383.83,116.18-271.12,344.84-577.84,182.55-739.15C274.78-2360,887.6-2539.16,174.3-3040.16"/><path class="cls-27" d="M390.2,9.82C457-151.33,550.74-377.47,522.74-488.65,499.8-579.7,558-756.6,559-842.84c52.16-128.43-420.29-69.87-386.79-201,28.3-111,96.51-248.9,152.86-382.52,113.58-269.33,344-574.53,182.13-736.37C304.31-2365.62,910.4-2543.07,203.5-3041"/><path class="cls-28" d="M418.16,8.78c64-162.73,160.72-392.63,130.9-503.4-24.25-90.08,36.73-270.6,36.22-357.4,51.42-127.61-416.38-70.79-382.84-202,28.31-110.92,96-248.47,151.05-381.22,111-267.55,343.17-571.22,181.7-733.59-201.35-202.47,398-378.18-302.5-873"/><path class="cls-29" d="M446.11,7.74C507.19-156.58,607-390.21,575.37-500.6c-25.54-89.09,38.21-273.25,36.18-360.6,50.67-126.79-412.48-71.7-378.9-202.94C261-1175,328.13-1312.18,381.89-1444c108.36-265.76,342.34-567.91,181.28-730.8C363.35-2376.94,956-2550.91,261.89-3042.58"/><path class="cls-30" d="M474.06,6.7C532.27-159.2,635.18-396.56,601.69-506.57c-26.81-88.09,39.7-275.89,36.13-363.8,49.93-126-408.57-72.62-375-203.88,28.32-110.8,95-247.63,147.43-378.6,105.76-264,341.5-564.6,180.86-728-198.29-201.72,387.65-374-300.08-862.52"/><path class="cls-31" d="M502,5.66c55.33-167.49,161.34-408.56,126-518.21-28.06-87.08,41.18-278.54,36.09-367,49.19-125.14-404.66-73.53-371-204.82,28.33-110.74,94.44-247.21,145.62-377.29,103.15-262.19,340.67-561.28,180.43-725.24-196.76-201.33,382.46-371.84-298.87-857.29"/><path class="cls-32" d="M530,4.62c52.46-169.08,161.58-413.83,124.37-523.15C625-604.6,697-799.71,690.38-888.72c48.44-124.32-400.76-74.45-367.07-205.77,28.34-110.68,93.93-246.79,143.81-376,100.55-260.41,339.84-558,180-722.46C451.9-2393.87,1024.42-2562.66,349.47-3045"/><path class="cls-33" d="M557.92,3.59C607.5-167.08,719.76-415.51,680.65-524.5c-30.52-85.06,44.15-283.83,36-373.4,47.7-123.5-396.85-75.36-363.12-206.71,28.34-110.62,93.41-246.37,142-374.67,97.94-258.62,339-554.64,179.58-719.68-193.72-200.55,372.1-367.62-296.45-846.85"/></g></svg>