<svg id="Layer_1" data-name="Layer 1" xmlns="http://www.w3.org/2000/svg" xmlns:xlink="http://www.w3.org/1999/xlink" viewBox="0 0 354.67 174.01"><defs><style>.cls-1,.cls-10,.cls-11,.cls-12,.cls-13,.cls-14,.cls-15,.cls-16,.cls-17,.cls-18,.cls-19,.cls-20,.cls-21,.cls-4,.cls-6,.cls-7,.cls-8,.cls-9{fill:none;}.cls-2{fill:#2e74b4;}.cls-3{fill:#231f20;}.cls-4{stroke:#2e74b4;stroke-linecap:square;stroke-linejoin:round;stroke-width:1.62px;}.cls-5{clip-path:url(#clip-path);}.cls-10,.cls-11,.cls-12,.cls-13,.cls-6,.cls-7,.cls-8,.cls-9{stroke:#b1d0e7;}.cls-10,.cls-11,.cls-12,.cls-13,.cls-14,.cls-15,.cls-16,.cls-17,.cls-18,.cls-19,.cls-20,.cls-21,.cls-6,.cls-7,.cls-8,.cls-9{stroke-miterlimit:10;}.cls-6{stroke-width:1.89px;}.cls-7{stroke-width:1.88px;}.cls-8{stroke-width:1.88px;}.cls-9{stroke-width:1.87px;}.cls-10{stroke-width:1.87px;}.cls-11{stroke-width:1.86px;}.cls-12{stroke-width:1.86px;}.cls-13{stroke-width:1.85px;}.cls-14,.cls-15,.cls-16,.cls-17,.cls-18,.cls-19,.cls-20,.cls-21{stroke:#b1d0e6;}.cls-14{stroke-width:1.85px;}.cls-15{stroke-width:1.84px;}.cls-16{stroke-width:1.84px;}.cls-17{stroke-width:1.84px;}.cls-18{stroke-width:1.83px;}.cls-19{stroke-width:1.83px;}.cls-20{stroke-width:1.82px;}.cls-21{stroke-width:1.82px;}</style><clipPath id="clip-path"><rect class="cls-1" x="-390.41" y="-2990.17" width="3475.47" height="2860.12"/></clipPath></defs><title>arrowr2</title><path class="cls-2" d="M6.68,62.19a8,8,0,0,0,6.37,3c3.1,0,5.36-2,5.36-5.08s-2.3-5.33-8-5.33v-1.4c5.33,0,7.2-2.23,7.2-5,0-2.59-1.84-4.28-4.64-4.28a7.42,7.42,0,0,0-5.29,2.52L6.72,45.49a8.72,8.72,0,0,1,6.23-2.81c3.56,0,6.3,2,6.3,5.54,0,3-1.87,4.82-4.39,5.69v0.14c2.84,0.61,5.22,2.74,5.22,6,0,4-3.06,6.51-7,6.51A9.53,9.53,0,0,1,5.75,63.3Z"/><path class="cls-3" d="M11.11,104.5H5.23v-1.12h13v1.12H12.4v17.33H11.11V104.5Z"/><path class="cls-3" d="M26,108.06c3.19,0,5.15,2.27,5.15,6.22a6.12,6.12,0,0,1-.06,1H21.39c0.06,3.39,2,5.82,5.07,5.82a6,6,0,0,0,3.61-1.2l0.5,1a7.49,7.49,0,0,1-4.23,1.32c-3.44,0-6.22-2.63-6.22-7S23,108.06,26,108.06Zm4,6.27c0-3.44-1.54-5.21-3.95-5.21s-4.34,2-4.62,5.21H30Z"/><path class="cls-3" d="M42.39,113.41c0.06-2-.53-4.26-3.16-4.26a7.42,7.42,0,0,0-4.28,1.57l-0.56-.92a9,9,0,0,1,5-1.74c3.19,0,4.26,2.3,4.26,5.18v8.6h-1l-0.14-1.74H42.39a8,8,0,0,1-4.76,2.07c-2.13,0-3.92-1.15-3.92-3.7C33.71,115.51,36.42,114.08,42.39,113.41Zm-4.56,7.7c1.54,0,2.91-.76,4.56-2.18v-4.56c-5.52.64-7.39,1.93-7.39,4.06A2.52,2.52,0,0,0,37.82,121.11Z"/><path class="cls-3" d="M48.13,108.39h1.06l0.11,2.07h0.08a6.16,6.16,0,0,1,4.23-2.41,3.5,3.5,0,0,1,3.72,2.74c1.54-1.68,3-2.74,4.56-2.74,2.69,0,4,1.68,4,5.15v8.62H64.68v-8.46c0-2.86-1-4.2-3-4.2-1.26,0-2.55.84-4,2.52v10.14H56.42v-8.46c0-2.86-1-4.2-3-4.2q-1.81,0-4,2.52v10.14H48.13V108.39Z"/><path class="cls-3" d="M75.82,108.39h1.06L77,110.89h0.08c0.9-1.65,2.21-2.83,3.81-2.83a2.77,2.77,0,0,1,1.34.28L82,109.46a2.93,2.93,0,0,0-1.23-.22c-1.2,0-2.63.92-3.67,3.44v9.16H75.82V108.39Z"/><path class="cls-3" d="M89.29,108.06c3.25,0,6,2.58,6,7.08s-2.8,7-6,7-6-2.58-6-7S86.07,108.06,89.29,108.06Zm0,13c2.72,0,4.76-2.41,4.76-5.94s-2-6-4.76-6-4.73,2.44-4.73,6S86.57,121.08,89.29,121.08Z"/><path class="cls-3" d="M99.06,101.7h1.23v18.51c0,0.59.25,0.87,0.59,0.87a2.19,2.19,0,0,0,.5-0.06l0.22,1a2.61,2.61,0,0,1-.9.14c-1.09,0-1.65-.67-1.65-2.13V101.7Z"/><path class="cls-3" d="M110.12,108.06c3.19,0,5.15,2.27,5.15,6.22a6.12,6.12,0,0,1-.06,1h-9.69c0.06,3.39,2,5.82,5.07,5.82a6,6,0,0,0,3.61-1.2l0.5,1a7.49,7.49,0,0,1-4.23,1.32c-3.44,0-6.22-2.63-6.22-7S107.12,108.06,110.12,108.06Zm4,6.27c0-3.44-1.54-5.21-3.95-5.21s-4.34,2-4.62,5.21h8.57Z"/><path class="cls-3" d="M117.65,119.4a6.24,6.24,0,0,0,4.28,1.71c2.1,0,3.19-1.23,3.19-2.66,0-1.68-1.74-2.41-3.28-3-2-.73-4.28-1.54-4.28-3.84,0-2,1.54-3.58,4.34-3.58a6.24,6.24,0,0,1,3.84,1.4l-0.67.87a5.09,5.09,0,0,0-3.22-1.2c-2.07,0-3,1.2-3,2.44,0,1.48,1.57,2.13,3.16,2.72,2.1,0.78,4.4,1.48,4.4,4.12,0,2-1.62,3.78-4.54,3.78a7.78,7.78,0,0,1-4.93-1.85Z"/><path class="cls-3" d="M142.82,113.41c0.06-2-.53-4.26-3.16-4.26a7.42,7.42,0,0,0-4.28,1.57l-0.56-.92a9,9,0,0,1,5-1.74c3.19,0,4.26,2.3,4.26,5.18v8.6h-1l-0.14-1.74h-0.06a8,8,0,0,1-4.76,2.07c-2.13,0-3.92-1.15-3.92-3.7C134.14,115.51,136.86,114.08,142.82,113.41Zm-4.56,7.7c1.54,0,2.91-.76,4.56-2.18v-4.56c-5.52.64-7.39,1.93-7.39,4.06A2.52,2.52,0,0,0,138.26,121.11Z"/><path class="cls-3" d="M148.56,108.39h1.06l0.11,2.07h0.08c1.37-1.37,2.77-2.41,4.62-2.41,2.77,0,4.06,1.68,4.06,5.15v8.62h-1.23v-8.46c0-2.86-.9-4.2-3.08-4.2-1.6,0-2.74.84-4.4,2.52v10.14h-1.23V108.39Z"/><path class="cls-3" d="M168,108.06a6.21,6.21,0,0,1,4.06,1.65L172,107.25V101.7h1.23v20.13h-1.06l-0.11-1.74H172a6.29,6.29,0,0,1-4.37,2.07c-3.39,0-5.57-2.49-5.57-7C162,110.8,164.8,108.06,168,108.06Zm-0.22,13c1.48,0,2.8-.78,4.23-2.21v-8a5.68,5.68,0,0,0-3.92-1.74c-2.69,0-4.73,2.6-4.73,6C163.35,118.7,164.91,121.08,167.77,121.08Z"/><path class="cls-3" d="M188.18,108.06a6.21,6.21,0,0,1,4.06,1.65l-0.06-2.46V101.7h1.23v20.13h-1.06l-0.11-1.74h-0.08a6.29,6.29,0,0,1-4.37,2.07c-3.39,0-5.57-2.49-5.57-7C182.22,110.8,185,108.06,188.18,108.06Zm-0.22,13c1.48,0,2.8-.78,4.23-2.21v-8a5.68,5.68,0,0,0-3.92-1.74c-2.69,0-4.73,2.6-4.73,6C183.53,118.7,185.1,121.08,188,121.08Z"/><path class="cls-3" d="M198.07,108.39h1.23v8.46c0,2.86.9,4.2,3.05,4.2,1.6,0,2.77-.84,4.34-2.74v-9.91h1.23v13.44h-1l-0.14-2.24h-0.06c-1.32,1.54-2.72,2.58-4.56,2.58-2.77,0-4.06-1.68-4.06-5.15v-8.62Z"/><path class="cls-3" d="M213.07,109.46H211v-1l2.13-.11,0.17-3.89h1.06v3.89h3.89v1.06h-3.89v8.76c0,1.71.42,2.86,2.27,2.86a4.51,4.51,0,0,0,1.68-.42l0.34,1a7.5,7.5,0,0,1-2.18.5c-2.6,0-3.36-1.65-3.36-4.06v-8.65Z"/><path class="cls-3" d="M220.72,104.05a1.12,1.12,0,1,1,1.12,1.09A1.07,1.07,0,0,1,220.72,104.05Zm0.48,4.34h1.23v13.44h-1.23V108.39Z"/><path class="cls-3" d="M232,108.06c3.19,0,5.15,2.27,5.15,6.22a6.12,6.12,0,0,1-.06,1h-9.69c0.06,3.39,2,5.82,5.07,5.82a6,6,0,0,0,3.61-1.2l0.5,1a7.49,7.49,0,0,1-4.23,1.32c-3.44,0-6.22-2.63-6.22-7S229,108.06,232,108.06Zm4,6.27c0-3.44-1.54-5.21-3.95-5.21s-4.34,2-4.62,5.21H236Z"/><path class="cls-3" d="M239.56,119.4a6.24,6.24,0,0,0,4.28,1.71c2.1,0,3.19-1.23,3.19-2.66,0-1.68-1.74-2.41-3.28-3-2-.73-4.28-1.54-4.28-3.84,0-2,1.54-3.58,4.34-3.58a6.24,6.24,0,0,1,3.84,1.4l-0.67.87a5.09,5.09,0,0,0-3.22-1.2c-2.07,0-3,1.2-3,2.44,0,1.48,1.57,2.13,3.16,2.72,2.1,0.78,4.4,1.48,4.4,4.12,0,2-1.62,3.78-4.54,3.78a7.78,7.78,0,0,1-4.93-1.85Z"/><polyline class="cls-4" points="4.5 84.76 350.35 84.76 326.35 67.54"/><g class="cls-5"><path class="cls-6" d="M-170.7,16C-86.64-135.57-11-338.74-28.38-452.79c-14.76-96.73,14.89-254.31,36.51-335C45.64-927.73-435.6-852.16-402.31-983.17c28.25-111.35,99.38-251.54,163.72-390.37,128.76-280.28,349-594.33,184.67-753.06-212.17-205,434.3-393-311-909.52"/><path class="cls-7" d="M-142.75,15C-61.56-138.2,17.09-345.25-2.06-458.77-18.22-554.58,13.56-715.68,34.41-797c35.75-139.33-439.83-65.3-406.5-196.33,28.26-111.29,98.85-251.12,161.91-389.07,126.12-278.5,348.16-591,184.25-750.28-210.62-204.61,429.12-390.85-309.75-904.3"/><path class="cls-8" d="M-114.8,14c78.31-154.8,160-365.7,139.06-478.71C6.72-559.62,40.6-724.24,60.69-806.14c34-138.68-435.92-66.21-402.56-197.28,28.27-111.23,98.32-250.71,160.1-387.76,123.48-276.72,347.33-587.74,183.83-747.5C-207-2342.93,426-2527.4-306.48-3037.74"/><path class="cls-9" d="M-86.85,12.93C-11.41-143.45,73.24-358.2,50.58-470.72,31.67-564.66,67.65-732.78,87-815.31c32.31-138-432-67.13-398.62-198.22,28.28-111.17,98.06-250.16,158.29-386.45C-32-1674.68,193.14-1984.42,30-2144.69c-207.52-203.92,418.75-386.63-307.33-893.85"/><path class="cls-10" d="M-58.9,11.89c72.57-158,160.22-376.53,135.8-488.59-20.27-93,17.79-264.61,36.34-347.79,30.64-137.33-428.1-68-394.67-199.16,28.28-111.11,97.54-249.74,156.48-385.14C-6.16-1681.7,220.72-1989.93,58-2150.72c-206-203.57,413.57-384.51-306.12-888.63"/><path class="cls-11" d="M-30.94,10.86C38.75-148.7,129.43-371.06,103.22-482.67c-21.61-92,33.76-265.31,36.3-351,52.9-129.25-424.2-69-390.73-200.11,28.29-111,97-249.32,154.67-383.83C19.65-1688.72,248.3-1995.44,86-2156.75-118.41-2360,494.4-2539.16-218.89-3040.16"/><path class="cls-12" d="M-3,9.82C63.83-151.33,157.55-377.47,129.54-488.65c-22.94-91.06,35.24-268,36.26-354.2C218-971.27-254.49-912.71-221-1043.89c28.3-111,96.51-248.9,152.86-382.52,113.58-269.33,344-574.53,182.13-736.37C-88.88-2365.62,517.2-2543.07-189.7-3041"/><path class="cls-13" d="M25,8.78c64-162.73,160.72-392.63,130.9-503.4-24.25-90.08,36.73-270.6,36.22-357.4,51.42-127.61-416.38-70.79-382.84-202,28.31-110.92,96-248.47,151.05-381.22,111-267.55,343.17-571.22,181.7-733.59-201.35-202.47,398-378.18-302.5-873"/><path class="cls-14" d="M52.91,7.74C114-156.58,213.82-390.21,182.18-500.6c-25.54-89.09,38.21-273.25,36.18-360.6C269-988-194.12-932.9-160.54-1064.13-132.23-1175-65.07-1312.18-11.3-1444,97.06-1709.8,331-2011.95,170-2174.84c-199.82-202.1,392.83-376.07-301.29-867.74"/><path class="cls-15" d="M80.87,6.7C139.07-159.2,242-396.56,208.5-506.57c-26.81-88.09,39.7-275.89,36.13-363.8,49.93-126-408.57-72.62-375-203.88,28.32-110.8,95-247.63,147.43-378.6,105.76-264,341.5-564.6,180.86-728-198.29-201.72,387.65-374-300.08-862.52"/><path class="cls-16" d="M108.82,5.66c55.33-167.49,161.34-408.56,126-518.21-28.06-87.08,41.18-278.54,36.09-367,49.19-125.14-404.66-73.53-371-204.82,28.33-110.74,94.44-247.21,145.62-377.29C148.67-1723.85,386.19-2022.94,226-2186.9,29.19-2388.23,608.42-2558.75-72.92-3044.19"/><path class="cls-17" d="M136.77,4.62c52.46-169.08,161.58-413.83,124.37-523.15-29.3-86.07,42.67-281.18,36.05-370.2C345.63-1013-103.57-963.17-69.88-1094.49c28.34-110.68,93.93-246.79,143.81-376,100.55-260.41,339.84-558,180-722.46C58.7-2393.87,631.22-2562.66-43.72-3045"/><path class="cls-18" d="M164.72,3.59c49.59-170.67,161.84-419.1,122.73-528.09-30.52-85.06,44.15-283.83,36-373.4,47.7-123.5-396.85-75.36-363.12-206.71,28.34-110.62,93.41-246.37,142-374.67,97.94-258.62,339-554.64,179.58-719.68C88.21-2399.51,654-2566.58-14.53-3045.81"/><path class="cls-19" d="M192.68,2.55c46.71-172.25,162.11-424.34,121.1-533-31.71-84,45.64-286.48,36-376.6,47-122.68-392.94-76.28-359.18-207.66,28.35-110.56,92.89-245.95,140.19-373.37,95.34-256.84,338.16-551.31,179.16-716.89-192.2-200.15,366.91-365.51-295.24-841.62"/><path class="cls-20" d="M220.63,1.51C264.47-172.33,383-428.07,340.1-536.45c-32.89-83,47.12-289.12,35.93-379.8,46.21-121.86-389-77.19-355.24-208.6,28.36-110.49,92.38-245.53,138.38-372.06C251.9-1752,496.49-2044.89,337.9-2211c-190.68-199.74,361.73-363.4-294-836.4"/><path class="cls-21" d="M248.58,0.47c41-175.43,162.72-434.8,117.84-542.9-34-82,48.61-291.77,35.88-383C447.77-1046.46,17.17-1003.54,51-1135c28.37-110.43,91.86-245.11,136.57-370.75C277.7-1759,524.07-2050.37,365.89-2217c-189.17-199.33,356.55-361.29-292.83-831.18"/></g></svg>