<svg id="Layer_1" data-name="Layer 1" xmlns="http://www.w3.org/2000/svg" viewBox="0 0 75.04 75.04"><defs><style>.cls-1{fill:#fff;}.cls-2{fill:#2e74b4;}.cls-3{fill:none;stroke:#2e74b4;stroke-linecap:square;stroke-linejoin:round;stroke-width:1.26px;}</style></defs><title>arrowtop</title><path class="cls-1" d="M37.52,74.47A36.95,36.95,0,1,1,74.47,37.52,37,37,0,0,1,37.52,74.47Z"/><path class="cls-2" d="M37.52,1.14A36.38,36.38,0,1,1,1.14,37.52,36.42,36.42,0,0,1,37.52,1.14m0-1.14A37.52,37.52,0,1,0,75,37.52,37.52,37.52,0,0,0,37.52,0h0Z"/><path class="cls-2" d="M24.5,49.06H22.79V48.29l1.73-.09L24.66,45h0.87V48.2H28.7v0.87H25.53V56.2c0,1.39.34,2.33,1.85,2.33a3.67,3.67,0,0,0,1.37-.34L29,59a6.12,6.12,0,0,1-1.78.41c-2.12,0-2.74-1.35-2.74-3.31v-7Z"/><path class="cls-2" d="M35.36,47.92c2.65,0,4.93,2.1,4.93,5.77S38,59.42,35.36,59.42s-4.9-2.1-4.9-5.73S32.74,47.92,35.36,47.92Zm0,10.61c2.21,0,3.88-2,3.88-4.84s-1.67-4.88-3.88-4.88-3.86,2-3.86,4.88S33.15,58.53,35.36,58.53Z"/><path class="cls-2" d="M44.57,60.11v4h-1V48.2h0.87l0.09,1.37H44.6a6.4,6.4,0,0,1,3.72-1.64c2.92,0,4.38,2.19,4.38,5.59,0,3.72-2.26,5.91-4.84,5.91a5.79,5.79,0,0,1-3.28-1.35v2Zm3.24-1.57c2.21,0,3.81-2.05,3.81-5,0-2.69-1-4.7-3.47-4.7a5.8,5.8,0,0,0-3.58,1.8v6.5A5.37,5.37,0,0,0,47.81,58.53Z"/><polyline class="cls-3" points="36.63 39.22 36.63 12.57 23.23 31.24"/><polyline class="cls-3" points="39.9 39.22 39.9 12.57 53.29 31.24"/></svg>