<svg id="Layer_1" data-name="Layer 1" xmlns="http://www.w3.org/2000/svg" xmlns:xlink="http://www.w3.org/1999/xlink" viewBox="0 0 354.67 174.01"><defs><style>.cls-1,.cls-4{fill:none;}.cls-2{fill:#2e74b4;}.cls-3{fill:#231f20;}.cls-4{stroke:#2e74b4;stroke-linecap:square;stroke-linejoin:round;stroke-width:1.62px;}.cls-5{clip-path:url(#clip-path);}</style><clipPath id="clip-path"><rect class="cls-1" x="-1202.26" y="-2990.17" width="3475.47" height="2860.12"/></clipPath></defs><title>arrowr4</title><path class="cls-2" d="M6.54,62.33a8.21,8.21,0,0,0,6.3,2.81,5.86,5.86,0,0,0,5.72-6.19c0-3.71-2.2-5.94-5.62-5.94a7,7,0,0,0-4.28,1.55l-1.12-.68L8.37,43.11H19v1.4H9.81L9.09,52.83a7.47,7.47,0,0,1,4.1-1.22c3.89,0,7,2.23,7,7.27a7.31,7.31,0,0,1-7.34,7.67,9.55,9.55,0,0,1-7.24-3.1Z"/><path class="cls-3" d="M7.14,103.38H17.22v1.12H8.42v7h7.39v1.12H8.42v8.12H17.5v1.12H7.14V103.38Z"/><path class="cls-3" d="M21.27,109.46h-2.1v-1l2.13-.11,0.17-3.89h1.06v3.89h3.89v1.06H22.53v8.76c0,1.71.42,2.86,2.27,2.86a4.51,4.51,0,0,0,1.68-.42l0.34,1a7.5,7.5,0,0,1-2.18.5c-2.6,0-3.36-1.65-3.36-4.06v-8.65Z"/><path class="cls-3" d="M29.4,101.7h1.23v8.79c1.4-1.4,2.8-2.44,4.65-2.44,2.77,0,4.06,1.68,4.06,5.15v8.62H38.1v-8.46c0-2.86-.9-4.2-3.08-4.2-1.6,0-2.74.84-4.4,2.52v10.14H29.4V101.7Z"/><path class="cls-3" d="M43.4,104.05a1.12,1.12,0,1,1,1.12,1.09A1.07,1.07,0,0,1,43.4,104.05Zm0.48,4.34H45.1v13.44H43.87V108.39Z"/><path class="cls-3" d="M55,108.06a5.52,5.52,0,0,1,3.95,1.65l-0.73.87A4.58,4.58,0,0,0,55,109.15c-2.74,0-4.87,2.44-4.87,6s1.93,5.94,4.87,5.94a5.4,5.4,0,0,0,3.58-1.54l0.64,0.84A6.35,6.35,0,0,1,55,122.17c-3.47,0-6.1-2.58-6.1-7S51.71,108.06,55,108.06Z"/><path class="cls-3" d="M61.29,119.4a6.24,6.24,0,0,0,4.28,1.71c2.1,0,3.19-1.23,3.19-2.66,0-1.68-1.74-2.41-3.28-3-2-.73-4.28-1.54-4.28-3.84,0-2,1.54-3.58,4.34-3.58a6.24,6.24,0,0,1,3.84,1.4l-0.67.87a5.09,5.09,0,0,0-3.22-1.2c-2.07,0-3,1.2-3,2.44,0,1.48,1.57,2.13,3.16,2.72,2.1,0.78,4.4,1.48,4.4,4.12,0,2-1.62,3.78-4.54,3.78a7.78,7.78,0,0,1-4.93-1.85Z"/><path class="cls-3" d="M73.77,108.93a1.28,1.28,0,0,1,0,2.55A1.28,1.28,0,0,1,73.77,108.93Zm0,10.7a1.28,1.28,0,0,1,0,2.55A1.28,1.28,0,0,1,73.77,119.62Z"/><path class="cls-3" d="M83.41,119.4a6.24,6.24,0,0,0,4.28,1.71c2.1,0,3.19-1.23,3.19-2.66,0-1.68-1.74-2.41-3.28-3-2-.73-4.28-1.54-4.28-3.84,0-2,1.54-3.58,4.34-3.58a6.24,6.24,0,0,1,3.84,1.4l-0.67.87a5.09,5.09,0,0,0-3.22-1.2c-2.07,0-3,1.2-3,2.44,0,1.48,1.57,2.13,3.16,2.72,2.1,0.78,4.4,1.48,4.4,4.12,0,2-1.62,3.78-4.54,3.78a7.78,7.78,0,0,1-4.93-1.85Z"/><path class="cls-3" d="M100.29,108.06c3.25,0,6,2.58,6,7.08s-2.8,7-6,7-6-2.58-6-7S97.07,108.06,100.29,108.06Zm0,13c2.72,0,4.76-2.41,4.76-5.94s-2-6-4.76-6-4.73,2.44-4.73,6S97.57,121.08,100.29,121.08Z"/><path class="cls-3" d="M115.07,108.06a5.52,5.52,0,0,1,3.95,1.65l-0.73.87a4.58,4.58,0,0,0-3.19-1.43c-2.74,0-4.87,2.44-4.87,6s1.93,5.94,4.87,5.94a5.4,5.4,0,0,0,3.58-1.54l0.64,0.84a6.35,6.35,0,0,1-4.28,1.79c-3.47,0-6.1-2.58-6.1-7S111.8,108.06,115.07,108.06Z"/><path class="cls-3" d="M121.85,104.05a1.12,1.12,0,1,1,1.12,1.09A1.07,1.07,0,0,1,121.85,104.05Zm0.48,4.34h1.23v13.44h-1.23V108.39Z"/><path class="cls-3" d="M136.35,113.41c0.06-2-.53-4.26-3.16-4.26a7.42,7.42,0,0,0-4.28,1.57l-0.56-.92a9,9,0,0,1,5-1.74c3.19,0,4.26,2.3,4.26,5.18v8.6h-1l-0.14-1.74h-0.06a8,8,0,0,1-4.76,2.07c-2.13,0-3.92-1.15-3.92-3.7C127.67,115.51,130.39,114.08,136.35,113.41Zm-4.56,7.7c1.54,0,2.91-.76,4.56-2.18v-4.56c-5.52.64-7.39,1.93-7.39,4.06A2.52,2.52,0,0,0,131.79,121.11Z"/><path class="cls-3" d="M142.09,101.7h1.23v18.51c0,0.59.25,0.87,0.59,0.87a2.19,2.19,0,0,0,.5-0.06l0.22,1a2.61,2.61,0,0,1-.9.14c-1.09,0-1.65-.67-1.65-2.13V101.7Z"/><path class="cls-3" d="M161.61,113.41c0.06-2-.53-4.26-3.16-4.26a7.42,7.42,0,0,0-4.28,1.57l-0.56-.92a9,9,0,0,1,5-1.74c3.19,0,4.26,2.3,4.26,5.18v8.6h-1l-0.14-1.74h-0.06a8,8,0,0,1-4.76,2.07c-2.13,0-3.92-1.15-3.92-3.7C152.93,115.51,155.65,114.08,161.61,113.41Zm-4.56,7.7c1.54,0,2.91-.76,4.56-2.18v-4.56c-5.52.64-7.39,1.93-7.39,4.06A2.52,2.52,0,0,0,157,121.11Z"/><path class="cls-3" d="M167.35,108.39h1.06l0.11,2.07h0.08c1.37-1.37,2.77-2.41,4.62-2.41,2.77,0,4.06,1.68,4.06,5.15v8.62h-1.23v-8.46c0-2.86-.9-4.2-3.08-4.2-1.6,0-2.74.84-4.4,2.52v10.14h-1.23V108.39Z"/><path class="cls-3" d="M186.78,108.06a6.21,6.21,0,0,1,4.06,1.65l-0.06-2.46V101.7H192v20.13H191l-0.11-1.74h-0.08a6.29,6.29,0,0,1-4.37,2.07c-3.39,0-5.57-2.49-5.57-7C180.82,110.8,183.59,108.06,186.78,108.06Zm-0.22,13c1.48,0,2.8-.78,4.23-2.21v-8a5.68,5.68,0,0,0-3.92-1.74c-2.69,0-4.73,2.6-4.73,6C182.13,118.7,183.7,121.08,186.56,121.08Z"/><path class="cls-3" d="M11.81,141.66c3.19,0,5.15,2.27,5.15,6.22a6.12,6.12,0,0,1-.06,1H7.22c0.06,3.39,2,5.82,5.07,5.82a6,6,0,0,0,3.61-1.2l0.5,1a7.49,7.49,0,0,1-4.23,1.32c-3.44,0-6.22-2.63-6.22-7S8.82,141.66,11.81,141.66Zm4,6.27c0-3.44-1.54-5.21-3.95-5.21s-4.34,2-4.62,5.21h8.57Z"/><path class="cls-3" d="M20.3,142h1.06l0.11,2.07h0.08c1.37-1.37,2.77-2.41,4.62-2.41,2.77,0,4.06,1.68,4.06,5.15v8.62H29V147c0-2.86-.9-4.2-3.08-4.2-1.6,0-2.74.84-4.4,2.52v10.14H20.3V142Z"/><path class="cls-3" d="M32.64,142H34l3,8.43c0.42,1.29.92,2.63,1.34,3.86h0.11c0.45-1.23.92-2.58,1.37-3.86l3-8.43h1.26l-5,13.44H37.68Z"/><path class="cls-3" d="M46.25,137.65a1.12,1.12,0,1,1,1.12,1.09A1.07,1.07,0,0,1,46.25,137.65ZM46.73,142H48v13.44H46.73V142Z"/><path class="cls-3" d="M52.83,142h1.06L54,144.48h0.08c0.9-1.65,2.21-2.83,3.81-2.83a2.77,2.77,0,0,1,1.34.28L59,143.06a2.93,2.93,0,0,0-1.23-.22c-1.2,0-2.63.92-3.67,3.44v9.16H52.83V142Z"/><path class="cls-3" d="M66.3,141.66c3.25,0,6,2.58,6,7.08s-2.8,7-6,7-6-2.58-6-7S63.08,141.66,66.3,141.66Zm0,13c2.72,0,4.76-2.41,4.76-5.94s-2-6-4.76-6-4.73,2.44-4.73,6S63.58,154.68,66.3,154.68Z"/><path class="cls-3" d="M76.07,142h1.06l0.11,2.07h0.08c1.37-1.37,2.77-2.41,4.62-2.41,2.77,0,4.06,1.68,4.06,5.15v8.62H84.78V147c0-2.86-.9-4.2-3.08-4.2-1.6,0-2.74.84-4.4,2.52v10.14H76.07V142Z"/><path class="cls-3" d="M90.66,142h1.06l0.11,2.07h0.08a6.16,6.16,0,0,1,4.23-2.41,3.49,3.49,0,0,1,3.72,2.74c1.54-1.68,3-2.74,4.56-2.74,2.69,0,4,1.68,4,5.15v8.62h-1.26V147c0-2.86-1-4.2-3-4.2-1.26,0-2.55.84-4,2.52v10.14H98.95V147c0-2.86-1-4.2-3-4.2q-1.81,0-4,2.52v10.14H90.66V142Z"/><path class="cls-3" d="M117.82,141.66c3.19,0,5.15,2.27,5.15,6.22a6.12,6.12,0,0,1-.06,1h-9.69c0.06,3.39,2,5.82,5.07,5.82a6,6,0,0,0,3.61-1.2l0.5,1a7.49,7.49,0,0,1-4.23,1.32c-3.44,0-6.22-2.63-6.22-7S114.82,141.66,117.82,141.66Zm4,6.27c0-3.44-1.54-5.21-3.95-5.21s-4.34,2-4.62,5.21h8.57Z"/><path class="cls-3" d="M126.3,142h1.06l0.11,2.07h0.08c1.37-1.37,2.77-2.41,4.62-2.41,2.77,0,4.06,1.68,4.06,5.15v8.62H135V147c0-2.86-.9-4.2-3.08-4.2-1.6,0-2.74.84-4.4,2.52v10.14H126.3V142Z"/><path class="cls-3" d="M141.2,143.06h-2.1v-1l2.13-.11,0.17-3.89h1.06V142h3.89v1.06h-3.89v8.76c0,1.71.42,2.86,2.27,2.86a4.51,4.51,0,0,0,1.68-.42l0.34,1a7.5,7.5,0,0,1-2.18.5c-2.6,0-3.36-1.65-3.36-4.06v-8.65Z"/><path class="cls-3" d="M157.24,147c0.06-2-.53-4.26-3.16-4.26a7.42,7.42,0,0,0-4.28,1.57l-0.56-.92a9,9,0,0,1,5-1.74c3.19,0,4.26,2.3,4.26,5.18v8.6h-1l-0.14-1.74h-0.06a8,8,0,0,1-4.76,2.07c-2.13,0-3.92-1.15-3.92-3.7C148.56,149.1,151.28,147.68,157.24,147Zm-4.56,7.7c1.54,0,2.91-.76,4.56-2.18V148c-5.52.64-7.39,1.93-7.39,4.06A2.52,2.52,0,0,0,152.68,154.71Z"/><path class="cls-3" d="M163,135.3h1.23v18.51c0,0.59.25,0.87,0.59,0.87a2.19,2.19,0,0,0,.5-0.06l0.22,1a2.61,2.61,0,0,1-.9.14c-1.09,0-1.65-.67-1.65-2.13V135.3Z"/><path class="cls-3" d="M182.5,147c0.06-2-.53-4.26-3.16-4.26a7.42,7.42,0,0,0-4.28,1.57l-0.56-.92a9,9,0,0,1,5-1.74c3.19,0,4.26,2.3,4.26,5.18v8.6h-1l-0.14-1.74H182.5a8,8,0,0,1-4.76,2.07c-2.13,0-3.92-1.15-3.92-3.7C173.82,149.1,176.53,147.68,182.5,147Zm-4.56,7.7c1.54,0,2.91-.76,4.56-2.18V148c-5.52.64-7.39,1.93-7.39,4.06A2.52,2.52,0,0,0,177.93,154.71Z"/><path class="cls-3" d="M187.28,153a6.24,6.24,0,0,0,4.28,1.71c2.1,0,3.19-1.23,3.19-2.66,0-1.68-1.74-2.41-3.28-3-2-.73-4.28-1.54-4.28-3.84,0-2,1.54-3.58,4.34-3.58a6.24,6.24,0,0,1,3.84,1.4l-0.67.87a5.09,5.09,0,0,0-3.22-1.2c-2.07,0-3,1.2-3,2.44,0,1.48,1.57,2.13,3.16,2.72,2.1,0.78,4.4,1.48,4.4,4.12,0,2-1.62,3.78-4.54,3.78a7.78,7.78,0,0,1-4.93-1.85Z"/><path class="cls-3" d="M200.5,156.61v4.9h-1.23V142h1.06l0.11,1.68h0.08a7.86,7.86,0,0,1,4.56-2c3.58,0,5.38,2.69,5.38,6.86,0,4.56-2.77,7.25-5.94,7.25a7.11,7.11,0,0,1-4-1.65v2.49Zm4-1.93c2.72,0,4.68-2.52,4.68-6.16,0-3.3-1.18-5.77-4.26-5.77-1.34,0-2.77.78-4.4,2.21v8A6.59,6.59,0,0,0,204.48,154.68Z"/><path class="cls-3" d="M218.92,141.66c3.19,0,5.15,2.27,5.15,6.22a6.12,6.12,0,0,1-.06,1h-9.69c0.06,3.39,2,5.82,5.07,5.82a6,6,0,0,0,3.61-1.2l0.5,1a7.49,7.49,0,0,1-4.23,1.32c-3.44,0-6.22-2.63-6.22-7S215.93,141.66,218.92,141.66Zm4,6.27c0-3.44-1.54-5.21-3.95-5.21s-4.34,2-4.62,5.21h8.57Z"/><path class="cls-3" d="M232.42,141.66a5.52,5.52,0,0,1,3.95,1.65l-0.73.87a4.58,4.58,0,0,0-3.19-1.43c-2.74,0-4.87,2.44-4.87,6s1.93,5.94,4.87,5.94a5.4,5.4,0,0,0,3.58-1.54l0.64,0.84a6.35,6.35,0,0,1-4.28,1.79c-3.47,0-6.1-2.58-6.1-7S229.14,141.66,232.42,141.66Z"/><path class="cls-3" d="M240,143.06h-2.1v-1L240,142l0.17-3.89h1.06V142h3.89v1.06h-3.89v8.76c0,1.71.42,2.86,2.27,2.86a4.51,4.51,0,0,0,1.68-.42l0.34,1a7.5,7.5,0,0,1-2.18.5c-2.6,0-3.36-1.65-3.36-4.06v-8.65Z"/><path class="cls-3" d="M247.15,153a6.24,6.24,0,0,0,4.28,1.71c2.1,0,3.19-1.23,3.19-2.66,0-1.68-1.74-2.41-3.28-3-2-.73-4.28-1.54-4.28-3.84,0-2,1.54-3.58,4.34-3.58a6.24,6.24,0,0,1,3.84,1.4l-0.67.87a5.09,5.09,0,0,0-3.22-1.2c-2.07,0-3,1.2-3,2.44,0,1.48,1.57,2.13,3.16,2.72,2.1,0.78,4.4,1.48,4.4,4.12,0,2-1.62,3.78-4.54,3.78a7.78,7.78,0,0,1-4.93-1.85Z"/><polyline class="cls-4" points="4.5 84.76 350.35 84.76 326.35 67.54"/></svg>