<svg id="Layer_1" data-name="Layer 1" xmlns="http://www.w3.org/2000/svg" viewBox="0 0 354.67 174.01"><defs><style>.cls-1{fill:#231f20;}.cls-2{fill:#2e74b4;}.cls-3{fill:none;stroke:#2e74b4;stroke-linecap:square;stroke-linejoin:round;stroke-width:1.62px;}</style></defs><title>arrowl3</title><path class="cls-1" d="M30.12,103.81A6.29,6.29,0,0,1,34.91,106l-0.76.84a5.32,5.32,0,0,0-4-1.88c-4,0-6.55,3.22-6.55,8.34s2.49,8.43,6.44,8.43a5.91,5.91,0,0,0,4.68-2.27l0.76,0.81A6.85,6.85,0,0,1,30,122.94c-4.54,0-7.73-3.72-7.73-9.6S25.42,103.81,30.12,103.81Z"/><path class="cls-1" d="M38.46,109.16H39.7v8.46c0,2.86.9,4.2,3.05,4.2,1.6,0,2.77-.84,4.34-2.74v-9.91h1.23V122.6h-1l-0.14-2.24H47.09c-1.32,1.54-2.72,2.58-4.56,2.58-2.77,0-4.06-1.68-4.06-5.15v-8.62Z"/><path class="cls-1" d="M53.16,109.16h1.06l0.11,2.49h0.08c0.9-1.65,2.21-2.83,3.81-2.83a2.77,2.77,0,0,1,1.34.28l-0.28,1.12a2.93,2.93,0,0,0-1.23-.22c-1.2,0-2.63.92-3.67,3.44v9.16H53.16V109.16Z"/><path class="cls-1" d="M61.73,109.16h1.06l0.11,2.49H63c0.9-1.65,2.21-2.83,3.81-2.83a2.77,2.77,0,0,1,1.34.28l-0.28,1.12a2.93,2.93,0,0,0-1.23-.22c-1.2,0-2.63.92-3.67,3.44v9.16H61.73V109.16Z"/><path class="cls-1" d="M75,108.82c3.19,0,5.15,2.27,5.15,6.22a6.12,6.12,0,0,1-.06,1H70.44c0.06,3.39,2,5.82,5.07,5.82a6,6,0,0,0,3.61-1.2l0.5,1a7.49,7.49,0,0,1-4.23,1.32c-3.44,0-6.22-2.63-6.22-7S72,108.82,75,108.82Zm4,6.27c0-3.44-1.54-5.21-3.95-5.21s-4.34,2-4.62,5.21H79Z"/><path class="cls-1" d="M83.51,109.16h1.06l0.11,2.07h0.08c1.37-1.37,2.77-2.41,4.62-2.41,2.77,0,4.06,1.68,4.06,5.15v8.62H92.22v-8.46c0-2.86-.9-4.2-3.08-4.2-1.6,0-2.74.84-4.4,2.52V122.6H83.51V109.16Z"/><path class="cls-1" d="M98.41,110.22h-2.1v-1l2.13-.11,0.17-3.89h1.06v3.89h3.89v1.06H99.67V119c0,1.71.42,2.86,2.27,2.86a4.51,4.51,0,0,0,1.68-.42l0.34,1a7.5,7.5,0,0,1-2.18.5c-2.6,0-3.36-1.65-3.36-4.06v-8.65Z"/><path class="cls-1" d="M111.79,109.16h1.06l0.11,2.07h0.08a6.16,6.16,0,0,1,4.23-2.41,3.5,3.5,0,0,1,3.72,2.74c1.54-1.68,3-2.74,4.56-2.74,2.69,0,4,1.68,4,5.15v8.62h-1.26v-8.46c0-2.86-1-4.2-3-4.2-1.26,0-2.55.84-4,2.52V122.6h-1.23v-8.46c0-2.86-1-4.2-3-4.2q-1.81,0-4,2.52V122.6h-1.23V109.16Z"/><path class="cls-1" d="M139.12,108.82c3.25,0,6,2.58,6,7.08s-2.8,7-6,7-6-2.58-6-7S135.9,108.82,139.12,108.82Zm0,13c2.72,0,4.76-2.41,4.76-5.94s-2-6-4.76-6-4.73,2.44-4.73,6S136.4,121.84,139.12,121.84Z"/><path class="cls-1" d="M153.74,108.82a6.21,6.21,0,0,1,4.06,1.65L157.74,108v-5.54H159V122.6h-1.06l-0.11-1.74h-0.08a6.29,6.29,0,0,1-4.37,2.07c-3.39,0-5.57-2.49-5.57-7C147.77,111.57,150.54,108.82,153.74,108.82Zm-0.22,13c1.48,0,2.8-.78,4.23-2.21v-8a5.68,5.68,0,0,0-3.92-1.74c-2.69,0-4.73,2.6-4.73,6C149.09,119.46,150.66,121.84,153.51,121.84Z"/><path class="cls-1" d="M168.55,108.82c3.19,0,5.15,2.27,5.15,6.22a6.12,6.12,0,0,1-.06,1H164c0.06,3.39,2,5.82,5.07,5.82a6,6,0,0,0,3.61-1.2l0.5,1a7.49,7.49,0,0,1-4.23,1.32c-3.44,0-6.22-2.63-6.22-7S165.55,108.82,168.55,108.82Zm4,6.27c0-3.44-1.54-5.21-3.95-5.21s-4.34,2-4.62,5.21h8.57Z"/><path class="cls-1" d="M177,102.47h1.23V121c0,0.59.25,0.87,0.59,0.87a2.19,2.19,0,0,0,.5-0.06l0.22,1a2.61,2.61,0,0,1-.9.14c-1.09,0-1.65-.67-1.65-2.13V102.47Z"/><path class="cls-1" d="M182.41,120.16a6.24,6.24,0,0,0,4.28,1.71c2.1,0,3.19-1.23,3.19-2.66,0-1.68-1.74-2.41-3.28-3-2-.73-4.28-1.54-4.28-3.84,0-2,1.54-3.58,4.34-3.58a6.24,6.24,0,0,1,3.84,1.4l-0.67.87a5.09,5.09,0,0,0-3.22-1.2c-2.07,0-3,1.2-3,2.44,0,1.48,1.57,2.13,3.16,2.72,2.1,0.78,4.4,1.48,4.4,4.12,0,2-1.62,3.78-4.54,3.78a7.78,7.78,0,0,1-4.93-1.85Z"/><path class="cls-1" d="M207.58,114.17c0.06-2-.53-4.26-3.16-4.26a7.42,7.42,0,0,0-4.28,1.57l-0.56-.92a9,9,0,0,1,5-1.74c3.19,0,4.26,2.3,4.26,5.18v8.6h-1l-0.14-1.74h-0.06a8,8,0,0,1-4.76,2.07c-2.13,0-3.92-1.15-3.92-3.7C198.9,116.27,201.62,114.84,207.58,114.17Zm-4.56,7.7c1.54,0,2.91-.76,4.56-2.18v-4.56c-5.52.64-7.39,1.93-7.39,4.06A2.52,2.52,0,0,0,203,121.87Z"/><path class="cls-1" d="M213.32,109.16h1.06l0.11,2.07h0.08c1.37-1.37,2.77-2.41,4.62-2.41,2.77,0,4.06,1.68,4.06,5.15v8.62H222v-8.46c0-2.86-.9-4.2-3.08-4.2-1.6,0-2.74.84-4.4,2.52V122.6h-1.23V109.16Z"/><path class="cls-1" d="M232.75,108.82a6.21,6.21,0,0,1,4.06,1.65L236.76,108v-5.54H238V122.6h-1.06l-0.11-1.74h-0.08a6.29,6.29,0,0,1-4.37,2.07c-3.39,0-5.57-2.49-5.57-7C226.79,111.57,229.56,108.82,232.75,108.82Zm-0.22,13c1.48,0,2.8-.78,4.23-2.21v-8a5.68,5.68,0,0,0-3.92-1.74c-2.69,0-4.73,2.6-4.73,6C228.1,119.46,229.67,121.84,232.53,121.84Z"/><path class="cls-1" d="M249.33,123.78v4.9H248.1V109.16h1.06l0.11,1.68h0.08a7.86,7.86,0,0,1,4.56-2c3.58,0,5.38,2.69,5.38,6.86,0,4.56-2.77,7.25-5.94,7.25a7.11,7.11,0,0,1-4-1.65v2.49Zm4-1.93c2.72,0,4.68-2.52,4.68-6.16,0-3.3-1.18-5.77-4.26-5.77-1.34,0-2.77.78-4.4,2.21v8A6.59,6.59,0,0,0,253.3,121.84Z"/><path class="cls-1" d="M263,109.16h1.06l0.11,2.49h0.08c0.9-1.65,2.21-2.83,3.81-2.83a2.77,2.77,0,0,1,1.34.28l-0.28,1.12a2.93,2.93,0,0,0-1.23-.22c-1.2,0-2.63.92-3.67,3.44v9.16H263V109.16Z"/><path class="cls-1" d="M279.51,114.17c0.06-2-.53-4.26-3.16-4.26a7.42,7.42,0,0,0-4.28,1.57l-0.56-.92a9,9,0,0,1,5-1.74c3.19,0,4.26,2.3,4.26,5.18v8.6h-1l-0.14-1.74h-0.06a8,8,0,0,1-4.76,2.07c-2.13,0-3.92-1.15-3.92-3.7C270.83,116.27,273.55,114.84,279.51,114.17Zm-4.56,7.7c1.54,0,2.91-.76,4.56-2.18v-4.56c-5.52.64-7.39,1.93-7.39,4.06A2.52,2.52,0,0,0,274.95,121.87Z"/><path class="cls-1" d="M290.26,108.82a5.52,5.52,0,0,1,3.95,1.65l-0.73.87a4.58,4.58,0,0,0-3.19-1.43c-2.74,0-4.87,2.44-4.87,6s1.93,5.94,4.87,5.94a5.4,5.4,0,0,0,3.58-1.54l0.64,0.84a6.35,6.35,0,0,1-4.28,1.79c-3.47,0-6.1-2.58-6.1-7S287,108.82,290.26,108.82Z"/><path class="cls-1" d="M297.82,110.22h-2.1v-1l2.13-.11,0.17-3.89h1.06v3.89H303v1.06h-3.89V119c0,1.71.42,2.86,2.27,2.86a4.51,4.51,0,0,0,1.68-.42l0.34,1a7.5,7.5,0,0,1-2.18.5c-2.6,0-3.36-1.65-3.36-4.06v-8.65Z"/><path class="cls-1" d="M305.47,104.82a1.12,1.12,0,1,1,1.12,1.09A1.07,1.07,0,0,1,305.47,104.82Zm0.48,4.34h1.23V122.6h-1.23V109.16Z"/><path class="cls-1" d="M317.06,108.82a5.52,5.52,0,0,1,3.95,1.65l-0.73.87a4.58,4.58,0,0,0-3.19-1.43c-2.74,0-4.87,2.44-4.87,6s1.93,5.94,4.87,5.94a5.4,5.4,0,0,0,3.58-1.54l0.64,0.84a6.35,6.35,0,0,1-4.28,1.79c-3.47,0-6.1-2.58-6.1-7S313.78,108.82,317.06,108.82Z"/><path class="cls-1" d="M329,108.82c3.19,0,5.15,2.27,5.15,6.22a6.12,6.12,0,0,1-.06,1h-9.69c0.06,3.39,2,5.82,5.07,5.82a6,6,0,0,0,3.61-1.2l0.5,1a7.49,7.49,0,0,1-4.23,1.32c-3.44,0-6.22-2.63-6.22-7S326,108.82,329,108.82Zm4,6.27c0-3.44-1.54-5.21-3.95-5.21s-4.34,2-4.62,5.21H333Z"/><path class="cls-1" d="M336.57,120.16a6.24,6.24,0,0,0,4.28,1.71c2.1,0,3.19-1.23,3.19-2.66,0-1.68-1.74-2.41-3.28-3-2-.73-4.28-1.54-4.28-3.84,0-2,1.54-3.58,4.34-3.58a6.24,6.24,0,0,1,3.84,1.4l-0.67.87a5.09,5.09,0,0,0-3.22-1.2c-2.07,0-3,1.2-3,2.44,0,1.48,1.57,2.13,3.16,2.72,2.1,0.78,4.4,1.48,4.4,4.12,0,2-1.62,3.78-4.54,3.78a7.78,7.78,0,0,1-4.93-1.85Z"/><path class="cls-2" d="M333.1,65.1c7.56-7.67,11.34-12,11.34-15.95,0-2.88-1.55-5.11-5-5.11a7.21,7.21,0,0,0-5.36,3l-1-1c1.73-1.91,3.74-3.38,6.55-3.38,4.1,0,6.48,2.56,6.48,6.44,0,4.57-4.18,9-10.55,15.73,1.26-.07,2.59-0.18,3.85-0.18h7.85v1.44H333.1v-1Z"/><polyline class="cls-3" points="350.35 84.76 4.5 84.76 28.5 67.54"/></svg>