<svg id="Layer_1" data-name="Layer 1" xmlns="http://www.w3.org/2000/svg" viewBox="0 0 354.67 174.01"><defs><style>.cls-1{fill:#2e74b4;}.cls-2{fill:#231f20;}.cls-3{fill:none;stroke:#2e74b4;stroke-linecap:square;stroke-linejoin:round;stroke-width:1.62px;}</style></defs><title>arrowl2</title><path class="cls-1" d="M332.65,64.71H338V45.63h-4.1V44.55a13.89,13.89,0,0,0,4.43-1.44h1.3v21.6h5v1.4h-12v-1.4Z"/><path class="cls-2" d="M51.44,118.5A7.27,7.27,0,0,0,56.88,121c2.8,0,4.59-1.51,4.59-3.7s-1.51-3.05-3.33-3.86l-2.8-1.26c-1.6-.7-3.72-1.85-3.72-4.59S53.91,103,57,103a7,7,0,0,1,5.15,2.21l-0.76.87a5.85,5.85,0,0,0-4.4-1.9c-2.44,0-4.06,1.29-4.06,3.3s1.85,2.94,3.19,3.56l2.8,1.23c2,0.92,3.86,2.07,3.86,4.9s-2.32,5-5.91,5a8.13,8.13,0,0,1-6.22-2.77Z"/><path class="cls-2" d="M70.82,108.05c3.19,0,5.15,2.27,5.15,6.22a6.12,6.12,0,0,1-.06,1H66.23c0.06,3.39,2,5.82,5.07,5.82a6,6,0,0,0,3.61-1.2l0.5,1a7.49,7.49,0,0,1-4.23,1.32c-3.44,0-6.22-2.63-6.22-7S67.82,108.05,70.82,108.05Zm4,6.27c0-3.44-1.54-5.21-3.95-5.21s-4.34,2-4.62,5.21H74.8Z"/><path class="cls-2" d="M79.3,108.39h1.06l0.11,2.49h0.08c0.9-1.65,2.21-2.83,3.81-2.83a2.77,2.77,0,0,1,1.34.28l-0.28,1.12a2.93,2.93,0,0,0-1.23-.22c-1.2,0-2.63.92-3.67,3.44v9.16H79.3V108.39Z"/><path class="cls-2" d="M85.63,108.39H87l3,8.43c0.42,1.29.92,2.63,1.34,3.86h0.11c0.45-1.23.92-2.58,1.37-3.86l3-8.43h1.26l-5,13.44H90.67Z"/><path class="cls-2" d="M99.24,104.05a1.12,1.12,0,1,1,1.12,1.09A1.07,1.07,0,0,1,99.24,104.05Zm0.48,4.34h1.23v13.44H99.72V108.39Z"/><path class="cls-2" d="M110.83,108.05a5.52,5.52,0,0,1,3.95,1.65l-0.73.87a4.58,4.58,0,0,0-3.19-1.43c-2.74,0-4.87,2.44-4.87,6s1.93,5.94,4.87,5.94a5.4,5.4,0,0,0,3.58-1.54l0.64,0.84a6.35,6.35,0,0,1-4.28,1.79c-3.47,0-6.1-2.58-6.1-7S107.56,108.05,110.83,108.05Z"/><path class="cls-2" d="M122.82,108.05c3.19,0,5.15,2.27,5.15,6.22a6.12,6.12,0,0,1-.06,1h-9.69c0.06,3.39,2,5.82,5.07,5.82a6,6,0,0,0,3.61-1.2l0.5,1a7.49,7.49,0,0,1-4.23,1.32c-3.44,0-6.22-2.63-6.22-7S119.82,108.05,122.82,108.05Zm4,6.27c0-3.44-1.54-5.21-3.95-5.21s-4.34,2-4.62,5.21h8.57Z"/><path class="cls-2" d="M141.41,108.05a6.21,6.21,0,0,1,4.06,1.65l-0.06-2.46V101.7h1.23v20.13h-1.06l-0.11-1.74h-0.08a6.29,6.29,0,0,1-4.37,2.07c-3.39,0-5.57-2.49-5.57-7C135.44,110.8,138.21,108.05,141.41,108.05Zm-0.22,13c1.48,0,2.8-.78,4.23-2.21v-8a5.68,5.68,0,0,0-3.92-1.74c-2.69,0-4.73,2.6-4.73,6C136.76,118.7,138.33,121.08,141.18,121.08Z"/><path class="cls-2" d="M156.22,108.05c3.19,0,5.15,2.27,5.15,6.22a6.12,6.12,0,0,1-.06,1h-9.69c0.06,3.39,2,5.82,5.07,5.82a6,6,0,0,0,3.61-1.2l0.5,1a7.49,7.49,0,0,1-4.23,1.32c-3.44,0-6.22-2.63-6.22-7S153.22,108.05,156.22,108.05Zm4,6.27c0-3.44-1.54-5.21-3.95-5.21s-4.34,2-4.62,5.21h8.57Z"/><path class="cls-2" d="M163.75,119.4A6.24,6.24,0,0,0,168,121.1c2.1,0,3.19-1.23,3.19-2.66,0-1.68-1.74-2.41-3.28-3-2-.73-4.28-1.54-4.28-3.84,0-2,1.54-3.58,4.34-3.58a6.24,6.24,0,0,1,3.84,1.4l-0.67.87a5.09,5.09,0,0,0-3.22-1.2c-2.07,0-3,1.2-3,2.44,0,1.48,1.57,2.13,3.16,2.72,2.1,0.78,4.4,1.48,4.4,4.12,0,2-1.62,3.78-4.54,3.78a7.78,7.78,0,0,1-4.93-1.85Z"/><path class="cls-2" d="M175.26,104.05a1.12,1.12,0,1,1,1.12,1.09A1.07,1.07,0,0,1,175.26,104.05Zm0.48,4.34H177v13.44h-1.23V108.39Z"/><path class="cls-2" d="M182.7,121.33v-0.11a2.4,2.4,0,0,1-1.18-2.16A3.16,3.16,0,0,1,183,116.6v-0.11a5,5,0,0,1-1.68-3.7,4.62,4.62,0,0,1,4.73-4.73,4.79,4.79,0,0,1,1.76.34h4.56v1h-3.14a4.47,4.47,0,0,1,1.48,3.39,4.59,4.59,0,0,1-4.68,4.73,4.67,4.67,0,0,1-2.24-.56,2.42,2.42,0,0,0-1.09,1.93c0,1,.56,1.76,2.58,1.76h2.88c3,0,4.42,1,4.42,3.08,0,2.32-2.49,4.54-6.36,4.54-3.39,0-5.52-1.46-5.52-3.72A4.24,4.24,0,0,1,182.7,121.33Zm3.67,6c3,0,5-1.71,5-3.39,0-1.48-1.09-2-3.11-2h-2.88a8.34,8.34,0,0,1-1.68-.22,3.51,3.51,0,0,0-1.76,2.83C181.89,126.14,183.52,127.29,186.37,127.29Zm3.14-14.5a3.49,3.49,0,1,0-7,0A3.5,3.5,0,1,0,189.51,112.79Z"/><path class="cls-2" d="M195.16,108.39h1.06l0.11,2.07h0.08c1.37-1.37,2.77-2.41,4.62-2.41,2.77,0,4.06,1.68,4.06,5.15v8.62h-1.23v-8.46c0-2.86-.9-4.2-3.08-4.2-1.6,0-2.74.84-4.4,2.52v10.14h-1.23V108.39Z"/><path class="cls-2" d="M215,101.7h1.23v5.82l-0.06,2.63a7.68,7.68,0,0,1,4.65-2.1c3.58,0,5.38,2.69,5.38,6.86,0,4.56-2.77,7.25-5.94,7.25a7,7,0,0,1-4-1.6h-0.06l-0.14,1.26h-1V101.7Zm5.21,19.38c2.72,0,4.68-2.52,4.68-6.16,0-3.3-1.18-5.77-4.26-5.77-1.34,0-2.8.78-4.4,2.21v8A6.47,6.47,0,0,0,220.22,121.08Z"/><path class="cls-2" d="M237.86,113.4c0.06-2-.53-4.26-3.16-4.26a7.42,7.42,0,0,0-4.28,1.57l-0.56-.92a9,9,0,0,1,5-1.74c3.19,0,4.26,2.3,4.26,5.18v8.6h-1l-0.14-1.74h-0.06a8,8,0,0,1-4.76,2.07c-2.13,0-3.92-1.15-3.92-3.7C229.18,115.5,231.9,114.08,237.86,113.4Zm-4.56,7.7c1.54,0,2.91-.76,4.56-2.18v-4.56c-5.52.64-7.39,1.93-7.39,4.06A2.52,2.52,0,0,0,233.3,121.1Z"/><path class="cls-2" d="M248.61,108.05a5.52,5.52,0,0,1,3.95,1.65l-0.73.87a4.58,4.58,0,0,0-3.19-1.43c-2.74,0-4.87,2.44-4.87,6s1.93,5.94,4.87,5.94a5.4,5.4,0,0,0,3.58-1.54l0.64,0.84a6.35,6.35,0,0,1-4.28,1.79c-3.47,0-6.1-2.58-6.1-7S245.34,108.05,248.61,108.05Z"/><path class="cls-2" d="M255.87,101.7h1.23v14.84h0.06l6.64-8.15h1.43l-4.37,5.32,5.1,8.12h-1.37l-4.45-7.2-3,3.53v3.67h-1.23V101.7Z"/><path class="cls-2" d="M269.42,121.33v-0.11a2.4,2.4,0,0,1-1.18-2.16,3.16,3.16,0,0,1,1.46-2.46v-0.11a5,5,0,0,1-1.68-3.7,4.62,4.62,0,0,1,4.73-4.73,4.79,4.79,0,0,1,1.76.34h4.56v1h-3.14a4.47,4.47,0,0,1,1.48,3.39,4.59,4.59,0,0,1-4.68,4.73,4.67,4.67,0,0,1-2.24-.56,2.42,2.42,0,0,0-1.09,1.93c0,1,.56,1.76,2.58,1.76h2.88c3,0,4.42,1,4.42,3.08,0,2.32-2.49,4.54-6.36,4.54-3.39,0-5.52-1.46-5.52-3.72A4.24,4.24,0,0,1,269.42,121.33Zm3.67,6c3,0,5-1.71,5-3.39,0-1.48-1.09-2-3.11-2h-2.88a8.34,8.34,0,0,1-1.68-.22,3.51,3.51,0,0,0-1.76,2.83C268.61,126.14,270.23,127.29,273.09,127.29Zm3.14-14.5a3.49,3.49,0,1,0-7,0A3.5,3.5,0,1,0,276.22,112.79Z"/><path class="cls-2" d="M281.88,108.39h1.06l0.11,2.49h0.08c0.9-1.65,2.21-2.83,3.81-2.83a2.77,2.77,0,0,1,1.34.28L288,109.46a2.93,2.93,0,0,0-1.23-.22c-1.2,0-2.63.92-3.67,3.44v9.16h-1.23V108.39Z"/><path class="cls-2" d="M295.35,108.05c3.25,0,6,2.58,6,7.08s-2.8,7-6,7-6-2.58-6-7S292.13,108.05,295.35,108.05Zm0,13c2.72,0,4.76-2.41,4.76-5.94s-2-6-4.76-6-4.73,2.44-4.73,6S292.63,121.08,295.35,121.08Z"/><path class="cls-2" d="M304.92,108.39h1.23v8.46c0,2.86.9,4.2,3.05,4.2,1.6,0,2.77-.84,4.34-2.74v-9.91h1.23v13.44h-1l-0.14-2.24h-0.06c-1.32,1.54-2.72,2.58-4.56,2.58-2.77,0-4.06-1.68-4.06-5.15v-8.62Z"/><path class="cls-2" d="M319.62,108.39h1.06l0.11,2.07h0.08c1.37-1.37,2.77-2.41,4.62-2.41,2.77,0,4.06,1.68,4.06,5.15v8.62h-1.23v-8.46c0-2.86-.9-4.2-3.08-4.2-1.6,0-2.74.84-4.4,2.52v10.14h-1.23V108.39Z"/><path class="cls-2" d="M339.05,108.05a6.21,6.21,0,0,1,4.06,1.65l-0.06-2.46V101.7h1.23v20.13h-1.06l-0.11-1.74H343a6.29,6.29,0,0,1-4.37,2.07c-3.39,0-5.57-2.49-5.57-7C333.09,110.8,335.86,108.05,339.05,108.05Zm-0.22,13c1.48,0,2.8-.78,4.23-2.21v-8a5.68,5.68,0,0,0-3.92-1.74c-2.69,0-4.73,2.6-4.73,6C334.4,118.7,336,121.08,338.83,121.08Z"/><path class="cls-2" d="M204.27,147c0.06-2-.53-4.26-3.16-4.26a7.42,7.42,0,0,0-4.28,1.57l-0.56-.92a9,9,0,0,1,5-1.74c3.19,0,4.26,2.3,4.26,5.18v8.6h-1l-0.14-1.74h-0.06a8,8,0,0,1-4.76,2.07c-2.13,0-3.92-1.15-3.92-3.7C195.59,149.1,198.3,147.68,204.27,147Zm-4.56,7.7c1.54,0,2.91-.76,4.56-2.18V148c-5.52.64-7.39,1.93-7.39,4.06A2.52,2.52,0,0,0,199.7,154.7Z"/><path class="cls-2" d="M210,142h1.06l0.11,2.07h0.08c1.37-1.37,2.77-2.41,4.62-2.41,2.77,0,4.06,1.68,4.06,5.15v8.62h-1.23V147c0-2.86-.9-4.2-3.08-4.2-1.6,0-2.74.84-4.4,2.52v10.14H210V142Z"/><path class="cls-2" d="M229.44,141.65a6.21,6.21,0,0,1,4.06,1.65l-0.06-2.46V135.3h1.23v20.13h-1.06l-0.11-1.74h-0.08a6.29,6.29,0,0,1-4.37,2.07c-3.39,0-5.57-2.49-5.57-7C223.47,144.4,226.24,141.65,229.44,141.65Zm-0.22,13c1.48,0,2.8-.78,4.23-2.21v-8a5.68,5.68,0,0,0-3.92-1.74c-2.69,0-4.73,2.6-4.73,6C224.79,152.3,226.36,154.68,229.21,154.68Z"/><path class="cls-2" d="M249.51,141.65c3.19,0,5.15,2.27,5.15,6.22a6.12,6.12,0,0,1-.06,1h-9.69c0.06,3.39,2,5.82,5.07,5.82a6,6,0,0,0,3.61-1.2l0.5,1a7.49,7.49,0,0,1-4.23,1.32c-3.44,0-6.22-2.63-6.22-7S246.51,141.65,249.51,141.65Zm4,6.27c0-3.44-1.54-5.21-3.95-5.21s-4.34,2-4.62,5.21h8.57Z"/><path class="cls-2" d="M255.75,142h1.34l3,8.43c0.42,1.29.92,2.63,1.34,3.86h0.11c0.45-1.23.92-2.58,1.37-3.86l3-8.43h1.26l-5,13.44h-1.46Z"/><path class="cls-2" d="M274.74,141.65c3.25,0,6,2.58,6,7.08s-2.8,7-6,7-6-2.58-6-7S271.52,141.65,274.74,141.65Zm0,13c2.72,0,4.76-2.41,4.76-5.94s-2-6-4.76-6-4.73,2.44-4.73,6S272,154.68,274.74,154.68Z"/><path class="cls-2" d="M284.51,135.3h1.23v18.51c0,0.59.25,0.87,0.59,0.87a2.19,2.19,0,0,0,.5-0.06l0.22,1a2.61,2.61,0,0,1-.9.14c-1.09,0-1.65-.67-1.65-2.13V135.3Z"/><path class="cls-2" d="M290.64,142h1.23v8.46c0,2.86.9,4.2,3.05,4.2,1.6,0,2.77-.84,4.34-2.74V142h1.23v13.44h-1l-0.14-2.24h-0.06c-1.32,1.54-2.72,2.58-4.56,2.58-2.77,0-4.06-1.68-4.06-5.15V142Z"/><path class="cls-2" d="M305.65,143.05h-2.1v-1l2.13-.11,0.17-3.89h1.06V142h3.89v1.06h-3.89v8.76c0,1.71.42,2.86,2.27,2.86a4.51,4.51,0,0,0,1.68-.42l0.34,1a7.5,7.5,0,0,1-2.18.5c-2.6,0-3.36-1.65-3.36-4.06v-8.65Z"/><path class="cls-2" d="M313.29,137.65a1.12,1.12,0,1,1,1.12,1.09A1.07,1.07,0,0,1,313.29,137.65Zm0.48,4.34H315v13.44h-1.23V142Z"/><path class="cls-2" d="M324.77,141.65c3.25,0,6,2.58,6,7.08s-2.8,7-6,7-6-2.58-6-7S321.55,141.65,324.77,141.65Zm0,13c2.72,0,4.76-2.41,4.76-5.94s-2-6-4.76-6-4.73,2.44-4.73,6S322.06,154.68,324.77,154.68Z"/><path class="cls-2" d="M334.54,142h1.06l0.11,2.07h0.08c1.37-1.37,2.77-2.41,4.62-2.41,2.77,0,4.06,1.68,4.06,5.15v8.62h-1.23V147c0-2.86-.9-4.2-3.08-4.2-1.6,0-2.74.84-4.4,2.52v10.14h-1.23V142Z"/><polyline class="cls-3" points="350.35 84.76 4.5 84.76 28.5 67.54"/></svg>