<svg id="Layer_1" data-name="Layer 1" xmlns="http://www.w3.org/2000/svg" viewBox="0 0 354.67 174.01"><defs><style>.cls-1{fill:#2e74b4;}.cls-2{fill:#231f20;}.cls-3{fill:none;stroke:#2e74b4;stroke-linecap:square;stroke-linejoin:round;stroke-width:1.62px;}</style></defs><title>arrowl5</title><path class="cls-1" d="M347.14,59.23h-3.42v6.87h-1.55V59.23H331.59V58.3l10.69-15.19h1.44V57.87h3.42v1.37Zm-5-1.37V49.44c0-1,.07-2.92.14-4h-0.14c-0.58,1-1.22,1.83-1.87,2.88l-6.77,9.5h8.64Z"/><path class="cls-2" d="M91.93,103.38h4.26c5.68,0,8.4,3.58,8.4,9.16s-2.72,9.3-8.37,9.3H91.93V103.38ZM96,120.74c5,0,7.2-3.39,7.2-8.2s-2.18-8.06-7.2-8.06H93.22v16.27H96Z"/><path class="cls-2" d="M107.86,104.05a1.12,1.12,0,1,1,1.12,1.09A1.07,1.07,0,0,1,107.86,104.05Zm0.48,4.34h1.23v13.44h-1.23V108.39Z"/><path class="cls-2" d="M113.49,119.4a6.24,6.24,0,0,0,4.28,1.71c2.1,0,3.19-1.23,3.19-2.66,0-1.68-1.74-2.41-3.28-3-2-.73-4.28-1.54-4.28-3.84,0-2,1.54-3.58,4.34-3.58a6.24,6.24,0,0,1,3.84,1.4l-0.67.87a5.09,5.09,0,0,0-3.22-1.2c-2.07,0-3,1.2-3,2.44,0,1.48,1.57,2.13,3.16,2.72,2.1,0.78,4.4,1.48,4.4,4.12,0,2-1.62,3.78-4.54,3.78a7.78,7.78,0,0,1-4.93-1.85Z"/><path class="cls-2" d="M130.48,108.05a5.52,5.52,0,0,1,3.95,1.65l-0.73.87a4.58,4.58,0,0,0-3.19-1.43c-2.74,0-4.87,2.44-4.87,6s1.93,5.94,4.87,5.94a5.4,5.4,0,0,0,3.58-1.54l0.64,0.84a6.35,6.35,0,0,1-4.28,1.79c-3.47,0-6.1-2.58-6.1-7S127.21,108.05,130.48,108.05Z"/><path class="cls-2" d="M137.26,104.05a1.12,1.12,0,1,1,1.12,1.09A1.07,1.07,0,0,1,137.26,104.05Zm0.48,4.34H139v13.44h-1.23V108.39Z"/><path class="cls-2" d="M145.07,123v4.9h-1.23V108.39h1.06l0.11,1.68h0.08a7.86,7.86,0,0,1,4.56-2c3.58,0,5.38,2.69,5.38,6.86,0,4.56-2.77,7.25-5.94,7.25a7.11,7.11,0,0,1-4-1.65V123Zm4-1.93c2.72,0,4.68-2.52,4.68-6.16,0-3.3-1.18-5.77-4.26-5.77-1.34,0-2.77.78-4.4,2.21v8A6.59,6.59,0,0,0,149,121.08Z"/><path class="cls-2" d="M158.76,101.7H160v18.51c0,0.59.25,0.87,0.59,0.87a2.19,2.19,0,0,0,.5-0.06l0.22,1a2.61,2.61,0,0,1-.9.14c-1.09,0-1.65-.67-1.65-2.13V101.7Z"/><path class="cls-2" d="M164.61,104.05a1.12,1.12,0,1,1,1.12,1.09A1.07,1.07,0,0,1,164.61,104.05Zm0.48,4.34h1.23v13.44h-1.23V108.39Z"/><path class="cls-2" d="M171.19,108.39h1.06l0.11,2.07h0.08c1.37-1.37,2.77-2.41,4.62-2.41,2.77,0,4.06,1.68,4.06,5.15v8.62H179.9v-8.46c0-2.86-.9-4.2-3.08-4.2-1.6,0-2.74.84-4.4,2.52v10.14h-1.23V108.39Z"/><path class="cls-2" d="M190.51,108.05c3.19,0,5.15,2.27,5.15,6.22a6.12,6.12,0,0,1-.06,1h-9.69c0.06,3.39,2,5.82,5.07,5.82a6,6,0,0,0,3.61-1.2l0.5,1a7.49,7.49,0,0,1-4.23,1.32c-3.44,0-6.22-2.63-6.22-7S187.52,108.05,190.51,108.05Zm4,6.27c0-3.44-1.54-5.21-3.95-5.21s-4.34,2-4.62,5.21h8.57Z"/><path class="cls-2" d="M198,119.4a6.24,6.24,0,0,0,4.28,1.71c2.1,0,3.19-1.23,3.19-2.66,0-1.68-1.74-2.41-3.28-3-2-.73-4.28-1.54-4.28-3.84,0-2,1.54-3.58,4.34-3.58a6.24,6.24,0,0,1,3.84,1.4l-0.67.87a5.09,5.09,0,0,0-3.22-1.2c-2.07,0-3,1.2-3,2.44,0,1.48,1.57,2.13,3.16,2.72,2.1,0.78,4.4,1.48,4.4,4.12,0,2-1.62,3.78-4.54,3.78a7.78,7.78,0,0,1-4.93-1.85Z"/><path class="cls-2" d="M220.19,108.05c3.25,0,6,2.58,6,7.08s-2.8,7-6,7-6-2.58-6-7S217,108.05,220.19,108.05Zm0,13c2.72,0,4.76-2.41,4.76-5.94s-2-6-4.76-6-4.73,2.44-4.73,6S217.48,121.08,220.19,121.08Z"/><path class="cls-2" d="M227.72,108.39h1.34l3,8.43c0.42,1.29.92,2.63,1.34,3.86h0.11c0.45-1.23.92-2.58,1.37-3.86l3-8.43h1.26l-5,13.44h-1.46Z"/><path class="cls-2" d="M246.54,108.05c3.19,0,5.15,2.27,5.15,6.22a6.12,6.12,0,0,1-.06,1h-9.69c0.06,3.39,2,5.82,5.07,5.82a6,6,0,0,0,3.61-1.2l0.5,1a7.49,7.49,0,0,1-4.23,1.32c-3.44,0-6.22-2.63-6.22-7S243.54,108.05,246.54,108.05Zm4,6.27c0-3.44-1.54-5.21-3.95-5.21s-4.34,2-4.62,5.21h8.57Z"/><path class="cls-2" d="M255,108.39h1.06l0.11,2.49h0.08c0.9-1.65,2.21-2.83,3.81-2.83a2.77,2.77,0,0,1,1.34.28l-0.28,1.12a2.93,2.93,0,0,0-1.23-.22c-1.2,0-2.63.92-3.67,3.44v9.16H255V108.39Z"/><path class="cls-2" d="M263.59,101.7h1.23v18.51c0,0.59.25,0.87,0.59,0.87a2.19,2.19,0,0,0,.5-0.06l0.22,1a2.61,2.61,0,0,1-.9.14c-1.09,0-1.65-.67-1.65-2.13V101.7Z"/><path class="cls-2" d="M277.84,113.4c0.06-2-.53-4.26-3.16-4.26a7.42,7.42,0,0,0-4.28,1.57l-0.56-.92a9,9,0,0,1,5-1.74c3.19,0,4.26,2.3,4.26,5.18v8.6h-1l-0.14-1.74h-0.06a8,8,0,0,1-4.76,2.07c-2.13,0-3.92-1.15-3.92-3.7C269.16,115.5,271.88,114.08,277.84,113.4Zm-4.56,7.7c1.54,0,2.91-.76,4.56-2.18v-4.56c-5.52.64-7.39,1.93-7.39,4.06A2.52,2.52,0,0,0,273.28,121.1Z"/><path class="cls-2" d="M284.81,123v4.9h-1.23V108.39h1.06l0.11,1.68h0.08a7.86,7.86,0,0,1,4.56-2c3.58,0,5.38,2.69,5.38,6.86,0,4.56-2.77,7.25-5.94,7.25a7.11,7.11,0,0,1-4-1.65V123Zm4-1.93c2.72,0,4.68-2.52,4.68-6.16,0-3.3-1.18-5.77-4.26-5.77-1.34,0-2.77.78-4.4,2.21v8A6.59,6.59,0,0,0,288.79,121.08Z"/><path class="cls-2" d="M299.74,123v4.9h-1.23V108.39h1.06l0.11,1.68h0.08a7.86,7.86,0,0,1,4.56-2c3.58,0,5.38,2.69,5.38,6.86,0,4.56-2.77,7.25-5.94,7.25a7.11,7.11,0,0,1-4-1.65V123Zm4-1.93c2.72,0,4.68-2.52,4.68-6.16,0-3.3-1.18-5.77-4.26-5.77-1.34,0-2.77.78-4.4,2.21v8A6.59,6.59,0,0,0,303.71,121.08Z"/><path class="cls-2" d="M313,104.05a1.12,1.12,0,1,1,1.12,1.09A1.07,1.07,0,0,1,313,104.05Zm0.48,4.34h1.23v13.44h-1.23V108.39Z"/><path class="cls-2" d="M319.53,108.39h1.06l0.11,2.07h0.08c1.37-1.37,2.77-2.41,4.62-2.41,2.77,0,4.06,1.68,4.06,5.15v8.62h-1.23v-8.46c0-2.86-.9-4.2-3.08-4.2-1.6,0-2.74.84-4.4,2.52v10.14h-1.23V108.39Z"/><path class="cls-2" d="M335,121.33v-0.11a2.4,2.4,0,0,1-1.18-2.16,3.16,3.16,0,0,1,1.46-2.46v-0.11a5,5,0,0,1-1.68-3.7,4.62,4.62,0,0,1,4.73-4.73,4.79,4.79,0,0,1,1.76.34h4.56v1h-3.14a4.47,4.47,0,0,1,1.48,3.39,4.59,4.59,0,0,1-4.68,4.73,4.67,4.67,0,0,1-2.24-.56,2.42,2.42,0,0,0-1.09,1.93c0,1,.56,1.76,2.58,1.76h2.88c3,0,4.42,1,4.42,3.08,0,2.32-2.49,4.54-6.36,4.54-3.39,0-5.52-1.46-5.52-3.72A4.24,4.24,0,0,1,335,121.33Zm3.67,6c3,0,5-1.71,5-3.39,0-1.48-1.09-2-3.11-2h-2.88a8.34,8.34,0,0,1-1.68-.22,3.51,3.51,0,0,0-1.76,2.83C334.18,126.14,335.8,127.29,338.66,127.29Zm3.14-14.5a3.49,3.49,0,1,0-7,0A3.5,3.5,0,1,0,341.79,112.79Z"/><polyline class="cls-3" points="350.35 84.76 4.5 84.76 28.5 67.54"/></svg>