<svg id="Layer_1" data-name="Layer 1" xmlns="http://www.w3.org/2000/svg" viewBox="0 0 354.67 174.01"><defs><style>.cls-1{fill:#2e74b4;}.cls-2{fill:#231f20;}.cls-3{fill:none;stroke:#2e74b4;stroke-linecap:square;stroke-linejoin:round;stroke-width:1.62px;}</style></defs><title>arrowl4</title><path class="cls-1" d="M332.71,62.19a8,8,0,0,0,6.37,3c3.1,0,5.36-2,5.36-5.08s-2.3-5.33-8-5.33v-1.4c5.33,0,7.2-2.23,7.2-5,0-2.59-1.84-4.28-4.64-4.28a7.42,7.42,0,0,0-5.29,2.52l-0.94-1.08A8.72,8.72,0,0,1,339,42.68c3.56,0,6.3,2,6.3,5.54,0,3-1.87,4.82-4.39,5.69v0.14c2.84,0.61,5.22,2.74,5.22,6,0,4-3.06,6.51-7,6.51a9.53,9.53,0,0,1-7.31-3.24Z"/><path class="cls-2" d="M108.7,104.5h-5.88v-1.12h13v1.12H110v17.33H108.7V104.5Z"/><path class="cls-2" d="M123.57,108.05c3.19,0,5.15,2.27,5.15,6.22a6.12,6.12,0,0,1-.06,1H119c0.06,3.39,2,5.82,5.07,5.82a6,6,0,0,0,3.61-1.2l0.5,1a7.49,7.49,0,0,1-4.23,1.32c-3.44,0-6.22-2.63-6.22-7S120.57,108.05,123.57,108.05Zm4,6.27c0-3.44-1.54-5.21-3.95-5.21s-4.34,2-4.62,5.21h8.57Z"/><path class="cls-2" d="M140,113.4c0.06-2-.53-4.26-3.16-4.26a7.42,7.42,0,0,0-4.28,1.57l-0.56-.92a9,9,0,0,1,5-1.74c3.19,0,4.26,2.3,4.26,5.18v8.6h-1L140,120.1H140a8,8,0,0,1-4.76,2.07c-2.13,0-3.92-1.15-3.92-3.7C131.3,115.5,134,114.08,140,113.4Zm-4.56,7.7c1.54,0,2.91-.76,4.56-2.18v-4.56c-5.52.64-7.39,1.93-7.39,4.06A2.52,2.52,0,0,0,135.41,121.1Z"/><path class="cls-2" d="M145.72,108.39h1.06l0.11,2.07H147a6.16,6.16,0,0,1,4.23-2.41,3.49,3.49,0,0,1,3.72,2.74c1.54-1.68,3-2.74,4.56-2.74,2.69,0,4,1.68,4,5.15v8.62h-1.26v-8.46c0-2.86-1-4.2-3-4.2-1.26,0-2.55.84-4,2.52v10.14H154v-8.46c0-2.86-1-4.2-3-4.2q-1.81,0-4,2.52v10.14h-1.23V108.39Z"/><path class="cls-2" d="M173.41,108.39h1.06l0.11,2.49h0.08c0.9-1.65,2.21-2.83,3.81-2.83a2.77,2.77,0,0,1,1.34.28l-0.28,1.12a2.93,2.93,0,0,0-1.23-.22c-1.2,0-2.63.92-3.67,3.44v9.16h-1.23V108.39Z"/><path class="cls-2" d="M186.88,108.05c3.25,0,6,2.58,6,7.08s-2.8,7-6,7-6-2.58-6-7S183.66,108.05,186.88,108.05Zm0,13c2.72,0,4.76-2.41,4.76-5.94s-2-6-4.76-6-4.73,2.44-4.73,6S184.16,121.08,186.88,121.08Z"/><path class="cls-2" d="M196.65,101.7h1.23v18.51c0,0.59.25,0.87,0.59,0.87A2.19,2.19,0,0,0,199,121l0.22,1a2.61,2.61,0,0,1-.9.14c-1.09,0-1.65-.67-1.65-2.13V101.7Z"/><path class="cls-2" d="M207.71,108.05c3.19,0,5.15,2.27,5.15,6.22a6.12,6.12,0,0,1-.06,1h-9.69c0.06,3.39,2,5.82,5.07,5.82a6,6,0,0,0,3.61-1.2l0.5,1a7.49,7.49,0,0,1-4.23,1.32c-3.44,0-6.22-2.63-6.22-7S204.71,108.05,207.71,108.05Zm4,6.27c0-3.44-1.54-5.21-3.95-5.21s-4.34,2-4.62,5.21h8.57Z"/><path class="cls-2" d="M215.24,119.4a6.24,6.24,0,0,0,4.28,1.71c2.1,0,3.19-1.23,3.19-2.66,0-1.68-1.74-2.41-3.28-3-2-.73-4.28-1.54-4.28-3.84,0-2,1.54-3.58,4.34-3.58a6.24,6.24,0,0,1,3.84,1.4l-0.67.87a5.09,5.09,0,0,0-3.22-1.2c-2.07,0-3,1.2-3,2.44,0,1.48,1.57,2.13,3.16,2.72,2.1,0.78,4.4,1.48,4.4,4.12,0,2-1.62,3.78-4.54,3.78a7.78,7.78,0,0,1-4.93-1.85Z"/><path class="cls-2" d="M240.41,113.4c0.06-2-.53-4.26-3.16-4.26a7.42,7.42,0,0,0-4.28,1.57l-0.56-.92a9,9,0,0,1,5-1.74c3.19,0,4.26,2.3,4.26,5.18v8.6h-1l-0.14-1.74h-0.06a8,8,0,0,1-4.76,2.07c-2.13,0-3.92-1.15-3.92-3.7C231.73,115.5,234.45,114.08,240.41,113.4Zm-4.56,7.7c1.54,0,2.91-.76,4.56-2.18v-4.56c-5.52.64-7.39,1.93-7.39,4.06A2.52,2.52,0,0,0,235.85,121.1Z"/><path class="cls-2" d="M246.15,108.39h1.06l0.11,2.07h0.08c1.37-1.37,2.77-2.41,4.62-2.41,2.77,0,4.06,1.68,4.06,5.15v8.62h-1.23v-8.46c0-2.86-.9-4.2-3.08-4.2-1.6,0-2.74.84-4.4,2.52v10.14h-1.23V108.39Z"/><path class="cls-2" d="M265.58,108.05a6.21,6.21,0,0,1,4.06,1.65l-0.06-2.46V101.7h1.23v20.13h-1.06l-0.11-1.74h-0.08a6.29,6.29,0,0,1-4.37,2.07c-3.39,0-5.57-2.49-5.57-7C259.62,110.8,262.39,108.05,265.58,108.05Zm-0.22,13c1.48,0,2.8-.78,4.23-2.21v-8a5.68,5.68,0,0,0-3.92-1.74c-2.69,0-4.73,2.6-4.73,6C260.93,118.7,262.5,121.08,265.36,121.08Z"/><path class="cls-2" d="M285.77,108.05a6.21,6.21,0,0,1,4.06,1.65l-0.06-2.46V101.7H291v20.13h-1.06l-0.11-1.74h-0.08a6.29,6.29,0,0,1-4.37,2.07c-3.39,0-5.57-2.49-5.57-7C279.8,110.8,282.57,108.05,285.77,108.05Zm-0.22,13c1.48,0,2.8-.78,4.23-2.21v-8a5.68,5.68,0,0,0-3.92-1.74c-2.69,0-4.73,2.6-4.73,6C281.12,118.7,282.69,121.08,285.54,121.08Z"/><path class="cls-2" d="M295.65,108.39h1.23v8.46c0,2.86.9,4.2,3.05,4.2,1.6,0,2.77-.84,4.34-2.74v-9.91h1.23v13.44h-1l-0.14-2.24h-0.06c-1.32,1.54-2.72,2.58-4.56,2.58-2.77,0-4.06-1.68-4.06-5.15v-8.62Z"/><path class="cls-2" d="M310.66,109.46h-2.1v-1l2.13-.11,0.17-3.89h1.06v3.89h3.89v1.06h-3.89v8.76c0,1.71.42,2.86,2.27,2.86a4.51,4.51,0,0,0,1.68-.42l0.34,1a7.5,7.5,0,0,1-2.18.5c-2.6,0-3.36-1.65-3.36-4.06v-8.65Z"/><path class="cls-2" d="M318.3,104.05a1.12,1.12,0,1,1,1.12,1.09A1.07,1.07,0,0,1,318.3,104.05Zm0.48,4.34H320v13.44h-1.23V108.39Z"/><path class="cls-2" d="M329.61,108.05c3.19,0,5.15,2.27,5.15,6.22a6.12,6.12,0,0,1-.06,1H325c0.06,3.39,2,5.82,5.07,5.82a6,6,0,0,0,3.61-1.2l0.5,1a7.49,7.49,0,0,1-4.23,1.32c-3.44,0-6.22-2.63-6.22-7S326.62,108.05,329.61,108.05Zm4,6.27c0-3.44-1.54-5.21-3.95-5.21s-4.34,2-4.62,5.21h8.57Z"/><path class="cls-2" d="M337.15,119.4a6.24,6.24,0,0,0,4.28,1.71c2.1,0,3.19-1.23,3.19-2.66,0-1.68-1.74-2.41-3.28-3-2-.73-4.28-1.54-4.28-3.84,0-2,1.54-3.58,4.34-3.58a6.24,6.24,0,0,1,3.84,1.4l-0.67.87a5.09,5.09,0,0,0-3.22-1.2c-2.07,0-3,1.2-3,2.44,0,1.48,1.57,2.13,3.16,2.72,2.1,0.78,4.4,1.48,4.4,4.12,0,2-1.62,3.78-4.54,3.78a7.78,7.78,0,0,1-4.93-1.85Z"/><polyline class="cls-3" points="350.35 84.76 4.5 84.76 28.5 67.54"/></svg>