<svg id="Layer_1" data-name="Layer 1" xmlns="http://www.w3.org/2000/svg" xmlns:xlink="http://www.w3.org/1999/xlink" viewBox="0 0 362.94 37.57"><defs><style>.cls-1,.cls-3,.cls-4{fill:none;}.cls-2{clip-path:url(#clip-path);}.cls-3{stroke:#5c9ad2;stroke-miterlimit:10;stroke-width:2.49px;}.cls-4{stroke:#2e74b4;stroke-linecap:square;stroke-linejoin:round;stroke-width:1.1px;}.cls-5{fill:#2e74b4;}</style><clipPath id="clip-path"><rect class="cls-1" x="-605.86" y="-229.9" width="1137.74" height="50"/></clipPath></defs><title>authorswebsite</title><g class="cls-2"><path class="cls-3" d="M-756.62-51.88C-506.51,13.42-323.1,12.8-197.89-1.94c149-17.54,263.43-60.72,413-31.21,57.61,11.37,107.48,31,196.55,32.46A664.88,664.88,0,0,0,592.72-23.17"/></g><polyline class="cls-4" points="326.79 30.53 358.11 30.53 341.75 18.79"/><path class="cls-5" d="M11.23,13.25H13l3.1,11.19c0.43,1.58.83,3.06,1.19,4.61h0.14c0.4-1.55.83-3,1.26-4.61l3.13-11.19h1.91l3.13,11.19c0.43,1.58.86,3.06,1.3,4.61h0.14c0.4-1.55.83-3,1.22-4.61l3.06-11.19h1.62l-5,17.28H27.11l-3-10.73c-0.5-1.66-.83-3.24-1.33-4.93H22.61c-0.4,1.69-.83,3.35-1.37,5l-3,10.65H16.34Z"/><path class="cls-5" d="M44.42,12.82c4.1,0,6.62,2.92,6.62,8A7.8,7.8,0,0,1,51,22.1H38.52c0.07,4.36,2.63,7.49,6.52,7.49A7.66,7.66,0,0,0,49.68,28l0.65,1.22A9.63,9.63,0,0,1,44.89,31c-4.43,0-8-3.38-8-9S40.57,12.82,44.42,12.82Zm5.11,8.06c0-4.43-2-6.7-5.08-6.7s-5.58,2.56-5.94,6.7h11Z"/><path class="cls-5" d="M55.73,4.65h1.58v7.49l-0.07,3.38c1.76-1.48,3.85-2.7,6-2.7,4.61,0,6.91,3.46,6.91,8.82,0,5.87-3.56,9.32-7.63,9.32a8.94,8.94,0,0,1-5.18-2.05H57.24l-0.18,1.62H55.73V4.65Zm6.7,24.91c3.49,0,6-3.24,6-7.92,0-4.25-1.51-7.42-5.47-7.42-1.73,0-3.6,1-5.65,2.84V27.32A8.31,8.31,0,0,0,62.42,29.56Z"/><path class="cls-5" d="M74.09,27.4a8,8,0,0,0,5.51,2.2c2.7,0,4.1-1.58,4.1-3.42,0-2.16-2.23-3.1-4.21-3.82-2.63-.94-5.51-2-5.51-4.93,0-2.52,2-4.61,5.58-4.61a8,8,0,0,1,4.93,1.8l-0.86,1.12a6.54,6.54,0,0,0-4.14-1.55c-2.66,0-3.89,1.55-3.89,3.13,0,1.91,2,2.74,4.07,3.49,2.7,1,5.65,1.91,5.65,5.29,0,2.59-2.09,4.86-5.83,4.86a10,10,0,0,1-6.34-2.38Z"/><path class="cls-5" d="M89.28,7.67a1.44,1.44,0,1,1,1.44,1.4A1.38,1.38,0,0,1,89.28,7.67Zm0.61,5.58h1.58V30.53H89.89V13.25Z"/><path class="cls-5" d="M98.53,14.62h-2.7V13.39l2.74-.14,0.22-5h1.37v5h5v1.37h-5V25.88c0,2.2.54,3.67,2.92,3.67a5.79,5.79,0,0,0,2.16-.54l0.43,1.3a9.64,9.64,0,0,1-2.81.65c-3.35,0-4.32-2.12-4.32-5.22V14.62Z"/><path class="cls-5" d="M115.45,12.82c4.1,0,6.62,2.92,6.62,8a7.8,7.8,0,0,1-.07,1.3H109.55c0.07,4.36,2.63,7.49,6.52,7.49A7.66,7.66,0,0,0,120.71,28l0.65,1.22A9.63,9.63,0,0,1,115.92,31c-4.43,0-8-3.38-8-9S111.6,12.82,115.45,12.82Zm5.11,8.06c0-4.43-2-6.7-5.08-6.7s-5.58,2.56-5.94,6.7h11Z"/></svg>