<svg id="Layer_1" data-name="Layer 1" xmlns="http://www.w3.org/2000/svg" viewBox="0 0 362.94 37.57"><defs><style>.cls-1{fill:none;stroke:#2e74b4;stroke-linecap:square;stroke-linejoin:round;stroke-width:1.1px;}.cls-2{fill:#2e74b4;}</style></defs><title>conclusions</title><polyline class="cls-1" points="324.51 17.74 355.83 17.74 339.47 6"/><polyline class="cls-1" points="324.51 20.62 355.83 20.62 339.47 32.36"/><path class="cls-2" d="M18.15,3.47A4.67,4.67,0,0,0,16.06,3c-1.84,0-2.7,1.44-2.7,3.92v3.74h4V12h-4V27.91H11.78V12H9.4V10.78l2.38-.14V6.78c0-3.42,1.55-5.18,4.28-5.18a6.41,6.41,0,0,1,2.52.58Z"/><path class="cls-2" d="M20.38,5.05a1.44,1.44,0,1,1,2.88,0A1.44,1.44,0,0,1,20.38,5.05ZM21,10.63h1.58V27.91H21V10.63Z"/><path class="cls-2" d="M29.24,10.63H30.6l0.14,2.66h0.11c1.76-1.76,3.56-3.1,5.94-3.1,3.56,0,5.22,2.16,5.22,6.62V27.91H40.43V17c0-3.67-1.15-5.4-4-5.4-2.05,0-3.53,1.08-5.65,3.24v13H29.24V10.63Z"/><path class="cls-2" d="M58.57,17.08c0.07-2.63-.68-5.47-4.07-5.47a9.53,9.53,0,0,0-5.51,2l-0.72-1.19a11.53,11.53,0,0,1,6.41-2.23c4.1,0,5.47,3,5.47,6.66V27.91H58.83l-0.18-2.23H58.57c-1.76,1.4-3.85,2.66-6.12,2.66-2.74,0-5-1.48-5-4.75C47.42,19.78,50.91,17.94,58.57,17.08ZM52.71,27c2,0,3.74-1,5.87-2.81V18.3c-7.09.83-9.5,2.48-9.5,5.22C49.07,26,50.73,27,52.71,27Z"/><path class="cls-2" d="M66.35,2h1.58V25.82c0,0.76.32,1.12,0.76,1.12a2.78,2.78,0,0,0,.65-0.07l0.29,1.3a3.36,3.36,0,0,1-1.15.18c-1.4,0-2.12-.86-2.12-2.74V2Z"/><path class="cls-2" d="M88.49,10.2a7.09,7.09,0,0,1,5.08,2.12l-0.94,1.12a5.89,5.89,0,0,0-4.1-1.84c-3.53,0-6.26,3.13-6.26,7.7s2.48,7.63,6.26,7.63a7,7,0,0,0,4.61-2L94,26a8.16,8.16,0,0,1-5.51,2.3c-4.46,0-7.85-3.31-7.85-9S84.28,10.2,88.49,10.2Z"/><path class="cls-2" d="M104.51,10.2c4.18,0,7.77,3.31,7.77,9.11s-3.6,9-7.77,9-7.74-3.31-7.74-9S100.37,10.2,104.51,10.2Zm0,16.74c3.49,0,6.12-3.1,6.12-7.63s-2.63-7.7-6.12-7.7-6.08,3.13-6.08,7.7S101,26.94,104.51,26.94Z"/><path class="cls-2" d="M117.47,10.63h1.37L119,13.3h0.11c1.76-1.76,3.56-3.1,5.94-3.1,3.56,0,5.22,2.16,5.22,6.62V27.91h-1.58V17c0-3.67-1.15-5.4-4-5.4-2.05,0-3.53,1.08-5.65,3.24v13h-1.58V10.63Z"/><path class="cls-2" d="M143.07,10.2a7.09,7.09,0,0,1,5.08,2.12l-0.94,1.12a5.89,5.89,0,0,0-4.1-1.84c-3.53,0-6.26,3.13-6.26,7.7s2.48,7.63,6.26,7.63a7,7,0,0,0,4.61-2L148.54,26a8.16,8.16,0,0,1-5.51,2.3c-4.46,0-7.85-3.31-7.85-9S138.85,10.2,143.07,10.2Z"/><path class="cls-2" d="M152.79,2h1.58V25.82c0,0.76.32,1.12,0.76,1.12a2.78,2.78,0,0,0,.65-0.07l0.29,1.3a3.36,3.36,0,0,1-1.15.18c-1.4,0-2.12-.86-2.12-2.74V2Z"/><path class="cls-2" d="M161.07,10.63h1.58V21.5c0,3.67,1.15,5.4,3.92,5.4,2.05,0,3.56-1.08,5.58-3.53V10.63h1.58V27.91H172.4L172.22,25h-0.07c-1.69,2-3.49,3.31-5.87,3.31-3.56,0-5.22-2.16-5.22-6.62V10.63Z"/><path class="cls-2" d="M179.14,24.78a8,8,0,0,0,5.51,2.2c2.7,0,4.1-1.58,4.1-3.42,0-2.16-2.23-3.1-4.21-3.82-2.63-.94-5.51-2-5.51-4.93,0-2.52,2-4.61,5.58-4.61a8,8,0,0,1,4.93,1.8l-0.86,1.12a6.54,6.54,0,0,0-4.14-1.55c-2.66,0-3.89,1.55-3.89,3.13,0,1.91,2,2.74,4.07,3.49,2.7,1,5.65,1.91,5.65,5.29,0,2.59-2.09,4.86-5.83,4.86A10,10,0,0,1,178.2,26Z"/><path class="cls-2" d="M194.33,5.05a1.44,1.44,0,1,1,2.88,0A1.44,1.44,0,0,1,194.33,5.05Zm0.61,5.58h1.58V27.91h-1.58V10.63Z"/><path class="cls-2" d="M209.48,10.2c4.18,0,7.77,3.31,7.77,9.11s-3.6,9-7.77,9-7.74-3.31-7.74-9S205.34,10.2,209.48,10.2Zm0,16.74c3.49,0,6.12-3.1,6.12-7.63s-2.63-7.7-6.12-7.7-6.08,3.13-6.08,7.7S206,26.94,209.48,26.94Z"/><path class="cls-2" d="M222.44,10.63h1.37L224,13.3h0.11c1.76-1.76,3.56-3.1,5.94-3.1,3.56,0,5.22,2.16,5.22,6.62V27.91h-1.58V17c0-3.67-1.15-5.4-4-5.4-2.05,0-3.53,1.08-5.65,3.24v13h-1.58V10.63Z"/><path class="cls-2" d="M240.37,24.78a8,8,0,0,0,5.51,2.2c2.7,0,4.1-1.58,4.1-3.42,0-2.16-2.23-3.1-4.21-3.82-2.63-.94-5.51-2-5.51-4.93,0-2.52,2-4.61,5.58-4.61a8,8,0,0,1,4.93,1.8l-0.86,1.12a6.54,6.54,0,0,0-4.14-1.55c-2.66,0-3.89,1.55-3.89,3.13,0,1.91,2,2.74,4.07,3.49,2.7,1,5.65,1.91,5.65,5.29,0,2.59-2.09,4.86-5.83,4.86A10,10,0,0,1,239.44,26Z"/></svg>