<svg id="Layer_1" data-name="Layer 1" xmlns="http://www.w3.org/2000/svg" xmlns:xlink="http://www.w3.org/1999/xlink" viewBox="0 0 362.94 37.57"><defs><style>.cls-1,.cls-3,.cls-5{fill:none;}.cls-2{clip-path:url(#clip-path);}.cls-3{stroke:#5c9ad2;stroke-width:2.49px;}.cls-3,.cls-5{stroke-miterlimit:10;}.cls-4{fill:#2e74b4;}.cls-5{stroke:#069;}.cls-6{fill:#069;}</style><clipPath id="clip-path"><rect class="cls-1" x="-605.86" y="-112.45" width="1137.74" height="50"/></clipPath></defs><title>connectlinkedin</title><g class="cls-2"><path class="cls-3" d="M589.53,55.71c-37.5,13.39-71.23,22-112.81,24.61-33.54,2.14-66.09.67-102.6,0.33C289,79.87,241.07,61.24,186,50.88,44,23.81-65,64.9-209.08,82c-25.61,3-53.75,5.47-84.51,6.82-114.92,5.22-264-5.24-450.28-53.3"/><path class="cls-3" d="M588.74,46.07C548.15,61.14,514,70,471.52,72.29c-35.39,1.88-68.86-.38-106.77-0.67-84.15-.64-131.59-19-186-29.1C38.56,16.06-69,56.63-211.88,73.66c-25.33,3-53.15,5.42-83.55,6.78C-409.51,85.71-557.06,75.28-740.69,28"/><path class="cls-3" d="M587.94,36.43c-43.67,16.76-78.17,26-121.63,27.84-37.25,1.62-71.63-1.43-110.94-1.67C272.2,62.09,225.25,44,171.46,34.17,33.16,8.32-73,48.37-214.68,65.28c-25,3-52.55,5.37-82.6,6.73C-410.5,77.35-556.48,67-737.5,20.54"/><path class="cls-3" d="M587.15,26.78c-46.76,18.44-81.64,27.93-126,29.46C422,57.59,386.69,53.76,346,53.57c-82.19-.39-128.67-18-181.81-27.75C27.71,0.88-77,40.1-217.48,56.91c-24.76,2.95-51.94,5.33-81.65,6.69C-411.5,69-555.9,58.63-734.31,13"/><path class="cls-3" d="M586.35,17.14C536.5,37.26,501.23,47,455.89,48.21c-41,1.07-77.18-3.53-119.27-3.67-81.2-.28-127.2-17.6-179.71-27.08C22.3-6.83-81,31.84-220.28,48.54c-24.47,2.92-51.34,5.28-80.7,6.64C-412.5,60.63-555.32,50.3-731.13,5.53"/><path class="cls-3" d="M585.55,7.5C532.61,29.3,497,39.34,450.68,40.18c-42.81.78-80-4.58-123.44-4.67C247,35.34,201.51,18.35,149.64,9.11,16.9-14.53-85.06,23.57-223.08,40.17c-24.19,2.89-50.74,5.23-79.74,6.59C-413.49,52.27-554.74,42-727.94-2"/><path class="cls-3" d="M584.76-2.15c-56,23.49-92.07,33.79-139.29,34.3-44.67.49-82.72-5.63-127.6-5.67C238.63,26.41,193.6,9.75,142.37.76c-130.88-23-231.45,14.55-368.25,31-23.9,2.86-50.14,5.19-78.79,6.55-109.82,5.57-249.49-4.7-420.09-47.82"/><path class="cls-3" d="M584-11.79c-59.11,25.18-95.55,35.73-143.7,35.92-46.52.19-85.5-6.68-131.77-6.67-78.25,0-122.8-16.3-173.39-25.06C6.09-29.94-93.11,7-228.68,23.43c-23.62,2.83-49.53,5.14-77.84,6.5-109,5.62-247.07-4.61-415.05-46.91"/><path class="cls-3" d="M583.16-21.44C521,5.42,484.14,16.22,435,16.1,386.67,16,346.78,8.37,299.11,8.43,221.85,8.53,177.78-7.43,127.83-16c-127.14-21.69-225,14.72-359.3,31-23.33,2.81-48.93,5.09-76.89,6.45-108.12,5.68-244.64-4.52-410-46"/><path class="cls-3" d="M582.37-31.08C517.08-2.54,479.87,8.5,429.84,8.07c-50.24-.43-91-8.78-140.1-8.67C213.46-.41,169.87-16,120.56-24.31c-125.27-21-221.71,14.81-354.83,31-23,2.78-48.33,5-75.94,6.41C-417.49,18.61-552.43,8.66-715.2-32"/><path class="cls-3" d="M581.57-40.72C513.19-10.5,475.59.78,424.63,0,372.53-.7,330.82-9.79,280.36-9.62c-75.3.25-118.39-15-167.07-23-123.4-20.4-218.46,14.9-350.36,31-22.76,2.75-47.73,4.94-75,6.36C-418.49,10.24-551.85.34-712-39.5"/></g><path class="cls-4" d="M21.5,12.17a7.09,7.09,0,0,1,5.08,2.12l-0.94,1.12a5.89,5.89,0,0,0-4.1-1.84c-3.53,0-6.26,3.13-6.26,7.7s2.48,7.63,6.26,7.63a7,7,0,0,0,4.61-2L27,28a8.16,8.16,0,0,1-5.51,2.3c-4.46,0-7.85-3.31-7.85-9S17.29,12.17,21.5,12.17Z"/><path class="cls-4" d="M37.52,12.17c4.18,0,7.77,3.31,7.77,9.11s-3.6,9-7.77,9-7.74-3.31-7.74-9S33.38,12.17,37.52,12.17Zm0,16.74c3.49,0,6.12-3.1,6.12-7.63s-2.63-7.7-6.12-7.7-6.08,3.13-6.08,7.7S34,28.91,37.52,28.91Z"/><path class="cls-4" d="M50.48,12.61h1.37L52,15.27H52.1c1.76-1.76,3.56-3.1,5.94-3.1,3.56,0,5.22,2.16,5.22,6.62V29.88H61.68V19c0-3.67-1.15-5.4-4-5.4-2.05,0-3.53,1.08-5.65,3.24v13H50.48V12.61Z"/><path class="cls-4" d="M69.63,12.61H71l0.14,2.66h0.11c1.76-1.76,3.56-3.1,5.94-3.1,3.56,0,5.22,2.16,5.22,6.62V29.88H80.83V19c0-3.67-1.15-5.4-4-5.4-2.05,0-3.53,1.08-5.65,3.24v13H69.63V12.61Z"/><path class="cls-4" d="M94.87,12.17c4.1,0,6.62,2.92,6.62,8a7.82,7.82,0,0,1-.07,1.3H89c0.07,4.36,2.63,7.49,6.52,7.49a7.66,7.66,0,0,0,4.64-1.55l0.65,1.22a9.63,9.63,0,0,1-5.44,1.69c-4.43,0-8-3.38-8-9S91,12.17,94.87,12.17ZM100,20.24c0-4.43-2-6.7-5.08-6.7S89.33,16.1,89,20.24h11Z"/><path class="cls-4" d="M112.62,12.17a7.09,7.09,0,0,1,5.08,2.12l-0.94,1.12a5.89,5.89,0,0,0-4.1-1.84c-3.53,0-6.26,3.13-6.26,7.7s2.48,7.63,6.26,7.63a7,7,0,0,0,4.61-2L118.09,28a8.16,8.16,0,0,1-5.51,2.3c-4.46,0-7.85-3.31-7.85-9S108.4,12.17,112.62,12.17Z"/><path class="cls-4" d="M122.73,14H120V12.75l2.74-.14,0.22-5h1.37v5h5V14h-5V25.24c0,2.2.54,3.67,2.92,3.67a5.78,5.78,0,0,0,2.16-.54l0.43,1.3a9.66,9.66,0,0,1-2.81.65c-3.35,0-4.32-2.12-4.32-5.22V14Z"/><path class="cls-4" d="M147,12.17c4.18,0,7.77,3.31,7.77,9.11s-3.6,9-7.77,9-7.74-3.31-7.74-9S142.89,12.17,147,12.17Zm0,16.74c3.49,0,6.12-3.1,6.12-7.63s-2.63-7.7-6.12-7.7-6.08,3.13-6.08,7.7S143.54,28.91,147,28.91Z"/><path class="cls-4" d="M160,12.61h1.37l0.14,2.66h0.11c1.76-1.76,3.56-3.1,5.94-3.1,3.56,0,5.22,2.16,5.22,6.62V29.88h-1.58V19c0-3.67-1.15-5.4-4-5.4-2.05,0-3.53,1.08-5.65,3.24v13H160V12.61Z"/><path class="cls-4" d="M186.38,6.16H188V28.44h10.91v1.44H186.38V6.16Z"/><path class="cls-4" d="M202.25,7a1.44,1.44,0,0,1,2.88,0A1.44,1.44,0,0,1,202.25,7Zm0.61,5.58h1.58V29.88h-1.58V12.61Z"/><path class="cls-4" d="M211.11,12.61h1.37l0.14,2.66h0.11c1.76-1.76,3.56-3.1,5.94-3.1,3.56,0,5.22,2.16,5.22,6.62V29.88H222.3V19c0-3.67-1.15-5.4-4-5.4-2.05,0-3.53,1.08-5.65,3.24v13h-1.58V12.61Z"/><path class="cls-4" d="M230.26,4h1.58V23.08h0.07l8.53-10.47h1.84l-5.62,6.84,6.55,10.44h-1.76l-5.72-9.25-3.89,4.54v4.72h-1.58V4Z"/><path class="cls-4" d="M253,12.17c4.1,0,6.62,2.92,6.62,8a7.82,7.82,0,0,1-.07,1.3H247.15c0.07,4.36,2.63,7.49,6.52,7.49a7.66,7.66,0,0,0,4.64-1.55L259,28.62a9.63,9.63,0,0,1-5.44,1.69c-4.43,0-8-3.38-8-9S249.2,12.17,253,12.17Zm5.11,8.06c0-4.43-2-6.7-5.08-6.7s-5.58,2.56-5.94,6.7h11Z"/><path class="cls-4" d="M270.58,12.17a8,8,0,0,1,5.22,2.12l-0.07-3.17V4h1.58V29.88h-1.37l-0.14-2.23h-0.11a8.09,8.09,0,0,1-5.62,2.66c-4.36,0-7.16-3.2-7.16-9C262.91,15.7,266.48,12.17,270.58,12.17Zm-0.29,16.74c1.91,0,3.6-1,5.44-2.84V15.81a7.31,7.31,0,0,0-5-2.23c-3.46,0-6.08,3.35-6.08,7.7C264.6,25.85,266.62,28.91,270.29,28.91Z"/><path class="cls-4" d="M284,6.16h1.66V29.88H284V6.16Z"/><path class="cls-4" d="M292.32,12.61h1.37l0.14,2.66h0.11c1.76-1.76,3.56-3.1,5.94-3.1,3.56,0,5.22,2.16,5.22,6.62V29.88h-1.58V19c0-3.67-1.15-5.4-4-5.4-2.05,0-3.53,1.08-5.65,3.24v13h-1.58V12.61Z"/><path id="path14" class="cls-5" d="M327.57,4.23a2.47,2.47,0,0,1,2.5-2.43h28.78a2.47,2.47,0,0,1,2.5,2.43V33.34a2.47,2.47,0,0,1-2.5,2.43H330.06a2.47,2.47,0,0,1-2.5-2.43V4.23Z"/><g id="path28"><path class="cls-6" d="M335.29,7.5a2.66,2.66,0,1,1,0,5.3h0a2.66,2.66,0,1,1,.07-5.3m2.52,7.4V30.24h-5.1V14.9h5.1m-2.52-8.4a3.66,3.66,0,1,0,3.85,3.65,3.65,3.65,0,0,0-3.85-3.65h0Zm3.52,7.4h-7.1V31.24h7.1V13.9h0Z"/></g><g id="path30"><path class="cls-6" d="M350.32,14.54c3.36,0,5.87,2.19,5.87,6.91v8.8h-5.1V22c0-2.06-.74-3.47-2.58-3.47a2.79,2.79,0,0,0-2.62,1.87,3.49,3.49,0,0,0-.17,1.24v8.57h-5.1s0.07-13.9,0-15.34h5.1v2.17l0,0.05h0V17.07a5.06,5.06,0,0,1,4.6-2.53m0-1a6.25,6.25,0,0,0-3.6,1V13.9h-7.15l0,1c0.06,1.4,0,15.15,0,15.29v1h7.1V21.67a2.52,2.52,0,0,1,.09-0.86,1.81,1.81,0,0,1,1.69-1.25c0.47,0,1.58,0,1.58,2.47v9.21h7.1v-9.8c0-4.88-2.63-7.91-6.87-7.91h0Z"/></g></svg>