<svg id="Layer_1" data-name="Layer 1" xmlns="http://www.w3.org/2000/svg" viewBox="0 0 158.06 43"><defs><style>.cls-1{fill:none;stroke:#2857a6;stroke-width:0.91px;}.cls-2{fill:#2857a6;}</style></defs><title>continue</title><polyline class="cls-1" points="145.57 8.3 145.57 41.63 158.06 24.22"/><path class="cls-2" d="M9.32,12.4a7.09,7.09,0,0,1,5.08,2.12l-0.94,1.12a5.89,5.89,0,0,0-4.1-1.84c-3.53,0-6.26,3.13-6.26,7.7s2.48,7.63,6.26,7.63a7,7,0,0,0,4.61-2l0.83,1.08a8.16,8.16,0,0,1-5.51,2.3c-4.46,0-7.85-3.31-7.85-9S5.11,12.4,9.32,12.4Z"/><path class="cls-2" d="M25.34,12.4c4.18,0,7.77,3.31,7.77,9.11s-3.6,9-7.77,9-7.74-3.31-7.74-9S21.2,12.4,25.34,12.4Zm0,16.74c3.49,0,6.12-3.1,6.12-7.63s-2.63-7.7-6.12-7.7-6.08,3.13-6.08,7.7S21.85,29.14,25.34,29.14Z"/><path class="cls-2" d="M38.3,12.83h1.37l0.14,2.66h0.11c1.76-1.76,3.56-3.1,5.94-3.1,3.56,0,5.22,2.16,5.22,6.62V30.11H49.5V19.24c0-3.67-1.15-5.4-4-5.4-2.05,0-3.53,1.08-5.65,3.24v13H38.3V12.83Z"/><path class="cls-2" d="M57.85,14.2h-2.7V13l2.74-.14,0.22-5h1.37v5h5V14.2h-5V25.46c0,2.2.54,3.67,2.92,3.67a5.78,5.78,0,0,0,2.16-.54L65,29.89a9.66,9.66,0,0,1-2.81.65c-3.35,0-4.32-2.12-4.32-5.22V14.2Z"/><path class="cls-2" d="M68.08,7.25a1.44,1.44,0,0,1,2.88,0A1.44,1.44,0,0,1,68.08,7.25Zm0.61,5.58h1.58V30.11H68.69V12.83Z"/><path class="cls-2" d="M76.93,12.83H78.3l0.14,2.66h0.11c1.76-1.76,3.56-3.1,5.94-3.1,3.56,0,5.22,2.16,5.22,6.62V30.11H88.13V19.24c0-3.67-1.15-5.4-4-5.4-2.05,0-3.53,1.08-5.65,3.24v13H76.93V12.83Z"/><path class="cls-2" d="M95.83,12.83h1.58V23.7c0,3.67,1.15,5.4,3.92,5.4,2.05,0,3.56-1.08,5.58-3.53V12.83h1.58V30.11h-1.33L107,27.23h-0.07c-1.69,2-3.49,3.31-5.87,3.31-3.56,0-5.22-2.16-5.22-6.62V12.83Z"/><path class="cls-2" d="M121.21,12.4c4.1,0,6.62,2.92,6.62,8a7.82,7.82,0,0,1-.07,1.3H115.31c0.07,4.36,2.63,7.49,6.52,7.49a7.66,7.66,0,0,0,4.64-1.55l0.65,1.22a9.63,9.63,0,0,1-5.44,1.69c-4.43,0-8-3.38-8-9S117.36,12.4,121.21,12.4Zm5.11,8.06c0-4.43-2-6.7-5.08-6.7s-5.58,2.56-5.94,6.7h11Z"/></svg>