<svg id="Layer_1" data-name="Layer 1" xmlns="http://www.w3.org/2000/svg" viewBox="0 0 60 50"><defs><style>.cls-1{fill:#2857a6;}.cls-2{fill:none;stroke:#2e74b5;stroke-miterlimit:10;stroke-width:0.93px;}</style></defs><title>ss</title><path class="cls-1" d="M3.55,4H4.61v7.54a5.66,5.66,0,0,1,4-2.09c2.38,0,3.48,1.44,3.48,4.42v7.39H11V14c0-2.45-.77-3.6-2.64-3.6-1.37,0-2.35.72-3.77,2.16v8.69H3.55V4Z"/><path class="cls-1" d="M20.43,9.47c2.78,0,5.18,2.21,5.18,6.07s-2.4,6-5.18,6-5.16-2.21-5.16-6S17.67,9.47,20.43,9.47Zm0,11.16c2.33,0,4.08-2.06,4.08-5.09s-1.75-5.14-4.08-5.14-4.06,2.09-4.06,5.14S18.1,20.63,20.43,20.63Z"/><path class="cls-1" d="M29.07,9.76H30l0.1,1.78h0.07a5.28,5.28,0,0,1,3.62-2.06A3,3,0,0,1,37,11.82c1.32-1.44,2.59-2.35,3.91-2.35,2.3,0,3.46,1.44,3.46,4.42v7.39H43.25V14c0-2.45-.82-3.6-2.57-3.6-1.08,0-2.18.72-3.46,2.16v8.69H36.17V14c0-2.45-.82-3.6-2.59-3.6q-1.55,0-3.46,2.16v8.69H29.07V9.76Z"/><path class="cls-1" d="M52.61,9.47c2.74,0,4.42,1.94,4.42,5.33a5.24,5.24,0,0,1,0,.86h-8.3c0,2.9,1.75,5,4.34,5a5.1,5.1,0,0,0,3.1-1l0.43,0.82a6.43,6.43,0,0,1-3.62,1.13c-3,0-5.33-2.26-5.33-6S50,9.47,52.61,9.47ZM56,14.85c0-3-1.32-4.46-3.38-4.46s-3.72,1.7-4,4.46H56Z"/><polyline class="cls-2" points="38.83 41.85 28.99 32.01 19.15 41.85"/></svg>