<svg id="Layer_1" data-name="Layer 1" xmlns="http://www.w3.org/2000/svg" viewBox="0 0 362.94 37.57"><defs><style>.cls-1{fill:none;stroke:#2e74b4;stroke-linecap:square;stroke-linejoin:round;stroke-width:1.1px;}.cls-2{fill:#2e74b4;}</style></defs><title>jumptoconclusions</title><polyline class="cls-1" points="324.51 17.74 355.83 17.74 339.47 6"/><polyline class="cls-1" points="324.51 20.62 355.83 20.62 339.47 32.36"/><path class="cls-2" d="M8.61,10.2c4.18,0,7.77,3.31,7.77,9.11s-3.6,9-7.77,9S0.87,25,.87,19.31,4.47,10.2,8.61,10.2Zm0,16.74c3.49,0,6.12-3.1,6.12-7.63s-2.63-7.7-6.12-7.7-6.08,3.13-6.08,7.7S5.12,26.94,8.61,26.94Z"/><path class="cls-2" d="M20.85,10.63h1.37l0.14,3.2h0.11c1.15-2.12,2.84-3.64,4.9-3.64a3.56,3.56,0,0,1,1.73.36L28.73,12a3.77,3.77,0,0,0-1.58-.29c-1.55,0-3.38,1.19-4.72,4.43V27.91H20.85V10.63Z"/><path class="cls-2" d="M38,10.63h1.62V31.11c0,3.38-1.22,5-3.89,5a6.46,6.46,0,0,1-2.23-.43l0.4-1.3a5.88,5.88,0,0,0,1.8.36c1.94,0,2.3-1.58,2.3-3.78V10.63ZM37.37,5.05a1.46,1.46,0,0,1,2.92,0A1.46,1.46,0,0,1,37.37,5.05Z"/><path class="cls-2" d="M45.26,10.63h1.58V21.5c0,3.67,1.15,5.4,3.92,5.4,2.05,0,3.56-1.08,5.58-3.53V10.63h1.58V27.91H56.6L56.42,25H56.34c-1.69,2-3.49,3.31-5.87,3.31-3.56,0-5.22-2.16-5.22-6.62V10.63Z"/><path class="cls-2" d="M63.83,10.63H65.2l0.14,2.66h0.11C67,11.53,69,10.2,70.89,10.2a4.49,4.49,0,0,1,4.79,3.53c2-2.16,3.89-3.53,5.87-3.53,3.46,0,5.18,2.16,5.18,6.62V27.91H85.11V17c0-3.67-1.22-5.4-3.85-5.4-1.62,0-3.28,1.08-5.18,3.24v13H74.49V17c0-3.67-1.22-5.4-3.89-5.4q-2.32,0-5.18,3.24v13H63.83V10.63Z"/><path class="cls-2" d="M93.93,29.42v6.3H92.35V10.63h1.37l0.14,2.16H94c1.69-1.33,3.74-2.59,5.87-2.59,4.61,0,6.91,3.46,6.91,8.82,0,5.87-3.56,9.32-7.63,9.32a9.13,9.13,0,0,1-5.18-2.12v3.2ZM99,26.94c3.49,0,6-3.24,6-7.92,0-4.25-1.51-7.42-5.47-7.42-1.73,0-3.56,1-5.65,2.84V24.71A8.47,8.47,0,0,0,99,26.94Z"/><path class="cls-2" d="M118,12h-2.7V10.78l2.74-.14,0.22-5h1.37v5h5V12h-5V23.27c0,2.2.54,3.67,2.92,3.67a5.79,5.79,0,0,0,2.16-.54l0.43,1.3a9.64,9.64,0,0,1-2.81.65c-3.35,0-4.32-2.12-4.32-5.22V12Z"/><path class="cls-2" d="M134.46,10.2c4.18,0,7.77,3.31,7.77,9.11s-3.6,9-7.77,9-7.74-3.31-7.74-9S130.32,10.2,134.46,10.2Zm0,16.74c3.49,0,6.12-3.1,6.12-7.63s-2.63-7.7-6.12-7.7-6.08,3.13-6.08,7.7S131,26.94,134.46,26.94Z"/><path class="cls-2" d="M159.59,10.2a7.09,7.09,0,0,1,5.08,2.12l-0.94,1.12a5.89,5.89,0,0,0-4.1-1.84c-3.53,0-6.26,3.13-6.26,7.7s2.48,7.63,6.26,7.63a7,7,0,0,0,4.61-2L165.06,26a8.16,8.16,0,0,1-5.51,2.3c-4.46,0-7.85-3.31-7.85-9S155.38,10.2,159.59,10.2Z"/><path class="cls-2" d="M174.89,10.2c4.18,0,7.77,3.31,7.77,9.11s-3.6,9-7.77,9-7.74-3.31-7.74-9S170.75,10.2,174.89,10.2Zm0,16.74c3.49,0,6.12-3.1,6.12-7.63s-2.63-7.7-6.12-7.7-6.08,3.13-6.08,7.7S171.4,26.94,174.89,26.94Z"/><path class="cls-2" d="M187.13,10.63h1.37l0.14,2.66h0.11c1.76-1.76,3.56-3.1,5.94-3.1,3.56,0,5.22,2.16,5.22,6.62V27.91h-1.58V17c0-3.67-1.15-5.4-4-5.4-2.05,0-3.53,1.08-5.65,3.24v13h-1.58V10.63Z"/><path class="cls-2" d="M212,10.2a7.09,7.09,0,0,1,5.08,2.12l-0.94,1.12a5.89,5.89,0,0,0-4.1-1.84c-3.53,0-6.26,3.13-6.26,7.7s2.48,7.63,6.26,7.63a7,7,0,0,0,4.61-2L217.48,26a8.16,8.16,0,0,1-5.51,2.3c-4.46,0-7.85-3.31-7.85-9S207.79,10.2,212,10.2Z"/><path class="cls-2" d="M221,2h1.58V25.82c0,0.76.32,1.12,0.76,1.12a2.78,2.78,0,0,0,.65-0.07l0.29,1.3a3.36,3.36,0,0,1-1.15.18c-1.4,0-2.12-.86-2.12-2.74V2Z"/><path class="cls-2" d="M228.57,10.63h1.58V21.5c0,3.67,1.15,5.4,3.92,5.4,2.05,0,3.56-1.08,5.58-3.53V10.63h1.58V27.91h-1.33L239.73,25h-0.07c-1.69,2-3.49,3.31-5.87,3.31-3.56,0-5.22-2.16-5.22-6.62V10.63Z"/><path class="cls-2" d="M245.92,24.78a8,8,0,0,0,5.51,2.2c2.7,0,4.1-1.58,4.1-3.42,0-2.16-2.23-3.1-4.21-3.82-2.63-.94-5.51-2-5.51-4.93,0-2.52,2-4.61,5.58-4.61a8,8,0,0,1,4.93,1.8l-0.86,1.12a6.54,6.54,0,0,0-4.14-1.55c-2.66,0-3.89,1.55-3.89,3.13,0,1.91,2,2.74,4.07,3.49,2.7,1,5.65,1.91,5.65,5.29,0,2.59-2.09,4.86-5.83,4.86A10,10,0,0,1,245,26Z"/><path class="cls-2" d="M260.39,5.05a1.44,1.44,0,1,1,2.88,0A1.44,1.44,0,0,1,260.39,5.05ZM261,10.63h1.58V27.91H261V10.63Z"/><path class="cls-2" d="M274.83,10.2c4.18,0,7.77,3.31,7.77,9.11s-3.6,9-7.77,9-7.74-3.31-7.74-9S270.69,10.2,274.83,10.2Zm0,16.74c3.49,0,6.12-3.1,6.12-7.63s-2.63-7.7-6.12-7.7-6.08,3.13-6.08,7.7S271.33,26.94,274.83,26.94Z"/><path class="cls-2" d="M287.07,10.63h1.37l0.14,2.66h0.11c1.76-1.76,3.56-3.1,5.94-3.1,3.56,0,5.22,2.16,5.22,6.62V27.91h-1.58V17c0-3.67-1.15-5.4-4-5.4-2.05,0-3.53,1.08-5.65,3.24v13h-1.58V10.63Z"/><path class="cls-2" d="M304.27,24.78a8,8,0,0,0,5.51,2.2c2.7,0,4.1-1.58,4.1-3.42,0-2.16-2.23-3.1-4.21-3.82-2.63-.94-5.51-2-5.51-4.93,0-2.52,2-4.61,5.58-4.61a8,8,0,0,1,4.93,1.8l-0.86,1.12a6.54,6.54,0,0,0-4.14-1.55c-2.66,0-3.89,1.55-3.89,3.13,0,1.91,2,2.74,4.07,3.49,2.7,1,5.65,1.91,5.65,5.29,0,2.59-2.09,4.86-5.83,4.86A10,10,0,0,1,303.34,26Z"/></svg>