<svg id="Layer_1" data-name="Layer 1" xmlns="http://www.w3.org/2000/svg" viewBox="0 0 248.84 79.28"><defs><style>.cls-1,.cls-2{fill:none;}.cls-1{stroke:#2857a6;stroke-width:0.47px;}.cls-2{stroke:#fff;stroke-linecap:square;stroke-linejoin:round;stroke-width:0.78px;}.cls-3{fill:#fff;}</style></defs><title>jumptoconclusionsmenu</title><line class="cls-1" x1="14.3" y1="21.31" x2="42.73" y2="21.31"/><polyline class="cls-2" points="211.54 39.04 233.82 39.04 222.18 30.69"/><polyline class="cls-2" points="211.54 41.08 233.82 41.08 222.18 49.44"/><path class="cls-3" d="M19.13,35c2.1,0,3.91,1.66,3.91,4.57s-1.81,4.54-3.91,4.54-3.89-1.66-3.89-4.54S17.05,35,19.13,35Zm0,8.41c1.75,0,3.07-1.55,3.07-3.83s-1.32-3.87-3.07-3.87-3.06,1.57-3.06,3.87S17.38,43.38,19.13,43.38Z"/><path class="cls-3" d="M25.65,35.19h0.69l0.07,1.61h0.05A3,3,0,0,1,28.92,35a1.78,1.78,0,0,1,.87.18l-0.18.72a1.89,1.89,0,0,0-.8-0.14c-0.78,0-1.7.6-2.37,2.22v5.91h-0.8V35.19Z"/><path class="cls-3" d="M35,35.19h0.81V45.48c0,1.7-.61,2.53-2,2.53a3.25,3.25,0,0,1-1.12-.22l0.2-.65a3,3,0,0,0,.9.18c1,0,1.16-.8,1.16-1.9V35.19Zm-0.31-2.8a0.73,0.73,0,0,1,1.46,0A0.73,0.73,0,0,1,34.67,32.38Z"/><path class="cls-3" d="M39,35.19h0.8v5.46c0,1.84.58,2.71,2,2.71,1,0,1.79-.54,2.8-1.77v-6.4h0.8v8.68H44.69L44.6,42.42h0a3.88,3.88,0,0,1-2.95,1.66C39.83,44.08,39,43,39,40.76V35.19Z"/><path class="cls-3" d="M48.69,35.19h0.69l0.07,1.34H49.5A4,4,0,0,1,52.23,35a2.26,2.26,0,0,1,2.4,1.77A4.36,4.36,0,0,1,57.59,35c1.74,0,2.6,1.08,2.6,3.33v5.57H59.38V38.41c0-1.84-.61-2.71-1.93-2.71a3.79,3.79,0,0,0-2.6,1.63v6.55H54V38.41c0-1.84-.61-2.71-2-2.71a3.86,3.86,0,0,0-2.6,1.63v6.55h-0.8V35.19Z"/><path class="cls-3" d="M64.17,44.63v3.16h-0.8V35.19h0.69l0.07,1.08h0.05A5.08,5.08,0,0,1,67.14,35c2.31,0,3.47,1.74,3.47,4.43,0,2.95-1.79,4.68-3.83,4.68A4.59,4.59,0,0,1,64.17,43v1.61Zm2.57-1.25c1.75,0,3-1.63,3-4,0-2.13-.76-3.72-2.75-3.72a4.59,4.59,0,0,0-2.84,1.43v5.15A4.26,4.26,0,0,0,66.74,43.38Z"/><path class="cls-3" d="M77,35.87H75.66V35.26L77,35.19l0.11-2.51h0.69v2.51h2.51v0.69H77.83v5.66c0,1.1.27,1.84,1.46,1.84a2.91,2.91,0,0,0,1.08-.27l0.22,0.65a4.84,4.84,0,0,1-1.41.33C77.51,44.08,77,43,77,41.46V35.87Z"/><path class="cls-3" d="M85.63,35c2.1,0,3.91,1.66,3.91,4.57s-1.81,4.54-3.91,4.54-3.89-1.66-3.89-4.54S83.55,35,85.63,35Zm0,8.41c1.75,0,3.07-1.55,3.07-3.83s-1.32-3.87-3.07-3.87-3.06,1.57-3.06,3.87S83.87,43.38,85.63,43.38Z"/><path class="cls-3" d="M99,35A3.56,3.56,0,0,1,101.52,36l-0.47.56A3,3,0,0,0,99,35.68c-1.77,0-3.15,1.57-3.15,3.87s1.25,3.83,3.15,3.83a3.49,3.49,0,0,0,2.31-1l0.42,0.54A4.1,4.1,0,0,1,99,44.08c-2.24,0-3.94-1.66-3.94-4.54S96.86,35,99,35Z"/><path class="cls-3" d="M107,35c2.1,0,3.91,1.66,3.91,4.57s-1.81,4.54-3.91,4.54-3.89-1.66-3.89-4.54S104.95,35,107,35Zm0,8.41c1.75,0,3.07-1.55,3.07-3.83s-1.32-3.87-3.07-3.87S104,37.25,104,39.54,105.27,43.38,107,43.38Z"/><path class="cls-3" d="M113.54,35.19h0.69l0.07,1.34h0.05a4.24,4.24,0,0,1,3-1.56c1.79,0,2.62,1.08,2.62,3.33v5.57h-0.8V38.41c0-1.84-.58-2.71-2-2.71-1,0-1.77.54-2.84,1.63v6.55h-0.8V35.19Z"/><path class="cls-3" d="M126.4,35A3.56,3.56,0,0,1,128.95,36l-0.47.56a3,3,0,0,0-2.06-.92c-1.77,0-3.15,1.57-3.15,3.87s1.25,3.83,3.15,3.83a3.49,3.49,0,0,0,2.31-1l0.42,0.54a4.1,4.1,0,0,1-2.77,1.16c-2.24,0-3.94-1.66-3.94-4.54S124.28,35,126.4,35Z"/><path class="cls-3" d="M131.28,30.87h0.8v12c0,0.38.16,0.56,0.38,0.56a1.4,1.4,0,0,0,.33,0L132.93,44a1.68,1.68,0,0,1-.58.09c-0.71,0-1.07-.43-1.07-1.37V30.87Z"/><path class="cls-3" d="M135.44,35.19h0.8v5.46c0,1.84.58,2.71,2,2.71,1,0,1.79-.54,2.8-1.77v-6.4h0.8v8.68h-0.67L141,42.42h0a3.88,3.88,0,0,1-2.95,1.66c-1.79,0-2.62-1.08-2.62-3.33V35.19Z"/><path class="cls-3" d="M144.52,42.29a4,4,0,0,0,2.77,1.1,1.8,1.8,0,0,0,2.06-1.72c0-1.08-1.12-1.55-2.12-1.92-1.32-.47-2.77-1-2.77-2.48,0-1.27,1-2.31,2.8-2.31a4,4,0,0,1,2.48.9l-0.43.56a3.29,3.29,0,0,0-2.08-.78,1.68,1.68,0,0,0-2,1.57c0,1,1,1.37,2,1.75,1.36,0.51,2.84,1,2.84,2.66,0,1.3-1,2.44-2.93,2.44a5,5,0,0,1-3.18-1.19Z"/><path class="cls-3" d="M152.16,32.38a0.72,0.72,0,1,1,.72.71A0.69,0.69,0,0,1,152.16,32.38Zm0.31,2.8h0.8v8.68h-0.8V35.19Z"/><path class="cls-3" d="M159.77,35c2.1,0,3.91,1.66,3.91,4.57s-1.81,4.54-3.91,4.54-3.89-1.66-3.89-4.54S157.69,35,159.77,35Zm0,8.41c1.75,0,3.07-1.55,3.07-3.83s-1.32-3.87-3.07-3.87-3.06,1.57-3.06,3.87S158,43.38,159.77,43.38Z"/><path class="cls-3" d="M166.28,35.19H167L167,36.53h0.05a4.24,4.24,0,0,1,3-1.56c1.79,0,2.62,1.08,2.62,3.33v5.57h-0.8V38.41c0-1.84-.58-2.71-2-2.71-1,0-1.77.54-2.84,1.63v6.55h-0.8V35.19Z"/><path class="cls-3" d="M175.29,42.29a4,4,0,0,0,2.77,1.1,1.8,1.8,0,0,0,2.06-1.72c0-1.08-1.12-1.55-2.12-1.92-1.32-.47-2.77-1-2.77-2.48,0-1.27,1-2.31,2.8-2.31a4,4,0,0,1,2.48.9l-0.43.56a3.29,3.29,0,0,0-2.08-.78,1.68,1.68,0,0,0-2,1.57c0,1,1,1.37,2,1.75,1.36,0.51,2.84,1,2.84,2.66,0,1.3-1,2.44-2.93,2.44a5,5,0,0,1-3.18-1.19Z"/></svg>