<svg id="Layer_1" data-name="Layer 1" xmlns="http://www.w3.org/2000/svg" viewBox="0 0 73.47 53.99"><defs><style>.cls-1{fill:#2e74b5;}</style></defs><title>logopoli3</title><polygon class="cls-1" points="36.72 31.49 36.74 32.95 37.01 32.95 36.99 31.49 36.72 31.49"/><rect class="cls-1" x="35.4" y="32.07" width="1.46" height="0.27" transform="translate(2.34 66.87) rotate(-87.45)"/><polygon class="cls-1" points="37.42 31.47 37.51 32.93 37.78 32.91 37.69 31.46 37.42 31.47"/><rect class="cls-1" x="34.67" y="32.03" width="1.46" height="0.27" transform="translate(0.54 64.92) rotate(-85.48)"/><rect class="cls-1" x="38.19" y="31.41" width="0.27" height="1.46" transform="translate(-2.86 3.77) rotate(-5.42)"/><polygon class="cls-1" points="34.44 32.79 34.63 31.35 34.9 31.38 34.71 32.83 34.44 32.79"/><rect class="cls-1" x="38.92" y="31.31" width="0.27" height="1.46" transform="translate(-4.29 6.09) rotate(-8.45)"/><polygon class="cls-1" points="33.68 32.67 33.94 31.23 34.21 31.28 33.95 32.72 33.68 32.67"/><rect class="cls-1" x="39.65" y="31.19" width="0.27" height="1.46" transform="translate(-5.51 8.46) rotate(-11.36)"/><polygon class="cls-1" points="32.93 32.52 33.25 31.09 33.51 31.15 33.2 32.57 32.93 32.52"/><rect class="cls-1" x="40.36" y="31.03" width="0.27" height="1.46" transform="translate(-6.6 11) rotate(-14.32)"/><polygon class="cls-1" points="32.19 32.32 32.57 30.91 32.84 30.99 32.45 32.39 32.19 32.32"/><rect class="cls-1" x="41.07" y="30.83" width="0.27" height="1.46" transform="translate(-7.2 12.84) rotate(-16.3)"/><rect class="cls-1" x="31.08" y="31.31" width="1.46" height="0.27" transform="translate(-8 51.83) rotate(-71.78)"/><rect class="cls-1" x="41.77" y="30.61" width="0.27" height="1.46" transform="translate(-7.95 15.45) rotate(-19.12)"/><rect class="cls-1" x="30.38" y="31.06" width="1.46" height="0.27" transform="translate(-9.19 49.01) rotate(-68.92)"/><rect class="cls-1" x="42.46" y="30.35" width="0.27" height="1.46" transform="translate(-8.54 18.22) rotate(-22)"/><polygon class="cls-1" points="30.02 31.54 30.6 30.2 30.85 30.31 30.27 31.65 30.02 31.54"/><polygon class="cls-1" points="42.84 30.18 43.09 30.07 43.7 31.39 43.45 31.51 42.84 30.18"/><polygon class="cls-1" points="29.32 31.21 29.96 29.9 30.21 30.02 29.57 31.33 29.32 31.21"/><polygon class="cls-1" points="43.47 29.88 43.71 29.75 44.38 31.05 44.14 31.17 43.47 29.88"/><rect class="cls-1" x="28.39" y="30.14" width="1.46" height="0.27" transform="translate(-11.44 41.21) rotate(-61.2)"/><polygon class="cls-1" points="44.09 29.55 44.32 29.41 45.06 30.67 44.82 30.81 44.09 29.55"/><rect class="cls-1" x="27.75" y="29.77" width="1.46" height="0.27" transform="translate(-11.91 38.51) rotate(-58.43)"/><rect class="cls-1" x="45.06" y="29" width="0.27" height="1.46" transform="translate(-8.9 29.56) rotate(-33.15)"/><rect class="cls-1" x="27.13" y="29.37" width="1.46" height="0.27" transform="translate(-12.22 35.88) rotate(-55.67)"/><rect class="cls-1" x="45.67" y="28.59" width="0.27" height="1.46" transform="translate(-8.54 31.43) rotate(-34.84)"/><rect class="cls-1" x="26.54" y="28.95" width="1.46" height="0.27" transform="translate(-12.38 33.28) rotate(-52.88)"/><rect class="cls-1" x="46.26" y="28.15" width="0.27" height="1.46" transform="translate(-7.98 34.36) rotate(-37.66)"/><rect class="cls-1" x="25.96" y="28.49" width="1.46" height="0.27" transform="translate(-12.37 31.24) rotate(-50.83)"/><rect class="cls-1" x="46.83" y="27.68" width="0.27" height="1.46" transform="translate(-7.2 37.32) rotate(-40.52)"/><polygon class="cls-1" points="25.55 28.6 26.52 27.52 26.72 27.7 25.75 28.78 25.55 28.6"/><rect class="cls-1" x="47.37" y="27.19" width="0.27" height="1.46" transform="translate(-6.28 39.93) rotate(-43.03)"/><rect class="cls-1" x="24.87" y="27.51" width="1.46" height="0.27" transform="translate(-12.06 26.42) rotate(-45.34)"/><polygon class="cls-1" points="47.41 27 47.6 26.8 48.65 27.82 48.46 28.01 47.41 27"/><polygon class="cls-1" points="24.46 27.51 25.54 26.52 25.72 26.72 24.65 27.71 24.46 27.51"/><rect class="cls-1" x="48.39" y="26.14" width="0.27" height="1.46" transform="translate(-3.64 45.71) rotate(-48.83)"/><rect class="cls-1" x="23.88" y="26.43" width="1.46" height="0.27" transform="translate(-11.31 21.94) rotate(-39.85)"/><polygon class="cls-1" points="48.34 25.96 48.51 25.74 49.66 26.65 49.49 26.87 48.34 25.96"/><rect class="cls-1" x="23.42" y="25.85" width="1.46" height="0.27" transform="translate(-10.79 19.83) rotate(-37.11)"/><polygon class="cls-1" points="48.77 25.41 48.93 25.18 50.12 26.04 49.96 26.26 48.77 25.41"/><polygon class="cls-1" points="23.04 25.69 24.25 24.87 24.4 25.1 23.2 25.92 23.04 25.69"/><rect class="cls-1" x="49.73" y="24.39" width="0.27" height="1.46" transform="translate(1.29 52.66) rotate(-56.29)"/><polygon class="cls-1" points="22.62 25.05 23.87 24.28 24.01 24.51 22.77 25.28 22.62 25.05"/><rect class="cls-1" x="50.12" y="23.77" width="0.27" height="1.46" transform="translate(3.38 54.96) rotate(-59.01)"/><rect class="cls-1" x="22.21" y="24.01" width="1.46" height="0.27" transform="translate(-8.94 14.49) rotate(-29.61)"/><rect class="cls-1" x="50.48" y="23.13" width="0.27" height="1.46" transform="translate(5.67 57.19) rotate(-61.8)"/><rect class="cls-1" x="21.87" y="23.36" width="1.46" height="0.27" transform="translate(-8.18 12.76) rotate(-26.88)"/><rect class="cls-1" x="50.81" y="22.47" width="0.27" height="1.46" transform="translate(8.21 59.35) rotate(-64.72)"/><rect class="cls-1" x="21.56" y="22.7" width="1.46" height="0.27" transform="translate(-7.37 11.06) rotate(-24.04)"/><rect class="cls-1" x="51.1" y="21.8" width="0.27" height="1.46" transform="translate(10.81 61.23) rotate(-67.48)"/><rect class="cls-1" x="21.28" y="22.02" width="1.46" height="0.27" transform="translate(-6.53 9.48) rotate(-21.25)"/><polygon class="cls-1" points="50.77 21.73 50.87 21.47 52.24 21.96 52.15 22.22 50.77 21.73"/><rect class="cls-1" x="21.03" y="21.33" width="1.46" height="0.27" transform="translate(-5.68 8) rotate(-18.48)"/><rect class="cls-1" x="51.6" y="20.42" width="0.27" height="1.46" transform="translate(16.06 64.18) rotate(-72.57)"/><polygon class="cls-1" points="20.8 20.83 22.21 20.44 22.28 20.7 20.88 21.09 20.8 20.83"/><rect class="cls-1" x="51.81" y="19.71" width="0.27" height="1.46" transform="matrix(0.25, -0.97, 0.97, 0.25, 19.11, 65.59)"/><rect class="cls-1" x="20.63" y="19.92" width="1.46" height="0.27" transform="translate(-3.9 5.2) rotate(-12.73)"/><polygon class="cls-1" points="51.37 19.71 51.42 19.45 52.85 19.74 52.8 20.01 51.37 19.71"/><rect class="cls-1" x="20.48" y="19.2" width="1.46" height="0.27" transform="translate(-3.2 4.25) rotate(-10.64)"/><rect class="cls-1" x="52.11" y="18.28" width="0.27" height="1.46" transform="translate(25.41 67.69) rotate(-81.13)"/><polygon class="cls-1" points="20.35 18.57 21.79 18.38 21.83 18.65 20.39 18.84 20.35 18.57"/><polygon class="cls-1" points="51.6 18.36 51.64 18.09 53.09 18.26 53.05 18.53 51.6 18.36"/><polygon class="cls-1" points="20.27 17.81 21.72 17.68 21.75 17.95 20.29 18.08 20.27 17.81"/><rect class="cls-1" x="52.28" y="16.89" width="0.27" height="1.46" transform="translate(31.43 68.79) rotate(-86.29)"/><rect class="cls-1" x="20.23" y="17.01" width="1.46" height="0.27" transform="translate(-0.79 1.01) rotate(-2.71)"/><rect class="cls-1" x="52.3" y="16.21" width="0.27" height="1.46" transform="translate(33.69 68.77) rotate(-88.02)"/><polygon class="cls-1" points="20.22 16.55 21.68 16.55 21.68 16.28 20.22 16.27 20.22 16.55"/><polygon class="cls-1" points="51.72 16.11 51.72 16.38 53.18 16.36 53.18 16.08 51.72 16.11"/><rect class="cls-1" x="20.83" y="14.95" width="0.27" height="1.46" transform="translate(4.19 35.78) rotate(-86.95)"/><rect class="cls-1" x="51.69" y="15.36" width="1.46" height="0.27" transform="translate(-0.89 3.42) rotate(-3.7)"/><rect class="cls-1" x="20.88" y="14.22" width="0.27" height="1.46" transform="matrix(0.09, -1, 1, 0.09, 4.21, 34.51)"/><polygon class="cls-1" points="51.62 14.71 53.07 14.56 53.1 14.83 51.65 14.98 51.62 14.71"/><polygon class="cls-1" points="20.36 14.25 20.41 13.98 21.85 14.19 21.81 14.46 20.36 14.25"/><polygon class="cls-1" points="51.52 14.02 52.96 13.79 53.01 14.06 51.56 14.29 51.52 14.02"/><polygon class="cls-1" points="20.48 13.49 20.54 13.22 21.97 13.5 21.92 13.77 20.48 13.49"/><polygon class="cls-1" points="51.39 13.33 52.82 13.04 52.88 13.3 51.45 13.6 51.39 13.33"/><rect class="cls-1" x="21.25" y="12.05" width="0.27" height="1.46" transform="translate(4.05 30.67) rotate(-76.77)"/><polygon class="cls-1" points="51.23 12.65 52.64 12.29 52.71 12.55 51.3 12.91 51.23 12.65"/><rect class="cls-1" x="21.43" y="11.34" width="0.27" height="1.46" transform="translate(3.98 29.43) rotate(-73.84)"/><rect class="cls-1" x="51.04" y="11.76" width="1.46" height="0.27" transform="translate(-1.21 15.79) rotate(-17.14)"/><rect class="cls-1" x="21.66" y="10.64" width="0.27" height="1.46" transform="matrix(0.33, -0.95, 0.95, 0.33, 3.96, 28.28)"/><rect class="cls-1" x="50.81" y="11.06" width="1.46" height="0.27" transform="matrix(0.94, -0.33, 0.33, 0.94, -0.81, 17.61)"/><polygon class="cls-1" points="21.32 10.54 21.42 10.28 22.77 10.82 22.67 11.08 21.32 10.54"/><rect class="cls-1" x="50.55" y="10.37" width="1.46" height="0.27" transform="translate(-0.2 20.01) rotate(-22.04)"/><polygon class="cls-1" points="21.61 9.82 21.72 9.57 23.05 10.18 22.94 10.43 21.61 9.82"/><polygon class="cls-1" points="50.27 10.02 51.59 9.41 51.71 9.66 50.38 10.27 50.27 10.02"/><polygon class="cls-1" points="21.93 9.13 22.06 8.89 23.36 9.55 23.24 9.79 21.93 9.13"/><rect class="cls-1" x="49.93" y="9.04" width="1.46" height="0.27" transform="translate(1.49 24.44) rotate(-27.52)"/><rect class="cls-1" x="22.86" y="7.96" width="0.27" height="1.46" transform="translate(4.12 24.44) rotate(-60.53)"/><polygon class="cls-1" points="49.61 8.79 50.87 8.05 51.01 8.29 49.75 9.02 49.61 8.79"/><rect class="cls-1" x="23.24" y="7.33" width="0.27" height="1.46" transform="translate(4.08 23.53) rotate(-57.75)"/><polygon class="cls-1" points="49.23 8.2 50.46 7.4 50.61 7.63 49.38 8.42 49.23 8.2"/><polygon class="cls-1" points="23.11 7.15 23.26 6.92 24.46 7.76 24.3 7.98 23.11 7.15"/><rect class="cls-1" x="48.78" y="7.17" width="1.46" height="0.27" transform="translate(5.03 30.24) rotate(-35.67)"/><polygon class="cls-1" points="23.56 6.52 23.72 6.31 24.88 7.2 24.71 7.42 23.56 6.52"/><rect class="cls-1" x="48.34" y="6.58" width="1.46" height="0.27" transform="translate(6.43 31.92) rotate(-38.38)"/><rect class="cls-1" x="24.54" y="5.56" width="0.27" height="1.46" transform="translate(3.84 20.92) rotate(-49.37)"/><rect class="cls-1" x="47.87" y="6.02" width="1.46" height="0.27" transform="translate(7.92 33.44) rotate(-41.07)"/><polygon class="cls-1" points="24.54 5.34 24.73 5.14 25.79 6.14 25.6 6.34 24.54 5.34"/><rect class="cls-1" x="47.38" y="5.47" width="1.46" height="0.27" transform="translate(9.48 34.83) rotate(-43.76)"/><rect class="cls-1" x="25.54" y="4.49" width="0.27" height="1.46" transform="translate(3.74 19.54) rotate(-44.62)"/><rect class="cls-1" x="46.86" y="4.95" width="1.46" height="0.27" transform="matrix(0.69, -0.72, 0.72, 0.69, 11.11, 36.07)"/><rect class="cls-1" x="26.08" y="3.99" width="0.27" height="1.46" transform="translate(3.52 18.66) rotate(-41.76)"/><polygon class="cls-1" points="46.47 5.06 47.42 3.95 47.63 4.13 46.67 5.24 46.47 5.06"/><rect class="cls-1" x="26.64" y="3.51" width="0.27" height="1.46" transform="translate(3.32 17.82) rotate(-39.07)"/><rect class="cls-1" x="45.75" y="3.99" width="1.46" height="0.27" transform="translate(14.17 37.8) rotate(-51.25)"/><polygon class="cls-1" points="26.81 3.28 27.03 3.12 27.9 4.29 27.68 4.46 26.81 3.28"/><rect class="cls-1" x="45.16" y="3.54" width="1.46" height="0.27" transform="translate(15.9 38.61) rotate(-53.94)"/><rect class="cls-1" x="27.82" y="2.64" width="0.27" height="1.46" transform="translate(2.82 16.05) rotate(-33.65)"/><rect class="cls-1" x="44.56" y="3.13" width="1.46" height="0.27" transform="translate(17.69 39.32) rotate(-56.7)"/><rect class="cls-1" x="28.44" y="2.24" width="0.27" height="1.46" transform="translate(2.53 15.11) rotate(-30.92)"/><polygon class="cls-1" points="44.18 3.44 44.92 2.18 45.15 2.32 44.41 3.58 44.18 3.44"/><rect class="cls-1" x="29.08" y="1.88" width="0.27" height="1.46" transform="translate(2.23 14.1) rotate(-28.16)"/><polygon class="cls-1" points="43.56 3.1 44.24 1.81 44.49 1.94 43.8 3.23 43.56 3.1"/><polygon class="cls-1" points="29.43 1.68 29.68 1.56 30.3 2.88 30.06 2.99 29.43 1.68"/><polygon class="cls-1" points="42.93 2.8 43.55 1.48 43.8 1.59 43.18 2.92 42.93 2.8"/><rect class="cls-1" x="30.4" y="1.24" width="0.27" height="1.46" transform="translate(1.72 12.27) rotate(-23.37)"/><rect class="cls-1" x="41.96" y="1.77" width="1.46" height="0.27" transform="translate(24.76 40.69) rotate(-67.74)"/><polygon class="cls-1" points="30.83 1.06 31.09 0.97 31.6 2.33 31.34 2.43 30.83 1.06"/><polygon class="cls-1" points="41.64 2.28 42.12 0.9 42.38 1 41.9 2.37 41.64 2.28"/><polygon class="cls-1" points="31.56 0.81 31.82 0.72 32.26 2.11 32 2.2 31.56 0.81"/><rect class="cls-1" x="40.58" y="1.27" width="1.46" height="0.27" transform="translate(28.16 40.6) rotate(-73.4)"/><polygon class="cls-1" points="32.3 0.58 32.56 0.51 32.94 1.92 32.67 1.99 32.3 0.58"/><rect class="cls-1" x="39.87" y="1.07" width="1.46" height="0.27" transform="translate(29.26 40.21) rotate(-75.48)"/><rect class="cls-1" x="33.19" y="0.35" width="0.27" height="1.46" transform="translate(0.52 7.04) rotate(-12.16)"/><rect class="cls-1" x="39.16" y="0.91" width="1.46" height="0.27" transform="translate(30.82 39.9) rotate(-78.36)"/><rect class="cls-1" x="33.91" y="0.21" width="0.27" height="1.46" transform="translate(0.34 5.84) rotate(-9.85)"/><rect class="cls-1" x="38.44" y="0.78" width="1.46" height="0.27" transform="translate(32.25 39.48) rotate(-81.17)"/><rect class="cls-1" x="34.64" y="0.11" width="0.27" height="1.46" transform="translate(0.16 4.27) rotate(-7.03)"/><polygon class="cls-1" points="38.22 1.52 38.39 0.07 38.66 0.11 38.49 1.56 38.22 1.52"/><rect class="cls-1" x="35.37" y="0.03" width="0.27" height="1.46" transform="translate(0.04 2.63) rotate(-4.25)"/><rect class="cls-1" x="36.98" y="0.62" width="1.46" height="0.27" transform="translate(34.47 38.33) rotate(-86.22)"/><rect class="cls-1" x="36.1" width="0.27" height="1.46" transform="matrix(1, -0.02, 0.02, 1, -0.01, 0.81)"/><polygon class="cls-1" points="36.83 1.45 37.1 1.46 37.12 -0.01 36.85 -0.01 36.83 1.45"/><path class="cls-1" d="M31.2,6.32h0m8.09,0.85a0.08,0.08,0,0,1-.07-0.09V7l-0.17-.08a0.08,0.08,0,1,1,.08-0.13,1.07,1.07,0,0,0,.43.13,0.08,0.08,0,0,1,.08.08,0.08,0.08,0,0,1-.08.08l-0.19,0v0a0.08,0.08,0,0,1-.08.07h0m0.3,0.61c-0.14,0-.21,0-0.22-0.13a0.08,0.08,0,0,1,0-.06h0a0.08,0.08,0,0,1,.11,0v0H39.6a0.08,0.08,0,0,1,0,.15h0ZM34.15,8L34,7.93,34,8a0.08,0.08,0,0,1-.13-0.09l0-.06-0.12-.08a0.08,0.08,0,1,1,.09-0.13l0.39,0.26a0.08,0.08,0,0,1,0,.11,0.08,0.08,0,0,1-.06,0h0m5.38,0a0.52,0.52,0,0,1-.29-0.11,0.08,0.08,0,1,1,.1-0.12,0.4,0.4,0,0,0,.2.08,0.08,0.08,0,0,1,0,.16h0m-3.81,2.53a0.08,0.08,0,0,1,0-.11,0.76,0.76,0,0,1,.41-0.31,0.16,0.16,0,0,1,.11,0,0.08,0.08,0,0,1,0,.11,0.08,0.08,0,0,1-.11,0h0v0l0,0a0.08,0.08,0,1,1-.13.09l0,0h0l-0.14.15h0a0.08,0.08,0,0,1-.06,0l0,0m4.45,0.57h0Zm-2.86.06h0m3.44,3.29-0.06-.07-0.22,0a0.08,0.08,0,1,1,0-.15l0.64-.13a0.08,0.08,0,0,1,.09.06,0.08,0.08,0,0,1-.06.09l-0.25.05h0a0.08,0.08,0,0,1,0,.11l-0.05,0-0.06,0m-4.94,2.39a0.08,0.08,0,0,1,0-.11h0a0.39,0.39,0,0,1-.11-0.1,0.08,0.08,0,0,1,.13-0.08,0.71,0.71,0,0,0,.28.14,0.08,0.08,0,0,1,.05.09,0.08,0.08,0,0,1-.1.06l-0.11,0-0.06.05,0,0a0.08,0.08,0,0,1-.06,0M32.24,7.81l0.12,0a2.69,2.69,0,0,0,.43-0.05,0.93,0.93,0,0,0,.47-0.23,1.13,1.13,0,0,1,.37-0.22h0a0.17,0.17,0,0,0,.13-0.08A0.38,0.38,0,0,0,33.86,7s0-.05,0-0.05a0.08,0.08,0,0,1,0-.07,0.08,0.08,0,0,1,.08,0L34.3,7.12a1.82,1.82,0,0,0,.45.2,0.46,0.46,0,0,0,.17,0h0c0.2,0,.15-0.06.17-0.13a1.4,1.4,0,0,0,0-.33,0.34,0.34,0,0,0-.22-0.38l0,0a0.71,0.71,0,0,0-.52-0.42H34.24a2.17,2.17,0,0,0-.29-0.17,1.51,1.51,0,0,0-.65-0.17H33.12a3.2,3.2,0,0,0-.52,0C32.27,5.69,32,5.77,32,6a0.08,0.08,0,0,1-.06.07,3.23,3.23,0,0,0-.38.09,0.48,0.48,0,0,0-.33.21h0v0a0.08,0.08,0,0,1-.06.09L31,6.47a0.36,0.36,0,0,0-.18.25,0.14,0.14,0,0,0,0,.05v0l0.21,0.14a1.46,1.46,0,0,1,.42.51l0,0.07a0.69,0.69,0,0,1,.27.3h0l0.25,0a0.33,0.33,0,0,1,.15,0m6.58-.37a1.29,1.29,0,0,0,.46.71h0a1.66,1.66,0,0,0,.94-0.3h0l0.21-.34-0.18,0v0a0.08,0.08,0,0,1-.15,0v0L40,7.35h0a0.08,0.08,0,0,1,.08-0.13,1,1,0,0,0,.43.13h0L40.79,7h0a1.11,1.11,0,0,0-.1-0.37,1.13,1.13,0,0,1-.3-0.41s0-.14,0-0.22c-0.13.1-.34,0.27-0.41,0.31a0.36,0.36,0,0,1-.16,0c-0.13,0-.3,0-0.35,0h0a0.35,0.35,0,0,0-.23.1c0,0.1-.21.38-0.26,0.45a1.64,1.64,0,0,0-.08.46,0.36,0.36,0,0,1,0,.16h0m-2.4.22a0.27,0.27,0,0,1,.15,0,1.69,1.69,0,0,0,.18.17,0.44,0.44,0,0,1,.19.4,0.74,0.74,0,0,1,0,.11,1.42,1.42,0,0,0,.29-0.09,0.31,0.31,0,0,0,.11-0.09,0.29,0.29,0,0,0,0-.17,0.64,0.64,0,0,0-.06-0.25,2.13,2.13,0,0,0-1-.74L36.23,7H36.16a1,1,0,0,0-.4.23,1,1,0,0,0-.1.45h0.12a0.67,0.67,0,0,1,.38.11l0.08,0.05v0a0.21,0.21,0,0,1,0-.13,0.16,0.16,0,0,1,.13-0.07h0ZM35.9,8.74a0.57,0.57,0,0,0,.21,0,0.43,0.43,0,0,0,.24-0.07,1,1,0,0,0,.44-0.24v0a0.55,0.55,0,0,0,0-.12c-0.1-.37,0-0.22-0.13-0.31a1.51,1.51,0,0,1-.18-0.17H36.41a0.06,0.06,0,0,0,0,0v0L36.46,8l0.12,0.2a0.08,0.08,0,1,1-.13.08l-0.09-.15h0L36.07,8a0.52,0.52,0,0,0-.3-0.09H35.46a1.52,1.52,0,0,0-.55.19l-0.17.09a0.24,0.24,0,0,0,.2.08h0.13l0,0a0.17,0.17,0,0,1,.13-0.07,0.14,0.14,0,0,1,.12.06s0.5,0.48.49,0.48l0.09,0M32.51,8.6l0.07,0L33,8.88a1.47,1.47,0,0,0,.35.14h0c0.07,0,0,0,.05-0.05a0.26,0.26,0,0,1,.17-0.2h0l0,0-0.11-.12a0.08,0.08,0,0,1,0-.11,0.08,0.08,0,0,1,.11,0l0.13,0.14,0.12,0a0.68,0.68,0,0,0,.1-0.1v0h0a0.08,0.08,0,0,1,.07,0h0l0,0,0,0a0.17,0.17,0,0,0,0-.07,8,8,0,0,1,.33-0.93,0.78,0.78,0,0,1,.06-0.12,1.3,1.3,0,0,1-.39-0.18L34,7.1a0.43,0.43,0,0,1-.11.26,0.33,0.33,0,0,1-.24.12h0s-0.19.14-.28,0.2a1,1,0,0,1-.53.25,2.78,2.78,0,0,1-.45.06,0.42,0.42,0,0,1-.2,0H32.09L31.84,8a0.18,0.18,0,0,1-.18-0.1l0-.07a1.37,1.37,0,0,1,0,.24,1.43,1.43,0,0,1-.06.42,2,2,0,0,1-.2.43l1.08-.28h0.06Zm7.76,0.75,0-.08c0-.09,0-0.17,0-0.17l0,0L40.46,9a0.23,0.23,0,0,1,.15,0l0.07-.08a0.39,0.39,0,0,0,0-.21c0-.12,0-0.22,0-0.27h0a0.41,0.41,0,0,1,.15-0.27,0.79,0.79,0,0,0,.06-0.33,0.46,0.46,0,0,1,.16-0.22s0,0,0,0A3.31,3.31,0,0,0,41,7.18a0.25,0.25,0,0,1,0,0,0.63,0.63,0,0,1,0-.22v0a2.46,2.46,0,0,0,.06-0.47v0a0.24,0.24,0,0,1,0,0A2.48,2.48,0,0,1,41.22,6h0a3.77,3.77,0,0,0-.3-0.71,0.57,0.57,0,0,0-.43-0.21l-0.05,0a1.16,1.16,0,0,0-.8-0.27h-0.1a4.9,4.9,0,0,0-.58.18,4.08,4.08,0,0,0-.32.33h0l0,0a1.34,1.34,0,0,0-.13.18,2.91,2.91,0,0,0-.22.58,7.11,7.11,0,0,0-.2.72h0a9.12,9.12,0,0,0,.13,1,3.37,3.37,0,0,1,.17.49v0l0,0.11,0.1,0h0.11a1.89,1.89,0,0,0,0-.36,1.1,1.1,0,0,0,0-.12,2.41,2.41,0,0,1,0-.29,0.29,0.29,0,0,1,0-.11,0.79,0.79,0,0,1,.1-0.17,0.27,0.27,0,0,0,.06-0.15,1.46,1.46,0,0,1,.11-0.55c0-.05.2-0.34,0.24-0.43a0.45,0.45,0,0,1,.37-0.18h0c0.07,0,.22,0,0.34,0h0.09c0.07,0,.49-0.37.49-0.38a0.08,0.08,0,0,1,.12,0s0.07,0.26.08,0.35a1.32,1.32,0,0,0,.25.31,1,1,0,0,1,.15.49,0.19,0.19,0,0,1,0,.06l-0.54.87v0l-0.08.72-0.16.54,0.11,0.17m-8,.47h0Zm8.42-.65a1.54,1.54,0,0,0,.78,1.22,7.92,7.92,0,0,1,2.06-.67,1.9,1.9,0,0,0-.46-0.44,3.22,3.22,0,0,0-.64-0.36,0.08,0.08,0,0,1,0-.1,0.08,0.08,0,0,1,.1,0,3.24,3.24,0,0,1,.57.3,2,2,0,0,0-.24-0.6A3.57,3.57,0,0,0,41.18,7a0.32,0.32,0,0,0,0,.09,0.1,0.1,0,0,0,0,0,3,3,0,0,1,.06.38,0.19,0.19,0,0,1,0,.12,0.83,0.83,0,0,0-.13.13,0.69,0.69,0,0,1-.12.44,0.28,0.28,0,0,0-.1.16s0,0.14,0,.27a0.51,0.51,0,0,1-.08.3l-0.09.1a0.57,0.57,0,0,0,0,.11m-9.85.26a0.55,0.55,0,0,0-.39.34A2.9,2.9,0,0,1,30,10.85l0.52-.26L31,10.34s0.71-.25,1.09-0.42l0.21-.11a1.61,1.61,0,0,0,0-.23l-0.05,0-0.4.26a0.08,0.08,0,0,1-.11,0,0.08,0.08,0,0,1,0-.11l0.4-.26a0.52,0.52,0,0,0,.12-0.11,0.9,0.9,0,0,0,.17-0.56s0-.06,0-0.07L31.34,9h0a0.08,0.08,0,0,1-.07,0,1.38,1.38,0,0,1-.41.4M26,10.36a2,2,0,0,0,.61.24,9.71,9.71,0,0,1,1,.32l0.7,0.23h0l0,0h0c0-.06,0-0.11,0-0.18a11.67,11.67,0,0,0,0-1.23V9.64l-0.13,0a1.68,1.68,0,0,1-1.07-.79,0.78,0.78,0,0,1-.19-0.49,1.85,1.85,0,0,1,.64-1.09,3,3,0,0,1,1.52-.62H29.07a3,3,0,0,0-.62.05,6.68,6.68,0,0,0-1.38.38c-0.22.13-.46,0.61-0.71,0.77a1,1,0,0,0-.6.58c0,0.06,0,.15,0,0.24-0.07.39-.12,0.93-0.12,1h0a0,0,0,0,1,0,0,2,2,0,0,0,.45.64m11.22,0.9h0m-6.65-.34a0.32,0.32,0,0,0,0,.17,1.09,1.09,0,0,0,.91.68l0.46,0a0.41,0.41,0,0,1-.15-0.36c0-.07,0-0.13,0-0.2V11.19A1,1,0,0,1,32,10.65a1.21,1.21,0,0,1,.4-0.22h0l0.11,0a3.45,3.45,0,0,0-.42-0.36h0l0,0h0c-0.39.18-1.1,0.42-1.09,0.42l-0.4.2a1.07,1.07,0,0,0,0,.24m-4.28.55a1.44,1.44,0,0,0,.77.41,0.57,0.57,0,0,0,.32-0.1l0.74-.51-0.6-.2c-0.12,0-.81-0.31-0.92-0.31A2,2,0,0,1,26,10.49a1.72,1.72,0,0,1-.52-0.78s0,0,0,0,0-.55.11-0.93a2.32,2.32,0,0,0-1,1.09s-0.36.43-.5,0.55a0.23,0.23,0,0,0,0,.15,0.74,0.74,0,0,0,.11.41l0.25,0.26,0,0v0a0.85,0.85,0,0,0,.55.26H25a8.3,8.3,0,0,1,1-.15,0.6,0.6,0,0,1,.36.09m5.83-.73a0.8,0.8,0,0,0-.14.45v0.05c0,0.07,0,.14,0,0.2a0.23,0.23,0,0,0,.14.26l0.18,0.09a1.2,1.2,0,0,0,.56.21,0.53,0.53,0,0,0,.31-0.1,0.27,0.27,0,0,0,.12-0.26,0.67,0.67,0,0,0,0-.12l0-.08a0.31,0.31,0,0,0,.13-0.17,0.11,0.11,0,0,0,0-.06L33.35,11a0.07,0.07,0,0,1,0-.07,0.08,0.08,0,0,1,.06,0l0.36-.06,0.07,0h0l-0.28,0-0.42-.06h0a0.37,0.37,0,0,1,0,.12,0.12,0.12,0,0,1,0,.1,0.7,0.7,0,0,1-.32.11l-0.1,0-0.09,0a0.08,0.08,0,0,1,0-.1,0.08,0.08,0,0,1,.1,0l0.09,0h0A0.57,0.57,0,0,0,33,10.8l0-.1-0.23-.06-0.23-.06a1.26,1.26,0,0,0-.31.16m6.63,1.7a0.16,0.16,0,0,1,.08-0.14s0.05-.19.14-0.35a0.38,0.38,0,0,1,.25-0.19,3.09,3.09,0,0,0,.39-0.4c0.21-.06.36-0.21,0.51-0.23h0S40.5,11,40.59,11l0.16,0a0.08,0.08,0,0,1,0-.05,1.93,1.93,0,0,1,.57-0.47,1.66,1.66,0,0,1-.78-1.29s0,0,0-.05h0l-0.06,0,0,0.15a0.27,0.27,0,0,1-.16.23h0A1,1,0,0,1,40,9.23V9.17l0.16-.56L40.22,8a1.86,1.86,0,0,1-.92.26h0a1.09,1.09,0,0,1-.56-0.7l0,0a0.15,0.15,0,0,0,0,.05c0,0.05,0,.14,0,0.27a1,1,0,0,1,0,.14,2.07,2.07,0,0,1,0,.4,0.24,0.24,0,0,1-.24.13h0l-0.06,0-0.09,0a0.08,0.08,0,0,1-.12-0.08s0-.22,0-0.27h0S38.07,8,38,7.92a8.58,8.58,0,0,1-.14-1.07h0a5.5,5.5,0,0,1,.2-0.74,3,3,0,0,1,.24-0.63l0.11-.15a0.76,0.76,0,0,0-.35-0.08,1.22,1.22,0,0,0-.61.19L37,5.49a1.09,1.09,0,0,0-.65.53,0.81,0.81,0,0,0-.21.53,0.6,0.6,0,0,0,.06.29h0v0h0a0.38,0.38,0,0,1,.15,0,2.22,2.22,0,0,1,1.1.82,0.81,0.81,0,0,1,.07.28,0.39,0.39,0,0,1,.15-0.07l-0.16-.63a0.08,0.08,0,0,1,.15,0l0.23,0.89a0.07,0.07,0,0,1,0,0,2.84,2.84,0,0,1,.17.94,1.8,1.8,0,0,1-.23.95s-0.27.61-.3,0.67l0,0.08a1.56,1.56,0,0,0,.08.27,0.27,0.27,0,0,1,0,.13s0,0,0,0a0.41,0.41,0,0,1,.19.24h0a0.14,0.14,0,0,1,0,.07,0.43,0.43,0,0,1,.07.23,0.32,0.32,0,0,1,0,.1,0.13,0.13,0,0,0,0,0,0.37,0.37,0,0,0,0,.07Zm-1.52.06a0.5,0.5,0,0,0,.18,0,1,1,0,0,0,.25-0.18,0.15,0.15,0,0,0,.08-0.13c0-.05,0-0.12,0-0.21a0.29,0.29,0,0,1,0-.09,0.15,0.15,0,0,0,0,0,0.31,0.31,0,0,0-.09-0.19,0.08,0.08,0,0,1,0-.07,0.07,0.07,0,0,1,0-.06h0l0,0-0.09-.07a0.1,0.1,0,0,1,0-.09s0,0,0-.06a0.13,0.13,0,0,0,0-.05,1.52,1.52,0,0,1-.09-0.32s0-.17,0-0.19a0.24,0.24,0,0,0-.14-0.19l-0.05-.07a0.26,0.26,0,0,0-.11-0.14l0-.08a0.31,0.31,0,0,0,0,0,0.83,0.83,0,0,0-.24-0.26,0.85,0.85,0,0,0-.24-0.19,0.55,0.55,0,0,0-.31-0.15h0a0.85,0.85,0,0,0-.21.05,1.28,1.28,0,0,1,.3.06l0.21,0.18s0.17,0.11.28,0.2a0.5,0.5,0,0,1,.16.28,0.08,0.08,0,0,1-.16,0,0.37,0.37,0,0,0-.11-0.18c-0.09-.08-0.23-0.16-0.27-0.19l-0.19-.17a1.17,1.17,0,0,0-.29,0,1.06,1.06,0,0,0-.47.12,1,1,0,0,0-.26.51,0.33,0.33,0,0,0,0,.05,0.52,0.52,0,0,0,.17.33,0.88,0.88,0,0,1,.17.46v0a1.39,1.39,0,0,0,.07.37,3.84,3.84,0,0,0,1.23.17,1.81,1.81,0,0,0,.34-0.19,0.19,0.19,0,0,0,0,0,2.76,2.76,0,0,0-.08-0.37h0V11.1a1.54,1.54,0,0,1-.38.14h0a0.08,0.08,0,0,1-.09-0.06,0.08,0.08,0,0,1,.06-0.09,1.36,1.36,0,0,0,.36-0.14h0c0-.13,0-0.27,0-0.3a0.08,0.08,0,0,1,.07-0.08,0.08,0.08,0,0,1,.08.07s0.08,0.5.08,0.56h0v0a1.61,1.61,0,0,1,.08.36,0.2,0.2,0,0,1-.06.16,1.43,1.43,0,0,1-.32.18v0a0.55,0.55,0,0,0,.2.46l0.06,0.1h0m-12.56-.21a4.79,4.79,0,0,0,.51.12,7.52,7.52,0,0,0,1,.11l0.61,0a13.49,13.49,0,0,0,1.74-.12,4.62,4.62,0,0,1-.11-0.7,1.43,1.43,0,0,1-.05-0.42h0c-0.16.12-.49,0.35-0.85,0.59a0.72,0.72,0,0,1-.4.13,1.54,1.54,0,0,1-.86-0.44A0.47,0.47,0,0,0,26,11.54a8.6,8.6,0,0,0-.94.15H24.94a1,1,0,0,1-.61-0.27,0.39,0.39,0,0,0-.06.21,1.13,1.13,0,0,0,.22.59l0.23,0.08M34.45,13l0.21,0.06a2.9,2.9,0,0,0,.54.06,0.69,0.69,0,0,0,.21,0,1.57,1.57,0,0,0,.25-0.65c0-.06,0-0.11,0-0.16a1,1,0,0,0,0-.28,1.34,1.34,0,0,0-.07-0.2,1.62,1.62,0,0,1-.14-0.6,0.33,0.33,0,0,1,0,0h0a0.73,0.73,0,0,0-.14-0.36,0.66,0.66,0,0,1-.2-0.43,0.43,0.43,0,0,1,0-.08,1,1,0,0,1,.36-0.63l0.07,0,0,0H35.37a0.48,0.48,0,0,0-.44.3,1,1,0,0,0-.26.27,11.09,11.09,0,0,0-.33,1.15,1.36,1.36,0,0,1-.05.35,2.67,2.67,0,0,0-.44.72,0.11,0.11,0,0,0,0,.1h0a1.06,1.06,0,0,1,.47.43h0l0.06,0M45.66,9.94a3.26,3.26,0,0,0-1.09,2c0,0.61.43,1.25,1.95,1.66a3.66,3.66,0,0,0,1.05-.81l0.67-.55a2.14,2.14,0,0,0,.64-1,1.09,1.09,0,0,0-1.06-1.06H47.62l-0.53.17H47a1.58,1.58,0,0,0-1-.33H45.66M40.8,11.27h0a2.76,2.76,0,0,1,.55.11,3.08,3.08,0,0,1,.41.25,0.35,0.35,0,0,1,.06.21,0.43,0.43,0,0,1,0,.15,3.43,3.43,0,0,1-.43.73,0.06,0.06,0,0,0,0,.05,0.24,0.24,0,0,0,.08.13,0.22,0.22,0,0,1,0,.14,0.3,0.3,0,0,1,0,.11c0,0.1-.13.15-0.14,0.19a0.4,0.4,0,0,0,0,.12,0.58,0.58,0,0,0,0,.22h0a2.61,2.61,0,0,0,.32-0.11h0a0.63,0.63,0,0,0,.22-0.08h0a0.41,0.41,0,0,1,.29-0.14s0.16-.22.21-0.27a2,2,0,0,1,.14-0.19,0.11,0.11,0,0,0,0-.06h0a0.12,0.12,0,0,1,0-.08,0.22,0.22,0,0,1,.1-0.15,0.08,0.08,0,0,0,0,0,0.29,0.29,0,0,0,0-.09c0-.05-0.16-0.24-0.18-0.33a0.11,0.11,0,0,1,0,0,0.33,0.33,0,0,1,.07-0.18h0l0,0-0.09-.05a0.11,0.11,0,0,1-.06-0.1,0.42,0.42,0,0,1,0-.15h0l-0.15,0c-0.1,0-.46-0.16-0.53-0.16a1,1,0,0,1-.26-0.08l-0.33-.15H40.84l-0.22,0a3.45,3.45,0,0,1-.45.13h0a3.39,3.39,0,0,1-.45.22,1.16,1.16,0,0,1-.4.4,0.22,0.22,0,0,0-.15.11,1.19,1.19,0,0,1-.2.41,0,0,0,0,1,0,0,0.4,0.4,0,0,0,0,.09h0a1.08,1.08,0,0,1,0,.2,0.26,0.26,0,0,1,0,.08,0.08,0.08,0,0,0,0,0,0.1,0.1,0,0,0,0,.06,1.57,1.57,0,0,1,.38-1l0.27-.23,0.25-.22c0.07-.05.31-0.14,0.4-0.19a0.62,0.62,0,0,1,.32-0.06H40.8m-0.23,3.81,0.17-.15,0.08,0L41,15l0,0,0.16-.1a0.08,0.08,0,0,1,.11,0,0.08,0.08,0,0,1,0,.11L41.15,15a0.37,0.37,0,0,0,.14,0A0.87,0.87,0,0,0,42,14.59l0.14-.23a7,7,0,0,1,.39-0.81s0.18-.11.25-0.14a1.39,1.39,0,0,0,.67-0.84s0,0,0-.07,0-.1,0-0.17a0.08,0.08,0,0,1,.07-0.08,0.08,0.08,0,0,1,.08,0,4.42,4.42,0,0,0,2,1.47l0.28,0a1.13,1.13,0,0,0,.52-0.12c-1.44-.42-1.92-1.09-1.92-1.77a3.3,3.3,0,0,1,1.09-2,1,1,0,0,0-.25,0,0.71,0.71,0,0,0-.36.09,3.43,3.43,0,0,0-1.41,1.92,0.08,0.08,0,0,1-.15,0,3.52,3.52,0,0,1,1.45-2l-0.4,0a7.14,7.14,0,0,0-2.9.76,1.75,1.75,0,0,0-.56.41H41a0.27,0.27,0,0,1,.14,0l0.3,0.14,0.21,0.07c0.12,0,.5.16,0.53,0.16a0.32,0.32,0,0,1,.34.17v0l0,0.11a0.28,0.28,0,0,1,.19.19h0l0,0c0,0.07-.07.15-0.07,0.17h0s0.15,0.24.18,0.33a0.45,0.45,0,0,1,0,.14,0.22,0.22,0,0,1-.06.16l0,0a0.18,0.18,0,0,1,0,.08,0.26,0.26,0,0,1-.07.18s-0.08.12-.13,0.18a2.29,2.29,0,0,1-.23.29,0.92,0.92,0,0,1-.23.07h0a0.48,0.48,0,0,1-.37.19h0a1.11,1.11,0,0,1-.33.11,0.15,0.15,0,0,1-.14-0.09,0.74,0.74,0,0,1,0-.28,0.57,0.57,0,0,1,0-.17,1.1,1.1,0,0,1,.14-0.2,0.14,0.14,0,0,0,0-.06,0.07,0.07,0,0,0,0,0,0.36,0.36,0,0,1-.12-0.23,0.23,0.23,0,0,1,.07-0.16,3.41,3.41,0,0,0,.39-0.68,0.26,0.26,0,0,0,0-.09,0.23,0.23,0,0,0,0-.11l-0.36-.21a3.14,3.14,0,0,0-.49-0.09H40.63a0.54,0.54,0,0,0-.23,0c-0.11.06-.37,0.16-0.39,0.19l-0.24.21-0.27.23a1.5,1.5,0,0,0-.34,1s0,0.07,0,.11a2.47,2.47,0,0,0,0,.39,1.17,1.17,0,0,0,.22.5s0.41,0.34.41,0.35l0.19,0a0.36,0.36,0,0,1,.27.2,0.67,0.67,0,0,0,.29.43h0m-1.39-.6a1.41,1.41,0,0,0-.38.76,0.4,0.4,0,0,0,0,.07C38.86,15.58,39,16,39,16.17h0.1L40.63,16l0.22-.07a1.08,1.08,0,0,0,.39-0.23,5.81,5.81,0,0,0,.38-0.54,0.68,0.68,0,0,1-.34.1,0.5,0.5,0,0,1-.23-0.05l-0.26-.1-0.17.15H40.56a0.69,0.69,0,0,1-.43-0.52A0.23,0.23,0,0,0,40,14.59l-0.24,0s-0.27-.21-0.41-0.33a0.64,0.64,0,0,1-.16.27M29.46,7.28a0.08,0.08,0,0,1,0,.11,13.6,13.6,0,0,0-.68,1.27,4.53,4.53,0,0,0-.2.91c0,0.08,0,.13,0,0.16A11.63,11.63,0,0,1,28.54,11c0,0.09,0,.16,0,0.23s0,0.06,0,.1a1.38,1.38,0,0,0,0,.41,4.57,4.57,0,0,0,.13.78,3,3,0,0,0,.47,1c0.06,0.13.51,0.73,0.52,0.75S30,15,30,15.08h0a3.59,3.59,0,0,0-.2.53,0.6,0.6,0,0,0,0,.09,0.48,0.48,0,0,0,.09.29l0,0c0.09,0.07.18,0.19,0.25,0.24a0.23,0.23,0,0,0,.14,0H30.4a0.76,0.76,0,0,0,.21-0.11,0.6,0.6,0,0,0,0-.16,2.77,2.77,0,0,1,.06-0.35s0-.14.07-0.2a0.08,0.08,0,0,1,0,0h0l0,0A0.81,0.81,0,0,1,31,15.26a0.51,0.51,0,0,1,.15-0.09h0a0.5,0.5,0,0,1,.19.07,0.79,0.79,0,0,0,.17,0,0.8,0.8,0,0,0,.24,0l0,0-0.1-.06a1.54,1.54,0,0,1-.42-0.23A0.59,0.59,0,0,0,31,14.8a1.61,1.61,0,0,1-.52-0.91,4.61,4.61,0,0,1-.21-1.34,0.1,0.1,0,0,1,0,0,0.09,0.09,0,0,1,0,0,4,4,0,0,0-.43-1.36A0.93,0.93,0,0,1,29.81,11a0.32,0.32,0,0,1,0-.09,0.12,0.12,0,0,1,.05-0.12,2.69,2.69,0,0,0,.47-1.06,0.7,0.7,0,0,1,.47-0.43,1.33,1.33,0,0,0,.39-0.4,1.85,1.85,0,0,0,.25-0.49A1.28,1.28,0,0,0,31.48,8a1.22,1.22,0,0,0-.12-0.53A1.3,1.3,0,0,0,31,7a1.48,1.48,0,0,0-.24-0.15A1.88,1.88,0,0,0,30,6.71h0a4.31,4.31,0,0,0-2.19.67,1.75,1.75,0,0,0-.6,1,0.61,0.61,0,0,0,.15.39,1.59,1.59,0,0,0,.95.74l0.14,0h0a4.44,4.44,0,0,1,.2-0.88,13,13,0,0,1,.69-1.29,0.08,0.08,0,0,1,.07,0h0m3.88,8.46s0.59,0.83.8,1.19l1-.23a0.65,0.65,0,0,0,.33-0.27,0.44,0.44,0,0,1,.29-0.14A3.53,3.53,0,0,0,36.22,16,0.31,0.31,0,0,1,36.41,16l0.12,0a0.24,0.24,0,0,1,.14.16l0.17,0,0.16,0a0.25,0.25,0,0,0,.18-0.27,0.67,0.67,0,0,0,0-.21,1.08,1.08,0,0,0-.36-0.31,0.08,0.08,0,0,1,0,0,0.07,0.07,0,0,1,0-.06,0.25,0.25,0,0,0,.05-0.14A0.16,0.16,0,0,0,36.75,15l0,0a0.33,0.33,0,0,0-.28-0.2H36.3a3.11,3.11,0,0,1-.62-0.38s-0.76-.09-1.07-0.13H34.54a0.65,0.65,0,0,0-.45.28,0.57,0.57,0,0,1-.31.2,1,1,0,0,0-.27.24l-0.16.16-0.05,0a0.26,0.26,0,0,0-.08.24,1.43,1.43,0,0,0,0,.28h0l0.09,0.08h0m2.51,1.53,0,0h0l0,0m0,0h0m0,0h0m0,0h0m0,0h0ZM24.22,12.59a2.68,2.68,0,0,0-.39,1.23,10.75,10.75,0,0,1-.24,1.88,6.33,6.33,0,0,1-1,1.44,0.27,0.27,0,0,0-.05.14,0.21,0.21,0,0,0,.08.17l0.51,0.36h0a1.49,1.49,0,0,0,.2-0.24l0.1-.21,0.29-.64a1.51,1.51,0,0,0,.13-0.44h0l0,0L24,14a2.55,2.55,0,0,1,.59-1.59l-0.12,0a0.7,0.7,0,0,0-.23.22M23.28,18l0.26,0.09,0.32,0.08A0.87,0.87,0,0,1,24,17.8l0.11-.17a4.08,4.08,0,0,0,.31-1.86c0-.53,0-1.08,0-1.56,0,0,0,0,0,0a2.18,2.18,0,0,1,.64-1.64l-0.32-.08a2.36,2.36,0,0,0-.6,1.54L24,16.24a0.24,0.24,0,0,1,0,0,1.67,1.67,0,0,1-.14.5l-0.29.65a2,2,0,0,1-.11.22,1.55,1.55,0,0,1-.23.28h0v0h0l0.08,0m2,0.59h0.47a2.07,2.07,0,0,1-.13-0.72,3.12,3.12,0,0,1,.09-0.69,8.42,8.42,0,0,0,.16-0.95,0.06,0.06,0,0,1,0,0c0-.27-0.22-1.45-0.22-2.24A2.1,2.1,0,0,1,26,12.68a7.51,7.51,0,0,1-.79-0.1h0a1.93,1.93,0,0,0-.67,1.59,0.18,0.18,0,0,0,0,0c0,0.47,0,1,0,1.56a4.2,4.2,0,0,1-.33,1.94l-0.12.19a0.85,0.85,0,0,0-.16.29s0,0,0,0a0.84,0.84,0,0,1,.67.18,0.86,0.86,0,0,0,.16.15,2,2,0,0,0,.36,0m1,0.06a2.77,2.77,0,0,1,.58.33,2,2,0,0,1,.39-0.64,1.43,1.43,0,0,1,.25-0.21L27.22,18a0.38,0.38,0,0,1-.13-0.34c0-.07,0-0.15,0-0.24s0-.11,0-0.17a0.13,0.13,0,0,1,0,0,1,1,0,0,1,1-.67c0.18,0,1-.21.94-0.21L29.69,16a0.66,0.66,0,0,1-.07-0.3,0.69,0.69,0,0,1,0-.12,1.85,1.85,0,0,1,.2-0.51h0s-0.27-.76-0.27-0.77-0.44-.59-0.52-0.76a3.12,3.12,0,0,1-.46-1,13.52,13.52,0,0,1-1.77.12H26.23a1.93,1.93,0,0,0-.46,1.24c0,0.78.22,1.94,0.22,2.24h0a7.06,7.06,0,0,1-.16,1,3,3,0,0,0-.09.66,1.91,1.91,0,0,0,.13.72v0l0.32,0m5.37,1.29A0.87,0.87,0,0,0,32,20H32.1a1.76,1.76,0,0,0,1.18-.69,1.58,1.58,0,0,0,.21-0.75,1.93,1.93,0,0,0-.5-1.2,0.08,0.08,0,1,1,.12-0.1,2.08,2.08,0,0,1,.53,1.29,1.65,1.65,0,0,1-.17.71,1.44,1.44,0,0,0,.8-1.32h0s-0.07-.29-0.07-0.29-0.07-.3-0.13-0.57-0.85-1.29-.85-1.28h0l-0.09-.08h0A4.68,4.68,0,0,0,32,15.29a0.28,0.28,0,0,1-.14.08,0.94,0.94,0,0,1-.29,0,0.69,0.69,0,0,1-.23,0l-0.06,0-0.06,0h0l-0.1.07a1.08,1.08,0,0,0-.2.1s-0.07.18-.08,0.22a2.8,2.8,0,0,0-.05.33,0.32,0.32,0,0,1-.09.28,0.76,0.76,0,0,1-.27.13H30.29A0.38,0.38,0,0,1,30,16.4c-0.09-.07-0.18-0.19-0.25-0.24l0,0-0.72.31s-0.77.19-1,.21a0.94,0.94,0,0,0-.84.52v0c0,0.07,0,.13,0,0.19s0,0.18,0,.24a0.22,0.22,0,0,0,.07.22,1.94,1.94,0,0,0,.26.17c0.17-.11.35-0.2,0.44-0.25l-0.11-.12h0A0.08,0.08,0,1,1,28,17.54l0.17,0.19a12.42,12.42,0,0,0,1.44,1.35,5.14,5.14,0,0,1,.31-0.81,2.43,2.43,0,0,1,.74-0.85h0.07c1.26,0.46,1.47.83,1.47,1.14,0,0.08,0,.15,0,0.2a0.64,0.64,0,0,1-.59.41,3.16,3.16,0,0,1-.24.61l0,0h0a0.8,0.8,0,0,0,.15.12m5.78,0.33,0,0.06a0.06,0.06,0,0,0,0,0,0.1,0.1,0,0,0,0,0l0.14-.2,0.16-.25v0c0.14-.46.26-0.9,0.26-0.9a7,7,0,0,1,.26-1.28,0.29,0.29,0,0,0-.15,0,0.45,0.45,0,0,0-.3.14L37.57,18a1.27,1.27,0,0,0-.23.33,5.46,5.46,0,0,0-.12.55h0a0.42,0.42,0,0,1-.08.28,0.79,0.79,0,0,1-.28.14,0.09,0.09,0,0,1-.07,0A1.41,1.41,0,0,0,36.58,19H36.53v0a0.16,0.16,0,0,1-.13.13l0,0,0.23,0.2a1.21,1.21,0,0,0,.31.19h0.1a0.32,0.32,0,0,0,.28-0.14l0,0,0-.21A0.31,0.31,0,0,1,37.34,19a1.62,1.62,0,0,1,0-.22h0a0.08,0.08,0,0,1,.15,0,1.68,1.68,0,0,0,0,.21c0,0.09,0,.13.06,0.14a0.1,0.1,0,0,0,.11-0.1,0.93,0.93,0,0,1,.12-0.36,0.08,0.08,0,1,1,.15,0,1,1,0,0,0-.12.32,0.26,0.26,0,0,1-.24.25c0,0.05,0,.15,0,0.25a1.15,1.15,0,0,1-.08.33,1.1,1.1,0,0,0-.11.34h0Zm-12.61-.94a4.88,4.88,0,0,0-.07.58,0.45,0.45,0,0,0,.5.54h0a3.11,3.11,0,0,0,.43-0.29l0,0a2.3,2.3,0,0,1,.88-0.51h0.39a0.66,0.66,0,0,1-.18-0.41s0,0,0,0v0L26.49,19a2.12,2.12,0,0,0-.29-0.17l-0.33,0-0.36,0H25.43a1.08,1.08,0,0,0-.68.59m1.09,0.89a1.72,1.72,0,0,0,.21.66l0.05,0.06a2.46,2.46,0,0,0,1.47.63c0.31,0,.64,0,0.93,0a1.55,1.55,0,0,0,1-.27c0-.32,0-0.67,0-1,0,0,0-.09,0-0.13a4.1,4.1,0,0,1,.11-1h0a11,11,0,0,1-1.47-1.36,5.65,5.65,0,0,0-.52.29,1.5,1.5,0,0,0-.31.25,1.64,1.64,0,0,0-.38.66,0.47,0.47,0,0,0,0,.08v0a0.63,0.63,0,0,0,.26.43h0a0.54,0.54,0,0,1,.35.12,4,4,0,0,1,.22.62l0.54,0.44a0.08,0.08,0,1,1-.1.12l-0.54-.45c-0.11-.12-0.15-0.54-0.24-0.64a0.66,0.66,0,0,0-.29-0.07c-0.21,0-.45,0-0.57,0h0a3.1,3.1,0,0,0-.71.41,0.08,0.08,0,0,1,0,0m13.8,2.36a0.25,0.25,0,0,0,.23.28,3.84,3.84,0,0,0,.48,0,1.37,1.37,0,0,0,.49-0.06,0.43,0.43,0,0,0,.25-0.28,0.06,0.06,0,0,0,0,0,2.1,2.1,0,0,0-.27-0.31,0.9,0.9,0,0,1-.19-0.47,0.25,0.25,0,0,1,0-.08,1.76,1.76,0,0,0,.05-0.25h0s0-.09,0-0.16a0.83,0.83,0,0,1,.08-0.43l0.68-1a3.82,3.82,0,0,0,.37-1.61,13.21,13.21,0,0,0-1.6.25c0,0.18,0,1.09,0,1.44,0,0.07,0,.12,0,0.13s0,0.14,0,.25a1.16,1.16,0,0,1-.12.61,1.55,1.55,0,0,0-.26.62v0a2.14,2.14,0,0,1,0,.24,1,1,0,0,1,0,.26c0,0.07-.17.53-0.17,0.52a0.27,0.27,0,0,0,0,.05M43,14a0.08,0.08,0,0,1,.07.09c0,0.15-.24.95-0.26,1.1a1.72,1.72,0,0,0,0,.22,0.71,0.71,0,0,0,.05.28,3.43,3.43,0,0,1,.19.94s0,0,0,0a9.66,9.66,0,0,1-.2,1.18l0,0.16,0,0.2-0.3.65s-0.5,1-.58,1.17a2.57,2.57,0,0,0-.25,1.07,2.49,2.49,0,0,0,.18.92L42,22.65c0.29,0.88.35,0.9,0.64,1h0a1.46,1.46,0,0,0,0-.28,0.06,0.06,0,0,1,0,0,3.36,3.36,0,0,1,.31-1,10,10,0,0,0,.31-1.75L42.85,21a4.1,4.1,0,0,0-.27.36,0.08,0.08,0,0,1-.14,0,14.34,14.34,0,0,1,3-7.41,4.31,4.31,0,0,1-1.84-1.34,0.5,0.5,0,0,1,0,.06,1.52,1.52,0,0,1-.77,1,1.54,1.54,0,0,1-.2.1c-0.18.34-.34,0.75-0.35,0.76l-0.14.23v0s-0.53.87-.72,1.09A1,1,0,0,1,41,16a0.08,0.08,0,0,1,0,0h0l-0.48,1s0,0.06,0,.09a2.81,2.81,0,0,1-.29,1.09,13.48,13.48,0,0,1,1.6-.24c0.41,0,.69,0,0.8,0l0-.12a10,10,0,0,0,.2-1.15v0a3.34,3.34,0,0,0-.18-0.88,0.86,0.86,0,0,1-.07-0.34,1.83,1.83,0,0,1,0-.24c0-.18.24-1,0.26-1.1h0A0.08,0.08,0,0,1,43,14h0m-5.54,9.47a0.19,0.19,0,0,0,0,.13,1.14,1.14,0,0,0,.1-0.25,3.56,3.56,0,0,1,.32-0.9,0.66,0.66,0,0,1,.47-0.28,0.08,0.08,0,0,1,.08.07v0.11A0.91,0.91,0,0,0,38.61,22a0.94,0.94,0,0,0,0-.22A3.44,3.44,0,0,1,38.47,21a0.89,0.89,0,0,1,.05-0.29c0.06-.17.85-1.09,1.4-2.09l0.16-.31a2.81,2.81,0,0,0,.33-1.14s0-.07,0-0.1v0l0.45-1-0.2.06-1.45.17h0a1.77,1.77,0,0,1-.23.49,1.57,1.57,0,0,0-.52.85A6.71,6.71,0,0,0,38.19,19s-0.13.47-.28,1-0.25.81-.33,1a2.88,2.88,0,0,0-.36.81c0,0.08,0,.17,0,0.26a0.71,0.71,0,0,0,0,.25,0.08,0.08,0,0,1,0,0v0a0.41,0.41,0,0,0,.11.12l0,0.06Zm-6.14.21h0l0,0c0-.06-0.09-0.28-0.09-0.28l-0.09-.31-0.08-.2-0.07-.21a0.08,0.08,0,0,1,0-.09h0a0.08,0.08,0,0,1,.11,0h0v0l0.36,0.48,0.18,0.31,0.07,0.06s0,0,0,0a0.11,0.11,0,0,0,0,0L31.7,23a1.71,1.71,0,0,0-.29-0.4,0.08,0.08,0,0,1,.08-0.13l0.35,0.13,0.43,0.27h0l0,0-0.36-.45a1.92,1.92,0,0,0-.23-0.14,0.39,0.39,0,0,1-.11-0.14l-0.22-.21a2,2,0,0,0-.39-0.22,0.42,0.42,0,0,1-.41-0.27s0,0,0,0a8.61,8.61,0,0,1,.35-0.93L31.11,20l0.09-.18a3.14,3.14,0,0,0,.28-0.71A0.08,0.08,0,0,1,31.55,19a0.74,0.74,0,0,0,.51-0.27c0-.07,0-0.13,0-0.19s-0.11-.52-1.33-1a2.24,2.24,0,0,0-.66.76,5,5,0,0,0-.32.87,4,4,0,0,0-.13,1s0,0.08,0,.13c0,0.33,0,.68,0,1a0.08,0.08,0,0,1,0,0,1.74,1.74,0,0,0,.3,1.06l0.27,0.23a1.27,1.27,0,0,1,.29.24,0.75,0.75,0,0,1,.07.24,0.14,0.14,0,0,1,0,.09,1.66,1.66,0,0,1-.16.11h0a0.23,0.23,0,0,0,0,.06,0.06,0.06,0,0,0,0,0,0.33,0.33,0,0,1,.19-0.11l0.13-.06a0.17,0.17,0,0,0,.08-0.07V23a0.07,0.07,0,0,1,0,0,0.07,0.07,0,0,1,0,0h0.06l0,0h0l0.35,0.73h0m15,0.12,0.64,0h0.39a2.6,2.6,0,0,1-1.19-2.46,0.08,0.08,0,0,1,.07-0.08,0.08,0.08,0,0,1,.08.07c0.06,2.2,1.39,2.43,1.39,2.44h0c0.48,0,1-.08,1.29-0.11a3,3,0,0,1-.41-2.31,19,19,0,0,0,.71-4.77,12.38,12.38,0,0,0-.08-1.44A13.91,13.91,0,0,0,48.62,12a3.9,3.9,0,0,1-.28.3l-0.66.53a3.89,3.89,0,0,1-1.12.86,1.31,1.31,0,0,1-.47.21h0l-0.58,2.28a0.08,0.08,0,0,1-.15,0l0.57-2.22H45.82l-0.25,0A14.11,14.11,0,0,0,42.62,21a1,1,0,0,1,.13-0.15l0.57-.46a17.94,17.94,0,0,0,2.13-1.9,1.09,1.09,0,0,1,.27-0.26A1.64,1.64,0,0,1,46.64,18h0.19a0.08,0.08,0,0,1,.07.09,0.08,0.08,0,0,1-.09.07H46.64a1.56,1.56,0,0,0-.78.19c0,0.05,0,.11,0,0.16,0,1.78-1.69,4.12-1.83,4.42a0.68,0.68,0,0,0-.05.3,2.33,2.33,0,0,0,.05.44H44.1l0.16,0,0.53,0,0.65,0a4.39,4.39,0,0,1-.87-0.74h0a0.08,0.08,0,1,1,.12-0.1,3.3,3.3,0,0,0,1.17.86h0l0.47,0m-8.65.86,0.79-.18-0.35-.94Zm-0.05-1-0.14,1h0l0.56-1.42a0.08,0.08,0,0,1,.07,0,0.08,0.08,0,0,1,.07.05l0.43,1.15h0l-0.29-1.9,0-.2a0.46,0.46,0,0,0-.28.19,3.52,3.52,0,0,0-.3.85,1.22,1.22,0,0,1-.12.31h0M31,24.93l0.34,0h0.16A1.33,1.33,0,0,0,33,23.88a1,1,0,0,0,.07-0.19l0-.07a0.86,0.86,0,0,0,0-.16A1.13,1.13,0,0,0,33,22.94l-0.2-.61c-0.15-.48-0.34-1.07-0.36-1.24A5.45,5.45,0,0,0,32,20.2a1,1,0,0,1-.72-0.29L31.25,20,31,20.51s-0.31.75-.34,0.9h0a0.44,0.44,0,0,0,.29.12,2,2,0,0,1,.46.26,1.57,1.57,0,0,1,.26.28l0,0.06a1.56,1.56,0,0,1,.25.17l0.37,0.45a0.25,0.25,0,0,1,.07.15,0.13,0.13,0,0,1,0,.08,0.24,0.24,0,0,1-.15.07H32.2l-0.44-.28-0.05,0a2.4,2.4,0,0,1,.13.22L32,23.33a0.3,0.3,0,0,1,0,.1,0.2,0.2,0,0,1-.16.18h0a0.31,0.31,0,0,1-.2-0.12l-0.18-.31-0.06-.08,0.08,0.26s0.06,0.23.08,0.28a0.16,0.16,0,0,1,0,.05,0.21,0.21,0,0,1-.09.15l-0.07,0a0.4,0.4,0,0,1-.15,0l0,0-0.26-.54a0.57,0.57,0,0,1-.3.19,0.18,0.18,0,0,0-.11.06,0.16,0.16,0,0,1-.12.06,0.1,0.1,0,0,1-.06,0,0.19,0.19,0,0,1-.1-0.17,0.31,0.31,0,0,1,0-.14,0.69,0.69,0,0,1,.17-0.13,0.76,0.76,0,0,0-.05-0.17l0,0-0.08-.06-0.14-.1-0.27-.23a1.63,1.63,0,0,1-.35-1,1.83,1.83,0,0,1-1,.25c-0.31,0-.63,0-0.94,0a2.64,2.64,0,0,1-1.47-.58,1.82,1.82,0,0,0,0,.24,1.31,1.31,0,0,0,.38,1l0,0a9,9,0,0,0,1.86,1.47c0.72,0.35,2.32,1,2.48,1L31,24.93h0m12.06,0a1.87,1.87,0,0,0,.33.09h0.17a0.25,0.25,0,0,0,.13,0C43.8,25,44,24.92,44,24.88a0.67,0.67,0,0,0,.25-0.32h0a3.28,3.28,0,0,0-.35-0.62s0-.06,0-0.16a2.63,2.63,0,0,1-.07-0.55,0.82,0.82,0,0,1,.07-0.37c0.17-.33,1.82-2.65,1.82-4.35v0a0.89,0.89,0,0,0-.13.14,17.13,17.13,0,0,1-2.11,1.89,0.08,0.08,0,0,1,0,0,11.39,11.39,0,0,1-.33,1.91,3.42,3.42,0,0,0-.3.9h0a2.87,2.87,0,0,1-.18.76,1.81,1.81,0,0,0-.14.33,0.65,0.65,0,0,0,0,.17,0.31,0.31,0,0,0,0,0c0,0.24,0,.37.13,0.37h0.08A1.78,1.78,0,0,0,43,25h0Zm-9.95.8a1.11,1.11,0,0,0,.41-0.5c0-.12,0-0.35,0-0.57a0.92,0.92,0,0,0-.08-0.45,4.87,4.87,0,0,0-.27-0.41l0,0.11a1.48,1.48,0,0,1-1.66,1.17H31.44a3,3,0,0,1,.6.31,0.08,0.08,0,0,1,0,.11,0.08,0.08,0,0,1-.11,0,6.17,6.17,0,0,0-1-.46L30.79,25c-0.18-.06-1.77-0.69-2.5-1a8.87,8.87,0,0,1-1.88-1.47,0.36,0.36,0,0,0-.1.2,2.06,2.06,0,0,1-.15.77,4.92,4.92,0,0,0-.36,1h0c0,0.12.33,0.66,0.37,0.76h0l0,0,0.05,0.05h0l0.16,0h0.17l0.08,0a0.16,0.16,0,0,1,.07-0.18v0l0.05-.06,0-.05L26.64,25a0.28,0.28,0,0,1-.21-0.13,0.42,0.42,0,0,1-.05-0.17,0.22,0.22,0,0,1,0-.08,0.53,0.53,0,0,1,.2-0.22,3.9,3.9,0,0,1,.87-0.51h0A1.2,1.2,0,0,1,28,24a12.54,12.54,0,0,0,1.2.95,6.1,6.1,0,0,0,1.37.61,11.61,11.61,0,0,1,1.41.28,2.34,2.34,0,0,0,.61.09,0.71,0.71,0,0,0,.54-0.18m4.16,0.35L41.38,25,39.2,24.5l-0.37.09,0.1,0.66a0.08,0.08,0,0,1-.15,0l-0.23-.63-0.91.21-0.3.79a0.08,0.08,0,0,1-.15,0l0.13-.67-2.11.49ZM35,26l2.21,0.75V26.26L35,25.53V26Zm2.37,0.77,4.27-1.25V25l-4.27,1.21v0.5Zm-0.07.17-2.4-.81L34.83,26V25.42a0.08,0.08,0,0,1,0-.06l0,0,2.43-.57,0.14-1a0.29,0.29,0,0,1-.16-0.28v0l-0.06-1a0.52,0.52,0,0,1-.12-0.15l0,0a0.52,0.52,0,0,0-.25-0.07,3.77,3.77,0,0,0-.91.36,4.23,4.23,0,0,1-1,.18h0a7.33,7.33,0,0,1-1.75-1.45h0a0.08,0.08,0,0,1,.11-0.11s0.28,0.29.62,0.61c0-.35-0.08-1.2-0.08-1.65a1.57,1.57,0,0,1,0-.26A0.08,0.08,0,1,1,34,20a1.48,1.48,0,0,0,0,.23C33.95,20.76,34,22,34,22h0a3.46,3.46,0,0,0,.85.64,10.16,10.16,0,0,0,.58-2.14s0.05-.5.1-1.18h0a0.08,0.08,0,0,1,.08-0.07,0.08,0.08,0,0,1,.07.08c0,0.69-.1,1.19-0.1,1.19A10.11,10.11,0,0,1,35,22.64a4,4,0,0,0,.87-0.17,3.55,3.55,0,0,1,1-.37,0.65,0.65,0,0,1,.2,0,1.09,1.09,0,0,1,0-.16c0-.1,0-0.19,0-0.26a2.79,2.79,0,0,1,.37-0.88c0-.09.1-0.27,0.17-0.48l0,0a0.21,0.21,0,0,1-.17.11,0.24,0.24,0,0,1-.2-0.19,0.14,0.14,0,0,1,0-.08,1.16,1.16,0,0,1,.13-0.43l0-.07a0.54,0.54,0,0,1-.26.07H37a1.18,1.18,0,0,1-.38-0.23l-0.23-.2a0.25,0.25,0,0,1-.11-0.17A0.16,0.16,0,0,1,36.37,19a0.16,0.16,0,0,1,0,0,0.14,0.14,0,0,1,.15-0.12h0.1a0.69,0.69,0,0,1,.27.27l0.06,0,0.1-.07h0v0a0.65,0.65,0,0,0,0-.11h0a4.37,4.37,0,0,1,.13-0.61A0.79,0.79,0,0,1,37.35,18l0,0a1.45,1.45,0,0,1-.13-0.59,1.19,1.19,0,0,1,.29-0.76c0-.06,0-0.62,0-1,0-.06,0-0.11,0-0.15s0.2-1.05.36-1.81a0.08,0.08,0,0,1,.09-0.06,0.08,0.08,0,0,1,.06.09c-0.17.75-.35,1.63-0.36,1.78s0,0.08,0,.14c0,0.25,0,.62,0,0.82a1.93,1.93,0,0,1,.52-0.33h0a0.08,0.08,0,0,1,.1,0,0.08,0.08,0,0,1,0,.1,1.36,1.36,0,0,0-.85,1.1,1.25,1.25,0,0,0,.1.48h0l0,0,0.27-.24a0.6,0.6,0,0,1,.41-0.18,0.46,0.46,0,0,1,.2,0,1.66,1.66,0,0,1,.53-0.83A1.51,1.51,0,0,0,39,16.32H39a0.08,0.08,0,0,1-.08-0.05s-0.17-.58-0.25-0.92a0.49,0.49,0,0,1,0-.11,1.49,1.49,0,0,1,.45-0.88,0.87,0.87,0,0,0,.13-0.25v0a1.3,1.3,0,0,1-.2-0.51,2.73,2.73,0,0,1,0-.41v0h0a0.33,0.33,0,0,1-.13-0.24,0.26,0.26,0,0,1,0-.07,0.12,0.12,0,0,0,0,0,0.72,0.72,0,0,0,0-.14l-0.89-.42a0.31,0.31,0,0,1-.13.21,1,1,0,0,1-.3.21,0.64,0.64,0,0,1-.23,0H37.2l-0.06,0-0.07-.13A0.65,0.65,0,0,1,36.85,12a4.47,4.47,0,0,1-1.13-.14,1.35,1.35,0,0,1,.07.2,1.24,1.24,0,0,1,0,.31c0,0.06,0,.12,0,0.18a1.35,1.35,0,0,1-.34.77,0.76,0.76,0,0,1-.27,0,1.43,1.43,0,0,1-1-.25,0.85,0.85,0,0,0-.38-0.34,2.55,2.55,0,0,0-1,2.19,4.06,4.06,0,0,0,0,.52l0.17,0.09a1.39,1.39,0,0,1,0-.18A0.39,0.39,0,0,1,33.21,15l0,0,0.15-.15a0.84,0.84,0,0,1,.37-0.29A0.43,0.43,0,0,0,34,14.36,0.79,0.79,0,0,1,34.54,14h0.09a6.65,6.65,0,0,1,1.14.16c0.06,0,.32.23,0.47,0.31l0.07,0h0.07l0-1.4a0.08,0.08,0,0,1,.08-0.08,0.08,0.08,0,0,1,.08.08l0,1.43a0.46,0.46,0,0,1,.32.27,0.32,0.32,0,0,1,.1.23,0.36,0.36,0,0,1,0,.15,0.9,0.9,0,0,1,.36.36,0.85,0.85,0,0,1,0,.25,0.41,0.41,0,0,1-.3.42l-0.36,0a0.72,0.72,0,0,1-.25.39c0,0.1,0,.39,0,0.52a0.21,0.21,0,0,1-.24.18H36.09a0.35,0.35,0,0,1-.2.19s-0.12.08-.23,0.11a0.76,0.76,0,0,1-.2.13l-0.17,0a1.07,1.07,0,0,1-.7-0.28,2,2,0,0,1-.24-0.38h0a0.08,0.08,0,1,1,.14-0.07,2,2,0,0,0,.22.35,0.94,0.94,0,0,0,.58.23l0.12,0c0.08,0,.09-0.09.21-0.13h0l-0.09-.08a0.08,0.08,0,0,1,.1-0.12l0.1,0.09,0,0,0.08,0,0.06-.08a0.24,0.24,0,0,1-.16-0.16h0a0.06,0.06,0,0,1,0-.06,0.08,0.08,0,0,1,.13,0h0l0.05,0,0.08,0h0.1c0.07,0,.09,0,0.09,0s0-.55,0-0.55l0-.06a0.58,0.58,0,0,0,.22-0.36,0.55,0.55,0,0,0,0-.1H36.41a0.15,0.15,0,0,0-.1,0,3.3,3.3,0,0,1-.47.27l-0.2.06h0a0.83,0.83,0,0,1-.42.35l-1,.23c0.07,0.27.14,0.57,0.14,0.57a2.52,2.52,0,0,1,.07.33,0,0,0,0,1,0,0,1.5,1.5,0,0,1-1,1.49h0a1.93,1.93,0,0,1-1.18.7,4.76,4.76,0,0,1,.35.89c0,0.13.2,0.74,0.36,1.21l0.2,0.6a1.21,1.21,0,0,1,.18.58,1,1,0,0,1,0,.18h0l0,0a4.8,4.8,0,0,1,.33.49,1.07,1.07,0,0,1,.11.52,5.59,5.59,0,0,1,0,.58,1.16,1.16,0,0,1-.44.59,0.86,0.86,0,0,1-.66.24,2.55,2.55,0,0,1-.65-0.1,11.68,11.68,0,0,0-1.38-.27,6,6,0,0,1-1.42-.62,12,12,0,0,1-1.24-1A1.13,1.13,0,0,0,27.46,24h0a6.23,6.23,0,0,0-.77.48,0.4,0.4,0,0,0-.15.15v0a0.35,0.35,0,0,0,0,.11,0.18,0.18,0,0,0,.12.05l0.23,0.08A0.1,0.1,0,0,1,27,25a0.51,0.51,0,0,1-.2.29h0s0,0,0,.07a0.22,0.22,0,0,1-.2.15H26.42v0h0l-0.21,0A0.36,0.36,0,0,1,26,25.28h0v0l0-.08L25.85,25a2.35,2.35,0,0,1-.2-0.44,0.14,0.14,0,0,1,0,0A4.56,4.56,0,0,1,26,23.4a1.94,1.94,0,0,0,.13-0.71,0.52,0.52,0,0,1,.14-0.3,1.49,1.49,0,0,1-.37-1A1.92,1.92,0,0,1,26,21l0,0a1.55,1.55,0,0,1-.24-0.68,3.44,3.44,0,0,1-.45.3H25.18a0.62,0.62,0,0,1-.65-0.7,4.65,4.65,0,0,1,.07-0.59,0.93,0.93,0,0,1,.47-0.58l-0.24,0a0.81,0.81,0,0,1-.22-0.19A0.71,0.71,0,0,0,24,18.36a0.2,0.2,0,0,1-.13,0l-0.42-.1A0.76,0.76,0,0,1,23.05,18a0.21,0.21,0,0,1,0-.06h0l-0.52-.36a0.39,0.39,0,0,1-.14-0.29,0.4,0.4,0,0,1,.1-0.25,6.29,6.29,0,0,0,1-1.39,10.82,10.82,0,0,0,.23-1.84,2.09,2.09,0,0,1,.66-1.55,1.23,1.23,0,0,1-.21-0.63,0.54,0.54,0,0,1,.1-0.32L24,11.08a0.83,0.83,0,0,1-.17-0.52,0.35,0.35,0,0,1,.09-0.27c0.12-.1.48-0.53,0.47-0.52a2.23,2.23,0,0,1,1.18-1.18c0-.07,0-0.13,0-0.18a1.11,1.11,0,0,1,.67-0.68c0.19-.1.43-0.59,0.71-0.77a6.57,6.57,0,0,1,1.43-.4,3.19,3.19,0,0,1,.65-0.05,8,8,0,0,1,.84,0H30a2.06,2.06,0,0,1,.71.15A0.51,0.51,0,0,1,31,6.33l0.09,0a1,1,0,0,1,.78-0.41,0.7,0.7,0,0,1,.77-0.35,2.76,2.76,0,0,1,.52,0H33.3a1.93,1.93,0,0,1,1,.35h0.08a0.8,0.8,0,0,1,.65.48,0.51,0.51,0,0,1,.3.52,1.59,1.59,0,0,1-.05.36,0.29,0.29,0,0,1-.3.25h0a0.54,0.54,0,0,1-.17,0,0.5,0.5,0,0,0-.06.12,8.16,8.16,0,0,0-.33.91,0.2,0.2,0,0,1-.18.19,0.25,0.25,0,0,1-.12,0L34,8.75a0.45,0.45,0,0,1-.2,0,0.34,0.34,0,0,1-.14.11L33.59,9a0.2,0.2,0,0,1-.19.2h0A1.31,1.31,0,0,1,33,9l-0.34-.19a1.09,1.09,0,0,1-.16.59,0.09,0.09,0,0,1,0,0v0a2,2,0,0,1,0,.38,0.25,0.25,0,0,1-.13.12,1.62,1.62,0,0,1,.51.52h0l0.17,0,0.16,0,0.43,0.06L34,10.67,34,10.72a0.15,0.15,0,0,1,0,0,0.32,0.32,0,0,1-.24.22l-0.26,0,0.06,0.09a0.26,0.26,0,0,1,0,.14,0.37,0.37,0,0,1-.16.27,0.69,0.69,0,0,1,0,.1,0.43,0.43,0,0,1-.2.4,0.68,0.68,0,0,1-.38.12,1.2,1.2,0,0,1-.58-0.2h0l-0.74,0a1.23,1.23,0,0,1-1-.77,0.44,0.44,0,0,1-.06-0.24,1.08,1.08,0,0,1,0-.15L30,11l0,0a4.06,4.06,0,0,1,.44,1.42v0.06a4.49,4.49,0,0,0,.2,1.3,2.62,2.62,0,0,0,.38.8h0a0.7,0.7,0,0,1,.4.17,1.61,1.61,0,0,0,.36.19,0.47,0.47,0,0,1,.18.12,7.18,7.18,0,0,1,.76.25,4.28,4.28,0,0,1,0-.45,2.74,2.74,0,0,1,1-2.3,0.27,0.27,0,0,1,0-.15,2.09,2.09,0,0,1,.45-0.77,1.15,1.15,0,0,0,0-.32,10.36,10.36,0,0,1,.34-1.19,0.84,0.84,0,0,1,.29-0.31,0.59,0.59,0,0,1,.55-0.35h0.09a0.63,0.63,0,0,1,.23,0h0.11a1.93,1.93,0,0,1,.47-0.14h0a0.59,0.59,0,0,1,.38.19,0.59,0.59,0,0,1,.29.26,0.4,0.4,0,0,1,.25.3h0a0.36,0.36,0,0,1,.13.19,0.42,0.42,0,0,1,.16.17c0.08-.19.21-0.48,0.24-0.52a1.69,1.69,0,0,0,.2-0.86,2.77,2.77,0,0,0-.21-1h0a0.83,0.83,0,0,0-.26.22h0a0.46,0.46,0,0,1-.15.12,1.63,1.63,0,0,1-.38.11,1.05,1.05,0,0,1-.49.3,0.57,0.57,0,0,1-.33.1,0.77,0.77,0,0,1-.4-0.12s-0.44-.42-0.51-0.5h0a0.26,0.26,0,0,1-.26.08h0a0.38,0.38,0,0,1-.36-0.2,0.09,0.09,0,0,1,0,0,0.44,0.44,0,0,1,.28-0.22,1.62,1.62,0,0,1,.61-0.2H35.5a1,1,0,0,1,.15-0.59,1.23,1.23,0,0,1,.41-0.25A0.82,0.82,0,0,1,36,6.56a1,1,0,0,1,.25-0.64A1.22,1.22,0,0,1,37,5.34l0.43,0a1.24,1.24,0,0,1,.66-0.21,0.92,0.92,0,0,1,.46.12,3.89,3.89,0,0,1,.32-0.32,3.33,3.33,0,0,1,.65-0.21h0.13a1.31,1.31,0,0,1,.89.3,0.65,0.65,0,0,1,.54.3,3.24,3.24,0,0,1,.31.78s0,0,0,0-0.09.25-.08,0.27h0a0.25,0.25,0,0,1,0,.05,2.72,2.72,0,0,1-.06.49A3.74,3.74,0,0,1,43,8.4a2,2,0,0,1,.26.68c0,0.07,0,.1,0,0.1a1.88,1.88,0,0,1,.49.5,5,5,0,0,1,.67,0,3.81,3.81,0,0,1,.69.06h0.18a1.14,1.14,0,0,1,.4.07l0.16,0H46a1.73,1.73,0,0,1,1.09.34l0.5-.16,0.23,0A1.25,1.25,0,0,1,49,11.16a1.36,1.36,0,0,1-.3.71h0a13.56,13.56,0,0,1,.67,3.3,12.62,12.62,0,0,1,.08,1.46,19,19,0,0,1-.72,4.81,2.55,2.55,0,0,0-.07.61,2,2,0,0,0,.57,1.65,0.08,0.08,0,0,1,0,.15S47.89,24,47.14,24H47l-0.64,0c-1,0-2-.08-2.27-0.15,0,0,0,0,0,0a2.45,2.45,0,0,1,.37.68h0a0,0,0,0,1,0,0,0.77,0.77,0,0,1-.31.43c-0.09.07-.26,0.13-0.34,0.18a0.4,0.4,0,0,1-.21,0H43.39A1.58,1.58,0,0,1,43,25.13a1.77,1.77,0,0,1-.33,0h-0.1a0.45,0.45,0,0,1-.27-0.51,0.49,0.49,0,0,1,0-.06,0.79,0.79,0,0,1,0-.21A2.08,2.08,0,0,1,42.52,24a1.83,1.83,0,0,0,.09-0.27h0c-0.35-.05-0.49-0.19-0.76-1.06l-0.16-.6a2.64,2.64,0,0,1-.19-1A2.72,2.72,0,0,1,41.74,20c0.09-.23.58-1.19,0.58-1.19l0.29-.63,0-.07-0.67,0h0a3.84,3.84,0,0,1-.4,1.7l-0.68,1a0.75,0.75,0,0,0-.05.33c0,0.06,0,.12,0,0.15h0a0,0,0,0,1,0,0,1.4,1.4,0,0,1-.06.28,0.16,0.16,0,0,0,0,0,0.75,0.75,0,0,0,.16.38,1.83,1.83,0,0,1,.29.34,0.22,0.22,0,0,1,0,.08,0.56,0.56,0,0,1-.33.42,1.44,1.44,0,0,1-.56.08,4.2,4.2,0,0,1-.5,0,0.41,0.41,0,0,1-.36-0.44,0.4,0.4,0,0,1,0-.09s0.15-.46.18-0.53a1,1,0,0,0,0-.21c0-.08,0-0.16,0-0.21a0.13,0.13,0,0,1,0,0A1.63,1.63,0,0,1,40,20.76,1.06,1.06,0,0,0,40,20.25c0-.11,0-0.2,0-0.24s0-.07,0-0.14c0-.26,0-0.83,0-1.18h0c-0.55,1-1.37,2-1.38,2.07a0.7,0.7,0,0,0,0,.25,3.14,3.14,0,0,0,.11.68,1.14,1.14,0,0,1,0,.26,1.1,1.1,0,0,1-.23.66h0l0.27,1.82,0.39-.09,2.52,0.52a0.08,0.08,0,0,1,.06.07h0v0.62a0.08,0.08,0,0,1-.06.07l-4.39,1.29h0Z"/><path class="cls-1" d="M43.08,22a0.7,0.7,0,0,1-.65-0.56,0.71,0.71,0,0,1,.27-0.47,0.07,0.07,0,0,1,.09.11,0.6,0.6,0,0,0-.21.36c0,0.12.09,0.28,0.55,0.42a0.07,0.07,0,0,1,0,.14h0"/><path class="cls-1" d="M48.69,21.49a0.08,0.08,0,0,1-.07-0.09,2.24,2.24,0,0,0,0-.25c0-.78-0.19-2.65-0.19-3.91a5.43,5.43,0,0,1,.05-0.87,6,6,0,0,0,.09-1,6.19,6.19,0,0,0-.08-1.05,0.08,0.08,0,0,1,.06-0.09,0.08,0.08,0,0,1,.09.06,6.43,6.43,0,0,1,.09,1.08,6.26,6.26,0,0,1-.09,1,5.13,5.13,0,0,0-.05.84c0,1.24.19,3.11,0.19,3.91,0,0.11,0,.2,0,0.27a0.08,0.08,0,0,1-.08.07h0"/><path class="cls-1" d="M46.19,11.48a0.08,0.08,0,0,1,0-.11l0.62-.62a0.08,0.08,0,0,1,.11.11l-0.62.62-0.05,0-0.06,0"/><path class="cls-1" d="M36.83,10.84a0.08,0.08,0,0,1,0-.1,0.5,0.5,0,0,0,.2-0.17,3.39,3.39,0,0,0-.47-0.28,0.19,0.19,0,0,1-.14-0.17,0.29,0.29,0,0,1,.12-0.2,0.08,0.08,0,0,1,.11,0,0.08,0.08,0,0,1,0,.11,0.32,0.32,0,0,0-.06.08l0,0a4.08,4.08,0,0,1,.55.33l0,0.08a0.54,0.54,0,0,1-.31.31h0a0.08,0.08,0,0,1-.07,0m6.57,1.5a0.75,0.75,0,0,0-.8-0.83H42.43a0.08,0.08,0,0,1-.09-0.06,0.08,0.08,0,0,1,.06-0.09,1,1,0,0,1,.2,0,0.91,0.91,0,0,1,1,1,0.08,0.08,0,0,1-.07.08h0a0.08,0.08,0,0,1-.08-0.07M36,13.21a2.26,2.26,0,0,1-.46,0,0.08,0.08,0,0,1-.06-0.09A0.08,0.08,0,0,1,35.63,13a2.29,2.29,0,0,0,.42,0,1,1,0,0,0,1-.61,0.08,0.08,0,0,1,.1-0.05,0.08,0.08,0,0,1,.05.1,1.12,1.12,0,0,1-1.17.72h0m6.49,0.9A0.08,0.08,0,0,1,42.61,14L44,14a1.47,1.47,0,0,0,.47-0.15,0.08,0.08,0,0,1,.08.13,1.54,1.54,0,0,1-.54.17l-1.41.07h0a0.08,0.08,0,0,1-.08-0.07m-0.37.31a0.08,0.08,0,0,1,0-.1,5.45,5.45,0,0,0,.2-0.82h0a0.08,0.08,0,1,1,.15,0,5.38,5.38,0,0,1-.21.85,0.08,0.08,0,0,1-.07,0h0m-4.68,1.41a0.08,0.08,0,0,1-.05-0.1,5.37,5.37,0,0,1,1-1.91,0.08,0.08,0,0,1,.06.14,2.4,2.4,0,0,0-.54.94c-0.18.45-.32,0.87-0.32,0.87a0.08,0.08,0,0,1-.07.05h0m-8.15.42s-0.24-.76-0.41-1.58a5.46,5.46,0,0,1-.12-1.11,3.13,3.13,0,0,1,0-.32h0a0.08,0.08,0,1,1,.15,0,2.81,2.81,0,0,0,0,.3,5.27,5.27,0,0,0,.12,1.07c0.17,0.82.41,1.57,0.41,1.57a0.08,0.08,0,0,1-.05.1h0a0.08,0.08,0,0,1-.07-0.05m14.24,0.63a8.39,8.39,0,0,1-.06-1c0-.15,0-0.23,0-0.23a0.08,0.08,0,0,1,.08-0.07,0.08,0.08,0,0,1,.07.08s0,0.08,0,.22a7.94,7.94,0,0,0,.06.95,0.08,0.08,0,0,1-.07.09h0a0.08,0.08,0,0,1-.08-0.07m-12.89.67a0.08,0.08,0,0,1,0-.11A1.46,1.46,0,0,1,31.8,17h0.58a0.08,0.08,0,0,1,.08.08,0.08,0.08,0,0,1-.08.08H31.8a1.29,1.29,0,0,0-1,.36,0.08,0.08,0,0,1-.06,0l0,0m3.49,0a3.07,3.07,0,0,0-1.46-1.09,0.08,0.08,0,0,1,0-.1,0.08,0.08,0,0,1,.1,0,3.11,3.11,0,0,1,1.55,1.18,0.08,0.08,0,0,1-.05.1h0a0.08,0.08,0,0,1-.07-0.05m-1.57,4.23a0.08,0.08,0,0,1,0-.11,4.37,4.37,0,0,0,.91-1c0.14-.28.26-0.6,0.26-0.6a7.35,7.35,0,0,0,.31-1.25h0a0.08,0.08,0,1,1,.15,0,7.38,7.38,0,0,1-.32,1.27s-0.12.33-.26,0.6a4.21,4.21,0,0,1-.95,1.1l-0.05,0a0.08,0.08,0,0,1-.06,0m14.51,0.57s-0.92-1-1.76-1.9a0.08,0.08,0,0,1,.12-0.1c0.84,0.94,1.76,1.9,1.76,1.9a0.08,0.08,0,0,1,0,.11l-0.05,0-0.05,0"/><path class="cls-1" d="M34.2,17.5a0.08,0.08,0,0,1,0-.11l0.15-.13a0.08,0.08,0,0,1,.11,0,0.08,0.08,0,0,1,0,.11l-0.15.13-0.05,0a0.08,0.08,0,0,1-.06,0"/><path class="cls-1" d="M12.37,53.73a0.14,0.14,0,0,0,.15.18H13a0.16,0.16,0,0,0,.14-0.11l0.57-3.54h0l1.43,3.65a0.14,0.14,0,0,0,.13.09h0.14a0.14,0.14,0,0,0,.14-0.09l1.43-3.65h0l0.59,3.54a0.16,0.16,0,0,0,.15.11h0.52a0.14,0.14,0,0,0,.14-0.18l-1-5.33a0.16,0.16,0,0,0-.14-0.12H17.23a0.15,0.15,0,0,0-.13.09l-1.65,4h0l-1.66-4a0.16,0.16,0,0,0-.13-0.09H13.5a0.16,0.16,0,0,0-.14.12Zm7.27,0a0.16,0.16,0,0,0,.15.15h0.52a0.16,0.16,0,0,0,.15-0.15V48.52a0.16,0.16,0,0,0-.15-0.15H19.79a0.16,0.16,0,0,0-.15.15v5.25Zm2.36,0a0.15,0.15,0,0,0,.15.15H25a0.15,0.15,0,0,0,.15-0.15V53.33A0.15,0.15,0,0,0,25,53.18H22.83V48.52a0.16,0.16,0,0,0-.15-0.15H22.15a0.15,0.15,0,0,0-.15.15v5.25Zm3.74,0.15h0.5a0.2,0.2,0,0,0,.18-0.12l0.48-1.09H29.5L30,53.8a0.18,0.18,0,0,0,.18.12h0.5a0.14,0.14,0,0,0,.13-0.21l-2.42-5.33a0.18,0.18,0,0,0-.13-0.09H28.18a0.18,0.18,0,0,0-.13.09l-2.43,5.33a0.14,0.14,0,0,0,.13.21M27.22,52l1-2.17h0l1,2.17h-2Zm4.38,1.74a0.16,0.16,0,0,0,.15.15h0.5a0.15,0.15,0,0,0,.15-0.15V49.9h0L35.85,54h0.21a0.15,0.15,0,0,0,.15-0.14V48.52a0.16,0.16,0,0,0-.15-0.15H35.55a0.15,0.15,0,0,0-.15.15v3.75h0l-3.44-4h-0.2a0.15,0.15,0,0,0-.15.14v5.33Zm5.74-2.62a2.85,2.85,0,1,0,2.85-2.86,2.83,2.83,0,0,0-2.85,2.86m0.79,0a2.06,2.06,0,1,1,2.05,2.05,2.08,2.08,0,0,1-2.05-2.05m7.22,2.77h2.76a0.14,0.14,0,0,0,.15-0.14V53.43a0.15,0.15,0,0,0-.15-0.15H47.24v-4.6a0.15,0.15,0,0,0-.14-0.15H46.71L45.52,49.6a0.15,0.15,0,0,0,0,.16L45.6,50a0.12,0.12,0,0,0,.17.06l0.69-.35v3.54H45.35a0.15,0.15,0,0,0-.15.15v0.34a0.14,0.14,0,0,0,.15.14m3.8-1.44a1.86,1.86,0,0,0,3.66,0,1.59,1.59,0,0,0-1-1.32v0a1.46,1.46,0,0,0,.82-1.22,1.71,1.71,0,0,0-3.38,0,1.46,1.46,0,0,0,.82,1.23v0a1.67,1.67,0,0,0-1,1.32M51,50.78a0.87,0.87,0,0,1-.89-0.85A0.83,0.83,0,0,1,51,49.1a0.85,0.85,0,0,1,.91.83,0.87,0.87,0,0,1-.89.85m-1,1.71a1,1,0,0,1,2,0,0.91,0.91,0,0,1-1,.86,0.93,0.93,0,0,1-1-.86m3.65-.71c0,1.22.6,2.22,1.87,2.22a1.8,1.8,0,0,0,1.77-1.81,1.65,1.65,0,0,0-1.66-1.72,2.24,2.24,0,0,0-1.05.29A3.23,3.23,0,0,1,56.45,49c0.15,0,.18-0.13.14-0.23l-0.14-.32a0.14,0.14,0,0,0-.2-0.1,3.76,3.76,0,0,0-2.62,3.42m1.86,1.51a1.28,1.28,0,0,1-1.09-1.57,1.27,1.27,0,0,1,1.09-.6,1.09,1.09,0,0,1,0,2.17m2.38,0A2,2,0,0,0,59.5,54a1.59,1.59,0,0,0,1.79-1.51,1.55,1.55,0,0,0-1-1.32v0a1.46,1.46,0,0,0,.82-1.24,1.51,1.51,0,0,0-1.66-1.45,2.15,2.15,0,0,0-1.47.7,0.14,0.14,0,0,0,0,.21l0.29,0.26a0.13,0.13,0,0,0,.21,0,1.21,1.21,0,0,1,.92-0.44,0.87,0.87,0,0,1,.9.86,0.94,0.94,0,0,1-1.12.85H58.78a0.14,0.14,0,0,0-.16.17v0.34a0.15,0.15,0,0,0,.15.17h0.44a1.06,1.06,0,0,1,1.25.93,0.91,0.91,0,0,1-1,.86,1.58,1.58,0,0,1-1.08-.49,0.14,0.14,0,0,0-.21,0l-0.31.29a0.14,0.14,0,0,0,0,.19"/><path class="cls-1" d="M0.06,44.39a0.22,0.22,0,0,0,.22.22h1a0.22,0.22,0,0,0,.21-0.22V41.73H2.94a2.52,2.52,0,1,0,0-5H0.27a0.21,0.21,0,0,0-.22.21v7.5Zm1.47-4V38.07H2.84A1.13,1.13,0,0,1,4,39.17a1.17,1.17,0,0,1-1.17,1.18H1.53Zm4.8,0.31a4.07,4.07,0,1,0,4.06-4.09,4,4,0,0,0-4.06,4.09m1.47,0a2.6,2.6,0,1,1,2.59,2.59A2.62,2.62,0,0,1,7.8,40.65m7.86,3.74a0.21,0.21,0,0,0,.22.22H20a0.22,0.22,0,0,0,.22-0.22V43.46A0.22,0.22,0,0,0,20,43.25H17.13V36.89a0.22,0.22,0,0,0-.21-0.21h-1a0.21,0.21,0,0,0-.22.21v7.5Zm6.06,0a0.22,0.22,0,0,0,.22.22H23a0.22,0.22,0,0,0,.21-0.22v-7.5A0.22,0.22,0,0,0,23,36.68H21.93a0.22,0.22,0,0,0-.22.21v7.5Zm4.86,0a0.22,0.22,0,0,0,.21.22h1.05a0.22,0.22,0,0,0,.21-0.22V38h1.73A0.22,0.22,0,0,0,30,37.82V36.89a0.21,0.21,0,0,0-.22-0.21H24.84a0.21,0.21,0,0,0-.21.21v0.93a0.21,0.21,0,0,0,.21.22h1.73v6.35Zm4.72,0a0.21,0.21,0,0,0,.21.22h4.61a0.21,0.21,0,0,0,.22-0.22V43.46a0.22,0.22,0,0,0-.22-0.22H32.77v-2h2.8A0.22,0.22,0,0,0,35.78,41V40.11a0.22,0.22,0,0,0-.22-0.22h-2.8V38h3.35a0.21,0.21,0,0,0,.22-0.22V36.89a0.21,0.21,0,0,0-.22-0.21H31.51a0.21,0.21,0,0,0-.21.21v7.5Zm6.19-3.74a4.06,4.06,0,0,0,4.09,4.06,3.88,3.88,0,0,0,2.75-1.1,0.22,0.22,0,0,0,0-.31l-0.7-.72a0.21,0.21,0,0,0-.28,0,2.72,2.72,0,0,1-1.73.65,2.63,2.63,0,0,1,0-5.25,2.68,2.68,0,0,1,1.74.67,0.18,0.18,0,0,0,.28,0l0.69-.71a0.21,0.21,0,0,0,0-.32,3.83,3.83,0,0,0-2.74-1.05,4.08,4.08,0,0,0-4.09,4.09m8.34,3.74a0.22,0.22,0,0,0,.21.22h1a0.22,0.22,0,0,0,.22-0.22V39.52h0L52,44.72h0.27a0.21,0.21,0,0,0,.21-0.2V36.89a0.22,0.22,0,0,0-.21-0.21h-1a0.21,0.21,0,0,0-.21.21v4.68h0l-4.71-5H46a0.21,0.21,0,0,0-.21.2v7.62Zm8.64,0a0.22,0.22,0,0,0,.22.22h1.05A0.22,0.22,0,0,0,56,44.39v-7.5a0.22,0.22,0,0,0-.22-0.21H54.68a0.22,0.22,0,0,0-.22.21v7.5Zm3-3.74a4.06,4.06,0,0,0,4.09,4.06,3.89,3.89,0,0,0,2.75-1.1,0.22,0.22,0,0,0,0-.31l-0.7-.72a0.21,0.21,0,0,0-.28,0,2.72,2.72,0,0,1-1.73.65,2.63,2.63,0,0,1,0-5.25,2.68,2.68,0,0,1,1.74.67,0.18,0.18,0,0,0,.28,0l0.69-.71a0.21,0.21,0,0,0,0-.32,3.83,3.83,0,0,0-2.74-1.05,4.08,4.08,0,0,0-4.09,4.09m7.89,0a4.07,4.07,0,1,0,4.06-4.09,4,4,0,0,0-4.06,4.09m1.47,0a2.6,2.6,0,1,1,2.59,2.59,2.62,2.62,0,0,1-2.59-2.59"/></svg>