<svg id="Layer_1" data-name="Layer 1" xmlns="http://www.w3.org/2000/svg" viewBox="0 0 73.47 53.99"><defs><style>.cls-1{fill:#62859f;}.cls-2{fill:#231f20;}.cls-3{fill:#b4c5d5;}.cls-4{fill:#fff;}.cls-5{fill:#85b4d6;}</style></defs><title>logopoli2</title><path class="cls-1" d="M52.15,17.41a15.68,15.68,0,1,1,0-.31"/><polygon class="cls-2" points="36.46 31.32 36.47 32.77 36.74 32.77 36.73 31.32 36.46 31.32"/><rect class="cls-2" x="35.14" y="31.9" width="1.45" height="0.27" transform="matrix(0.04, -1, 1, 0.04, 2.27, 66.44)"/><polygon class="cls-2" points="37.15 31.3 37.24 32.75 37.51 32.74 37.42 31.29 37.15 31.3"/><rect class="cls-2" x="34.42" y="31.86" width="1.45" height="0.27" transform="translate(0.48 64.5) rotate(-85.48)"/><rect class="cls-2" x="37.92" y="31.24" width="0.27" height="1.45" transform="translate(-2.85 3.74) rotate(-5.42)"/><polygon class="cls-2" points="34.19 32.62 34.37 31.18 34.64 31.21 34.46 32.65 34.19 32.62"/><rect class="cls-2" x="38.65" y="31.14" width="0.27" height="1.45" transform="translate(-4.26 6.05) rotate(-8.45)"/><polygon class="cls-2" points="33.43 32.49 33.69 31.07 33.96 31.11 33.7 32.54 33.43 32.49"/><rect class="cls-2" x="39.36" y="31.02" width="0.27" height="1.45" transform="translate(-5.48 8.4) rotate(-11.36)"/><polygon class="cls-2" points="32.69 32.34 33 30.92 33.27 30.98 32.95 32.4 32.69 32.34"/><rect class="cls-2" x="40.08" y="30.86" width="0.27" height="1.45" transform="translate(-6.56 10.93) rotate(-14.32)"/><polygon class="cls-2" points="31.95 32.15 32.33 30.75 32.59 30.82 32.21 32.22 31.95 32.15"/><rect class="cls-2" x="40.78" y="30.67" width="0.27" height="1.45" transform="translate(-7.17 12.75) rotate(-16.3)"/><rect class="cls-2" x="30.84" y="31.14" width="1.45" height="0.27" transform="matrix(0.31, -0.95, 0.95, 0.31, -8.01, 51.49)"/><rect class="cls-2" x="41.48" y="30.44" width="0.27" height="1.45" transform="translate(-7.91 15.35) rotate(-19.12)"/><rect class="cls-2" x="30.16" y="30.9" width="1.45" height="0.27" transform="translate(-9.18 48.68) rotate(-68.92)"/><rect class="cls-2" x="42.16" y="30.18" width="0.27" height="1.45" transform="translate(-8.5 18.09) rotate(-22)"/><polygon class="cls-2" points="29.79 31.37 30.36 30.04 30.61 30.14 30.04 31.48 29.79 31.37"/><polygon class="cls-2" points="42.54 30.02 42.78 29.9 43.39 31.22 43.15 31.34 42.54 30.02"/><polygon class="cls-2" points="29.1 31.04 29.74 29.74 29.98 29.86 29.35 31.16 29.1 31.04"/><polygon class="cls-2" points="43.16 29.72 43.41 29.59 44.08 30.88 43.84 31.01 43.16 29.72"/><rect class="cls-2" x="28.17" y="29.98" width="1.45" height="0.27" transform="translate(-11.41 40.93) rotate(-61.2)"/><polygon class="cls-2" points="43.78 29.39 44.01 29.25 44.74 30.51 44.51 30.64 43.78 29.39"/><rect class="cls-2" x="27.54" y="29.61" width="1.45" height="0.27" transform="translate(-11.88 38.25) rotate(-58.43)"/><rect class="cls-2" x="44.75" y="28.84" width="0.27" height="1.45" transform="translate(-8.86 29.36) rotate(-33.15)"/><rect class="cls-2" x="26.92" y="29.22" width="1.45" height="0.27" transform="translate(-12.18 35.63) rotate(-55.67)"/><rect class="cls-2" x="45.35" y="28.44" width="0.27" height="1.45" transform="matrix(0.82, -0.57, 0.57, 0.82, -8.51, 31.22)"/><rect class="cls-2" x="26.33" y="28.79" width="1.45" height="0.27" transform="translate(-12.34 33.05) rotate(-52.88)"/><rect class="cls-2" x="45.94" y="28" width="0.27" height="1.45" transform="translate(-7.95 34.13) rotate(-37.66)"/><rect class="cls-2" x="25.76" y="28.34" width="1.45" height="0.27" transform="translate(-12.32 31.02) rotate(-50.83)"/><rect class="cls-2" x="46.5" y="27.54" width="0.27" height="1.45" transform="translate(-7.18 37.08) rotate(-40.52)"/><polygon class="cls-2" points="25.34 28.45 26.31 27.37 26.52 27.55 25.55 28.63 25.34 28.45"/><rect class="cls-2" x="47.05" y="27.05" width="0.27" height="1.45" transform="translate(-6.26 39.66) rotate(-43.03)"/><rect class="cls-2" x="24.67" y="27.36" width="1.45" height="0.27" transform="translate(-12.01 26.23) rotate(-45.34)"/><polygon class="cls-2" points="47.08 26.85 47.27 26.66 48.32 27.67 48.13 27.86 47.08 26.85"/><polygon class="cls-2" points="24.27 27.36 25.34 26.38 25.52 26.58 24.45 27.56 24.27 27.36"/><rect class="cls-2" x="48.06" y="26" width="0.27" height="1.45" transform="translate(-3.65 45.41) rotate(-48.83)"/><rect class="cls-2" x="23.69" y="26.29" width="1.45" height="0.27" transform="translate(-11.26 21.78) rotate(-39.85)"/><polygon class="cls-2" points="48.01 25.82 48.18 25.61 49.32 26.51 49.15 26.72 48.01 25.82"/><rect class="cls-2" x="23.23" y="25.72" width="1.45" height="0.27" transform="translate(-10.75 19.69) rotate(-37.11)"/><polygon class="cls-2" points="48.44 25.27 48.6 25.05 49.78 25.9 49.62 26.12 48.44 25.27"/><polygon class="cls-2" points="22.85 25.56 24.05 24.74 24.2 24.96 23.01 25.78 22.85 25.56"/><rect class="cls-2" x="49.39" y="24.26" width="0.27" height="1.45" transform="translate(1.25 52.31) rotate(-56.29)"/><polygon class="cls-2" points="22.44 24.91 23.68 24.15 23.82 24.38 22.58 25.14 22.44 24.91"/><rect class="cls-2" x="49.78" y="23.64" width="0.27" height="1.45" transform="translate(3.33 54.61) rotate(-59.01)"/><rect class="cls-2" x="22.03" y="23.88" width="1.45" height="0.27" transform="translate(-8.9 14.38) rotate(-29.61)"/><rect class="cls-2" x="50.13" y="23" width="0.27" height="1.45" transform="translate(5.6 56.82) rotate(-61.8)"/><rect class="cls-2" x="21.69" y="23.24" width="1.45" height="0.27" transform="translate(-8.15 12.66) rotate(-26.88)"/><rect class="cls-2" x="50.46" y="22.35" width="0.27" height="1.45" transform="translate(8.12 58.97) rotate(-64.72)"/><rect class="cls-2" x="21.38" y="22.58" width="1.45" height="0.27" transform="translate(-7.34 10.98) rotate(-24.04)"/><rect class="cls-2" x="50.76" y="21.68" width="0.27" height="1.45" transform="translate(10.7 60.84) rotate(-67.48)"/><rect class="cls-2" x="21.1" y="21.91" width="1.45" height="0.27" transform="translate(-6.5 9.41) rotate(-21.25)"/><polygon class="cls-2" points="50.43 21.61 50.52 21.36 51.89 21.85 51.8 22.1 50.43 21.61"/><rect class="cls-2" x="20.85" y="21.22" width="1.45" height="0.27" transform="translate(-5.66 7.94) rotate(-18.48)"/><rect class="cls-2" x="51.26" y="20.31" width="0.27" height="1.45" transform="translate(15.92 63.77) rotate(-72.57)"/><polygon class="cls-2" points="20.63 20.72 22.02 20.33 22.1 20.59 20.7 20.98 20.63 20.72"/><rect class="cls-2" x="51.46" y="19.61" width="0.27" height="1.45" transform="matrix(0.25, -0.97, 0.97, 0.25, 18.95, 65.17)"/><rect class="cls-2" x="20.45" y="19.81" width="1.45" height="0.27" transform="matrix(0.98, -0.22, 0.22, 0.98, -3.88, 5.16)"/><polygon class="cls-2" points="51.02 19.61 51.08 19.34 52.5 19.64 52.44 19.91 51.02 19.61"/><rect class="cls-2" x="20.3" y="19.1" width="1.45" height="0.27" transform="translate(-3.19 4.21) rotate(-10.64)"/><rect class="cls-2" x="51.76" y="18.18" width="0.27" height="1.45" transform="translate(25.21 67.26) rotate(-81.13)"/><polygon class="cls-2" points="20.18 18.48 21.61 18.28 21.65 18.55 20.21 18.75 20.18 18.48"/><polygon class="cls-2" points="51.25 18.26 51.29 17.99 52.73 18.16 52.7 18.43 51.25 18.26"/><polygon class="cls-2" points="20.1 17.71 21.54 17.59 21.57 17.86 20.12 17.99 20.1 17.71"/><rect class="cls-2" x="51.92" y="16.81" width="0.27" height="1.45" transform="translate(31.19 68.35) rotate(-86.29)"/><rect class="cls-2" x="20.06" y="16.93" width="1.45" height="0.27" transform="translate(-0.78 1) rotate(-2.71)"/><rect class="cls-2" x="51.95" y="16.13" width="0.27" height="1.45" transform="translate(33.44 68.33) rotate(-88.02)"/><polygon class="cls-2" points="20.05 16.46 21.5 16.47 21.5 16.2 20.05 16.19 20.05 16.46"/><polygon class="cls-2" points="51.37 16.02 51.37 16.3 52.82 16.27 52.82 16 51.37 16.02"/><rect class="cls-2" x="20.66" y="14.87" width="0.27" height="1.45" transform="translate(4.1 35.53) rotate(-86.95)"/><rect class="cls-2" x="51.34" y="15.28" width="1.45" height="0.27" transform="translate(-0.89 3.4) rotate(-3.7)"/><rect class="cls-2" x="20.71" y="14.15" width="0.27" height="1.45" transform="translate(4.13 34.27) rotate(-84.75)"/><polygon class="cls-2" points="51.27 14.63 52.71 14.48 52.74 14.75 51.3 14.9 51.27 14.63"/><polygon class="cls-2" points="20.19 14.18 20.23 13.91 21.67 14.12 21.63 14.38 20.19 14.18"/><polygon class="cls-2" points="51.17 13.94 52.61 13.72 52.65 13.99 51.21 14.21 51.17 13.94"/><polygon class="cls-2" points="20.31 13.42 20.36 13.16 21.79 13.43 21.74 13.7 20.31 13.42"/><polygon class="cls-2" points="51.04 13.26 52.47 12.97 52.52 13.24 51.1 13.53 51.04 13.26"/><rect class="cls-2" x="21.07" y="11.99" width="0.27" height="1.45" transform="translate(3.97 30.45) rotate(-76.77)"/><polygon class="cls-2" points="50.88 12.59 52.29 12.23 52.36 12.49 50.95 12.85 50.88 12.59"/><rect class="cls-2" x="21.26" y="11.28" width="0.27" height="1.45" transform="translate(3.9 29.21) rotate(-73.84)"/><rect class="cls-2" x="50.7" y="11.7" width="1.45" height="0.27" transform="translate(-1.2 15.68) rotate(-17.14)"/><rect class="cls-2" x="21.48" y="10.59" width="0.27" height="1.45" transform="translate(3.89 28.07) rotate(-71.03)"/><rect class="cls-2" x="50.47" y="11.01" width="1.45" height="0.27" transform="translate(-0.81 17.49) rotate(-19.24)"/><polygon class="cls-2" points="21.14 10.48 21.24 10.23 22.59 10.77 22.49 11.02 21.14 10.48"/><rect class="cls-2" x="50.21" y="10.32" width="1.45" height="0.27" transform="translate(-0.2 19.88) rotate(-22.04)"/><polygon class="cls-2" points="21.43 9.78 21.54 9.53 22.86 10.13 22.75 10.38 21.43 9.78"/><polygon class="cls-2" points="49.93 9.97 51.24 9.36 51.36 9.61 50.04 10.22 49.93 9.97"/><polygon class="cls-2" points="21.75 9.09 21.88 8.85 23.17 9.5 23.05 9.74 21.75 9.09"/><rect class="cls-2" x="49.59" y="9" width="1.45" height="0.27" transform="translate(1.47 24.28) rotate(-27.52)"/><rect class="cls-2" x="22.67" y="7.93" width="0.27" height="1.45" transform="translate(4.06 24.26) rotate(-60.53)"/><polygon class="cls-2" points="49.27 8.74 50.52 8.01 50.66 8.25 49.41 8.98 49.27 8.74"/><rect class="cls-2" x="23.05" y="7.3" width="0.27" height="1.45" transform="translate(4.02 23.35) rotate(-57.75)"/><polygon class="cls-2" points="48.9 8.16 50.12 7.37 50.27 7.59 49.05 8.38 48.9 8.16"/><polygon class="cls-2" points="22.92 7.11 23.07 6.89 24.26 7.72 24.11 7.95 22.92 7.11"/><rect class="cls-2" x="48.45" y="7.14" width="1.45" height="0.27" transform="translate(4.98 30.04) rotate(-35.67)"/><polygon class="cls-2" points="23.36 6.49 23.53 6.28 24.68 7.17 24.51 7.38 23.36 6.49"/><rect class="cls-2" x="48.01" y="6.55" width="1.45" height="0.27" transform="matrix(0.78, -0.62, 0.62, 0.78, 6.38, 31.7)"/><rect class="cls-2" x="24.35" y="5.54" width="0.27" height="1.45" transform="translate(3.79 20.77) rotate(-49.37)"/><rect class="cls-2" x="47.54" y="5.99" width="1.45" height="0.27" transform="translate(7.85 33.22) rotate(-41.07)"/><polygon class="cls-2" points="24.34 5.32 24.53 5.12 25.59 6.12 25.4 6.32 24.34 5.32"/><rect class="cls-2" x="47.05" y="5.45" width="1.45" height="0.27" transform="translate(9.41 34.6) rotate(-43.76)"/><rect class="cls-2" x="25.34" y="4.47" width="0.27" height="1.45" transform="translate(3.69 19.39) rotate(-44.62)"/><rect class="cls-2" x="46.53" y="4.93" width="1.45" height="0.27" transform="translate(11.02 35.83) rotate(-46.44)"/><rect class="cls-2" x="25.87" y="3.97" width="0.27" height="1.45" transform="translate(3.48 18.52) rotate(-41.76)"/><polygon class="cls-2" points="46.15 5.04 47.09 3.94 47.3 4.12 46.35 5.21 46.15 5.04"/><rect class="cls-2" x="26.43" y="3.5" width="0.27" height="1.45" transform="translate(3.28 17.69) rotate(-39.07)"/><rect class="cls-2" x="45.44" y="3.97" width="1.45" height="0.27" transform="translate(14.06 37.54) rotate(-51.25)"/><polygon class="cls-2" points="26.6 3.27 26.82 3.11 27.68 4.28 27.46 4.44 26.6 3.27"/><rect class="cls-2" x="44.85" y="3.53" width="1.45" height="0.27" transform="matrix(0.59, -0.81, 0.81, 0.59, 15.78, 38.35)"/><rect class="cls-2" x="27.6" y="2.63" width="0.27" height="1.45" transform="translate(2.79 15.93) rotate(-33.65)"/><rect class="cls-2" x="44.25" y="3.12" width="1.45" height="0.27" transform="translate(17.56 39.06) rotate(-56.7)"/><rect class="cls-2" x="28.22" y="2.24" width="0.27" height="1.45" transform="translate(2.51 14.99) rotate(-30.92)"/><polygon class="cls-2" points="43.87 3.43 44.61 2.18 44.84 2.32 44.1 3.57 43.87 3.43"/><rect class="cls-2" x="28.85" y="1.88" width="0.27" height="1.45" transform="translate(2.2 13.99) rotate(-28.16)"/><polygon class="cls-2" points="43.26 3.1 43.94 1.81 44.18 1.94 43.5 3.22 43.26 3.1"/><polygon class="cls-2" points="29.21 1.68 29.45 1.56 30.07 2.87 29.83 2.98 29.21 1.68"/><polygon class="cls-2" points="42.63 2.79 43.25 1.48 43.49 1.59 42.88 2.91 42.63 2.79"/><rect class="cls-2" x="30.17" y="1.24" width="0.27" height="1.45" transform="translate(1.7 12.18) rotate(-23.37)"/><rect class="cls-2" x="41.67" y="1.76" width="1.45" height="0.27" transform="translate(24.58 40.42) rotate(-67.74)"/><polygon class="cls-2" points="30.6 1.07 30.86 0.97 31.36 2.33 31.11 2.43 30.6 1.07"/><polygon class="cls-2" points="41.34 2.28 41.83 0.91 42.08 1 41.6 2.37 41.34 2.28"/><polygon class="cls-2" points="31.32 0.81 31.58 0.73 32.02 2.11 31.76 2.19 31.32 0.81"/><rect class="cls-2" x="40.29" y="1.27" width="1.45" height="0.27" transform="translate(27.96 40.32) rotate(-73.4)"/><polygon class="cls-2" points="32.06 0.59 32.32 0.52 32.69 1.92 32.43 1.99 32.06 0.59"/><rect class="cls-2" x="39.59" y="1.08" width="1.45" height="0.27" transform="translate(29.04 39.94) rotate(-75.48)"/><rect class="cls-2" x="32.95" y="0.36" width="0.27" height="1.45" transform="translate(0.51 6.99) rotate(-12.16)"/><rect class="cls-2" x="38.88" y="0.91" width="1.45" height="0.27" transform="translate(30.59 39.63) rotate(-78.36)"/><rect class="cls-2" x="33.66" y="0.22" width="0.27" height="1.45" transform="translate(0.34 5.8) rotate(-9.85)"/><rect class="cls-2" x="38.16" y="0.78" width="1.45" height="0.27" transform="translate(32.01 39.2) rotate(-81.17)"/><rect class="cls-2" x="34.39" y="0.11" width="0.27" height="1.45" transform="translate(0.16 4.23) rotate(-7.03)"/><polygon class="cls-2" points="37.95 1.53 38.11 0.08 38.38 0.12 38.22 1.56 37.95 1.53"/><rect class="cls-2" x="35.11" y="0.04" width="0.27" height="1.45" transform="translate(0.04 2.61) rotate(-4.25)"/><rect class="cls-2" x="36.71" y="0.62" width="1.45" height="0.27" transform="translate(34.21 38.06) rotate(-86.22)"/><rect class="cls-2" x="35.84" y="0.01" width="0.27" height="1.45" transform="translate(-0.01 0.8) rotate(-1.27)"/><polygon class="cls-2" points="36.56 1.45 36.83 1.46 36.85 0 36.58 0 36.56 1.45"/><path class="cls-3" d="M33.89,16.92a0.62,0.62,0,0,0,.17,0l0.38,0.51a2.09,2.09,0,0,0,.69.28,3,3,0,0,1,.25-0.22,2.41,2.41,0,0,1,.23-0.11,0.42,0.42,0,0,0,.17-0.2s0.26,0.06.27-.1,0-.55,0-0.55a0.64,0.64,0,0,0,.26-0.43l0.41,0a0.41,0.41,0,0,0,.19-0.57,1.06,1.06,0,0,0-.39-0.35,0.25,0.25,0,0,0,0-.37,0.4,0.4,0,0,0-.33-0.25l-0.15,0-0.71-.39L34.1,14.1,33,15.6l-0.39-.17v-1l0.48-1.32,0.51-.51L34.1,13l1.71,0.05A1.4,1.4,0,0,0,36.51,13l0.37-.59,0,0L37,12.49a0.65,0.65,0,0,1,.2,0,0.45,0.45,0,0,1,.23-0.24c0.21-.16,0-0.31.09-0.47a0.36,0.36,0,0,0-.1-0.31l1.36,0.41,0,0a1.78,1.78,0,0,1-.17.38,0.89,0.89,0,0,0,0,.44,0.23,0.23,0,0,0,.09.23h0.07a2.57,2.57,0,0,0,0,.51A1.2,1.2,0,0,0,39,14h0l0,0a0.8,0.8,0,0,1-.16.29,1.31,1.31,0,0,0-.4.91c0.08,0.34.25,0.91,0.25,0.91l0.16,0v0a1.83,1.83,0,0,1-.21.46,1.63,1.63,0,0,0-.54.88h0a0.43,0.43,0,0,0-.58.09l-0.28.26h0a1.26,1.26,0,0,0-.24.35,4.51,4.51,0,0,0-.13.58,0.42,0.42,0,0,1,0,.22,0.63,0.63,0,0,1-.24.13,1,1,0,0,0-.25-0.28c-0.07,0-.19,0-0.14.08s-0.29.05-.06,0.25l0.23,0.2a1.14,1.14,0,0,0,.34.21,0.43,0.43,0,0,0,.46-0.16h0a1.18,1.18,0,0,1-.07.29,0.86,0.86,0,0,0-.11.42s0.09,0.28.24,0.08L37.4,20l0.16-.25h0c-0.12.4-.25,0.81-0.32,1a2.83,2.83,0,0,0-.36.84,1.17,1.17,0,0,0,.06.61h0c-0.46-.26-0.76.11-1.25,0.27a4.08,4.08,0,0,1-1,.18V22.6a2.13,2.13,0,0,1-1-.65l-0.83-.82c0.23-1.13.74-1.2,0.74-1.2h0A17.61,17.61,0,0,0,34.09,18a1.61,1.61,0,0,1,0-.4"/><path class="cls-4" d="M34.27,14a1.15,1.15,0,0,0-.28.13,4.58,4.58,0,0,1-.46.34,5.38,5.38,0,0,0-.6.55,0.56,0.56,0,0,0,0,.33c0,0.07.26,0.67,0.28,0.72a3.12,3.12,0,0,1,.25.19,0.59,0.59,0,0,0,.37.4l-0.06.5,0.17-.13A1.69,1.69,0,0,0,34.7,17a1.52,1.52,0,0,1,.53-0.49c0.19-.09.64-0.39,0.77-0.45a1.4,1.4,0,0,1,.5.14c0.09,0,.74-0.14.46-0.52A1.51,1.51,0,0,1,36.57,15,0.52,0.52,0,0,0,36,14.55a0.8,0.8,0,0,1-.58-0.34Z"/><path class="cls-4" d="M41.72,11.34S41,11.06,40.85,11a3.33,3.33,0,0,0-1.25.28,0.91,0.91,0,0,0-.43.35c0,0.11-.4.21-0.4,0.3a4.75,4.75,0,0,1-.15.46,1.12,1.12,0,0,0,.05.51c0.07,0.07,0,.43.1,0.51a2.09,2.09,0,0,0,.44.74c0.25,0.18.6,0.26,0.65,0.35a1.12,1.12,0,0,0,.42.57A0.37,0.37,0,0,1,40.64,15a0.73,0.73,0,0,0,.78-0.05A5,5,0,0,1,42.18,14a1.44,1.44,0,0,0,.74-0.74A2.57,2.57,0,0,0,43.14,12a0.72,0.72,0,0,0-.6-0.51c-0.15,0-.82-0.1-0.82-0.1"/><path class="cls-3" d="M42.22,21.19a14.16,14.16,0,0,1,3-7.39v0a1.24,1.24,0,0,0,1-.19h0c-3.65-1-1.27-3.38-.89-3.73l0-.05a3.2,3.2,0,0,1,1.51.4c0.08,0,.51-0.26.68-0.26a2.58,2.58,0,0,1,1.06.82,0.93,0.93,0,0,1,0,.64,1.81,1.81,0,0,0-.28.47A6.64,6.64,0,0,1,48.84,14a16.36,16.36,0,0,1,.21,1.88c0,0.74,0,1.54,0,2.11,0,1-.75,2.76-0.75,3.81,0,0.32.16,1.69,0.64,1.81,0,0-1.59.17-2.27,0.15l-0.64,0a21,21,0,0,1-2.31-.16h0a1.55,1.55,0,0,1,0-.87c0.16-.32,1.93-2.78,1.81-4.53v0h0a1,1,0,0,0-.25.24,17.55,17.55,0,0,1-2.13,1.91l-0.57.45a3.43,3.43,0,0,0-.28.38"/><path class="cls-4" d="M42.15,24.26a1.94,1.94,0,0,1,.14-0.34,2.8,2.8,0,0,0,.17-0.72,3.32,3.32,0,0,1,.3-0.93,11.31,11.31,0,0,0,.33-1.87l0,0a17.51,17.51,0,0,0,2.13-1.91,1,1,0,0,1,.25-0.24h0v0c0.12,1.75-1.65,4.21-1.81,4.53a1.55,1.55,0,0,0,0,.87l0,0.15a2.59,2.59,0,0,1,.35.64,0.68,0.68,0,0,1-.28.38c-0.07.06-.24,0.12-0.33,0.17a0.64,0.64,0,0,1-.34,0,1.8,1.8,0,0,1-.35-0.09,1.53,1.53,0,0,1-.42,0c-0.16,0-.18-0.21-0.2-0.44a0.68,0.68,0,0,1,0-.24"/><path class="cls-3" d="M40.54,10.93a1.83,1.83,0,0,1,.64-0.49,1.2,1.2,0,0,1,.3-0.09,4.19,4.19,0,0,1,2-.61,3.72,3.72,0,0,1,1.09,0V9.82h0a3.42,3.42,0,0,0-1.44,2h0a0.41,0.41,0,0,0-.4-0.36,12.34,12.34,0,0,1-1.57-.32v0L40.82,11a0.68,0.68,0,0,0-.27,0V10.93h0Z"/><path class="cls-3" d="M43.11,11.8a3.42,3.42,0,0,1,1.44-2,1.17,1.17,0,0,1,.63-0.08l0.13,0,0,0.05c-0.37.35-2.76,2.75,0.89,3.73h0a1.24,1.24,0,0,1-1,.19,4.4,4.4,0,0,1-2-1.49h0a2.64,2.64,0,0,0-.07-0.48h0Z"/><path class="cls-3" d="M39.86,18.24A2.61,2.61,0,0,0,40.19,17l0.48-1-0.08,0A1.12,1.12,0,0,0,41,15.65c0.19-.21.71-1.08,0.71-1.08h0l0.15-.24s0-.1.21-0.34l0.05-.06,0.09-.07,0.06-.06a0.63,0.63,0,0,1,.43.24c0,0.14-.23.93-0.26,1.1a1,1,0,0,0,0,.53,3.21,3.21,0,0,1,.18.95,10,10,0,0,1-.2,1.16l0,0.16,0,0s-0.31,0-.83,0h0a13.45,13.45,0,0,0-1.69.27Z"/><path class="cls-3" d="M41.35,21.62a2.55,2.55,0,0,1,.44-2.19,3.61,3.61,0,0,1,.33-0.57l0.27-.74,0-.18,0-.16a9.93,9.93,0,0,0,.2-1.16,3.2,3.2,0,0,0-.18-0.95,1,1,0,0,1,0-.53c0-.17.23-1,0.25-1.1A0.85,0.85,0,0,0,42.12,14l0-.07,0-.1,0.09-.25,0.33-.18a1.14,1.14,0,0,0,.62-0.84s0-.1,0-0.25h0a4.4,4.4,0,0,0,2,1.49v0a14.16,14.16,0,0,0-3,7.39,3.43,3.43,0,0,1,.28-0.38l0.57-.45,0,0a11.28,11.28,0,0,1-.33,1.87,3.31,3.31,0,0,0-.3.93,2.8,2.8,0,0,1-.17.72,1.94,1.94,0,0,0-.14.34l0.26-.76a0.46,0.46,0,0,1-.62-0.43Z"/><polygon class="cls-4" points="41.4 25.42 37.01 26.71 36.99 26.34 36.99 26.34 37.01 26.06 41.42 24.81 41.4 25.42"/><path class="cls-3" d="M38.45,15.25a1.31,1.31,0,0,1,.4-0.91A0.81,0.81,0,0,0,39,14.06l0,0h0a0.69,0.69,0,0,0,.2.17l0.26,0.21,0.2,0a0.29,0.29,0,0,1,.2.16c0.05,0.11.17,0.54,0.42,0.47l0.17-.16L40.8,15s0.44,0.22.92-.46h0s-0.53.87-.71,1.08a1.12,1.12,0,0,1-.42.25L40.36,16l-1.51.18-0.16,0s-0.17-.58-0.25-0.91"/><path class="cls-3" d="M40.35,9h0l0.11-.11a0.92,0.92,0,0,0,0-.53,0.34,0.34,0,0,1,.12-0.21,0.7,0.7,0,0,0,.09-0.38,0.5,0.5,0,0,1,.14-0.17,1.11,1.11,0,0,0,0-.44,0.48,0.48,0,0,1,0-.23l0.06,0A3.62,3.62,0,0,1,42.6,8.4a2,2,0,0,1,.25.64v0.1h0l0,0a2.93,2.93,0,0,1,.58.52l-0.17,0a4.93,4.93,0,0,0-1.77.61,1.2,1.2,0,0,0-.3.09v0A1.45,1.45,0,0,1,40.35,9h0Z"/><path class="cls-4" d="M39.57,22.8a0.35,0.35,0,0,1-.29-0.42s0.15-.46.17-0.53a1.6,1.6,0,0,0,0-.46,1.48,1.48,0,0,1,.27-0.69,1.61,1.61,0,0,0,.1-0.8c0-.12,0-1.35,0-1.35h0l0.16-.3h0A12.77,12.77,0,0,1,41.58,18v0.07a3.78,3.78,0,0,1-.38,1.65l-0.68,1a1.18,1.18,0,0,0-.06.53,1.33,1.33,0,0,1-.05.27,0.69,0.69,0,0,0,.17.48,1.94,1.94,0,0,1,.28.32,0.41,0.41,0,0,1-.28.4,2.37,2.37,0,0,1-1,0"/><path class="cls-4" d="M37.7,6.82a6.07,6.07,0,0,1,.19-0.73,2.9,2.9,0,0,1,.22-0.6,1.48,1.48,0,0,1,.16-0.21,4.07,4.07,0,0,1,.35-0.36,3.64,3.64,0,0,1,.61-0.19,1.33,1.33,0,0,1,1,.29,0.62,0.62,0,0,1,.5.26A2.85,2.85,0,0,1,41,6a1.57,1.57,0,0,0-.08.3,2.12,2.12,0,0,1-.06.53v0a0.48,0.48,0,0,0,0,.23,1.13,1.13,0,0,1,0,.44,0.51,0.51,0,0,0-.14.17,0.69,0.69,0,0,1-.09.38,0.34,0.34,0,0,0-.12.21,0.92,0.92,0,0,1,0,.53L40.35,9c-0.06,0-.11.06-0.13,0s-0.11.11-.11,0.1l0,0.1a0.32,0.32,0,0,1-.08.22,0.81,0.81,0,0,1-.14-0.28L40,8.58,40,7.88v0l0.55-.9a1,1,0,0,0-.12-0.45,1.17,1.17,0,0,1-.27-0.36c0-.08-0.07-0.34-0.07-0.34s-0.41.33-.5,0.38a1.3,1.3,0,0,1-.47,0,0.39,0.39,0,0,0-.31.14c0,0.09-.2.38-0.25,0.44a1.51,1.51,0,0,0-.09.5,0.35,0.35,0,0,1-.07.19,0.78,0.78,0,0,0-.09.15,0.79,0.79,0,0,0,0,.36,1.79,1.79,0,0,1,0,.5,0.19,0.19,0,0,1-.19.08,1.11,1.11,0,0,0-.2.1s0-.22,0-0.27a3.35,3.35,0,0,0-.17-0.48,8.62,8.62,0,0,1-.14-1"/><path class="cls-4" d="M37.3,24.67l-0.16,0L37.3,23.6h0a1.29,1.29,0,0,0,.13-0.32,3.47,3.47,0,0,1,.31-0.87,0.58,0.58,0,0,1,.41-0.24l0,0.28,0.28,2-0.05.14-0.53-1.37Z"/><path class="cls-4" d="M38.5,7.24a1.51,1.51,0,0,1,.09-0.5c0-.06.2-0.34,0.25-0.44a0.39,0.39,0,0,1,.31-0.14,1.31,1.31,0,0,0,.47,0c0.09-.05.5-0.38,0.5-0.38s0.06,0.26.07,0.34a1.15,1.15,0,0,0,.27.36,1,1,0,0,1,.12.45L40,7.85v0h0a1.73,1.73,0,0,1-1,.32,1.23,1.23,0,0,1-.54-0.76h0a0.35,0.35,0,0,0,.07-0.19"/><polygon class="cls-4" points="34.66 25.28 37.14 24.7 37.3 24.66 38.2 24.45 38.35 24.42 38.9 24.29 41.42 24.81 37.01 26.06 34.66 25.28"/><path class="cls-4" d="M36.88,21.59a2.81,2.81,0,0,1,.36-0.84c0.07-.15.2-0.56,0.32-1s0.28-.94.28-0.94a6.64,6.64,0,0,1,.28-1.32,1.63,1.63,0,0,1,.54-0.88,1.81,1.81,0,0,0,.21-0.46v0L40.36,16l0.23-.07,0.08,0-0.48,1a2.62,2.62,0,0,1-.33,1.28l-0.16.32c-0.54,1-1.34,1.95-1.38,2.07a1.58,1.58,0,0,0,.07,1,1,1,0,0,1-.18.85h0l0-.29a0.58,0.58,0,0,0-.41.24,3.48,3.48,0,0,0-.31.87,1.27,1.27,0,0,1-.13.32h0c-0.17,0-.15-0.23-0.15-0.23l-0.06-1a0.46,0.46,0,0,1-.13-0.14,1.16,1.16,0,0,1-.06-0.61"/><polyline class="cls-5" points="37.24 17.86 37.24 17.86 37.24 17.86 37.24 17.86"/><path class="cls-5" d="M37.24,17.86h0Z"/><path class="cls-4" d="M36.13,19.2c-0.23-.2.1-0.15,0.06-0.25s0.07-.09.14-0.08a1,1,0,0,1,.25.28A0.63,0.63,0,0,0,36.83,19a0.41,0.41,0,0,0,0-.22A4.66,4.66,0,0,1,37,18.22a1.32,1.32,0,0,1,.24-0.35h0l0.28-.26a0.43,0.43,0,0,1,.58-0.09h0a6.66,6.66,0,0,0-.28,1.32s-0.13.47-.27,0.94h0L37.4,20l-0.15.2c-0.15.2-.24-0.08-0.24-0.08a0.86,0.86,0,0,1,.11-0.42,1.17,1.17,0,0,0,.07-0.3h0a0.43,0.43,0,0,1-.46.16,1.14,1.14,0,0,1-.34-0.21Z"/><path class="cls-5" d="M37.24,17.87h0Z"/><path class="cls-3" d="M37.42,11.51s0-.13,0-0.19a0.49,0.49,0,0,0-.18-0.2,0.92,0.92,0,0,0,0-.17,1.49,1.49,0,0,1-.08-0.29V10.59h0l0.37-.6a2.17,2.17,0,0,0,0-1.95c-0.08-.19-0.37.16-0.38,0.18h0a0.49,0.49,0,0,0,0-.49A2.15,2.15,0,0,0,36.09,7a0.35,0.35,0,0,0-.2,0V6.86A0.81,0.81,0,0,1,36,6a1.14,1.14,0,0,1,.7-0.56l0.46-.06a1,1,0,0,1,1.08-.05h0a1.42,1.42,0,0,0-.16.21,2.87,2.87,0,0,0-.22.6,5.94,5.94,0,0,0-.19.73,8.64,8.64,0,0,0,.14,1,3.52,3.52,0,0,1,.17.48c0,0.05,0,.27,0,0.27a1.13,1.13,0,0,1,.2-0.1,0.18,0.18,0,0,0,.19-0.08,1.77,1.77,0,0,0,0-.5,0.79,0.79,0,0,1,0-.36,0.74,0.74,0,0,1,.09-0.15h0A1.23,1.23,0,0,0,39,8.2a1.73,1.73,0,0,0,1-.32h0L40,8.58l-0.1.57a0.82,0.82,0,0,0,.14.28,0.41,0.41,0,0,0,.1-0.25l0-.11S40.19,9,40.22,9s0.07,0,.13,0h0a1.45,1.45,0,0,0,.81,1.41v0a1.82,1.82,0,0,0-.64.49V11l-0.23,0a3.38,3.38,0,0,1-.43.13c-0.08,0-.27.16-0.49,0.22a1.72,1.72,0,0,1-.39.4,0.3,0.3,0,0,0-.2.15"/><path class="cls-4" d="M34.92,10.31a1,1,0,0,1,.31-0.56A1.1,1.1,0,0,1,36,9.66l0.21,0.19a1.68,1.68,0,0,1,.29.16,0.3,0.3,0,0,1,.11.2,1.92,1.92,0,0,0,.14.23,2.46,2.46,0,0,1,.13.38c0,0.05.05,0.3,0.05,0.34a0.66,0.66,0,0,1,0,.42c-0.11.09,0,.82-0.09,0.87a1.26,1.26,0,0,1-.44.57,2.49,2.49,0,0,1-1.08,0l0.1-1a1.31,1.31,0,0,0-.07-0.21,1.45,1.45,0,0,1-.13-0.59,0.77,0.77,0,0,0-.15-0.42,0.54,0.54,0,0,1-.17-0.44"/><path class="cls-4" d="M34.21,17.32L34,17.38,33.85,17a1.92,1.92,0,0,1,.65-0.08,0.81,0.81,0,0,0,.24-0.06A0.43,0.43,0,0,1,35,16.69a0.91,0.91,0,0,1,.18-0.16,0.34,0.34,0,0,0,.18-0.15,0.52,0.52,0,0,1,.24-0.1A3.56,3.56,0,0,0,36,16a0.27,0.27,0,0,1,.24,0,0.23,0.23,0,0,1,.1.17,0.63,0.63,0,0,1-.26.43s0,0.39,0,.55-0.27.1-.27,0.1a0.42,0.42,0,0,1-.17.2c-0.08,0-.16.1-0.23,0.11a1.47,1.47,0,0,0-.28.16,1.41,1.41,0,0,1-.56-0.13Z"/><path class="cls-4" d="M34.68,8.3a0.3,0.3,0,0,1-.29-0.16A0.48,0.48,0,0,1,34.62,8a1.56,1.56,0,0,1,.57-0.19h0.13a0.72,0.72,0,0,1,.53.09L36.08,8h0L36.07,7.9a0.14,0.14,0,0,1,0-.15,0.15,0.15,0,0,1,.18,0,1.64,1.64,0,0,0,.17.17c0.09,0.08.08,0,.16,0.35a0.52,0.52,0,0,1,0,.18,0.62,0.62,0,0,1-.47.3,0.73,0.73,0,0,1-.63,0S35,8.28,35,8.24s-0.08,0-.12,0,0,0.05-.2.06"/><path class="cls-3" d="M35.32,7.75a1.14,1.14,0,0,1,.13-0.57,1,1,0,0,1,.44-0.25,0.36,0.36,0,0,1,.2,0,2.15,2.15,0,0,1,1.05.77,0.49,0.49,0,0,1,0,.49,0.37,0.37,0,0,1-.14.12,1.88,1.88,0,0,1-.39.11h0a0.52,0.52,0,0,0,0-.18C36.51,7.92,36.53,8,36.43,7.91a1.64,1.64,0,0,1-.17-0.17,0.15,0.15,0,0,0-.18,0,0.14,0.14,0,0,0,0,.15L36.13,8h0l-0.23-.14a0.72,0.72,0,0,0-.53-0.09v0h0Z"/><polygon class="cls-4" points="34.66 25.28 37.01 26.06 36.99 26.34 36.99 26.44 37.01 26.49 36.99 26.69 34.64 25.91 34.66 25.28 34.66 25.28"/><path class="cls-4" d="M34.7,13.09A2,2,0,0,1,34.06,13a1,1,0,0,0-.45-0.4c-0.31-.22,0-0.5.1-0.52s0-.07,0-0.07a0.57,0.57,0,0,1,.18-0.23c0.11-.1.06-0.09,0.09-0.42a0.47,0.47,0,0,1,.17-0.4,0.94,0.94,0,0,1,.11-0.65,0.7,0.7,0,0,1,.34-0.43,0.43,0.43,0,0,1,.56-0.24l0.31-.13a0.88,0.88,0,0,0,.24,0,0.64,0.64,0,0,1,.31,0,0.27,0.27,0,0,1,.23.14,0.29,0.29,0,0,1,.23.12c0,0.11.27,0.06,0.24,0.3a0.88,0.88,0,0,1,.15.31,1.5,1.5,0,0,1,.22.26,0.49,0.49,0,0,1,0,.07,1.51,1.51,0,0,0,.08.29,0.89,0.89,0,0,1,0,.17,0.49,0.49,0,0,1,.18.2c0,0.06,0,.19,0,0.19a0.35,0.35,0,0,1,.1.31c-0.05.16,0.12,0.32-.09,0.47a0.45,0.45,0,0,0-.23.24A1.48,1.48,0,0,0,37,12.45l-0.12-.05a0.33,0.33,0,0,1-.11-0.11,0.54,0.54,0,0,1-.07-0.45l0-.06A1.76,1.76,0,0,0,37,11.56a0.65,0.65,0,0,0,0-.42s0-.28-0.05-0.33a2.06,2.06,0,0,0-.09-0.3l0-.08a1.83,1.83,0,0,1-.14-0.23,0.31,0.31,0,0,0-.11-0.2,1.71,1.71,0,0,0-.29-0.16L36,9.66a1.09,1.09,0,0,0-.8.09,1,1,0,0,0-.31.56,0.54,0.54,0,0,0,.17.44,0.77,0.77,0,0,1,.15.42,1.48,1.48,0,0,0,.13.59,1.39,1.39,0,0,1,.07.21,0.88,0.88,0,0,1,0,.46,1.38,1.38,0,0,0-.07.44,0.51,0.51,0,0,1-.22.24,1,1,0,0,1-.48,0"/><path class="cls-4" d="M30.57,6.77a0.61,0.61,0,0,1,.33-0.46c0-.26.33-0.24,0.33-0.24,0-.21.44-0.15,0.44-0.15l0.2-.26a3,3,0,0,1,1,0c0.57-.09.6,0.14,0.6,0.14A0.81,0.81,0,0,1,34,6a0.24,0.24,0,0,1,.28.06,0.52,0.52,0,0,1,.4.39c0.43,0.13.23,0.4,0.23,0.4,0.25,0.23,0,.34,0,0.39s0,0.16-.23.19a0.46,0.46,0,0,1-.24-0.05C34.29,7.29,34.11,7.14,34,7.11S33.89,7,33.89,7s-0.08.07-.13-0.07H33.69a0.54,0.54,0,0,1-.08.36,0.24,0.24,0,0,1-.22.1,1.31,1.31,0,0,0-.33.21,0.47,0.47,0,0,1-.2.08c-0.05,0-.17.25-0.3,0.16s-0.1-.12-0.18,0a0.4,0.4,0,0,1-.41.06,0.77,0.77,0,0,1-.37-0.21,1.27,1.27,0,0,0-.35-0.22l0,0A1.34,1.34,0,0,0,30.81,7a1.54,1.54,0,0,0-.25-0.16v0h0Z"/><path class="cls-4" d="M31.71,11.16a1,1,0,0,1,.15-0.52,0.62,0.62,0,0,1,.37-0.19l0.26,0.07,0.25,0.07,0.15,0,0.43,0.06,0.4,0.07c0,0.1-.17.17-0.17,0.17l-0.37.06,0.12,0.19a0.27,0.27,0,0,1-.14.34,0.39,0.39,0,0,1-.15.46,0.83,0.83,0,0,1-.93-0.11l-0.17-.09c-0.25-.1-0.18-0.33-0.19-0.56"/><path class="cls-3" d="M31.86,20h0a1.79,1.79,0,0,0,.83-0.29,1.62,1.62,0,0,0,.41-0.44h0l0,0a1.39,1.39,0,0,0,1-1.38L34,18.36S33.85,19,33.87,19a4.81,4.81,0,0,1-.27.92c-0.06.17-.33,0.79-0.38,0.88l-0.76.79-0.07-.07A2.27,2.27,0,0,1,32.23,21a5.58,5.58,0,0,0-.37-0.92v0Z"/><path class="cls-3" d="M30.35,11.07a0.62,0.62,0,0,1,0-.41l0-.05,0.47-.24s0.7-.25,1.09-0.42h0L32,10a1.92,1.92,0,0,1,.51.5h0v0l-0.26-.07a1.2,1.2,0,0,0-.37.19,0.88,0.88,0,0,0-.15.51c0,0.23-.06.46,0.19,0.56l0.17,0.09v0l-0.74,0a1.16,1.16,0,0,1-1-.73"/><path class="cls-4" d="M31,8.9a1.93,1.93,0,0,0,.25-0.51,1.29,1.29,0,0,0-.07-1l0,0a1.25,1.25,0,0,1,.35.22,0.77,0.77,0,0,0,.37.21,0.4,0.4,0,0,0,.41-0.06c0.09-.08.18,0,0.18,0s0.25-.15.3-0.15a0.48,0.48,0,0,0,.2-0.08,1.34,1.34,0,0,1,.33-0.21,0.23,0.23,0,0,0,.22-0.1,0.54,0.54,0,0,0,.08-0.36l0.08-.05a0.25,0.25,0,0,0,.15.14S33.86,7.07,34,7.11s0.28,0.17.46,0.25v0a0.52,0.52,0,0,0-.09.16,7.91,7.91,0,0,0-.33.92c-0.05.26-.23,0.06-0.23,0.06a0.79,0.79,0,0,1-.12.12,0.56,0.56,0,0,1-.19,0,0.45,0.45,0,0,1-.11.11,0.22,0.22,0,0,0-.11.13,0.11,0.11,0,0,1-.11.12,1.16,1.16,0,0,1-.41-0.14L32.3,8.67l-0.06,0-1.15.3Z"/><path class="cls-3" d="M27.06,17.81a0.92,0.92,0,0,1-.1-0.7,1,1,0,0,1,.9-0.61c0.19,0,1-.21,1-0.21L29.57,16h0L29.63,16c0.08,0.06.17,0.17,0.25,0.24a0.47,0.47,0,0,0,.31,0,0.69,0.69,0,0,0,.23-0.12A0.27,0.27,0,0,0,30.47,16a2.88,2.88,0,0,1,.06-0.34c0-.05.07-0.21,0.08-0.24h0a0.7,0.7,0,0,1,.23-0.13A0.47,0.47,0,0,1,31,15.17a0.58,0.58,0,0,1,.17.07,0.83,0.83,0,0,0,.45,0c0.1,0,.12-0.07.1-0.1h0a5.11,5.11,0,0,1,1.21.48h0v0a0.67,0.67,0,0,1,.35.48,0.31,0.31,0,0,0,.11.15c0.06,0.06,0,.07.07,0.14s0.22,0.21.29,0.31S33.85,17,33.88,17h0c0.07,0.27.13,0.6,0.13,0.6l0.07,0.31h0a1.39,1.39,0,0,1-1,1.38l0,0h0a1.63,1.63,0,0,1-.41.44,1.79,1.79,0,0,1-.83.29h0a0.89,0.89,0,0,1-.73-0.28l-0.09,0A3.07,3.07,0,0,0,31.33,19a0.69,0.69,0,0,0,.57-0.34c0-.27.21-0.67-1.39-1.25a2.32,2.32,0,0,0-.71.81,4.81,4.81,0,0,0-.33.88l-0.06,0a11.35,11.35,0,0,1-1.48-1.38h0a6,6,0,0,0-.56.32v0a1.92,1.92,0,0,1-.29-0.19"/><path class="cls-4" d="M29.34,20.22a4,4,0,0,1,.13-1.13,5,5,0,0,1,.33-0.88,2.32,2.32,0,0,1,.71-0.81c1.61,0.59,1.41,1,1.39,1.25a0.69,0.69,0,0,1-.57.34,3.11,3.11,0,0,1-.28.73L31,19.91l-0.23.47a9.33,9.33,0,0,0-.34.9c0,0.15.24,0.19,0.34,0.21a2,2,0,0,1,.42.24,1.85,1.85,0,0,1,.23.24,0.35,0.35,0,0,0,.09.1,1.66,1.66,0,0,1,.22.14l0.37,0.45a0.13,0.13,0,0,1,0,.13,0.17,0.17,0,0,1-.1,0l-0.45-.29-0.33-.13a1.65,1.65,0,0,1,.31.43l0.16,0.38a0.12,0.12,0,0,1-.08.18,0.2,0.2,0,0,1-.16-0.08L31.27,23l-0.36-.48L31,22.76,31.06,23l0.09,0.32s0.06,0.22.08,0.28a0.1,0.1,0,0,1-.05.11,0.21,0.21,0,0,1-.14,0l-0.36-.76v0.17a0.42,0.42,0,0,1-.27.2,0.26,0.26,0,0,0-.15.09,0.06,0.06,0,0,1-.08,0,0.15,0.15,0,0,1,0-.2s0.14-.09.17-0.13a0.43,0.43,0,0,0-.05-0.24A1.7,1.7,0,0,0,30,22.58l-0.27-.23a1.8,1.8,0,0,1-.33-1.12c0-.33,0-0.68,0-1"/><path class="cls-3" d="M29.67,10.91c0-.12,0-0.13,0-0.13a2.71,2.71,0,0,0,.49-1.08,0.62,0.62,0,0,1,.42-0.38A1.39,1.39,0,0,0,31,8.9l0.08,0,1.15-.3,0.06,0v0a1,1,0,0,1-.18.71h0l0,0a2.25,2.25,0,0,1,0,.4,0.64,0.64,0,0,1-.25.14c-0.39.17-1.09,0.42-1.09,0.42l-0.47.24-0.6.3h0Z"/><path class="cls-4" d="M27.1,8.78c-0.37-.47-0.09-0.88.44-1.47a4.31,4.31,0,0,1,2.23-.69h0a1.91,1.91,0,0,1,.78.19,1.55,1.55,0,0,1,.26.16,1.36,1.36,0,0,1,.39.47,1.29,1.29,0,0,1,.07,1A1.88,1.88,0,0,1,31,8.9a1.41,1.41,0,0,1-.42.42,0.61,0.61,0,0,0-.42.38,2.71,2.71,0,0,1-.49,1.08s0,0,0,.13a0.91,0.91,0,0,0,0,.13,4,4,0,0,1,.44,1.4,4.52,4.52,0,0,0,.2,1.36,1.9,1.9,0,0,0,.45.86,0.62,0.62,0,0,1,.35.14,1.57,1.57,0,0,0,.39.21,0.33,0.33,0,0,1,.16.11s0,0.07-.1.1a0.83,0.83,0,0,1-.45,0A0.59,0.59,0,0,0,31,15.17a0.5,0.5,0,0,0-.13.08,0.7,0.7,0,0,0-.23.13h0s-0.07.19-.08,0.24a3,3,0,0,0-.06.34,0.27,0.27,0,0,1-.06.22,0.7,0.7,0,0,1-.23.12,0.47,0.47,0,0,1-.3,0c-0.08-.06-0.17-0.18-0.25-0.24L29.58,16a0.57,0.57,0,0,1-.1-0.44,2.65,2.65,0,0,1,.2-0.52c0-.06-0.28-0.81-0.28-0.81S29,13.6,28.88,13.45a3,3,0,0,1-.47-1,4.61,4.61,0,0,1-.13-0.78,1.5,1.5,0,0,1,0-.51c0-.07,0-0.15,0-0.24a11.73,11.73,0,0,0,.05-1.23s0-.09,0-0.16H28.27a1.26,1.26,0,0,1-1.16-.73"/><path class="cls-3" d="M25.42,17.69a2.59,2.59,0,0,1,.08-0.5,10.75,10.75,0,0,0,.21-1.09c0-.27-0.22-1.45-0.22-2.24A2,2,0,0,1,26,12.57v0a12.94,12.94,0,0,0,2.42-.11h0a3.05,3.05,0,0,0,.47,1c0.07,0.15.51,0.74,0.51,0.74s0.29,0.75.28,0.81a2.63,2.63,0,0,0-.2.52,0.58,0.58,0,0,0,.1.44h0l-0.75.32s-0.77.19-1,.21a1,1,0,0,0-.9.61,0.91,0.91,0,0,0,.1.7,1.89,1.89,0,0,0,.29.19v0a1.67,1.67,0,0,0-.33.26,1.71,1.71,0,0,0-.4.69h0A4.4,4.4,0,0,0,26,18.61l-0.32,0v0h0a1.78,1.78,0,0,1-.26-0.83"/><path class="cls-3" d="M24.25,12.22c-0.44-.67-0.16-0.94-0.12-1a0.88,0.88,0,0,0,.7.3,2.26,2.26,0,0,1,1.26-.07,1,1,0,0,0,1.16.31c0.35-.23.68-0.47,0.84-0.58l0.1-.07h0a1.52,1.52,0,0,0,0,.51,4.64,4.64,0,0,0,.13.78h0a12.93,12.93,0,0,1-2.42.11,7.48,7.48,0,0,1-1-.11,4.84,4.84,0,0,1-.51-0.12h0l-0.25-.09"/><path class="cls-3" d="M23.87,11a0.68,0.68,0,0,1-.08-0.67c0.13-.11.48-0.54,0.48-0.54a2.09,2.09,0,0,1,1.13-1.14h0c-0.07.4-.12,0.93-0.12,1a1.72,1.72,0,0,0,.48.72,2,2,0,0,0,.65.25c0.14,0,.81.28,0.93,0.32l0.7,0.23,0,0c-0.16.11-.49,0.35-0.84,0.58a1,1,0,0,1-1.16-.31,2.26,2.26,0,0,0-1.26.07,0.88,0.88,0,0,1-.7-0.3C24,11.13,23.92,11,23.87,11"/><path class="cls-3" d="M25,20.4c-0.82,0-.56-0.87-0.53-1.2a1.11,1.11,0,0,1,.77-0.66,2.18,2.18,0,0,1,.43,0l0.32,0a4.42,4.42,0,0,1,.59.35h0a0.62,0.62,0,0,0,0,.09,0.68,0.68,0,0,0,.29.51v0c-0.23,0-.5,0-0.57,0a2.35,2.35,0,0,0-.82.47l-0.05.05a3.16,3.16,0,0,1-.46.31"/><path class="cls-4" d="M25.9,25.12a7.54,7.54,0,0,1-.37-0.76,4.12,4.12,0,0,1,.36-1.05A2,2,0,0,0,26,22.57a0.46,0.46,0,0,1,.14-0.28l0,0,0,0a9.06,9.06,0,0,0,1.87,1.47c0.72,0.35,2.31,1,2.48,1l0.19,0.07h0l0.34,0a1.43,1.43,0,0,0,1.74-1.11,1.2,1.2,0,0,0,.08-0.2l0.05,0a4.63,4.63,0,0,1,.33.48,2.1,2.1,0,0,1,0,1.06,1.12,1.12,0,0,1-.42.54,1.31,1.31,0,0,1-1.22.12,11.56,11.56,0,0,0-1.39-.27,6.09,6.09,0,0,1-1.38-.61,12.12,12.12,0,0,1-1.21-1,1.13,1.13,0,0,0-.47-0.18,4.16,4.16,0,0,0-.83.49,0.47,0.47,0,0,0-.17.19,0.23,0.23,0,0,0,0,.19,0.22,0.22,0,0,0,.17.09l0.23,0.08a0.33,0.33,0,0,1-.15.25,0.15,0.15,0,0,0,0,.13,0.17,0.17,0,0,1-.14.08,1.62,1.62,0,0,1-.17,0l-0.19,0a0.39,0.39,0,0,1-.12-0.13"/><path class="cls-3" d="M25.32,9.66c0-.1.05-0.63,0.12-1,0-.09,0-0.17,0-0.24a1,1,0,0,1,.63-0.62c0.22-.13.46-0.61,0.71-0.76a6.51,6.51,0,0,1,1.4-.39,6.16,6.16,0,0,1,1.47,0h0.08a4.29,4.29,0,0,0-2.23.69c-0.53.58-.82,1-0.44,1.47a1.26,1.26,0,0,0,1.16.73h0.05c0,0.08,0,.13,0,0.16a11.47,11.47,0,0,1-.05,1.23c0,0.09,0,.16,0,0.24h0l-0.1.07,0,0-0.7-.23c-0.12,0-.79-0.31-0.93-0.32a2,2,0,0,1-.65-0.25,1.72,1.72,0,0,1-.48-0.72"/><path class="cls-3" d="M25.85,20.86a2.52,2.52,0,0,0,1.51.64,2.83,2.83,0,0,0,2-.27,1.8,1.8,0,0,0,.33,1.12L30,22.58a1.73,1.73,0,0,1,.27.21,0.44,0.44,0,0,1,.05.24s-0.16.1-.17,0.13a0.16,0.16,0,0,0,0,.2,0.06,0.06,0,0,0,.08,0,0.26,0.26,0,0,1,.15-0.09,0.42,0.42,0,0,0,.27-0.2c0-.09,0-0.16,0-0.17L31,23.64a0.21,0.21,0,0,0,.14,0,0.1,0.1,0,0,0,.05-0.11c0-.06-0.08-0.28-0.08-0.28L31.06,23,31,22.76l-0.07-.22L31.27,23l0.19,0.32a0.2,0.2,0,0,0,.15.08,0.12,0.12,0,0,0,.08-0.18l-0.16-.38a1.64,1.64,0,0,0-.31-0.43l0.33,0.13L32,22.84a0.17,0.17,0,0,0,.1,0,0.13,0.13,0,0,0,0-.13l-0.37-.45a1.7,1.7,0,0,0-.22-0.14,0.33,0.33,0,0,1-.09-0.1,1.42,1.42,0,0,0-.66-0.48c-0.1,0-.36-0.06-0.34-0.21a9.39,9.39,0,0,1,.34-0.9L31,19.91,31,19.72l0.09,0a0.89,0.89,0,0,0,.73.28v0a5.5,5.5,0,0,1,.37.92c0,0.14.21,0.74,0.36,1.22l0.2,0.6a1,1,0,0,1,.16.72l0,0.08a1.17,1.17,0,0,1-.08.2,1.43,1.43,0,0,1-1.74,1.11l-0.34,0h0l-0.19-.07c-0.17-.06-1.76-0.69-2.48-1a9.05,9.05,0,0,1-1.87-1.47l0,0a1.57,1.57,0,0,1-.37-1.39l0,0h0Z"/><path class="cls-3" d="M23.93,18.14c-0.3,0-.2-0.16-0.2-0.16s0.1-.22.13-0.28c0.6-.84.46-2.3,0.45-3.4a2.57,2.57,0,0,1,.7-1.84v0a7.29,7.29,0,0,0,1,.11v0a2,2,0,0,0-.48,1.29c0,0.79.23,2,.22,2.24a10.54,10.54,0,0,1-.21,1.09l-0.1.46,0.12,0.66s0.1,0.26-.33.21a0.69,0.69,0,0,1-.73-0.16,0.62,0.62,0,0,0-.54-0.23"/><path class="cls-3" d="M25.79,20.79a1.66,1.66,0,0,1-.23-0.69h-0.1L25.52,20a2.35,2.35,0,0,1,.82-0.47c0.06,0,.33,0,0.57,0v0a0.68,0.68,0,0,1-.29-0.51,0.63,0.63,0,0,1,0-.09,1.7,1.7,0,0,1,.4-0.69A1.58,1.58,0,0,1,27.36,18a5.86,5.86,0,0,1,.56-0.32h0a11.32,11.32,0,0,0,1.48,1.38l0.06,0a4,4,0,0,0-.13,1.13c0,0.33,0,.69,0,1h0a2.83,2.83,0,0,1-2,.27,2.51,2.51,0,0,1-1.51-.64l-0.06-.06"/><path class="cls-3" d="M23,17.91s-0.17,0-.13-0.05a4.94,4.94,0,0,0,.3-0.46s0.1-.27.18-0.44a2.94,2.94,0,0,0,.17-0.52,3.3,3.3,0,0,0,.19-0.59l0.12-1.75a3.18,3.18,0,0,1,.62-1.76v0a4.66,4.66,0,0,0,.51.12v0a2.57,2.57,0,0,0-.7,1.84c0,1.1.3,2.1-.16,2.92L24,17.57l-0.23.57a0.6,0.6,0,0,0-.32-0.08A0.35,0.35,0,0,1,23,17.91"/><path class="cls-3" d="M22.31,17.4c-0.33-.15.21-0.65,0.21-0.65L23,16.14a3,3,0,0,0,.43-0.89,5.85,5.85,0,0,0,.18-1.35,2.36,2.36,0,0,1,.69-1.69l0.25,0.09h0v0a3.17,3.17,0,0,0-.62,1.76l-0.12,1.75a3.33,3.33,0,0,1-.19.59,4.35,4.35,0,0,1-.19.53l-0.44.86-0.33-.24a0.32,0.32,0,0,1-.28-0.21"/><path class="cls-2" d="M31,6.3h0m8,0.85a0.08,0.08,0,0,1-.07-0.09V7l-0.17-.08a0.08,0.08,0,1,1,.08-0.13,1.06,1.06,0,0,0,.43.13,0.08,0.08,0,0,1,.08.08,0.08,0.08,0,0,1-.08.08L39.1,7v0a0.08,0.08,0,0,1-.08.07h0m0.3,0.61c-0.14,0-.21,0-0.22-0.13a0.08,0.08,0,0,1,0-.06h0a0.08,0.08,0,0,1,.11,0v0h0.08a0.08,0.08,0,0,1,0,.15h0ZM33.9,8l-0.14-.09,0,0.06a0.08,0.08,0,0,1-.13-0.09l0-.06-0.12-.08a0.08,0.08,0,1,1,.08-0.13L34,7.86A0.08,0.08,0,0,1,34,8a0.08,0.08,0,0,1-.06,0h0m5.35,0A0.52,0.52,0,0,1,39,7.89a0.08,0.08,0,1,1,.1-0.12,0.4,0.4,0,0,0,.2.08,0.08,0.08,0,0,1,0,.15h0m-3.79,2.52a0.08,0.08,0,0,1,0-.11,0.76,0.76,0,0,1,.41-0.31,0.16,0.16,0,0,1,.11,0,0.08,0.08,0,0,1,0,.11,0.08,0.08,0,0,1-.11,0h0v0l0,0a0.08,0.08,0,1,1-.13.09l0,0h0l-0.14.15h0a0.08,0.08,0,0,1-.06,0l0,0m4.42,0.56h0ZM37,11.14h0m3.42,3.27-0.06-.07-0.22,0a0.08,0.08,0,1,1,0-.15l0.64-.13a0.08,0.08,0,0,1,.09.06,0.08,0.08,0,0,1-.06.09l-0.25.05h0a0.08,0.08,0,0,1,0,.11l-0.05,0-0.06,0M35.55,16.8a0.08,0.08,0,0,1,0-.11h0a0.39,0.39,0,0,1-.11-0.1,0.08,0.08,0,0,1,.13-0.08,0.71,0.71,0,0,0,.28.14,0.08,0.08,0,0,1,.05.09,0.08,0.08,0,0,1-.09.05l-0.11,0-0.06.05,0,0a0.08,0.08,0,0,1-.06,0M32,7.78l0.12,0a2.67,2.67,0,0,0,.43-0.05A0.93,0.93,0,0,0,33,7.52a1.13,1.13,0,0,1,.37-0.22h0a0.17,0.17,0,0,0,.13-0.08A0.38,0.38,0,0,0,33.61,7s0-.05,0-0.05a0.08,0.08,0,0,1,0-.07,0.08,0.08,0,0,1,.08,0l0.32,0.24a1.81,1.81,0,0,0,.45.2,0.46,0.46,0,0,0,.17,0h0c0.2,0,.14-0.06.17-0.13a1.39,1.39,0,0,0,0-.33,0.34,0.34,0,0,0-.22-0.38l0,0A0.71,0.71,0,0,0,34.13,6H34a2.16,2.16,0,0,0-.29-0.17,1.5,1.5,0,0,0-.64-0.17H32.88a3.18,3.18,0,0,0-.52,0c-0.33,0-.62.08-0.62,0.26a0.08,0.08,0,0,1-.06.07,3.21,3.21,0,0,0-.37.09A0.47,0.47,0,0,0,31,6.3h0v0a0.08,0.08,0,0,1-.06.09l-0.11,0a0.36,0.36,0,0,0-.17.25,0.14,0.14,0,0,0,0,.05v0l0.21,0.14a1.45,1.45,0,0,1,.41.5l0,0.07a0.68,0.68,0,0,1,.27.3h0l0.25,0a0.33,0.33,0,0,1,.15,0m6.54-.37a1.28,1.28,0,0,0,.46.7h0a1.65,1.65,0,0,0,.93-0.3h0l0.21-.34L40,7.43v0a0.08,0.08,0,0,1-.15,0v0l-0.11-.05h0a0.08,0.08,0,0,1,.08-0.13,1,1,0,0,0,.43.13h0l0.24-.38h0a1.1,1.1,0,0,0-.1-0.37,1.12,1.12,0,0,1-.3-0.4s0-.14,0-0.22c-0.13.1-.34,0.27-0.41,0.31a0.36,0.36,0,0,1-.16,0c-0.13,0-.3,0-0.35,0h0a0.34,0.34,0,0,0-.23.1c0,0.1-.2.37-0.25,0.45a1.63,1.63,0,0,0-.08.46,0.36,0.36,0,0,1,0,.16h0m-2.39.22a0.27,0.27,0,0,1,.15,0,1.68,1.68,0,0,0,.18.17,0.44,0.44,0,0,1,.18.4,0.74,0.74,0,0,1,0,.1A1.41,1.41,0,0,0,37,8.26a0.31,0.31,0,0,0,.11-0.09,0.29,0.29,0,0,0,0-.16,0.63,0.63,0,0,0-.06-0.25,2.12,2.12,0,0,0-1-.73L36,7H35.9a1,1,0,0,0-.4.23,1,1,0,0,0-.1.45h0.12a0.67,0.67,0,0,1,.37.11L36,7.84v0a0.21,0.21,0,0,1,0-.13,0.16,0.16,0,0,1,.13-0.07h0ZM35.64,8.7a0.57,0.57,0,0,0,.21,0,0.42,0.42,0,0,0,.24-0.07,1,1,0,0,0,.44-0.24v0a0.55,0.55,0,0,0,0-.12c-0.1-.37,0-0.21-0.13-0.31a1.5,1.5,0,0,1-.18-0.17H36.14a0.06,0.06,0,0,0,0,0v0L36.2,8l0.12,0.2a0.08,0.08,0,1,1-.13.08l-0.09-.15h0l-0.27-.16a0.52,0.52,0,0,0-.3-0.09H35.2a1.51,1.51,0,0,0-.55.19l-0.17.09a0.24,0.24,0,0,0,.19.08H34.8l0,0A0.17,0.17,0,0,1,35,8.12a0.14,0.14,0,0,1,.12.06s0.49,0.48.48,0.47l0.09,0m-3.37-.14,0.07,0,0.45,0.24a1.46,1.46,0,0,0,.35.13h0c0.07,0,0,0,.05-0.05a0.26,0.26,0,0,1,.17-0.2h0l0,0-0.11-.12a0.08,0.08,0,0,1,0-.11,0.08,0.08,0,0,1,.11,0L33.53,8.6l0.12,0a0.68,0.68,0,0,0,.1-0.1v0h0a0.08,0.08,0,0,1,.07,0h0l0,0,0,0a0.17,0.17,0,0,0,0-.07,8,8,0,0,1,.33-0.93,0.78,0.78,0,0,1,.06-0.12A1.3,1.3,0,0,1,34,7.22l-0.2-.15a0.43,0.43,0,0,1-.11.26,0.33,0.33,0,0,1-.24.12h0s-0.19.14-.28,0.2a1,1,0,0,1-.53.25,2.77,2.77,0,0,1-.45.05,0.42,0.42,0,0,1-.2,0H31.85l-0.25,0a0.17,0.17,0,0,1-.18-0.1l0-.07a1.36,1.36,0,0,1,0,.24,1.42,1.42,0,0,1-.06.42,1.94,1.94,0,0,1-.2.43l1.07-.28h0.06ZM40,9.31l0-.08c0-.08,0-0.17,0-0.17l0,0L40.17,9a0.23,0.23,0,0,1,.15,0l0.07-.08a0.39,0.39,0,0,0,0-.21c0-.12,0-0.22,0-0.27h0a0.41,0.41,0,0,1,.15-0.27,0.79,0.79,0,0,0,.06-0.33,0.45,0.45,0,0,1,.16-0.22s0,0,0,0a3.29,3.29,0,0,0-.06-0.35,0.24,0.24,0,0,1,0,0,0.63,0.63,0,0,1,0-.22v0a2.44,2.44,0,0,0,.06-0.47v0a0.24,0.24,0,0,1,0,0A2.47,2.47,0,0,1,40.93,6h0a3.75,3.75,0,0,0-.3-0.71,0.57,0.57,0,0,0-.43-0.21l-0.05,0a1.15,1.15,0,0,0-.8-0.27h-0.1a4.87,4.87,0,0,0-.58.18,4.05,4.05,0,0,0-.32.33h0l0,0a1.34,1.34,0,0,0-.13.17A2.89,2.89,0,0,0,38,6.1a7.07,7.07,0,0,0-.19.72h0a9.07,9.07,0,0,0,.13,1,3.35,3.35,0,0,1,.17.49v0l0,0.11,0.1,0h0.11a1.88,1.88,0,0,0,0-.36,1.09,1.09,0,0,0,0-.12,2.39,2.39,0,0,1,0-.29,0.29,0.29,0,0,1,0-.1,0.78,0.78,0,0,1,.1-0.16,0.27,0.27,0,0,0,.06-0.15,1.45,1.45,0,0,1,.11-0.54c0-.05.2-0.34,0.24-0.42a0.45,0.45,0,0,1,.37-0.18h0c0.07,0,.22,0,0.34,0h0.09c0.07,0,.49-0.37.49-0.37a0.08,0.08,0,0,1,.12,0s0.06,0.26.08,0.35a1.31,1.31,0,0,0,.24.31,0.94,0.94,0,0,1,.15.49,0.18,0.18,0,0,1,0,.06l-0.54.87v0L40,8.6l-0.15.54L40,9.31M32,9.77h0Zm8.37-.65a1.53,1.53,0,0,0,.78,1.21,7.88,7.88,0,0,1,2-.67,1.89,1.89,0,0,0-.45-0.44,3.21,3.21,0,0,0-.64-0.36,0.08,0.08,0,0,1,0-.1,0.08,0.08,0,0,1,.1,0,3.22,3.22,0,0,1,.57.3,2,2,0,0,0-.23-0.59A3.55,3.55,0,0,0,40.89,7a0.32,0.32,0,0,0,0,.09,0.1,0.1,0,0,0,0,0,3,3,0,0,1,.06.37,0.19,0.19,0,0,1,0,.12,0.82,0.82,0,0,0-.13.13,0.69,0.69,0,0,1-.11.44,0.28,0.28,0,0,0-.09.16s0,0.14,0,.27a0.51,0.51,0,0,1-.08.3L40.43,9a0.57,0.57,0,0,0,0,.11m-9.79.26a0.55,0.55,0,0,0-.39.33,2.88,2.88,0,0,1-.49,1.08l0.52-.26,0.48-.24s0.7-.24,1.08-0.41L32,9.77a1.6,1.6,0,0,0,0-.23L32,9.58l-0.39.26a0.08,0.08,0,0,1-.11,0,0.08,0.08,0,0,1,0-.11l0.39-.26A0.52,0.52,0,0,0,32,9.34a0.89,0.89,0,0,0,.17-0.55s0-.06,0-0.07L31.11,9h0A0.08,0.08,0,0,1,31,9a1.37,1.37,0,0,1-.41.4m-4.79.93a2,2,0,0,0,.61.24,9.65,9.65,0,0,1,.95.32l0.7,0.23h0l0,0h0c0-.05,0-0.11,0-0.17a11.61,11.61,0,0,0,0-1.22V9.59l-0.13,0A1.67,1.67,0,0,1,27,8.82a0.77,0.77,0,0,1-.19-0.48,1.84,1.84,0,0,1,.63-1.08A2.94,2.94,0,0,1,29,6.64H28.85a3,3,0,0,0-.61.05,6.64,6.64,0,0,0-1.37.38c-0.22.13-.45,0.61-0.71,0.76a1,1,0,0,0-.59.58c0,0.06,0,.15,0,0.23-0.07.39-.12,0.93-0.12,1h0a0,0,0,0,1,0,0,2,2,0,0,0,.44.64M37,11.21h0m-6.61-.34a0.32,0.32,0,0,0,0,.17,1.09,1.09,0,0,0,.9.68l0.45,0a0.41,0.41,0,0,1-.15-0.35c0-.07,0-0.13,0-0.2v0a1,1,0,0,1,.17-0.54,1.2,1.2,0,0,1,.4-0.22h0l0.11,0A3.43,3.43,0,0,0,31.94,10h0l0,0h0c-0.39.17-1.1,0.42-1.09,0.42l-0.4.2a1.06,1.06,0,0,0,0,.24m-4.25.55a1.43,1.43,0,0,0,.76.41,0.57,0.57,0,0,0,.32-0.1l0.74-.51-0.6-.2c-0.12,0-.81-0.31-0.91-0.31a2,2,0,0,1-.69-0.26,1.71,1.71,0,0,1-.51-0.78s0,0,0,0,0-.54.1-0.93a2.3,2.3,0,0,0-1,1.08s-0.36.43-.49,0.55a0.23,0.23,0,0,0,0,.15,0.74,0.74,0,0,0,.11.4l0.25,0.26,0,0v0a0.84,0.84,0,0,0,.54.26h0.07a8.26,8.26,0,0,1,1-.15,0.6,0.6,0,0,1,.35.09m5.8-.73a0.8,0.8,0,0,0-.14.45v0c0,0.07,0,.14,0,0.2a0.22,0.22,0,0,0,.14.26l0.18,0.09a1.2,1.2,0,0,0,.56.21,0.53,0.53,0,0,0,.31-0.1,0.27,0.27,0,0,0,.12-0.26,0.66,0.66,0,0,0,0-.12l0-.08a0.3,0.3,0,0,0,.13-0.17,0.11,0.11,0,0,0,0-.06L33.11,11a0.07,0.07,0,0,1,0-.07,0.07,0.07,0,0,1,.06,0l0.36-.06,0.07,0h0l-0.28,0-0.42-.06h0a0.37,0.37,0,0,1,0,.12,0.12,0.12,0,0,1,0,.1,0.69,0.69,0,0,1-.32.1l-0.1,0-0.09,0a0.08,0.08,0,0,1,0-.1,0.08,0.08,0,0,1,.1,0l0.08,0h0a0.57,0.57,0,0,0,.21-0.06l0-.1-0.23-.06-0.23-.06a1.25,1.25,0,0,0-.31.16m6.59,1.69a0.16,0.16,0,0,1,.08-0.14s0.05-.19.14-0.35A0.38,0.38,0,0,1,39,11.7a3.07,3.07,0,0,0,.38-0.4c0.2-.06.36-0.21,0.5-0.22h0S40.21,11,40.3,11l0.16,0a0.08,0.08,0,0,1,0-.05A1.91,1.91,0,0,1,41,10.41a1.65,1.65,0,0,1-.78-1.29s0,0,0-.05h0l-0.06,0,0,0.15A0.27,0.27,0,0,1,40,9.5h0a1,1,0,0,1-.25-0.31V9.13l0.16-.56L39.93,8a1.85,1.85,0,0,1-.92.26h0a1.09,1.09,0,0,1-.56-0.7l0,0a0.15,0.15,0,0,0,0,.05c0,0.05,0,.14,0,0.27a1,1,0,0,1,0,.14,2.06,2.06,0,0,1,0,.4,0.23,0.23,0,0,1-.24.13h0l-0.06,0L38,8.68a0.08,0.08,0,0,1-.11-0.08s0-.22,0-0.27h0S37.79,8,37.76,7.88a8.53,8.53,0,0,1-.14-1.06h0a5.47,5.47,0,0,1,.2-0.74A3,3,0,0,1,38,5.45l0.11-.15a0.75,0.75,0,0,0-.35-0.08,1.21,1.21,0,0,0-.6.19l-0.46.06A1.08,1.08,0,0,0,36.1,6a0.8,0.8,0,0,0-.21.53,0.6,0.6,0,0,0,.06.29h0v0h0a0.38,0.38,0,0,1,.15,0,2.21,2.21,0,0,1,1.09.81,0.81,0.81,0,0,1,.07.28,0.39,0.39,0,0,1,.15-0.07l-0.16-.63a0.08,0.08,0,0,1,.15,0l0.23,0.89a0.07,0.07,0,0,1,0,0,2.82,2.82,0,0,1,.17.93,1.79,1.79,0,0,1-.23.94s-0.27.61-.29,0.66l0,0.08a1.55,1.55,0,0,0,.08.27,0.27,0.27,0,0,1,0,.13s0,0,0,0a0.41,0.41,0,0,1,.19.24h0a0.14,0.14,0,0,1,0,.07,0.42,0.42,0,0,1,.07.22,0.32,0.32,0,0,1,0,.1,0.13,0.13,0,0,0,0,0,0.37,0.37,0,0,0,0,.07ZM37,12.44a0.49,0.49,0,0,0,.17,0,1,1,0,0,0,.25-0.18,0.15,0.15,0,0,0,.08-0.13c0-.05,0-0.12,0-0.21a0.28,0.28,0,0,1,0-.09,0.15,0.15,0,0,0,0,0,0.31,0.31,0,0,0-.09-0.19,0.08,0.08,0,0,1,0-.07,0.07,0.07,0,0,1,0-.06h0l0,0-0.08-.07a0.1,0.1,0,0,1,0-.09s0,0,0-.06a0.13,0.13,0,0,0,0-.05,1.51,1.51,0,0,1-.09-0.32s0-.17,0-0.19A0.24,0.24,0,0,0,37,10.41l-0.05-.07a0.26,0.26,0,0,0-.11-0.14l0-.08a0.31,0.31,0,0,0,0,0,0.83,0.83,0,0,0-.24-0.26,0.85,0.85,0,0,0-.24-0.19A0.54,0.54,0,0,0,36,9.49h0a0.85,0.85,0,0,0-.21.05,1.27,1.27,0,0,1,.3.06l0.21,0.18s0.17,0.11.27,0.2a0.5,0.5,0,0,1,.16.28,0.08,0.08,0,0,1-.15,0,0.37,0.37,0,0,0-.11-0.18C36.37,10,36.24,9.93,36.2,9.9L36,9.73a1.17,1.17,0,0,0-.29,0,1.06,1.06,0,0,0-.47.12,1,1,0,0,0-.26.51,0.32,0.32,0,0,0,0,.05,0.52,0.52,0,0,0,.16.33,0.88,0.88,0,0,1,.17.45v0a1.38,1.38,0,0,0,.07.37,3.82,3.82,0,0,0,1.23.17A1.8,1.8,0,0,0,37,11.55a0.19,0.19,0,0,0,0,0,2.75,2.75,0,0,0-.08-0.36h0V11a1.53,1.53,0,0,1-.38.14h0a0.08,0.08,0,0,1-.09-0.06A0.08,0.08,0,0,1,36.46,11a1.35,1.35,0,0,0,.36-0.14h0c0-.13,0-0.27,0-0.3a0.08,0.08,0,0,1,.07-0.08,0.08,0.08,0,0,1,.08.07S37,11.07,37,11.14h0v0a1.6,1.6,0,0,1,.08.36,0.2,0.2,0,0,1-.06.16,1.42,1.42,0,0,1-.31.18v0a0.55,0.55,0,0,0,.2.46L37,12.44h0m-12.49-.21a4.76,4.76,0,0,0,.5.12,7.48,7.48,0,0,0,1,.11l0.61,0a13.41,13.41,0,0,0,1.73-.12,4.6,4.6,0,0,1-.11-0.7,1.42,1.42,0,0,1-.05-0.42h0c-0.16.11-.49,0.35-0.84,0.59a0.71,0.71,0,0,1-.4.13A1.53,1.53,0,0,1,26,11.54a0.47,0.47,0,0,0-.27-0.06,8.55,8.55,0,0,0-.94.14H24.74a1,1,0,0,1-.61-0.27,0.39,0.39,0,0,0-.06.21,1.12,1.12,0,0,0,.22.59l0.23,0.08M34.2,13L34.41,13a2.88,2.88,0,0,0,.53.06,0.69,0.69,0,0,0,.21,0,1.56,1.56,0,0,0,.25-0.64c0-.06,0-0.11,0-0.16a1,1,0,0,0,0-.27,1.33,1.33,0,0,0-.07-0.2,1.61,1.61,0,0,1-.14-0.59,0.33,0.33,0,0,1,0,0h0A0.72,0.72,0,0,0,35,10.8a0.65,0.65,0,0,1-.2-0.42,0.43,0.43,0,0,1,0-.08,1,1,0,0,1,.36-0.62l0.07,0,0,0H35.11a0.47,0.47,0,0,0-.43.3,1,1,0,0,0-.25.26,11,11,0,0,0-.33,1.14,1.35,1.35,0,0,1-.05.35,2.66,2.66,0,0,0-.44.71,0.11,0.11,0,0,0,0,.1h0a1.05,1.05,0,0,1,.47.43h0l0.06,0M45.35,9.89a3.24,3.24,0,0,0-1.09,1.95c0,0.61.42,1.24,1.93,1.65a3.63,3.63,0,0,0,1-.8l0.67-.54a2.12,2.12,0,0,0,.63-1A1.09,1.09,0,0,0,47.49,10H47.3l-0.53.16H46.7a1.57,1.57,0,0,0-1-.33H45.35m-4.84,1.32h0a2.75,2.75,0,0,1,.55.11,3.06,3.06,0,0,1,.41.24,0.35,0.35,0,0,1,.06.21,0.43,0.43,0,0,1,0,.15,3.42,3.42,0,0,1-.43.73,0.06,0.06,0,0,0,0,.05,0.24,0.24,0,0,0,.08.12,0.22,0.22,0,0,1,0,.14,0.29,0.29,0,0,1,0,.11c0,0.09-.13.15-0.14,0.19a0.4,0.4,0,0,0,0,.12,0.57,0.57,0,0,0,0,.22h0a2.59,2.59,0,0,0,.32-0.11h0a0.62,0.62,0,0,0,.22-0.08h0a0.4,0.4,0,0,1,.28-0.14s0.16-.22.21-0.27a2,2,0,0,1,.14-0.19,0.11,0.11,0,0,0,0-.06h0a0.12,0.12,0,0,1,0-.08,0.22,0.22,0,0,1,.1-0.15,0.08,0.08,0,0,0,0,0,0.29,0.29,0,0,0,0-.09s-0.16-.24-0.18-0.33a0.11,0.11,0,0,1,0,0,0.33,0.33,0,0,1,.07-0.18h0l0,0-0.09-.05a0.11,0.11,0,0,1-.06-0.1,0.42,0.42,0,0,1,0-.15h0l-0.14,0c-0.1,0-.46-0.16-0.53-0.16a1,1,0,0,1-.25-0.08l-0.33-.15H40.55l-0.22,0a3.43,3.43,0,0,1-.44.13h0a3.37,3.37,0,0,1-.45.22,1.15,1.15,0,0,1-.4.4,0.22,0.22,0,0,0-.15.11,1.19,1.19,0,0,1-.2.41,0,0,0,0,1,0,0,0.39,0.39,0,0,0,0,.08h0a1.08,1.08,0,0,1,0,.2,0.25,0.25,0,0,1,0,.08,0.08,0.08,0,0,0,0,0,0.1,0.1,0,0,0,0,.06,1.56,1.56,0,0,1,.38-0.95l0.27-.23,0.25-.22c0.07-.05.31-0.13,0.4-0.19a0.62,0.62,0,0,1,.31-0.06h0.17M40.28,15l0.16-.15,0.08,0,0.16,0.06,0,0,0.16-.09a0.08,0.08,0,0,1,.11,0,0.08,0.08,0,0,1,0,.11L40.85,15A0.36,0.36,0,0,0,41,15a0.87,0.87,0,0,0,.67-0.47l0.14-.23a6.93,6.93,0,0,1,.38-0.8s0.18-.11.25-0.13a1.38,1.38,0,0,0,.66-0.84s0,0,0-.07,0-.1,0-0.16a0.08,0.08,0,0,1,.07-0.08,0.08,0.08,0,0,1,.08,0,4.39,4.39,0,0,0,2,1.47l0.28,0A1.12,1.12,0,0,0,46,13.6c-1.43-.41-1.91-1.09-1.91-1.76a3.28,3.28,0,0,1,1.09-2,1,1,0,0,0-.24,0,0.7,0.7,0,0,0-.36.09,3.41,3.41,0,0,0-1.4,1.91,0.08,0.08,0,0,1-.15,0,3.5,3.5,0,0,1,1.44-2l-0.4,0a7.1,7.1,0,0,0-2.88.75,1.74,1.74,0,0,0-.55.41h0.07a0.26,0.26,0,0,1,.14,0l0.3,0.14,0.21,0.07c0.12,0,.5.16,0.53,0.16a0.32,0.32,0,0,1,.34.17v0l0,0.11a0.28,0.28,0,0,1,.19.19h0l0,0c0,0.07-.07.15-0.07,0.17h0s0.15,0.23.18,0.32a0.45,0.45,0,0,1,0,.14,0.21,0.21,0,0,1-.06.16l0,0a0.18,0.18,0,0,1,0,.08,0.26,0.26,0,0,1-.07.17s-0.08.12-.13,0.18a2.28,2.28,0,0,1-.23.29,0.92,0.92,0,0,1-.23.07h0a0.47,0.47,0,0,1-.37.19h0a1.1,1.1,0,0,1-.33.11,0.15,0.15,0,0,1-.14-0.08,0.74,0.74,0,0,1,0-.28,0.56,0.56,0,0,1,0-.17A1.1,1.1,0,0,1,41,13,0.14,0.14,0,0,0,41,13a0.07,0.07,0,0,0,0,0,0.36,0.36,0,0,1-.12-0.23A0.23,0.23,0,0,1,41,12.54a3.39,3.39,0,0,0,.39-0.67,0.25,0.25,0,0,0,0-.09,0.22,0.22,0,0,0,0-.11L41,11.46a3.12,3.12,0,0,0-.48-0.09H40.34a0.53,0.53,0,0,0-.23,0c-0.11.06-.37,0.16-0.39,0.18l-0.24.21L39.21,12a1.49,1.49,0,0,0-.34,1s0,0.07,0,.11a2.46,2.46,0,0,0,0,.39,1.16,1.16,0,0,0,.21.5s0.41,0.34.41,0.35l0.19,0a0.36,0.36,0,0,1,.27.2,0.66,0.66,0,0,0,.29.43h0m-1.39-.59a1.4,1.4,0,0,0-.38.75,0.4,0.4,0,0,0,0,.07c0.06,0.26.18,0.69,0.23,0.85h0.1l1.5-.18,0.22-.07A1.08,1.08,0,0,0,41,15.59a5.78,5.78,0,0,0,.37-0.54,0.68,0.68,0,0,1-.34.09,0.5,0.5,0,0,1-.23-0.05L40.51,15l-0.17.15H40.27a0.69,0.69,0,0,1-.43-0.52,0.23,0.23,0,0,0-.14-0.11l-0.24,0s-0.27-.21-0.4-0.33a0.63,0.63,0,0,1-.16.26M29.24,7.24a0.08,0.08,0,0,1,0,.11,13.53,13.53,0,0,0-.67,1.26,4.5,4.5,0,0,0-.2.91c0,0.07,0,.13,0,0.16a11.56,11.56,0,0,1-.05,1.23c0,0.08,0,.16,0,0.23s0,0.06,0,.1a1.37,1.37,0,0,0,0,.4,4.55,4.55,0,0,0,.13.77,3,3,0,0,0,.47,1c0.06,0.13.5,0.73,0.51,0.75s0.28,0.72.29,0.84h0a3.57,3.57,0,0,0-.2.53,0.59,0.59,0,0,0,0,.09,0.47,0.47,0,0,0,.09.29l0,0c0.09,0.07.18,0.18,0.25,0.24a0.23,0.23,0,0,0,.14,0h0.11a0.75,0.75,0,0,0,.2-0.11,0.6,0.6,0,0,0,0-.16,2.76,2.76,0,0,1,.06-0.35s0-.14.07-0.2a0.08,0.08,0,0,1,0,0h0l0,0a0.8,0.8,0,0,1,.23-0.13,0.51,0.51,0,0,1,.15-0.09h0a0.49,0.49,0,0,1,.19.07,0.78,0.78,0,0,0,.17,0,0.79,0.79,0,0,0,.24,0l0,0-0.1-.06a1.53,1.53,0,0,1-.42-0.23,0.58,0.58,0,0,0-.29-0.11,1.6,1.6,0,0,1-.51-0.91,4.59,4.59,0,0,1-.21-1.34,0.1,0.1,0,0,1,0,0,0.09,0.09,0,0,1,0,0,4,4,0,0,0-.43-1.36,0.92,0.92,0,0,1-.05-0.14,0.32,0.32,0,0,1,0-.09,0.12,0.12,0,0,1,.05-0.12,2.67,2.67,0,0,0,.47-1.05,0.69,0.69,0,0,1,.46-0.42,1.33,1.33,0,0,0,.39-0.4,1.84,1.84,0,0,0,.24-0.49A1.27,1.27,0,0,0,31.25,8a1.21,1.21,0,0,0-.12-0.52A1.29,1.29,0,0,0,30.76,7a1.47,1.47,0,0,0-.24-0.15,1.87,1.87,0,0,0-.71-0.18h0a4.29,4.29,0,0,0-2.18.66,1.74,1.74,0,0,0-.59,1,0.61,0.61,0,0,0,.15.39,1.58,1.58,0,0,0,.94.73l0.14,0h0a4.42,4.42,0,0,1,.2-0.87,12.9,12.9,0,0,1,.69-1.28,0.08,0.08,0,0,1,.07,0h0m3.86,8.41s0.59,0.82.8,1.19l1-.23a0.65,0.65,0,0,0,.33-0.27,0.44,0.44,0,0,1,.29-0.14A3.51,3.51,0,0,0,36,16a0.31,0.31,0,0,1,.19-0.06l0.11,0a0.24,0.24,0,0,1,.14.16l0.16,0,0.16,0a0.25,0.25,0,0,0,.18-0.27,0.67,0.67,0,0,0,0-.2,1.07,1.07,0,0,0-.35-0.31,0.08,0.08,0,0,1,0,0,0.07,0.07,0,0,1,0-.06A0.25,0.25,0,0,0,36.54,15a0.16,0.16,0,0,0-.06-0.12l0,0a0.32,0.32,0,0,0-.27-0.2H36a3.09,3.09,0,0,1-.62-0.38s-0.75-.08-1.06-0.13H34.29a0.65,0.65,0,0,0-.45.28,0.57,0.57,0,0,1-.31.2,1,1,0,0,0-.27.24L33.1,15,33,15a0.26,0.26,0,0,0-.08.24,1.42,1.42,0,0,0,0,.28h0l0.09,0.08h0m2.5,1.52,0,0h0l0,0m0,0h0m0,0h0m0,0h0m0,0h0ZM24,12.53a2.66,2.66,0,0,0-.39,1.22,10.69,10.69,0,0,1-.24,1.87,6.29,6.29,0,0,1-1,1.43,0.27,0.27,0,0,0-.05.14,0.21,0.21,0,0,0,.08.16l0.51,0.35h0a1.49,1.49,0,0,0,.19-0.23l0.1-.21,0.29-.64a1.5,1.5,0,0,0,.13-0.44h0l0,0,0.18-2.24a2.53,2.53,0,0,1,.59-1.58l-0.12,0a0.7,0.7,0,0,0-.23.22m-0.93,5.35L23.35,18,23.66,18a0.86,0.86,0,0,1,.19-0.34L24,17.54a4.05,4.05,0,0,0,.31-1.85c0-.53,0-1.08,0-1.55,0,0,0,0,0,0a2.17,2.17,0,0,1,.63-1.63l-0.32-.08a2.35,2.35,0,0,0-.59,1.54l-0.18,2.22a0.23,0.23,0,0,1,0,0,1.67,1.67,0,0,1-.14.5l-0.29.64-0.11.22a1.54,1.54,0,0,1-.23.27h0v0h0l0.08,0m2,0.59h0.47a2.06,2.06,0,0,1-.12-0.72,3.1,3.1,0,0,1,.09-0.68,8.37,8.37,0,0,0,.16-0.94,0.06,0.06,0,0,1,0,0c0-.27-0.22-1.44-0.22-2.23a2.09,2.09,0,0,1,.42-1.25,7.46,7.46,0,0,1-.78-0.1h0a1.92,1.92,0,0,0-.67,1.58,0.18,0.18,0,0,0,0,0c0,0.47,0,1,0,1.55a4.17,4.17,0,0,1-.33,1.93L24,17.8a0.85,0.85,0,0,0-.16.28s0,0,0,0a0.84,0.84,0,0,1,.67.18,0.86,0.86,0,0,0,.16.15,1.94,1.94,0,0,0,.36,0m1,0.06a2.75,2.75,0,0,1,.58.33A2,2,0,0,1,27,18.23,1.42,1.42,0,0,1,27.22,18L27,17.87a0.38,0.38,0,0,1-.13-0.34c0-.07,0-0.15,0-0.24s0-.11,0-0.17a0.13,0.13,0,0,1,0,0,1,1,0,0,1,1-.67c0.18,0,1-.21.94-0.21l0.67-.29a0.65,0.65,0,0,1-.07-0.3,0.69,0.69,0,0,1,0-.12A1.84,1.84,0,0,1,29.6,15h0s-0.26-.75-0.27-0.76-0.44-.59-0.52-0.75a3.1,3.1,0,0,1-.46-1,13.44,13.44,0,0,1-1.76.12H26a1.92,1.92,0,0,0-.46,1.24c0,0.78.22,1.93,0.22,2.23h0a7,7,0,0,1-.16,1,3,3,0,0,0-.08.65,1.89,1.89,0,0,0,.13.71v0l0.32,0m5.34,1.28a0.86,0.86,0,0,0,.46.12h0.05A1.75,1.75,0,0,0,33,19.25a1.58,1.58,0,0,0,.21-0.75,1.92,1.92,0,0,0-.5-1.19,0.08,0.08,0,1,1,.12-0.1,2.07,2.07,0,0,1,.53,1.29,1.64,1.64,0,0,1-.17.7,1.43,1.43,0,0,0,.8-1.32h0S34,17.6,34,17.59s-0.07-.3-0.13-0.57S33,15.75,33,15.75h0l-0.09-.08h0a4.65,4.65,0,0,0-1.12-.45,0.28,0.28,0,0,1-.13.08,0.93,0.93,0,0,1-.29,0,0.69,0.69,0,0,1-.23,0l-0.06,0-0.06,0h0l-0.1.07a1.07,1.07,0,0,0-.2.1s-0.07.18-.08,0.22a2.79,2.79,0,0,0-.05.32,0.31,0.31,0,0,1-.09.28,0.75,0.75,0,0,1-.27.13H30.06a0.38,0.38,0,0,1-.24-0.07c-0.09-.07-0.18-0.19-0.25-0.24l0,0-0.72.31s-0.77.19-1,.21a0.93,0.93,0,0,0-.84.51v0c0,0.07,0,.13,0,0.18s0,0.18,0,.24a0.22,0.22,0,0,0,.07.22,1.93,1.93,0,0,0,.26.17c0.17-.11.34-0.2,0.44-0.25l-0.11-.12h0a0.08,0.08,0,1,1,.11-0.1L28,17.64A12.35,12.35,0,0,0,29.41,19a5.11,5.11,0,0,1,.31-0.81,2.41,2.41,0,0,1,.74-0.84h0.07c1.26,0.45,1.46.82,1.46,1.13,0,0.08,0,.15,0,0.2a0.64,0.64,0,0,1-.58.4,3.14,3.14,0,0,1-.24.61l0,0h0a0.8,0.8,0,0,0,.15.12m5.75,0.33,0,0.06a0.06,0.06,0,0,0,0,0,0.1,0.1,0,0,0,0,0l0.14-.2,0.16-.25v0c0.14-.46.26-0.89,0.26-0.89A7,7,0,0,1,38,17.57a0.29,0.29,0,0,0-.15,0,0.44,0.44,0,0,0-.3.14l-0.28.25a1.26,1.26,0,0,0-.22.33,5.43,5.43,0,0,0-.12.55h0a0.41,0.41,0,0,1-.08.28,0.79,0.79,0,0,1-.28.14,0.09,0.09,0,0,1-.07,0,1.4,1.4,0,0,0-.21-0.25h0v0a0.16,0.16,0,0,1-.13.13l0,0,0.23,0.2a1.2,1.2,0,0,0,.31.19h0.09a0.32,0.32,0,0,0,.28-0.13l0,0,0-.21a0.31,0.31,0,0,1-.09-0.25,1.61,1.61,0,0,1,0-.22h0a0.08,0.08,0,0,1,.15,0,1.67,1.67,0,0,0,0,.21c0,0.09,0,.13.06,0.14a0.1,0.1,0,0,0,.11-0.1,0.93,0.93,0,0,1,.12-0.36,0.08,0.08,0,1,1,.15,0,1,1,0,0,0-.11.32,0.26,0.26,0,0,1-.24.25c0,0.05,0,.15,0,0.25a1.14,1.14,0,0,1-.08.32,1.09,1.09,0,0,0-.11.34h0Zm-12.54-.94a4.85,4.85,0,0,0-.07.57,0.45,0.45,0,0,0,.5.54h0A3.09,3.09,0,0,0,25.41,20l0,0a2.29,2.29,0,0,1,.88-0.5h0.38a0.66,0.66,0,0,1-.18-0.41s0,0,0,0v0l-0.26-.17A2.11,2.11,0,0,0,26,18.69l-0.33,0-0.35,0H25.23a1.08,1.08,0,0,0-.68.59m1.08,0.89a1.71,1.71,0,0,0,.21.65l0.05,0.06a2.44,2.44,0,0,0,1.46.62c0.31,0,.63,0,0.93,0a1.54,1.54,0,0,0,1-.27c0-.32,0-0.66,0-1,0,0,0-.09,0-0.13a4.07,4.07,0,0,1,.11-1h0a10.89,10.89,0,0,1-1.46-1.35,5.62,5.62,0,0,0-.52.29,1.49,1.49,0,0,0-.31.25,1.63,1.63,0,0,0-.38.65,0.47,0.47,0,0,0,0,.08v0a0.63,0.63,0,0,0,.26.42h0a0.54,0.54,0,0,1,.35.12,3.93,3.93,0,0,1,.22.62l0.54,0.44a0.08,0.08,0,1,1-.1.12l-0.54-.44c-0.11-.12-0.15-0.54-0.24-0.64a0.66,0.66,0,0,0-.29-0.07c-0.21,0-.45,0-0.56,0h0a3.09,3.09,0,0,0-.71.41,0.08,0.08,0,0,1,0,0m13.72,2.35a0.25,0.25,0,0,0,.23.28,3.82,3.82,0,0,0,.48,0,1.36,1.36,0,0,0,.49-0.06,0.43,0.43,0,0,0,.25-0.28,0.06,0.06,0,0,0,0,0,2.09,2.09,0,0,0-.27-0.31,0.89,0.89,0,0,1-.19-0.47,0.25,0.25,0,0,1,0-.08,1.75,1.75,0,0,0,.05-0.25h0s0-.09,0-0.16a0.83,0.83,0,0,1,.08-0.42l0.67-1a3.8,3.8,0,0,0,.37-1.6,13.13,13.13,0,0,0-1.59.25c0,0.18,0,1.08,0,1.43,0,0.07,0,.12,0,0.13s0,0.13,0,.25a1.15,1.15,0,0,1-.12.6,1.54,1.54,0,0,0-.26.62v0a2.13,2.13,0,0,1,0,.24,1,1,0,0,1,0,.26c0,0.07-.17.53-0.17,0.51a0.27,0.27,0,0,0,0,0M42.72,14a0.08,0.08,0,0,1,.07.09c0,0.15-.24.94-0.26,1.1a1.71,1.71,0,0,0,0,.22,0.7,0.7,0,0,0,.05.28,3.41,3.41,0,0,1,.19.94s0,0,0,0a9.6,9.6,0,0,1-.2,1.17l0,0.16,0,0.2-0.3.64s-0.49,1-.57,1.17A2.55,2.55,0,0,0,41.34,21a2.48,2.48,0,0,0,.18.91l0.16,0.6c0.29,0.88.35,0.89,0.63,0.95h0a1.46,1.46,0,0,0,0-.28,0.06,0.06,0,0,1,0,0,3.35,3.35,0,0,1,.31-1A10,10,0,0,0,43,20.51l-0.46.37a4.07,4.07,0,0,0-.27.36,0.08,0.08,0,0,1-.14,0,14.26,14.26,0,0,1,2.93-7.37,4.29,4.29,0,0,1-1.83-1.34,0.49,0.49,0,0,1,0,.06,1.51,1.51,0,0,1-.76,1,1.53,1.53,0,0,1-.2.1c-0.18.33-.34,0.75-0.34,0.76l-0.14.23v0s-0.52.86-.72,1.09a1,1,0,0,1-.32.22,0.08,0.08,0,0,1,0,0h0l-0.48,1s0,0.06,0,.09A2.79,2.79,0,0,1,40,18.16a13.4,13.4,0,0,1,1.59-.24c0.41,0,.69,0,0.79,0l0-.11a10,10,0,0,0,.2-1.14v0a3.32,3.32,0,0,0-.18-0.88,0.85,0.85,0,0,1-.06-0.33,1.82,1.82,0,0,1,0-.24c0-.18.24-1,0.26-1.1h0A0.08,0.08,0,0,1,42.71,14h0m-5.51,9.42a0.19,0.19,0,0,0,0,.13,1.13,1.13,0,0,0,.09-0.25,3.54,3.54,0,0,1,.32-0.9,0.66,0.66,0,0,1,.47-0.27,0.08,0.08,0,0,1,.08.07v0.11a0.9,0.9,0,0,0,.11-0.42,0.93,0.93,0,0,0,0-.22,3.42,3.42,0,0,1-.12-0.72,0.89,0.89,0,0,1,0-.29c0.06-.17.84-1.08,1.39-2.08l0.16-.31a2.8,2.8,0,0,0,.33-1.13s0-.07,0-0.1v0l0.44-1-0.2.06-1.44.17h0a1.76,1.76,0,0,1-.23.49,1.56,1.56,0,0,0-.52.84,6.67,6.67,0,0,0-.27,1.32s-0.13.47-.28,0.95-0.25.81-.32,1a2.87,2.87,0,0,0-.36.81c0,0.08,0,.17,0,0.26a0.71,0.71,0,0,0,0,.25,0.08,0.08,0,0,1,0,0v0a0.41,0.41,0,0,0,.11.12l0,0.06Zm-6.1.2h0l0,0c0-.06-0.09-0.28-0.09-0.28L31,23l-0.08-.2-0.07-.21a0.08,0.08,0,0,1,0-.09h0a0.08,0.08,0,0,1,.11,0h0v0L31.33,23l0.18,0.31,0.07,0.06s0,0,0,0a0.11,0.11,0,0,0,0,0l-0.16-.38a1.7,1.7,0,0,0-.29-0.4,0.08,0.08,0,0,1,.08-0.13l0.34,0.13L32,22.76h0l0,0-0.36-.44a1.91,1.91,0,0,0-.22-0.14A0.39,0.39,0,0,1,31.31,22l-0.22-.21a2,2,0,0,0-.39-0.22,0.42,0.42,0,0,1-.4-0.27s0,0,0,0a8.56,8.56,0,0,1,.35-0.93l0.23-.47L31,19.69a3.12,3.12,0,0,0,.28-0.7,0.08,0.08,0,0,1,.07-0.07,0.74,0.74,0,0,0,.51-0.27c0-.07,0-0.13,0-0.19s-0.11-.52-1.32-1a2.23,2.23,0,0,0-.65.76,5,5,0,0,0-.32.86,3.92,3.92,0,0,0-.13,1s0,0.08,0,.13c0,0.33,0,.67,0,1a0.08,0.08,0,0,1,0,0,1.73,1.73,0,0,0,.3,1.05L30,22.53a1.27,1.27,0,0,1,.28.24,0.75,0.75,0,0,1,.07.24,0.14,0.14,0,0,1,0,.09,1.65,1.65,0,0,1-.16.11h0a0.23,0.23,0,0,0,0,.06,0.06,0.06,0,0,0,0,0,0.32,0.32,0,0,1,.19-0.11l0.13-.06a0.17,0.17,0,0,0,.08-0.07V22.89a0.07,0.07,0,0,1,0,0,0.07,0.07,0,0,1,0,0h0.06l0,0h0l0.35,0.73h0M46,23.71l0.64,0h0.39a2.58,2.58,0,0,1-1.19-2.44,0.08,0.08,0,0,1,.07-0.08,0.08,0.08,0,0,1,.08.07c0.06,2.19,1.39,2.42,1.39,2.42h0c0.48,0,1-.08,1.28-0.11a3,3,0,0,1-.41-2.3A18.84,18.84,0,0,0,49,16.56a12.31,12.31,0,0,0-.08-1.43A13.83,13.83,0,0,0,48.29,12a3.88,3.88,0,0,1-.28.3l-0.65.53a3.86,3.86,0,0,1-1.12.86,1.3,1.3,0,0,1-.47.2h0L45.2,16.12a0.08,0.08,0,0,1-.15,0l0.56-2.21H45.5l-0.25,0a14,14,0,0,0-2.92,7,1,1,0,0,1,.13-0.15L43,20.3a17.84,17.84,0,0,0,2.12-1.89,1.09,1.09,0,0,1,.27-0.26,1.64,1.64,0,0,1,.91-0.25h0.19a0.08,0.08,0,0,1,.07.09,0.08,0.08,0,0,1-.09.07H46.32a1.55,1.55,0,0,0-.78.19c0,0.05,0,.11,0,0.16,0,1.77-1.68,4.1-1.82,4.4a0.68,0.68,0,0,0-.05.3,2.31,2.31,0,0,0,.05.44H43.8l0.16,0,0.53,0,0.64,0a4.37,4.37,0,0,1-.86-0.73h0a0.08,0.08,0,1,1,.11-0.1,3.28,3.28,0,0,0,1.16.85h0l0.47,0m-8.6.86,0.79-.18-0.35-.94Zm-0.05-1-0.14,1h0L37.8,23.2a0.08,0.08,0,0,1,.07,0,0.08,0.08,0,0,1,.07.05l0.42,1.15h0l-0.28-1.89,0-.2a0.46,0.46,0,0,0-.28.19,3.5,3.5,0,0,0-.3.85,1.21,1.21,0,0,1-.12.31h0m-6.6,1.18,0.34,0h0.16a1.32,1.32,0,0,0,1.51-1.07,1,1,0,0,0,.07-0.19l0-.07a0.85,0.85,0,0,0,0-.16,1.13,1.13,0,0,0-.17-0.53l-0.2-.6c-0.15-.48-0.34-1.07-0.36-1.23a5.42,5.42,0,0,0-.36-0.89,1,1,0,0,1-.72-0.29L31,19.94l-0.23.46s-0.31.75-.33,0.89h0a0.44,0.44,0,0,0,.28.12,2,2,0,0,1,.46.26,1.56,1.56,0,0,1,.25.27l0,0.06a1.55,1.55,0,0,1,.25.17l0.37,0.45a0.24,0.24,0,0,1,.07.15,0.13,0.13,0,0,1,0,.08,0.23,0.23,0,0,1-.15.07h0l-0.44-.28-0.05,0a2.39,2.39,0,0,1,.13.22l0.16,0.38a0.3,0.3,0,0,1,0,.1,0.2,0.2,0,0,1-.15.18h0a0.31,0.31,0,0,1-.2-0.12l-0.18-.31L31.15,23l0.08,0.26s0.06,0.22.08,0.27a0.16,0.16,0,0,1,0,.05,0.21,0.21,0,0,1-.09.15l-0.07,0a0.4,0.4,0,0,1-.15,0l0,0-0.26-.54a0.57,0.57,0,0,1-.3.19,0.18,0.18,0,0,0-.11.06,0.15,0.15,0,0,1-.12.06,0.1,0.1,0,0,1-.06,0A0.19,0.19,0,0,1,30,23.27a0.31,0.31,0,0,1,0-.14A0.68,0.68,0,0,1,30.24,23a0.75,0.75,0,0,0-.05-0.17l0,0-0.08-.06-0.14-.1-0.27-.23a1.62,1.62,0,0,1-.34-1,1.82,1.82,0,0,1-1,.25c-0.3,0-.62,0-0.94,0A2.62,2.62,0,0,1,25.88,21a1.81,1.81,0,0,0,0,.24,1.31,1.31,0,0,0,.38,1l0,0a8.94,8.94,0,0,0,1.85,1.46c0.71,0.34,2.31,1,2.47,1l0.16,0.06h0m12,0a1.85,1.85,0,0,0,.33.09h0.17a0.25,0.25,0,0,0,.13,0c0.1-.06.27-0.12,0.32-0.17A0.67,0.67,0,0,0,44,24.43h0a3.26,3.26,0,0,0-.35-0.62s0-.06,0-0.16a2.62,2.62,0,0,1-.07-0.55,0.81,0.81,0,0,1,.07-0.37c0.17-.32,1.81-2.63,1.81-4.33v0a0.89,0.89,0,0,0-.13.14,17,17,0,0,1-2.09,1.88,0.08,0.08,0,0,1,0,0,11.32,11.32,0,0,1-.33,1.9,3.4,3.4,0,0,0-.3.9h0a2.86,2.86,0,0,1-.18.75,1.8,1.8,0,0,0-.14.33,0.64,0.64,0,0,0,0,.17,0.3,0.3,0,0,0,0,0c0,0.24,0,.37.13,0.37h0.08a1.77,1.77,0,0,0,.31,0h0Zm-9.89.8a1.11,1.11,0,0,0,.4-0.5c0-.12,0-0.34,0-0.57a0.91,0.91,0,0,0-.08-0.44A4.84,4.84,0,0,0,33,23.72l0,0.11A1.47,1.47,0,0,1,31.27,25H31.21a3,3,0,0,1,.59.31,0.08,0.08,0,0,1,0,.11,0.08,0.08,0,0,1-.11,0,6.13,6.13,0,0,0-1-.46l-0.18-.07c-0.18-.06-1.76-0.69-2.49-1a8.82,8.82,0,0,1-1.87-1.46,0.35,0.35,0,0,0-.1.2,2,2,0,0,1-.15.76,4.89,4.89,0,0,0-.36,1h0c0,0.12.33,0.66,0.37,0.76h0l0,0L26,25.19h0l0.16,0h0.17l0.08,0A0.16,0.16,0,0,1,26.51,25v0l0.05-.06,0-.05-0.18-.06a0.28,0.28,0,0,1-.21-0.13,0.42,0.42,0,0,1-.05-0.17,0.21,0.21,0,0,1,0-.08,0.53,0.53,0,0,1,.2-0.22,3.88,3.88,0,0,1,.87-0.51h0a1.19,1.19,0,0,1,.51.2,12.47,12.47,0,0,0,1.19.94,6.06,6.06,0,0,0,1.36.6,11.54,11.54,0,0,1,1.4.28,2.33,2.33,0,0,0,.6.09,0.71,0.71,0,0,0,.54-0.18M37,26l4.07-1.16-2.16-.45-0.37.09,0.1,0.66a0.08,0.08,0,0,1-.15,0l-0.23-.63-0.91.21-0.29.78a0.08,0.08,0,0,1-.15,0L37,24.81l-2.1.49Zm-2.28-.13,2.2,0.74V26.12l-2.2-.72v0.46Zm2.35,0.77,4.24-1.25V24.92l-4.24,1.2v0.5ZM37,26.78L34.63,26l-0.05-.07V25.29a0.08,0.08,0,0,1,0-.06l0,0,2.42-.57,0.14-1a0.28,0.28,0,0,1-.15-0.28v0l-0.06-1a0.52,0.52,0,0,1-.12-0.14l0,0a0.52,0.52,0,0,0-.25-0.07,3.75,3.75,0,0,0-.91.36,4.2,4.2,0,0,1-1,.18h0a7.28,7.28,0,0,1-1.74-1.44h0A0.08,0.08,0,0,1,33,21.13s0.28,0.29.61,0.6c0-.35-0.08-1.19-0.08-1.64a1.56,1.56,0,0,1,0-.26,0.08,0.08,0,1,1,.15,0,1.47,1.47,0,0,0,0,.22c0,0.55.09,1.78,0.09,1.78h0a3.44,3.44,0,0,0,.84.63,10.1,10.1,0,0,0,.57-2.13s0.05-.49.1-1.18h0a0.08,0.08,0,0,1,.08-0.07,0.08,0.08,0,0,1,.07.08c0,0.69-.1,1.18-0.1,1.18a10.05,10.05,0,0,1-.57,2.12,3.93,3.93,0,0,0,.86-0.17,3.53,3.53,0,0,1,1-.37,0.65,0.65,0,0,1,.2,0,1.09,1.09,0,0,1,0-.16c0-.1,0-0.19,0-0.26a2.77,2.77,0,0,1,.37-0.87c0-.08.1-0.26,0.17-0.48l0,0a0.21,0.21,0,0,1-.17.1,0.24,0.24,0,0,1-.2-0.18,0.13,0.13,0,0,1,0-.08,1.15,1.15,0,0,1,.13-0.42l0-.07a0.53,0.53,0,0,1-.26.07H36.69a1.17,1.17,0,0,1-.38-0.23l-0.23-.2A0.25,0.25,0,0,1,36,19.08a0.16,0.16,0,0,1,.14-0.14,0.16,0.16,0,0,1,0,0,0.14,0.14,0,0,1,.15-0.12h0.1a0.68,0.68,0,0,1,.27.27l0.06,0,0.1-.07h0v0a0.65,0.65,0,0,0,0-.11h0a4.34,4.34,0,0,1,.13-0.6A0.79,0.79,0,0,1,37.08,18l0,0a1.44,1.44,0,0,1-.13-0.58,1.18,1.18,0,0,1,.29-0.76c0-.06,0-0.62,0-1,0-.06,0-0.11,0-0.15s0.2-1,.36-1.8a0.08,0.08,0,0,1,.09-0.06,0.08,0.08,0,0,1,.06.09c-0.16.74-.35,1.62-0.36,1.77s0,0.08,0,.14c0,0.25,0,.62,0,0.82a1.92,1.92,0,0,1,.51-0.33h0a0.08,0.08,0,0,1,.1,0,0.08,0.08,0,0,1,0,.1,1.36,1.36,0,0,0-.84,1.1,1.25,1.25,0,0,0,.1.47h0l0,0,0.27-.24a0.6,0.6,0,0,1,.41-0.18,0.46,0.46,0,0,1,.2,0,1.65,1.65,0,0,1,.53-0.82,1.5,1.5,0,0,0,.16-0.36H38.7a0.08,0.08,0,0,1-.08-0.05s-0.17-.58-0.25-0.92a0.49,0.49,0,0,1,0-.11,1.48,1.48,0,0,1,.44-0.88A0.86,0.86,0,0,0,38.94,14v0a1.29,1.29,0,0,1-.2-0.51,2.72,2.72,0,0,1,0-.41v0h0a0.33,0.33,0,0,1-.13-0.24,0.26,0.26,0,0,1,0-.07,0.12,0.12,0,0,0,0,0,0.72,0.72,0,0,0,0-.14l-0.88-.42a0.3,0.3,0,0,1-.13.21,1,1,0,0,1-.29.21,0.63,0.63,0,0,1-.23,0H36.94l-0.06,0-0.07-.13a0.65,0.65,0,0,1-.22-0.52,4.44,4.44,0,0,1-1.13-.14,1.35,1.35,0,0,1,.06.2,1.23,1.23,0,0,1,0,.31c0,0.06,0,.12,0,0.18a1.34,1.34,0,0,1-.34.76,0.75,0.75,0,0,1-.27,0A1.42,1.42,0,0,1,34,13a0.84,0.84,0,0,0-.38-0.33,2.53,2.53,0,0,0-1,2.18,4,4,0,0,0,0,.52l0.17,0.08a1.38,1.38,0,0,1,0-.18A0.39,0.39,0,0,1,33,14.9l0,0,0.15-.15a0.84,0.84,0,0,1,.36-0.29,0.43,0.43,0,0,0,.21-0.15A0.79,0.79,0,0,1,34.29,14h0.09a6.61,6.61,0,0,1,1.13.16c0.06,0,.32.23,0.47,0.31l0.07,0h0.07l0-1.39A0.08,0.08,0,0,1,36.17,13a0.08,0.08,0,0,1,.08.08l0,1.42a0.46,0.46,0,0,1,.32.27,0.32,0.32,0,0,1,.1.23,0.36,0.36,0,0,1,0,.15,0.9,0.9,0,0,1,.36.36,0.84,0.84,0,0,1,0,.25,0.41,0.41,0,0,1-.3.42l-0.36,0a0.72,0.72,0,0,1-.25.39c0,0.1,0,.38,0,0.51a0.21,0.21,0,0,1-.24.18H35.83a0.35,0.35,0,0,1-.2.19s-0.12.08-.23,0.11a0.76,0.76,0,0,1-.2.13l-0.17,0a1.07,1.07,0,0,1-.7-0.28,2,2,0,0,1-.24-0.38h0A0.08,0.08,0,1,1,34.24,17a2,2,0,0,0,.21.35,0.94,0.94,0,0,0,.58.22l0.12,0c0.08,0,.09-0.09.21-0.13h0l-0.09-.08a0.08,0.08,0,0,1,.1-0.12l0.1,0.08,0,0,0.07,0,0.06-.08a0.23,0.23,0,0,1-.15-0.16h0a0.06,0.06,0,0,1,0-.06,0.08,0.08,0,0,1,.13,0h0l0.05,0,0.08,0h0.1c0.07,0,.09,0,0.09,0s0-.55,0-0.55l0-.06a0.58,0.58,0,0,0,.22-0.35,0.55,0.55,0,0,0,0-.1H36.15a0.15,0.15,0,0,0-.1,0,3.28,3.28,0,0,1-.46.27l-0.19.06h0a0.82,0.82,0,0,1-.42.35L34,17c0.07,0.27.13,0.57,0.13,0.57a2.5,2.5,0,0,1,.07.33,0,0,0,0,1,0,0,1.49,1.49,0,0,1-1,1.48h0a1.92,1.92,0,0,1-1.17.7,4.73,4.73,0,0,1,.35.89c0,0.13.2,0.73,0.35,1.2l0.2,0.6a1.21,1.21,0,0,1,.18.58,1,1,0,0,1,0,.18h0l0,0a4.77,4.77,0,0,1,.33.49,1.07,1.07,0,0,1,.11.52,5.56,5.56,0,0,1,0,.58,1.15,1.15,0,0,1-.44.59,0.86,0.86,0,0,1-.66.24,2.54,2.54,0,0,1-.64-0.1,11.62,11.62,0,0,0-1.37-.27A6,6,0,0,1,28.91,25a11.93,11.93,0,0,1-1.24-1,1.12,1.12,0,0,0-.42-0.16h0a6.19,6.19,0,0,0-.77.48,0.4,0.4,0,0,0-.14.15v0a0.35,0.35,0,0,0,0,.11,0.17,0.17,0,0,0,.12.05l0.23,0.08a0.1,0.1,0,0,1,.07.1,0.51,0.51,0,0,1-.2.29h0s0,0,0,.07a0.22,0.22,0,0,1-.2.15H26.21v0h0l-0.21,0a0.36,0.36,0,0,1-.16-0.19h0v0l0-.08-0.12-.23a2.34,2.34,0,0,1-.2-0.44,0.14,0.14,0,0,1,0,0,4.54,4.54,0,0,1,.37-1.06,1.93,1.93,0,0,0,.13-0.71,0.51,0.51,0,0,1,.14-0.3,1.49,1.49,0,0,1-.37-1,1.91,1.91,0,0,1,0-.37l0,0a1.54,1.54,0,0,1-.24-0.67,3.42,3.42,0,0,1-.45.3H25a0.62,0.62,0,0,1-.65-0.69,4.62,4.62,0,0,1,.07-0.59,0.93,0.93,0,0,1,.47-0.57l-0.24,0a0.81,0.81,0,0,1-.22-0.19,0.7,0.7,0,0,0-.56-0.13,0.2,0.2,0,0,1-.13,0l-0.42-.1a0.76,0.76,0,0,1-.44-0.21,0.21,0.21,0,0,1,0-.06h0l-0.52-.36a0.39,0.39,0,0,1-.14-0.29,0.39,0.39,0,0,1,.1-0.25,6.25,6.25,0,0,0,1-1.38,10.76,10.76,0,0,0,.23-1.83,2.08,2.08,0,0,1,.66-1.54,1.22,1.22,0,0,1-.21-0.62,0.53,0.53,0,0,1,.1-0.32L23.81,11a0.82,0.82,0,0,1-.16-0.52,0.34,0.34,0,0,1,.09-0.26c0.12-.1.48-0.53,0.47-0.52a2.22,2.22,0,0,1,1.17-1.17l0-.18a1.11,1.11,0,0,1,.66-0.67c0.19-.1.43-0.59,0.71-0.76a6.53,6.53,0,0,1,1.42-.4,3.17,3.17,0,0,1,.65-0.05,8,8,0,0,1,.83,0h0.09a2,2,0,0,1,.7.15,0.5,0.5,0,0,1,.25-0.37l0.09,0a1,1,0,0,1,.78-0.41,0.7,0.7,0,0,1,.76-0.35,2.75,2.75,0,0,1,.52,0h0.18a1.92,1.92,0,0,1,1,.35h0.08a0.8,0.8,0,0,1,.64.48,0.5,0.5,0,0,1,.3.51,1.59,1.59,0,0,1-.05.36,0.29,0.29,0,0,1-.3.25h0a0.53,0.53,0,0,1-.17,0,0.5,0.5,0,0,0-.06.12,8.12,8.12,0,0,0-.32.9,0.2,0.2,0,0,1-.18.19,0.25,0.25,0,0,1-.12,0l-0.09.08a0.45,0.45,0,0,1-.19,0,0.34,0.34,0,0,1-.14.11l-0.05.06a0.2,0.2,0,0,1-.19.2h0A1.31,1.31,0,0,1,32.71,9l-0.34-.19a1.08,1.08,0,0,1-.16.58,0.08,0.08,0,0,1,0,0v0a2,2,0,0,1,0,.37,0.25,0.25,0,0,1-.13.12,1.61,1.61,0,0,1,.51.51h0l0.17,0,0.16,0,0.42,0.06,0.4,0.07,0.06,0.05a0.15,0.15,0,0,1,0,0,0.32,0.32,0,0,1-.24.22L33.3,11l0.06,0.09a0.26,0.26,0,0,1,0,.14,0.37,0.37,0,0,1-.16.27,0.69,0.69,0,0,1,0,.1,0.43,0.43,0,0,1-.2.4,0.68,0.68,0,0,1-.38.12,1.19,1.19,0,0,1-.58-0.2h0l-0.74,0a1.22,1.22,0,0,1-1-.77,0.44,0.44,0,0,1-.06-0.24,1.07,1.07,0,0,1,0-.15L29.76,11l0,0a4,4,0,0,1,.44,1.42v0.06a4.47,4.47,0,0,0,.2,1.29,2.6,2.6,0,0,0,.38.8h0a0.69,0.69,0,0,1,.4.17,1.6,1.6,0,0,0,.36.19,0.46,0.46,0,0,1,.18.12,7.14,7.14,0,0,1,.76.25,4.26,4.26,0,0,1,0-.45,2.73,2.73,0,0,1,1-2.29,0.27,0.27,0,0,1,0-.15,2.08,2.08,0,0,1,.45-0.76,1.14,1.14,0,0,0,0-.32,10.3,10.3,0,0,1,.34-1.18,0.83,0.83,0,0,1,.29-0.3,0.59,0.59,0,0,1,.54-0.35H35.2a0.63,0.63,0,0,1,.23,0h0.1A1.92,1.92,0,0,1,36,9.33h0a0.59,0.59,0,0,1,.38.19,0.58,0.58,0,0,1,.29.26,0.39,0.39,0,0,1,.25.3h0a0.35,0.35,0,0,1,.13.18,0.42,0.42,0,0,1,.16.17c0.08-.19.21-0.48,0.24-0.52a1.68,1.68,0,0,0,.2-0.86,2.75,2.75,0,0,0-.21-1h0a0.83,0.83,0,0,0-.26.21h0A0.46,0.46,0,0,1,37,8.4a1.62,1.62,0,0,1-.38.11,1,1,0,0,1-.49.29,0.56,0.56,0,0,1-.32.1,0.76,0.76,0,0,1-.4-0.12S35,8.37,34.95,8.28h0a0.26,0.26,0,0,1-.26.08h0a0.38,0.38,0,0,1-.35-0.2,0.09,0.09,0,0,1,0,0,0.44,0.44,0,0,1,.27-0.22,1.61,1.61,0,0,1,.61-0.2h0.06a1,1,0,0,1,.15-0.58,1.22,1.22,0,0,1,.4-0.25,0.82,0.82,0,0,1-.07-0.34A1,1,0,0,1,36,5.9a1.22,1.22,0,0,1,.74-0.58l0.43,0a1.23,1.23,0,0,1,.65-0.21,0.92,0.92,0,0,1,.45.12,3.87,3.87,0,0,1,.32-0.32,3.31,3.31,0,0,1,.65-0.21h0.13a1.31,1.31,0,0,1,.89.3,0.65,0.65,0,0,1,.53.3,3.22,3.22,0,0,1,.31.77s0,0,0,0S41,6.3,41,6.32h0a0.25,0.25,0,0,1,0,.05,2.71,2.71,0,0,1-.06.49,3.72,3.72,0,0,1,1.73,1.5,2,2,0,0,1,.26.68c0,0.07,0,.09,0,0.1a1.87,1.87,0,0,1,.48.5,5,5,0,0,1,.67,0,3.78,3.78,0,0,1,.69.06h0.18a1.14,1.14,0,0,1,.4.07l0.16,0h0.17a1.72,1.72,0,0,1,1.09.34l0.5-.15,0.22,0a1.24,1.24,0,0,1,1.21,1.21,1.35,1.35,0,0,1-.3.71h0a13.48,13.48,0,0,1,.67,3.29,12.55,12.55,0,0,1,.08,1.45,18.9,18.9,0,0,1-.72,4.78,2.53,2.53,0,0,0-.07.6,2,2,0,0,0,.56,1.64,0.08,0.08,0,0,1,0,.15s-1.37.15-2.12,0.15H46.66l-0.64,0c-1,0-1.94-.08-2.26-0.15,0,0,0,0,0,0a2.44,2.44,0,0,1,.37.68h0a0,0,0,0,1,0,0,0.77,0.77,0,0,1-.31.42c-0.09.07-.26,0.13-0.34,0.18a0.4,0.4,0,0,1-.21,0H43.09A1.57,1.57,0,0,1,42.74,25a1.76,1.76,0,0,1-.32,0h-0.1a0.45,0.45,0,0,1-.27-0.5,0.49,0.49,0,0,1,0-.06,0.78,0.78,0,0,1,0-.21,2.07,2.07,0,0,1,.14-0.35,1.82,1.82,0,0,0,.09-0.27h0c-0.34-.05-0.49-0.19-0.75-1.05L41.37,22a2.63,2.63,0,0,1-.19-1,2.71,2.71,0,0,1,.26-1.12c0.09-.23.58-1.18,0.58-1.18l0.29-.62,0-.07-0.66,0h0a3.82,3.82,0,0,1-.4,1.69l-0.68,1a0.75,0.75,0,0,0-.05.33c0,0.06,0,.12,0,0.15h0a0,0,0,0,1,0,0,1.39,1.39,0,0,1-.06.28,0.16,0.16,0,0,0,0,0,0.74,0.74,0,0,0,.16.37,1.82,1.82,0,0,1,.29.34,0.21,0.21,0,0,1,0,.08,0.55,0.55,0,0,1-.33.42,1.43,1.43,0,0,1-.56.08,4.18,4.18,0,0,1-.5,0,0.41,0.41,0,0,1-.36-0.44,0.4,0.4,0,0,1,0-.09s0.15-.45.17-0.53a1,1,0,0,0,0-.21c0-.08,0-0.16,0-0.21a0.13,0.13,0,0,1,0,0,1.62,1.62,0,0,1,.29-0.71,1,1,0,0,0,.09-0.51c0-.11,0-0.19,0-0.24s0-.07,0-0.14c0-.26,0-0.82,0-1.17h0c-0.54,1-1.36,2-1.38,2.05a0.7,0.7,0,0,0,0,.25,3.12,3.12,0,0,0,.11.68,1.14,1.14,0,0,1,0,.26,1.09,1.09,0,0,1-.22.65h0l0.27,1.81,0.39-.09,2.51,0.52a0.08,0.08,0,0,1,.06.07h0v0.62a0.08,0.08,0,0,1-.05.07l-4.36,1.28h0Z"/><path class="cls-2" d="M42.78,21.84a0.69,0.69,0,0,1-.64-0.55,0.7,0.7,0,0,1,.27-0.47,0.07,0.07,0,0,1,.09.11,0.6,0.6,0,0,0-.21.36c0,0.12.09,0.28,0.54,0.42a0.07,0.07,0,0,1,0,.14h0"/><path class="cls-2" d="M48.36,21.38a0.08,0.08,0,0,1-.07-0.09,2.23,2.23,0,0,0,0-.25c0-.78-0.19-2.64-0.19-3.89a5.4,5.4,0,0,1,.05-0.86,5.93,5.93,0,0,0,.08-1,6.16,6.16,0,0,0-.08-1,0.08,0.08,0,0,1,.06-0.09,0.08,0.08,0,0,1,.09.06,6.4,6.4,0,0,1,.09,1.08,6.22,6.22,0,0,1-.09,1,5.1,5.1,0,0,0-.05.84c0,1.23.19,3.09,0.19,3.89,0,0.11,0,.2,0,0.27a0.08,0.08,0,0,1-.08.07h0"/><path class="cls-2" d="M45.87,11.42a0.08,0.08,0,0,1,0-.11l0.62-.62a0.08,0.08,0,0,1,.11.11L46,11.42l-0.05,0-0.06,0"/><path class="cls-2" d="M36.56,10.79a0.08,0.08,0,0,1,0-.1,0.49,0.49,0,0,0,.2-0.16,3.37,3.37,0,0,0-.47-0.28,0.19,0.19,0,0,1-.13-0.17,0.28,0.28,0,0,1,.12-0.2,0.08,0.08,0,0,1,.11,0,0.08,0.08,0,0,1,0,.11,0.31,0.31,0,0,0-.06.08l0,0a4.06,4.06,0,0,1,.55.33l0,0.08a0.53,0.53,0,0,1-.31.31h0a0.08,0.08,0,0,1-.07,0m6.53,1.49a0.74,0.74,0,0,0-.8-0.83H42.13A0.08,0.08,0,0,1,42,11.41a0.08,0.08,0,0,1,.06-0.09,0.94,0.94,0,0,1,.2,0,0.9,0.9,0,0,1,1,1,0.08,0.08,0,0,1-.07.08h0a0.08,0.08,0,0,1-.08-0.07m-7.31.87a2.24,2.24,0,0,1-.45,0A0.08,0.08,0,0,1,35.27,13,0.08,0.08,0,0,1,35.37,13a2.28,2.28,0,0,0,.42,0,1,1,0,0,0,1-.61,0.08,0.08,0,0,1,.1-0.05,0.08,0.08,0,0,1,0,.1,1.11,1.11,0,0,1-1.16.72h0M42.24,14A0.08,0.08,0,0,1,42.31,14l1.4-.07a1.46,1.46,0,0,0,.47-0.15,0.08,0.08,0,0,1,.08.13,1.53,1.53,0,0,1-.54.17l-1.4.07h0A0.08,0.08,0,0,1,42.24,14m-0.36.31a0.08,0.08,0,0,1,0-.1,5.42,5.42,0,0,0,.2-0.82h0a0.08,0.08,0,1,1,.15,0,5.35,5.35,0,0,1-.21.85,0.08,0.08,0,0,1-.07,0h0m-4.65,1.4a0.08,0.08,0,0,1,0-.1,5.34,5.34,0,0,1,.95-1.9,0.08,0.08,0,0,1,.06.14,2.39,2.39,0,0,0-.54.94c-0.18.44-.32,0.87-0.32,0.87a0.08,0.08,0,0,1-.07.05h0m-8.1.42s-0.24-.75-0.41-1.57a5.43,5.43,0,0,1-.12-1.1,3.11,3.11,0,0,1,0-.32h0a0.08,0.08,0,1,1,.15,0,2.79,2.79,0,0,0,0,.3,5.24,5.24,0,0,0,.11,1.07c0.17,0.81.4,1.56,0.41,1.56a0.08,0.08,0,0,1-.05.1h0a0.08,0.08,0,0,1-.07-0.05m14.16,0.62a8.35,8.35,0,0,1-.06-1c0-.15,0-0.23,0-0.23a0.08,0.08,0,0,1,.08-0.07,0.08,0.08,0,0,1,.07.08s0,0.08,0,.22a7.9,7.9,0,0,0,.06.94,0.08,0.08,0,0,1-.07.09h0a0.08,0.08,0,0,1-.08-0.07m-12.82.66a0.08,0.08,0,0,1,0-.11,1.45,1.45,0,0,1,1.11-.42h0.57a0.08,0.08,0,0,1,.08.08,0.08,0.08,0,0,1-.08.08H31.56a1.29,1.29,0,0,0-1,.36,0.08,0.08,0,0,1-.06,0l0,0m3.47,0a3.06,3.06,0,0,0-1.45-1.08,0.08,0.08,0,0,1,0-.1,0.08,0.08,0,0,1,.1,0,3.09,3.09,0,0,1,1.55,1.18,0.08,0.08,0,0,1,0,.1h0a0.08,0.08,0,0,1-.07-0.05m-1.56,4.2a0.08,0.08,0,0,1,0-.11,4.34,4.34,0,0,0,.9-1c0.14-.28.26-0.6,0.26-0.6a7.3,7.3,0,0,0,.31-1.25h0a0.08,0.08,0,1,1,.15,0A7.34,7.34,0,0,1,33.67,20s-0.12.32-.26,0.6a4.19,4.19,0,0,1-.94,1.1l-0.05,0a0.08,0.08,0,0,1-.06,0m14.43,0.57s-0.92-1-1.75-1.89a0.08,0.08,0,0,1,.11-0.1C46,21.16,46.9,22.1,46.9,22.11a0.08,0.08,0,0,1,0,.11l-0.05,0-0.05,0"/><path class="cls-2" d="M34,17.41a0.08,0.08,0,0,1,0-.11l0.15-.13a0.08,0.08,0,0,1,.11,0,0.08,0.08,0,0,1,0,.11l-0.15.13,0,0a0.08,0.08,0,0,1-.06,0"/><path class="cls-2" d="M12.25,53.44a0.14,0.14,0,0,0,.15.18h0.51A0.15,0.15,0,0,0,13,53.51L13.62,50h0l1.43,3.62a0.14,0.14,0,0,0,.13.09h0.14a0.13,0.13,0,0,0,.13-0.09L16.9,50h0l0.58,3.52a0.16,0.16,0,0,0,.15.11h0.51a0.13,0.13,0,0,0,.14-0.18l-1-5.3A0.16,0.16,0,0,0,17.2,48H17.08a0.15,0.15,0,0,0-.13.09l-1.64,4h0l-1.65-4A0.16,0.16,0,0,0,13.49,48H13.36a0.16,0.16,0,0,0-.14.12Zm7.23,0a0.15,0.15,0,0,0,.15.15h0.52a0.16,0.16,0,0,0,.15-0.15V48.25a0.16,0.16,0,0,0-.15-0.15H19.62a0.15,0.15,0,0,0-.15.15v5.22Zm2.35,0a0.15,0.15,0,0,0,.15.15h2.81a0.15,0.15,0,0,0,.15-0.15V53a0.15,0.15,0,0,0-.15-0.15H22.64V48.25a0.16,0.16,0,0,0-.15-0.15H22a0.15,0.15,0,0,0-.15.15v5.22Zm3.72,0.15H26a0.2,0.2,0,0,0,.18-0.12l0.48-1.08h2.58l0.49,1.08a0.18,0.18,0,0,0,.18.12h0.5a0.14,0.14,0,0,0,.13-0.2l-2.4-5.3A0.18,0.18,0,0,0,28,48H28a0.18,0.18,0,0,0-.13.09l-2.42,5.3a0.14,0.14,0,0,0,.13.2M27,51.74l1-2.16h0l1,2.16H27Zm4.36,1.73a0.16,0.16,0,0,0,.15.15H32a0.15,0.15,0,0,0,.15-0.15V49.63h0l3.42,4.07h0.2a0.15,0.15,0,0,0,.15-0.14v-5.3a0.16,0.16,0,0,0-.15-0.15h-0.5a0.15,0.15,0,0,0-.15.15V52h0l-3.42-4h-0.2a0.15,0.15,0,0,0-.15.14v5.3Zm5.71-2.6A2.83,2.83,0,1,0,39.9,48a2.81,2.81,0,0,0-2.83,2.84m0.79,0a2,2,0,1,1,2,2,2.07,2.07,0,0,1-2-2M45,53.62h2.74a0.14,0.14,0,0,0,.15-0.14V53.14A0.15,0.15,0,0,0,47.78,53H46.91V48.41a0.15,0.15,0,0,0-.14-0.15H46.38l-1.17,1.06a0.15,0.15,0,0,0,0,.16l0.09,0.28a0.12,0.12,0,0,0,.17.06l0.69-.35V53H45a0.15,0.15,0,0,0-.15.15v0.34a0.14,0.14,0,0,0,.15.14m3.78-1.44a1.85,1.85,0,0,0,3.64,0,1.58,1.58,0,0,0-1-1.32v0a1.45,1.45,0,0,0,.81-1.21,1.7,1.7,0,0,0-3.36,0,1.45,1.45,0,0,0,.81,1.22v0a1.66,1.66,0,0,0-1,1.32m1.82-1.69a0.86,0.86,0,0,1-.88-0.84,0.83,0.83,0,0,1,.86-0.83,0.84,0.84,0,0,1,.91.83,0.87,0.87,0,0,1-.88.84m-1,1.7a1,1,0,0,1,2,0,0.91,0.91,0,0,1-1,.86,0.92,0.92,0,0,1-1-.86m3.63-.71c0,1.21.6,2.21,1.86,2.21a1.79,1.79,0,0,0,1.76-1.8,1.64,1.64,0,0,0-1.65-1.71,2.23,2.23,0,0,0-1,.29,3.21,3.21,0,0,1,1.88-1.74c0.15,0,.18-0.13.14-0.23l-0.13-.32a0.14,0.14,0,0,0-.2-0.09,3.74,3.74,0,0,0-2.61,3.4M55.12,53A1.28,1.28,0,0,1,54,51.43a1.26,1.26,0,0,1,1.08-.6,1.08,1.08,0,0,1,0,2.16m2.36,0a2,2,0,0,0,1.62.7,1.58,1.58,0,0,0,1.78-1.5,1.55,1.55,0,0,0-1-1.31v0a1.45,1.45,0,0,0,.81-1.24,1.5,1.5,0,0,0-1.65-1.44,2.14,2.14,0,0,0-1.46.69,0.14,0.14,0,0,0,0,.21l0.29,0.26a0.13,0.13,0,0,0,.2,0A1.2,1.2,0,0,1,59,48.88a0.86,0.86,0,0,1,.9.86,0.93,0.93,0,0,1-1.11.84H58.39a0.14,0.14,0,0,0-.16.17v0.34a0.15,0.15,0,0,0,.15.17h0.44a1,1,0,0,1,1.25.92,0.91,0.91,0,0,1-1,.85A1.57,1.57,0,0,1,58,52.54a0.14,0.14,0,0,0-.21,0l-0.31.28a0.14,0.14,0,0,0,0,.19"/><path class="cls-2" d="M0,44.15a0.21,0.21,0,0,0,.21.21h1a0.22,0.22,0,0,0,.21-0.21V41.5H2.87a2.51,2.51,0,1,0,0-5H0.21a0.21,0.21,0,0,0-.21.21v7.45Zm1.46-4V37.87H2.77A1.12,1.12,0,0,1,3.93,39a1.16,1.16,0,0,1-1.16,1.17H1.46Zm4.77,0.3a4,4,0,1,0,4-4.06,4,4,0,0,0-4,4.06m1.46,0A2.58,2.58,0,1,1,10.28,43,2.6,2.6,0,0,1,7.7,40.43m7.81,3.72a0.21,0.21,0,0,0,.21.21h4.12a0.21,0.21,0,0,0,.21-0.21V43.22A0.21,0.21,0,0,0,19.85,43H17V36.69a0.22,0.22,0,0,0-.21-0.21h-1a0.21,0.21,0,0,0-.21.21v7.45Zm6,0a0.22,0.22,0,0,0,.21.21h1A0.22,0.22,0,0,0,23,44.15V36.69a0.22,0.22,0,0,0-.21-0.21h-1a0.22,0.22,0,0,0-.21.21v7.45Zm4.83,0a0.22,0.22,0,0,0,.21.21h1a0.22,0.22,0,0,0,.21-0.21V37.83h1.72a0.21,0.21,0,0,0,.21-0.21V36.69a0.21,0.21,0,0,0-.21-0.21H24.64a0.21,0.21,0,0,0-.21.21v0.92a0.21,0.21,0,0,0,.21.21h1.72v6.32Zm4.69,0a0.21,0.21,0,0,0,.21.21h4.58a0.21,0.21,0,0,0,.21-0.21V43.22A0.21,0.21,0,0,0,35.85,43H32.52V41H35.3a0.21,0.21,0,0,0,.21-0.21V39.89a0.22,0.22,0,0,0-.21-0.21H32.52V37.83h3.33a0.21,0.21,0,0,0,.21-0.21V36.69a0.21,0.21,0,0,0-.21-0.21H31.27a0.21,0.21,0,0,0-.21.21v7.45Zm6.16-3.72a4,4,0,0,0,4.06,4A3.86,3.86,0,0,0,44,43.38a0.21,0.21,0,0,0,0-.3l-0.7-.72a0.21,0.21,0,0,0-.28,0,2.7,2.7,0,0,1-1.72.64,2.61,2.61,0,0,1,0-5.22,2.66,2.66,0,0,1,1.73.66,0.18,0.18,0,0,0,.28,0L44,37.73a0.21,0.21,0,0,0,0-.32,3.81,3.81,0,0,0-2.72-1,4.05,4.05,0,0,0-4.06,4.06m8.3,3.72a0.22,0.22,0,0,0,.21.21h1A0.21,0.21,0,0,0,47,44.15V39.31h0l4.71,5.17H52a0.21,0.21,0,0,0,.21-0.2V36.69A0.22,0.22,0,0,0,52,36.48h-1a0.21,0.21,0,0,0-.21.21v4.65h0l-4.68-5H45.73a0.21,0.21,0,0,0-.21.2v7.58Zm8.59,0a0.22,0.22,0,0,0,.21.21h1a0.22,0.22,0,0,0,.21-0.21V36.69a0.22,0.22,0,0,0-.21-0.21h-1a0.22,0.22,0,0,0-.21.21v7.45Zm2.95-3.72a4,4,0,0,0,4.06,4,3.86,3.86,0,0,0,2.74-1.09,0.21,0.21,0,0,0,0-.3l-0.7-.72a0.21,0.21,0,0,0-.28,0,2.7,2.7,0,0,1-1.72.64,2.61,2.61,0,0,1,0-5.22,2.66,2.66,0,0,1,1.73.66,0.18,0.18,0,0,0,.28,0l0.69-.71a0.21,0.21,0,0,0,0-.32,3.81,3.81,0,0,0-2.72-1,4.06,4.06,0,0,0-4.06,4.06m7.85,0a4,4,0,1,0,4-4.06,4,4,0,0,0-4,4.06m1.46,0A2.58,2.58,0,1,1,68.94,43a2.6,2.6,0,0,1-2.58-2.58"/></svg>