<svg id="Layer_1" data-name="Layer 1" xmlns="http://www.w3.org/2000/svg" xmlns:xlink="http://www.w3.org/1999/xlink" viewBox="0 0 135.13 50.41"><defs><style>.cls-1{fill:#dce7f3;}.cls-2{fill:#f4b960;}.cls-3{fill:#e66f32;}.cls-4{fill:#e43c41;}.cls-5{fill:#bdd041;}.cls-6{fill:#6db54c;}.cls-7{fill:#aedae6;}.cls-8{fill:#56b8de;}.cls-9{fill:#00b1d5;}.cls-10{fill:url(#radial-gradient);}.cls-11{fill:#221f1f;}.cls-12{fill:#fff;}</style><radialGradient id="radial-gradient" cx="18.65" cy="33.74" r="4.83" gradientUnits="userSpaceOnUse"><stop offset="0" stop-color="#797979"/><stop offset="1" stop-color="#4c4c4c"/></radialGradient></defs><title>logo_browserstack</title><path class="cls-1" d="M6.4,11.35a3.11,3.11,0,0,0,2.33,1.07,1.7,1.7,0,0,0,2-1.58c0-1-.65-1.31-1.43-1.66l-1.2-.54a2.17,2.17,0,0,1-1.6-2A2.07,2.07,0,0,1,8.77,4.73,3,3,0,0,1,11,5.68l-0.32.37a2.51,2.51,0,0,0-1.88-.82A1.5,1.5,0,0,0,7,6.65,1.78,1.78,0,0,0,8.4,8.17L9.59,8.7a2.22,2.22,0,0,1,1.66,2.1,2.25,2.25,0,0,1-2.53,2.12,3.48,3.48,0,0,1-2.66-1.19Z"/><path class="cls-1" d="M12.73,7h0.53v3.62c0,1.22.38,1.8,1.31,1.8a2.4,2.4,0,0,0,1.86-1.18V7H17v5.76H16.51l-0.06-1h0a2.57,2.57,0,0,1-2,1.1c-1.19,0-1.74-.72-1.74-2.21V7Z"/><path class="cls-1" d="M19.69,13.28v2.1H19.16V7h0.46l0,0.72h0a3.37,3.37,0,0,1,2-.86C23.19,6.88,24,8,24,9.82c0,2-1.19,3.11-2.54,3.11a3,3,0,0,1-1.73-.71v1.07Zm1.7-.83c1.16,0,2-1.08,2-2.64s-0.5-2.47-1.82-2.47a3,3,0,0,0-1.88.95v3.42A2.82,2.82,0,0,0,21.39,12.46Z"/><path class="cls-1" d="M26.22,13.28v2.1H25.69V7h0.46l0,0.72h0a3.37,3.37,0,0,1,2-.86c1.54,0,2.3,1.15,2.3,2.94,0,2-1.19,3.11-2.54,3.11a3,3,0,0,1-1.73-.71v1.07Zm1.7-.83c1.16,0,2-1.08,2-2.64s-0.5-2.47-1.82-2.47a3,3,0,0,0-1.88.95v3.42A2.82,2.82,0,0,0,27.92,12.46Z"/><path class="cls-1" d="M34.31,6.88c1.39,0,2.59,1.1,2.59,3a2.7,2.7,0,0,1-2.59,3c-1.38,0-2.58-1.1-2.58-3S32.94,6.88,34.31,6.88Zm0,5.58c1.16,0,2-1,2-2.54s-0.88-2.57-2-2.57-2,1-2,2.57S33.15,12.46,34.31,12.46Z"/><path class="cls-1" d="M38.64,7h0.46l0,1.07h0a2,2,0,0,1,1.63-1.21,1.18,1.18,0,0,1,.58.12l-0.12.48a1.26,1.26,0,0,0-.53-0.1,1.92,1.92,0,0,0-1.57,1.48v3.92H38.64V7Z"/><path class="cls-1" d="M42.57,7.48h-0.9V7.07l0.91,0,0.07-1.67h0.46V7h1.67V7.48H43.11v3.75c0,0.73.18,1.22,1,1.22a1.93,1.93,0,0,0,.72-0.18l0.14,0.43a3.22,3.22,0,0,1-.94.22c-1.12,0-1.44-.71-1.44-1.74V7.48Z"/><path class="cls-1" d="M48.09,6.88c1.37,0,2.21,1,2.21,2.66a2.61,2.61,0,0,1,0,.43H46.12a2.26,2.26,0,0,0,2.17,2.49A2.55,2.55,0,0,0,49.84,12l0.22,0.41a3.21,3.21,0,0,1-1.81.56,2.72,2.72,0,0,1-2.66-3A2.75,2.75,0,0,1,48.09,6.88Zm1.7,2.69c0-1.48-.66-2.23-1.69-2.23a2.17,2.17,0,0,0-2,2.23h3.67Z"/><path class="cls-1" d="M53.93,6.88a2.66,2.66,0,0,1,1.74.71l0-1.06V4.16h0.53v8.62H55.72l0-.74h0a2.7,2.7,0,0,1-1.87.89c-1.45,0-2.39-1.07-2.39-3A2.74,2.74,0,0,1,53.93,6.88Zm-0.1,5.58a2.6,2.6,0,0,0,1.81-.95V8.09A2.44,2.44,0,0,0,54,7.35c-1.15,0-2,1.12-2,2.57S52.62,12.46,53.84,12.46Z"/><path class="cls-1" d="M60.78,4.16H61.3V6.65l0,1.13a3.29,3.29,0,0,1,2-.9c1.54,0,2.3,1.15,2.3,2.94,0,2-1.19,3.11-2.54,3.11a3,3,0,0,1-1.73-.68h0l-0.06.54H60.78V4.16ZM63,12.46c1.16,0,2-1.08,2-2.64s-0.5-2.47-1.82-2.47a3,3,0,0,0-1.88.95v3.42A2.77,2.77,0,0,0,63,12.46Z"/><path class="cls-1" d="M67.08,14.91a1.8,1.8,0,0,0,1.48-1.52l0.16-.5L66.34,7h0.58l1.39,3.62c0.18,0.48.41,1.1,0.62,1.61h0c0.18-.5.37-1.13,0.53-1.61L70.74,7h0.54L69,13.5c-0.32,1-.9,1.91-1.93,1.91a1.47,1.47,0,0,1-.59-0.12l0.12-.47A1.35,1.35,0,0,0,67.08,14.91Z"/><circle class="cls-2" cx="18.47" cy="36.29" r="13.72"/><circle class="cls-3" cx="17.09" cy="34.91" r="12.33"/><circle class="cls-4" cx="18.74" cy="33.26" r="10.69"/><circle class="cls-5" cx="19.59" cy="34.12" r="9.84"/><circle class="cls-6" cx="18.87" cy="34.84" r="9.11"/><circle class="cls-7" cx="17.43" cy="33.4" r="7.67"/><circle class="cls-8" cx="18.68" cy="32.15" r="6.42"/><circle class="cls-9" cx="19.46" cy="32.93" r="5.64"/><circle class="cls-10" cx="18.65" cy="33.74" r="4.83"/><circle class="cls-11" cx="18.65" cy="33.74" r="4.83"/><ellipse class="cls-12" cx="20.57" cy="31.98" rx="1.49" ry="0.95" transform="translate(-17.03 37.66) rotate(-65.83)"/><path class="cls-12" d="M36.6,31a0.16,0.16,0,0,1,.17-0.16h4.32c2.46,0,3.62,1.14,3.62,2.86A2.37,2.37,0,0,1,43.36,36v0a2.53,2.53,0,0,1,1.55,2.42c0,2.13-1.45,3.16-4,3.16H36.77a0.16,0.16,0,0,1-.17-0.16V31ZM41,35.34a1.43,1.43,0,1,0,0-2.83H38.71a0.09,0.09,0,0,0-.1.09v2.64a0.09,0.09,0,0,0,.1.09H41ZM38.71,40h2.42a1.51,1.51,0,1,0,0-3H38.71a0.09,0.09,0,0,0-.1.09v2.79A0.09,0.09,0,0,0,38.71,40Z"/><path class="cls-12" d="M46.32,41.61a0.16,0.16,0,0,1-.17-0.16V34.16A0.16,0.16,0,0,1,46.32,34h1.57a0.16,0.16,0,0,1,.17.16v0.65h0a2.42,2.42,0,0,1,2.13-1,2.6,2.6,0,0,1,1.72.63c0.09,0.08.1,0.14,0,.22l-0.9,1.06a0.16,0.16,0,0,1-.24,0,2.35,2.35,0,0,0-1.21-.36c-1.08,0-1.55.71-1.55,1.93v4.12a0.16,0.16,0,0,1-.17.16H46.32Z"/><path class="cls-12" d="M52.29,39.68A5.23,5.23,0,0,1,52,37.81a5.23,5.23,0,0,1,.27-1.88,3.33,3.33,0,0,1,3.4-2.1,3.32,3.32,0,0,1,3.38,2.1,5.23,5.23,0,0,1,.27,1.88,5.23,5.23,0,0,1-.27,1.88,3.32,3.32,0,0,1-3.38,2.1A3.33,3.33,0,0,1,52.29,39.68Zm4.93-.47a4,4,0,0,0,.17-1.41,4,4,0,0,0-.17-1.41,1.52,1.52,0,0,0-1.54-1,1.54,1.54,0,0,0-1.55,1A4,4,0,0,0,54,37.81a4,4,0,0,0,.17,1.41,1.54,1.54,0,0,0,1.55,1A1.52,1.52,0,0,0,57.22,39.21Z"/><path class="cls-12" d="M67.62,41.61a0.21,0.21,0,0,1-.2-0.16l-1.59-4.86h0l-1.6,4.86a0.21,0.21,0,0,1-.2.16h-1.4a0.21,0.21,0,0,1-.2-0.16l-2.59-7.29A0.11,0.11,0,0,1,59.9,34h1.64a0.2,0.2,0,0,1,.22.16l1.59,5h0l1.57-5A0.23,0.23,0,0,1,65.18,34h1.23a0.23,0.23,0,0,1,.22.16l1.67,5h0l1.5-5A0.2,0.2,0,0,1,70.06,34H71.7a0.11,0.11,0,0,1,.12.16l-2.59,7.29a0.21,0.21,0,0,1-.2.16h-1.4Z"/><path class="cls-12" d="M72.15,40.58a0.14,0.14,0,0,1,0-.22l1-.95a0.17,0.17,0,0,1,.24,0,4,4,0,0,0,2.41.87c1,0,1.52-.38,1.52-0.9s-0.29-.74-1.37-0.84L75,38.47c-1.67-.16-2.53-0.95-2.53-2.24,0-1.47,1.14-2.4,3.19-2.4a5.26,5.26,0,0,1,3.09.93,0.15,0.15,0,0,1,0,.22L78,35.91a0.18,0.18,0,0,1-.24,0,4.2,4.2,0,0,0-2.15-.63c-0.82,0-1.25.33-1.25,0.79s0.29,0.71,1.35.81L76.59,37c1.72,0.16,2.54,1,2.54,2.23,0,1.52-1.19,2.57-3.45,2.57A5.34,5.34,0,0,1,72.15,40.58Z"/><path class="cls-12" d="M80.44,39.67a5.49,5.49,0,0,1-.29-1.86,5.64,5.64,0,0,1,.27-1.88,3.76,3.76,0,0,1,6.74,0,6.33,6.33,0,0,1,.27,2.29,0.16,0.16,0,0,1-.19.16H82.19a0.09,0.09,0,0,0-.1.09,1.56,1.56,0,0,0,.12.58A1.8,1.8,0,0,0,84,40.2,2.58,2.58,0,0,0,86,39.48a0.18,0.18,0,0,1,.26,0l1,0.82a0.14,0.14,0,0,1,0,.22,4.51,4.51,0,0,1-3.38,1.29A3.33,3.33,0,0,1,80.44,39.67Zm5-3.36a1.82,1.82,0,0,0-3.23,0,1.8,1.8,0,0,0-.1.65,0.09,0.09,0,0,0,.1.09h3.23a0.09,0.09,0,0,0,.1-0.09A1.8,1.8,0,0,0,85.41,36.31Z"/><path class="cls-12" d="M88.86,41.61a0.16,0.16,0,0,1-.17-0.16V34.16A0.16,0.16,0,0,1,88.86,34h1.57a0.16,0.16,0,0,1,.17.16v0.65h0a2.42,2.42,0,0,1,2.13-1,2.6,2.6,0,0,1,1.72.63c0.09,0.08.1,0.14,0,.22l-0.9,1.06a0.16,0.16,0,0,1-.24,0,2.35,2.35,0,0,0-1.21-.36c-1.08,0-1.55.71-1.55,1.93v4.12a0.16,0.16,0,0,1-.17.16H88.86Z"/><path class="cls-12" d="M94.8,40.36a0.16,0.16,0,0,1,0-.24L95.83,39a0.16,0.16,0,0,1,.24,0,5.43,5.43,0,0,0,3.16,1.14c1.38,0,2.18-.65,2.18-1.55s-0.51-1.28-2.12-1.48L98.68,37c-2.24-.28-3.5-1.28-3.5-3.06,0-1.94,1.54-3.24,3.93-3.24a6.74,6.74,0,0,1,3.76,1.07,0.14,0.14,0,0,1,0,.22l-0.82,1.17a0.18,0.18,0,0,1-.24,0,5.18,5.18,0,0,0-2.78-.84c-1.18,0-1.83.6-1.83,1.44s0.56,1.25,2.13,1.45L100,35.34c2.24,0.28,3.46,1.26,3.46,3.11s-1.49,3.33-4.37,3.33A6.87,6.87,0,0,1,94.8,40.36Z"/><path class="cls-12" d="M107,41.74c-1.66,0-2.29-.74-2.29-2.23v-4a0.09,0.09,0,0,0-.1-0.09H104a0.16,0.16,0,0,1-.17-0.16V34.2A0.16,0.16,0,0,1,104,34h0.55a0.09,0.09,0,0,0,.1-0.09V31.86a0.16,0.16,0,0,1,.17-0.16h1.57a0.16,0.16,0,0,1,.17.16v2.08a0.09,0.09,0,0,0,.1.09h1.09a0.16,0.16,0,0,1,.17.16v1.06a0.16,0.16,0,0,1-.17.16H106.7a0.09,0.09,0,0,0-.1.09v3.95a0.63,0.63,0,0,0,.77.71h0.43a0.16,0.16,0,0,1,.17.16v1.26a0.16,0.16,0,0,1-.17.16H107Z"/><path class="cls-12" d="M114.21,41.61a0.16,0.16,0,0,1-.17-0.16V40.9h0a2.79,2.79,0,0,1-2.32.88c-1.5,0-2.77-.73-2.77-2.32S110.2,37,112.23,37h1.67A0.09,0.09,0,0,0,114,37V36.59c0-.87-0.44-1.26-1.83-1.26a3,3,0,0,0-1.88.52,0.16,0.16,0,0,1-.24,0l-0.63-1a0.14,0.14,0,0,1,0-.21,5.09,5.09,0,0,1,2.92-.74c2.51,0,3.43.79,3.43,2.65v5a0.16,0.16,0,0,1-.17.16h-1.43ZM114,39.05V38.47a0.09,0.09,0,0,0-.1-0.09h-1.37c-1.23,0-1.78.32-1.78,1s0.49,0.95,1.42.95C113.36,40.35,114,39.92,114,39.05Z"/><path class="cls-12" d="M117.32,39.68a5.56,5.56,0,0,1-.26-1.88,5.56,5.56,0,0,1,.26-1.88,3.32,3.32,0,0,1,3.4-2.1A3.71,3.71,0,0,1,123.57,35a0.15,0.15,0,0,1,0,.22l-1.08.87a0.16,0.16,0,0,1-.24,0,1.92,1.92,0,0,0-1.52-.66,1.51,1.51,0,0,0-1.54,1,4.16,4.16,0,0,0-.17,1.41,4.25,4.25,0,0,0,.17,1.42,1.51,1.51,0,0,0,1.54,1,1.92,1.92,0,0,0,1.52-.66,0.16,0.16,0,0,1,.24,0l1.08,0.87a0.14,0.14,0,0,1,0,.22,3.75,3.75,0,0,1-2.85,1.17A3.32,3.32,0,0,1,117.32,39.68Z"/><path class="cls-12" d="M130.23,41.61a0.3,0.3,0,0,1-.27-0.16l-2.08-3.19-1.11,1.18v2a0.16,0.16,0,0,1-.17.16H125a0.16,0.16,0,0,1-.17-0.16V31a0.16,0.16,0,0,1,.17-0.16h1.57a0.16,0.16,0,0,1,.17.16v6.19l2.82-3.06a0.4,0.4,0,0,1,.32-0.16h1.74a0.09,0.09,0,0,1,.07.16l-2.61,2.78,3,4.52a0.1,0.1,0,0,1-.09.16h-1.79Z"/></svg>