<svg id="Layer_1" data-name="Layer 1" xmlns="http://www.w3.org/2000/svg" viewBox="0 0 110.05 28.39"><defs><style>.cls-1{fill:#dce7f3;}</style></defs><title>logocopy</title><path class="cls-1" d="M6.86,2.94a3.79,3.79,0,0,1,3.83,4A3.84,3.84,0,1,1,3,6.9,3.79,3.79,0,0,1,6.86,2.94Zm0,7.59A3.45,3.45,0,0,0,10.27,6.9a3.42,3.42,0,1,0-6.82,0A3.46,3.46,0,0,0,6.86,10.53ZM7,4.66a1.92,1.92,0,0,1,1.44.66l-0.28.31A1.6,1.6,0,0,0,7,5.1,1.64,1.64,0,0,0,5.34,6.9,1.67,1.67,0,0,0,6.95,8.83a2,2,0,0,0,1.38-.6L8.57,8.57a2.28,2.28,0,0,1-1.64.71A2.15,2.15,0,0,1,4.83,6.9,2.14,2.14,0,0,1,7,4.66Z"/><path class="cls-1" d="M14.19,10.43C16.7,7.87,18,6.44,18,5.11a1.55,1.55,0,0,0-1.67-1.7,2.4,2.4,0,0,0-1.79,1l-0.35-.34A2.89,2.89,0,0,1,16.35,3,2,2,0,0,1,18.5,5.1c0,1.52-1.39,3-3.51,5.24,0.42,0,.86-0.06,1.28-0.06h2.61v0.48h-4.7V10.43Z"/><path class="cls-1" d="M20,6.9C20,4.36,20.85,3,22.31,3S24.6,4.36,24.6,6.9s-0.83,4-2.29,4S20,9.45,20,6.9Zm4,0c0-2.34-.68-3.49-1.75-3.49S20.56,4.56,20.56,6.9s0.7,3.55,1.75,3.55S24.06,9.24,24.06,6.9Z"/><path class="cls-1" d="M26.2,10.29H28V3.94H26.63V3.58A4.63,4.63,0,0,0,28.1,3.1h0.43v7.2H30.2v0.47h-4V10.29Z"/><path class="cls-1" d="M35.68,4.06a1.64,1.64,0,0,0-1.3-.64c-1.21,0-2.25,1-2.28,3.78A2.6,2.6,0,0,1,34,6.13c1.34,0,2.13.83,2.13,2.37a2.24,2.24,0,0,1-2.1,2.4c-1.54,0-2.51-1.3-2.51-3.62C31.56,4.07,32.91,3,34.38,3A2.06,2.06,0,0,1,36,3.7Zm0,4.45A1.64,1.64,0,0,0,34,6.59a2.44,2.44,0,0,0-1.86,1.15c0.1,1.62.72,2.71,2,2.71A1.75,1.75,0,0,0,35.63,8.51Z"/><path class="cls-1" d="M41.9,3.34H39.39V2.86H45V3.34H42.46v7.42H41.9V3.34Z"/><path class="cls-1" d="M46.41,2.86h4.32V3.34H47v3h3.17V6.8H47v3.48h3.89v0.48H46.41V2.86Z"/><path class="cls-1" d="M52,6.78c0-2.49,1.35-4.07,3.26-4.07s3.25,1.57,3.25,4.07-1.35,4.13-3.25,4.13S52,9.29,52,6.78Zm5.94,0c0-2.18-1.08-3.56-2.67-3.56S52.55,4.6,52.55,6.78s1.08,3.62,2.69,3.62S57.91,9,57.91,6.78Z"/><path class="cls-1" d="M64.6,10.76L62.46,7.13H60.78v3.63H60.23V2.86h2.25c1.57,0,2.6.58,2.6,2.09a2.07,2.07,0,0,1-2,2.15l2.17,3.67H64.6ZM62.34,6.67c1.4,0,2.17-.56,2.17-1.73s-0.77-1.62-2.17-1.62H60.78V6.67h1.56Z"/><path class="cls-1" d="M66.87,2.86h4.32V3.34H67.42v3h3.17V6.8H67.42v3.48H71.3v0.48H66.87V2.86Z"/><path class="cls-1" d="M72.95,2.86h0.77L75.37,7.5,76,9.25h0L76.66,7.5,78.3,2.86h0.78v7.9H78.54V5.57c0-.65,0-1.48.07-2.13h0L78,5.17,76.25,9.9H75.77l-1.7-4.73L73.44,3.43h0c0,0.66.06,1.49,0.06,2.13v5.19h-0.5V2.86Z"/><path class="cls-1" d="M80.82,6.78c0-2.49,1.35-4.07,3.26-4.07s3.25,1.57,3.25,4.07S86,10.91,84.08,10.91,80.82,9.29,80.82,6.78Zm5.94,0c0-2.18-1.08-3.56-2.67-3.56S81.4,4.6,81.4,6.78s1.08,3.62,2.69,3.62S86.76,9,86.76,6.78Z"/><path class="cls-1" d="M7.08,22.45H4L3,25.16H2.46l2.79-7.9H5.81l2.78,7.9H8ZM6.92,22l-0.5-1.48c-0.31-.94-0.6-1.76-0.88-2.73h0c-0.28,1-.55,1.8-0.88,2.73L4.12,22H6.92Z"/><path class="cls-1" d="M9.77,17.26h0.55v7.42H14v0.48H9.77v-7.9Z"/><path class="cls-1" d="M15.29,17.26h0.55v7.42h3.63v0.48H15.29v-7.9Z"/><path class="cls-1" d="M27.56,25.16l-2.13-3.63H23.75v3.63H23.2v-7.9h2.25c1.57,0,2.6.58,2.6,2.09a2.07,2.07,0,0,1-2,2.15l2.17,3.67H27.56Zm-2.25-4.09c1.4,0,2.17-.56,2.17-1.73s-0.77-1.62-2.17-1.62H23.75v3.35h1.56Z"/><path class="cls-1" d="M29.83,17.26h0.55v7.9H29.83v-7.9Z"/><path class="cls-1" d="M35.62,17.11a2.83,2.83,0,0,1,2.15.95l-0.32.36a2.34,2.34,0,0,0-1.82-.8c-1.81,0-2.93,1.38-2.93,3.57s1.07,3.61,2.87,3.61a2.55,2.55,0,0,0,1.76-.6V21.74H35.44V21.28h2.41v3.13a3.16,3.16,0,0,1-2.34.9c-2,0-3.39-1.6-3.39-4.11S33.53,17.11,35.62,17.11Z"/><path class="cls-1" d="M39.79,17.26h0.55v3.47h4.22V17.26h0.55v7.9H44.57v-4H40.35v4H39.79v-7.9Z"/><path class="cls-1" d="M49.08,17.74H46.56V17.26h5.58v0.48H49.63v7.42H49.08V17.74Z"/><path class="cls-1" d="M52.75,23.73a3.12,3.12,0,0,0,2.33,1.07,1.7,1.7,0,0,0,2-1.58c0-1-.65-1.31-1.43-1.66L54.42,21a2.17,2.17,0,0,1-1.6-2,2.07,2.07,0,0,1,2.29-1.94,3,3,0,0,1,2.21.95L57,18.43a2.51,2.51,0,0,0-1.88-.82A1.5,1.5,0,0,0,53.38,19a1.78,1.78,0,0,0,1.37,1.52l1.2,0.53a2.22,2.22,0,0,1,1.66,2.1,2.25,2.25,0,0,1-2.53,2.12,3.48,3.48,0,0,1-2.66-1.19Z"/><path class="cls-1" d="M65.94,25.16L63.8,21.53H62.12v3.63H61.57v-7.9h2.25c1.57,0,2.6.58,2.6,2.09a2.07,2.07,0,0,1-2,2.15l2.17,3.67H65.94Zm-2.25-4.09c1.4,0,2.17-.56,2.17-1.73s-0.77-1.62-2.17-1.62H62.12v3.35h1.56Z"/><path class="cls-1" d="M68.21,17.26h4.32v0.48H68.76v3h3.17V21.2H68.76v3.48h3.89v0.48H68.21v-7.9Z"/><path class="cls-1" d="M74,23.73a3.12,3.12,0,0,0,2.33,1.07,1.7,1.7,0,0,0,2-1.58c0-1-.65-1.31-1.43-1.66L75.7,21a2.17,2.17,0,0,1-1.6-2,2.07,2.07,0,0,1,2.29-1.94,3,3,0,0,1,2.21.95l-0.32.37a2.51,2.51,0,0,0-1.88-.82A1.5,1.5,0,0,0,74.65,19,1.78,1.78,0,0,0,76,20.56l1.2,0.53a2.22,2.22,0,0,1,1.66,2.1,2.25,2.25,0,0,1-2.53,2.12,3.48,3.48,0,0,1-2.66-1.19Z"/><path class="cls-1" d="M80.46,17.26h4.32v0.48H81v3h3.17V21.2H81v3.48H84.9v0.48H80.46v-7.9Z"/><path class="cls-1" d="M90.91,25.16l-2.13-3.63H87.1v3.63H86.54v-7.9H88.8c1.57,0,2.6.58,2.6,2.09a2.07,2.07,0,0,1-2,2.15l2.17,3.67H90.91Zm-2.25-4.09c1.4,0,2.17-.56,2.17-1.73s-0.77-1.62-2.17-1.62H87.1v3.35h1.56Z"/><path class="cls-1" d="M91.93,17.26h0.59L94,21.88c0.3,1,.5,1.69.83,2.65h0c0.32-1,.54-1.69.84-2.65l1.46-4.62h0.55l-2.58,7.9h-0.6Z"/><path class="cls-1" d="M98.86,17.26h4.32v0.48H99.41v3h3.17V21.2H99.41v3.48h3.89v0.48H98.86v-7.9Z"/><path class="cls-1" d="M104.94,17.26h1.82c2.44,0,3.6,1.54,3.6,3.92s-1.16,4-3.59,4h-1.83v-7.9Zm1.76,7.44c2.15,0,3.08-1.45,3.08-3.51s-0.94-3.45-3.08-3.45h-1.21v7h1.21Z"/></svg>