<svg id="Layer_1" data-name="Layer 1" xmlns="http://www.w3.org/2000/svg" xmlns:xlink="http://www.w3.org/1999/xlink" viewBox="0 0 1035.53 425.9"><defs><style>.cls-1{fill:#231f20;}.cls-2{fill:#5c9ad2;}.cls-3,.cls-5,.cls-7,.cls-8{fill:none;stroke-miterlimit:10;}.cls-3,.cls-5{stroke-width:2.03px;}.cls-3{stroke:url(#linear-gradient);}.cls-4{fill:url(#linear-gradient-2);}.cls-5{stroke:url(#linear-gradient-3);}.cls-6{fill:url(#linear-gradient-4);}.cls-7,.cls-8{stroke:#5c9ad2;stroke-width:1.01px;}.cls-8{stroke-dasharray:2.03 2.03;}</style><linearGradient id="linear-gradient" x1="239.66" y1="117.73" x2="829.38" y2="117.73" gradientUnits="userSpaceOnUse"><stop offset="0" stop-color="#b2cfe4"/><stop offset="1" stop-color="#5c9ad2"/></linearGradient><linearGradient id="linear-gradient-2" x1="239.66" y1="197.46" x2="829.38" y2="197.46" xlink:href="#linear-gradient"/><linearGradient id="linear-gradient-3" x1="239.66" y1="300.07" x2="829.38" y2="300.07" xlink:href="#linear-gradient"/><linearGradient id="linear-gradient-4" x1="239.66" y1="220.39" x2="829.38" y2="220.39" xlink:href="#linear-gradient"/></defs><title>resmap1</title><path class="cls-1" d="M767.9,58.37h2.92c2,0,3.39.67,3.39,2.4a2.14,2.14,0,0,1-1.73,2.14V63a2.31,2.31,0,0,1,2.28,2.35c0,1.93-1.53,2.88-3.72,2.88H767.9V58.37Zm2.71,4.2c1.67,0,2.37-.6,2.37-1.7s-0.79-1.51-2.31-1.51h-1.52v3.21h1.46Zm0.25,4.65c1.68,0,2.67-.61,2.67-1.95s-0.94-1.77-2.67-1.77h-1.71v3.72h1.71Z"/><path class="cls-1" d="M776.47,60.92h1.25v4.46c0,1.37.4,2,1.36,2a2.48,2.48,0,0,0,2-1.23V60.92h1.23v7.29h-1l-0.11-1.14h0a3.08,3.08,0,0,1-2.4,1.32c-1.54,0-2.23-1-2.23-2.85V60.92Z"/><path class="cls-1" d="M784.54,66.56a3.27,3.27,0,0,0,2.14.87,1.22,1.22,0,0,0,1.44-1.14c0-.75-0.87-1.08-1.67-1.38-1-.37-2.17-0.87-2.17-2.1s0.93-2.07,2.5-2.07a3.64,3.64,0,0,1,2.26.83l-0.58.78a2.71,2.71,0,0,0-1.67-.64,1.13,1.13,0,0,0-1.33,1c0,0.67.79,0.95,1.62,1.26,1,0.39,2.22.83,2.22,2.21,0,1.19-.95,2.17-2.67,2.17a4.39,4.39,0,0,1-2.71-1Z"/><path class="cls-1" d="M790.79,58.62a0.86,0.86,0,1,1,.86.79A0.81,0.81,0,0,1,790.79,58.62ZM791,60.92h1.23v7.29H791V60.92Z"/><path class="cls-1" d="M794.71,60.92h1l0.1,1h0a3.44,3.44,0,0,1,2.44-1.23c1.53,0,2.22,1,2.22,2.85v4.62h-1.23V63.75c0-1.36-.42-1.95-1.38-1.95a2.79,2.79,0,0,0-2,1.13v5.28h-1.23V60.92Z"/><path class="cls-1" d="M805.64,60.74c1.86,0,2.91,1.33,2.91,3.42a4.43,4.43,0,0,1,0,.67h-4.92A2.43,2.43,0,0,0,806,67.4a3.3,3.3,0,0,0,1.81-.57l0.44,0.81a4.34,4.34,0,0,1-2.4.75,3.49,3.49,0,0,1-3.49-3.81C802.37,62.19,804,60.74,805.64,60.74ZM807.47,64c0-1.49-.66-2.31-1.8-2.31a2.28,2.28,0,0,0-2.1,2.31h3.9Z"/><path class="cls-1" d="M810.16,66.56a3.27,3.27,0,0,0,2.14.87,1.22,1.22,0,0,0,1.44-1.14c0-.75-0.87-1.08-1.67-1.38-1-.37-2.17-0.87-2.17-2.1s0.93-2.07,2.5-2.07a3.64,3.64,0,0,1,2.26.83l-0.58.78a2.71,2.71,0,0,0-1.67-.64,1.13,1.13,0,0,0-1.33,1c0,0.67.79,0.95,1.62,1.26,1,0.39,2.22.83,2.22,2.21,0,1.19-.95,2.17-2.67,2.17a4.39,4.39,0,0,1-2.71-1Z"/><path class="cls-1" d="M816.44,66.56a3.27,3.27,0,0,0,2.14.87A1.22,1.22,0,0,0,820,66.29c0-.75-0.87-1.08-1.67-1.38-1-.37-2.17-0.87-2.17-2.1s0.93-2.07,2.5-2.07a3.64,3.64,0,0,1,2.26.83l-0.58.78a2.71,2.71,0,0,0-1.67-.64,1.13,1.13,0,0,0-1.33,1c0,0.67.79,0.95,1.62,1.26,1,0.39,2.22.83,2.22,2.21,0,1.19-.95,2.17-2.67,2.17a4.39,4.39,0,0,1-2.71-1Z"/><path class="cls-1" d="M825.85,60.92h1.25v4.46c0,1.37.4,2,1.36,2a2.48,2.48,0,0,0,2-1.23V60.92h1.23v7.29h-1l-0.11-1.14h0a3.08,3.08,0,0,1-2.4,1.32c-1.55,0-2.24-1-2.24-2.85V60.92Z"/><path class="cls-1" d="M834.11,60.92h1l0.1,1h0a3.44,3.44,0,0,1,2.45-1.23c1.53,0,2.22,1,2.22,2.85v4.62h-1.23V63.75c0-1.36-.42-1.95-1.38-1.95a2.79,2.79,0,0,0-2,1.13v5.28h-1.23V60.92Z"/><path class="cls-1" d="M845,60.74a3,3,0,0,1,2,.84l-0.06-1.25v-2.8h1.25V68.21h-1l-0.11-.85h0a3.29,3.29,0,0,1-2.21,1c-1.83,0-3-1.38-3-3.81S843.29,60.74,845,60.74Zm0.12,6.62a2.46,2.46,0,0,0,1.86-1V62.54a2.54,2.54,0,0,0-1.77-.76c-1.17,0-2.1,1.13-2.1,2.79S843.8,67.35,845.08,67.35Z"/><path class="cls-1" d="M853.37,60.74c1.86,0,2.91,1.33,2.91,3.42a4.43,4.43,0,0,1,0,.67h-4.92a2.43,2.43,0,0,0,2.43,2.57,3.3,3.3,0,0,0,1.81-.57L856,67.64a4.34,4.34,0,0,1-2.4.75,3.49,3.49,0,0,1-3.49-3.81C850.1,62.19,851.71,60.74,853.37,60.74ZM855.2,64c0-1.49-.66-2.31-1.8-2.31A2.28,2.28,0,0,0,851.3,64h3.9Z"/><path class="cls-1" d="M858.08,60.92h1l0.1,1.32h0a2.49,2.49,0,0,1,2.07-1.5,1.8,1.8,0,0,1,.78.15L861.86,62a2.06,2.06,0,0,0-.71-0.12c-0.62,0-1.35.45-1.84,1.68v4.68h-1.23V60.92Z"/><path class="cls-1" d="M862.94,66.56a3.27,3.27,0,0,0,2.14.87,1.22,1.22,0,0,0,1.44-1.14c0-.75-0.87-1.08-1.67-1.38-1-.37-2.17-0.87-2.17-2.1s0.93-2.07,2.5-2.07a3.64,3.64,0,0,1,2.26.83l-0.58.78a2.71,2.71,0,0,0-1.67-.64,1.13,1.13,0,0,0-1.33,1c0,0.67.79,0.95,1.62,1.26,1,0.39,2.22.83,2.22,2.21,0,1.19-.95,2.17-2.67,2.17a4.39,4.39,0,0,1-2.71-1Z"/><path class="cls-1" d="M869.63,61.92h-1.08V61l1.14-.08,0.15-2h1v2h2v1h-2v4c0,0.9.29,1.41,1.13,1.41a2.66,2.66,0,0,0,.83-0.19l0.24,0.93a4.51,4.51,0,0,1-1.35.27c-1.56,0-2.08-1-2.08-2.43v-4Z"/><path class="cls-1" d="M878.35,63.59c0-.93-0.31-1.83-1.5-1.83a3.93,3.93,0,0,0-2.17.78l-0.5-.85a5.41,5.41,0,0,1,2.87-.95c1.79,0,2.54,1.18,2.54,3v4.47h-1l-0.1-.87h0a4,4,0,0,1-2.42,1,2,2,0,0,1-2.14-2.07C873.86,64.73,875.24,63.93,878.35,63.59Zm-2,3.81a3,3,0,0,0,2-1v-2c-2.44.3-3.27,0.9-3.27,1.83A1.12,1.12,0,0,0,876.35,67.4Z"/><path class="cls-1" d="M881.9,60.92h1l0.1,1h0a3.44,3.44,0,0,1,2.44-1.23c1.53,0,2.22,1,2.22,2.85v4.62h-1.23V63.75c0-1.36-.42-1.95-1.38-1.95a2.79,2.79,0,0,0-2,1.13v5.28H881.9V60.92Z"/><path class="cls-1" d="M892.75,60.74a3,3,0,0,1,2,.84l-0.06-1.25v-2.8H896V68.21h-1l-0.11-.85h0a3.29,3.29,0,0,1-2.21,1c-1.83,0-3-1.38-3-3.81S891.08,60.74,892.75,60.74Zm0.12,6.62a2.46,2.46,0,0,0,1.86-1V62.54a2.54,2.54,0,0,0-1.77-.76c-1.17,0-2.1,1.13-2.1,2.79S891.59,67.35,892.87,67.35Z"/><path class="cls-1" d="M898.21,58.62a0.86,0.86,0,1,1,.86.79A0.81,0.81,0,0,1,898.21,58.62Zm0.22,2.29h1.23v7.29h-1.23V60.92Z"/><path class="cls-1" d="M902.12,60.92h1l0.1,1h0a3.44,3.44,0,0,1,2.45-1.23c1.53,0,2.22,1,2.22,2.85v4.62h-1.23V63.75c0-1.36-.42-1.95-1.38-1.95a2.79,2.79,0,0,0-2,1.13v5.28h-1.23V60.92Z"/><path class="cls-1" d="M910.84,68V67.89a1.34,1.34,0,0,1-.65-1.18,1.71,1.71,0,0,1,.79-1.35V65.3a2.57,2.57,0,0,1,1.8-4.56,2.92,2.92,0,0,1,1,.18h2.54v0.95h-1.5a2.11,2.11,0,0,1,.6,1.5,2.5,2.5,0,0,1-2.67,2.54,2.56,2.56,0,0,1-1.09-.25,1.1,1.1,0,0,0-.46.87c0,0.47.3,0.79,1.29,0.79h1.41c1.69,0,2.55.53,2.55,1.74s-1.42,2.52-3.69,2.52c-1.78,0-3-.7-3-2A2.11,2.11,0,0,1,910.84,68ZM913,70.71c1.39,0,2.31-.72,2.31-1.49s-0.53-.9-1.47-0.9h-1.26a3.56,3.56,0,0,1-.95-0.12,1.53,1.53,0,0,0-.75,1.23C910.85,70.22,911.65,70.71,913,70.71Zm1.36-7.38a1.55,1.55,0,1,0-3.09,0A1.56,1.56,0,1,0,914.33,63.33Z"/><path class="cls-1" d="M839.3,75.53h1.23v2.91l0,1.32a3.6,3.6,0,0,1,2.28-1c1.89,0,2.89,1.46,2.89,3.71,0,2.49-1.48,3.94-3.15,3.94a3.3,3.3,0,0,1-2.08-.9h0l-0.11.72h-1V75.53Zm3,9.83c1.2,0,2.08-1.1,2.08-2.9,0-1.6-.54-2.68-1.92-2.68a3,3,0,0,0-2,1v3.82A2.85,2.85,0,0,0,842.32,85.35Z"/><path class="cls-1" d="M847.63,88.32a1.88,1.88,0,0,0,1.65-1.56l0.17-.54-2.92-7.3h1.28l1.48,4c0.23,0.63.48,1.38,0.71,2.05H850c0.21-.66.42-1.41,0.62-2.05l1.3-4h1.2l-2.75,7.89c-0.51,1.44-1.26,2.54-2.73,2.54a2.42,2.42,0,0,1-.85-0.15l0.24-1A2.14,2.14,0,0,0,847.63,88.32Z"/><path class="cls-1" d="M860.24,78.74a3,3,0,0,1,2,.84l-0.06-1.25v-2.8h1.25V86.21h-1l-0.11-.85h0a3.29,3.29,0,0,1-2.21,1c-1.83,0-3-1.38-3-3.81S858.58,78.74,860.24,78.74Zm0.12,6.62a2.46,2.46,0,0,0,1.86-1V80.54a2.54,2.54,0,0,0-1.77-.76c-1.17,0-2.1,1.13-2.1,2.79S859.09,85.35,860.36,85.35Z"/><path class="cls-1" d="M868.66,78.74c1.86,0,2.91,1.33,2.91,3.42a4.43,4.43,0,0,1,0,.67H866.6A2.43,2.43,0,0,0,869,85.4a3.3,3.3,0,0,0,1.81-.57l0.44,0.81a4.34,4.34,0,0,1-2.4.75,3.49,3.49,0,0,1-3.49-3.81C865.39,80.19,867,78.74,868.66,78.74ZM870.49,82c0-1.49-.66-2.31-1.8-2.31a2.28,2.28,0,0,0-2.1,2.31h3.9Z"/><path class="cls-1" d="M873.17,84.56a3.27,3.27,0,0,0,2.14.87,1.22,1.22,0,0,0,1.44-1.14c0-.75-0.87-1.08-1.67-1.38-1-.37-2.17-0.87-2.17-2.1s0.93-2.07,2.5-2.07a3.64,3.64,0,0,1,2.26.83l-0.58.78a2.71,2.71,0,0,0-1.67-.64,1.13,1.13,0,0,0-1.33,1c0,0.67.79,0.95,1.62,1.26,1,0.39,2.22.83,2.22,2.21,0,1.19-.95,2.17-2.67,2.17a4.39,4.39,0,0,1-2.71-1Z"/><path class="cls-1" d="M879.43,76.62a0.86,0.86,0,1,1,.86.79A0.81,0.81,0,0,1,879.43,76.62Zm0.22,2.29h1.23v7.29h-1.23V78.92Z"/><path class="cls-1" d="M883.85,86V85.89a1.34,1.34,0,0,1-.65-1.18,1.71,1.71,0,0,1,.79-1.35V83.3a2.57,2.57,0,0,1,1.8-4.56,2.92,2.92,0,0,1,1,.18h2.54v0.95h-1.5a2.11,2.11,0,0,1,.6,1.5,2.5,2.5,0,0,1-2.67,2.54,2.56,2.56,0,0,1-1.09-.25,1.1,1.1,0,0,0-.46.87c0,0.47.3,0.79,1.29,0.79h1.41c1.69,0,2.55.53,2.55,1.74s-1.42,2.52-3.69,2.52c-1.78,0-3-.7-3-2A2.11,2.11,0,0,1,883.85,86ZM886,88.71c1.39,0,2.31-.72,2.31-1.49s-0.53-.9-1.47-0.9h-1.26a3.56,3.56,0,0,1-.95-0.12,1.53,1.53,0,0,0-.75,1.23C883.87,88.22,884.66,88.71,886,88.71Zm1.36-7.38a1.55,1.55,0,1,0-3.09,0A1.56,1.56,0,1,0,887.35,81.33Z"/><path class="cls-1" d="M890.9,78.92h1l0.1,1h0a3.44,3.44,0,0,1,2.44-1.23c1.53,0,2.22,1,2.22,2.85v4.62h-1.23V81.75c0-1.36-.42-1.95-1.38-1.95a2.79,2.79,0,0,0-2,1.13v5.28H890.9V78.92Z"/><path class="cls-1" d="M901.84,78.74c1.86,0,2.91,1.33,2.91,3.42a4.43,4.43,0,0,1,0,.67h-4.92a2.43,2.43,0,0,0,2.43,2.57,3.3,3.3,0,0,0,1.81-.57l0.44,0.81a4.34,4.34,0,0,1-2.4.75,3.49,3.49,0,0,1-3.49-3.81C898.57,80.19,900.17,78.74,901.84,78.74ZM903.67,82c0-1.49-.66-2.31-1.8-2.31a2.28,2.28,0,0,0-2.1,2.31h3.9Z"/><path class="cls-1" d="M906.54,78.92h1l0.1,1.32h0a2.49,2.49,0,0,1,2.07-1.5,1.8,1.8,0,0,1,.78.15L910.32,80a2.06,2.06,0,0,0-.71-0.12c-0.62,0-1.35.45-1.84,1.68v4.68h-1.23V78.92Z"/><path class="cls-1" d="M911.4,84.56a3.27,3.27,0,0,0,2.14.87A1.22,1.22,0,0,0,915,84.29c0-.75-0.87-1.08-1.67-1.38-1-.37-2.17-0.87-2.17-2.1s0.93-2.07,2.5-2.07a3.64,3.64,0,0,1,2.26.83l-0.58.78a2.71,2.71,0,0,0-1.67-.64,1.13,1.13,0,0,0-1.33,1c0,0.67.79,0.95,1.62,1.26,1,0.39,2.22.83,2.22,2.21,0,1.19-.95,2.17-2.67,2.17a4.39,4.39,0,0,1-2.71-1Z"/><path class="cls-2" d="M111,206.81v3.33h3.2v1.44H111v3.36h-1.5v-3.36h-3.2v-1.44h3.2v-3.33H111Z"/><path class="cls-2" d="M114.39,47.51v1.54h-4V47.51h4Z"/><path class="cls-2" d="M113.15,376.32v1.33h-3.44v-1.33h3.44Z"/><path class="cls-1" d="M820.06,319.62h3c2.17,0,3.63.74,3.63,2.9s-1.49,3-3.63,3h-1.77v3.9h-1.26v-9.84Zm2.87,4.92c1.72,0,2.55-.63,2.55-2s-0.85-1.89-2.55-1.89h-1.61v3.92h1.61Z"/><path class="cls-1" d="M830.92,322c1.86,0,2.91,1.33,2.91,3.42a4.43,4.43,0,0,1,0,.67h-4.92a2.43,2.43,0,0,0,2.43,2.57,3.3,3.3,0,0,0,1.81-.57l0.44,0.81a4.34,4.34,0,0,1-2.4.75,3.49,3.49,0,0,1-3.49-3.81C827.65,323.45,829.25,322,830.92,322Zm1.83,3.29c0-1.49-.66-2.31-1.8-2.31a2.28,2.28,0,0,0-2.1,2.31h3.9Z"/><path class="cls-1" d="M835.63,322.17h1l0.1,1.32h0a2.49,2.49,0,0,1,2.07-1.5,1.8,1.8,0,0,1,.78.15l-0.24,1.08a2.06,2.06,0,0,0-.71-0.12c-0.62,0-1.35.45-1.84,1.68v4.68h-1.23v-7.29Z"/><path class="cls-1" d="M843.65,322a3,3,0,0,1,2.13.87l-0.62.79a2.2,2.2,0,0,0-1.47-.65c-1.32,0-2.28,1.14-2.28,2.82s0.92,2.79,2.25,2.79a2.59,2.59,0,0,0,1.71-.74l0.55,0.81a3.61,3.61,0,0,1-2.37.94c-1.93,0-3.42-1.39-3.42-3.81A3.53,3.53,0,0,1,843.65,322Z"/><path class="cls-1" d="M849.94,322c1.86,0,2.91,1.33,2.91,3.42a4.43,4.43,0,0,1,0,.67h-4.92a2.43,2.43,0,0,0,2.43,2.57,3.3,3.3,0,0,0,1.81-.57l0.44,0.81a4.34,4.34,0,0,1-2.4.75,3.49,3.49,0,0,1-3.49-3.81C846.67,323.45,848.27,322,849.94,322Zm1.83,3.29c0-1.49-.66-2.31-1.8-2.31a2.28,2.28,0,0,0-2.1,2.31h3.9Z"/><path class="cls-1" d="M854.42,319.88a0.86,0.86,0,1,1,.86.79A0.81,0.81,0,0,1,854.42,319.88Zm0.22,2.29h1.23v7.29h-1.23v-7.29Z"/><path class="cls-1" d="M857.29,322.17h1.28l1.38,4.14c0.21,0.72.45,1.45,0.67,2.14h0.06c0.21-.69.45-1.42,0.66-2.14l1.38-4.14h1.22l-2.58,7.29h-1.44Z"/><path class="cls-1" d="M868,322c1.86,0,2.91,1.33,2.91,3.42a4.43,4.43,0,0,1,0,.67H866a2.43,2.43,0,0,0,2.43,2.57,3.3,3.3,0,0,0,1.81-.57l0.44,0.81a4.34,4.34,0,0,1-2.4.75,3.49,3.49,0,0,1-3.49-3.81C864.74,323.45,866.35,322,868,322Zm1.83,3.29c0-1.49-.66-2.31-1.8-2.31a2.28,2.28,0,0,0-2.1,2.31h3.9Z"/><path class="cls-1" d="M875.36,322a3,3,0,0,1,2,.84l-0.06-1.25v-2.8h1.25v10.68h-1l-0.11-.85h0a3.29,3.29,0,0,1-2.21,1c-1.83,0-3-1.38-3-3.81S873.69,322,875.36,322Zm0.12,6.62a2.46,2.46,0,0,0,1.86-1v-3.81a2.54,2.54,0,0,0-1.77-.76c-1.17,0-2.1,1.13-2.1,2.79S874.2,328.61,875.48,328.61Z"/><path class="cls-1" d="M883,322.17h1.28l1.38,4.14c0.21,0.72.45,1.45,0.67,2.14h0.06c0.21-.69.45-1.42,0.66-2.14l1.38-4.14h1.22l-2.58,7.29h-1.44Z"/><path class="cls-1" d="M894.9,324.84c0-.93-0.31-1.83-1.5-1.83a3.93,3.93,0,0,0-2.17.78l-0.5-.85a5.41,5.41,0,0,1,2.87-.95c1.79,0,2.54,1.18,2.54,3v4.47h-1l-0.1-.87h0a4,4,0,0,1-2.42,1,2,2,0,0,1-2.14-2.07C890.42,326,891.8,325.19,894.9,324.84Zm-2,3.81a3,3,0,0,0,2-1v-2c-2.44.3-3.27,0.9-3.27,1.83A1.12,1.12,0,0,0,892.91,328.65Z"/><path class="cls-1" d="M898.46,318.78h1.23v9.3c0,0.39.17,0.54,0.34,0.54a1,1,0,0,0,.27,0l0.17,0.93a1.65,1.65,0,0,1-.71.12c-0.93,0-1.31-.58-1.31-1.65v-9.21Z"/><path class="cls-1" d="M902.18,322.17h1.25v4.46c0,1.37.4,2,1.36,2a2.48,2.48,0,0,0,2-1.23v-5.17H908v7.29h-1l-0.11-1.14h0a3.08,3.08,0,0,1-2.4,1.32c-1.54,0-2.23-1-2.23-2.85v-4.62Z"/><path class="cls-1" d="M913.18,322c1.86,0,2.91,1.33,2.91,3.42a4.43,4.43,0,0,1,0,.67h-4.92a2.43,2.43,0,0,0,2.43,2.57,3.3,3.3,0,0,0,1.81-.57l0.44,0.81a4.34,4.34,0,0,1-2.4.75,3.49,3.49,0,0,1-3.49-3.81C909.91,323.45,911.51,322,913.18,322Zm1.83,3.29c0-1.49-.66-2.31-1.8-2.31a2.28,2.28,0,0,0-2.1,2.31H915Z"/><path class="cls-1" d="M773.95,340c1.79,0,3.38,1.39,3.38,3.84s-1.59,3.81-3.37,3.81-3.37-1.39-3.37-3.81S772.16,340,773.95,340Zm0,6.63c1.26,0,2.1-1.12,2.1-2.79s-0.84-2.82-2.1-2.82-2.1,1.14-2.1,2.82S772.7,346.62,773.95,346.62Z"/><path class="cls-1" d="M782.53,337.79a2,2,0,0,0-.83-0.18c-0.69,0-1,.48-1,1.41v1.15h1.54v1h-1.54v6.29h-1.23v-6.29h-1v-0.93l1-.08V339c0-1.49.68-2.42,2.13-2.42a3.29,3.29,0,0,1,1.21.24Z"/><path class="cls-1" d="M789.29,340a3,3,0,0,1,2,.84l-0.06-1.25v-2.8h1.25v10.68h-1l-0.11-.85h0a3.29,3.29,0,0,1-2.21,1c-1.83,0-3-1.38-3-3.81S787.63,340,789.29,340Zm0.12,6.62a2.46,2.46,0,0,0,1.86-1v-3.81a2.54,2.54,0,0,0-1.77-.76c-1.17,0-2.1,1.13-2.1,2.79S788.14,346.61,789.41,346.61Z"/><path class="cls-1" d="M797.71,340c1.86,0,2.91,1.33,2.91,3.42a4.43,4.43,0,0,1,0,.67h-4.92a2.43,2.43,0,0,0,2.43,2.57,3.3,3.3,0,0,0,1.81-.57l0.44,0.81a4.34,4.34,0,0,1-2.4.75,3.49,3.49,0,0,1-3.49-3.81C794.44,341.45,796,340,797.71,340Zm1.83,3.29c0-1.49-.66-2.31-1.8-2.31a2.28,2.28,0,0,0-2.1,2.31h3.9Z"/><path class="cls-1" d="M802.22,345.81a3.27,3.27,0,0,0,2.14.87,1.22,1.22,0,0,0,1.44-1.14c0-.75-0.87-1.08-1.67-1.38-1-.37-2.17-0.87-2.17-2.1s0.93-2.07,2.5-2.07a3.64,3.64,0,0,1,2.26.83l-0.58.78a2.71,2.71,0,0,0-1.67-.64,1.13,1.13,0,0,0-1.33,1c0,0.67.79,0.95,1.62,1.26,1,0.39,2.22.83,2.22,2.21,0,1.19-.95,2.17-2.67,2.17a4.39,4.39,0,0,1-2.71-1Z"/><path class="cls-1" d="M808.48,337.88a0.86,0.86,0,1,1,.86.79A0.81,0.81,0,0,1,808.48,337.88Zm0.22,2.29h1.23v7.29H808.7v-7.29Z"/><path class="cls-1" d="M812.9,347.21v-0.06a1.34,1.34,0,0,1-.65-1.18,1.71,1.71,0,0,1,.79-1.35v-0.06a2.57,2.57,0,0,1,1.8-4.56,2.92,2.92,0,0,1,1,.18h2.54v0.95h-1.5a2.11,2.11,0,0,1,.6,1.5,2.5,2.5,0,0,1-2.67,2.54,2.56,2.56,0,0,1-1.09-.25,1.1,1.1,0,0,0-.46.87c0,0.47.3,0.79,1.29,0.79H816c1.69,0,2.55.53,2.55,1.74s-1.42,2.52-3.69,2.52c-1.78,0-3-.7-3-2A2.11,2.11,0,0,1,812.9,347.21ZM815,350c1.39,0,2.31-.72,2.31-1.49s-0.53-.9-1.47-0.9h-1.26a3.56,3.56,0,0,1-.95-0.12,1.53,1.53,0,0,0-.75,1.23C812.92,349.47,813.71,350,815,350Zm1.36-7.38a1.55,1.55,0,1,0-3.09,0A1.56,1.56,0,1,0,816.4,342.59Z"/><path class="cls-1" d="M820,340.17h1l0.1,1h0a3.44,3.44,0,0,1,2.44-1.23c1.53,0,2.22,1,2.22,2.85v4.62h-1.23V343c0-1.36-.42-1.95-1.38-1.95a2.79,2.79,0,0,0-2,1.13v5.28H820v-7.29Z"/><path class="cls-1" d="M831.19,336.78h1.23v2.91l0,1.32a3.6,3.6,0,0,1,2.28-1c1.89,0,2.89,1.46,2.89,3.71,0,2.49-1.48,3.94-3.15,3.94a3.3,3.3,0,0,1-2.08-.9h0l-0.11.72h-1V336.78Zm3,9.83c1.2,0,2.08-1.1,2.08-2.9,0-1.6-.54-2.68-1.92-2.68a3,3,0,0,0-2,1v3.82A2.85,2.85,0,0,0,834.2,346.61Z"/><path class="cls-1" d="M839.51,349.58a1.88,1.88,0,0,0,1.65-1.56l0.17-.54-2.92-7.3h1.28l1.48,4c0.23,0.63.48,1.38,0.71,2.05h0.06c0.21-.66.42-1.41,0.61-2.05l1.31-4H845l-2.75,7.89c-0.51,1.44-1.26,2.54-2.73,2.54a2.42,2.42,0,0,1-.85-0.15l0.24-1A2.14,2.14,0,0,0,839.51,349.58Z"/><path class="cls-1" d="M849.49,336.78h1.23v2.91l0,1.32a3.6,3.6,0,0,1,2.28-1c1.89,0,2.89,1.46,2.89,3.71,0,2.49-1.48,3.94-3.15,3.94a3.3,3.3,0,0,1-2.08-.9h0l-0.11.72h-1V336.78Zm3,9.83c1.2,0,2.08-1.1,2.08-2.9,0-1.6-.54-2.68-1.92-2.68a3,3,0,0,0-2,1v3.82A2.85,2.85,0,0,0,852.5,346.61Z"/><path class="cls-1" d="M857.71,340.17H859v4.46c0,1.37.4,2,1.36,2a2.48,2.48,0,0,0,2-1.23v-5.17h1.23v7.29h-1l-0.11-1.14h0a3.08,3.08,0,0,1-2.4,1.32c-1.54,0-2.23-1-2.23-2.85v-4.62Z"/><path class="cls-1" d="M865.78,345.81a3.27,3.27,0,0,0,2.14.87,1.22,1.22,0,0,0,1.44-1.14c0-.75-0.87-1.08-1.67-1.38-1-.37-2.17-0.87-2.17-2.1S866.45,340,868,340a3.64,3.64,0,0,1,2.26.83l-0.58.78A2.71,2.71,0,0,0,868,341a1.13,1.13,0,0,0-1.33,1c0,0.67.79,0.95,1.62,1.26,1,0.39,2.22.83,2.22,2.21,0,1.19-.95,2.17-2.67,2.17a4.39,4.39,0,0,1-2.71-1Z"/><path class="cls-1" d="M872,337.88a0.86,0.86,0,1,1,.86.79A0.81,0.81,0,0,1,872,337.88Zm0.22,2.29h1.23v7.29h-1.23v-7.29Z"/><path class="cls-1" d="M875.95,340.17h1l0.1,1h0a3.44,3.44,0,0,1,2.44-1.23c1.53,0,2.22,1,2.22,2.85v4.62h-1.23V343c0-1.36-.42-1.95-1.38-1.95a2.79,2.79,0,0,0-2,1.13v5.28h-1.23v-7.29Z"/><path class="cls-1" d="M886.88,340c1.86,0,2.91,1.33,2.91,3.42a4.43,4.43,0,0,1,0,.67h-4.92a2.43,2.43,0,0,0,2.43,2.57,3.3,3.3,0,0,0,1.81-.57l0.44,0.81a4.34,4.34,0,0,1-2.4.75,3.49,3.49,0,0,1-3.49-3.81C883.61,341.45,885.22,340,886.88,340Zm1.83,3.29c0-1.49-.66-2.31-1.8-2.31a2.28,2.28,0,0,0-2.1,2.31h3.9Z"/><path class="cls-1" d="M891.4,345.81a3.27,3.27,0,0,0,2.14.87,1.22,1.22,0,0,0,1.44-1.14c0-.75-0.87-1.08-1.67-1.38-1-.37-2.17-0.87-2.17-2.1s0.93-2.07,2.5-2.07a3.64,3.64,0,0,1,2.26.83l-0.58.78a2.71,2.71,0,0,0-1.67-.64,1.13,1.13,0,0,0-1.33,1c0,0.67.79,0.95,1.62,1.26,1,0.39,2.22.83,2.22,2.21,0,1.19-.95,2.17-2.67,2.17a4.39,4.39,0,0,1-2.71-1Z"/><path class="cls-1" d="M897.68,345.81a3.27,3.27,0,0,0,2.14.87,1.22,1.22,0,0,0,1.44-1.14c0-.75-0.87-1.08-1.67-1.38-1-.37-2.17-0.87-2.17-2.1s0.93-2.07,2.5-2.07a3.64,3.64,0,0,1,2.26.83l-0.58.78a2.71,2.71,0,0,0-1.67-.64,1.13,1.13,0,0,0-1.33,1c0,0.67.79,0.95,1.62,1.26,1,0.39,2.22.83,2.22,2.21,0,1.19-.95,2.17-2.67,2.17a4.39,4.39,0,0,1-2.71-1Z"/><path class="cls-1" d="M906.89,340c1.86,0,2.91,1.33,2.91,3.42a4.43,4.43,0,0,1,0,.67h-4.92a2.43,2.43,0,0,0,2.43,2.57,3.3,3.3,0,0,0,1.81-.57l0.44,0.81a4.34,4.34,0,0,1-2.4.75,3.49,3.49,0,0,1-3.49-3.81C903.62,341.45,905.23,340,906.89,340Zm1.83,3.29c0-1.49-.66-2.31-1.8-2.31a2.28,2.28,0,0,0-2.1,2.31h3.9Z"/><path class="cls-1" d="M911.41,345.81a3.27,3.27,0,0,0,2.14.87,1.22,1.22,0,0,0,1.44-1.14c0-.75-0.87-1.08-1.67-1.38-1-.37-2.17-0.87-2.17-2.1s0.93-2.07,2.5-2.07a3.64,3.64,0,0,1,2.26.83l-0.58.78a2.71,2.71,0,0,0-1.67-.64,1.13,1.13,0,0,0-1.33,1c0,0.67.79,0.95,1.62,1.26,1,0.39,2.22.83,2.22,2.21,0,1.19-.95,2.17-2.67,2.17a4.39,4.39,0,0,1-2.71-1Z"/><path class="cls-3" d="M239.66,37.86c230.64,0,239.12,159.06,587.51,159.73"/><polygon class="cls-4" points="820.35 205.75 818.99 204.24 826.4 197.55 819.18 190.64 820.59 189.18 829.38 197.59 820.35 205.75"/><path class="cls-5" d="M239.66,379.93c249.84,0,242-156.73,587.51-159.71"/><polygon class="cls-6" points="820.64 228.67 819.23 227.22 826.4 220.26 818.94 213.62 820.29 212.1 829.38 220.2 820.64 228.67"/><line class="cls-7" x1="943.1" y1="207.97" x2="942.09" y2="207.98"/><line class="cls-8" x1="940.06" y1="207.99" x2="150.55" y2="210.79"/><line class="cls-7" x1="149.53" y1="210.79" x2="148.52" y2="210.79"/><polygon class="cls-2" points="950.25 207.95 940.16 203.87 942.57 207.98 940.19 212.1 950.25 207.95"/><path class="cls-1" d="M496.5,185.67c3.15-3.2,4.72-5,4.72-6.64a1.93,1.93,0,0,0-2.08-2.13,3,3,0,0,0-2.24,1.26l-0.43-.42a3.62,3.62,0,0,1,2.73-1.41,2.49,2.49,0,0,1,2.7,2.68c0,1.91-1.74,3.74-4.39,6.55,0.52,0,1.08-.07,1.6-0.07h3.27v0.6H496.5v-0.42Z"/><path class="cls-1" d="M503.79,181.26c0-3.18,1-4.93,2.87-4.93s2.87,1.75,2.87,4.93-1,5-2.87,5S503.79,184.45,503.79,181.26Zm5.05,0c0-2.92-.85-4.36-2.19-4.36s-2.19,1.44-2.19,4.36,0.87,4.44,2.19,4.44S508.84,184.18,508.84,181.26Z"/><path class="cls-1" d="M511.51,185.5h2.25v-7.95h-1.71V177.1a5.76,5.76,0,0,0,1.84-.6h0.54v9h2.08v0.58h-5V185.5Z"/><path class="cls-1" d="M518.16,181.26c0-3.18,1-4.93,2.87-4.93s2.87,1.75,2.87,4.93-1,5-2.87,5S518.16,184.45,518.16,181.26Zm5.05,0c0-2.92-.85-4.36-2.19-4.36s-2.19,1.44-2.19,4.36,0.87,4.44,2.19,4.44S523.21,184.18,523.21,181.26Z"/><path class="cls-1" d="M225.91,185.67c3.15-3.2,4.72-5,4.72-6.64a1.93,1.93,0,0,0-2.08-2.13,3,3,0,0,0-2.24,1.26l-0.43-.42a3.62,3.62,0,0,1,2.73-1.41,2.49,2.49,0,0,1,2.7,2.68c0,1.91-1.74,3.74-4.39,6.55,0.52,0,1.08-.07,1.6-0.07h3.27v0.6h-5.88v-0.42Z"/><path class="cls-1" d="M233.2,181.26c0-3.18,1-4.93,2.87-4.93s2.87,1.75,2.87,4.93-1,5-2.87,5S233.2,184.45,233.2,181.26Zm5.05,0c0-2.92-.85-4.36-2.19-4.36s-2.19,1.44-2.19,4.36,0.87,4.44,2.19,4.44S238.25,184.18,238.25,181.26Z"/><path class="cls-1" d="M240.38,181.26c0-3.18,1-4.93,2.87-4.93s2.87,1.75,2.87,4.93-1,5-2.87,5S240.38,184.45,240.38,181.26Zm5.05,0c0-2.92-.85-4.36-2.19-4.36s-2.19,1.44-2.19,4.36,0.87,4.44,2.19,4.44S245.44,184.18,245.44,181.26Z"/><path class="cls-1" d="M247.61,184.51a3.42,3.42,0,0,0,2.63,1.17,2.44,2.44,0,0,0,2.38-2.58,2.24,2.24,0,0,0-2.34-2.47,2.91,2.91,0,0,0-1.78.65L248,181l0.35-4.49h4.42v0.58H249l-0.3,3.46a3.11,3.11,0,0,1,1.71-.51,2.74,2.74,0,0,1,2.92,3,3,3,0,0,1-3.06,3.19,4,4,0,0,1-3-1.29Z"/><path class="cls-1" d="M772.7,185.67c3.15-3.2,4.72-5,4.72-6.64a1.93,1.93,0,0,0-2.08-2.13,3,3,0,0,0-2.24,1.26l-0.43-.42a3.62,3.62,0,0,1,2.73-1.41,2.49,2.49,0,0,1,2.7,2.68c0,1.91-1.74,3.74-4.39,6.55,0.52,0,1.08-.07,1.6-0.07h3.27v0.6H772.7v-0.42Z"/><path class="cls-1" d="M780,181.26c0-3.18,1-4.93,2.87-4.93s2.87,1.75,2.87,4.93-1,5-2.87,5S780,184.45,780,181.26Zm5.05,0c0-2.92-.85-4.36-2.19-4.36s-2.19,1.44-2.19,4.36,0.87,4.44,2.19,4.44S785,184.18,785,181.26Z"/><path class="cls-1" d="M787.72,185.5H790v-7.95h-1.71V177.1a5.76,5.76,0,0,0,1.84-.6h0.54v9h2.08v0.58h-5V185.5Z"/><path class="cls-1" d="M794.41,184.51a3.42,3.42,0,0,0,2.63,1.17,2.44,2.44,0,0,0,2.38-2.58,2.24,2.24,0,0,0-2.34-2.47,2.91,2.91,0,0,0-1.78.65l-0.47-.29,0.35-4.49h4.42v0.58h-3.83l-0.3,3.46a3.11,3.11,0,0,1,1.71-.51,2.74,2.74,0,0,1,2.92,3,3,3,0,0,1-3.06,3.19,4,4,0,0,1-3-1.29Z"/></svg>