<svg id="Layer_1" data-name="Layer 1" xmlns="http://www.w3.org/2000/svg" xmlns:xlink="http://www.w3.org/1999/xlink" viewBox="0 0 353.69 427.58"><defs><style>.cls-1{fill:#231f20;}.cls-2,.cls-4,.cls-6,.cls-7{fill:none;stroke-miterlimit:10;}.cls-2,.cls-4{stroke-width:1.5px;}.cls-2{stroke:url(#linear-gradient);}.cls-3{fill:url(#linear-gradient-2);}.cls-4{stroke:url(#linear-gradient-3);}.cls-5{fill:url(#linear-gradient-4);}.cls-6,.cls-7{stroke:#5c9ad2;}.cls-7{stroke-dasharray:1.18 1.18;}.cls-8{fill:#5c9ad2;}</style><linearGradient id="linear-gradient" x1="82.25" y1="118.52" x2="282.64" y2="118.52" gradientUnits="userSpaceOnUse"><stop offset="0" stop-color="#b2cfe4"/><stop offset="1" stop-color="#5c9ad2"/></linearGradient><linearGradient id="linear-gradient-2" x1="82.25" y1="198.25" x2="282.64" y2="198.25" xlink:href="#linear-gradient"/><linearGradient id="linear-gradient-3" x1="82.25" y1="300.88" x2="282.65" y2="300.88" xlink:href="#linear-gradient"/><linearGradient id="linear-gradient-4" x1="82.25" y1="221.27" x2="282.65" y2="221.27" xlink:href="#linear-gradient"/></defs><title>resmap1xs</title><path class="cls-1" d="M168.69,187.59c3.15-3.2,4.72-5,4.72-6.64a1.93,1.93,0,0,0-2.08-2.13,3,3,0,0,0-2.24,1.26l-0.43-.42a3.62,3.62,0,0,1,2.73-1.41,2.49,2.49,0,0,1,2.7,2.68c0,1.91-1.74,3.74-4.39,6.55,0.52,0,1.08-.07,1.6-0.07h3.27V188h-5.88v-0.42Z"/><path class="cls-1" d="M176,183.18c0-3.18,1-4.93,2.87-4.93s2.87,1.75,2.87,4.93-1,5-2.87,5S176,186.38,176,183.18Zm5.05,0c0-2.92-.85-4.36-2.19-4.36s-2.19,1.44-2.19,4.36,0.87,4.44,2.19,4.44S181,186.1,181,183.18Z"/><path class="cls-1" d="M183.7,187.43H186v-7.95h-1.71V179a5.79,5.79,0,0,0,1.84-.6h0.54v9h2.08V188h-5v-0.58Z"/><path class="cls-1" d="M190.35,183.18c0-3.18,1-4.93,2.87-4.93s2.87,1.75,2.87,4.93-1,5-2.87,5S190.35,186.38,190.35,183.18Zm5.05,0c0-2.92-.85-4.36-2.19-4.36s-2.19,1.44-2.19,4.36,0.87,4.44,2.19,4.44S195.4,186.1,195.4,183.18Z"/><path class="cls-1" d="M50.19,187.59c3.15-3.2,4.72-5,4.72-6.64a1.93,1.93,0,0,0-2.08-2.13,3,3,0,0,0-2.24,1.26l-0.43-.42a3.62,3.62,0,0,1,2.73-1.41,2.49,2.49,0,0,1,2.7,2.68c0,1.91-1.74,3.74-4.39,6.55,0.52,0,1.08-.07,1.6-0.07h3.27V188H50.19v-0.42Z"/><path class="cls-1" d="M57.48,183.18c0-3.18,1-4.93,2.87-4.93s2.87,1.75,2.87,4.93-1,5-2.87,5S57.48,186.38,57.48,183.18Zm5.05,0c0-2.92-.85-4.36-2.19-4.36s-2.19,1.44-2.19,4.36,0.87,4.44,2.19,4.44S62.54,186.1,62.54,183.18Z"/><path class="cls-1" d="M64.67,183.18c0-3.18,1-4.93,2.87-4.93s2.87,1.75,2.87,4.93-1,5-2.87,5S64.67,186.38,64.67,183.18Zm5.05,0c0-2.92-.85-4.36-2.19-4.36s-2.19,1.44-2.19,4.36,0.87,4.44,2.19,4.44S69.72,186.1,69.72,183.18Z"/><path class="cls-1" d="M71.9,186.44a3.42,3.42,0,0,0,2.63,1.17A2.44,2.44,0,0,0,76.91,185a2.24,2.24,0,0,0-2.34-2.47,2.91,2.91,0,0,0-1.78.65l-0.47-.29,0.35-4.49h4.42V179H73.26L73,182.48a3.11,3.11,0,0,1,1.71-.51,2.74,2.74,0,0,1,2.92,3,3,3,0,0,1-3.06,3.19,4,4,0,0,1-3-1.29Z"/><path class="cls-1" d="M172.29,28.53h2.92c2,0,3.39.67,3.39,2.4a2.14,2.14,0,0,1-1.73,2.14v0.06a2.31,2.31,0,0,1,2.28,2.35c0,1.93-1.53,2.88-3.72,2.88h-3.15V28.53Zm2.71,4.2c1.67,0,2.37-.6,2.37-1.7s-0.79-1.51-2.31-1.51h-1.52v3.21H175Zm0.25,4.65c1.68,0,2.67-.61,2.67-1.95s-0.94-1.77-2.67-1.77h-1.71v3.72h1.71Z"/><path class="cls-1" d="M180.85,31.08h1.25v4.46c0,1.37.4,2,1.36,2a2.48,2.48,0,0,0,2-1.23V31.08h1.23v7.29h-1l-0.11-1.14h0a3.08,3.08,0,0,1-2.4,1.32c-1.54,0-2.23-1-2.23-2.85V31.08Z"/><path class="cls-1" d="M188.92,36.72a3.27,3.27,0,0,0,2.14.87,1.22,1.22,0,0,0,1.44-1.14c0-.75-0.87-1.08-1.67-1.38-1-.37-2.17-0.87-2.17-2.1s0.93-2.07,2.5-2.07a3.64,3.64,0,0,1,2.26.83l-0.58.78a2.71,2.71,0,0,0-1.67-.64,1.13,1.13,0,0,0-1.33,1c0,0.67.79,0.95,1.62,1.26,1,0.39,2.22.83,2.22,2.21,0,1.19-.95,2.17-2.67,2.17a4.39,4.39,0,0,1-2.71-1Z"/><path class="cls-1" d="M195.18,28.79a0.86,0.86,0,1,1,.86.79A0.81,0.81,0,0,1,195.18,28.79Zm0.22,2.29h1.23v7.29H195.4V31.08Z"/><path class="cls-1" d="M199.09,31.08h1l0.1,1h0a3.44,3.44,0,0,1,2.44-1.23c1.53,0,2.22,1,2.22,2.85v4.62H203.7V33.92c0-1.36-.42-1.95-1.38-1.95a2.79,2.79,0,0,0-2,1.13v5.28h-1.23V31.08Z"/><path class="cls-1" d="M210,30.9c1.86,0,2.91,1.33,2.91,3.42a4.43,4.43,0,0,1,0,.67H208a2.43,2.43,0,0,0,2.43,2.57,3.3,3.3,0,0,0,1.81-.57l0.44,0.81a4.34,4.34,0,0,1-2.4.75,3.49,3.49,0,0,1-3.49-3.81C206.76,32.36,208.36,30.9,210,30.9Zm1.83,3.29c0-1.49-.66-2.31-1.8-2.31a2.28,2.28,0,0,0-2.1,2.31h3.9Z"/><path class="cls-1" d="M214.54,36.72a3.27,3.27,0,0,0,2.14.87,1.22,1.22,0,0,0,1.44-1.14c0-.75-0.87-1.08-1.67-1.38-1-.37-2.17-0.87-2.17-2.1s0.93-2.07,2.5-2.07a3.64,3.64,0,0,1,2.26.83l-0.58.78a2.71,2.71,0,0,0-1.67-.64,1.13,1.13,0,0,0-1.33,1c0,0.67.79,0.95,1.62,1.26,1,0.39,2.22.83,2.22,2.21,0,1.19-.95,2.17-2.67,2.17a4.39,4.39,0,0,1-2.71-1Z"/><path class="cls-1" d="M220.83,36.72a3.27,3.27,0,0,0,2.14.87,1.22,1.22,0,0,0,1.44-1.14c0-.75-0.87-1.08-1.67-1.38-1-.37-2.17-0.87-2.17-2.1s0.93-2.07,2.5-2.07a3.64,3.64,0,0,1,2.26.83l-0.58.78a2.71,2.71,0,0,0-1.67-.64,1.13,1.13,0,0,0-1.33,1c0,0.67.79,0.95,1.62,1.26,1,0.39,2.22.83,2.22,2.21,0,1.19-.95,2.17-2.67,2.17a4.39,4.39,0,0,1-2.71-1Z"/><path class="cls-1" d="M230.23,31.08h1.25v4.46c0,1.37.4,2,1.36,2a2.48,2.48,0,0,0,2-1.23V31.08H236v7.29h-1l-0.11-1.14h0a3.08,3.08,0,0,1-2.4,1.32c-1.55,0-2.24-1-2.24-2.85V31.08Z"/><path class="cls-1" d="M238.5,31.08h1l0.1,1h0a3.44,3.44,0,0,1,2.45-1.23c1.53,0,2.22,1,2.22,2.85v4.62H243.1V33.92c0-1.36-.42-1.95-1.38-1.95a2.79,2.79,0,0,0-2,1.13v5.28H238.5V31.08Z"/><path class="cls-1" d="M249.34,30.9a3,3,0,0,1,2,.84l-0.06-1.25v-2.8h1.25V38.37h-1l-0.11-.85h0a3.29,3.29,0,0,1-2.21,1c-1.83,0-3-1.38-3-3.81S247.68,30.9,249.34,30.9Zm0.12,6.62a2.46,2.46,0,0,0,1.86-1V32.7a2.54,2.54,0,0,0-1.77-.76c-1.17,0-2.1,1.12-2.1,2.79S248.19,37.52,249.46,37.52Z"/><path class="cls-1" d="M257.76,30.9c1.86,0,2.91,1.33,2.91,3.42a4.43,4.43,0,0,1,0,.67H255.7a2.43,2.43,0,0,0,2.43,2.57,3.3,3.3,0,0,0,1.81-.57l0.44,0.81a4.34,4.34,0,0,1-2.4.75,3.49,3.49,0,0,1-3.49-3.81C254.49,32.36,256.09,30.9,257.76,30.9Zm1.83,3.29c0-1.49-.66-2.31-1.8-2.31a2.28,2.28,0,0,0-2.1,2.31h3.9Z"/><path class="cls-1" d="M262.46,31.08h1l0.1,1.32h0a2.49,2.49,0,0,1,2.07-1.5,1.8,1.8,0,0,1,.78.15l-0.24,1.08a2.06,2.06,0,0,0-.71-0.12c-0.62,0-1.35.45-1.84,1.68v4.68h-1.23V31.08Z"/><path class="cls-1" d="M267.33,36.72a3.27,3.27,0,0,0,2.14.87,1.22,1.22,0,0,0,1.44-1.14c0-.75-0.87-1.08-1.67-1.38-1-.37-2.17-0.87-2.17-2.1s0.93-2.07,2.5-2.07a3.64,3.64,0,0,1,2.26.83l-0.58.78a2.71,2.71,0,0,0-1.67-.64,1.13,1.13,0,0,0-1.33,1c0,0.67.79,0.95,1.62,1.26,1,0.39,2.22.83,2.22,2.21,0,1.19-.95,2.17-2.67,2.17a4.39,4.39,0,0,1-2.71-1Z"/><path class="cls-1" d="M274,32.09h-1.08V31.16l1.14-.08,0.15-2h1v2h2v1h-2v4c0,0.9.29,1.41,1.13,1.41a2.66,2.66,0,0,0,.83-0.19l0.24,0.93a4.51,4.51,0,0,1-1.35.27c-1.56,0-2.08-1-2.08-2.43v-4Z"/><path class="cls-1" d="M282.73,33.75c0-.93-0.31-1.83-1.5-1.83a3.93,3.93,0,0,0-2.17.78l-0.5-.85a5.41,5.41,0,0,1,2.87-.95c1.79,0,2.54,1.18,2.54,3v4.47h-1l-0.1-.87h0a4,4,0,0,1-2.42,1,2,2,0,0,1-2.14-2.07C278.25,34.89,279.63,34.1,282.73,33.75Zm-2,3.81a3,3,0,0,0,2-1v-2c-2.44.3-3.27,0.9-3.27,1.83A1.12,1.12,0,0,0,280.74,37.56Z"/><path class="cls-1" d="M286.29,31.08h1l0.1,1h0a3.44,3.44,0,0,1,2.44-1.23c1.53,0,2.22,1,2.22,2.85v4.62h-1.23V33.92c0-1.36-.42-1.95-1.38-1.95a2.79,2.79,0,0,0-2,1.13v5.28h-1.23V31.08Z"/><path class="cls-1" d="M297.13,30.9a3,3,0,0,1,2,.84l-0.06-1.25v-2.8h1.25V38.37h-1l-0.11-.85h0a3.29,3.29,0,0,1-2.21,1c-1.83,0-3-1.38-3-3.81S295.47,30.9,297.13,30.9Zm0.12,6.62a2.46,2.46,0,0,0,1.86-1V32.7a2.54,2.54,0,0,0-1.77-.76c-1.17,0-2.1,1.12-2.1,2.79S296,37.52,297.25,37.52Z"/><path class="cls-1" d="M302.59,28.79a0.86,0.86,0,1,1,.86.79A0.81,0.81,0,0,1,302.59,28.79Zm0.22,2.29H304v7.29h-1.23V31.08Z"/><path class="cls-1" d="M306.5,31.08h1l0.1,1h0a3.44,3.44,0,0,1,2.45-1.23c1.53,0,2.22,1,2.22,2.85v4.62h-1.23V33.92c0-1.36-.42-1.95-1.38-1.95a2.79,2.79,0,0,0-2,1.13v5.28H306.5V31.08Z"/><path class="cls-1" d="M315.22,38.12V38.06a1.34,1.34,0,0,1-.65-1.18,1.71,1.71,0,0,1,.79-1.35V35.46a2.57,2.57,0,0,1,1.8-4.56,2.92,2.92,0,0,1,1,.18h2.54V32h-1.5a2.11,2.11,0,0,1,.6,1.5,2.5,2.5,0,0,1-2.67,2.54,2.56,2.56,0,0,1-1.09-.25,1.1,1.1,0,0,0-.46.87c0,0.47.3,0.79,1.29,0.79h1.41c1.69,0,2.55.53,2.55,1.74s-1.42,2.52-3.69,2.52c-1.78,0-3-.7-3-2A2.11,2.11,0,0,1,315.22,38.12Zm2.13,2.76c1.39,0,2.31-.72,2.31-1.49s-0.53-.9-1.47-0.9h-1.26a3.56,3.56,0,0,1-.95-0.12,1.53,1.53,0,0,0-.75,1.23C315.24,40.38,316,40.88,317.35,40.88Zm1.36-7.38a1.55,1.55,0,1,0-3.09,0A1.56,1.56,0,1,0,318.71,33.5Z"/><path class="cls-1" d="M243.68,45.69h1.23V48.6l0,1.32a3.6,3.6,0,0,1,2.28-1c1.89,0,2.89,1.46,2.89,3.71,0,2.49-1.48,3.94-3.15,3.94a3.3,3.3,0,0,1-2.08-.9h0l-0.11.72h-1V45.69Zm3,9.83c1.2,0,2.08-1.1,2.08-2.9,0-1.6-.54-2.68-1.92-2.68a3,3,0,0,0-2,1v3.82A2.85,2.85,0,0,0,246.7,55.52Z"/><path class="cls-1" d="M252,58.49a1.88,1.88,0,0,0,1.65-1.56l0.17-.54-2.92-7.3h1.28l1.48,4c0.23,0.63.48,1.38,0.71,2.05h0.06c0.21-.66.42-1.41,0.62-2.05l1.3-4h1.2L254.8,57c-0.51,1.44-1.26,2.54-2.73,2.54a2.42,2.42,0,0,1-.85-0.15l0.24-1A2.14,2.14,0,0,0,252,58.49Z"/><path class="cls-1" d="M264.63,48.9a3,3,0,0,1,2,.84L266.6,48.5v-2.8h1.25V56.37h-1l-0.11-.85h0a3.29,3.29,0,0,1-2.21,1c-1.83,0-3-1.38-3-3.81S263,48.9,264.63,48.9Zm0.12,6.62a2.46,2.46,0,0,0,1.86-1V50.7a2.54,2.54,0,0,0-1.77-.76c-1.17,0-2.1,1.13-2.1,2.79S263.47,55.52,264.75,55.52Z"/><path class="cls-1" d="M273,48.9c1.86,0,2.91,1.33,2.91,3.42a4.43,4.43,0,0,1,0,.67H271a2.43,2.43,0,0,0,2.43,2.57,3.3,3.3,0,0,0,1.81-.57l0.44,0.81a4.34,4.34,0,0,1-2.4.75,3.49,3.49,0,0,1-3.49-3.81C269.77,50.36,271.38,48.9,273,48.9Zm1.83,3.29c0-1.49-.66-2.31-1.8-2.31a2.28,2.28,0,0,0-2.1,2.31h3.9Z"/><path class="cls-1" d="M277.55,54.72a3.27,3.27,0,0,0,2.14.87,1.22,1.22,0,0,0,1.44-1.14c0-.75-0.87-1.08-1.67-1.38-1-.37-2.17-0.87-2.17-2.1s0.93-2.07,2.5-2.07a3.64,3.64,0,0,1,2.26.83l-0.58.78a2.71,2.71,0,0,0-1.67-.64,1.13,1.13,0,0,0-1.33,1c0,0.67.79,0.95,1.62,1.26,1,0.39,2.22.83,2.22,2.21,0,1.19-.95,2.17-2.67,2.17a4.39,4.39,0,0,1-2.71-1Z"/><path class="cls-1" d="M283.81,46.79a0.86,0.86,0,1,1,.86.79A0.81,0.81,0,0,1,283.81,46.79ZM284,49.08h1.23v7.29H284V49.08Z"/><path class="cls-1" d="M288.23,56.12V56.06a1.34,1.34,0,0,1-.65-1.18,1.71,1.71,0,0,1,.79-1.35V53.46a2.57,2.57,0,0,1,1.8-4.56,2.92,2.92,0,0,1,1,.18h2.54V50h-1.5a2.11,2.11,0,0,1,.6,1.5,2.5,2.5,0,0,1-2.67,2.54,2.56,2.56,0,0,1-1.09-.25,1.1,1.1,0,0,0-.46.87c0,0.47.3,0.79,1.29,0.79h1.41c1.69,0,2.55.53,2.55,1.74s-1.42,2.52-3.69,2.52c-1.78,0-3-.7-3-2A2.11,2.11,0,0,1,288.23,56.12Zm2.13,2.76c1.39,0,2.31-.72,2.31-1.49s-0.53-.9-1.47-0.9h-1.26a3.56,3.56,0,0,1-.95-0.12,1.53,1.53,0,0,0-.75,1.23C288.25,58.38,289,58.88,290.36,58.88Zm1.36-7.38a1.55,1.55,0,1,0-3.09,0A1.56,1.56,0,1,0,291.73,51.5Z"/><path class="cls-1" d="M295.28,49.08h1l0.1,1h0a3.44,3.44,0,0,1,2.44-1.23c1.53,0,2.22,1,2.22,2.85v4.62h-1.23V51.92c0-1.36-.42-1.95-1.38-1.95a2.79,2.79,0,0,0-2,1.13v5.28h-1.23V49.08Z"/><path class="cls-1" d="M306.22,48.9c1.86,0,2.91,1.33,2.91,3.42a4.43,4.43,0,0,1,0,.67h-4.92a2.43,2.43,0,0,0,2.43,2.57,3.3,3.3,0,0,0,1.81-.57l0.44,0.81a4.34,4.34,0,0,1-2.4.75,3.49,3.49,0,0,1-3.49-3.81C302.95,50.36,304.55,48.9,306.22,48.9ZM308,52.19c0-1.49-.66-2.31-1.8-2.31a2.28,2.28,0,0,0-2.1,2.31H308Z"/><path class="cls-1" d="M310.93,49.08h1l0.1,1.32h0a2.49,2.49,0,0,1,2.07-1.5,1.8,1.8,0,0,1,.78.15l-0.24,1.08A2.06,2.06,0,0,0,314,50c-0.62,0-1.35.45-1.84,1.68v4.68h-1.23V49.08Z"/><path class="cls-1" d="M315.79,54.72a3.27,3.27,0,0,0,2.14.87,1.22,1.22,0,0,0,1.44-1.14c0-.75-0.87-1.08-1.67-1.38-1-.37-2.17-0.87-2.17-2.1s0.93-2.07,2.5-2.07a3.64,3.64,0,0,1,2.26.83l-0.58.78a2.71,2.71,0,0,0-1.67-.64,1.13,1.13,0,0,0-1.33,1c0,0.67.79,0.95,1.62,1.26,1,0.39,2.22.83,2.22,2.21,0,1.19-.95,2.17-2.67,2.17a4.39,4.39,0,0,1-2.71-1Z"/><path class="cls-1" d="M222.22,357.09h3c2.17,0,3.63.74,3.63,2.9s-1.49,3-3.63,3h-1.77v3.9h-1.26v-9.84Zm2.87,4.92c1.72,0,2.55-.63,2.55-2s-0.85-1.89-2.55-1.89h-1.61V362h1.61Z"/><path class="cls-1" d="M233.08,359.46c1.86,0,2.91,1.33,2.91,3.42a4.43,4.43,0,0,1,0,.67H231a2.43,2.43,0,0,0,2.43,2.57,3.3,3.3,0,0,0,1.81-.57l0.44,0.81a4.34,4.34,0,0,1-2.4.75,3.49,3.49,0,0,1-3.49-3.81C229.81,360.92,231.41,359.46,233.08,359.46Zm1.83,3.29c0-1.49-.66-2.31-1.8-2.31a2.28,2.28,0,0,0-2.1,2.31h3.9Z"/><path class="cls-1" d="M237.79,359.64h1l0.1,1.32h0a2.49,2.49,0,0,1,2.07-1.5,1.8,1.8,0,0,1,.78.15l-0.24,1.08a2,2,0,0,0-.71-0.12c-0.62,0-1.35.45-1.84,1.68v4.68h-1.23v-7.29Z"/><path class="cls-1" d="M245.81,359.46a3,3,0,0,1,2.13.87l-0.62.79a2.2,2.2,0,0,0-1.47-.65c-1.32,0-2.28,1.14-2.28,2.82s0.92,2.79,2.25,2.79a2.59,2.59,0,0,0,1.71-.74l0.55,0.81a3.61,3.61,0,0,1-2.37.94c-1.93,0-3.42-1.39-3.42-3.81A3.53,3.53,0,0,1,245.81,359.46Z"/><path class="cls-1" d="M252.1,359.46c1.86,0,2.91,1.33,2.91,3.42a4.43,4.43,0,0,1,0,.67H250a2.43,2.43,0,0,0,2.43,2.57,3.3,3.3,0,0,0,1.81-.57l0.44,0.81a4.34,4.34,0,0,1-2.4.75,3.49,3.49,0,0,1-3.49-3.81C248.83,360.92,250.43,359.46,252.1,359.46Zm1.83,3.29c0-1.49-.66-2.31-1.8-2.31a2.28,2.28,0,0,0-2.1,2.31h3.9Z"/><path class="cls-1" d="M256.58,357.35a0.86,0.86,0,0,1,1.71,0A0.86,0.86,0,0,1,256.58,357.35Zm0.22,2.29H258v7.29h-1.23v-7.29Z"/><path class="cls-1" d="M259.45,359.64h1.28l1.38,4.14c0.21,0.72.45,1.45,0.67,2.14h0.06c0.21-.69.45-1.42,0.66-2.14l1.38-4.14h1.22l-2.58,7.29h-1.44Z"/><path class="cls-1" d="M270.17,359.46c1.86,0,2.91,1.33,2.91,3.42a4.43,4.43,0,0,1,0,.67h-4.92a2.43,2.43,0,0,0,2.43,2.57,3.3,3.3,0,0,0,1.81-.57l0.44,0.81a4.34,4.34,0,0,1-2.4.75,3.49,3.49,0,0,1-3.49-3.81C266.9,360.92,268.51,359.46,270.17,359.46Zm1.83,3.29c0-1.49-.66-2.31-1.8-2.31a2.28,2.28,0,0,0-2.1,2.31H272Z"/><path class="cls-1" d="M277.52,359.46a3,3,0,0,1,2,.84l-0.06-1.25v-2.8h1.25v10.68h-1l-0.11-.85h0a3.29,3.29,0,0,1-2.21,1c-1.83,0-3-1.38-3-3.81S275.86,359.46,277.52,359.46Zm0.12,6.62a2.46,2.46,0,0,0,1.86-1v-3.81a2.54,2.54,0,0,0-1.77-.76c-1.17,0-2.1,1.13-2.1,2.79S276.37,366.08,277.64,366.08Z"/><path class="cls-1" d="M285.19,359.64h1.28l1.38,4.14c0.21,0.72.45,1.45,0.67,2.14h0.06c0.21-.69.45-1.42,0.66-2.14l1.38-4.14h1.22l-2.58,7.29h-1.44Z"/><path class="cls-1" d="M297.07,362.31c0-.93-0.31-1.83-1.5-1.83a3.93,3.93,0,0,0-2.17.78l-0.5-.85a5.41,5.41,0,0,1,2.87-.95c1.79,0,2.54,1.18,2.54,3v4.47h-1l-0.1-.87h0a4,4,0,0,1-2.42,1,2,2,0,0,1-2.14-2.07C292.58,363.45,294,362.66,297.07,362.31Zm-2,3.81a3,3,0,0,0,2-1v-2c-2.44.3-3.27,0.9-3.27,1.83A1.12,1.12,0,0,0,295.07,366.12Z"/><path class="cls-1" d="M300.62,356.25h1.23v9.3c0,0.39.17,0.54,0.34,0.54a1,1,0,0,0,.27,0l0.17,0.93a1.65,1.65,0,0,1-.71.12c-0.93,0-1.31-.58-1.31-1.65v-9.21Z"/><path class="cls-1" d="M304.34,359.64h1.25v4.46c0,1.37.4,2,1.36,2a2.48,2.48,0,0,0,2-1.23v-5.17h1.23v7.29h-1L309,365.79h0a3.08,3.08,0,0,1-2.4,1.32c-1.55,0-2.24-1-2.24-2.85v-4.62Z"/><path class="cls-1" d="M315.34,359.46c1.86,0,2.91,1.33,2.91,3.42a4.43,4.43,0,0,1,0,.67h-4.92a2.43,2.43,0,0,0,2.43,2.57,3.3,3.3,0,0,0,1.81-.57l0.44,0.81a4.34,4.34,0,0,1-2.4.75,3.49,3.49,0,0,1-3.49-3.81C312.07,360.92,313.67,359.46,315.34,359.46Zm1.83,3.29c0-1.49-.66-2.31-1.8-2.31a2.28,2.28,0,0,0-2.1,2.31h3.9Z"/><path class="cls-1" d="M176.11,377.46c1.79,0,3.38,1.39,3.38,3.84s-1.59,3.81-3.37,3.81-3.37-1.39-3.37-3.81S174.32,377.46,176.11,377.46Zm0,6.63c1.26,0,2.1-1.12,2.1-2.79s-0.84-2.82-2.1-2.82-2.1,1.14-2.1,2.82S174.86,384.09,176.11,384.09Z"/><path class="cls-1" d="M184.69,375.26a2,2,0,0,0-.83-0.18c-0.69,0-1,.48-1,1.41v1.15h1.54v1h-1.54v6.29h-1.23v-6.29h-1v-0.93l1-.08v-1.15c0-1.49.67-2.42,2.13-2.42a3.29,3.29,0,0,1,1.21.24Z"/><path class="cls-1" d="M191.45,377.46a3,3,0,0,1,2,.84l-0.06-1.25v-2.8h1.25v10.68h-1l-0.11-.85h0a3.29,3.29,0,0,1-2.21,1c-1.83,0-3-1.38-3-3.81S189.79,377.46,191.45,377.46Zm0.12,6.62a2.46,2.46,0,0,0,1.86-1v-3.81a2.54,2.54,0,0,0-1.77-.76c-1.17,0-2.1,1.13-2.1,2.79S190.3,384.08,191.57,384.08Z"/><path class="cls-1" d="M199.87,377.46c1.86,0,2.91,1.33,2.91,3.42a4.43,4.43,0,0,1,0,.67h-4.92a2.43,2.43,0,0,0,2.43,2.57,3.3,3.3,0,0,0,1.81-.57l0.44,0.81a4.34,4.34,0,0,1-2.4.75,3.49,3.49,0,0,1-3.49-3.81C196.6,378.92,198.2,377.46,199.87,377.46Zm1.83,3.29c0-1.49-.66-2.31-1.8-2.31a2.28,2.28,0,0,0-2.1,2.31h3.9Z"/><path class="cls-1" d="M204.38,383.28a3.27,3.27,0,0,0,2.14.87A1.22,1.22,0,0,0,208,383c0-.75-0.87-1.08-1.67-1.38-1-.37-2.17-0.87-2.17-2.1s0.93-2.07,2.5-2.07a3.64,3.64,0,0,1,2.26.83l-0.58.78a2.71,2.71,0,0,0-1.67-.64,1.13,1.13,0,0,0-1.33,1c0,0.67.79,0.95,1.62,1.26,1,0.39,2.22.83,2.22,2.21,0,1.19-.95,2.17-2.67,2.17a4.39,4.39,0,0,1-2.71-1Z"/><path class="cls-1" d="M210.64,375.35a0.86,0.86,0,0,1,1.71,0A0.86,0.86,0,0,1,210.64,375.35Zm0.22,2.29h1.23v7.29h-1.23v-7.29Z"/><path class="cls-1" d="M215.06,384.68v-0.06a1.34,1.34,0,0,1-.65-1.18,1.71,1.71,0,0,1,.79-1.35V382a2.57,2.57,0,0,1,1.8-4.56,2.92,2.92,0,0,1,1,.18h2.54v0.95h-1.5a2.11,2.11,0,0,1,.6,1.5,2.5,2.5,0,0,1-2.67,2.54,2.55,2.55,0,0,1-1.09-.25,1.1,1.1,0,0,0-.46.87c0,0.47.3,0.79,1.29,0.79h1.41c1.69,0,2.55.53,2.55,1.74s-1.42,2.52-3.69,2.52c-1.78,0-3-.71-3-2A2.11,2.11,0,0,1,215.06,384.68Zm2.13,2.76c1.39,0,2.31-.72,2.31-1.49s-0.53-.9-1.47-0.9h-1.26a3.56,3.56,0,0,1-.95-0.12,1.53,1.53,0,0,0-.75,1.23C215.08,386.94,215.87,387.44,217.19,387.44Zm1.36-7.38a1.55,1.55,0,1,0-3.09,0A1.56,1.56,0,1,0,218.56,380.06Z"/><path class="cls-1" d="M222.11,377.64h1l0.1,1.05h0a3.44,3.44,0,0,1,2.45-1.23c1.53,0,2.22,1,2.22,2.85v4.62h-1.23v-4.46c0-1.36-.42-1.95-1.38-1.95a2.79,2.79,0,0,0-2,1.12v5.28h-1.23v-7.29Z"/><path class="cls-1" d="M233.35,374.25h1.23v2.91l0,1.32a3.6,3.6,0,0,1,2.28-1c1.89,0,2.89,1.46,2.89,3.71,0,2.49-1.48,3.94-3.15,3.94a3.3,3.3,0,0,1-2.08-.9h0l-0.11.72h-1V374.25Zm3,9.83c1.2,0,2.08-1.1,2.08-2.9,0-1.6-.54-2.68-1.92-2.68a3,3,0,0,0-2,1v3.82A2.85,2.85,0,0,0,236.36,384.08Z"/><path class="cls-1" d="M241.67,387a1.88,1.88,0,0,0,1.65-1.56l0.17-.54-2.92-7.3h1.28l1.48,4c0.23,0.63.48,1.38,0.71,2.05h0.06c0.21-.66.42-1.41,0.62-2.05l1.3-4h1.2l-2.75,7.89c-0.51,1.44-1.26,2.54-2.73,2.54a2.42,2.42,0,0,1-.85-0.15l0.24-1A2.14,2.14,0,0,0,241.67,387Z"/><path class="cls-1" d="M251.65,374.25h1.23v2.91l0,1.32a3.6,3.6,0,0,1,2.28-1c1.89,0,2.89,1.46,2.89,3.71,0,2.49-1.48,3.94-3.15,3.94a3.3,3.3,0,0,1-2.08-.9h0l-0.11.72h-1V374.25Zm3,9.83c1.2,0,2.08-1.1,2.08-2.9,0-1.6-.54-2.68-1.92-2.68a3,3,0,0,0-2,1v3.82A2.85,2.85,0,0,0,254.66,384.08Z"/><path class="cls-1" d="M259.87,377.64h1.25v4.46c0,1.37.4,2,1.36,2a2.48,2.48,0,0,0,2-1.23v-5.17h1.23v7.29h-1l-0.11-1.14h0a3.08,3.08,0,0,1-2.4,1.32c-1.55,0-2.24-1-2.24-2.85v-4.62Z"/><path class="cls-1" d="M267.94,383.28a3.27,3.27,0,0,0,2.14.87,1.22,1.22,0,0,0,1.44-1.14c0-.75-0.87-1.08-1.67-1.38-1-.37-2.17-0.87-2.17-2.1s0.93-2.07,2.5-2.07a3.64,3.64,0,0,1,2.26.83l-0.58.78a2.71,2.71,0,0,0-1.67-.64,1.13,1.13,0,0,0-1.33,1c0,0.67.79,0.95,1.62,1.26,1,0.39,2.22.83,2.22,2.21,0,1.19-.95,2.17-2.67,2.17a4.39,4.39,0,0,1-2.71-1Z"/><path class="cls-1" d="M274.19,375.35a0.86,0.86,0,0,1,1.71,0A0.86,0.86,0,0,1,274.19,375.35Zm0.22,2.29h1.23v7.29h-1.23v-7.29Z"/><path class="cls-1" d="M278.11,377.64h1l0.1,1.05h0a3.44,3.44,0,0,1,2.45-1.23c1.53,0,2.22,1,2.22,2.85v4.62h-1.23v-4.46c0-1.36-.42-1.95-1.38-1.95a2.79,2.79,0,0,0-2,1.12v5.28h-1.23v-7.29Z"/><path class="cls-1" d="M289,377.46c1.86,0,2.91,1.33,2.91,3.42a4.43,4.43,0,0,1,0,.67H287a2.43,2.43,0,0,0,2.43,2.57,3.3,3.3,0,0,0,1.81-.57l0.44,0.81a4.34,4.34,0,0,1-2.4.75,3.49,3.49,0,0,1-3.49-3.81C285.77,378.92,287.38,377.46,289,377.46Zm1.83,3.29c0-1.49-.66-2.31-1.8-2.31a2.28,2.28,0,0,0-2.1,2.31h3.9Z"/><path class="cls-1" d="M293.56,383.28a3.27,3.27,0,0,0,2.14.87,1.22,1.22,0,0,0,1.44-1.14c0-.75-0.87-1.08-1.67-1.38-1-.37-2.17-0.87-2.17-2.1s0.93-2.07,2.5-2.07a3.64,3.64,0,0,1,2.26.83l-0.58.78a2.71,2.71,0,0,0-1.67-.64,1.13,1.13,0,0,0-1.33,1c0,0.67.79,0.95,1.62,1.26,1,0.39,2.22.83,2.22,2.21,0,1.19-.95,2.17-2.67,2.17a4.39,4.39,0,0,1-2.71-1Z"/><path class="cls-1" d="M299.84,383.28a3.27,3.27,0,0,0,2.14.87,1.22,1.22,0,0,0,1.44-1.14c0-.75-0.87-1.08-1.67-1.38-1-.37-2.17-0.87-2.17-2.1s0.93-2.07,2.5-2.07a3.64,3.64,0,0,1,2.26.83l-0.58.78a2.71,2.71,0,0,0-1.67-.64,1.13,1.13,0,0,0-1.33,1c0,0.67.79,0.95,1.62,1.26,1,0.39,2.22.83,2.22,2.21,0,1.19-.95,2.17-2.67,2.17a4.39,4.39,0,0,1-2.71-1Z"/><path class="cls-1" d="M309.05,377.46c1.86,0,2.91,1.33,2.91,3.42a4.43,4.43,0,0,1,0,.67H307a2.43,2.43,0,0,0,2.43,2.57,3.3,3.3,0,0,0,1.81-.57l0.44,0.81a4.34,4.34,0,0,1-2.4.75,3.49,3.49,0,0,1-3.49-3.81C305.78,378.92,307.39,377.46,309.05,377.46Zm1.83,3.29c0-1.49-.66-2.31-1.8-2.31a2.28,2.28,0,0,0-2.1,2.31h3.9Z"/><path class="cls-1" d="M313.57,383.28a3.27,3.27,0,0,0,2.14.87,1.22,1.22,0,0,0,1.44-1.14c0-.75-0.87-1.08-1.67-1.38-1-.37-2.17-0.87-2.17-2.1s0.93-2.07,2.5-2.07a3.64,3.64,0,0,1,2.26.83l-0.58.78a2.71,2.71,0,0,0-1.67-.64,1.13,1.13,0,0,0-1.33,1c0,0.67.79,0.95,1.62,1.26,1,0.39,2.22.83,2.22,2.21,0,1.19-.95,2.17-2.67,2.17a4.39,4.39,0,0,1-2.71-1Z"/><path class="cls-2" d="M82.25,38.66c78.18,0,81.24,158.27,198.76,159.72"/><polygon class="cls-3" points="275.91 204.38 274.91 203.26 280.43 198.34 275.12 193.19 276.17 192.12 282.64 198.39 275.91 204.38"/><path class="cls-4" d="M82.25,380.72c84.68,0,82.23-155.94,198.76-159.69"/><polygon class="cls-5" points="276.3 227.4 275.23 226.34 280.44 221.09 274.82 216.28 275.79 215.14 282.64 221 276.3 227.4"/><line class="cls-6" x1="316.65" y1="208.82" x2="316.06" y2="208.83"/><line class="cls-7" x1="314.88" y1="208.84" x2="52.46" y2="211.58"/><line class="cls-6" x1="51.87" y1="211.59" x2="51.28" y2="211.59"/><polygon class="cls-8" points="323.71 208.75 313.72 204.79 316.12 208.83 313.81 212.91 323.71 208.75"/><path class="cls-1" d="M291.69,187.59c3.15-3.2,4.72-5,4.72-6.64a1.93,1.93,0,0,0-2.08-2.13,3,3,0,0,0-2.24,1.26l-0.43-.42a3.62,3.62,0,0,1,2.73-1.41,2.49,2.49,0,0,1,2.7,2.68c0,1.91-1.74,3.74-4.39,6.55,0.52,0,1.08-.07,1.6-0.07h3.27V188h-5.88v-0.42Z"/><path class="cls-1" d="M299,183.18c0-3.18,1-4.93,2.87-4.93s2.87,1.75,2.87,4.93-1,5-2.87,5S299,186.38,299,183.18Zm5.05,0c0-2.92-.85-4.36-2.19-4.36s-2.19,1.44-2.19,4.36,0.87,4.44,2.19,4.44S304,186.1,304,183.18Z"/><path class="cls-1" d="M306.7,187.43H309v-7.95h-1.71V179a5.79,5.79,0,0,0,1.84-.6h0.54v9h2.08V188h-5v-0.58Z"/><path class="cls-1" d="M313.39,186.44A3.42,3.42,0,0,0,316,187.6,2.44,2.44,0,0,0,318.4,185a2.24,2.24,0,0,0-2.34-2.47,2.91,2.91,0,0,0-1.78.65l-0.47-.29,0.35-4.49h4.42V179h-3.83l-0.3,3.46a3.11,3.11,0,0,1,1.71-.51,2.74,2.74,0,0,1,2.92,3,3,3,0,0,1-3.06,3.19,4,4,0,0,1-3-1.29Z"/><path class="cls-8" d="M28.82,207.3v3.33H32v1.44h-3.2v3.36h-1.5v-3.36h-3.2v-1.44h3.2V207.3h1.5Z"/><path class="cls-8" d="M32.17,38.17v1.54h-4V38.17h4Z"/><path class="cls-8" d="M30.93,380.65V382H27.49v-1.33h3.44Z"/></svg>