<svg id="Layer_1" data-name="Layer 1" xmlns="http://www.w3.org/2000/svg" viewBox="0 0 353.69 1100.03"><defs><style>.cls-1{fill:#231f20;}.cls-2,.cls-3,.cls-4,.cls-5,.cls-6,.cls-7{fill:none;stroke-miterlimit:10;}.cls-2{stroke:#2b388f;stroke-width:0.75px;}.cls-3,.cls-6{stroke:#7daada;}.cls-3,.cls-5,.cls-6,.cls-7{stroke-width:1.56px;}.cls-3{stroke-dasharray:1.56 1.56;}.cls-4,.cls-7{stroke:#5c9ad2;}.cls-4{stroke-width:0.78px;}.cls-5{stroke:#b2cfe4;stroke-dasharray:7.82 1.56;}.cls-6{stroke-dasharray:1.57 1.57;}.cls-7{stroke-dasharray:7.8 1.56;}</style></defs><title>thesis_final_website</title><path class="cls-1" d="M62,1036l0.49-2.47h1l-1.87,9.26H60.76l0.1-.94H60.81a3.15,3.15,0,0,1-2.2,1.09c-1.11,0-1.82-.81-1.82-2.29,0-2.43,1.66-4.34,3.42-4.34a1.67,1.67,0,0,1,1.5.92h0Zm-1,4.9,0.57-2.82a1.49,1.49,0,0,0-1.29-.94c-1.26,0-2.43,1.61-2.43,3.35,0,1.09.46,1.61,1.16,1.61A2.63,2.63,0,0,0,61,1040.88Z"/><path class="cls-1" d="M67.1,1036.29c1.42,0,2,1,2,2.29a4.12,4.12,0,0,1-.22,1.23H64.72c-0.23,1.63.61,2.31,1.72,2.31a2.53,2.53,0,0,0,1.42-.55l0.39,0.66a3.54,3.54,0,0,1-2,.68,2.37,2.37,0,0,1-2.48-2.64A3.76,3.76,0,0,1,67.1,1036.29Zm1,2.85a3.34,3.34,0,0,0,.06-0.65,1.22,1.22,0,0,0-1.22-1.4,2.47,2.47,0,0,0-2.16,2.05h3.32Z"/><path class="cls-1" d="M70.07,1041.23a2,2,0,0,0,1.63.92A1.24,1.24,0,0,0,73,1041.1c0-.46-0.27-0.71-1.16-1.2s-1.44-1-1.44-1.73a2,2,0,0,1,2.17-1.88,2.53,2.53,0,0,1,1.86.84l-0.57.56a1.76,1.76,0,0,0-1.31-.62,1.11,1.11,0,0,0-1.2,1,1.57,1.57,0,0,0,1.12,1.12c1.13,0.62,1.48,1.11,1.48,1.79a2.09,2.09,0,0,1-2.37,1.95,2.77,2.77,0,0,1-2.17-1.2Z"/><path class="cls-1" d="M76.38,1036.44h1l-1.27,6.32h-1Zm0.21-1.9a0.75,0.75,0,0,1,.75-0.75,0.6,0.6,0,0,1,.64.6,0.74,0.74,0,0,1-.75.74A0.59,0.59,0,0,1,76.59,1034.55Z"/><path class="cls-1" d="M84.28,1036.44l-1.33,6.62a2.89,2.89,0,0,1-3,2.61,3.48,3.48,0,0,1-2.21-.87l0.47-.69a2.74,2.74,0,0,0,1.78.75,2.06,2.06,0,0,0,2-1.88l0.31-1.3h0a3.15,3.15,0,0,1-2.15,1c-1.07,0-1.83-.75-1.83-2.22,0-2.31,1.64-4.19,3.34-4.19a1.71,1.71,0,0,1,1.52.95h0l0.25-.79h0.82Zm-1.86,4.32,0.56-2.7a1.51,1.51,0,0,0-1.29-.94c-1.22,0-2.35,1.56-2.35,3.21,0,1,.43,1.53,1.13,1.53A2.73,2.73,0,0,0,82.42,1040.76Z"/><path class="cls-1" d="M86.36,1036.44h0.82l-0.09.95h0.05a3.53,3.53,0,0,1,2.21-1.1,1.36,1.36,0,0,1,1.49,1.57,3.59,3.59,0,0,1-.1.87l-0.81,4h-1l0.78-3.9a3.87,3.87,0,0,0,.1-0.74,0.84,0.84,0,0,0-.94-1,3.07,3.07,0,0,0-1.9,1.14l-0.9,4.47h-1Z"/><path class="cls-1" d="M95.73,1037.25H94.81l0.14-.74,1-.06,0.47-1.74h0.85l-0.35,1.74h1.6l-0.16.81H96.72L96,1040.86a2.69,2.69,0,0,0,0,.47,0.68,0.68,0,0,0,.81.78,1.57,1.57,0,0,0,.66-0.2l0.22,0.72a2.89,2.89,0,0,1-1.2.29,1.31,1.31,0,0,1-1.51-1.4,5.78,5.78,0,0,1,.06-0.7Z"/><path class="cls-1" d="M102,1036.29c1.42,0,2,1,2,2.29a4.12,4.12,0,0,1-.22,1.23H99.59c-0.23,1.63.61,2.31,1.72,2.31a2.53,2.53,0,0,0,1.42-.55l0.39,0.66a3.54,3.54,0,0,1-2,.68,2.37,2.37,0,0,1-2.48-2.64A3.76,3.76,0,0,1,102,1036.29Zm1,2.85a3.34,3.34,0,0,0,.06-0.65,1.22,1.22,0,0,0-1.22-1.4,2.47,2.47,0,0,0-2.16,2.05H103Z"/><path class="cls-1" d="M108.29,1036.29a1.69,1.69,0,0,1,1.52.95h0.05l0.25-.79h0.81l-1.26,6.32h-0.82l0.1-.94h-0.05a3.15,3.15,0,0,1-2.2,1.09c-1.11,0-1.82-.81-1.82-2.29C104.87,1038.2,106.53,1036.29,108.29,1036.29Zm0.75,4.59,0.57-2.82a1.49,1.49,0,0,0-1.29-.94c-1.26,0-2.43,1.61-2.43,3.35,0,1.09.46,1.61,1.16,1.61A2.61,2.61,0,0,0,109,1040.88Z"/><path class="cls-1" d="M113,1036.44h0.82l-0.09.95h0.05a3.43,3.43,0,0,1,2.08-1.1,1.29,1.29,0,0,1,1.46,1.23,3.69,3.69,0,0,1,2.24-1.23,1.36,1.36,0,0,1,1.5,1.57,4.43,4.43,0,0,1-.1.87l-0.81,4h-1l0.79-3.9a3.81,3.81,0,0,0,.1-0.74,0.84,0.84,0,0,0-.92-1,3.14,3.14,0,0,0-1.78,1.14l-0.9,4.47h-1l0.78-3.9a3.81,3.81,0,0,0,.1-0.74,0.83,0.83,0,0,0-.91-1,3.06,3.06,0,0,0-1.78,1.14l-0.9,4.47h-1Z"/><path class="cls-1" d="M60.29,1059.6a2.08,2.08,0,0,1,1.64.77l-0.58.62a1.32,1.32,0,0,0-1.12-.57c-1.26,0-2.44,1.48-2.44,3.21,0,1.14.49,1.77,1.5,1.77a2.3,2.3,0,0,0,1.4-.56l0.44,0.65a3.22,3.22,0,0,1-2,.74,2.27,2.27,0,0,1-2.33-2.53A3.86,3.86,0,0,1,60.29,1059.6Z"/><path class="cls-1" d="M62.25,1063.69c0-2.39,1.68-4.1,3.41-4.1a2.25,2.25,0,0,1,2.26,2.54c0,2.39-1.69,4.09-3.42,4.09A2.24,2.24,0,0,1,62.25,1063.69Zm1-.06c0,1.14.48,1.77,1.35,1.77,1.17,0,2.3-1.43,2.3-3.2,0-1.14-.48-1.78-1.35-1.78C64.4,1060.41,63.25,1061.86,63.25,1063.63Z"/><path class="cls-1" d="M70.09,1059.75h0.82l-0.09.95h0.05a3.43,3.43,0,0,1,2.08-1.1,1.29,1.29,0,0,1,1.46,1.23,3.69,3.69,0,0,1,2.24-1.23,1.36,1.36,0,0,1,1.5,1.57,4.43,4.43,0,0,1-.1.87l-0.81,4h-1l0.79-3.9a3.81,3.81,0,0,0,.1-0.74,0.84,0.84,0,0,0-.92-1,3.14,3.14,0,0,0-1.78,1.14l-0.9,4.47h-1l0.78-3.9a3.81,3.81,0,0,0,.1-0.74,0.83,0.83,0,0,0-.91-1,3.06,3.06,0,0,0-1.78,1.14l-0.9,4.47h-1Z"/><path class="cls-1" d="M80.48,1059.75H81.3l-0.09.95h0.05a3.43,3.43,0,0,1,2.08-1.1,1.29,1.29,0,0,1,1.46,1.23A3.69,3.69,0,0,1,87,1059.6a1.36,1.36,0,0,1,1.5,1.57,4.43,4.43,0,0,1-.1.87l-0.81,4h-1l0.79-3.9a3.81,3.81,0,0,0,.1-0.74,0.84,0.84,0,0,0-.92-1,3.14,3.14,0,0,0-1.78,1.14l-0.9,4.47h-1l0.78-3.9a3.81,3.81,0,0,0,.1-0.74,0.83,0.83,0,0,0-.91-1,3.06,3.06,0,0,0-1.78,1.14l-0.9,4.47h-1Z"/><path class="cls-1" d="M93.08,1059.6c1.42,0,2,1,2,2.29a4.12,4.12,0,0,1-.22,1.23H90.7c-0.23,1.63.61,2.31,1.72,2.31a2.53,2.53,0,0,0,1.42-.55l0.39,0.66a3.54,3.54,0,0,1-2,.68,2.37,2.37,0,0,1-2.48-2.64A3.76,3.76,0,0,1,93.08,1059.6Zm1,2.85a3.34,3.34,0,0,0,.06-0.65,1.22,1.22,0,0,0-1.22-1.4,2.47,2.47,0,0,0-2.16,2.05h3.32Z"/><path class="cls-1" d="M97.12,1059.75h0.82L97.8,1061h0.05a2.56,2.56,0,0,1,2-1.36,1.45,1.45,0,0,1,.6.12l-0.35.88a1.23,1.23,0,0,0-.55-0.1,2.46,2.46,0,0,0-1.86,1.59l-0.79,4h-1Z"/><path class="cls-1" d="M103.79,1059.6a2.08,2.08,0,0,1,1.64.77l-0.58.62a1.32,1.32,0,0,0-1.12-.57c-1.26,0-2.44,1.48-2.44,3.21,0,1.14.49,1.77,1.5,1.77a2.3,2.3,0,0,0,1.4-.56l0.44,0.65a3.22,3.22,0,0,1-2,.74,2.27,2.27,0,0,1-2.33-2.53A3.86,3.86,0,0,1,103.79,1059.6Z"/><path class="cls-1" d="M107.1,1059.75h1l-1.27,6.32h-1Zm0.21-1.9a0.75,0.75,0,0,1,.75-0.75,0.6,0.6,0,0,1,.64.6,0.74,0.74,0,0,1-.75.74A0.59,0.59,0,0,1,107.31,1057.85Z"/><path class="cls-1" d="M112.45,1059.6a1.69,1.69,0,0,1,1.52.95H114l0.25-.79h0.81l-1.26,6.32H113l0.1-.94H113a3.15,3.15,0,0,1-2.2,1.09c-1.11,0-1.82-.81-1.82-2.29C109,1061.51,110.69,1059.6,112.45,1059.6Zm0.75,4.59,0.57-2.82a1.49,1.49,0,0,0-1.29-.94c-1.26,0-2.43,1.61-2.43,3.35,0,1.09.46,1.61,1.16,1.61A2.61,2.61,0,0,0,113.2,1064.18Z"/><path class="cls-1" d="M117.75,1056.81h1l-1.62,8.1a1.09,1.09,0,0,0,0,.25,0.21,0.21,0,0,0,.22.23,0.54,0.54,0,0,0,.21,0v0.77a1.64,1.64,0,0,1-.62.1,0.75,0.75,0,0,1-.84-0.82,2.44,2.44,0,0,1,.08-0.55Z"/><path class="cls-1" d="M125.23,1059.6a2.08,2.08,0,0,1,1.64.77l-0.58.62a1.32,1.32,0,0,0-1.12-.57c-1.26,0-2.44,1.48-2.44,3.21,0,1.14.49,1.77,1.5,1.77a2.3,2.3,0,0,0,1.4-.56l0.44,0.65a3.22,3.22,0,0,1-2,.74,2.27,2.27,0,0,1-2.33-2.53A3.86,3.86,0,0,1,125.23,1059.6Z"/><path class="cls-1" d="M129.13,1056.81h1l-1.62,8.1a1.09,1.09,0,0,0,0,.25,0.21,0.21,0,0,0,.22.23,0.54,0.54,0,0,0,.21,0v0.77a1.64,1.64,0,0,1-.62.1,0.75,0.75,0,0,1-.84-0.82,2.44,2.44,0,0,1,.08-0.55Z"/><path class="cls-1" d="M131.76,1059.75h1l-1.27,6.32h-1Zm0.21-1.9a0.75,0.75,0,0,1,.75-0.75,0.6,0.6,0,0,1,.64.6,0.74,0.74,0,0,1-.75.74A0.59,0.59,0,0,1,132,1057.85Z"/><path class="cls-1" d="M137,1059.6c1.42,0,2,1,2,2.29a4.12,4.12,0,0,1-.22,1.23h-4.11c-0.23,1.63.61,2.31,1.72,2.31a2.53,2.53,0,0,0,1.42-.55l0.39,0.66a3.54,3.54,0,0,1-2,.68,2.37,2.37,0,0,1-2.48-2.64A3.76,3.76,0,0,1,137,1059.6Zm1,2.85a3.34,3.34,0,0,0,.06-0.65,1.22,1.22,0,0,0-1.22-1.4,2.47,2.47,0,0,0-2.16,2.05h3.32Z"/><path class="cls-1" d="M141.09,1059.75h0.82l-0.09.95h0.05a3.53,3.53,0,0,1,2.21-1.1,1.36,1.36,0,0,1,1.5,1.57,3.6,3.6,0,0,1-.1.87l-0.81,4h-1l0.78-3.9a3.87,3.87,0,0,0,.1-0.74,0.84,0.84,0,0,0-.94-1,3.07,3.07,0,0,0-1.9,1.14l-0.9,4.47h-1Z"/><path class="cls-1" d="M148,1060.56H147l0.14-.74,1-.06,0.47-1.74h0.84l-0.35,1.74h1.6l-0.16.81H149l-0.74,3.61a2.69,2.69,0,0,0,0,.47,0.68,0.68,0,0,0,.81.78,1.57,1.57,0,0,0,.66-0.2l0.22,0.72a2.89,2.89,0,0,1-1.2.29,1.31,1.31,0,0,1-1.51-1.4,6,6,0,0,1,.06-0.7Z"/><rect class="cls-2" x="25.4" y="1038.93" width="19.28" height="1.56"/><line class="cls-3" x1="44.68" y1="1062.86" x2="25.4" y2="1062.86"/><path class="cls-1" d="M213.74,1041.57l1.85-9.26h1l-0.51,2.47-0.29,1.25h0a3.56,3.56,0,0,1,2.14-.94c1.11,0,1.82.81,1.82,2.29,0,2.43-1.66,4.34-3.41,4.34a1.69,1.69,0,0,1-1.52-.95h0l-0.26.79h-0.82Zm1.91-4.62-0.6,3a1.46,1.46,0,0,0,1.29.94c1.26,0,2.42-1.61,2.42-3.37,0-1.07-.44-1.6-1.16-1.6A3,3,0,0,0,215.65,1037Z"/><path class="cls-1" d="M225.47,1041.57h-0.82l0.1-1h-0.05a3.56,3.56,0,0,1-2.18,1.12,1.36,1.36,0,0,1-1.49-1.57,3.52,3.52,0,0,1,.1-0.87l0.81-4h1l-0.79,3.9a3.86,3.86,0,0,0-.1.74,0.84,0.84,0,0,0,.94,1,3,3,0,0,0,1.87-1.14l0.9-4.47h1Z"/><path class="cls-1" d="M227.74,1040a2,2,0,0,0,1.63.92,1.24,1.24,0,0,0,1.34-1.05c0-.46-0.27-0.71-1.16-1.2s-1.44-1-1.44-1.73a2,2,0,0,1,2.17-1.88,2.53,2.53,0,0,1,1.86.84l-0.57.56a1.77,1.77,0,0,0-1.31-.62,1.11,1.11,0,0,0-1.2,1,1.57,1.57,0,0,0,1.12,1.12c1.13,0.62,1.48,1.11,1.48,1.79a2.09,2.09,0,0,1-2.37,1.95,2.77,2.77,0,0,1-2.17-1.2Z"/><path class="cls-1" d="M234.05,1035.25h1l-1.27,6.32h-1Zm0.21-1.9a0.75,0.75,0,0,1,.75-0.75,0.6,0.6,0,0,1,.64.6,0.74,0.74,0,0,1-.75.74A0.59,0.59,0,0,1,234.26,1033.35Z"/><path class="cls-1" d="M237.12,1035.25h0.82l-0.09.95h0.05a3.53,3.53,0,0,1,2.21-1.1,1.36,1.36,0,0,1,1.49,1.57,3.59,3.59,0,0,1-.1.87l-0.81,4h-1l0.78-3.9a3.87,3.87,0,0,0,.1-0.74,0.84,0.84,0,0,0-.94-1,3.07,3.07,0,0,0-1.9,1.14l-0.9,4.47h-1Z"/><path class="cls-1" d="M246.16,1035.09c1.42,0,2,1,2,2.29a4.12,4.12,0,0,1-.22,1.23h-4.11c-0.23,1.63.61,2.31,1.72,2.31a2.53,2.53,0,0,0,1.42-.55l0.39,0.66a3.54,3.54,0,0,1-2,.68,2.37,2.37,0,0,1-2.48-2.64A3.76,3.76,0,0,1,246.16,1035.09Zm1,2.85a3.34,3.34,0,0,0,.06-0.65,1.22,1.22,0,0,0-1.22-1.4,2.47,2.47,0,0,0-2.16,2.05h3.32Z"/><path class="cls-1" d="M249.12,1040a2,2,0,0,0,1.63.92,1.24,1.24,0,0,0,1.34-1.05c0-.46-0.27-0.71-1.16-1.2s-1.44-1-1.44-1.73a2,2,0,0,1,2.17-1.88,2.53,2.53,0,0,1,1.86.84l-0.57.56a1.77,1.77,0,0,0-1.31-.62,1.11,1.11,0,0,0-1.2,1,1.57,1.57,0,0,0,1.12,1.12c1.13,0.62,1.48,1.11,1.48,1.79a2.09,2.09,0,0,1-2.37,1.95,2.77,2.77,0,0,1-2.17-1.2Z"/><path class="cls-1" d="M254.35,1040a2,2,0,0,0,1.63.92,1.24,1.24,0,0,0,1.34-1.05c0-.46-0.27-0.71-1.16-1.2s-1.44-1-1.44-1.73a2,2,0,0,1,2.17-1.88,2.53,2.53,0,0,1,1.86.84l-0.57.56a1.76,1.76,0,0,0-1.31-.62,1.11,1.11,0,0,0-1.2,1,1.57,1.57,0,0,0,1.12,1.12c1.13,0.62,1.48,1.11,1.48,1.79a2.09,2.09,0,0,1-2.37,1.95,2.77,2.77,0,0,1-2.17-1.2Z"/><path class="cls-1" d="M265.5,1035.09a2.08,2.08,0,0,1,1.64.77l-0.58.62a1.32,1.32,0,0,0-1.12-.57c-1.26,0-2.44,1.48-2.44,3.21,0,1.14.49,1.77,1.5,1.77a2.3,2.3,0,0,0,1.4-.56l0.44,0.65a3.22,3.22,0,0,1-2,.74,2.27,2.27,0,0,1-2.33-2.53A3.86,3.86,0,0,1,265.5,1035.09Z"/><path class="cls-1" d="M267.46,1039.19c0-2.39,1.68-4.1,3.41-4.1a2.25,2.25,0,0,1,2.26,2.54c0,2.39-1.69,4.09-3.42,4.09A2.24,2.24,0,0,1,267.46,1039.19Zm1-.06c0,1.14.48,1.77,1.35,1.77,1.17,0,2.3-1.43,2.3-3.2,0-1.14-.48-1.78-1.35-1.78C269.61,1035.91,268.46,1037.36,268.46,1039.12Z"/><path class="cls-1" d="M275.3,1035.25h0.82l-0.09.95h0.05a3.53,3.53,0,0,1,2.21-1.1,1.36,1.36,0,0,1,1.5,1.57,3.6,3.6,0,0,1-.1.87l-0.81,4h-1l0.78-3.9a3.87,3.87,0,0,0,.1-0.74,0.84,0.84,0,0,0-.94-1,3.07,3.07,0,0,0-1.9,1.14l-0.9,4.47h-1Z"/><path class="cls-1" d="M281,1040a2,2,0,0,0,1.63.92,1.24,1.24,0,0,0,1.34-1.05c0-.46-0.27-0.71-1.16-1.2s-1.44-1-1.44-1.73a2,2,0,0,1,2.17-1.88,2.53,2.53,0,0,1,1.86.84l-0.57.56a1.77,1.77,0,0,0-1.31-.62,1.11,1.11,0,0,0-1.2,1,1.57,1.57,0,0,0,1.12,1.12c1.13,0.62,1.48,1.11,1.48,1.79a2.09,2.09,0,0,1-2.37,1.95,2.77,2.77,0,0,1-2.17-1.2Z"/><path class="cls-1" d="M290.88,1041.57h-0.82l0.1-1h-0.05a3.56,3.56,0,0,1-2.18,1.12,1.36,1.36,0,0,1-1.49-1.57,3.52,3.52,0,0,1,.1-0.87l0.81-4h1l-0.79,3.9a3.86,3.86,0,0,0-.1.74,0.84,0.84,0,0,0,.94,1,3,3,0,0,0,1.87-1.14l0.9-4.47h1Z"/><path class="cls-1" d="M294.82,1032.31h1l-1.62,8.1a1.09,1.09,0,0,0,0,.25,0.21,0.21,0,0,0,.22.23,0.54,0.54,0,0,0,.21,0v0.77a1.64,1.64,0,0,1-.62.1,0.75,0.75,0,0,1-.84-0.82,2.44,2.44,0,0,1,.08-0.55Z"/><path class="cls-1" d="M297.49,1036.06h-0.92l0.14-.74,1-.06,0.47-1.74H299l-0.35,1.74h1.6l-0.16.81h-1.62l-0.74,3.61a2.69,2.69,0,0,0,0,.47,0.68,0.68,0,0,0,.81.78,1.57,1.57,0,0,0,.66-0.2l0.22,0.72a2.89,2.89,0,0,1-1.2.29,1.31,1.31,0,0,1-1.51-1.4,5.78,5.78,0,0,1,.06-0.7Z"/><path class="cls-1" d="M303.8,1035.09a1.69,1.69,0,0,1,1.52.95h0.05l0.25-.79h0.81l-1.26,6.32h-0.82l0.1-.94H304.4a3.15,3.15,0,0,1-2.2,1.09c-1.11,0-1.82-.81-1.82-2.29C300.38,1037,302,1035.09,303.8,1035.09Zm0.75,4.59,0.57-2.82a1.48,1.48,0,0,0-1.29-.94c-1.26,0-2.43,1.61-2.43,3.35,0,1.09.46,1.61,1.16,1.61A2.6,2.6,0,0,0,304.55,1039.68Z"/><path class="cls-1" d="M308.5,1035.25h0.82l-0.09.95h0.05a3.53,3.53,0,0,1,2.21-1.1,1.36,1.36,0,0,1,1.5,1.57,3.6,3.6,0,0,1-.1.87l-0.81,4h-1l0.78-3.9a3.87,3.87,0,0,0,.1-0.74,0.84,0.84,0,0,0-.94-1,3.07,3.07,0,0,0-1.9,1.14l-0.9,4.47h-1Z"/><path class="cls-1" d="M317.68,1035.09a2.08,2.08,0,0,1,1.64.77l-0.58.62a1.32,1.32,0,0,0-1.12-.57c-1.26,0-2.44,1.48-2.44,3.21,0,1.14.49,1.77,1.5,1.77a2.3,2.3,0,0,0,1.4-.56l0.44,0.65a3.22,3.22,0,0,1-2,.74,2.27,2.27,0,0,1-2.33-2.53A3.86,3.86,0,0,1,317.68,1035.09Z"/><path class="cls-1" d="M319.4,1043.48A2.13,2.13,0,0,0,321,1042l0.23-.46-1.08-6.33h1l0.49,3.55c0.09,0.57.16,1.29,0.21,1.88h0.05c0.3-.6.62-1.29,0.94-1.88l1.82-3.55h1L322,1042.1c-0.66,1.23-1.43,2.18-2.64,2.18a1.71,1.71,0,0,1-.73-0.18l0.32-.74A1,1,0,0,0,319.4,1043.48Z"/><path class="cls-1" d="M220.16,1058.56l-1.33,6.62a2.89,2.89,0,0,1-3,2.61,3.48,3.48,0,0,1-2.21-.87l0.47-.69a2.74,2.74,0,0,0,1.78.75,2.06,2.06,0,0,0,2-1.88l0.31-1.3h0a3.15,3.15,0,0,1-2.15,1c-1.07,0-1.83-.75-1.83-2.22,0-2.31,1.64-4.19,3.34-4.19a1.71,1.71,0,0,1,1.52.95h0l0.25-.79h0.82Zm-1.86,4.32,0.56-2.7a1.51,1.51,0,0,0-1.29-.94c-1.22,0-2.35,1.56-2.35,3.21,0,1,.43,1.53,1.13,1.53A2.73,2.73,0,0,0,218.3,1062.87Z"/><path class="cls-1" d="M221.09,1062.5c0-2.39,1.68-4.1,3.41-4.1a2.25,2.25,0,0,1,2.26,2.54c0,2.39-1.69,4.09-3.42,4.09A2.24,2.24,0,0,1,221.09,1062.5Zm1-.06c0,1.14.48,1.77,1.35,1.77,1.17,0,2.3-1.43,2.3-3.2,0-1.14-.48-1.78-1.35-1.78C223.24,1059.22,222.1,1060.66,222.1,1062.43Z"/><path class="cls-1" d="M227.91,1058.56h1l0.47,3.65c0.07,0.61.12,1.27,0.18,1.89h0.05c0.3-.62.61-1.26,0.94-1.89l1.86-3.65h1l-3.37,6.32h-1.2Z"/><path class="cls-1" d="M236.77,1058.4c1.42,0,2,1,2,2.29a4.12,4.12,0,0,1-.22,1.23H234.4c-0.23,1.63.61,2.31,1.72,2.31a2.53,2.53,0,0,0,1.42-.55l0.39,0.66a3.54,3.54,0,0,1-2,.68,2.37,2.37,0,0,1-2.48-2.64A3.76,3.76,0,0,1,236.77,1058.4Zm1,2.85a3.34,3.34,0,0,0,.06-0.65,1.22,1.22,0,0,0-1.22-1.4,2.47,2.47,0,0,0-2.16,2.05h3.32Z"/><path class="cls-1" d="M240.82,1058.56h0.82l-0.14,1.21h0.05a2.56,2.56,0,0,1,2-1.36,1.45,1.45,0,0,1,.6.12l-0.35.88a1.23,1.23,0,0,0-.55-0.1,2.46,2.46,0,0,0-1.86,1.59l-0.79,4h-1Z"/><path class="cls-1" d="M245.26,1058.56h0.82l-0.09.95H246a3.53,3.53,0,0,1,2.21-1.1,1.36,1.36,0,0,1,1.49,1.57,3.59,3.59,0,0,1-.1.87l-0.81,4h-1l0.78-3.9a3.87,3.87,0,0,0,.1-0.74,0.84,0.84,0,0,0-.94-1,3.07,3.07,0,0,0-1.9,1.14l-0.9,4.47h-1Z"/><path class="cls-1" d="M252.09,1058.56h0.82l-0.09.95h0.05a3.43,3.43,0,0,1,2.08-1.1,1.29,1.29,0,0,1,1.46,1.23,3.69,3.69,0,0,1,2.24-1.23,1.36,1.36,0,0,1,1.5,1.57,4.43,4.43,0,0,1-.1.87l-0.81,4h-1L259,1061a3.81,3.81,0,0,0,.1-0.74,0.84,0.84,0,0,0-.92-1,3.14,3.14,0,0,0-1.78,1.14l-0.9,4.47h-1l0.78-3.9a3.81,3.81,0,0,0,.1-0.74,0.83,0.83,0,0,0-.91-1,3.06,3.06,0,0,0-1.78,1.14l-0.9,4.47h-1Z"/><path class="cls-1" d="M264.69,1058.4c1.42,0,2,1,2,2.29a4.12,4.12,0,0,1-.22,1.23h-4.11c-0.23,1.63.61,2.31,1.72,2.31a2.53,2.53,0,0,0,1.42-.55l0.39,0.66a3.54,3.54,0,0,1-2,.68,2.37,2.37,0,0,1-2.48-2.64A3.76,3.76,0,0,1,264.69,1058.4Zm1,2.85a3.34,3.34,0,0,0,.06-0.65,1.22,1.22,0,0,0-1.22-1.4,2.47,2.47,0,0,0-2.16,2.05h3.32Z"/><path class="cls-1" d="M268.73,1058.56h0.82l-0.09.95h0.05a3.53,3.53,0,0,1,2.21-1.1,1.36,1.36,0,0,1,1.49,1.57,3.59,3.59,0,0,1-.1.87l-0.81,4h-1l0.78-3.9a3.87,3.87,0,0,0,.1-0.74,0.84,0.84,0,0,0-.94-1,3.07,3.07,0,0,0-1.9,1.14l-0.9,4.47h-1Z"/><path class="cls-1" d="M275.61,1059.36h-0.92l0.14-.74,1-.06,0.47-1.74h0.85l-0.35,1.74h1.6l-0.16.81h-1.62l-0.74,3.61a2.69,2.69,0,0,0,0,.47,0.68,0.68,0,0,0,.81.78,1.57,1.57,0,0,0,.66-0.2l0.22,0.72a2.89,2.89,0,0,1-1.2.29,1.31,1.31,0,0,1-1.51-1.4,5.78,5.78,0,0,1,.06-0.7Z"/><line class="cls-4" x1="201.72" y1="1038.21" x2="182.44" y2="1038.21"/><line class="cls-5" x1="201.72" y1="1061.36" x2="182.44" y2="1061.36"/><polygon class="cls-1" points="91.62 494.45 91.09 493.87 93.96 491.29 91.18 488.62 91.72 488.05 95.11 491.31 91.62 494.45"/><polygon class="cls-1" points="188.47 494.45 187.94 493.87 190.81 491.29 188.03 488.62 188.57 488.05 191.96 491.31 188.47 494.45"/><path class="cls-1" d="M106.32,162.84h2.07v-5.5H106.6V156a6.63,6.63,0,0,0,2.37-.87h1.62v7.74h1.78v1.79h-6.06v-1.79Z"/><path class="cls-1" d="M115.44,162a1.39,1.39,0,1,1-1.33,1.39A1.33,1.33,0,0,1,115.44,162Z"/><path class="cls-1" d="M121.81,155a0.86,0.86,0,0,1,1.71,0A0.86,0.86,0,0,1,121.81,155Zm0.22,2.29h1.23v7.29H122v-7.29Z"/><path class="cls-1" d="M125.73,157.34h1l0.1,1h0a3.44,3.44,0,0,1,2.45-1.23c1.53,0,2.22,1,2.22,2.85v4.62h-1.23v-4.45c0-1.37-.42-2-1.38-2a2.79,2.79,0,0,0-2,1.13v5.28h-1.23v-7.29Z"/><path class="cls-1" d="M136.57,157.16a3,3,0,0,1,2,.84l-0.06-1.24v-2.81h1.25v10.68h-1l-0.11-.85h0a3.29,3.29,0,0,1-2.21,1c-1.83,0-3-1.38-3-3.81S134.91,157.16,136.57,157.16Zm0.12,6.61a2.47,2.47,0,0,0,1.86-1V159a2.54,2.54,0,0,0-1.77-.76c-1.17,0-2.1,1.13-2.1,2.79S135.42,163.77,136.69,163.77Z"/><path class="cls-1" d="M145,157.16c1.86,0,2.91,1.33,2.91,3.42a4.43,4.43,0,0,1,0,.67h-4.92a2.43,2.43,0,0,0,2.43,2.56,3.3,3.3,0,0,0,1.81-.57l0.44,0.81a4.34,4.34,0,0,1-2.4.75,3.49,3.49,0,0,1-3.49-3.81C141.72,158.61,143.32,157.16,145,157.16Zm1.83,3.28c0-1.48-.66-2.31-1.8-2.31a2.27,2.27,0,0,0-2.1,2.31h3.9Z"/><path class="cls-1" d="M150.93,165.24v2.46H149.7V157.34h1l0.1,0.84h0a3.77,3.77,0,0,1,2.32-1c1.88,0,2.88,1.46,2.88,3.72,0,2.48-1.48,3.93-3.15,3.93a3.38,3.38,0,0,1-2-.84Zm1.79-1.47c1.2,0,2.08-1.09,2.08-2.9,0-1.6-.54-2.68-1.92-2.68a3.07,3.07,0,0,0-2,1V163A2.88,2.88,0,0,0,152.71,163.77Z"/><path class="cls-1" d="M160.75,157.16c1.86,0,2.91,1.33,2.91,3.42a4.43,4.43,0,0,1,0,.67H158.7a2.43,2.43,0,0,0,2.43,2.56,3.3,3.3,0,0,0,1.81-.57l0.44,0.81a4.34,4.34,0,0,1-2.4.75,3.49,3.49,0,0,1-3.49-3.81C157.48,158.61,159.09,157.16,160.75,157.16Zm1.83,3.28c0-1.48-.66-2.31-1.8-2.31a2.27,2.27,0,0,0-2.1,2.31h3.9Z"/><path class="cls-1" d="M165.46,157.34h1l0.1,1h0a3.44,3.44,0,0,1,2.45-1.23c1.53,0,2.22,1,2.22,2.85v4.62h-1.23v-4.45c0-1.37-.42-2-1.38-2a2.79,2.79,0,0,0-2,1.13v5.28h-1.23v-7.29Z"/><path class="cls-1" d="M176.31,157.16a3,3,0,0,1,2,.84l-0.06-1.24v-2.81h1.25v10.68h-1l-0.11-.85h0a3.29,3.29,0,0,1-2.21,1c-1.83,0-3-1.38-3-3.81S174.64,157.16,176.31,157.16Zm0.12,6.61a2.47,2.47,0,0,0,1.86-1V159a2.54,2.54,0,0,0-1.77-.76c-1.17,0-2.1,1.13-2.1,2.79S175.15,163.77,176.43,163.77Z"/><path class="cls-1" d="M184.72,157.16c1.86,0,2.91,1.33,2.91,3.42a4.43,4.43,0,0,1,0,.67h-4.92a2.43,2.43,0,0,0,2.43,2.56,3.3,3.3,0,0,0,1.81-.57l0.44,0.81a4.34,4.34,0,0,1-2.4.75,3.49,3.49,0,0,1-3.49-3.81C181.45,158.61,183.06,157.16,184.72,157.16Zm1.83,3.28c0-1.48-.66-2.31-1.8-2.31a2.27,2.27,0,0,0-2.1,2.31h3.9Z"/><path class="cls-1" d="M189.43,157.34h1l0.1,1h0a3.43,3.43,0,0,1,2.44-1.23c1.53,0,2.22,1,2.22,2.85v4.62H194v-4.45c0-1.37-.42-2-1.38-2a2.79,2.79,0,0,0-2,1.13v5.28h-1.23v-7.29Z"/><path class="cls-1" d="M197.85,158.34h-1.08v-0.93l1.14-.07,0.15-2h1v2h2v1h-2v4c0,0.9.29,1.41,1.13,1.41a2.66,2.66,0,0,0,.83-0.19l0.24,0.93a4.51,4.51,0,0,1-1.35.27c-1.56,0-2.08-1-2.08-2.43v-4Z"/><path class="cls-1" d="M208.38,157.16a3,3,0,0,1,2,.84l-0.06-1.24v-2.81h1.25v10.68h-1l-0.11-.85h0a3.29,3.29,0,0,1-2.21,1c-1.83,0-3-1.38-3-3.81S206.71,157.16,208.38,157.16Zm0.12,6.61a2.47,2.47,0,0,0,1.86-1V159a2.54,2.54,0,0,0-1.77-.76c-1.17,0-2.1,1.13-2.1,2.79S207.22,163.77,208.5,163.77Z"/><path class="cls-1" d="M216.79,157.16c1.86,0,2.91,1.33,2.91,3.42a4.43,4.43,0,0,1,0,.67h-4.92a2.43,2.43,0,0,0,2.43,2.56,3.3,3.3,0,0,0,1.81-.57l0.44,0.81a4.34,4.34,0,0,1-2.4.75,3.49,3.49,0,0,1-3.49-3.81C213.52,158.61,215.13,157.16,216.79,157.16Zm1.83,3.28c0-1.48-.66-2.31-1.8-2.31a2.27,2.27,0,0,0-2.1,2.31h3.9Z"/><path class="cls-1" d="M221.31,163a3.28,3.28,0,0,0,2.14.87,1.22,1.22,0,0,0,1.44-1.14c0-.75-0.87-1.08-1.67-1.38-1-.37-2.17-0.87-2.17-2.1s0.93-2.07,2.5-2.07a3.64,3.64,0,0,1,2.26.83l-0.58.78a2.71,2.71,0,0,0-1.67-.65,1.13,1.13,0,0,0-1.33,1c0,0.68.79,0.95,1.62,1.26,1,0.39,2.22.82,2.22,2.2,0,1.19-.95,2.18-2.67,2.18a4.39,4.39,0,0,1-2.71-1Z"/><path class="cls-1" d="M227.56,155a0.86,0.86,0,0,1,1.71,0A0.86,0.86,0,0,1,227.56,155Zm0.22,2.29H229v7.29h-1.23v-7.29Z"/><path class="cls-1" d="M232,164.37v-0.06a1.35,1.35,0,0,1-.65-1.19,1.71,1.71,0,0,1,.79-1.35v-0.06a2.57,2.57,0,0,1,1.8-4.56,2.91,2.91,0,0,1,1,.18h2.54v0.94H236a2.11,2.11,0,0,1,.6,1.5,2.5,2.5,0,0,1-2.67,2.53,2.55,2.55,0,0,1-1.09-.25,1.1,1.1,0,0,0-.46.87c0,0.46.3,0.79,1.29,0.79h1.41c1.69,0,2.55.52,2.55,1.74S236.2,168,233.94,168c-1.78,0-3-.71-3-2A2.1,2.1,0,0,1,232,164.37Zm2.13,2.76c1.39,0,2.31-.72,2.31-1.48s-0.53-.9-1.47-0.9H233.7a3.56,3.56,0,0,1-.95-0.12,1.53,1.53,0,0,0-.75,1.23C232,166.64,232.8,167.13,234.12,167.13Zm1.36-7.38a1.55,1.55,0,1,0-3.09,0A1.56,1.56,0,1,0,235.48,159.75Z"/><path class="cls-1" d="M239,157.34h1l0.1,1h0a3.44,3.44,0,0,1,2.45-1.23c1.53,0,2.22,1,2.22,2.85v4.62h-1.23v-4.45c0-1.37-.42-2-1.38-2a2.79,2.79,0,0,0-2,1.13v5.28H239v-7.29Z"/><path class="cls-1" d="M142,175.16a3,3,0,0,1,2.13.87l-0.62.79a2.2,2.2,0,0,0-1.47-.65c-1.32,0-2.28,1.14-2.28,2.82s0.92,2.79,2.25,2.79a2.6,2.6,0,0,0,1.71-.73l0.55,0.81a3.61,3.61,0,0,1-2.37.95c-1.93,0-3.42-1.4-3.42-3.81A3.53,3.53,0,0,1,142,175.16Z"/><path class="cls-1" d="M148.35,175.16c1.79,0,3.38,1.4,3.38,3.84s-1.59,3.81-3.37,3.81S145,181.41,145,179,146.57,175.16,148.35,175.16Zm0,6.63c1.26,0,2.1-1.12,2.1-2.79s-0.84-2.82-2.1-2.82-2.1,1.14-2.1,2.82S147.11,181.79,148.35,181.79Z"/><path class="cls-1" d="M153.65,175.34h1l0.1,1h0a3.43,3.43,0,0,1,2.44-1.23c1.53,0,2.22,1,2.22,2.85v4.62h-1.23v-4.45c0-1.37-.42-2-1.38-2a2.79,2.79,0,0,0-2,1.13v5.28h-1.23v-7.29Z"/><path class="cls-1" d="M161.66,181a3.28,3.28,0,0,0,2.14.87,1.22,1.22,0,0,0,1.44-1.14c0-.75-0.87-1.08-1.67-1.38-1-.37-2.17-0.87-2.17-2.1s0.93-2.07,2.5-2.07a3.64,3.64,0,0,1,2.26.83l-0.58.78a2.71,2.71,0,0,0-1.67-.65,1.13,1.13,0,0,0-1.33,1c0,0.68.79,0.95,1.62,1.26,1,0.39,2.22.82,2.22,2.2,0,1.19-.95,2.18-2.67,2.18a4.39,4.39,0,0,1-2.71-1Z"/><path class="cls-1" d="M168,175.34h1.25v4.45c0,1.37.4,2,1.36,2a2.48,2.48,0,0,0,2-1.23v-5.17h1.23v7.29h-1l-0.11-1.14h0a3.08,3.08,0,0,1-2.4,1.32c-1.54,0-2.23-1-2.23-2.85v-4.62Z"/><path class="cls-1" d="M176.3,171.95h1.23v9.3c0,0.39.17,0.54,0.34,0.54a1,1,0,0,0,.27,0l0.17,0.93a1.66,1.66,0,0,1-.71.12c-0.93,0-1.31-.58-1.31-1.65v-9.21Z"/><path class="cls-1" d="M180.33,176.34h-1.08v-0.93l1.14-.07,0.15-2h1v2h2v1h-2v4c0,0.9.29,1.41,1.13,1.41a2.66,2.66,0,0,0,.83-0.19l0.24,0.93a4.51,4.51,0,0,1-1.35.27c-1.56,0-2.08-1-2.08-2.43v-4Z"/><path class="cls-1" d="M189,178c0-.93-0.31-1.83-1.5-1.83a3.93,3.93,0,0,0-2.17.78l-0.5-.85a5.41,5.41,0,0,1,2.87-.94c1.79,0,2.54,1.19,2.54,3v4.47h-1l-0.1-.87h0a4,4,0,0,1-2.42,1.05,2,2,0,0,1-2.14-2.07C184.57,179.15,185.94,178.35,189,178Zm-2,3.81a3,3,0,0,0,2-1v-2c-2.44.3-3.27,0.9-3.27,1.83A1.12,1.12,0,0,0,187.05,181.82Z"/><path class="cls-1" d="M192.6,175.34h1l0.1,1h0a3.43,3.43,0,0,1,2.44-1.23c1.53,0,2.22,1,2.22,2.85v4.62h-1.23v-4.45c0-1.37-.42-2-1.38-2a2.79,2.79,0,0,0-2,1.13v5.28H192.6v-7.29Z"/><path class="cls-1" d="M203.78,175.16a3,3,0,0,1,2.13.87l-0.62.79a2.2,2.2,0,0,0-1.47-.65c-1.32,0-2.28,1.14-2.28,2.82s0.92,2.79,2.25,2.79a2.6,2.6,0,0,0,1.71-.73l0.55,0.81a3.61,3.61,0,0,1-2.37.95c-1.93,0-3.42-1.4-3.42-3.81A3.53,3.53,0,0,1,203.78,175.16Z"/><path class="cls-1" d="M207.8,184.74a1.87,1.87,0,0,0,1.65-1.56l0.17-.54-2.92-7.3H208l1.48,4c0.23,0.63.48,1.38,0.71,2.05h0.06c0.21-.66.42-1.41,0.62-2.05l1.3-4h1.2l-2.75,7.89c-0.51,1.44-1.26,2.53-2.73,2.53a2.42,2.42,0,0,1-.85-0.15l0.24-1A2.14,2.14,0,0,0,207.8,184.74Z"/><path class="cls-1" d="M95.08,369.61c2.43-2.29,4.14-3.93,4.14-5.28a1.28,1.28,0,0,0-1.35-1.44,2.43,2.43,0,0,0-1.69,1L95,362.68a4,4,0,0,1,3.19-1.52,2.92,2.92,0,0,1,3.15,3c0,1.6-1.5,3.31-3,4.94a14.7,14.7,0,0,1,1.59-.12h1.92v1.86H95.08v-1.26Z"/><path class="cls-1" d="M104.69,368.28a1.39,1.39,0,1,1-1.33,1.39A1.33,1.33,0,0,1,104.69,368.28Z"/><path class="cls-1" d="M113.93,363.4a3,3,0,0,1,2,.84L115.91,363v-2.81h1.25v10.68h-1L116,370h0a3.29,3.29,0,0,1-2.21,1c-1.83,0-3-1.38-3-3.81S112.27,363.4,113.93,363.4Zm0.12,6.61a2.47,2.47,0,0,0,1.86-1V365.2a2.54,2.54,0,0,0-1.77-.76c-1.17,0-2.1,1.13-2.1,2.79S112.78,370,114.05,370Z"/><path class="cls-1" d="M122.35,363.4c1.86,0,2.91,1.33,2.91,3.42a4.43,4.43,0,0,1,0,.67h-4.92a2.43,2.43,0,0,0,2.43,2.56,3.3,3.3,0,0,0,1.81-.57L125,370.3a4.34,4.34,0,0,1-2.4.75,3.49,3.49,0,0,1-3.49-3.81C119.08,364.86,120.68,363.4,122.35,363.4Zm1.83,3.28c0-1.48-.66-2.31-1.8-2.31a2.27,2.27,0,0,0-2.1,2.31h3.9Z"/><path class="cls-1" d="M126.86,369.22a3.28,3.28,0,0,0,2.14.87,1.22,1.22,0,0,0,1.44-1.14c0-.75-0.87-1.08-1.67-1.38-1-.37-2.17-0.87-2.17-2.1s0.93-2.07,2.5-2.07a3.64,3.64,0,0,1,2.26.83l-0.58.78a2.71,2.71,0,0,0-1.67-.65,1.13,1.13,0,0,0-1.33,1c0,0.68.79,0.95,1.62,1.26,1,0.39,2.22.82,2.22,2.2,0,1.19-.95,2.18-2.67,2.18a4.39,4.39,0,0,1-2.71-1Z"/><path class="cls-1" d="M133.12,361.29a0.86,0.86,0,0,1,1.71,0A0.86,0.86,0,0,1,133.12,361.29Zm0.22,2.29h1.23v7.29h-1.23v-7.29Z"/><path class="cls-1" d="M137.54,370.62v-0.06a1.35,1.35,0,0,1-.65-1.19,1.71,1.71,0,0,1,.79-1.35V368a2.57,2.57,0,0,1,1.8-4.56,2.91,2.91,0,0,1,1,.18h2.54v0.94h-1.5a2.11,2.11,0,0,1,.6,1.5,2.5,2.5,0,0,1-2.67,2.53,2.55,2.55,0,0,1-1.09-.25,1.1,1.1,0,0,0-.46.87c0,0.46.3,0.79,1.29,0.79h1.41c1.69,0,2.55.52,2.55,1.74s-1.42,2.52-3.69,2.52c-1.78,0-3-.71-3-2A2.1,2.1,0,0,1,137.54,370.62Zm2.13,2.76c1.39,0,2.31-.72,2.31-1.48s-0.53-.9-1.47-0.9h-1.26a3.56,3.56,0,0,1-.95-0.12,1.53,1.53,0,0,0-.75,1.23C137.55,372.88,138.35,373.38,139.67,373.38ZM141,366a1.55,1.55,0,1,0-3.09,0A1.56,1.56,0,1,0,141,366Z"/><path class="cls-1" d="M144.59,363.58h1l0.1,1h0a3.43,3.43,0,0,1,2.44-1.23c1.53,0,2.22,1,2.22,2.85v4.62h-1.23v-4.45c0-1.37-.42-2-1.38-2a2.79,2.79,0,0,0-2,1.13v5.28h-1.23v-7.29Z"/><path class="cls-1" d="M159.11,361.2a2.05,2.05,0,0,0-.83-0.18c-0.69,0-1,.48-1,1.41v1.16h1.54v1h-1.54v6.28H156v-6.28h-1v-0.93l1-.07v-1.16c0-1.48.67-2.41,2.13-2.41a3.31,3.31,0,0,1,1.21.24Z"/><path class="cls-1" d="M160,361.29a0.86,0.86,0,0,1,1.71,0A0.86,0.86,0,0,1,160,361.29Zm0.22,2.29h1.23v7.29H160.2v-7.29Z"/><path class="cls-1" d="M163.89,363.58h1l0.1,1.32h0a2.49,2.49,0,0,1,2.07-1.5,1.81,1.81,0,0,1,.78.15l-0.24,1.08a2,2,0,0,0-.71-0.12c-0.62,0-1.35.45-1.84,1.68v4.68h-1.23v-7.29Z"/><path class="cls-1" d="M169.1,363.58h1l0.1,1h0a3.2,3.2,0,0,1,2.26-1.23,1.91,1.91,0,0,1,2,1.4,3.44,3.44,0,0,1,2.4-1.4c1.5,0,2.22,1,2.22,2.85v4.62h-1.23v-4.45c0-1.37-.43-2-1.35-2a2.67,2.67,0,0,0-1.83,1.13v5.28h-1.23v-4.45c0-1.37-.43-2-1.36-2a2.73,2.73,0,0,0-1.83,1.13v5.28H169.1v-7.29Z"/><path class="cls-1" d="M188.69,366.25c0-.93-0.31-1.83-1.5-1.83a3.93,3.93,0,0,0-2.17.78l-0.5-.85a5.41,5.41,0,0,1,2.87-.94c1.79,0,2.54,1.19,2.54,3v4.47h-1l-0.1-.87h0a4,4,0,0,1-2.42,1.05A2,2,0,0,1,184.2,369C184.2,367.39,185.58,366.6,188.69,366.25Zm-2,3.81a3,3,0,0,0,2-1v-2c-2.44.3-3.27,0.9-3.27,1.83A1.12,1.12,0,0,0,186.69,370.06Z"/><path class="cls-1" d="M195.21,363.4a3,3,0,0,1,2.13.87l-0.62.79a2.2,2.2,0,0,0-1.47-.65c-1.32,0-2.28,1.14-2.28,2.82s0.92,2.79,2.25,2.79a2.6,2.6,0,0,0,1.71-.73l0.55,0.81a3.61,3.61,0,0,1-2.37.95c-1.93,0-3.42-1.4-3.42-3.81A3.53,3.53,0,0,1,195.21,363.4Z"/><path class="cls-1" d="M201.41,363.4a3,3,0,0,1,2.08.87h0l0.12-.69h1v10.36h-1.25v-2.59l0.06-1.29a3.34,3.34,0,0,1-2.19,1c-1.83,0-3-1.38-3-3.81S199.74,363.4,201.41,363.4Zm0.12,6.61a2.47,2.47,0,0,0,1.86-1V365.2a2.54,2.54,0,0,0-1.77-.76c-1.17,0-2.1,1.13-2.1,2.79S200.25,370,201.53,370Z"/><path class="cls-1" d="M206.91,363.58h1.25V368c0,1.37.4,2,1.36,2a2.48,2.48,0,0,0,2-1.23v-5.17h1.23v7.29h-1l-0.11-1.14h0a3.08,3.08,0,0,1-2.4,1.32c-1.54,0-2.23-1-2.23-2.85v-4.62Z"/><path class="cls-1" d="M215,361.29a0.86,0.86,0,0,1,1.71,0A0.86,0.86,0,0,1,215,361.29Zm0.22,2.29h1.23v7.29h-1.23v-7.29Z"/><path class="cls-1" d="M218.87,363.58h1l0.1,1.32h0a2.49,2.49,0,0,1,2.07-1.5,1.81,1.81,0,0,1,.78.15l-0.24,1.08a2,2,0,0,0-.71-0.12c-0.62,0-1.35.45-1.84,1.68v4.68h-1.23v-7.29Z"/><path class="cls-1" d="M226.65,363.4c1.86,0,2.91,1.33,2.91,3.42a4.43,4.43,0,0,1,0,.67H224.6a2.43,2.43,0,0,0,2.43,2.56,3.3,3.3,0,0,0,1.81-.57l0.44,0.81a4.34,4.34,0,0,1-2.4.75,3.49,3.49,0,0,1-3.49-3.81C223.38,364.86,225,363.4,226.65,363.4Zm1.83,3.28c0-1.48-.66-2.31-1.8-2.31a2.27,2.27,0,0,0-2.1,2.31h3.9Z"/><path class="cls-1" d="M234,363.4a3,3,0,0,1,2,.84L236,363v-2.81h1.25v10.68h-1L236.1,370h0a3.29,3.29,0,0,1-2.21,1c-1.83,0-3-1.38-3-3.81S232.34,363.4,234,363.4Zm0.12,6.61a2.47,2.47,0,0,0,1.86-1V365.2a2.54,2.54,0,0,0-1.77-.76c-1.17,0-2.1,1.13-2.1,2.79S232.85,370,234.12,370Z"/><path class="cls-1" d="M242.72,360.19h1.23v2.91l0,1.32a3.6,3.6,0,0,1,2.28-1c1.89,0,2.89,1.46,2.89,3.71,0,2.49-1.48,3.94-3.15,3.94a3.3,3.3,0,0,1-2.08-.9h0l-0.11.72h-1V360.19Zm3,9.82c1.2,0,2.08-1.09,2.08-2.9,0-1.6-.54-2.68-1.92-2.68a3,3,0,0,0-2,1v3.82A2.85,2.85,0,0,0,245.73,370Z"/><path class="cls-1" d="M251,373a1.87,1.87,0,0,0,1.65-1.56l0.17-.54-2.92-7.3h1.28l1.48,4c0.23,0.63.48,1.38,0.71,2.05h0.06c0.21-.66.42-1.41,0.62-2.05l1.3-4h1.2l-2.75,7.89c-0.51,1.44-1.26,2.53-2.73,2.53a2.42,2.42,0,0,1-.85-0.15l0.24-1A2.14,2.14,0,0,0,251,373Z"/><path class="cls-1" d="M93,378.19h1.23v9.3c0,0.39.17,0.54,0.34,0.54a1,1,0,0,0,.27,0L95,388.93a1.66,1.66,0,0,1-.71.12c-0.93,0-1.31-.58-1.31-1.65v-9.21Z"/><path class="cls-1" d="M100.9,384.25c0-.93-0.31-1.83-1.5-1.83a3.93,3.93,0,0,0-2.17.78l-0.5-.85a5.41,5.41,0,0,1,2.87-.94c1.79,0,2.54,1.19,2.54,3v4.47h-1L101,388h0a4,4,0,0,1-2.42,1.05A2,2,0,0,1,96.42,387C96.42,385.39,97.8,384.6,100.9,384.25Zm-2,3.81a3,3,0,0,0,2-1v-2c-2.44.3-3.27,0.9-3.27,1.83A1.12,1.12,0,0,0,98.91,388.06Z"/><path class="cls-1" d="M104.46,381.58h1l0.1,1.32h0a2.49,2.49,0,0,1,2.07-1.5,1.81,1.81,0,0,1,.78.15l-0.24,1.08a2,2,0,0,0-.71-0.12c-0.62,0-1.35.45-1.84,1.68v4.68h-1.23v-7.29Z"/><path class="cls-1" d="M110,388.62v-0.06a1.35,1.35,0,0,1-.65-1.19,1.71,1.71,0,0,1,.79-1.35V386a2.57,2.57,0,0,1,1.8-4.56,2.91,2.91,0,0,1,1,.18h2.54v0.94H114a2.11,2.11,0,0,1,.6,1.5,2.5,2.5,0,0,1-2.67,2.53,2.55,2.55,0,0,1-1.09-.25,1.1,1.1,0,0,0-.46.87c0,0.46.3,0.79,1.29,0.79h1.41c1.69,0,2.55.52,2.55,1.74s-1.42,2.52-3.69,2.52c-1.78,0-3-.71-3-2A2.1,2.1,0,0,1,110,388.62Zm2.13,2.76c1.39,0,2.31-.72,2.31-1.48s-0.53-.9-1.47-0.9h-1.26a3.56,3.56,0,0,1-.95-0.12,1.53,1.53,0,0,0-.75,1.23C110,390.88,110.83,391.38,112.15,391.38Zm1.36-7.38a1.55,1.55,0,1,0-3.09,0A1.56,1.56,0,1,0,113.52,384Z"/><path class="cls-1" d="M119.59,381.4c1.86,0,2.91,1.33,2.91,3.42a4.43,4.43,0,0,1,0,.67h-4.92a2.43,2.43,0,0,0,2.43,2.56,3.3,3.3,0,0,0,1.81-.57l0.44,0.81a4.34,4.34,0,0,1-2.4.75,3.49,3.49,0,0,1-3.49-3.81C116.32,382.86,117.93,381.4,119.59,381.4Zm1.83,3.28c0-1.48-.66-2.31-1.8-2.31a2.27,2.27,0,0,0-2.1,2.31h3.9Z"/><path class="cls-1" d="M127.33,378.19h1.23v2.91l0,1.32a3.6,3.6,0,0,1,2.28-1c1.89,0,2.89,1.46,2.89,3.71,0,2.49-1.48,3.94-3.15,3.94a3.3,3.3,0,0,1-2.08-.9h0l-0.11.72h-1V378.19Zm3,9.82c1.2,0,2.08-1.09,2.08-2.9,0-1.6-.54-2.68-1.92-2.68a3,3,0,0,0-2,1v3.82A2.85,2.85,0,0,0,130.35,388Z"/><path class="cls-1" d="M135.55,381.58h1.25V386c0,1.37.4,2,1.36,2a2.48,2.48,0,0,0,2-1.23v-5.17h1.23v7.29h-1l-0.11-1.14h0a3.08,3.08,0,0,1-2.4,1.32c-1.54,0-2.23-1-2.23-2.85v-4.62Z"/><path class="cls-1" d="M143.62,387.22a3.28,3.28,0,0,0,2.14.87,1.22,1.22,0,0,0,1.44-1.14c0-.75-0.87-1.08-1.67-1.38-1-.37-2.17-0.87-2.17-2.1s0.93-2.07,2.5-2.07a3.64,3.64,0,0,1,2.26.83l-0.58.78a2.71,2.71,0,0,0-1.67-.65,1.13,1.13,0,0,0-1.33,1c0,0.68.79,0.95,1.62,1.26,1,0.39,2.22.82,2.22,2.2,0,1.19-.95,2.18-2.67,2.18a4.39,4.39,0,0,1-2.71-1Z"/><path class="cls-1" d="M149.88,379.29a0.86,0.86,0,0,1,1.71,0A0.86,0.86,0,0,1,149.88,379.29Zm0.22,2.29h1.23v7.29H150.1v-7.29Z"/><path class="cls-1" d="M153.79,381.58h1l0.1,1h0a3.43,3.43,0,0,1,2.44-1.23c1.53,0,2.22,1,2.22,2.85v4.62H158.4v-4.45c0-1.37-.42-2-1.38-2a2.79,2.79,0,0,0-2,1.13v5.28h-1.23v-7.29Z"/><path class="cls-1" d="M164.73,381.4c1.86,0,2.91,1.33,2.91,3.42a4.43,4.43,0,0,1,0,.67h-4.92a2.43,2.43,0,0,0,2.43,2.56,3.3,3.3,0,0,0,1.81-.57l0.44,0.81a4.34,4.34,0,0,1-2.4.75,3.49,3.49,0,0,1-3.49-3.81C161.46,382.86,163.06,381.4,164.73,381.4Zm1.83,3.28c0-1.48-.66-2.31-1.8-2.31a2.27,2.27,0,0,0-2.1,2.31h3.9Z"/><path class="cls-1" d="M169.24,387.22a3.28,3.28,0,0,0,2.14.87,1.22,1.22,0,0,0,1.44-1.14c0-.75-0.87-1.08-1.67-1.38-1-.37-2.17-0.87-2.17-2.1s0.93-2.07,2.5-2.07a3.64,3.64,0,0,1,2.26.83l-0.58.78a2.71,2.71,0,0,0-1.67-.65,1.13,1.13,0,0,0-1.33,1c0,0.68.79,0.95,1.62,1.26,1,0.39,2.22.82,2.22,2.2,0,1.19-.95,2.18-2.67,2.18a4.39,4.39,0,0,1-2.71-1Z"/><path class="cls-1" d="M175.53,387.22a3.28,3.28,0,0,0,2.14.87,1.22,1.22,0,0,0,1.44-1.14c0-.75-0.87-1.08-1.67-1.38-1-.37-2.17-0.87-2.17-2.1s0.93-2.07,2.5-2.07a3.64,3.64,0,0,1,2.26.83l-0.58.78a2.71,2.71,0,0,0-1.67-.65,1.13,1.13,0,0,0-1.33,1c0,0.68.79,0.95,1.62,1.26,1,0.39,2.22.82,2.22,2.2,0,1.19-.95,2.18-2.67,2.18a4.39,4.39,0,0,1-2.71-1Z"/><path class="cls-1" d="M188,381.4a3,3,0,0,1,2.13.87l-0.62.79a2.2,2.2,0,0,0-1.47-.65c-1.32,0-2.28,1.14-2.28,2.82S186.69,388,188,388a2.6,2.6,0,0,0,1.71-.73l0.55,0.81a3.61,3.61,0,0,1-2.37.95c-1.93,0-3.42-1.4-3.42-3.81A3.53,3.53,0,0,1,188,381.4Z"/><path class="cls-1" d="M194.4,381.4c1.79,0,3.38,1.4,3.38,3.84s-1.59,3.81-3.37,3.81-3.37-1.4-3.37-3.81S192.61,381.4,194.4,381.4Zm0,6.63c1.26,0,2.1-1.12,2.1-2.79s-0.84-2.82-2.1-2.82-2.1,1.14-2.1,2.82S193.15,388,194.4,388Z"/><path class="cls-1" d="M199.69,381.58h1l0.1,1h0a3.44,3.44,0,0,1,2.45-1.23c1.53,0,2.22,1,2.22,2.85v4.62H204.3v-4.45c0-1.37-.42-2-1.38-2a2.79,2.79,0,0,0-2,1.13v5.28h-1.23v-7.29Z"/><path class="cls-1" d="M207.7,387.22a3.28,3.28,0,0,0,2.14.87,1.22,1.22,0,0,0,1.44-1.14c0-.75-0.87-1.08-1.67-1.38-1-.37-2.17-0.87-2.17-2.1s0.93-2.07,2.5-2.07a3.64,3.64,0,0,1,2.26.83l-0.58.78a2.71,2.71,0,0,0-1.67-.65,1.13,1.13,0,0,0-1.33,1c0,0.68.79,0.95,1.62,1.26,1,0.39,2.22.82,2.22,2.2,0,1.19-.95,2.18-2.67,2.18a4.39,4.39,0,0,1-2.71-1Z"/><path class="cls-1" d="M214.08,381.58h1.25V386c0,1.37.4,2,1.36,2a2.48,2.48,0,0,0,2-1.23v-5.17h1.23v7.29h-1l-0.11-1.14h0a3.08,3.08,0,0,1-2.4,1.32c-1.55,0-2.24-1-2.24-2.85v-4.62Z"/><path class="cls-1" d="M222.34,378.19h1.23v9.3c0,0.39.17,0.54,0.34,0.54a1,1,0,0,0,.27,0l0.17,0.93a1.66,1.66,0,0,1-.71.12c-0.93,0-1.31-.58-1.31-1.65v-9.21Z"/><path class="cls-1" d="M226.38,382.59H225.3v-0.93l1.14-.07,0.15-2h1v2h2v1h-2v4c0,0.9.29,1.41,1.13,1.41a2.66,2.66,0,0,0,.83-0.19l0.24,0.93a4.51,4.51,0,0,1-1.35.27c-1.56,0-2.08-1-2.08-2.43v-4Z"/><path class="cls-1" d="M235.09,384.25c0-.93-0.31-1.83-1.5-1.83a3.93,3.93,0,0,0-2.17.78l-0.5-.85a5.41,5.41,0,0,1,2.87-.94c1.79,0,2.54,1.19,2.54,3v4.47h-1l-0.1-.87h0a4,4,0,0,1-2.42,1.05,2,2,0,0,1-2.14-2.07C230.61,385.39,232,384.6,235.09,384.25Zm-2,3.81a3,3,0,0,0,2-1v-2c-2.44.3-3.27,0.9-3.27,1.83A1.12,1.12,0,0,0,233.1,388.06Z"/><path class="cls-1" d="M238.65,381.58h1l0.1,1h0a3.43,3.43,0,0,1,2.44-1.23c1.53,0,2.22,1,2.22,2.85v4.62h-1.23v-4.45c0-1.37-.42-2-1.38-2a2.79,2.79,0,0,0-2,1.13v5.28h-1.23v-7.29Z"/><path class="cls-1" d="M249.82,381.4a3,3,0,0,1,2.13.87l-0.62.79a2.2,2.2,0,0,0-1.47-.65c-1.32,0-2.28,1.14-2.28,2.82s0.92,2.79,2.25,2.79a2.6,2.6,0,0,0,1.71-.73l0.55,0.81a3.61,3.61,0,0,1-2.37.95c-1.93,0-3.42-1.4-3.42-3.81A3.53,3.53,0,0,1,249.82,381.4Z"/><path class="cls-1" d="M253.84,391a1.87,1.87,0,0,0,1.65-1.56l0.17-.54-2.92-7.3H254l1.48,4c0.23,0.63.48,1.38,0.71,2.05h0.06c0.21-.66.42-1.41,0.62-2.05l1.3-4h1.2l-2.75,7.89c-0.51,1.44-1.26,2.53-2.73,2.53a2.42,2.42,0,0,1-.85-0.15l0.24-1A2.14,2.14,0,0,0,253.84,391Z"/><path class="cls-1" d="M79.63,566.16a3,3,0,0,0,2.08,1c0.93,0,1.54-.4,1.54-1.12s-0.5-1.36-2.56-1.36v-1.56c1.71,0,2.25-.51,2.25-1.27a1,1,0,0,0-1.17-1,2.65,2.65,0,0,0-1.79.84l-1.11-1.35a4.47,4.47,0,0,1,3-1.21c2,0,3.29.94,3.29,2.61a2.24,2.24,0,0,1-1.59,2.11v0.06a2.36,2.36,0,0,1,1.89,2.33c0,1.77-1.62,2.77-3.54,2.77a4.14,4.14,0,0,1-3.31-1.35Z"/><path class="cls-1" d="M88.45,566.13a1.39,1.39,0,1,1-1.33,1.39A1.33,1.33,0,0,1,88.45,566.13Z"/><path class="cls-1" d="M97.69,561.26a3,3,0,0,1,2,.84l-0.06-1.24V558h1.25v10.68h-1l-0.11-.85h0a3.29,3.29,0,0,1-2.21,1c-1.83,0-3-1.38-3-3.81S96,561.26,97.69,561.26Zm0.12,6.61a2.47,2.47,0,0,0,1.86-1v-3.81a2.54,2.54,0,0,0-1.77-.76c-1.17,0-2.1,1.13-2.1,2.79S96.54,567.87,97.81,567.87Z"/><path class="cls-1" d="M106.11,561.26c1.86,0,2.91,1.33,2.91,3.42a4.43,4.43,0,0,1,0,.67h-4.92a2.43,2.43,0,0,0,2.43,2.56,3.3,3.3,0,0,0,1.81-.57l0.44,0.81a4.34,4.34,0,0,1-2.4.75,3.49,3.49,0,0,1-3.49-3.81C102.84,562.71,104.44,561.26,106.11,561.26Zm1.83,3.28c0-1.48-.66-2.31-1.8-2.31a2.27,2.27,0,0,0-2.1,2.31h3.9Z"/><path class="cls-1" d="M110.62,567.08a3.28,3.28,0,0,0,2.14.87,1.22,1.22,0,0,0,1.44-1.14c0-.75-0.87-1.08-1.67-1.38-1-.37-2.17-0.87-2.17-2.1s0.93-2.07,2.5-2.07a3.64,3.64,0,0,1,2.26.83l-0.58.78a2.71,2.71,0,0,0-1.67-.65,1.13,1.13,0,0,0-1.33,1c0,0.68.79,0.95,1.62,1.26,1,0.39,2.22.82,2.22,2.2,0,1.19-.95,2.18-2.67,2.18a4.39,4.39,0,0,1-2.71-1Z"/><path class="cls-1" d="M116.88,559.14a0.86,0.86,0,0,1,1.71,0A0.86,0.86,0,0,1,116.88,559.14Zm0.22,2.29h1.23v7.29H117.1v-7.29Z"/><path class="cls-1" d="M121.3,568.47v-0.06a1.35,1.35,0,0,1-.65-1.19,1.71,1.71,0,0,1,.79-1.35v-0.06a2.57,2.57,0,0,1,1.8-4.56,2.91,2.91,0,0,1,1,.18h2.54v0.94h-1.5a2.11,2.11,0,0,1,.6,1.5,2.5,2.5,0,0,1-2.67,2.53,2.55,2.55,0,0,1-1.09-.25,1.1,1.1,0,0,0-.46.87c0,0.46.3,0.79,1.29,0.79h1.41c1.69,0,2.55.52,2.55,1.74s-1.42,2.52-3.69,2.52c-1.78,0-3-.71-3-2A2.1,2.1,0,0,1,121.3,568.47Zm2.13,2.76c1.39,0,2.31-.72,2.31-1.48s-0.53-.9-1.47-0.9H123a3.56,3.56,0,0,1-.95-0.12,1.53,1.53,0,0,0-.75,1.23C121.32,570.74,122.11,571.23,123.43,571.23Zm1.36-7.38a1.55,1.55,0,1,0-3.09,0A1.56,1.56,0,1,0,124.8,563.85Z"/><path class="cls-1" d="M128.35,561.44h1l0.1,1h0a3.43,3.43,0,0,1,2.44-1.23c1.53,0,2.22,1,2.22,2.85v4.62H133v-4.45c0-1.37-.42-2-1.38-2a2.79,2.79,0,0,0-2,1.13v5.28h-1.23v-7.29Z"/><path class="cls-1" d="M142.87,559.05a2.05,2.05,0,0,0-.83-0.18c-0.69,0-1,.48-1,1.41v1.16h1.54v1H141v6.28H139.8v-6.28h-1v-0.93l1-.07v-1.16c0-1.48.67-2.41,2.13-2.41a3.31,3.31,0,0,1,1.21.24Z"/><path class="cls-1" d="M143.74,559.14a0.86,0.86,0,0,1,1.71,0A0.86,0.86,0,0,1,143.74,559.14Zm0.22,2.29h1.23v7.29H144v-7.29Z"/><path class="cls-1" d="M147.66,561.44h1l0.1,1.32h0a2.49,2.49,0,0,1,2.07-1.5,1.81,1.81,0,0,1,.78.15l-0.24,1.08a2,2,0,0,0-.71-0.12c-0.62,0-1.35.45-1.84,1.68v4.68h-1.23v-7.29Z"/><path class="cls-1" d="M152.86,561.44h1l0.1,1h0a3.2,3.2,0,0,1,2.26-1.23,1.91,1.91,0,0,1,2,1.4,3.44,3.44,0,0,1,2.4-1.4c1.5,0,2.22,1,2.22,2.85v4.62H161.7v-4.45c0-1.37-.43-2-1.35-2a2.67,2.67,0,0,0-1.83,1.13v5.28h-1.23v-4.45c0-1.37-.43-2-1.36-2a2.73,2.73,0,0,0-1.83,1.13v5.28h-1.23v-7.29Z"/><path class="cls-1" d="M167.46,561.44h1.26l1.08,4.21c0.17,0.69.3,1.35,0.43,2h0.06c0.16-.68.31-1.35,0.49-2l1.13-4.21h1.2l1.14,4.21c0.18,0.69.35,1.35,0.51,2h0.06c0.17-.68.3-1.33,0.45-2l1.06-4.21h1.17l-1.95,7.29h-1.5l-1-3.92c-0.18-.69-0.32-1.36-0.5-2.1h-0.06c-0.17.73-.31,1.42-0.51,2.11l-1,3.9h-1.44Z"/><path class="cls-1" d="M181.87,561.26c1.79,0,3.38,1.4,3.38,3.84s-1.59,3.81-3.37,3.81-3.37-1.4-3.37-3.81S180.09,561.26,181.87,561.26Zm0,6.63c1.26,0,2.1-1.12,2.1-2.79s-0.84-2.82-2.1-2.82-2.1,1.14-2.1,2.82S180.63,567.89,181.87,567.89Z"/><path class="cls-1" d="M187.17,561.44h1l0.1,1.32h0a2.49,2.49,0,0,1,2.07-1.5,1.81,1.81,0,0,1,.78.15l-0.24,1.08a2,2,0,0,0-.71-0.12c-0.62,0-1.35.45-1.84,1.68v4.68h-1.23v-7.29Z"/><path class="cls-1" d="M192.37,558h1.22v7.23h0l3.1-3.84h1.37l-2.45,2.92,2.78,4.36h-1.35L195,565.22l-1.36,1.59v1.92h-1.22V558Z"/><path class="cls-1" d="M199.57,559.14a0.86,0.86,0,0,1,1.71,0A0.86,0.86,0,0,1,199.57,559.14Zm0.22,2.29H201v7.29H199.8v-7.29Z"/><path class="cls-1" d="M203.49,561.44h1l0.1,1h0a3.44,3.44,0,0,1,2.45-1.23c1.53,0,2.22,1,2.22,2.85v4.62h-1.23v-4.45c0-1.37-.42-2-1.38-2a2.79,2.79,0,0,0-2,1.13v5.28h-1.23v-7.29Z"/><path class="cls-1" d="M212.2,568.47v-0.06a1.35,1.35,0,0,1-.65-1.19,1.71,1.71,0,0,1,.79-1.35v-0.06a2.57,2.57,0,0,1,1.8-4.56,2.91,2.91,0,0,1,1,.18h2.54v0.94h-1.5a2.11,2.11,0,0,1,.6,1.5,2.5,2.5,0,0,1-2.67,2.53,2.55,2.55,0,0,1-1.09-.25,1.1,1.1,0,0,0-.46.87c0,0.46.3,0.79,1.29,0.79h1.41c1.69,0,2.55.52,2.55,1.74s-1.42,2.52-3.69,2.52c-1.78,0-3-.71-3-2A2.1,2.1,0,0,1,212.2,568.47Zm2.13,2.76c1.39,0,2.31-.72,2.31-1.48s-0.53-.9-1.47-0.9h-1.26a3.56,3.56,0,0,1-.95-0.12,1.53,1.53,0,0,0-.75,1.23C212.22,570.74,213,571.23,214.33,571.23Zm1.36-7.38a1.55,1.55,0,1,0-3.09,0A1.56,1.56,0,1,0,215.7,563.85Z"/><path class="cls-1" d="M225.57,559.05a2.05,2.05,0,0,0-.83-0.18c-0.69,0-1,.48-1,1.41v1.16h1.54v1h-1.54v6.28h-1.23v-6.28h-1v-0.93l1-.07v-1.16c0-1.48.67-2.41,2.13-2.41a3.31,3.31,0,0,1,1.21.24Z"/><path class="cls-1" d="M229.34,561.26c1.79,0,3.38,1.4,3.38,3.84s-1.59,3.81-3.37,3.81-3.37-1.4-3.37-3.81S227.56,561.26,229.34,561.26Zm0,6.63c1.26,0,2.1-1.12,2.1-2.79s-0.84-2.82-2.1-2.82-2.1,1.14-2.1,2.82S228.1,567.89,229.34,567.89Z"/><path class="cls-1" d="M234.64,561.44h1l0.1,1.32h0a2.49,2.49,0,0,1,2.07-1.5,1.81,1.81,0,0,1,.78.15l-0.24,1.08a2,2,0,0,0-.71-0.12c-0.62,0-1.35.45-1.84,1.68v4.68h-1.23v-7.29Z"/><path class="cls-1" d="M242.88,558h1.23v9.3c0,0.39.17,0.54,0.34,0.54a1,1,0,0,0,.27,0l0.17,0.93a1.66,1.66,0,0,1-.71.12c-0.93,0-1.31-.58-1.31-1.65V558Z"/><path class="cls-1" d="M250.83,564.11c0-.93-0.31-1.83-1.5-1.83a3.93,3.93,0,0,0-2.17.78l-0.5-.85a5.41,5.41,0,0,1,2.87-.94c1.79,0,2.54,1.19,2.54,3v4.47h-1l-0.1-.87h0a4,4,0,0,1-2.42,1.05,2,2,0,0,1-2.14-2.07C246.34,565.25,247.72,564.45,250.83,564.11Zm-2,3.81a3,3,0,0,0,2-1v-2c-2.44.3-3.27,0.9-3.27,1.83A1.12,1.12,0,0,0,248.83,567.92Z"/><path class="cls-1" d="M254.38,561.44h1l0.1,1.32h0a2.49,2.49,0,0,1,2.07-1.5,1.81,1.81,0,0,1,.78.15l-0.24,1.08a2,2,0,0,0-.71-0.12c-0.62,0-1.35.45-1.84,1.68v4.68h-1.23v-7.29Z"/><path class="cls-1" d="M259.95,568.47v-0.06a1.35,1.35,0,0,1-.65-1.19,1.71,1.71,0,0,1,.79-1.35v-0.06a2.57,2.57,0,0,1,1.8-4.56,2.91,2.91,0,0,1,1,.18h2.54v0.94H264a2.11,2.11,0,0,1,.6,1.5,2.5,2.5,0,0,1-2.67,2.53,2.55,2.55,0,0,1-1.09-.25,1.1,1.1,0,0,0-.46.87c0,0.46.3,0.79,1.29,0.79H263c1.69,0,2.55.52,2.55,1.74s-1.42,2.52-3.69,2.52c-1.78,0-3-.71-3-2A2.1,2.1,0,0,1,259.95,568.47Zm2.13,2.76c1.39,0,2.31-.72,2.31-1.48s-0.53-.9-1.47-0.9h-1.26a3.56,3.56,0,0,1-.95-0.12A1.53,1.53,0,0,0,260,570C260,570.74,260.76,571.23,262.08,571.23Zm1.36-7.38a1.55,1.55,0,1,0-3.09,0A1.56,1.56,0,1,0,263.44,563.85Z"/><path class="cls-1" d="M269.52,561.26c1.86,0,2.91,1.33,2.91,3.42a4.43,4.43,0,0,1,0,.67h-4.92a2.43,2.43,0,0,0,2.43,2.56,3.3,3.3,0,0,0,1.81-.57l0.44,0.81a4.34,4.34,0,0,1-2.4.75,3.49,3.49,0,0,1-3.49-3.81C266.25,562.71,267.85,561.26,269.52,561.26Zm1.83,3.28c0-1.48-.66-2.31-1.8-2.31a2.27,2.27,0,0,0-2.1,2.31h3.9Z"/><path class="cls-1" d="M110.14,576h1.23V579l0,1.32a3.6,3.6,0,0,1,2.28-1c1.89,0,2.89,1.46,2.89,3.71,0,2.49-1.48,3.94-3.15,3.94a3.3,3.3,0,0,1-2.08-.9h0l-0.11.72h-1V576Zm3,9.82c1.2,0,2.08-1.09,2.08-2.9,0-1.6-.54-2.68-1.92-2.68a3,3,0,0,0-2,1v3.82A2.85,2.85,0,0,0,113.16,585.87Z"/><path class="cls-1" d="M118.36,579.44h1.25v4.45c0,1.37.4,2,1.36,2a2.48,2.48,0,0,0,2-1.23v-5.17h1.23v7.29h-1L123,585.59h0a3.08,3.08,0,0,1-2.4,1.32c-1.55,0-2.24-1-2.24-2.85v-4.62Z"/><path class="cls-1" d="M126.43,585.08a3.28,3.28,0,0,0,2.14.87,1.22,1.22,0,0,0,1.44-1.14c0-.75-0.87-1.08-1.67-1.38-1-.37-2.17-0.87-2.17-2.1s0.93-2.07,2.5-2.07a3.64,3.64,0,0,1,2.26.83l-0.58.78a2.71,2.71,0,0,0-1.67-.65,1.13,1.13,0,0,0-1.33,1c0,0.68.79,0.95,1.62,1.26,1,0.39,2.22.82,2.22,2.2,0,1.19-.95,2.18-2.67,2.18a4.39,4.39,0,0,1-2.71-1Z"/><path class="cls-1" d="M132.69,577.14a0.86,0.86,0,0,1,1.71,0A0.86,0.86,0,0,1,132.69,577.14Zm0.22,2.29h1.23v7.29h-1.23v-7.29Z"/><path class="cls-1" d="M136.6,579.44h1l0.1,1h0a3.44,3.44,0,0,1,2.45-1.23c1.53,0,2.22,1,2.22,2.85v4.62h-1.23v-4.45c0-1.37-.42-2-1.38-2a2.79,2.79,0,0,0-2,1.13v5.28H136.6v-7.29Z"/><path class="cls-1" d="M147.54,579.26c1.86,0,2.91,1.33,2.91,3.42a4.43,4.43,0,0,1,0,.67h-4.92a2.43,2.43,0,0,0,2.43,2.56,3.3,3.3,0,0,0,1.81-.57l0.44,0.81a4.34,4.34,0,0,1-2.4.75,3.49,3.49,0,0,1-3.49-3.81C144.27,580.71,145.87,579.26,147.54,579.26Zm1.83,3.28c0-1.48-.66-2.31-1.8-2.31a2.27,2.27,0,0,0-2.1,2.31h3.9Z"/><path class="cls-1" d="M152.05,585.08a3.28,3.28,0,0,0,2.14.87,1.22,1.22,0,0,0,1.44-1.14c0-.75-0.87-1.08-1.67-1.38-1-.37-2.17-0.87-2.17-2.1s0.93-2.07,2.5-2.07a3.64,3.64,0,0,1,2.26.83l-0.58.78a2.71,2.71,0,0,0-1.67-.65,1.13,1.13,0,0,0-1.33,1c0,0.68.79,0.95,1.62,1.26,1,0.39,2.22.82,2.22,2.2,0,1.19-.95,2.18-2.67,2.18a4.39,4.39,0,0,1-2.71-1Z"/><path class="cls-1" d="M158.34,585.08a3.28,3.28,0,0,0,2.14.87,1.22,1.22,0,0,0,1.44-1.14c0-.75-0.87-1.08-1.67-1.38-1-.37-2.17-0.87-2.17-2.1s0.93-2.07,2.5-2.07a3.64,3.64,0,0,1,2.26.83l-0.58.78a2.71,2.71,0,0,0-1.67-.65,1.13,1.13,0,0,0-1.33,1c0,0.68.79,0.95,1.62,1.26,1,0.39,2.22.82,2.22,2.2,0,1.19-.95,2.18-2.67,2.18a4.39,4.39,0,0,1-2.71-1Z"/><path class="cls-1" d="M170.82,579.26a3,3,0,0,1,2.13.87l-0.62.79a2.2,2.2,0,0,0-1.47-.65c-1.32,0-2.28,1.14-2.28,2.82s0.92,2.79,2.25,2.79a2.6,2.6,0,0,0,1.71-.73L173.1,586a3.61,3.61,0,0,1-2.37.95c-1.93,0-3.42-1.4-3.42-3.81A3.53,3.53,0,0,1,170.82,579.26Z"/><path class="cls-1" d="M177.21,579.26c1.79,0,3.38,1.4,3.38,3.84s-1.59,3.81-3.37,3.81-3.37-1.4-3.37-3.81S175.42,579.26,177.21,579.26Zm0,6.63c1.26,0,2.1-1.12,2.1-2.79s-0.84-2.82-2.1-2.82-2.1,1.14-2.1,2.82S176,585.89,177.21,585.89Z"/><path class="cls-1" d="M182.5,579.44h1l0.1,1h0a3.43,3.43,0,0,1,2.44-1.23c1.53,0,2.22,1,2.22,2.85v4.62h-1.23v-4.45c0-1.37-.42-2-1.38-2a2.79,2.79,0,0,0-2,1.13v5.28H182.5v-7.29Z"/><path class="cls-1" d="M190.51,585.08a3.28,3.28,0,0,0,2.14.87,1.22,1.22,0,0,0,1.44-1.14c0-.75-0.87-1.08-1.67-1.38-1-.37-2.17-0.87-2.17-2.1s0.93-2.07,2.5-2.07a3.64,3.64,0,0,1,2.26.83l-0.58.78a2.71,2.71,0,0,0-1.67-.65,1.13,1.13,0,0,0-1.33,1c0,0.68.79,0.95,1.62,1.26,1,0.39,2.22.82,2.22,2.2,0,1.19-.95,2.18-2.67,2.18a4.39,4.39,0,0,1-2.71-1Z"/><path class="cls-1" d="M196.89,579.44h1.25v4.45c0,1.37.4,2,1.36,2a2.48,2.48,0,0,0,2-1.23v-5.17h1.23v7.29h-1l-0.11-1.14h0a3.08,3.08,0,0,1-2.4,1.32c-1.54,0-2.23-1-2.23-2.85v-4.62Z"/><path class="cls-1" d="M205.15,576h1.23v9.3c0,0.39.17,0.54,0.34,0.54a1,1,0,0,0,.27,0l0.17,0.93a1.66,1.66,0,0,1-.71.12c-0.93,0-1.31-.58-1.31-1.65V576Z"/><path class="cls-1" d="M209.19,580.44h-1.08v-0.93l1.14-.07,0.15-2h1v2h2v1h-2v4c0,0.9.29,1.41,1.13,1.41a2.66,2.66,0,0,0,.83-0.19l0.24,0.93a4.51,4.51,0,0,1-1.35.27c-1.56,0-2.08-1-2.08-2.43v-4Z"/><path class="cls-1" d="M217.9,582.11c0-.93-0.31-1.83-1.5-1.83a3.93,3.93,0,0,0-2.17.78l-0.5-.85a5.41,5.41,0,0,1,2.87-.94c1.79,0,2.54,1.19,2.54,3v4.47h-1l-0.1-.87h0a4,4,0,0,1-2.42,1.05,2,2,0,0,1-2.14-2.07C213.42,583.25,214.8,582.45,217.9,582.11Zm-2,3.81a3,3,0,0,0,2-1v-2c-2.44.3-3.27,0.9-3.27,1.83A1.12,1.12,0,0,0,215.91,585.92Z"/><path class="cls-1" d="M221.46,579.44h1l0.1,1h0a3.44,3.44,0,0,1,2.45-1.23c1.53,0,2.22,1,2.22,2.85v4.62h-1.23v-4.45c0-1.37-.42-2-1.38-2a2.79,2.79,0,0,0-2,1.13v5.28h-1.23v-7.29Z"/><path class="cls-1" d="M232.63,579.26a3,3,0,0,1,2.13.87l-0.62.79a2.2,2.2,0,0,0-1.47-.65c-1.32,0-2.28,1.14-2.28,2.82s0.92,2.79,2.25,2.79a2.6,2.6,0,0,0,1.71-.73l0.55,0.81a3.61,3.61,0,0,1-2.37.95c-1.93,0-3.42-1.4-3.42-3.81A3.53,3.53,0,0,1,232.63,579.26Z"/><path class="cls-1" d="M236.65,588.84a1.87,1.87,0,0,0,1.65-1.56l0.17-.54-2.92-7.3h1.28l1.48,4c0.23,0.63.48,1.38,0.71,2.05h0.06c0.21-.66.42-1.41,0.61-2.05l1.31-4h1.2l-2.75,7.89c-0.51,1.44-1.26,2.53-2.73,2.53a2.42,2.42,0,0,1-.85-0.15l0.24-1A2.14,2.14,0,0,0,236.65,588.84Z"/><path class="cls-2" d="M66.74,503.37a12.08,12.08,0,1,1,12.08-12.08A12.1,12.1,0,0,1,66.74,503.37Zm0-22.6a10.52,10.52,0,1,0,10.52,10.52A10.53,10.53,0,0,0,66.74,480.77Z"/><circle class="cls-4" cx="141.95" cy="491.29" r="35.84"/><circle class="cls-6" cx="252.28" cy="491.29" r="48.35"/><polygon class="cls-1" points="169.36 296.59 168.83 296.01 171.7 293.44 168.92 290.76 169.46 290.2 172.84 293.45 169.36 296.59"/><polygon class="cls-1" points="138.97 83.04 138.44 82.46 141.31 79.88 138.53 77.21 139.07 76.65 142.46 79.9 138.97 83.04"/><path class="cls-2" d="M101,305.52a12.08,12.08,0,1,1,12.08-12.08A12.1,12.1,0,0,1,101,305.52Zm0-22.6a10.52,10.52,0,1,0,10.52,10.52A10.53,10.53,0,0,0,101,282.91Z"/><circle class="cls-4" cx="113.46" cy="293.43" r="35.84"/><circle class="cls-6" cx="239.42" cy="293.43" r="48.35"/><path class="cls-2" d="M107.5,92a12.08,12.08,0,1,1,12.08-12.08A12.1,12.1,0,0,1,107.5,92Zm0-22.6A10.52,10.52,0,1,0,118,79.88,10.53,10.53,0,0,0,107.5,69.36Z"/><circle class="cls-6" cx="211.52" cy="79.88" r="48.35"/><path class="cls-1" d="M101.18,962.94a3.06,3.06,0,0,0,2.05.94,1.41,1.41,0,0,0,1.61-1.48,1.37,1.37,0,0,0-1.5-1.47,2.25,2.25,0,0,0-1.41.48l-1-.63,0.27-4.81h5.4v1.86h-3.5l-0.17,1.78a2.39,2.39,0,0,1,1.07-.23,2.79,2.79,0,0,1,3,3,3.29,3.29,0,0,1-3.5,3.33,4.52,4.52,0,0,1-3.36-1.33Z"/><path class="cls-1" d="M110,962.9a1.39,1.39,0,1,1-1.33,1.4A1.33,1.33,0,0,1,110,962.9Z"/><path class="cls-1" d="M120.57,955.47a3.83,3.83,0,0,1,2.82,1.21l-0.72.79a2.68,2.68,0,0,0-2.08-.92c-2,0-3.27,1.53-3.27,4s1.17,4,3.27,4a2.74,2.74,0,0,0,1.79-.58v-2.56h-2.08v-1h3.22v4.14a4.42,4.42,0,0,1-3.06,1.14c-2.58,0-4.42-1.89-4.42-5.1S117.93,955.47,120.57,955.47Z"/><path class="cls-1" d="M125.78,955.65h2.46c3,0,4.65,1.75,4.65,4.87s-1.62,5-4.59,5h-2.52v-9.84Zm2.37,8.82c2.31,0,3.45-1.46,3.45-3.94s-1.14-3.85-3.45-3.85H127v7.8h1.11Z"/><path class="cls-1" d="M135,963.35a3.83,3.83,0,0,0,2.71,1.23c1.29,0,2.06-.65,2.06-1.6s-0.72-1.32-1.65-1.74l-1.41-.62a2.78,2.78,0,0,1-2-2.53c0-1.5,1.32-2.61,3.1-2.61a4,4,0,0,1,2.89,1.21l-0.66.81a3.16,3.16,0,0,0-2.23-.93c-1.11,0-1.84.56-1.84,1.44s0.87,1.31,1.63,1.64l1.41,0.6a2.74,2.74,0,0,1,2,2.63c0,1.56-1.29,2.81-3.36,2.81a4.74,4.74,0,0,1-3.44-1.46Z"/><path class="cls-1" d="M146.06,959.21H145v-0.93l1.14-.07,0.15-2h1v2h2v1h-2v4c0,0.9.29,1.41,1.13,1.41a2.66,2.66,0,0,0,.83-0.19l0.24,0.93a4.51,4.51,0,0,1-1.35.27c-1.56,0-2.08-1-2.08-2.43v-4Z"/><path class="cls-1" d="M153.5,958c1.86,0,2.91,1.33,2.91,3.42a4.43,4.43,0,0,1,0,.67h-4.92a2.43,2.43,0,0,0,2.43,2.56,3.3,3.3,0,0,0,1.81-.57l0.44,0.81a4.34,4.34,0,0,1-2.4.75,3.49,3.49,0,0,1-3.49-3.81C150.23,959.48,151.83,958,153.5,958Zm1.83,3.28c0-1.48-.66-2.31-1.8-2.31a2.27,2.27,0,0,0-2.1,2.31h3.9Z"/><path class="cls-1" d="M162.12,960.87c0-.93-0.31-1.83-1.5-1.83a3.93,3.93,0,0,0-2.17.78L158,959a5.42,5.42,0,0,1,2.87-.94c1.79,0,2.54,1.19,2.54,3v4.47h-1l-0.1-.87h0a4,4,0,0,1-2.42,1.05,2,2,0,0,1-2.14-2.07C157.64,962,159,961.22,162.12,960.87Zm-2,3.81a3,3,0,0,0,2-1v-2c-2.44.3-3.27,0.9-3.27,1.83A1.12,1.12,0,0,0,160.13,964.68Z"/><path class="cls-1" d="M165.68,958.2h1l0.1,1h0a3.2,3.2,0,0,1,2.26-1.23,1.91,1.91,0,0,1,2,1.4,3.44,3.44,0,0,1,2.4-1.4c1.5,0,2.22,1,2.22,2.85v4.62h-1.23V961c0-1.37-.43-2-1.35-2a2.67,2.67,0,0,0-1.83,1.13v5.28H170.1V961c0-1.37-.43-2-1.36-2a2.73,2.73,0,0,0-1.83,1.13v5.28h-1.23V958.2Z"/><path class="cls-1" d="M180.27,958.2h1.26l1.08,4.21c0.17,0.69.3,1.35,0.43,2h0.06c0.16-.68.31-1.35,0.49-2l1.13-4.21h1.2l1.14,4.21c0.18,0.69.35,1.35,0.51,2h0.06c0.17-.68.3-1.33,0.45-2l1.06-4.21h1.17l-1.95,7.29h-1.5l-1-3.92c-0.18-.69-0.32-1.36-0.5-2.1h-0.06c-0.17.73-.31,1.42-0.51,2.11l-1,3.9H182.3Z"/><path class="cls-1" d="M194.69,958c1.79,0,3.38,1.4,3.38,3.84s-1.59,3.81-3.37,3.81-3.37-1.4-3.37-3.81S192.9,958,194.69,958Zm0,6.63c1.26,0,2.1-1.12,2.1-2.79s-0.84-2.82-2.1-2.82-2.1,1.14-2.1,2.82S193.44,964.65,194.69,964.65Z"/><path class="cls-1" d="M200,958.2h1l0.1,1.32h0a2.49,2.49,0,0,1,2.07-1.5,1.81,1.81,0,0,1,.78.15l-0.24,1.08a2,2,0,0,0-.71-0.12c-0.62,0-1.35.45-1.84,1.68v4.68H200V958.2Z"/><path class="cls-1" d="M205.19,954.81h1.22V962h0l3.1-3.84h1.37l-2.45,2.92,2.78,4.36H209.9L207.77,962l-1.36,1.59v1.92h-1.22V954.81Z"/><path class="cls-1" d="M212.39,955.91a0.86,0.86,0,0,1,1.71,0A0.86,0.86,0,0,1,212.39,955.91Zm0.22,2.29h1.23v7.29h-1.23V958.2Z"/><path class="cls-1" d="M216.3,958.2h1l0.1,1h0a3.43,3.43,0,0,1,2.44-1.23c1.53,0,2.22,1,2.22,2.85v4.62h-1.23V961c0-1.37-.42-2-1.38-2a2.79,2.79,0,0,0-2,1.13v5.28H216.3V958.2Z"/><path class="cls-1" d="M225,965.24v-0.06a1.35,1.35,0,0,1-.65-1.19,1.71,1.71,0,0,1,.79-1.35v-0.06A2.57,2.57,0,0,1,227,958a2.91,2.91,0,0,1,1,.18h2.54v0.94H229a2.11,2.11,0,0,1,.6,1.5,2.5,2.5,0,0,1-2.67,2.53,2.55,2.55,0,0,1-1.09-.25,1.1,1.1,0,0,0-.46.87c0,0.46.3,0.79,1.29,0.79h1.41c1.69,0,2.55.52,2.55,1.74s-1.42,2.52-3.69,2.52c-1.78,0-3-.71-3-2A2.1,2.1,0,0,1,225,965.24Zm2.13,2.76c1.39,0,2.31-.72,2.31-1.48s-0.53-.9-1.47-0.9h-1.26a3.56,3.56,0,0,1-.95-0.12,1.53,1.53,0,0,0-.75,1.23C225,967.5,225.83,968,227.15,968Zm1.36-7.38a1.55,1.55,0,1,0-3.09,0A1.56,1.56,0,1,0,228.51,960.62Z"/><path class="cls-1" d="M238.38,955.82a2.05,2.05,0,0,0-.83-0.18c-0.69,0-1,.48-1,1.41v1.16h1.54v1h-1.54v6.28h-1.23v-6.28h-1v-0.93l1-.07V957c0-1.48.68-2.41,2.13-2.41a3.31,3.31,0,0,1,1.21.24Z"/><path class="cls-1" d="M242.16,958c1.79,0,3.38,1.4,3.38,3.84s-1.59,3.81-3.37,3.81-3.37-1.4-3.37-3.81S240.38,958,242.16,958Zm0,6.63c1.26,0,2.1-1.12,2.1-2.79s-0.84-2.82-2.1-2.82-2.1,1.14-2.1,2.82S240.92,964.65,242.16,964.65Z"/><path class="cls-1" d="M247.46,958.2h1l0.1,1.32h0a2.49,2.49,0,0,1,2.07-1.5,1.81,1.81,0,0,1,.78.15l-0.24,1.08a2,2,0,0,0-.71-0.12c-0.62,0-1.35.45-1.84,1.68v4.68h-1.23V958.2Z"/><path class="cls-1" d="M128.1,973.65h1.26v5.8c0,2.37,1,3.12,2.28,3.12s2.34-.75,2.34-3.12v-5.8h1.2v5.77c0,3.17-1.53,4.25-3.54,4.25s-3.54-1.08-3.54-4.25v-5.77Z"/><path class="cls-1" d="M137.74,973.65H139v4.93h0l4.09-4.93h1.42l-3.09,3.75,3.56,6.09h-1.4l-2.94-5.11-1.68,2v3.12h-1.26v-9.84Z"/><path class="cls-1" d="M149.82,983.24v-0.06a1.35,1.35,0,0,1-.65-1.19,1.71,1.71,0,0,1,.79-1.35v-0.06a2.57,2.57,0,0,1,1.8-4.56,2.91,2.91,0,0,1,1,.18h2.54v0.94h-1.5a2.11,2.11,0,0,1,.6,1.5,2.5,2.5,0,0,1-2.67,2.53,2.55,2.55,0,0,1-1.09-.25,1.1,1.1,0,0,0-.46.87c0,0.46.3,0.79,1.29,0.79h1.41c1.69,0,2.55.52,2.55,1.74s-1.42,2.52-3.69,2.52c-1.78,0-3-.71-3-2A2.1,2.1,0,0,1,149.82,983.24Zm2.13,2.76c1.39,0,2.31-.72,2.31-1.48s-0.53-.9-1.47-0.9h-1.26a3.56,3.56,0,0,1-.95-0.12,1.53,1.53,0,0,0-.75,1.23C149.83,985.5,150.63,986,151.95,986Zm1.36-7.38a1.55,1.55,0,1,0-3.09,0A1.56,1.56,0,1,0,153.31,978.62Z"/><path class="cls-1" d="M159.49,976c1.79,0,3.38,1.4,3.38,3.84s-1.59,3.81-3.37,3.81-3.37-1.4-3.37-3.81S157.71,976,159.49,976Zm0,6.63c1.26,0,2.1-1.12,2.1-2.79s-0.84-2.82-2.1-2.82-2.1,1.14-2.1,2.82S158.25,982.65,159.49,982.65Z"/><path class="cls-1" d="M163.68,976.2H165l1.38,4.14c0.21,0.72.45,1.46,0.67,2.15h0.06c0.21-.69.45-1.42,0.66-2.15l1.38-4.14h1.22l-2.58,7.29H166.3Z"/><path class="cls-1" d="M174.4,976c1.86,0,2.91,1.33,2.91,3.42a4.43,4.43,0,0,1,0,.67h-4.92a2.43,2.43,0,0,0,2.43,2.56,3.3,3.3,0,0,0,1.81-.57l0.44,0.81a4.34,4.34,0,0,1-2.4.75,3.49,3.49,0,0,1-3.49-3.81C171.13,977.48,172.74,976,174.4,976Zm1.83,3.28c0-1.48-.66-2.31-1.8-2.31a2.27,2.27,0,0,0-2.1,2.31h3.9Z"/><path class="cls-1" d="M179.11,976.2h1l0.1,1.32h0a2.49,2.49,0,0,1,2.07-1.5,1.81,1.81,0,0,1,.78.15l-0.24,1.08a2,2,0,0,0-.71-0.12c-0.62,0-1.35.45-1.84,1.68v4.68h-1.23V976.2Z"/><path class="cls-1" d="M184.31,976.2h1l0.1,1h0a3.44,3.44,0,0,1,2.45-1.23c1.53,0,2.22,1,2.22,2.85v4.62h-1.23V979c0-1.37-.42-2-1.38-2a2.79,2.79,0,0,0-2,1.13v5.28h-1.23V976.2Z"/><path class="cls-1" d="M192.52,976.2h1l0.1,1h0A3.21,3.21,0,0,1,196,976a1.91,1.91,0,0,1,2,1.4,3.44,3.44,0,0,1,2.4-1.4c1.5,0,2.22,1,2.22,2.85v4.62h-1.23V979c0-1.37-.43-2-1.35-2a2.67,2.67,0,0,0-1.83,1.13v5.28h-1.23V979c0-1.37-.43-2-1.36-2a2.73,2.73,0,0,0-1.83,1.13v5.28h-1.23V976.2Z"/><path class="cls-1" d="M207.68,976c1.86,0,2.91,1.33,2.91,3.42a4.43,4.43,0,0,1,0,.67h-4.92a2.43,2.43,0,0,0,2.43,2.56,3.3,3.3,0,0,0,1.81-.57l0.44,0.81a4.34,4.34,0,0,1-2.4.75,3.49,3.49,0,0,1-3.49-3.81C204.42,977.48,206,976,207.68,976Zm1.83,3.28c0-1.48-.66-2.31-1.8-2.31a2.27,2.27,0,0,0-2.1,2.31h3.9Z"/><path class="cls-1" d="M212.39,976.2h1l0.1,1h0A3.43,3.43,0,0,1,216,976c1.53,0,2.22,1,2.22,2.85v4.62H217V979c0-1.37-.42-2-1.38-2a2.79,2.79,0,0,0-2,1.13v5.28h-1.23V976.2Z"/><path class="cls-1" d="M220.81,977.21h-1.08v-0.93l1.14-.07,0.15-2h1v2h2v1h-2v4c0,0.9.29,1.41,1.13,1.41a2.66,2.66,0,0,0,.83-0.19l0.24,0.93a4.51,4.51,0,0,1-1.35.27c-1.56,0-2.08-1-2.08-2.43v-4Z"/><path class="cls-1" d="M124.61,767.15h-1.09v2.28h-2.05v-2.28h-4.12v-1.52l3.48-5.73h2.7v5.56h1.09v1.68Zm-3.15-1.68v-1.54c0-.61.06-1.53,0.09-2.13h-0.06c-0.24.52-.51,1.06-0.78,1.6l-1.26,2.07h2Z"/><path class="cls-1" d="M127.22,766.84a1.39,1.39,0,1,1-1.33,1.4A1.33,1.33,0,0,1,127.22,766.84Z"/><path class="cls-1" d="M133.6,759.85a0.86,0.86,0,0,1,1.71,0A0.86,0.86,0,0,1,133.6,759.85Zm0.22,2.29h1.23v7.29h-1.23v-7.29Z"/><path class="cls-1" d="M137.51,762.14h1l0.1,1h0a3.44,3.44,0,0,1,2.45-1.23c1.53,0,2.22,1,2.22,2.85v4.62h-1.23V765c0-1.37-.42-2-1.38-2a2.79,2.79,0,0,0-2,1.13v5.28h-1.23v-7.29Z"/><path class="cls-1" d="M145.1,765.2h3.45v0.95H145.1V765.2Z"/><path class="cls-1" d="M150.38,758.75h1.23v2.91l0,1.5A3.48,3.48,0,0,1,154,762c1.53,0,2.22,1,2.22,2.85v4.62H155V765c0-1.37-.42-2-1.38-2a2.79,2.79,0,0,0-2,1.13v5.28h-1.23V758.75Z"/><path class="cls-1" d="M161.37,762c1.79,0,3.38,1.4,3.38,3.84s-1.59,3.81-3.37,3.81-3.37-1.4-3.37-3.81S159.59,762,161.37,762Zm0,6.63c1.26,0,2.1-1.12,2.1-2.79s-0.84-2.82-2.1-2.82-2.1,1.14-2.1,2.82S160.13,768.59,161.37,768.59Z"/><path class="cls-1" d="M166.57,762.14h1.25v4.45c0,1.37.4,2,1.36,2a2.48,2.48,0,0,0,2-1.23v-5.17h1.23v7.29h-1l-0.11-1.14h0a3.08,3.08,0,0,1-2.4,1.32c-1.55,0-2.24-1-2.24-2.85v-4.62Z"/><path class="cls-1" d="M174.64,767.78a3.28,3.28,0,0,0,2.14.87,1.22,1.22,0,0,0,1.44-1.14c0-.75-0.87-1.08-1.67-1.38-1-.37-2.17-0.87-2.17-2.1s0.93-2.07,2.5-2.07a3.64,3.64,0,0,1,2.26.83l-0.58.78a2.71,2.71,0,0,0-1.67-.65,1.13,1.13,0,0,0-1.33,1c0,0.68.79,0.95,1.62,1.26,1,0.39,2.22.82,2.22,2.2,0,1.19-.95,2.18-2.67,2.18a4.39,4.39,0,0,1-2.71-1Z"/><path class="cls-1" d="M183.85,762c1.86,0,2.91,1.33,2.91,3.42a4.43,4.43,0,0,1,0,.67h-4.92a2.43,2.43,0,0,0,2.43,2.56,3.3,3.3,0,0,0,1.81-.57l0.44,0.81a4.34,4.34,0,0,1-2.4.75,3.49,3.49,0,0,1-3.49-3.81C180.58,763.42,182.18,762,183.85,762Zm1.83,3.28c0-1.48-.66-2.31-1.8-2.31a2.27,2.27,0,0,0-2.1,2.31h3.9Z"/><path class="cls-1" d="M191.39,767.78a3.28,3.28,0,0,0,2.14.87,1.22,1.22,0,0,0,1.44-1.14c0-.75-0.87-1.08-1.67-1.38-1-.37-2.17-0.87-2.17-2.1s0.93-2.07,2.5-2.07a3.64,3.64,0,0,1,2.26.83l-0.58.78a2.71,2.71,0,0,0-1.67-.65,1.13,1.13,0,0,0-1.33,1c0,0.68.79,0.95,1.62,1.26,1,0.39,2.22.82,2.22,2.2,0,1.19-.95,2.18-2.67,2.18a4.39,4.39,0,0,1-2.71-1Z"/><path class="cls-1" d="M200.6,762c1.86,0,2.91,1.33,2.91,3.42a4.43,4.43,0,0,1,0,.67h-4.92a2.43,2.43,0,0,0,2.43,2.56,3.3,3.3,0,0,0,1.81-.57l0.44,0.81a4.34,4.34,0,0,1-2.4.75,3.49,3.49,0,0,1-3.49-3.81C197.33,763.42,198.94,762,200.6,762Zm1.83,3.28c0-1.48-.66-2.31-1.8-2.31a2.27,2.27,0,0,0-2.1,2.31h3.9Z"/><path class="cls-1" d="M205.31,762.14h1l0.1,1.32h0a2.49,2.49,0,0,1,2.07-1.5,1.81,1.81,0,0,1,.78.15l-0.24,1.08a2,2,0,0,0-.71-0.12c-0.62,0-1.35.45-1.84,1.68v4.68h-1.23v-7.29Z"/><path class="cls-1" d="M209.75,762.14H211l1.38,4.14c0.21,0.72.45,1.46,0.67,2.15h0.06c0.21-.69.45-1.42,0.66-2.15l1.38-4.14h1.22l-2.58,7.29h-1.44Z"/><path class="cls-1" d="M217.58,759.85a0.86,0.86,0,0,1,1.71,0A0.86,0.86,0,0,1,217.58,759.85Zm0.22,2.29H219v7.29H217.8v-7.29Z"/><path class="cls-1" d="M224.46,762a3,3,0,0,1,2.13.87l-0.62.79a2.2,2.2,0,0,0-1.47-.65c-1.32,0-2.28,1.14-2.28,2.82s0.92,2.79,2.25,2.79a2.6,2.6,0,0,0,1.71-.73l0.55,0.81a3.61,3.61,0,0,1-2.37.95c-1.93,0-3.42-1.4-3.42-3.81A3.53,3.53,0,0,1,224.46,762Z"/><path class="cls-1" d="M230.75,762c1.86,0,2.91,1.33,2.91,3.42a4.43,4.43,0,0,1,0,.67h-4.92a2.43,2.43,0,0,0,2.43,2.56,3.3,3.3,0,0,0,1.81-.57l0.44,0.81a4.34,4.34,0,0,1-2.4.75,3.49,3.49,0,0,1-3.49-3.81C227.48,763.42,229.08,762,230.75,762Zm1.83,3.28c0-1.48-.66-2.31-1.8-2.31a2.27,2.27,0,0,0-2.1,2.31h3.9Z"/><path class="cls-1" d="M141.11,780a3,3,0,0,1,2,.84l-0.06-1.24v-2.81h1.25v10.68h-1l-0.11-.85h0a3.29,3.29,0,0,1-2.21,1c-1.83,0-3-1.38-3-3.81S139.44,780,141.11,780Zm0.12,6.61a2.47,2.47,0,0,0,1.86-1v-3.81a2.54,2.54,0,0,0-1.77-.76c-1.17,0-2.1,1.13-2.1,2.79S140,786.58,141.23,786.58Z"/><path class="cls-1" d="M149.52,780c1.86,0,2.91,1.33,2.91,3.42a4.43,4.43,0,0,1,0,.67h-4.92a2.43,2.43,0,0,0,2.43,2.56,3.3,3.3,0,0,0,1.81-.57l0.44,0.81a4.34,4.34,0,0,1-2.4.75,3.49,3.49,0,0,1-3.49-3.81C146.25,781.42,147.86,780,149.52,780Zm1.83,3.28c0-1.48-.66-2.31-1.8-2.31a2.27,2.27,0,0,0-2.1,2.31h3.9Z"/><path class="cls-1" d="M154,785.78a3.28,3.28,0,0,0,2.14.87,1.22,1.22,0,0,0,1.44-1.14c0-.75-0.87-1.08-1.67-1.38-1-.37-2.17-0.87-2.17-2.1s0.93-2.07,2.5-2.07a3.64,3.64,0,0,1,2.26.83l-0.58.78a2.71,2.71,0,0,0-1.67-.65,1.13,1.13,0,0,0-1.33,1c0,0.68.79,0.95,1.62,1.26,1,0.39,2.22.82,2.22,2.2,0,1.19-.95,2.18-2.67,2.18a4.39,4.39,0,0,1-2.71-1Z"/><path class="cls-1" d="M160.29,777.85a0.86,0.86,0,0,1,1.71,0A0.86,0.86,0,0,1,160.29,777.85Zm0.22,2.29h1.23v7.29h-1.23v-7.29Z"/><path class="cls-1" d="M164.72,787.18v-0.06a1.35,1.35,0,0,1-.65-1.19,1.71,1.71,0,0,1,.79-1.35v-0.06a2.57,2.57,0,0,1,1.8-4.56,2.91,2.91,0,0,1,1,.18h2.54v0.94h-1.5a2.11,2.11,0,0,1,.6,1.5,2.5,2.5,0,0,1-2.67,2.53,2.55,2.55,0,0,1-1.09-.25,1.1,1.1,0,0,0-.46.87c0,0.46.3,0.79,1.29,0.79h1.41c1.69,0,2.55.52,2.55,1.74s-1.42,2.52-3.69,2.52c-1.78,0-3-.71-3-2A2.1,2.1,0,0,1,164.72,787.18Zm2.13,2.76c1.39,0,2.31-.72,2.31-1.48s-0.53-.9-1.47-0.9h-1.26a3.56,3.56,0,0,1-.95-0.12,1.53,1.53,0,0,0-.75,1.23C164.73,789.44,165.53,789.94,166.85,789.94Zm1.36-7.38a1.55,1.55,0,1,0-3.09,0A1.56,1.56,0,1,0,168.21,782.56Z"/><path class="cls-1" d="M171.77,780.14h1l0.1,1h0a3.44,3.44,0,0,1,2.45-1.23c1.53,0,2.22,1,2.22,2.85v4.62h-1.23V783c0-1.37-.42-2-1.38-2a2.79,2.79,0,0,0-2,1.13v5.28h-1.23v-7.29Z"/><path class="cls-1" d="M183.21,781.15h-1.08v-0.93l1.14-.07,0.15-2h1v2h2v1h-2v4c0,0.9.29,1.41,1.13,1.41a2.66,2.66,0,0,0,.83-0.19l0.24,0.93a4.51,4.51,0,0,1-1.35.27c-1.56,0-2.08-1-2.08-2.43v-4Z"/><path class="cls-1" d="M190.65,780c1.86,0,2.91,1.33,2.91,3.42a4.43,4.43,0,0,1,0,.67H188.6a2.43,2.43,0,0,0,2.43,2.56,3.3,3.3,0,0,0,1.81-.57l0.44,0.81a4.34,4.34,0,0,1-2.4.75,3.49,3.49,0,0,1-3.49-3.81C187.38,781.42,189,780,190.65,780Zm1.83,3.28c0-1.48-.66-2.31-1.8-2.31a2.27,2.27,0,0,0-2.1,2.31h3.9Z"/><path class="cls-1" d="M199.28,782.81c0-.93-0.31-1.83-1.5-1.83a3.93,3.93,0,0,0-2.17.78l-0.5-.85A5.42,5.42,0,0,1,198,780c1.79,0,2.54,1.19,2.54,3v4.47h-1l-0.1-.87h0a4,4,0,0,1-2.42,1.05,2,2,0,0,1-2.14-2.07C194.79,784,196.17,783.16,199.28,782.81Zm-2,3.81a3,3,0,0,0,2-1v-2c-2.44.3-3.27,0.9-3.27,1.83A1.12,1.12,0,0,0,197.28,786.62Z"/><path class="cls-1" d="M202.83,780.14h1l0.1,1h0a3.2,3.2,0,0,1,2.26-1.23,1.91,1.91,0,0,1,2,1.4,3.44,3.44,0,0,1,2.4-1.4c1.5,0,2.22,1,2.22,2.85v4.62h-1.23V783c0-1.37-.43-2-1.35-2a2.67,2.67,0,0,0-1.83,1.13v5.28h-1.23V783c0-1.37-.43-2-1.36-2a2.73,2.73,0,0,0-1.83,1.13v5.28h-1.23v-7.29Z"/><path class="cls-2" d="M147.54,898.37a12.08,12.08,0,1,1,12.08-12.08A12.1,12.1,0,0,1,147.54,898.37Zm0-22.6a10.52,10.52,0,1,0,10.52,10.52A10.53,10.53,0,0,0,147.54,875.77Z"/><path class="cls-2" d="M147.93,702.91A12.08,12.08,0,1,1,160,690.82,12.1,12.1,0,0,1,147.93,702.91Zm0-22.6a10.52,10.52,0,1,0,10.52,10.52A10.53,10.53,0,0,0,147.93,680.3Z"/><circle class="cls-6" cx="174.01" cy="690.81" r="48.35"/><circle class="cls-7" cx="174.01" cy="887.23" r="49.17"/></svg>