<svg id="Layer_1" data-name="Layer 1" xmlns="http://www.w3.org/2000/svg" viewBox="0 0 1035.53 425.9"><defs><style>.cls-1{fill:#231f20;}.cls-2,.cls-3,.cls-4,.cls-5,.cls-6,.cls-7{fill:none;stroke-miterlimit:10;}.cls-2{stroke:#2b388f;stroke-width:0.75px;}.cls-3,.cls-7{stroke:#5c9ad2;}.cls-3{stroke-width:0.78px;}.cls-4,.cls-5{stroke:#7daada;}.cls-4,.cls-5,.cls-6,.cls-7{stroke-width:1.56px;}.cls-4{stroke-dasharray:1.57 1.57;}.cls-5{stroke-dasharray:1.56 1.56;}.cls-6{stroke:#b2cfe4;stroke-dasharray:7.82 1.56;}.cls-7{stroke-dasharray:7.8 1.56;}</style></defs><title>map2</title><polygon class="cls-1" points="741.23 70.34 740.7 69.76 743.57 67.19 740.79 64.52 741.33 63.95 744.72 67.2 741.23 70.34"/><polygon class="cls-1" points="838.08 70.34 837.56 69.76 840.42 67.19 837.64 64.52 838.18 63.95 841.57 67.2 838.08 70.34"/><path class="cls-1" d="M61.44,327.27l0.49-2.47h1l-1.87,9.26H60.24l0.1-.94H60.3a3.15,3.15,0,0,1-2.2,1.09c-1.11,0-1.82-.81-1.82-2.29,0-2.43,1.66-4.34,3.42-4.34a1.67,1.67,0,0,1,1.5.92h0Zm-1,4.9L61,329.35a1.49,1.49,0,0,0-1.29-.94c-1.26,0-2.43,1.61-2.43,3.35,0,1.09.46,1.61,1.16,1.61A2.63,2.63,0,0,0,60.45,332.17Z"/><path class="cls-1" d="M66.59,327.58c1.42,0,2,1,2,2.29a4.12,4.12,0,0,1-.22,1.23H64.21c-0.23,1.63.61,2.31,1.72,2.31a2.53,2.53,0,0,0,1.42-.55l0.39,0.66a3.54,3.54,0,0,1-2,.68,2.37,2.37,0,0,1-2.48-2.64A3.76,3.76,0,0,1,66.59,327.58Zm1,2.85a3.34,3.34,0,0,0,.06-0.65,1.22,1.22,0,0,0-1.22-1.4,2.47,2.47,0,0,0-2.16,2.05h3.32Z"/><path class="cls-1" d="M69.55,332.52a2,2,0,0,0,1.63.92,1.24,1.24,0,0,0,1.34-1.05c0-.46-0.27-0.71-1.16-1.2s-1.44-1-1.44-1.73a2,2,0,0,1,2.17-1.88,2.53,2.53,0,0,1,1.86.84l-0.57.56a1.76,1.76,0,0,0-1.31-.62,1.11,1.11,0,0,0-1.2,1A1.57,1.57,0,0,0,72,330.47c1.13,0.62,1.48,1.11,1.48,1.79a2.09,2.09,0,0,1-2.37,1.95,2.77,2.77,0,0,1-2.17-1.2Z"/><path class="cls-1" d="M75.87,327.74h1l-1.27,6.32h-1Zm0.21-1.9a0.75,0.75,0,0,1,.75-0.75,0.6,0.6,0,0,1,.64.6,0.74,0.74,0,0,1-.75.74A0.59,0.59,0,0,1,76.08,325.84Z"/><path class="cls-1" d="M83.76,327.74l-1.33,6.62a2.89,2.89,0,0,1-3,2.61,3.48,3.48,0,0,1-2.21-.87l0.47-.69a2.74,2.74,0,0,0,1.78.75,2.06,2.06,0,0,0,2-1.88l0.31-1.3h0a3.15,3.15,0,0,1-2.15,1c-1.07,0-1.83-.75-1.83-2.22,0-2.31,1.64-4.19,3.34-4.19a1.71,1.71,0,0,1,1.52.95h0l0.25-.79h0.82Zm-1.86,4.32,0.56-2.7a1.51,1.51,0,0,0-1.29-.94c-1.22,0-2.35,1.56-2.35,3.21,0,1,.43,1.53,1.13,1.53A2.73,2.73,0,0,0,81.9,332.05Z"/><path class="cls-1" d="M85.84,327.74h0.82l-0.09.95h0.05a3.53,3.53,0,0,1,2.21-1.1,1.36,1.36,0,0,1,1.49,1.57,3.59,3.59,0,0,1-.1.87l-0.81,4h-1l0.78-3.9a3.87,3.87,0,0,0,.1-0.74,0.84,0.84,0,0,0-.94-1,3.07,3.07,0,0,0-1.9,1.14l-0.9,4.47h-1Z"/><path class="cls-1" d="M95.21,328.54H94.29l0.14-.74,1-.06L95.89,326h0.85l-0.35,1.74H98l-0.16.81H96.2l-0.74,3.61a2.69,2.69,0,0,0,0,.47,0.68,0.68,0,0,0,.81.78,1.57,1.57,0,0,0,.66-0.2l0.22,0.72a2.89,2.89,0,0,1-1.2.29,1.31,1.31,0,0,1-1.51-1.4,5.78,5.78,0,0,1,.06-0.7Z"/><path class="cls-1" d="M101.45,327.58c1.42,0,2,1,2,2.29a4.12,4.12,0,0,1-.22,1.23H99.07c-0.23,1.63.61,2.31,1.72,2.31a2.53,2.53,0,0,0,1.42-.55l0.39,0.66a3.54,3.54,0,0,1-2,.68,2.37,2.37,0,0,1-2.48-2.64A3.76,3.76,0,0,1,101.45,327.58Zm1,2.85a3.34,3.34,0,0,0,.06-0.65,1.22,1.22,0,0,0-1.22-1.4,2.47,2.47,0,0,0-2.16,2.05h3.32Z"/><path class="cls-1" d="M107.77,327.58a1.69,1.69,0,0,1,1.52.95h0.05l0.25-.79h0.81l-1.26,6.32h-0.82l0.1-.94h-0.05a3.15,3.15,0,0,1-2.2,1.09c-1.11,0-1.82-.81-1.82-2.29C104.35,329.49,106,327.58,107.77,327.58Zm0.75,4.59,0.57-2.82a1.49,1.49,0,0,0-1.29-.94c-1.26,0-2.43,1.61-2.43,3.35,0,1.09.46,1.61,1.16,1.61A2.61,2.61,0,0,0,108.53,332.17Z"/><path class="cls-1" d="M112.48,327.74h0.82l-0.09.95h0.05a3.43,3.43,0,0,1,2.08-1.1,1.29,1.29,0,0,1,1.46,1.23,3.69,3.69,0,0,1,2.24-1.23,1.36,1.36,0,0,1,1.5,1.57,4.43,4.43,0,0,1-.1.87l-0.81,4h-1l0.79-3.9a3.81,3.81,0,0,0,.1-0.74,0.84,0.84,0,0,0-.92-1,3.14,3.14,0,0,0-1.78,1.14l-0.9,4.47h-1l0.78-3.9a3.81,3.81,0,0,0,.1-0.74,0.83,0.83,0,0,0-.91-1,3.06,3.06,0,0,0-1.78,1.14l-0.9,4.47h-1Z"/><path class="cls-1" d="M59.78,350.89a2.08,2.08,0,0,1,1.64.77l-0.58.62a1.32,1.32,0,0,0-1.12-.57c-1.26,0-2.44,1.48-2.44,3.21,0,1.14.49,1.77,1.5,1.77a2.3,2.3,0,0,0,1.4-.56l0.44,0.65a3.22,3.22,0,0,1-2,.74A2.27,2.27,0,0,1,56.25,355,3.86,3.86,0,0,1,59.78,350.89Z"/><path class="cls-1" d="M61.74,355c0-2.39,1.68-4.1,3.41-4.1a2.25,2.25,0,0,1,2.26,2.54c0,2.39-1.69,4.09-3.42,4.09A2.24,2.24,0,0,1,61.74,355Zm1-.06c0,1.14.48,1.77,1.35,1.77,1.17,0,2.3-1.43,2.3-3.2,0-1.14-.48-1.78-1.35-1.78C63.88,351.71,62.74,353.15,62.74,354.92Z"/><path class="cls-1" d="M69.58,351H70.4l-0.09.95h0.05a3.43,3.43,0,0,1,2.08-1.1,1.29,1.29,0,0,1,1.46,1.23,3.69,3.69,0,0,1,2.24-1.23,1.36,1.36,0,0,1,1.5,1.57,4.43,4.43,0,0,1-.1.87l-0.81,4h-1l0.79-3.9a3.81,3.81,0,0,0,.1-0.74,0.84,0.84,0,0,0-.92-1,3.14,3.14,0,0,0-1.78,1.14L73,357.36H72l0.78-3.9a3.81,3.81,0,0,0,.1-0.74,0.83,0.83,0,0,0-.91-1,3.06,3.06,0,0,0-1.78,1.14l-0.9,4.47h-1Z"/><path class="cls-1" d="M80,351h0.82l-0.09.95h0.05a3.43,3.43,0,0,1,2.08-1.1,1.29,1.29,0,0,1,1.46,1.23,3.69,3.69,0,0,1,2.24-1.23,1.36,1.36,0,0,1,1.5,1.57,4.43,4.43,0,0,1-.1.87l-0.81,4h-1l0.79-3.9a3.81,3.81,0,0,0,.1-0.74,0.84,0.84,0,0,0-.92-1,3.14,3.14,0,0,0-1.78,1.14l-0.9,4.47h-1l0.78-3.9a3.81,3.81,0,0,0,.1-0.74,0.83,0.83,0,0,0-.91-1,3.06,3.06,0,0,0-1.78,1.14l-0.9,4.47h-1Z"/><path class="cls-1" d="M92.56,350.89c1.42,0,2,1,2,2.29a4.12,4.12,0,0,1-.22,1.23H90.18c-0.23,1.63.61,2.31,1.72,2.31a2.53,2.53,0,0,0,1.42-.55l0.39,0.66a3.54,3.54,0,0,1-2,.68,2.37,2.37,0,0,1-2.48-2.64A3.76,3.76,0,0,1,92.56,350.89Zm1,2.85a3.34,3.34,0,0,0,.06-0.65,1.22,1.22,0,0,0-1.22-1.4,2.47,2.47,0,0,0-2.16,2.05H93.6Z"/><path class="cls-1" d="M96.6,351h0.82l-0.14,1.21h0.05a2.56,2.56,0,0,1,2-1.36,1.45,1.45,0,0,1,.6.12l-0.35.88a1.23,1.23,0,0,0-.55-0.1,2.46,2.46,0,0,0-1.86,1.59l-0.79,4h-1Z"/><path class="cls-1" d="M103.27,350.89a2.08,2.08,0,0,1,1.64.77l-0.58.62a1.32,1.32,0,0,0-1.12-.57c-1.26,0-2.44,1.48-2.44,3.21,0,1.14.49,1.77,1.5,1.77a2.3,2.3,0,0,0,1.4-.56l0.44,0.65a3.22,3.22,0,0,1-2,.74A2.27,2.27,0,0,1,99.75,355,3.86,3.86,0,0,1,103.27,350.89Z"/><path class="cls-1" d="M106.59,351h1l-1.27,6.32h-1Zm0.21-1.9a0.75,0.75,0,0,1,.75-0.75,0.6,0.6,0,0,1,.64.6,0.74,0.74,0,0,1-.75.74A0.59,0.59,0,0,1,106.8,349.15Z"/><path class="cls-1" d="M111.93,350.89a1.69,1.69,0,0,1,1.52.95h0.05l0.25-.79h0.81l-1.26,6.32h-0.82l0.1-.94h-0.05a3.15,3.15,0,0,1-2.2,1.09c-1.11,0-1.82-.81-1.82-2.29C108.51,352.8,110.18,350.89,111.93,350.89Zm0.75,4.59,0.57-2.82a1.49,1.49,0,0,0-1.29-.94c-1.26,0-2.43,1.61-2.43,3.35,0,1.09.46,1.61,1.16,1.61A2.61,2.61,0,0,0,112.69,355.48Z"/><path class="cls-1" d="M117.24,348.11h1l-1.62,8.1a1.09,1.09,0,0,0,0,.25,0.21,0.21,0,0,0,.22.23,0.54,0.54,0,0,0,.21,0v0.77a1.64,1.64,0,0,1-.62.1,0.75,0.75,0,0,1-.84-0.82,2.44,2.44,0,0,1,.08-0.55Z"/><path class="cls-1" d="M124.71,350.89a2.08,2.08,0,0,1,1.64.77l-0.58.62a1.32,1.32,0,0,0-1.12-.57c-1.26,0-2.44,1.48-2.44,3.21,0,1.14.49,1.77,1.5,1.77a2.3,2.3,0,0,0,1.4-.56l0.44,0.65a3.22,3.22,0,0,1-2,.74,2.27,2.27,0,0,1-2.33-2.53A3.86,3.86,0,0,1,124.71,350.89Z"/><path class="cls-1" d="M128.61,348.11h1l-1.62,8.1a1.09,1.09,0,0,0,0,.25,0.21,0.21,0,0,0,.22.23,0.54,0.54,0,0,0,.21,0v0.77a1.64,1.64,0,0,1-.62.1,0.75,0.75,0,0,1-.84-0.82,2.44,2.44,0,0,1,.08-0.55Z"/><path class="cls-1" d="M131.25,351h1L131,357.36h-1Zm0.21-1.9a0.75,0.75,0,0,1,.75-0.75,0.6,0.6,0,0,1,.64.6,0.74,0.74,0,0,1-.75.74A0.59,0.59,0,0,1,131.46,349.15Z"/><path class="cls-1" d="M136.53,350.89c1.42,0,2,1,2,2.29a4.12,4.12,0,0,1-.22,1.23h-4.11c-0.23,1.63.61,2.31,1.72,2.31a2.53,2.53,0,0,0,1.42-.55l0.39,0.66a3.54,3.54,0,0,1-2,.68,2.37,2.37,0,0,1-2.48-2.64A3.76,3.76,0,0,1,136.53,350.89Zm1,2.85a3.34,3.34,0,0,0,.06-0.65,1.22,1.22,0,0,0-1.22-1.4,2.47,2.47,0,0,0-2.16,2.05h3.32Z"/><path class="cls-1" d="M140.57,351h0.82l-0.09.95h0.05a3.53,3.53,0,0,1,2.21-1.1,1.36,1.36,0,0,1,1.5,1.57,3.6,3.6,0,0,1-.1.87l-0.81,4h-1l0.78-3.9a3.87,3.87,0,0,0,.1-0.74,0.84,0.84,0,0,0-.94-1,3.07,3.07,0,0,0-1.9,1.14l-0.9,4.47h-1Z"/><path class="cls-1" d="M147.45,351.85h-0.92l0.14-.74,1-.06,0.47-1.74H149L148.62,351h1.6l-0.16.81h-1.62l-0.74,3.61a2.69,2.69,0,0,0,0,.47,0.68,0.68,0,0,0,.81.78,1.57,1.57,0,0,0,.66-0.2l0.22,0.72a2.89,2.89,0,0,1-1.2.29,1.31,1.31,0,0,1-1.51-1.4,6,6,0,0,1,.06-0.7Z"/><path class="cls-1" d="M56.17,380.67L58,371.41h1l-0.51,2.47-0.29,1.25h0a3.56,3.56,0,0,1,2.14-.94c1.11,0,1.82.81,1.82,2.29,0,2.43-1.66,4.34-3.41,4.34a1.69,1.69,0,0,1-1.52-.95h0l-0.26.79H56.17Zm1.91-4.62-0.6,3a1.46,1.46,0,0,0,1.29.94c1.26,0,2.42-1.61,2.42-3.37,0-1.07-.44-1.6-1.16-1.6A3,3,0,0,0,58.09,376.06Z"/><path class="cls-1" d="M67.91,380.67H67.09l0.1-1H67.15A3.56,3.56,0,0,1,65,380.83a1.36,1.36,0,0,1-1.49-1.57,3.52,3.52,0,0,1,.1-0.87l0.81-4h1l-0.79,3.9a3.86,3.86,0,0,0-.1.74,0.84,0.84,0,0,0,.94,1,3,3,0,0,0,1.87-1.14l0.9-4.47h1Z"/><path class="cls-1" d="M70.18,379.14a2,2,0,0,0,1.63.92A1.24,1.24,0,0,0,73.14,379c0-.46-0.27-0.71-1.16-1.2s-1.44-1-1.44-1.73a2,2,0,0,1,2.17-1.88,2.53,2.53,0,0,1,1.86.84L74,375.6a1.77,1.77,0,0,0-1.31-.62,1.11,1.11,0,0,0-1.2,1,1.57,1.57,0,0,0,1.12,1.12c1.13,0.62,1.48,1.11,1.48,1.79a2.09,2.09,0,0,1-2.37,1.95,2.77,2.77,0,0,1-2.17-1.2Z"/><path class="cls-1" d="M76.49,374.35h1l-1.27,6.32h-1Zm0.21-1.9a0.75,0.75,0,0,1,.75-0.75,0.6,0.6,0,0,1,.64.6,0.74,0.74,0,0,1-.75.74A0.59,0.59,0,0,1,76.7,372.45Z"/><path class="cls-1" d="M79.56,374.35h0.82l-0.09.95h0.05a3.53,3.53,0,0,1,2.21-1.1A1.36,1.36,0,0,1,84,375.77a3.59,3.59,0,0,1-.1.87l-0.81,4h-1l0.78-3.9A3.87,3.87,0,0,0,83,376a0.84,0.84,0,0,0-.94-1,3.07,3.07,0,0,0-1.9,1.14l-0.9,4.47h-1Z"/><path class="cls-1" d="M88.6,374.2c1.42,0,2,1,2,2.29a4.12,4.12,0,0,1-.22,1.23H86.22c-0.23,1.63.61,2.31,1.72,2.31a2.53,2.53,0,0,0,1.42-.55l0.39,0.66a3.54,3.54,0,0,1-2,.68,2.37,2.37,0,0,1-2.48-2.64A3.76,3.76,0,0,1,88.6,374.2Zm1,2.85a3.34,3.34,0,0,0,.06-0.65,1.22,1.22,0,0,0-1.22-1.4A2.47,2.47,0,0,0,86.32,377h3.32Z"/><path class="cls-1" d="M91.56,379.14a2,2,0,0,0,1.63.92A1.24,1.24,0,0,0,94.52,379c0-.46-0.27-0.71-1.16-1.2s-1.44-1-1.44-1.73a2,2,0,0,1,2.17-1.88A2.53,2.53,0,0,1,96,375l-0.57.56a1.77,1.77,0,0,0-1.31-.62,1.11,1.11,0,0,0-1.2,1A1.57,1.57,0,0,0,94,377.08c1.13,0.62,1.48,1.11,1.48,1.79a2.09,2.09,0,0,1-2.37,1.95,2.77,2.77,0,0,1-2.17-1.2Z"/><path class="cls-1" d="M96.79,379.14a2,2,0,0,0,1.63.92A1.24,1.24,0,0,0,99.75,379c0-.46-0.27-0.71-1.16-1.2s-1.44-1-1.44-1.73a2,2,0,0,1,2.17-1.88,2.53,2.53,0,0,1,1.86.84l-0.57.56a1.76,1.76,0,0,0-1.31-.62,1.11,1.11,0,0,0-1.2,1,1.57,1.57,0,0,0,1.12,1.12c1.13,0.62,1.48,1.11,1.48,1.79a2.09,2.09,0,0,1-2.37,1.95,2.77,2.77,0,0,1-2.17-1.2Z"/><path class="cls-1" d="M107.94,374.2a2.08,2.08,0,0,1,1.64.77l-0.58.62a1.32,1.32,0,0,0-1.12-.57c-1.26,0-2.44,1.48-2.44,3.21,0,1.14.49,1.77,1.5,1.77a2.3,2.3,0,0,0,1.4-.56l0.44,0.65a3.22,3.22,0,0,1-2,.74,2.27,2.27,0,0,1-2.33-2.53A3.86,3.86,0,0,1,107.94,374.2Z"/><path class="cls-1" d="M109.9,378.29c0-2.39,1.68-4.1,3.41-4.1a2.25,2.25,0,0,1,2.26,2.54c0,2.39-1.69,4.09-3.42,4.09A2.24,2.24,0,0,1,109.9,378.29Zm1-.06c0,1.14.48,1.77,1.35,1.77,1.17,0,2.3-1.43,2.3-3.2,0-1.14-.48-1.78-1.35-1.78C112,375,110.9,376.46,110.9,378.23Z"/><path class="cls-1" d="M117.74,374.35h0.82l-0.09.95h0.05a3.53,3.53,0,0,1,2.21-1.1,1.36,1.36,0,0,1,1.5,1.57,3.6,3.6,0,0,1-.1.87l-0.81,4h-1l0.78-3.9a3.87,3.87,0,0,0,.1-0.74,0.84,0.84,0,0,0-.94-1,3.07,3.07,0,0,0-1.9,1.14l-0.9,4.47h-1Z"/><path class="cls-1" d="M123.49,379.14a2,2,0,0,0,1.63.92,1.24,1.24,0,0,0,1.34-1.05c0-.46-0.27-0.71-1.16-1.2s-1.44-1-1.44-1.73A2,2,0,0,1,126,374.2a2.53,2.53,0,0,1,1.86.84l-0.57.56A1.77,1.77,0,0,0,126,375a1.11,1.11,0,0,0-1.2,1,1.57,1.57,0,0,0,1.12,1.12c1.13,0.62,1.48,1.11,1.48,1.79a2.09,2.09,0,0,1-2.37,1.95,2.77,2.77,0,0,1-2.17-1.2Z"/><path class="cls-1" d="M133.32,380.67H132.5l0.1-1h-0.05a3.56,3.56,0,0,1-2.18,1.12,1.36,1.36,0,0,1-1.49-1.57,3.52,3.52,0,0,1,.1-0.87l0.81-4h1l-0.79,3.9a3.86,3.86,0,0,0-.1.74,0.84,0.84,0,0,0,.94,1,3,3,0,0,0,1.87-1.14l0.9-4.47h1Z"/><path class="cls-1" d="M137.25,371.41h1l-1.62,8.1a1.09,1.09,0,0,0,0,.25,0.21,0.21,0,0,0,.22.23,0.54,0.54,0,0,0,.21,0v0.77a1.64,1.64,0,0,1-.62.1,0.75,0.75,0,0,1-.84-0.82,2.44,2.44,0,0,1,.08-0.55Z"/><path class="cls-1" d="M139.93,375.16H139l0.14-.74,1-.06,0.47-1.74h0.85l-0.35,1.74h1.6l-0.16.81h-1.62l-0.74,3.61a2.69,2.69,0,0,0,0,.47,0.68,0.68,0,0,0,.81.78,1.57,1.57,0,0,0,.66-0.2l0.22,0.72a2.89,2.89,0,0,1-1.2.29,1.31,1.31,0,0,1-1.51-1.4,5.78,5.78,0,0,1,.06-0.7Z"/><path class="cls-1" d="M146.24,374.2a1.69,1.69,0,0,1,1.52.95h0.05l0.25-.79h0.81l-1.26,6.32h-0.82l0.1-.94h-0.05a3.15,3.15,0,0,1-2.2,1.09c-1.11,0-1.82-.81-1.82-2.29C142.82,376.11,144.48,374.2,146.24,374.2Zm0.75,4.59,0.57-2.82a1.48,1.48,0,0,0-1.29-.94c-1.26,0-2.43,1.61-2.43,3.35,0,1.09.46,1.61,1.16,1.61A2.6,2.6,0,0,0,147,378.79Z"/><path class="cls-1" d="M150.94,374.35h0.82l-0.09.95h0.05a3.53,3.53,0,0,1,2.21-1.1,1.36,1.36,0,0,1,1.5,1.57,3.6,3.6,0,0,1-.1.87l-0.81,4h-1l0.78-3.9a3.87,3.87,0,0,0,.1-0.74,0.84,0.84,0,0,0-.94-1,3.07,3.07,0,0,0-1.9,1.14l-0.9,4.47h-1Z"/><path class="cls-1" d="M160.12,374.2a2.08,2.08,0,0,1,1.64.77l-0.58.62a1.32,1.32,0,0,0-1.12-.57c-1.26,0-2.44,1.48-2.44,3.21,0,1.14.49,1.77,1.5,1.77a2.3,2.3,0,0,0,1.4-.56l0.44,0.65a3.22,3.22,0,0,1-2,.74,2.27,2.27,0,0,1-2.33-2.53A3.86,3.86,0,0,1,160.12,374.2Z"/><path class="cls-1" d="M161.84,382.58a2.13,2.13,0,0,0,1.65-1.44l0.23-.46-1.08-6.33h1l0.49,3.55c0.09,0.57.16,1.29,0.21,1.88h0.05c0.3-.6.62-1.29,0.94-1.88l1.82-3.55h1l-3.72,6.85c-0.66,1.23-1.43,2.18-2.64,2.18a1.71,1.71,0,0,1-.73-0.18l0.32-.74A1,1,0,0,0,161.84,382.58Z"/><path class="cls-1" d="M62.6,397.66l-1.33,6.62a2.89,2.89,0,0,1-3,2.61A3.48,3.48,0,0,1,56.1,406l0.47-.69a2.74,2.74,0,0,0,1.78.75,2.06,2.06,0,0,0,2-1.88l0.31-1.3h0a3.15,3.15,0,0,1-2.15,1c-1.07,0-1.83-.75-1.83-2.22,0-2.31,1.64-4.19,3.34-4.19a1.71,1.71,0,0,1,1.52.95h0l0.25-.79H62.6ZM60.74,402l0.56-2.7a1.51,1.51,0,0,0-1.29-.94c-1.22,0-2.35,1.56-2.35,3.21,0,1,.43,1.53,1.13,1.53A2.73,2.73,0,0,0,60.74,402Z"/><path class="cls-1" d="M63.53,401.6c0-2.39,1.68-4.1,3.41-4.1A2.25,2.25,0,0,1,69.2,400c0,2.39-1.69,4.09-3.42,4.09A2.24,2.24,0,0,1,63.53,401.6Zm1-.06c0,1.14.48,1.77,1.35,1.77,1.17,0,2.3-1.43,2.3-3.2,0-1.14-.48-1.78-1.35-1.78C65.68,398.32,64.53,399.77,64.53,401.53Z"/><path class="cls-1" d="M70.35,397.66h1l0.47,3.65c0.07,0.61.12,1.27,0.18,1.89H72c0.3-.62.61-1.26,0.94-1.89l1.86-3.65h1L72.46,404h-1.2Z"/><path class="cls-1" d="M79.21,397.5c1.42,0,2,1,2,2.29a4.12,4.12,0,0,1-.22,1.23H76.83c-0.23,1.63.61,2.31,1.72,2.31a2.53,2.53,0,0,0,1.42-.55l0.39,0.66a3.54,3.54,0,0,1-2,.68,2.37,2.37,0,0,1-2.48-2.64A3.76,3.76,0,0,1,79.21,397.5Zm1,2.85a3.34,3.34,0,0,0,.06-0.65,1.22,1.22,0,0,0-1.22-1.4,2.47,2.47,0,0,0-2.16,2.05h3.32Z"/><path class="cls-1" d="M83.26,397.66h0.82l-0.14,1.21H84a2.56,2.56,0,0,1,2-1.36,1.45,1.45,0,0,1,.6.12l-0.35.88a1.23,1.23,0,0,0-.55-0.1A2.46,2.46,0,0,0,83.79,400L83,404H82Z"/><path class="cls-1" d="M87.7,397.66h0.82l-0.09.95h0.05a3.53,3.53,0,0,1,2.21-1.1,1.36,1.36,0,0,1,1.49,1.57,3.59,3.59,0,0,1-.1.87l-0.81,4h-1l0.78-3.9a3.87,3.87,0,0,0,.1-0.74,0.84,0.84,0,0,0-.94-1,3.07,3.07,0,0,0-1.9,1.14L87.44,404h-1Z"/><path class="cls-1" d="M94.53,397.66h0.82l-0.09.95h0.05a3.43,3.43,0,0,1,2.08-1.1,1.29,1.29,0,0,1,1.46,1.23,3.69,3.69,0,0,1,2.24-1.23,1.36,1.36,0,0,1,1.5,1.57,4.43,4.43,0,0,1-.1.87l-0.81,4h-1l0.79-3.9a3.81,3.81,0,0,0,.1-0.74,0.84,0.84,0,0,0-.92-1,3.14,3.14,0,0,0-1.78,1.14L98,404H97l0.78-3.9a3.81,3.81,0,0,0,.1-0.74,0.83,0.83,0,0,0-.91-1,3.06,3.06,0,0,0-1.78,1.14L94.27,404h-1Z"/><path class="cls-1" d="M107.12,397.5c1.42,0,2,1,2,2.29a4.12,4.12,0,0,1-.22,1.23h-4.11c-0.23,1.63.61,2.31,1.72,2.31a2.53,2.53,0,0,0,1.42-.55l0.39,0.66a3.54,3.54,0,0,1-2,.68,2.37,2.37,0,0,1-2.48-2.64A3.76,3.76,0,0,1,107.12,397.5Zm1,2.85a3.34,3.34,0,0,0,.06-0.65,1.22,1.22,0,0,0-1.22-1.4,2.47,2.47,0,0,0-2.16,2.05h3.32Z"/><path class="cls-1" d="M111.17,397.66H112l-0.09.95h0.05a3.53,3.53,0,0,1,2.21-1.1,1.36,1.36,0,0,1,1.49,1.57,3.59,3.59,0,0,1-.1.87l-0.81,4h-1l0.78-3.9a3.87,3.87,0,0,0,.1-0.74,0.84,0.84,0,0,0-.94-1,3.07,3.07,0,0,0-1.9,1.14l-0.9,4.47h-1Z"/><path class="cls-1" d="M118,398.47h-0.92l0.14-.74,1-.06,0.47-1.74h0.85l-0.35,1.74h1.6l-0.16.81H119l-0.74,3.61a2.69,2.69,0,0,0,0,.47,0.68,0.68,0,0,0,.81.78,1.57,1.57,0,0,0,.66-0.2l0.22,0.72a2.89,2.89,0,0,1-1.2.29,1.31,1.31,0,0,1-1.51-1.4,5.78,5.78,0,0,1,.06-0.7Z"/><path class="cls-1" d="M114.24,142.84h2.07v-5.5h-1.79V136a6.63,6.63,0,0,0,2.37-.87h1.62v7.74h1.78v1.79h-6.06v-1.79Z"/><path class="cls-1" d="M123.36,142a1.39,1.39,0,1,1-1.33,1.39A1.33,1.33,0,0,1,123.36,142Z"/><path class="cls-1" d="M129.74,135a0.86,0.86,0,0,1,1.71,0A0.86,0.86,0,0,1,129.74,135Zm0.22,2.29h1.23v7.29H130v-7.29Z"/><path class="cls-1" d="M133.65,137.34h1l0.1,1h0a3.44,3.44,0,0,1,2.45-1.23c1.53,0,2.22,1,2.22,2.85v4.62h-1.23v-4.45c0-1.37-.42-2-1.38-2a2.79,2.79,0,0,0-2,1.13v5.28h-1.23v-7.29Z"/><path class="cls-1" d="M144.5,137.16a3,3,0,0,1,2,.84l-0.06-1.24v-2.81h1.25v10.68h-1l-0.11-.85h0a3.29,3.29,0,0,1-2.21,1c-1.83,0-3-1.38-3-3.81S142.83,137.16,144.5,137.16Zm0.12,6.61a2.47,2.47,0,0,0,1.86-1V139a2.54,2.54,0,0,0-1.77-.76c-1.17,0-2.1,1.13-2.1,2.79S143.34,143.77,144.62,143.77Z"/><path class="cls-1" d="M152.91,137.16c1.86,0,2.91,1.33,2.91,3.42a4.43,4.43,0,0,1,0,.67h-4.92a2.43,2.43,0,0,0,2.43,2.56,3.3,3.3,0,0,0,1.81-.57l0.44,0.81a4.34,4.34,0,0,1-2.4.75,3.49,3.49,0,0,1-3.49-3.81C149.64,138.61,151.25,137.16,152.91,137.16Zm1.83,3.28c0-1.48-.66-2.31-1.8-2.31a2.27,2.27,0,0,0-2.1,2.31h3.9Z"/><path class="cls-1" d="M158.85,145.24v2.46h-1.23V137.34h1l0.1,0.84h0a3.77,3.77,0,0,1,2.32-1c1.88,0,2.88,1.46,2.88,3.72,0,2.48-1.48,3.93-3.15,3.93a3.38,3.38,0,0,1-2-.84Zm1.79-1.47c1.2,0,2.08-1.09,2.08-2.9,0-1.6-.54-2.68-1.92-2.68a3.07,3.07,0,0,0-2,1V143A2.88,2.88,0,0,0,160.64,143.77Z"/><path class="cls-1" d="M168.68,137.16c1.86,0,2.91,1.33,2.91,3.42a4.43,4.43,0,0,1,0,.67h-4.92a2.43,2.43,0,0,0,2.43,2.56,3.3,3.3,0,0,0,1.81-.57l0.44,0.81a4.34,4.34,0,0,1-2.4.75,3.49,3.49,0,0,1-3.49-3.81C165.41,138.61,167,137.16,168.68,137.16Zm1.83,3.28c0-1.48-.66-2.31-1.8-2.31a2.27,2.27,0,0,0-2.1,2.31h3.9Z"/><path class="cls-1" d="M173.39,137.34h1l0.1,1h0a3.44,3.44,0,0,1,2.45-1.23c1.53,0,2.22,1,2.22,2.85v4.62H178v-4.45c0-1.37-.42-2-1.38-2a2.79,2.79,0,0,0-2,1.13v5.28h-1.23v-7.29Z"/><path class="cls-1" d="M184.23,137.16a3,3,0,0,1,2,.84l-0.06-1.24v-2.81h1.25v10.68h-1l-0.11-.85h0a3.29,3.29,0,0,1-2.21,1c-1.83,0-3-1.38-3-3.81S182.57,137.16,184.23,137.16Zm0.12,6.61a2.47,2.47,0,0,0,1.86-1V139a2.54,2.54,0,0,0-1.77-.76c-1.17,0-2.1,1.13-2.1,2.79S183.08,143.77,184.35,143.77Z"/><path class="cls-1" d="M192.65,137.16c1.86,0,2.91,1.33,2.91,3.42a4.43,4.43,0,0,1,0,.67h-4.92a2.43,2.43,0,0,0,2.43,2.56,3.3,3.3,0,0,0,1.81-.57l0.44,0.81a4.34,4.34,0,0,1-2.4.75,3.49,3.49,0,0,1-3.49-3.81C189.38,138.61,191,137.16,192.65,137.16Zm1.83,3.28c0-1.48-.66-2.31-1.8-2.31a2.27,2.27,0,0,0-2.1,2.31h3.9Z"/><path class="cls-1" d="M197.36,137.34h1l0.1,1h0a3.43,3.43,0,0,1,2.44-1.23c1.53,0,2.22,1,2.22,2.85v4.62H202v-4.45c0-1.37-.42-2-1.38-2a2.79,2.79,0,0,0-2,1.13v5.28h-1.23v-7.29Z"/><path class="cls-1" d="M205.77,138.34h-1.08v-0.93l1.14-.07,0.15-2h1v2h2v1h-2v4c0,0.9.29,1.41,1.13,1.41a2.66,2.66,0,0,0,.83-0.19l0.24,0.93a4.51,4.51,0,0,1-1.35.27c-1.56,0-2.08-1-2.08-2.43v-4Z"/><path class="cls-1" d="M216.3,137.16a3,3,0,0,1,2,.84l-0.06-1.24v-2.81h1.25v10.68h-1l-0.11-.85h0a3.29,3.29,0,0,1-2.21,1c-1.83,0-3-1.38-3-3.81S214.64,137.16,216.3,137.16Zm0.12,6.61a2.47,2.47,0,0,0,1.86-1V139a2.54,2.54,0,0,0-1.77-.76c-1.17,0-2.1,1.13-2.1,2.79S215.15,143.77,216.42,143.77Z"/><path class="cls-1" d="M224.72,137.16c1.86,0,2.91,1.33,2.91,3.42a4.43,4.43,0,0,1,0,.67h-4.92a2.43,2.43,0,0,0,2.43,2.56,3.3,3.3,0,0,0,1.81-.57l0.44,0.81a4.34,4.34,0,0,1-2.4.75,3.49,3.49,0,0,1-3.49-3.81C221.45,138.61,223.05,137.16,224.72,137.16Zm1.83,3.28c0-1.48-.66-2.31-1.8-2.31a2.27,2.27,0,0,0-2.1,2.31h3.9Z"/><path class="cls-1" d="M229.23,143a3.28,3.28,0,0,0,2.14.87,1.22,1.22,0,0,0,1.44-1.14c0-.75-0.87-1.08-1.67-1.38-1-.37-2.17-0.87-2.17-2.1s0.93-2.07,2.5-2.07a3.64,3.64,0,0,1,2.26.83l-0.58.78a2.71,2.71,0,0,0-1.67-.65,1.13,1.13,0,0,0-1.33,1c0,0.68.79,0.95,1.62,1.26,1,0.39,2.22.82,2.22,2.2,0,1.19-.95,2.18-2.67,2.18a4.39,4.39,0,0,1-2.71-1Z"/><path class="cls-1" d="M235.49,135a0.86,0.86,0,0,1,1.71,0A0.86,0.86,0,0,1,235.49,135Zm0.22,2.29h1.23v7.29h-1.23v-7.29Z"/><path class="cls-1" d="M239.91,144.37v-0.06a1.35,1.35,0,0,1-.65-1.19,1.71,1.71,0,0,1,.79-1.35v-0.06a2.57,2.57,0,0,1,1.8-4.56,2.91,2.91,0,0,1,1,.18h2.54v0.94h-1.5a2.11,2.11,0,0,1,.6,1.5,2.5,2.5,0,0,1-2.67,2.53,2.55,2.55,0,0,1-1.09-.25,1.1,1.1,0,0,0-.46.87c0,0.46.3,0.79,1.29,0.79H243c1.69,0,2.55.52,2.55,1.74s-1.42,2.52-3.69,2.52c-1.78,0-3-.71-3-2A2.1,2.1,0,0,1,239.91,144.37Zm2.13,2.76c1.39,0,2.31-.72,2.31-1.48s-0.53-.9-1.47-0.9h-1.26a3.56,3.56,0,0,1-.95-0.12,1.53,1.53,0,0,0-.75,1.23C239.93,146.64,240.72,147.13,242,147.13Zm1.36-7.38a1.55,1.55,0,1,0-3.09,0A1.56,1.56,0,1,0,243.41,139.75Z"/><path class="cls-1" d="M247,137.34h1l0.1,1h0a3.44,3.44,0,0,1,2.45-1.23c1.53,0,2.22,1,2.22,2.85v4.62h-1.23v-4.45c0-1.37-.42-2-1.38-2a2.79,2.79,0,0,0-2,1.13v5.28H247v-7.29Z"/><path class="cls-1" d="M149.89,155.16A3,3,0,0,1,152,156l-0.62.79a2.2,2.2,0,0,0-1.47-.65c-1.32,0-2.28,1.14-2.28,2.82s0.92,2.79,2.25,2.79a2.6,2.6,0,0,0,1.71-.73l0.55,0.81a3.61,3.61,0,0,1-2.37.95c-1.93,0-3.42-1.4-3.42-3.81A3.53,3.53,0,0,1,149.89,155.16Z"/><path class="cls-1" d="M156.28,155.16c1.79,0,3.38,1.4,3.38,3.84s-1.59,3.81-3.37,3.81-3.37-1.4-3.37-3.81S154.5,155.16,156.28,155.16Zm0,6.63c1.26,0,2.1-1.12,2.1-2.79s-0.84-2.82-2.1-2.82-2.1,1.14-2.1,2.82S155,161.79,156.28,161.79Z"/><path class="cls-1" d="M161.58,155.34h1l0.1,1h0a3.43,3.43,0,0,1,2.44-1.23c1.53,0,2.22,1,2.22,2.85v4.62h-1.23v-4.45c0-1.37-.42-2-1.38-2a2.79,2.79,0,0,0-2,1.13v5.28h-1.23v-7.29Z"/><path class="cls-1" d="M169.59,161a3.28,3.28,0,0,0,2.14.87,1.22,1.22,0,0,0,1.44-1.14c0-.75-0.87-1.08-1.67-1.38-1-.37-2.17-0.87-2.17-2.1s0.93-2.07,2.5-2.07a3.64,3.64,0,0,1,2.26.83l-0.58.78a2.71,2.71,0,0,0-1.67-.65,1.13,1.13,0,0,0-1.33,1c0,0.68.79,0.95,1.62,1.26,1,0.39,2.22.82,2.22,2.2,0,1.19-.95,2.18-2.67,2.18a4.39,4.39,0,0,1-2.71-1Z"/><path class="cls-1" d="M176,155.34h1.25v4.45c0,1.37.4,2,1.36,2a2.48,2.48,0,0,0,2-1.23v-5.17h1.23v7.29h-1l-0.11-1.14h0a3.08,3.08,0,0,1-2.4,1.32c-1.54,0-2.23-1-2.23-2.85v-4.62Z"/><path class="cls-1" d="M184.23,151.95h1.23v9.3c0,0.39.17,0.54,0.34,0.54a1,1,0,0,0,.27,0l0.17,0.93a1.66,1.66,0,0,1-.71.12c-0.93,0-1.31-.58-1.31-1.65v-9.21Z"/><path class="cls-1" d="M188.26,156.34h-1.08v-0.93l1.14-.07,0.15-2h1v2h2v1h-2v4c0,0.9.29,1.41,1.13,1.41a2.66,2.66,0,0,0,.83-0.19l0.24,0.93a4.51,4.51,0,0,1-1.35.27c-1.56,0-2.08-1-2.08-2.43v-4Z"/><path class="cls-1" d="M197,158c0-.93-0.31-1.83-1.5-1.83a3.93,3.93,0,0,0-2.17.78l-0.5-.85a5.41,5.41,0,0,1,2.87-.94c1.79,0,2.54,1.19,2.54,3v4.47h-1l-0.1-.87h0a4,4,0,0,1-2.42,1.05,2,2,0,0,1-2.14-2.07C192.49,159.15,193.87,158.35,197,158Zm-2,3.81a3,3,0,0,0,2-1v-2c-2.44.3-3.27,0.9-3.27,1.83A1.12,1.12,0,0,0,195,161.82Z"/><path class="cls-1" d="M200.53,155.34h1l0.1,1h0a3.43,3.43,0,0,1,2.44-1.23c1.53,0,2.22,1,2.22,2.85v4.62h-1.23v-4.45c0-1.37-.42-2-1.38-2a2.79,2.79,0,0,0-2,1.13v5.28h-1.23v-7.29Z"/><path class="cls-1" d="M211.71,155.16a3,3,0,0,1,2.13.87l-0.62.79a2.2,2.2,0,0,0-1.47-.65c-1.32,0-2.28,1.14-2.28,2.82s0.92,2.79,2.25,2.79a2.6,2.6,0,0,0,1.71-.73l0.55,0.81a3.61,3.61,0,0,1-2.37.95c-1.93,0-3.42-1.4-3.42-3.81A3.53,3.53,0,0,1,211.71,155.16Z"/><path class="cls-1" d="M215.73,164.74a1.87,1.87,0,0,0,1.65-1.56l0.17-.54-2.92-7.3h1.28l1.48,4c0.23,0.63.48,1.38,0.71,2.05h0.06c0.21-.66.42-1.41,0.62-2.05l1.3-4h1.2l-2.75,7.89c-0.51,1.44-1.26,2.53-2.73,2.53a2.42,2.42,0,0,1-.85-0.15l0.24-1A2.14,2.14,0,0,0,215.73,164.74Z"/><path class="cls-1" d="M414.27,143.37c2.43-2.29,4.14-3.93,4.14-5.28a1.28,1.28,0,0,0-1.35-1.44,2.43,2.43,0,0,0-1.69,1l-1.2-1.18a4,4,0,0,1,3.19-1.52,2.92,2.92,0,0,1,3.15,3c0,1.6-1.5,3.31-3,4.94a14.7,14.7,0,0,1,1.59-.12H421v1.86h-6.71v-1.26Z"/><path class="cls-1" d="M423.89,142a1.39,1.39,0,1,1-1.33,1.39A1.33,1.33,0,0,1,423.89,142Z"/><path class="cls-1" d="M433.13,137.16a3,3,0,0,1,2,.84l-0.06-1.24v-2.81h1.25v10.68h-1l-0.11-.85h0a3.29,3.29,0,0,1-2.21,1c-1.83,0-3-1.38-3-3.81S431.46,137.16,433.13,137.16Zm0.12,6.61a2.47,2.47,0,0,0,1.86-1V139a2.54,2.54,0,0,0-1.77-.76c-1.17,0-2.1,1.13-2.1,2.79S432,143.77,433.25,143.77Z"/><path class="cls-1" d="M441.54,137.16c1.86,0,2.91,1.33,2.91,3.42a4.43,4.43,0,0,1,0,.67h-4.92a2.43,2.43,0,0,0,2.43,2.56,3.3,3.3,0,0,0,1.81-.57l0.44,0.81a4.34,4.34,0,0,1-2.4.75,3.49,3.49,0,0,1-3.49-3.81C438.27,138.61,439.88,137.16,441.54,137.16Zm1.83,3.28c0-1.48-.66-2.31-1.8-2.31a2.27,2.27,0,0,0-2.1,2.31h3.9Z"/><path class="cls-1" d="M446.06,143a3.28,3.28,0,0,0,2.14.87,1.22,1.22,0,0,0,1.44-1.14c0-.75-0.87-1.08-1.67-1.38-1-.37-2.17-0.87-2.17-2.1s0.93-2.07,2.5-2.07a3.64,3.64,0,0,1,2.26.83l-0.58.78a2.71,2.71,0,0,0-1.67-.65,1.13,1.13,0,0,0-1.33,1c0,0.68.79,0.95,1.62,1.26,1,0.39,2.22.82,2.22,2.2,0,1.19-.95,2.18-2.67,2.18a4.39,4.39,0,0,1-2.71-1Z"/><path class="cls-1" d="M452.31,135a0.86,0.86,0,0,1,1.71,0A0.86,0.86,0,0,1,452.31,135Zm0.22,2.29h1.23v7.29h-1.23v-7.29Z"/><path class="cls-1" d="M456.74,144.37v-0.06a1.35,1.35,0,0,1-.65-1.19,1.71,1.71,0,0,1,.79-1.35v-0.06a2.57,2.57,0,0,1,1.8-4.56,2.91,2.91,0,0,1,1,.18h2.54v0.94h-1.5a2.11,2.11,0,0,1,.6,1.5,2.5,2.5,0,0,1-2.67,2.53,2.55,2.55,0,0,1-1.09-.25,1.1,1.1,0,0,0-.46.87c0,0.46.3,0.79,1.29,0.79h1.41c1.69,0,2.55.52,2.55,1.74S461,148,458.69,148c-1.78,0-3-.71-3-2A2.1,2.1,0,0,1,456.74,144.37Zm2.13,2.76c1.39,0,2.31-.72,2.31-1.48s-0.53-.9-1.47-0.9h-1.26a3.56,3.56,0,0,1-.95-0.12,1.53,1.53,0,0,0-.75,1.23C456.75,146.64,457.55,147.13,458.87,147.13Zm1.36-7.38a1.55,1.55,0,1,0-3.09,0A1.56,1.56,0,1,0,460.23,139.75Z"/><path class="cls-1" d="M463.79,137.34h1l0.1,1h0a3.43,3.43,0,0,1,2.44-1.23c1.53,0,2.22,1,2.22,2.85v4.62h-1.23v-4.45c0-1.37-.42-2-1.38-2a2.79,2.79,0,0,0-2,1.13v5.28h-1.23v-7.29Z"/><path class="cls-1" d="M478.31,135a2.05,2.05,0,0,0-.83-0.18c-0.69,0-1,.48-1,1.41v1.16H478v1h-1.54v6.28h-1.23v-6.28h-1v-0.93l1-.07v-1.16c0-1.48.67-2.41,2.13-2.41a3.31,3.31,0,0,1,1.21.24Z"/><path class="cls-1" d="M479.18,135a0.86,0.86,0,0,1,1.71,0A0.86,0.86,0,0,1,479.18,135Zm0.22,2.29h1.23v7.29H479.4v-7.29Z"/><path class="cls-1" d="M483.09,137.34h1l0.1,1.32h0a2.49,2.49,0,0,1,2.07-1.5,1.81,1.81,0,0,1,.78.15l-0.24,1.08a2,2,0,0,0-.71-0.12c-0.62,0-1.35.45-1.84,1.68v4.68h-1.23v-7.29Z"/><path class="cls-1" d="M488.3,137.34h1l0.1,1h0a3.2,3.2,0,0,1,2.26-1.23,1.91,1.91,0,0,1,2,1.4,3.44,3.44,0,0,1,2.4-1.4c1.5,0,2.22,1,2.22,2.85v4.62h-1.23v-4.45c0-1.37-.43-2-1.35-2a2.67,2.67,0,0,0-1.83,1.13v5.28h-1.23v-4.45c0-1.37-.43-2-1.36-2a2.73,2.73,0,0,0-1.83,1.13v5.28H488.3v-7.29Z"/><path class="cls-1" d="M507.89,140c0-.93-0.31-1.83-1.5-1.83a3.93,3.93,0,0,0-2.17.78l-0.5-.85a5.41,5.41,0,0,1,2.87-.94c1.79,0,2.54,1.19,2.54,3v4.47h-1l-0.1-.87h0a4,4,0,0,1-2.42,1.05,2,2,0,0,1-2.14-2.07C503.4,141.15,504.78,140.35,507.89,140Zm-2,3.81a3,3,0,0,0,2-1v-2c-2.44.3-3.27,0.9-3.27,1.83A1.12,1.12,0,0,0,505.89,143.82Z"/><path class="cls-1" d="M514.41,137.16a3,3,0,0,1,2.13.87l-0.62.79a2.2,2.2,0,0,0-1.47-.65c-1.32,0-2.28,1.14-2.28,2.82s0.92,2.79,2.25,2.79a2.6,2.6,0,0,0,1.71-.73l0.55,0.81a3.61,3.61,0,0,1-2.37.95c-1.93,0-3.42-1.4-3.42-3.81A3.53,3.53,0,0,1,514.41,137.16Z"/><path class="cls-1" d="M520.61,137.16a3,3,0,0,1,2.08.87h0l0.12-.69h1V147.7h-1.25v-2.59l0.06-1.29a3.34,3.34,0,0,1-2.19,1c-1.83,0-3-1.38-3-3.81S518.94,137.16,520.61,137.16Zm0.12,6.61a2.47,2.47,0,0,0,1.86-1V139a2.54,2.54,0,0,0-1.77-.76c-1.17,0-2.1,1.13-2.1,2.79S519.45,143.77,520.73,143.77Z"/><path class="cls-1" d="M526.11,137.34h1.25v4.45c0,1.37.4,2,1.36,2a2.48,2.48,0,0,0,2-1.23v-5.17h1.23v7.29h-1l-0.11-1.14h0a3.08,3.08,0,0,1-2.4,1.32c-1.54,0-2.23-1-2.23-2.85v-4.62Z"/><path class="cls-1" d="M534.15,135a0.86,0.86,0,0,1,1.71,0A0.86,0.86,0,0,1,534.15,135Zm0.22,2.29h1.23v7.29h-1.23v-7.29Z"/><path class="cls-1" d="M538.07,137.34h1l0.1,1.32h0a2.49,2.49,0,0,1,2.07-1.5,1.81,1.81,0,0,1,.78.15l-0.24,1.08a2,2,0,0,0-.71-0.12c-0.62,0-1.35.45-1.84,1.68v4.68h-1.23v-7.29Z"/><path class="cls-1" d="M545.85,137.16c1.86,0,2.91,1.33,2.91,3.42a4.43,4.43,0,0,1,0,.67H543.8a2.43,2.43,0,0,0,2.43,2.56,3.3,3.3,0,0,0,1.81-.57l0.44,0.81a4.34,4.34,0,0,1-2.4.75,3.49,3.49,0,0,1-3.49-3.81C542.58,138.61,544.19,137.16,545.85,137.16Zm1.83,3.28c0-1.48-.66-2.31-1.8-2.31a2.27,2.27,0,0,0-2.1,2.31h3.9Z"/><path class="cls-1" d="M553.2,137.16a3,3,0,0,1,2,.84l-0.06-1.24v-2.81h1.25v10.68h-1l-0.11-.85h0a3.29,3.29,0,0,1-2.21,1c-1.83,0-3-1.38-3-3.81S551.54,137.16,553.2,137.16Zm0.12,6.61a2.47,2.47,0,0,0,1.86-1V139a2.54,2.54,0,0,0-1.77-.76c-1.17,0-2.1,1.13-2.1,2.79S552,143.77,553.32,143.77Z"/><path class="cls-1" d="M561.92,133.95h1.23v2.91l0,1.32a3.6,3.6,0,0,1,2.28-1c1.89,0,2.89,1.46,2.89,3.71,0,2.49-1.48,3.94-3.15,3.94a3.3,3.3,0,0,1-2.08-.9h0l-0.11.72h-1V133.95Zm3,9.82c1.2,0,2.08-1.09,2.08-2.9,0-1.6-.54-2.68-1.92-2.68a3,3,0,0,0-2,1V143A2.85,2.85,0,0,0,564.93,143.77Z"/><path class="cls-1" d="M570.24,146.74a1.87,1.87,0,0,0,1.65-1.56l0.17-.54-2.92-7.3h1.28l1.48,4c0.23,0.63.48,1.38,0.71,2.05h0.06c0.21-.66.42-1.41,0.62-2.05l1.3-4h1.2L573,145.23c-0.51,1.44-1.26,2.53-2.73,2.53a2.42,2.42,0,0,1-.85-0.15l0.24-1A2.14,2.14,0,0,0,570.24,146.74Z"/><path class="cls-1" d="M412.15,151.95h1.23v9.3c0,0.39.17,0.54,0.34,0.54a1,1,0,0,0,.27,0l0.17,0.93a1.66,1.66,0,0,1-.71.12c-0.93,0-1.31-.58-1.31-1.65v-9.21Z"/><path class="cls-1" d="M420.1,158c0-.93-0.31-1.83-1.5-1.83a3.93,3.93,0,0,0-2.17.78l-0.5-.85a5.41,5.41,0,0,1,2.87-.94c1.79,0,2.54,1.19,2.54,3v4.47h-1l-0.1-.87h0a4,4,0,0,1-2.42,1.05,2,2,0,0,1-2.14-2.07C415.62,159.15,417,158.35,420.1,158Zm-2,3.81a3,3,0,0,0,2-1v-2c-2.44.3-3.27,0.9-3.27,1.83A1.12,1.12,0,0,0,418.11,161.82Z"/><path class="cls-1" d="M423.66,155.34h1l0.1,1.32h0a2.49,2.49,0,0,1,2.07-1.5,1.81,1.81,0,0,1,.78.15l-0.24,1.08a2,2,0,0,0-.71-0.12c-0.62,0-1.35.45-1.84,1.68v4.68h-1.23v-7.29Z"/><path class="cls-1" d="M429.22,162.37v-0.06a1.35,1.35,0,0,1-.65-1.19,1.71,1.71,0,0,1,.79-1.35v-0.06a2.57,2.57,0,0,1,1.8-4.56,2.91,2.91,0,0,1,1,.18h2.54v0.94h-1.5a2.11,2.11,0,0,1,.6,1.5,2.5,2.5,0,0,1-2.67,2.53,2.55,2.55,0,0,1-1.09-.25,1.1,1.1,0,0,0-.46.87c0,0.46.3,0.79,1.29,0.79h1.41c1.69,0,2.55.52,2.55,1.74s-1.42,2.52-3.69,2.52c-1.78,0-3-.71-3-2A2.1,2.1,0,0,1,429.22,162.37Zm2.13,2.76c1.39,0,2.31-.72,2.31-1.48s-0.53-.9-1.47-0.9h-1.26a3.56,3.56,0,0,1-.95-0.12,1.53,1.53,0,0,0-.75,1.23C429.24,164.64,430,165.13,431.35,165.13Zm1.36-7.38a1.55,1.55,0,1,0-3.09,0A1.56,1.56,0,1,0,432.72,157.75Z"/><path class="cls-1" d="M438.79,155.16c1.86,0,2.91,1.33,2.91,3.42a4.43,4.43,0,0,1,0,.67h-4.92a2.43,2.43,0,0,0,2.43,2.56,3.3,3.3,0,0,0,1.81-.57l0.44,0.81a4.34,4.34,0,0,1-2.4.75,3.49,3.49,0,0,1-3.49-3.81C435.52,156.61,437.13,155.16,438.79,155.16Zm1.83,3.28c0-1.48-.66-2.31-1.8-2.31a2.27,2.27,0,0,0-2.1,2.31h3.9Z"/><path class="cls-1" d="M446.53,151.95h1.23v2.91l0,1.32a3.6,3.6,0,0,1,2.28-1c1.89,0,2.89,1.46,2.89,3.71,0,2.49-1.48,3.94-3.15,3.94a3.3,3.3,0,0,1-2.08-.9h0l-0.11.72h-1V151.95Zm3,9.82c1.2,0,2.08-1.09,2.08-2.9,0-1.6-.54-2.68-1.92-2.68a3,3,0,0,0-2,1V161A2.85,2.85,0,0,0,449.55,161.77Z"/><path class="cls-1" d="M454.75,155.34H456v4.45c0,1.37.4,2,1.36,2a2.48,2.48,0,0,0,2-1.23v-5.17h1.23v7.29h-1l-0.11-1.14h0a3.08,3.08,0,0,1-2.4,1.32c-1.54,0-2.23-1-2.23-2.85v-4.62Z"/><path class="cls-1" d="M462.82,161a3.28,3.28,0,0,0,2.14.87,1.22,1.22,0,0,0,1.44-1.14c0-.75-0.87-1.08-1.67-1.38-1-.37-2.17-0.87-2.17-2.1s0.93-2.07,2.5-2.07a3.64,3.64,0,0,1,2.26.83l-0.58.78a2.71,2.71,0,0,0-1.67-.65,1.13,1.13,0,0,0-1.33,1c0,0.68.79,0.95,1.62,1.26,1,0.39,2.22.82,2.22,2.2,0,1.19-.95,2.18-2.67,2.18a4.39,4.39,0,0,1-2.71-1Z"/><path class="cls-1" d="M469.08,153a0.86,0.86,0,0,1,1.71,0A0.86,0.86,0,0,1,469.08,153Zm0.22,2.29h1.23v7.29H469.3v-7.29Z"/><path class="cls-1" d="M473,155.34h1l0.1,1h0a3.43,3.43,0,0,1,2.44-1.23c1.53,0,2.22,1,2.22,2.85v4.62H477.6v-4.45c0-1.37-.42-2-1.38-2a2.79,2.79,0,0,0-2,1.13v5.28H473v-7.29Z"/><path class="cls-1" d="M483.93,155.16c1.86,0,2.91,1.33,2.91,3.42a4.43,4.43,0,0,1,0,.67h-4.92a2.43,2.43,0,0,0,2.43,2.56,3.3,3.3,0,0,0,1.81-.57l0.44,0.81a4.34,4.34,0,0,1-2.4.75,3.49,3.49,0,0,1-3.49-3.81C480.66,156.61,482.26,155.16,483.93,155.16Zm1.83,3.28c0-1.48-.66-2.31-1.8-2.31a2.27,2.27,0,0,0-2.1,2.31h3.9Z"/><path class="cls-1" d="M488.44,161a3.28,3.28,0,0,0,2.14.87,1.22,1.22,0,0,0,1.44-1.14c0-.75-0.87-1.08-1.67-1.38-1-.37-2.17-0.87-2.17-2.1s0.93-2.07,2.5-2.07A3.64,3.64,0,0,1,493,156l-0.58.78a2.71,2.71,0,0,0-1.67-.65,1.13,1.13,0,0,0-1.33,1c0,0.68.79,0.95,1.62,1.26,1,0.39,2.22.82,2.22,2.2,0,1.19-.95,2.18-2.67,2.18a4.39,4.39,0,0,1-2.71-1Z"/><path class="cls-1" d="M494.73,161a3.28,3.28,0,0,0,2.14.87,1.22,1.22,0,0,0,1.44-1.14c0-.75-0.87-1.08-1.67-1.38-1-.37-2.17-0.87-2.17-2.1s0.93-2.07,2.5-2.07a3.64,3.64,0,0,1,2.26.83l-0.58.78a2.71,2.71,0,0,0-1.67-.65,1.13,1.13,0,0,0-1.33,1c0,0.68.79,0.95,1.62,1.26,1,0.39,2.22.82,2.22,2.2,0,1.19-.95,2.18-2.67,2.18a4.39,4.39,0,0,1-2.71-1Z"/><path class="cls-1" d="M507.21,155.16a3,3,0,0,1,2.13.87l-0.62.79a2.2,2.2,0,0,0-1.47-.65c-1.32,0-2.28,1.14-2.28,2.82s0.92,2.79,2.25,2.79a2.6,2.6,0,0,0,1.71-.73l0.55,0.81a3.61,3.61,0,0,1-2.37.95c-1.93,0-3.42-1.4-3.42-3.81A3.53,3.53,0,0,1,507.21,155.16Z"/><path class="cls-1" d="M513.6,155.16c1.79,0,3.38,1.4,3.38,3.84s-1.59,3.81-3.37,3.81-3.37-1.4-3.37-3.81S511.81,155.16,513.6,155.16Zm0,6.63c1.26,0,2.1-1.12,2.1-2.79s-0.84-2.82-2.1-2.82-2.1,1.14-2.1,2.82S512.35,161.79,513.6,161.79Z"/><path class="cls-1" d="M518.89,155.34h1l0.1,1h0a3.44,3.44,0,0,1,2.45-1.23c1.53,0,2.22,1,2.22,2.85v4.62H523.5v-4.45c0-1.37-.42-2-1.38-2a2.79,2.79,0,0,0-2,1.13v5.28h-1.23v-7.29Z"/><path class="cls-1" d="M526.9,161a3.28,3.28,0,0,0,2.14.87,1.22,1.22,0,0,0,1.44-1.14c0-.75-0.87-1.08-1.67-1.38-1-.37-2.17-0.87-2.17-2.1s0.93-2.07,2.5-2.07a3.64,3.64,0,0,1,2.26.83l-0.58.78a2.71,2.71,0,0,0-1.67-.65,1.13,1.13,0,0,0-1.33,1c0,0.68.79,0.95,1.62,1.26,1,0.39,2.22.82,2.22,2.2,0,1.19-.95,2.18-2.67,2.18a4.39,4.39,0,0,1-2.71-1Z"/><path class="cls-1" d="M533.28,155.34h1.25v4.45c0,1.37.4,2,1.36,2a2.48,2.48,0,0,0,2-1.23v-5.17h1.23v7.29h-1L538,161.49h0a3.08,3.08,0,0,1-2.4,1.32c-1.55,0-2.24-1-2.24-2.85v-4.62Z"/><path class="cls-1" d="M541.54,151.95h1.23v9.3c0,0.39.17,0.54,0.34,0.54a1,1,0,0,0,.27,0l0.17,0.93a1.66,1.66,0,0,1-.71.12c-0.93,0-1.31-.58-1.31-1.65v-9.21Z"/><path class="cls-1" d="M545.58,156.34H544.5v-0.93l1.14-.07,0.15-2h1v2h2v1h-2v4c0,0.9.29,1.41,1.13,1.41a2.66,2.66,0,0,0,.83-0.19l0.24,0.93a4.51,4.51,0,0,1-1.35.27c-1.56,0-2.08-1-2.08-2.43v-4Z"/><path class="cls-1" d="M554.29,158c0-.93-0.31-1.83-1.5-1.83a3.93,3.93,0,0,0-2.17.78l-0.5-.85a5.41,5.41,0,0,1,2.87-.94c1.79,0,2.54,1.19,2.54,3v4.47h-1l-0.1-.87h0a4,4,0,0,1-2.42,1.05,2,2,0,0,1-2.14-2.07C549.81,159.15,551.19,158.35,554.29,158Zm-2,3.81a3,3,0,0,0,2-1v-2c-2.44.3-3.27,0.9-3.27,1.83A1.12,1.12,0,0,0,552.3,161.82Z"/><path class="cls-1" d="M557.85,155.34h1l0.1,1h0a3.43,3.43,0,0,1,2.44-1.23c1.53,0,2.22,1,2.22,2.85v4.62h-1.23v-4.45c0-1.37-.42-2-1.38-2a2.79,2.79,0,0,0-2,1.13v5.28h-1.23v-7.29Z"/><path class="cls-1" d="M569,155.16a3,3,0,0,1,2.13.87l-0.62.79a2.2,2.2,0,0,0-1.47-.65c-1.32,0-2.28,1.14-2.28,2.82s0.92,2.79,2.25,2.79a2.6,2.6,0,0,0,1.71-.73l0.55,0.81a3.61,3.61,0,0,1-2.37.95c-1.93,0-3.42-1.4-3.42-3.81A3.53,3.53,0,0,1,569,155.16Z"/><path class="cls-1" d="M573,164.74a1.87,1.87,0,0,0,1.65-1.56l0.17-.54-2.92-7.3h1.28l1.48,4c0.23,0.63.48,1.38,0.71,2.05h0.06c0.21-.66.42-1.41,0.62-2.05l1.3-4h1.2l-2.75,7.89c-0.51,1.44-1.26,2.53-2.73,2.53a2.42,2.42,0,0,1-.85-0.15l0.24-1A2.14,2.14,0,0,0,573,164.74Z"/><path class="cls-1" d="M733.16,142.06a3,3,0,0,0,2.08,1c0.93,0,1.54-.4,1.54-1.12s-0.5-1.36-2.56-1.36V139c1.71,0,2.25-.51,2.25-1.27a1,1,0,0,0-1.17-1,2.65,2.65,0,0,0-1.79.84l-1.11-1.35a4.47,4.47,0,0,1,3-1.21c2,0,3.29.94,3.29,2.61a2.24,2.24,0,0,1-1.59,2.11v0.06A2.36,2.36,0,0,1,739,142c0,1.77-1.62,2.77-3.54,2.77a4.14,4.14,0,0,1-3.31-1.35Z"/><path class="cls-1" d="M742,142a1.39,1.39,0,1,1-1.33,1.39A1.33,1.33,0,0,1,742,142Z"/><path class="cls-1" d="M751.22,137.16a3,3,0,0,1,2,.84l-0.06-1.24v-2.81h1.25v10.68h-1l-0.11-.85h0a3.29,3.29,0,0,1-2.21,1c-1.83,0-3-1.38-3-3.81S749.56,137.16,751.22,137.16Zm0.12,6.61a2.47,2.47,0,0,0,1.86-1V139a2.54,2.54,0,0,0-1.77-.76c-1.17,0-2.1,1.13-2.1,2.79S750.07,143.77,751.34,143.77Z"/><path class="cls-1" d="M759.64,137.16c1.86,0,2.91,1.33,2.91,3.42a4.43,4.43,0,0,1,0,.67h-4.92a2.43,2.43,0,0,0,2.43,2.56,3.3,3.3,0,0,0,1.81-.57l0.44,0.81a4.34,4.34,0,0,1-2.4.75,3.49,3.49,0,0,1-3.49-3.81C756.37,138.61,758,137.16,759.64,137.16Zm1.83,3.28c0-1.48-.66-2.31-1.8-2.31a2.27,2.27,0,0,0-2.1,2.31h3.9Z"/><path class="cls-1" d="M764.15,143a3.28,3.28,0,0,0,2.14.87,1.22,1.22,0,0,0,1.44-1.14c0-.75-0.87-1.08-1.67-1.38-1-.37-2.17-0.87-2.17-2.1s0.93-2.07,2.5-2.07a3.64,3.64,0,0,1,2.26.83l-0.58.78a2.71,2.71,0,0,0-1.67-.65,1.13,1.13,0,0,0-1.33,1c0,0.68.79,0.95,1.62,1.26,1,0.39,2.22.82,2.22,2.2,0,1.19-.95,2.18-2.67,2.18a4.39,4.39,0,0,1-2.71-1Z"/><path class="cls-1" d="M770.41,135a0.86,0.86,0,0,1,1.71,0A0.86,0.86,0,0,1,770.41,135Zm0.22,2.29h1.23v7.29h-1.23v-7.29Z"/><path class="cls-1" d="M774.83,144.37v-0.06a1.35,1.35,0,0,1-.65-1.19,1.71,1.71,0,0,1,.79-1.35v-0.06a2.57,2.57,0,0,1,1.8-4.56,2.91,2.91,0,0,1,1,.18h2.54v0.94h-1.5a2.11,2.11,0,0,1,.6,1.5,2.5,2.5,0,0,1-2.67,2.53,2.55,2.55,0,0,1-1.09-.25,1.1,1.1,0,0,0-.46.87c0,0.46.3,0.79,1.29,0.79h1.41c1.69,0,2.55.52,2.55,1.74S779,148,776.78,148c-1.78,0-3-.71-3-2A2.1,2.1,0,0,1,774.83,144.37Zm2.13,2.76c1.39,0,2.31-.72,2.31-1.48s-0.53-.9-1.47-0.9h-1.26a3.56,3.56,0,0,1-.95-0.12,1.53,1.53,0,0,0-.75,1.23C774.85,146.64,775.64,147.13,777,147.13Zm1.36-7.38a1.55,1.55,0,1,0-3.09,0A1.56,1.56,0,1,0,778.33,139.75Z"/><path class="cls-1" d="M781.88,137.34h1l0.1,1h0a3.43,3.43,0,0,1,2.44-1.23c1.53,0,2.22,1,2.22,2.85v4.62h-1.23v-4.45c0-1.37-.42-2-1.38-2a2.79,2.79,0,0,0-2,1.13v5.28h-1.23v-7.29Z"/><path class="cls-1" d="M796.4,135a2.05,2.05,0,0,0-.83-0.18c-0.69,0-1,.48-1,1.41v1.16h1.54v1h-1.54v6.28h-1.23v-6.28h-1v-0.93l1-.07v-1.16c0-1.48.67-2.41,2.13-2.41a3.31,3.31,0,0,1,1.21.24Z"/><path class="cls-1" d="M797.27,135a0.86,0.86,0,0,1,1.71,0A0.86,0.86,0,0,1,797.27,135Zm0.22,2.29h1.23v7.29H797.5v-7.29Z"/><path class="cls-1" d="M801.19,137.34h1l0.1,1.32h0a2.49,2.49,0,0,1,2.07-1.5,1.81,1.81,0,0,1,.78.15L805,138.39a2,2,0,0,0-.71-0.12c-0.62,0-1.35.45-1.84,1.68v4.68h-1.23v-7.29Z"/><path class="cls-1" d="M806.39,137.34h1l0.1,1h0a3.2,3.2,0,0,1,2.26-1.23,1.91,1.91,0,0,1,2,1.4,3.44,3.44,0,0,1,2.4-1.4c1.5,0,2.22,1,2.22,2.85v4.62h-1.23v-4.45c0-1.37-.43-2-1.35-2a2.67,2.67,0,0,0-1.83,1.13v5.28h-1.23v-4.45c0-1.37-.43-2-1.36-2a2.73,2.73,0,0,0-1.83,1.13v5.28h-1.23v-7.29Z"/><path class="cls-1" d="M821,137.34h1.26l1.08,4.21c0.17,0.69.3,1.35,0.43,2h0.06c0.16-.68.31-1.35,0.49-2l1.13-4.21h1.2l1.14,4.21c0.18,0.69.35,1.35,0.51,2h0.06c0.17-.68.3-1.33,0.45-2l1.06-4.21H831l-1.95,7.29h-1.5l-1-3.92c-0.18-.69-0.32-1.36-0.5-2.1H826c-0.17.73-.31,1.42-0.51,2.11l-1,3.9H823Z"/><path class="cls-1" d="M835.4,137.16c1.79,0,3.38,1.4,3.38,3.84s-1.59,3.81-3.37,3.81S832,143.41,832,141,833.62,137.16,835.4,137.16Zm0,6.63c1.26,0,2.1-1.12,2.1-2.79s-0.84-2.82-2.1-2.82-2.1,1.14-2.1,2.82S834.16,143.79,835.4,143.79Z"/><path class="cls-1" d="M840.7,137.34h1l0.1,1.32h0a2.49,2.49,0,0,1,2.07-1.5,1.81,1.81,0,0,1,.78.15l-0.24,1.08a2,2,0,0,0-.71-0.12c-0.62,0-1.35.45-1.84,1.68v4.68H840.7v-7.29Z"/><path class="cls-1" d="M845.9,133.95h1.22v7.23h0l3.1-3.84h1.37l-2.45,2.92,2.78,4.36h-1.35l-2.13-3.51-1.36,1.59v1.92H845.9V133.95Z"/><path class="cls-1" d="M853.1,135a0.86,0.86,0,0,1,1.71,0A0.86,0.86,0,0,1,853.1,135Zm0.22,2.29h1.23v7.29h-1.23v-7.29Z"/><path class="cls-1" d="M857,137.34h1l0.1,1h0a3.44,3.44,0,0,1,2.45-1.23c1.53,0,2.22,1,2.22,2.85v4.62h-1.23v-4.45c0-1.37-.42-2-1.38-2a2.79,2.79,0,0,0-2,1.13v5.28H857v-7.29Z"/><path class="cls-1" d="M865.73,144.37v-0.06a1.35,1.35,0,0,1-.65-1.19,1.71,1.71,0,0,1,.79-1.35v-0.06a2.57,2.57,0,0,1,1.8-4.56,2.91,2.91,0,0,1,1,.18h2.54v0.94h-1.5a2.11,2.11,0,0,1,.6,1.5,2.5,2.5,0,0,1-2.67,2.53,2.55,2.55,0,0,1-1.09-.25,1.1,1.1,0,0,0-.46.87c0,0.46.3,0.79,1.29,0.79h1.41c1.69,0,2.55.52,2.55,1.74s-1.42,2.52-3.69,2.52c-1.78,0-3-.71-3-2A2.1,2.1,0,0,1,865.73,144.37Zm2.13,2.76c1.39,0,2.31-.72,2.31-1.48s-0.53-.9-1.47-0.9h-1.26a3.56,3.56,0,0,1-.95-0.12,1.53,1.53,0,0,0-.75,1.23C865.75,146.64,866.54,147.13,867.86,147.13Zm1.36-7.38a1.55,1.55,0,1,0-3.09,0A1.56,1.56,0,1,0,869.23,139.75Z"/><path class="cls-1" d="M879.1,135a2.05,2.05,0,0,0-.83-0.18c-0.69,0-1,.48-1,1.41v1.16h1.54v1h-1.54v6.28H876v-6.28h-1v-0.93l1-.07v-1.16c0-1.48.67-2.41,2.13-2.41a3.31,3.31,0,0,1,1.21.24Z"/><path class="cls-1" d="M882.88,137.16c1.79,0,3.38,1.4,3.38,3.84s-1.59,3.81-3.37,3.81-3.37-1.4-3.37-3.81S881.09,137.16,882.88,137.16Zm0,6.63c1.26,0,2.1-1.12,2.1-2.79s-0.84-2.82-2.1-2.82-2.1,1.14-2.1,2.82S881.63,143.79,882.88,143.79Z"/><path class="cls-1" d="M888.17,137.34h1l0.1,1.32h0a2.49,2.49,0,0,1,2.07-1.5,1.81,1.81,0,0,1,.78.15L892,138.39a2,2,0,0,0-.71-0.12c-0.62,0-1.35.45-1.84,1.68v4.68h-1.23v-7.29Z"/><path class="cls-1" d="M896.41,133.95h1.23v9.3c0,0.39.17,0.54,0.34,0.54a1,1,0,0,0,.27,0l0.17,0.93a1.66,1.66,0,0,1-.71.12c-0.93,0-1.31-.58-1.31-1.65v-9.21Z"/><path class="cls-1" d="M904.36,140c0-.93-0.31-1.83-1.5-1.83a3.93,3.93,0,0,0-2.17.78l-0.5-.85a5.41,5.41,0,0,1,2.87-.94c1.79,0,2.54,1.19,2.54,3v4.47h-1l-0.1-.87h0a4,4,0,0,1-2.42,1.05,2,2,0,0,1-2.14-2.07C899.87,141.15,901.25,140.35,904.36,140Zm-2,3.81a3,3,0,0,0,2-1v-2c-2.44.3-3.27,0.9-3.27,1.83A1.12,1.12,0,0,0,902.36,143.82Z"/><path class="cls-1" d="M907.91,137.34h1l0.1,1.32h0a2.49,2.49,0,0,1,2.07-1.5,1.81,1.81,0,0,1,.78.15l-0.24,1.08a2,2,0,0,0-.71-0.12c-0.62,0-1.35.45-1.84,1.68v4.68h-1.23v-7.29Z"/><path class="cls-1" d="M913.48,144.37v-0.06a1.35,1.35,0,0,1-.65-1.19,1.71,1.71,0,0,1,.79-1.35v-0.06a2.57,2.57,0,0,1,1.8-4.56,2.91,2.91,0,0,1,1,.18H919v0.94h-1.5a2.11,2.11,0,0,1,.6,1.5,2.5,2.5,0,0,1-2.67,2.53,2.55,2.55,0,0,1-1.09-.25,1.1,1.1,0,0,0-.46.87c0,0.46.3,0.79,1.29,0.79h1.41c1.69,0,2.55.52,2.55,1.74s-1.42,2.52-3.69,2.52c-1.78,0-3-.71-3-2A2.1,2.1,0,0,1,913.48,144.37Zm2.13,2.76c1.39,0,2.31-.72,2.31-1.48s-0.53-.9-1.47-0.9h-1.26a3.56,3.56,0,0,1-.95-0.12,1.53,1.53,0,0,0-.75,1.23C913.49,146.64,914.29,147.13,915.61,147.13Zm1.36-7.38a1.55,1.55,0,1,0-3.09,0A1.56,1.56,0,1,0,917,139.75Z"/><path class="cls-1" d="M923,137.16c1.86,0,2.91,1.33,2.91,3.42a4.43,4.43,0,0,1,0,.67H921a2.43,2.43,0,0,0,2.43,2.56,3.3,3.3,0,0,0,1.81-.57l0.44,0.81a4.34,4.34,0,0,1-2.4.75,3.49,3.49,0,0,1-3.49-3.81C919.78,138.61,921.38,137.16,923,137.16Zm1.83,3.28c0-1.48-.66-2.31-1.8-2.31a2.27,2.27,0,0,0-2.1,2.31h3.9Z"/><path class="cls-1" d="M763.67,151.95h1.23v2.91l0,1.32a3.6,3.6,0,0,1,2.28-1c1.89,0,2.89,1.46,2.89,3.71,0,2.49-1.48,3.94-3.15,3.94a3.3,3.3,0,0,1-2.08-.9h0l-0.11.72h-1V151.95Zm3,9.82c1.2,0,2.08-1.09,2.08-2.9,0-1.6-.54-2.68-1.92-2.68a3,3,0,0,0-2,1V161A2.85,2.85,0,0,0,766.69,161.77Z"/><path class="cls-1" d="M771.89,155.34h1.25v4.45c0,1.37.4,2,1.36,2a2.48,2.48,0,0,0,2-1.23v-5.17h1.23v7.29h-1l-0.11-1.14h0a3.08,3.08,0,0,1-2.4,1.32c-1.55,0-2.24-1-2.24-2.85v-4.62Z"/><path class="cls-1" d="M780,161a3.28,3.28,0,0,0,2.14.87,1.22,1.22,0,0,0,1.44-1.14c0-.75-0.87-1.08-1.67-1.38-1-.37-2.17-0.87-2.17-2.1s0.93-2.07,2.5-2.07a3.64,3.64,0,0,1,2.26.83l-0.58.78a2.71,2.71,0,0,0-1.67-.65,1.13,1.13,0,0,0-1.33,1c0,0.68.79,0.95,1.62,1.26,1,0.39,2.22.82,2.22,2.2,0,1.19-.95,2.18-2.67,2.18a4.39,4.39,0,0,1-2.71-1Z"/><path class="cls-1" d="M786.22,153a0.86,0.86,0,0,1,1.71,0A0.86,0.86,0,0,1,786.22,153Zm0.22,2.29h1.23v7.29h-1.23v-7.29Z"/><path class="cls-1" d="M790.13,155.34h1l0.1,1h0a3.44,3.44,0,0,1,2.45-1.23c1.53,0,2.22,1,2.22,2.85v4.62h-1.23v-4.45c0-1.37-.42-2-1.38-2a2.79,2.79,0,0,0-2,1.13v5.28h-1.23v-7.29Z"/><path class="cls-1" d="M801.07,155.16c1.86,0,2.91,1.33,2.91,3.42a4.43,4.43,0,0,1,0,.67H799a2.43,2.43,0,0,0,2.43,2.56,3.3,3.3,0,0,0,1.81-.57l0.44,0.81a4.34,4.34,0,0,1-2.4.75A3.49,3.49,0,0,1,797.8,159C797.8,156.61,799.4,155.16,801.07,155.16Zm1.83,3.28c0-1.48-.66-2.31-1.8-2.31a2.27,2.27,0,0,0-2.1,2.31h3.9Z"/><path class="cls-1" d="M805.58,161a3.28,3.28,0,0,0,2.14.87,1.22,1.22,0,0,0,1.44-1.14c0-.75-0.87-1.08-1.67-1.38-1-.37-2.17-0.87-2.17-2.1s0.93-2.07,2.5-2.07a3.64,3.64,0,0,1,2.26.83l-0.58.78a2.71,2.71,0,0,0-1.67-.65,1.13,1.13,0,0,0-1.33,1c0,0.68.79,0.95,1.62,1.26,1,0.39,2.22.82,2.22,2.2,0,1.19-.95,2.18-2.67,2.18a4.39,4.39,0,0,1-2.71-1Z"/><path class="cls-1" d="M811.87,161a3.28,3.28,0,0,0,2.14.87,1.22,1.22,0,0,0,1.44-1.14c0-.75-0.87-1.08-1.67-1.38-1-.37-2.17-0.87-2.17-2.1s0.93-2.07,2.5-2.07a3.64,3.64,0,0,1,2.26.83l-0.58.78a2.71,2.71,0,0,0-1.67-.65,1.13,1.13,0,0,0-1.33,1c0,0.68.79,0.95,1.62,1.26,1,0.39,2.22.82,2.22,2.2,0,1.19-.95,2.18-2.67,2.18a4.39,4.39,0,0,1-2.71-1Z"/><path class="cls-1" d="M824.35,155.16a3,3,0,0,1,2.13.87l-0.62.79a2.2,2.2,0,0,0-1.47-.65c-1.32,0-2.28,1.14-2.28,2.82s0.92,2.79,2.25,2.79a2.6,2.6,0,0,0,1.71-.73l0.55,0.81a3.61,3.61,0,0,1-2.37.95c-1.93,0-3.42-1.4-3.42-3.81A3.53,3.53,0,0,1,824.35,155.16Z"/><path class="cls-1" d="M830.74,155.16c1.79,0,3.38,1.4,3.38,3.84s-1.59,3.81-3.37,3.81-3.37-1.4-3.37-3.81S829,155.16,830.74,155.16Zm0,6.63c1.26,0,2.1-1.12,2.1-2.79s-0.84-2.82-2.1-2.82-2.1,1.14-2.1,2.82S829.49,161.79,830.74,161.79Z"/><path class="cls-1" d="M836,155.34h1l0.1,1h0a3.43,3.43,0,0,1,2.44-1.23c1.53,0,2.22,1,2.22,2.85v4.62h-1.23v-4.45c0-1.37-.42-2-1.38-2a2.79,2.79,0,0,0-2,1.13v5.28H836v-7.29Z"/><path class="cls-1" d="M844,161a3.28,3.28,0,0,0,2.14.87,1.22,1.22,0,0,0,1.44-1.14c0-.75-0.87-1.08-1.67-1.38-1-.37-2.17-0.87-2.17-2.1s0.93-2.07,2.5-2.07a3.64,3.64,0,0,1,2.26.83l-0.58.78a2.71,2.71,0,0,0-1.67-.65,1.13,1.13,0,0,0-1.33,1c0,0.68.79,0.95,1.62,1.26,1,0.39,2.22.82,2.22,2.2,0,1.19-.95,2.18-2.67,2.18a4.39,4.39,0,0,1-2.71-1Z"/><path class="cls-1" d="M850.42,155.34h1.25v4.45c0,1.37.4,2,1.36,2a2.48,2.48,0,0,0,2-1.23v-5.17h1.23v7.29h-1l-0.11-1.14h0a3.08,3.08,0,0,1-2.4,1.32c-1.54,0-2.23-1-2.23-2.85v-4.62Z"/><path class="cls-1" d="M858.68,151.95h1.23v9.3c0,0.39.17,0.54,0.34,0.54a1,1,0,0,0,.27,0l0.17,0.93a1.66,1.66,0,0,1-.71.12c-0.93,0-1.31-.58-1.31-1.65v-9.21Z"/><path class="cls-1" d="M862.72,156.34h-1.08v-0.93l1.14-.07,0.15-2h1v2h2v1h-2v4c0,0.9.29,1.41,1.13,1.41a2.66,2.66,0,0,0,.83-0.19l0.24,0.93a4.51,4.51,0,0,1-1.35.27c-1.56,0-2.08-1-2.08-2.43v-4Z"/><path class="cls-1" d="M871.43,158c0-.93-0.31-1.83-1.5-1.83a3.93,3.93,0,0,0-2.17.78l-0.5-.85a5.41,5.41,0,0,1,2.87-.94c1.79,0,2.54,1.19,2.54,3v4.47h-1l-0.1-.87h0a4,4,0,0,1-2.42,1.05,2,2,0,0,1-2.14-2.07C866.95,159.15,868.33,158.35,871.43,158Zm-2,3.81a3,3,0,0,0,2-1v-2c-2.44.3-3.27,0.9-3.27,1.83A1.12,1.12,0,0,0,869.44,161.82Z"/><path class="cls-1" d="M875,155.34h1l0.1,1h0a3.44,3.44,0,0,1,2.45-1.23c1.53,0,2.22,1,2.22,2.85v4.62h-1.23v-4.45c0-1.37-.42-2-1.38-2a2.79,2.79,0,0,0-2,1.13v5.28H875v-7.29Z"/><path class="cls-1" d="M886.16,155.16a3,3,0,0,1,2.13.87l-0.62.79a2.2,2.2,0,0,0-1.47-.65c-1.32,0-2.28,1.14-2.28,2.82s0.92,2.79,2.25,2.79a2.6,2.6,0,0,0,1.71-.73l0.55,0.81a3.61,3.61,0,0,1-2.37.95c-1.93,0-3.42-1.4-3.42-3.81A3.53,3.53,0,0,1,886.16,155.16Z"/><path class="cls-1" d="M890.18,164.74a1.87,1.87,0,0,0,1.65-1.56l0.17-.54-2.92-7.3h1.28l1.48,4c0.23,0.63.48,1.38,0.71,2.05h0.06c0.21-.66.42-1.41,0.61-2.05l1.31-4h1.2L893,163.23c-0.51,1.44-1.26,2.53-2.73,2.53a2.42,2.42,0,0,1-.85-0.15l0.24-1A2.14,2.14,0,0,0,890.18,164.74Z"/><path class="cls-2" d="M716.35,79.27a12.08,12.08,0,1,1,12.08-12.08A12.1,12.1,0,0,1,716.35,79.27Zm0-22.6a10.52,10.52,0,1,0,10.52,10.52A10.53,10.53,0,0,0,716.35,56.67Z"/><circle class="cls-3" cx="791.56" cy="67.19" r="35.84"/><circle class="cls-4" cx="901.89" cy="67.19" r="48.35"/><polygon class="cls-1" points="487.58 70.34 487.06 69.76 489.93 67.19 487.14 64.52 487.69 63.95 491.07 67.2 487.58 70.34"/><polygon class="cls-1" points="148.52 70.34 148 69.76 150.87 67.19 148.08 64.52 148.63 63.95 152.01 67.2 148.52 70.34"/><path class="cls-2" d="M419.24,79.27a12.08,12.08,0,1,1,12.08-12.08A12.1,12.1,0,0,1,419.24,79.27Zm0-22.6a10.52,10.52,0,1,0,10.52,10.52A10.53,10.53,0,0,0,419.24,56.67Z"/><circle class="cls-3" cx="431.69" cy="67.19" r="35.84"/><circle class="cls-4" cx="557.65" cy="67.19" r="48.35"/><path class="cls-2" d="M117.06,79.27a12.08,12.08,0,1,1,12.08-12.08A12.1,12.1,0,0,1,117.06,79.27Zm0-22.6a10.52,10.52,0,1,0,10.52,10.52A10.53,10.53,0,0,0,117.06,56.67Z"/><circle class="cls-4" cx="221.08" cy="67.19" r="48.35"/><rect class="cls-2" x="24.88" y="330.22" width="19.28" height="1.56"/><line class="cls-5" x1="44.16" y1="354.16" x2="24.88" y2="354.16"/><line class="cls-3" x1="44.16" y1="377.31" x2="24.88" y2="377.31"/><line class="cls-6" x1="44.16" y1="400.47" x2="24.88" y2="400.47"/><path class="cls-1" d="M602.57,319.26a3.06,3.06,0,0,0,2.05.94,1.41,1.41,0,0,0,1.61-1.48,1.37,1.37,0,0,0-1.5-1.47,2.25,2.25,0,0,0-1.41.48l-1-.63,0.27-4.81H608v1.86h-3.5l-0.17,1.78a2.39,2.39,0,0,1,1.07-.23,2.79,2.79,0,0,1,3,3,3.29,3.29,0,0,1-3.5,3.33,4.52,4.52,0,0,1-3.36-1.33Z"/><path class="cls-1" d="M611.41,319.22a1.39,1.39,0,1,1-1.33,1.4A1.33,1.33,0,0,1,611.41,319.22Z"/><path class="cls-1" d="M622,311.79a3.83,3.83,0,0,1,2.82,1.21l-0.72.79a2.68,2.68,0,0,0-2.08-.92c-2,0-3.27,1.53-3.27,4s1.17,4,3.27,4a2.74,2.74,0,0,0,1.79-.58v-2.56h-2.08v-1h3.22v4.14a4.42,4.42,0,0,1-3.06,1.14c-2.58,0-4.42-1.89-4.42-5.1S619.33,311.79,622,311.79Z"/><path class="cls-1" d="M627.17,312h2.46c3,0,4.65,1.75,4.65,4.87s-1.62,5-4.59,5h-2.52V312Zm2.37,8.82c2.31,0,3.45-1.46,3.45-3.94s-1.14-3.85-3.45-3.85h-1.11v7.8h1.11Z"/><path class="cls-1" d="M636.4,319.67a3.83,3.83,0,0,0,2.71,1.23c1.29,0,2.06-.65,2.06-1.6s-0.72-1.32-1.65-1.74l-1.41-.62a2.78,2.78,0,0,1-2-2.53c0-1.5,1.32-2.61,3.1-2.61a4,4,0,0,1,2.89,1.21l-0.66.81a3.16,3.16,0,0,0-2.23-.93c-1.11,0-1.84.56-1.84,1.44s0.87,1.31,1.63,1.64l1.41,0.6a2.74,2.74,0,0,1,2,2.63c0,1.56-1.29,2.81-3.36,2.81a4.74,4.74,0,0,1-3.44-1.46Z"/><path class="cls-1" d="M647.45,315.53h-1.08V314.6l1.14-.07,0.15-2h1v2h2v1h-2v4c0,0.9.29,1.41,1.13,1.41a2.66,2.66,0,0,0,.83-0.19l0.24,0.93a4.51,4.51,0,0,1-1.35.27c-1.56,0-2.08-1-2.08-2.43v-4Z"/><path class="cls-1" d="M654.89,314.34c1.86,0,2.91,1.33,2.91,3.42a4.43,4.43,0,0,1,0,.67h-4.92a2.43,2.43,0,0,0,2.43,2.56,3.3,3.3,0,0,0,1.81-.57l0.44,0.81a4.34,4.34,0,0,1-2.4.75,3.49,3.49,0,0,1-3.49-3.81C651.62,315.8,653.23,314.34,654.89,314.34Zm1.83,3.28c0-1.48-.66-2.31-1.8-2.31a2.27,2.27,0,0,0-2.1,2.31h3.9Z"/><path class="cls-1" d="M663.52,317.19c0-.93-0.31-1.83-1.5-1.83a3.93,3.93,0,0,0-2.17.78l-0.5-.85a5.42,5.42,0,0,1,2.87-.94c1.79,0,2.54,1.19,2.54,3v4.47h-1l-0.1-.87h0a4,4,0,0,1-2.42,1.05,2,2,0,0,1-2.14-2.07C659,318.33,660.41,317.54,663.52,317.19Zm-2,3.81a3,3,0,0,0,2-1v-2c-2.44.3-3.27,0.9-3.27,1.83A1.12,1.12,0,0,0,661.52,321Z"/><path class="cls-1" d="M667.07,314.52h1l0.1,1h0a3.2,3.2,0,0,1,2.26-1.23,1.91,1.91,0,0,1,2,1.4,3.44,3.44,0,0,1,2.4-1.4c1.5,0,2.22,1,2.22,2.85v4.62h-1.23v-4.45c0-1.37-.43-2-1.35-2a2.67,2.67,0,0,0-1.83,1.13v5.28H671.5v-4.45c0-1.37-.43-2-1.36-2a2.73,2.73,0,0,0-1.83,1.13v5.28h-1.23v-7.29Z"/><path class="cls-1" d="M681.67,314.52h1.26l1.08,4.21c0.17,0.69.3,1.35,0.43,2h0.06c0.16-.68.31-1.35,0.49-2l1.13-4.21h1.2l1.14,4.21c0.18,0.69.35,1.35,0.51,2H689c0.17-.68.3-1.33,0.45-2l1.06-4.21h1.17l-1.95,7.29h-1.5l-1-3.92c-0.18-.69-0.32-1.36-0.5-2.1h-0.06c-0.17.73-.31,1.42-0.51,2.11l-1,3.9h-1.44Z"/><path class="cls-1" d="M696.08,314.34c1.79,0,3.38,1.4,3.38,3.84s-1.59,3.81-3.37,3.81-3.37-1.4-3.37-3.81S694.3,314.34,696.08,314.34Zm0,6.63c1.26,0,2.1-1.12,2.1-2.79s-0.84-2.82-2.1-2.82-2.1,1.14-2.1,2.82S694.84,321,696.08,321Z"/><path class="cls-1" d="M701.37,314.52h1l0.1,1.32h0a2.49,2.49,0,0,1,2.07-1.5,1.81,1.81,0,0,1,.78.15l-0.24,1.08a2,2,0,0,0-.71-0.12c-0.62,0-1.35.45-1.84,1.68v4.68h-1.23v-7.29Z"/><path class="cls-1" d="M706.58,311.13h1.22v7.23h0l3.1-3.84h1.37l-2.45,2.92,2.78,4.36h-1.35l-2.13-3.51-1.36,1.59v1.92h-1.22V311.13Z"/><path class="cls-1" d="M713.78,312.23a0.86,0.86,0,0,1,1.71,0A0.86,0.86,0,0,1,713.78,312.23Zm0.22,2.29h1.23v7.29H714v-7.29Z"/><path class="cls-1" d="M717.69,314.52h1l0.1,1h0a3.43,3.43,0,0,1,2.44-1.23c1.53,0,2.22,1,2.22,2.85v4.62H722.3v-4.45c0-1.37-.42-2-1.38-2a2.79,2.79,0,0,0-2,1.13v5.28h-1.23v-7.29Z"/><path class="cls-1" d="M726.41,321.56V321.5a1.35,1.35,0,0,1-.65-1.19,1.71,1.71,0,0,1,.79-1.35V318.9a2.57,2.57,0,0,1,1.8-4.56,2.91,2.91,0,0,1,1,.18h2.54v0.94h-1.5a2.11,2.11,0,0,1,.6,1.5,2.5,2.5,0,0,1-2.67,2.53,2.55,2.55,0,0,1-1.09-.25,1.1,1.1,0,0,0-.46.87c0,0.46.3,0.79,1.29,0.79h1.41c1.69,0,2.55.52,2.55,1.74s-1.42,2.52-3.69,2.52c-1.78,0-3-.71-3-2A2.1,2.1,0,0,1,726.41,321.56Zm2.13,2.76c1.39,0,2.31-.72,2.31-1.48s-0.53-.9-1.47-0.9h-1.26a3.56,3.56,0,0,1-.95-0.12,1.53,1.53,0,0,0-.75,1.23C726.42,323.82,727.22,324.32,728.54,324.32Zm1.36-7.38a1.55,1.55,0,1,0-3.09,0A1.56,1.56,0,1,0,729.9,316.94Z"/><path class="cls-1" d="M739.77,312.14a2.05,2.05,0,0,0-.83-0.18c-0.69,0-1,.48-1,1.41v1.16h1.54v1h-1.54v6.28H736.7v-6.28h-1V314.6l1-.07v-1.16c0-1.48.68-2.41,2.13-2.41a3.31,3.31,0,0,1,1.21.24Z"/><path class="cls-1" d="M743.55,314.34c1.79,0,3.38,1.4,3.38,3.84s-1.59,3.81-3.37,3.81-3.37-1.4-3.37-3.81S741.77,314.34,743.55,314.34Zm0,6.63c1.26,0,2.1-1.12,2.1-2.79s-0.84-2.82-2.1-2.82-2.1,1.14-2.1,2.82S742.31,321,743.55,321Z"/><path class="cls-1" d="M748.85,314.52h1l0.1,1.32h0a2.49,2.49,0,0,1,2.07-1.5,1.81,1.81,0,0,1,.78.15l-0.24,1.08a2,2,0,0,0-.71-0.12c-0.62,0-1.35.45-1.84,1.68v4.68h-1.23v-7.29Z"/><path class="cls-1" d="M629.49,330h1.26v5.8c0,2.37,1,3.12,2.28,3.12s2.34-.75,2.34-3.12V330h1.2v5.77c0,3.17-1.53,4.25-3.54,4.25s-3.54-1.08-3.54-4.25V330Z"/><path class="cls-1" d="M639.13,330h1.26v4.93h0l4.09-4.93h1.42l-3.09,3.75,3.56,6.09H645l-2.94-5.11-1.68,2v3.12h-1.26V330Z"/><path class="cls-1" d="M651.21,339.56V339.5a1.35,1.35,0,0,1-.65-1.19,1.71,1.71,0,0,1,.79-1.35V336.9a2.57,2.57,0,0,1,1.8-4.56,2.91,2.91,0,0,1,1,.18h2.54v0.94h-1.5a2.11,2.11,0,0,1,.6,1.5,2.5,2.5,0,0,1-2.67,2.53,2.55,2.55,0,0,1-1.09-.25,1.1,1.1,0,0,0-.46.87c0,0.46.3,0.79,1.29,0.79h1.41c1.69,0,2.55.52,2.55,1.74s-1.42,2.52-3.69,2.52c-1.78,0-3-.71-3-2A2.1,2.1,0,0,1,651.21,339.56Zm2.13,2.76c1.39,0,2.31-.72,2.31-1.48s-0.53-.9-1.47-0.9h-1.26a3.56,3.56,0,0,1-.95-0.12,1.53,1.53,0,0,0-.75,1.23C651.22,341.82,652,342.32,653.34,342.32Zm1.36-7.38a1.55,1.55,0,1,0-3.09,0A1.56,1.56,0,1,0,654.7,334.94Z"/><path class="cls-1" d="M660.88,332.34c1.79,0,3.38,1.4,3.38,3.84s-1.59,3.81-3.37,3.81-3.37-1.4-3.37-3.81S659.1,332.34,660.88,332.34Zm0,6.63c1.26,0,2.1-1.12,2.1-2.79s-0.84-2.82-2.1-2.82-2.1,1.14-2.1,2.82S659.64,339,660.88,339Z"/><path class="cls-1" d="M665.07,332.52h1.28l1.38,4.14c0.21,0.72.45,1.46,0.67,2.15h0.06c0.21-.69.45-1.42,0.66-2.15l1.38-4.14h1.22l-2.58,7.29h-1.44Z"/><path class="cls-1" d="M675.79,332.34c1.86,0,2.91,1.33,2.91,3.42a4.43,4.43,0,0,1,0,.67h-4.92a2.43,2.43,0,0,0,2.43,2.56,3.3,3.3,0,0,0,1.81-.57l0.44,0.81a4.34,4.34,0,0,1-2.4.75,3.49,3.49,0,0,1-3.49-3.81C672.52,333.8,674.13,332.34,675.79,332.34Zm1.83,3.28c0-1.48-.66-2.31-1.8-2.31a2.27,2.27,0,0,0-2.1,2.31h3.9Z"/><path class="cls-1" d="M680.5,332.52h1l0.1,1.32h0a2.49,2.49,0,0,1,2.07-1.5,1.81,1.81,0,0,1,.78.15l-0.24,1.08a2,2,0,0,0-.71-0.12c-0.62,0-1.35.45-1.84,1.68v4.68H680.5v-7.29Z"/><path class="cls-1" d="M685.71,332.52h1l0.1,1h0a3.44,3.44,0,0,1,2.45-1.23c1.53,0,2.22,1,2.22,2.85v4.62h-1.23v-4.45c0-1.37-.42-2-1.38-2a2.79,2.79,0,0,0-2,1.13v5.28h-1.23v-7.29Z"/><path class="cls-1" d="M693.91,332.52h1l0.1,1h0a3.21,3.21,0,0,1,2.27-1.23,1.91,1.91,0,0,1,2,1.4,3.44,3.44,0,0,1,2.4-1.4c1.5,0,2.22,1,2.22,2.85v4.62h-1.23v-4.45c0-1.37-.43-2-1.35-2a2.67,2.67,0,0,0-1.83,1.13v5.28h-1.23v-4.45c0-1.37-.43-2-1.36-2a2.73,2.73,0,0,0-1.83,1.13v5.28h-1.23v-7.29Z"/><path class="cls-1" d="M709.08,332.34c1.86,0,2.91,1.33,2.91,3.42a4.43,4.43,0,0,1,0,.67H707a2.43,2.43,0,0,0,2.43,2.56,3.3,3.3,0,0,0,1.81-.57l0.44,0.81a4.34,4.34,0,0,1-2.4.75,3.49,3.49,0,0,1-3.49-3.81C705.81,333.8,707.41,332.34,709.08,332.34Zm1.83,3.28c0-1.48-.66-2.31-1.8-2.31a2.27,2.27,0,0,0-2.1,2.31h3.9Z"/><path class="cls-1" d="M713.79,332.52h1l0.1,1h0a3.43,3.43,0,0,1,2.44-1.23c1.53,0,2.22,1,2.22,2.85v4.62h-1.23v-4.45c0-1.37-.42-2-1.38-2a2.79,2.79,0,0,0-2,1.13v5.28h-1.23v-7.29Z"/><path class="cls-1" d="M722.2,333.53h-1.08V332.6l1.14-.07,0.15-2h1v2h2v1h-2v4c0,0.9.29,1.41,1.13,1.41a2.66,2.66,0,0,0,.83-0.19l0.24,0.93a4.51,4.51,0,0,1-1.35.27c-1.56,0-2.08-1-2.08-2.43v-4Z"/><path class="cls-1" d="M280.83,320.72h-1.09V323h-2.05v-2.28h-4.12v-1.52l3.48-5.73h2.7V319h1.09v1.68ZM277.68,319V317.5c0-.61.06-1.53,0.09-2.13h-0.06c-0.24.52-.51,1.06-0.78,1.6L275.67,319h2Z"/><path class="cls-1" d="M283.44,320.41a1.39,1.39,0,1,1-1.33,1.4A1.33,1.33,0,0,1,283.44,320.41Z"/><path class="cls-1" d="M289.81,313.42a0.86,0.86,0,0,1,1.71,0A0.86,0.86,0,0,1,289.81,313.42Zm0.22,2.29h1.23V323H290v-7.29Z"/><path class="cls-1" d="M293.72,315.71h1l0.1,1h0a3.44,3.44,0,0,1,2.45-1.23c1.53,0,2.22,1,2.22,2.85V323h-1.23v-4.45c0-1.37-.42-2-1.38-2a2.79,2.79,0,0,0-2,1.13V323h-1.23v-7.29Z"/><path class="cls-1" d="M301.32,318.77h3.45v0.95h-3.45v-0.95Z"/><path class="cls-1" d="M306.6,312.32h1.23v2.91l0,1.5a3.48,3.48,0,0,1,2.43-1.2c1.53,0,2.22,1,2.22,2.85V323H311.2v-4.45c0-1.37-.42-2-1.38-2a2.79,2.79,0,0,0-2,1.13V323H306.6V312.32Z"/><path class="cls-1" d="M317.59,315.53c1.79,0,3.38,1.4,3.38,3.84s-1.59,3.81-3.37,3.81-3.37-1.4-3.37-3.81S315.81,315.53,317.59,315.53Zm0,6.63c1.26,0,2.1-1.12,2.1-2.79s-0.84-2.82-2.1-2.82-2.1,1.14-2.1,2.82S316.35,322.16,317.59,322.16Z"/><path class="cls-1" d="M322.78,315.71H324v4.45c0,1.37.4,2,1.36,2a2.48,2.48,0,0,0,2-1.23v-5.17h1.23V323h-1l-0.11-1.14h0a3.08,3.08,0,0,1-2.4,1.32c-1.55,0-2.24-1-2.24-2.85v-4.62Z"/><path class="cls-1" d="M330.85,321.35a3.28,3.28,0,0,0,2.14.87,1.22,1.22,0,0,0,1.44-1.14c0-.75-0.87-1.08-1.67-1.38-1-.37-2.17-0.87-2.17-2.1s0.93-2.07,2.5-2.07a3.64,3.64,0,0,1,2.26.83l-0.58.78a2.71,2.71,0,0,0-1.67-.65,1.13,1.13,0,0,0-1.33,1c0,0.68.79,0.95,1.62,1.26,1,0.39,2.22.82,2.22,2.2,0,1.19-.95,2.18-2.67,2.18a4.39,4.39,0,0,1-2.71-1Z"/><path class="cls-1" d="M340.06,315.53c1.86,0,2.91,1.33,2.91,3.42a4.43,4.43,0,0,1,0,.67H338a2.43,2.43,0,0,0,2.43,2.56,3.3,3.3,0,0,0,1.81-.57l0.44,0.81a4.34,4.34,0,0,1-2.4.75,3.49,3.49,0,0,1-3.49-3.81C336.79,317,338.4,315.53,340.06,315.53Zm1.83,3.28c0-1.48-.66-2.31-1.8-2.31a2.27,2.27,0,0,0-2.1,2.31h3.9Z"/><path class="cls-1" d="M347.61,321.35a3.28,3.28,0,0,0,2.14.87,1.22,1.22,0,0,0,1.44-1.14c0-.75-0.87-1.08-1.67-1.38-1-.37-2.17-0.87-2.17-2.1s0.93-2.07,2.5-2.07a3.64,3.64,0,0,1,2.26.83l-0.58.78a2.71,2.71,0,0,0-1.67-.65,1.13,1.13,0,0,0-1.33,1c0,0.68.79,0.95,1.62,1.26,1,0.39,2.22.82,2.22,2.2,0,1.19-.95,2.18-2.67,2.18a4.39,4.39,0,0,1-2.71-1Z"/><path class="cls-1" d="M356.82,315.53c1.86,0,2.91,1.33,2.91,3.42a4.43,4.43,0,0,1,0,.67h-4.92a2.43,2.43,0,0,0,2.43,2.56,3.3,3.3,0,0,0,1.81-.57l0.44,0.81a4.34,4.34,0,0,1-2.4.75,3.49,3.49,0,0,1-3.49-3.81C353.55,317,355.15,315.53,356.82,315.53Zm1.83,3.28c0-1.48-.66-2.31-1.8-2.31a2.27,2.27,0,0,0-2.1,2.31h3.9Z"/><path class="cls-1" d="M361.52,315.71h1l0.1,1.32h0a2.49,2.49,0,0,1,2.07-1.5,1.81,1.81,0,0,1,.78.15l-0.24,1.08a2,2,0,0,0-.71-0.12c-0.62,0-1.35.45-1.84,1.68V323h-1.23v-7.29Z"/><path class="cls-1" d="M366,315.71h1.28l1.38,4.14c0.21,0.72.45,1.46,0.67,2.15h0.06c0.21-.69.45-1.42,0.66-2.15l1.38-4.14h1.22L370,323h-1.44Z"/><path class="cls-1" d="M373.8,313.42a0.86,0.86,0,0,1,1.71,0A0.86,0.86,0,0,1,373.8,313.42Zm0.22,2.29h1.23V323H374v-7.29Z"/><path class="cls-1" d="M380.68,315.53a3,3,0,0,1,2.13.87l-0.62.79a2.2,2.2,0,0,0-1.47-.65c-1.32,0-2.28,1.14-2.28,2.82s0.92,2.79,2.25,2.79a2.6,2.6,0,0,0,1.71-.73l0.55,0.81a3.61,3.61,0,0,1-2.37.95c-1.93,0-3.42-1.4-3.42-3.81A3.53,3.53,0,0,1,380.68,315.53Z"/><path class="cls-1" d="M387,315.53c1.86,0,2.91,1.33,2.91,3.42a4.43,4.43,0,0,1,0,.67h-4.92a2.43,2.43,0,0,0,2.43,2.56,3.3,3.3,0,0,0,1.81-.57l0.44,0.81a4.34,4.34,0,0,1-2.4.75,3.49,3.49,0,0,1-3.49-3.81C383.69,317,385.3,315.53,387,315.53Zm1.83,3.28c0-1.48-.66-2.31-1.8-2.31a2.27,2.27,0,0,0-2.1,2.31h3.9Z"/><path class="cls-1" d="M297.32,333.53a3,3,0,0,1,2,.84l-0.06-1.24v-2.81h1.25V341h-1l-0.11-.85h0a3.29,3.29,0,0,1-2.21,1c-1.83,0-3-1.38-3-3.81S295.66,333.53,297.32,333.53Zm0.12,6.61a2.47,2.47,0,0,0,1.86-1v-3.81a2.54,2.54,0,0,0-1.77-.76c-1.17,0-2.1,1.13-2.1,2.79S296.17,340.15,297.44,340.15Z"/><path class="cls-1" d="M305.74,333.53c1.86,0,2.91,1.33,2.91,3.42a4.43,4.43,0,0,1,0,.67h-4.92a2.43,2.43,0,0,0,2.43,2.56,3.3,3.3,0,0,0,1.81-.57l0.44,0.81a4.34,4.34,0,0,1-2.4.75,3.49,3.49,0,0,1-3.49-3.81C302.47,335,304.07,333.53,305.74,333.53Zm1.83,3.28c0-1.48-.66-2.31-1.8-2.31a2.27,2.27,0,0,0-2.1,2.31h3.9Z"/><path class="cls-1" d="M310.25,339.35a3.28,3.28,0,0,0,2.14.87,1.22,1.22,0,0,0,1.44-1.14c0-.75-0.87-1.08-1.67-1.38-1-.37-2.17-0.87-2.17-2.1s0.93-2.07,2.5-2.07a3.64,3.64,0,0,1,2.26.83l-0.58.78a2.71,2.71,0,0,0-1.67-.65,1.13,1.13,0,0,0-1.33,1c0,0.68.79,0.95,1.62,1.26,1,0.39,2.22.82,2.22,2.2,0,1.19-.95,2.18-2.67,2.18a4.39,4.39,0,0,1-2.71-1Z"/><path class="cls-1" d="M316.51,331.42a0.86,0.86,0,0,1,1.71,0A0.86,0.86,0,0,1,316.51,331.42Zm0.22,2.29H318V341h-1.23v-7.29Z"/><path class="cls-1" d="M320.93,340.75v-0.06a1.35,1.35,0,0,1-.65-1.19,1.71,1.71,0,0,1,.79-1.35v-0.06a2.57,2.57,0,0,1,1.8-4.56,2.91,2.91,0,0,1,1,.18h2.54v0.94H325a2.11,2.11,0,0,1,.6,1.5,2.5,2.5,0,0,1-2.67,2.53,2.55,2.55,0,0,1-1.09-.25,1.1,1.1,0,0,0-.46.87c0,0.46.3,0.79,1.29,0.79H324c1.69,0,2.55.52,2.55,1.74s-1.42,2.52-3.69,2.52c-1.78,0-3-.71-3-2A2.1,2.1,0,0,1,320.93,340.75Zm2.13,2.76c1.39,0,2.31-.72,2.31-1.48s-0.53-.9-1.47-0.9h-1.26a3.56,3.56,0,0,1-.95-0.12,1.53,1.53,0,0,0-.75,1.23C320.95,343,321.74,343.51,323.06,343.51Zm1.36-7.38a1.55,1.55,0,1,0-3.09,0A1.56,1.56,0,1,0,324.43,336.13Z"/><path class="cls-1" d="M328,333.71h1l0.1,1h0a3.44,3.44,0,0,1,2.45-1.23c1.53,0,2.22,1,2.22,2.85V341h-1.23v-4.45c0-1.37-.42-2-1.38-2a2.79,2.79,0,0,0-2,1.13V341H328v-7.29Z"/><path class="cls-1" d="M339.43,334.72h-1.08v-0.93l1.14-.07,0.15-2h1v2h2v1h-2v4c0,0.9.29,1.41,1.13,1.41a2.66,2.66,0,0,0,.83-0.19l0.24,0.93a4.51,4.51,0,0,1-1.35.27c-1.56,0-2.08-1-2.08-2.43v-4Z"/><path class="cls-1" d="M346.87,333.53c1.86,0,2.91,1.33,2.91,3.42a4.43,4.43,0,0,1,0,.67h-4.92a2.43,2.43,0,0,0,2.43,2.56,3.3,3.3,0,0,0,1.81-.57l0.44,0.81a4.34,4.34,0,0,1-2.4.75,3.49,3.49,0,0,1-3.49-3.81C343.6,335,345.2,333.53,346.87,333.53Zm1.83,3.28c0-1.48-.66-2.31-1.8-2.31a2.27,2.27,0,0,0-2.1,2.31h3.9Z"/><path class="cls-1" d="M355.49,336.38c0-.93-0.31-1.83-1.5-1.83a3.93,3.93,0,0,0-2.17.78l-0.5-.85a5.42,5.42,0,0,1,2.87-.94c1.79,0,2.54,1.19,2.54,3V341h-1l-0.1-.87h0a4,4,0,0,1-2.42,1.05,2,2,0,0,1-2.14-2.07C351,337.52,352.39,336.73,355.49,336.38Zm-2,3.81a3,3,0,0,0,2-1v-2c-2.44.3-3.27,0.9-3.27,1.83A1.12,1.12,0,0,0,353.5,340.19Z"/><path class="cls-1" d="M359,333.71h1l0.1,1h0a3.2,3.2,0,0,1,2.26-1.23,1.91,1.91,0,0,1,2,1.4,3.44,3.44,0,0,1,2.4-1.4c1.5,0,2.22,1,2.22,2.85V341h-1.23v-4.45c0-1.37-.43-2-1.35-2a2.67,2.67,0,0,0-1.83,1.13V341h-1.23v-4.45c0-1.37-.43-2-1.36-2a2.73,2.73,0,0,0-1.83,1.13V341H359v-7.29Z"/><path class="cls-2" d="M650.56,254.69a12.08,12.08,0,1,1,12.08-12.08A12.1,12.1,0,0,1,650.56,254.69Zm0-22.6a10.52,10.52,0,1,0,10.52,10.52A10.53,10.53,0,0,0,650.56,232.08Z"/><path class="cls-2" d="M305.77,256.47a12.08,12.08,0,1,1,12.08-12.08A12.1,12.1,0,0,1,305.77,256.47Zm0-22.6a10.52,10.52,0,1,0,10.52,10.52A10.53,10.53,0,0,0,305.77,233.87Z"/><circle class="cls-4" cx="331.85" cy="244.37" r="48.35"/><circle class="cls-7" cx="677.03" cy="243.55" r="49.17"/></svg>