<svg id="Layer_1" data-name="Layer 1" xmlns="http://www.w3.org/2000/svg" xmlns:xlink="http://www.w3.org/1999/xlink" viewBox="0 0 1035.53 425.9"><defs><style>.cls-1{fill:#231f20;}.cls-10,.cls-12,.cls-14,.cls-16,.cls-18,.cls-2,.cls-20,.cls-22,.cls-24,.cls-25,.cls-26,.cls-27,.cls-28,.cls-29,.cls-3,.cls-30,.cls-4,.cls-5,.cls-7,.cls-8{fill:none;stroke-miterlimit:10;}.cls-2,.cls-29,.cls-3,.cls-30,.cls-4,.cls-5,.cls-7{stroke:#5c9ad2;}.cls-29,.cls-3,.cls-30,.cls-4,.cls-5,.cls-7{stroke-width:0.79px;}.cls-4{stroke-dasharray:1.6 1.6;}.cls-5{stroke-dasharray:1.56 1.56;}.cls-6{fill:#5c9ad2;}.cls-7{stroke-dasharray:1.59 1.59;}.cls-10,.cls-12,.cls-14,.cls-16,.cls-18,.cls-20,.cls-22,.cls-8{stroke-width:0.84px;}.cls-8{stroke:url(#linear-gradient);}.cls-9{fill:url(#linear-gradient-2);}.cls-10{stroke:url(#linear-gradient-3);}.cls-11{fill:url(#linear-gradient-4);}.cls-12{stroke:url(#linear-gradient-5);}.cls-13{fill:url(#linear-gradient-6);}.cls-14{stroke:url(#linear-gradient-7);}.cls-15{fill:url(#linear-gradient-8);}.cls-16{stroke:url(#linear-gradient-9);}.cls-17{fill:url(#linear-gradient-10);}.cls-18{stroke:url(#linear-gradient-11);}.cls-19{fill:url(#linear-gradient-12);}.cls-20{stroke:url(#linear-gradient-13);}.cls-21{fill:url(#linear-gradient-14);}.cls-22{stroke:url(#linear-gradient-15);}.cls-23{fill:url(#linear-gradient-16);}.cls-24,.cls-25,.cls-26,.cls-27,.cls-28{stroke:#231f20;}.cls-24{stroke-width:0.42px;}.cls-25{stroke-width:0.56px;}.cls-26{stroke-width:0.56px;}.cls-27{stroke-width:0.51px;}.cls-28{stroke-width:0.42px;}.cls-29{stroke-dasharray:1.6 1.6;}.cls-30{stroke-dasharray:1.6 1.6;}</style><linearGradient id="linear-gradient" x1="350.76" y1="222.76" x2="350.76" y2="107.73" gradientUnits="userSpaceOnUse"><stop offset="0" stop-color="#b2cfe4"/><stop offset="1" stop-color="#5c9ad2"/></linearGradient><linearGradient id="linear-gradient-2" x1="350.65" y1="222.76" x2="350.65" y2="107.73" xlink:href="#linear-gradient"/><linearGradient id="linear-gradient-3" x1="364.62" y1="222.83" x2="364.62" y2="107.73" xlink:href="#linear-gradient"/><linearGradient id="linear-gradient-4" x1="364.5" y1="222.83" x2="364.5" y2="107.73" xlink:href="#linear-gradient"/><linearGradient id="linear-gradient-5" x1="377.63" y1="223.17" x2="377.63" y2="107.73" xlink:href="#linear-gradient"/><linearGradient id="linear-gradient-6" x1="377.51" y1="223.17" x2="377.51" y2="107.73" xlink:href="#linear-gradient"/><linearGradient id="linear-gradient-7" x1="323.07" y1="222.76" x2="323.07" y2="107.73" xlink:href="#linear-gradient"/><linearGradient id="linear-gradient-8" x1="322.95" y1="222.76" x2="322.95" y2="107.73" xlink:href="#linear-gradient"/><linearGradient id="linear-gradient-9" x1="336.58" y1="222.76" x2="336.58" y2="107.73" xlink:href="#linear-gradient"/><linearGradient id="linear-gradient-10" x1="336.47" y1="222.76" x2="336.47" y2="107.73" xlink:href="#linear-gradient"/><linearGradient id="linear-gradient-11" x1="674.86" y1="348.56" x2="674.86" y2="217.55" xlink:href="#linear-gradient"/><linearGradient id="linear-gradient-12" x1="674.63" y1="348.56" x2="674.63" y2="217.55" xlink:href="#linear-gradient"/><linearGradient id="linear-gradient-13" x1="684.75" y1="335.17" x2="684.75" y2="217.55" xlink:href="#linear-gradient"/><linearGradient id="linear-gradient-14" x1="684.63" y1="335.17" x2="684.63" y2="217.55" xlink:href="#linear-gradient"/><linearGradient id="linear-gradient-15" x1="664.85" y1="335.17" x2="664.85" y2="217.55" xlink:href="#linear-gradient"/><linearGradient id="linear-gradient-16" x1="664.74" y1="335.17" x2="664.74" y2="217.55" xlink:href="#linear-gradient"/></defs><title>thesis_final_website</title><path class="cls-1" d="M763.83,357.71a2,2,0,0,0,1.63.92,1.24,1.24,0,0,0,1.34-1.05c0-.46-0.27-0.71-1.16-1.2s-1.44-1-1.44-1.73a2,2,0,0,1,2.17-1.88,2.53,2.53,0,0,1,1.86.84l-0.57.56a1.76,1.76,0,0,0-1.31-.62,1.11,1.11,0,0,0-1.2,1,1.57,1.57,0,0,0,1.12,1.12c1.13,0.62,1.48,1.11,1.48,1.79a2.09,2.09,0,0,1-2.37,1.95,2.77,2.77,0,0,1-2.17-1.2Z"/><path class="cls-1" d="M772.34,352.77c1.42,0,2,1,2,2.29a4.12,4.12,0,0,1-.22,1.23H770c-0.23,1.63.61,2.31,1.72,2.31a2.53,2.53,0,0,0,1.42-.55l0.39,0.66a3.54,3.54,0,0,1-2,.68,2.37,2.37,0,0,1-2.48-2.64A3.76,3.76,0,0,1,772.34,352.77Zm1,2.85a3.34,3.34,0,0,0,.06-0.65,1.22,1.22,0,0,0-1.22-1.4,2.47,2.47,0,0,0-2.16,2.05h3.32Z"/><path class="cls-1" d="M776.39,352.93h0.82l-0.14,1.21h0.05a2.56,2.56,0,0,1,2-1.36,1.45,1.45,0,0,1,.6.12l-0.35.88a1.23,1.23,0,0,0-.55-0.1,2.46,2.46,0,0,0-1.86,1.59l-0.79,4h-1Z"/><path class="cls-1" d="M780,352.93h1l0.47,3.65c0.07,0.61.12,1.27,0.18,1.89h0.05c0.3-.62.61-1.26,0.94-1.89l1.86-3.65h1l-3.37,6.32h-1.2Z"/><path class="cls-1" d="M786.75,352.93h1l-1.27,6.32h-1ZM787,351a0.75,0.75,0,0,1,.75-0.75,0.6,0.6,0,0,1,.64.6,0.74,0.74,0,0,1-.75.74A0.59,0.59,0,0,1,787,351Z"/><path class="cls-1" d="M792.17,352.77a2.08,2.08,0,0,1,1.64.77l-0.58.62a1.32,1.32,0,0,0-1.12-.57c-1.26,0-2.44,1.48-2.44,3.21,0,1.14.49,1.77,1.5,1.77a2.3,2.3,0,0,0,1.4-.56l0.44,0.65a3.22,3.22,0,0,1-2,.74,2.27,2.27,0,0,1-2.33-2.53A3.86,3.86,0,0,1,792.17,352.77Z"/><path class="cls-1" d="M797.48,352.77c1.42,0,2,1,2,2.29a4.12,4.12,0,0,1-.22,1.23h-4.11c-0.23,1.63.61,2.31,1.72,2.31a2.53,2.53,0,0,0,1.42-.55l0.39,0.66a3.54,3.54,0,0,1-2,.68,2.37,2.37,0,0,1-2.48-2.64A3.76,3.76,0,0,1,797.48,352.77Zm1,2.85a3.34,3.34,0,0,0,.06-0.65,1.22,1.22,0,0,0-1.22-1.4,2.47,2.47,0,0,0-2.16,2.05h3.32Z"/><path class="cls-1" d="M808,352.46l0.49-2.47h1l-1.87,9.26h-0.82l0.1-.94H806.9a3.15,3.15,0,0,1-2.2,1.09c-1.11,0-1.82-.81-1.82-2.29,0-2.43,1.66-4.34,3.42-4.34a1.67,1.67,0,0,1,1.5.92h0Zm-1,4.9,0.57-2.82a1.49,1.49,0,0,0-1.29-.94c-1.26,0-2.43,1.61-2.43,3.35,0,1.09.46,1.61,1.16,1.61A2.63,2.63,0,0,0,807.05,357.36Z"/><path class="cls-1" d="M813.19,352.77c1.42,0,2,1,2,2.29a4.12,4.12,0,0,1-.22,1.23h-4.11c-0.23,1.63.61,2.31,1.72,2.31a2.53,2.53,0,0,0,1.42-.55l0.39,0.66a3.54,3.54,0,0,1-2,.68,2.37,2.37,0,0,1-2.48-2.64A3.76,3.76,0,0,1,813.19,352.77Zm1,2.85a3.34,3.34,0,0,0,.06-0.65,1.22,1.22,0,0,0-1.22-1.4,2.47,2.47,0,0,0-2.16,2.05h3.32Z"/><path class="cls-1" d="M816.15,357.71a2,2,0,0,0,1.63.92,1.24,1.24,0,0,0,1.34-1.05c0-.46-0.27-0.71-1.16-1.2s-1.44-1-1.44-1.73a2,2,0,0,1,2.17-1.88,2.53,2.53,0,0,1,1.86.84l-0.57.56a1.76,1.76,0,0,0-1.31-.62,1.11,1.11,0,0,0-1.2,1,1.57,1.57,0,0,0,1.12,1.12c1.13,0.62,1.48,1.11,1.48,1.79a2.09,2.09,0,0,1-2.37,1.95,2.77,2.77,0,0,1-2.17-1.2Z"/><path class="cls-1" d="M822.47,352.93h1l-1.27,6.32h-1Zm0.21-1.9a0.75,0.75,0,0,1,.75-0.75,0.6,0.6,0,0,1,.64.6,0.74,0.74,0,0,1-.75.74A0.59,0.59,0,0,1,822.68,351Z"/><path class="cls-1" d="M830.36,352.93L829,359.55a2.89,2.89,0,0,1-3,2.61,3.48,3.48,0,0,1-2.21-.87l0.47-.69a2.74,2.74,0,0,0,1.78.75,2.06,2.06,0,0,0,2-1.88l0.31-1.3h0a3.15,3.15,0,0,1-2.15,1c-1.07,0-1.83-.75-1.83-2.22,0-2.31,1.64-4.19,3.34-4.19a1.71,1.71,0,0,1,1.52.95h0l0.25-.79h0.82Zm-1.86,4.32,0.56-2.7a1.51,1.51,0,0,0-1.29-.94c-1.22,0-2.35,1.56-2.35,3.21,0,1,.43,1.53,1.13,1.53A2.73,2.73,0,0,0,828.5,357.24Z"/><path class="cls-1" d="M832.44,352.93h0.82l-0.09.95h0.05a3.53,3.53,0,0,1,2.21-1.1,1.36,1.36,0,0,1,1.49,1.57,3.59,3.59,0,0,1-.1.87l-0.81,4h-1l0.78-3.9a3.87,3.87,0,0,0,.1-0.74,0.84,0.84,0,0,0-.94-1,3.07,3.07,0,0,0-1.9,1.14l-0.9,4.47h-1Z"/><path class="cls-1" d="M841.81,353.73h-0.92L841,353l1-.06,0.47-1.74h0.84L843,352.93h1.6l-0.16.81H842.8l-0.74,3.61a2.69,2.69,0,0,0,0,.47,0.68,0.68,0,0,0,.81.78,1.57,1.57,0,0,0,.66-0.2l0.22,0.72a2.89,2.89,0,0,1-1.2.29A1.31,1.31,0,0,1,841,358a6,6,0,0,1,.06-0.7Z"/><path class="cls-1" d="M848.05,352.77c1.42,0,2,1,2,2.29a4.12,4.12,0,0,1-.22,1.23h-4.11c-0.23,1.63.61,2.31,1.72,2.31a2.53,2.53,0,0,0,1.42-.55l0.39,0.66a3.54,3.54,0,0,1-2,.68,2.37,2.37,0,0,1-2.48-2.64A3.76,3.76,0,0,1,848.05,352.77Zm1,2.85a3.34,3.34,0,0,0,.06-0.65,1.22,1.22,0,0,0-1.22-1.4,2.47,2.47,0,0,0-2.16,2.05h3.32Z"/><path class="cls-1" d="M854.37,352.77a1.69,1.69,0,0,1,1.52.95h0.05l0.25-.79H857l-1.26,6.32h-0.82l0.1-.94H855a3.15,3.15,0,0,1-2.2,1.09c-1.11,0-1.82-.81-1.82-2.29C851,354.68,852.62,352.77,854.37,352.77Zm0.75,4.59,0.57-2.82a1.48,1.48,0,0,0-1.29-.94c-1.26,0-2.43,1.61-2.43,3.35,0,1.09.46,1.61,1.16,1.61A2.6,2.6,0,0,0,855.13,357.36Z"/><path class="cls-1" d="M859.08,352.93h0.82l-0.09.95h0.05a3.43,3.43,0,0,1,2.08-1.1,1.29,1.29,0,0,1,1.46,1.23,3.69,3.69,0,0,1,2.24-1.23,1.36,1.36,0,0,1,1.5,1.57,4.43,4.43,0,0,1-.1.87l-0.81,4h-1l0.79-3.9a3.81,3.81,0,0,0,.1-0.74,0.84,0.84,0,0,0-.92-1,3.14,3.14,0,0,0-1.78,1.14l-0.9,4.47h-1l0.78-3.9a3.81,3.81,0,0,0,.1-0.74,0.83,0.83,0,0,0-.91-1,3.06,3.06,0,0,0-1.78,1.14l-0.9,4.47h-1Z"/><path class="cls-1" d="M872.56,350h1l-1.62,8.1a1.09,1.09,0,0,0,0,.25,0.21,0.21,0,0,0,.22.23,0.54,0.54,0,0,0,.21,0v0.77a1.64,1.64,0,0,1-.62.1,0.75,0.75,0,0,1-.84-0.82A2.44,2.44,0,0,1,871,358Z"/><path class="cls-1" d="M877.39,352.77c1.42,0,2,1,2,2.29a4.12,4.12,0,0,1-.22,1.23H875c-0.23,1.63.61,2.31,1.72,2.31a2.53,2.53,0,0,0,1.42-.55l0.39,0.66a3.54,3.54,0,0,1-2,.68,2.37,2.37,0,0,1-2.48-2.64A3.76,3.76,0,0,1,877.39,352.77Zm1,2.85a3.34,3.34,0,0,0,.06-0.65,1.22,1.22,0,0,0-1.22-1.4,2.47,2.47,0,0,0-2.16,2.05h3.32Z"/><path class="cls-1" d="M883.71,352.77a1.69,1.69,0,0,1,1.52.95h0.05l0.25-.79h0.81l-1.26,6.32h-0.82l0.1-.94h-0.05a3.15,3.15,0,0,1-2.2,1.09c-1.11,0-1.82-.81-1.82-2.29C880.29,354.68,882,352.77,883.71,352.77Zm0.75,4.59,0.57-2.82a1.48,1.48,0,0,0-1.29-.94c-1.26,0-2.43,1.61-2.43,3.35,0,1.09.46,1.61,1.16,1.61A2.6,2.6,0,0,0,884.46,357.36Z"/><path class="cls-1" d="M892.43,352.46l0.49-2.47h1l-1.87,9.26h-0.82l0.1-.94h-0.05a3.15,3.15,0,0,1-2.2,1.09c-1.11,0-1.82-.81-1.82-2.29,0-2.43,1.66-4.34,3.42-4.34a1.67,1.67,0,0,1,1.5.92h0Zm-1,4.9,0.57-2.82a1.49,1.49,0,0,0-1.29-.94c-1.26,0-2.43,1.61-2.43,3.35,0,1.09.46,1.61,1.16,1.61A2.63,2.63,0,0,0,891.45,357.36Z"/><path class="cls-1" d="M175.2,352.38l0.49-2.47h1l-1.87,9.26H174l0.1-.94h-0.05a3.15,3.15,0,0,1-2.2,1.09c-1.11,0-1.82-.81-1.82-2.29,0-2.43,1.66-4.34,3.42-4.34a1.67,1.67,0,0,1,1.5.92h0Zm-1,4.9,0.57-2.82a1.49,1.49,0,0,0-1.29-.94c-1.26,0-2.43,1.61-2.43,3.35,0,1.09.46,1.61,1.16,1.61A2.63,2.63,0,0,0,174.21,357.28Z"/><path class="cls-1" d="M180.35,352.69c1.42,0,2,1,2,2.29a4.12,4.12,0,0,1-.22,1.23H178c-0.23,1.63.61,2.31,1.72,2.31a2.52,2.52,0,0,0,1.42-.55l0.39,0.66a3.54,3.54,0,0,1-2,.68,2.37,2.37,0,0,1-2.48-2.64A3.76,3.76,0,0,1,180.35,352.69Zm1,2.85a3.34,3.34,0,0,0,.06-0.65,1.22,1.22,0,0,0-1.22-1.4,2.47,2.47,0,0,0-2.16,2.05h3.32Z"/><path class="cls-1" d="M183.31,357.63a2,2,0,0,0,1.63.92,1.24,1.24,0,0,0,1.34-1.05c0-.46-0.27-0.71-1.16-1.2s-1.44-1-1.44-1.73a2,2,0,0,1,2.17-1.88,2.53,2.53,0,0,1,1.86.84l-0.57.56a1.76,1.76,0,0,0-1.31-.62,1.11,1.11,0,0,0-1.2,1,1.57,1.57,0,0,0,1.12,1.12c1.13,0.62,1.48,1.1,1.48,1.79a2.09,2.09,0,0,1-2.37,2,2.77,2.77,0,0,1-2.17-1.2Z"/><path class="cls-1" d="M189.63,352.85h1l-1.27,6.32h-1Zm0.21-1.9a0.75,0.75,0,0,1,.75-0.75,0.6,0.6,0,0,1,.64.6,0.74,0.74,0,0,1-.75.74A0.59,0.59,0,0,1,189.84,350.95Z"/><path class="cls-1" d="M197.52,352.85l-1.33,6.62a2.89,2.89,0,0,1-3,2.61,3.48,3.48,0,0,1-2.21-.87l0.47-.69a2.74,2.74,0,0,0,1.78.75,2.06,2.06,0,0,0,2-1.88l0.31-1.3h0a3.15,3.15,0,0,1-2.15,1c-1.07,0-1.83-.75-1.83-2.22,0-2.31,1.64-4.19,3.34-4.19a1.71,1.71,0,0,1,1.52.95h0l0.25-.79h0.82Zm-1.86,4.32,0.56-2.7a1.51,1.51,0,0,0-1.29-.94c-1.22,0-2.35,1.56-2.35,3.21,0,1,.43,1.53,1.13,1.53A2.73,2.73,0,0,0,195.66,357.16Z"/><path class="cls-1" d="M199.6,352.85h0.82l-0.09.95h0.05a3.53,3.53,0,0,1,2.21-1.1,1.36,1.36,0,0,1,1.5,1.57,3.6,3.6,0,0,1-.1.87l-0.81,4h-1l0.78-3.9a3.86,3.86,0,0,0,.1-0.74,0.84,0.84,0,0,0-.94-1,3.07,3.07,0,0,0-1.9,1.14l-0.9,4.47h-1Z"/><path class="cls-1" d="M209,353.65H208l0.14-.74,1-.06,0.47-1.74h0.84l-0.35,1.74h1.6l-0.16.81H210l-0.74,3.61a2.69,2.69,0,0,0,0,.47,0.68,0.68,0,0,0,.81.78,1.57,1.57,0,0,0,.66-0.2l0.22,0.72a2.89,2.89,0,0,1-1.2.29,1.31,1.31,0,0,1-1.51-1.4,6,6,0,0,1,.06-0.7Z"/><path class="cls-1" d="M215.21,352.69c1.42,0,2,1,2,2.29a4.12,4.12,0,0,1-.22,1.23h-4.11c-0.23,1.63.61,2.31,1.72,2.31A2.52,2.52,0,0,0,216,358l0.39,0.66a3.54,3.54,0,0,1-2,.68,2.37,2.37,0,0,1-2.48-2.64A3.76,3.76,0,0,1,215.21,352.69Zm1,2.85a3.34,3.34,0,0,0,.06-0.65,1.22,1.22,0,0,0-1.22-1.4,2.47,2.47,0,0,0-2.16,2.05h3.32Z"/><path class="cls-1" d="M221.53,352.69a1.69,1.69,0,0,1,1.52.95h0.05l0.25-.79h0.81l-1.26,6.32h-0.82l0.1-.94h-0.05a3.15,3.15,0,0,1-2.2,1.09c-1.11,0-1.82-.81-1.82-2.29C218.11,354.6,219.78,352.69,221.53,352.69Zm0.75,4.59,0.57-2.82a1.48,1.48,0,0,0-1.29-.94c-1.26,0-2.43,1.61-2.43,3.35,0,1.09.46,1.61,1.16,1.61A2.6,2.6,0,0,0,222.28,357.28Z"/><path class="cls-1" d="M226.24,352.85h0.82l-0.09.95H227a3.43,3.43,0,0,1,2.08-1.1,1.29,1.29,0,0,1,1.46,1.23,3.69,3.69,0,0,1,2.24-1.23,1.36,1.36,0,0,1,1.5,1.57,4.43,4.43,0,0,1-.1.87l-0.81,4h-1l0.79-3.9a3.8,3.8,0,0,0,.1-0.74,0.84,0.84,0,0,0-.92-1,3.14,3.14,0,0,0-1.78,1.14l-0.9,4.47h-1l0.78-3.9a3.8,3.8,0,0,0,.1-0.74,0.83,0.83,0,0,0-.91-1,3.06,3.06,0,0,0-1.78,1.14l-0.9,4.47h-1Z"/><path class="cls-1" d="M239.72,349.91h1l-1.62,8.1a1.09,1.09,0,0,0,0,.25,0.21,0.21,0,0,0,.22.23,0.54,0.54,0,0,0,.21,0v0.77a1.63,1.63,0,0,1-.62.1,0.75,0.75,0,0,1-.84-0.82,2.44,2.44,0,0,1,.08-0.55Z"/><path class="cls-1" d="M244.55,352.69c1.42,0,2,1,2,2.29a4.12,4.12,0,0,1-.22,1.23h-4.11c-0.23,1.63.61,2.31,1.72,2.31a2.52,2.52,0,0,0,1.42-.55l0.39,0.66a3.54,3.54,0,0,1-2,.68,2.37,2.37,0,0,1-2.48-2.64A3.76,3.76,0,0,1,244.55,352.69Zm1,2.85a3.34,3.34,0,0,0,.06-0.65,1.22,1.22,0,0,0-1.22-1.4,2.47,2.47,0,0,0-2.16,2.05h3.32Z"/><path class="cls-1" d="M250.87,352.69a1.69,1.69,0,0,1,1.52.95h0.05l0.25-.79h0.81l-1.26,6.32h-0.82l0.1-.94h-0.05a3.15,3.15,0,0,1-2.2,1.09c-1.11,0-1.82-.81-1.82-2.29C247.45,354.6,249.12,352.69,250.87,352.69Zm0.75,4.59,0.57-2.82a1.48,1.48,0,0,0-1.29-.94c-1.26,0-2.43,1.61-2.43,3.35,0,1.09.46,1.61,1.16,1.61A2.6,2.6,0,0,0,251.62,357.28Z"/><path class="cls-1" d="M259.59,352.38l0.49-2.47h1l-1.87,9.26H258.4l0.1-.94h-0.05a3.15,3.15,0,0,1-2.2,1.09c-1.11,0-1.82-.81-1.82-2.29,0-2.43,1.66-4.34,3.42-4.34a1.67,1.67,0,0,1,1.5.92h0Zm-1,4.9,0.57-2.82a1.49,1.49,0,0,0-1.29-.94c-1.26,0-2.43,1.61-2.43,3.35,0,1.09.46,1.61,1.16,1.61A2.63,2.63,0,0,0,258.61,357.28Z"/><path class="cls-1" d="M176.17,336.73l0.49-2.47h1l-1.87,9.26H175l0.1-.94H175a3.15,3.15,0,0,1-2.2,1.09c-1.11,0-1.82-.81-1.82-2.29,0-2.43,1.66-4.34,3.42-4.34a1.67,1.67,0,0,1,1.5.92h0Zm-1,4.9,0.57-2.82a1.49,1.49,0,0,0-1.29-.94c-1.26,0-2.43,1.61-2.43,3.35,0,1.09.46,1.61,1.16,1.61A2.63,2.63,0,0,0,175.19,341.63Z"/><path class="cls-1" d="M181.32,337c1.42,0,2,1,2,2.29a4.12,4.12,0,0,1-.22,1.23h-4.11c-0.23,1.63.61,2.31,1.72,2.31a2.53,2.53,0,0,0,1.42-.55l0.39,0.66a3.54,3.54,0,0,1-2,.68,2.37,2.37,0,0,1-2.48-2.64A3.76,3.76,0,0,1,181.32,337Zm1,2.85a3.34,3.34,0,0,0,.06-0.65,1.22,1.22,0,0,0-1.22-1.4,2.47,2.47,0,0,0-2.16,2.05h3.32Z"/><path class="cls-1" d="M184.29,342a2,2,0,0,0,1.63.92,1.24,1.24,0,0,0,1.34-1.05c0-.46-0.27-0.71-1.16-1.2s-1.44-1-1.44-1.73a2,2,0,0,1,2.17-1.88,2.53,2.53,0,0,1,1.86.84l-0.57.56a1.76,1.76,0,0,0-1.31-.62,1.11,1.11,0,0,0-1.2,1,1.57,1.57,0,0,0,1.12,1.12c1.13,0.62,1.48,1.11,1.48,1.79a2.09,2.09,0,0,1-2.37,1.95,2.77,2.77,0,0,1-2.17-1.2Z"/><path class="cls-1" d="M190.6,337.2h1l-1.27,6.32h-1Zm0.21-1.9a0.75,0.75,0,0,1,.75-0.75,0.6,0.6,0,0,1,.64.6,0.74,0.74,0,0,1-.75.74A0.59,0.59,0,0,1,190.81,335.3Z"/><path class="cls-1" d="M198.5,337.2l-1.33,6.62a2.89,2.89,0,0,1-3,2.61,3.48,3.48,0,0,1-2.21-.87l0.47-.69a2.74,2.74,0,0,0,1.78.75,2.06,2.06,0,0,0,2-1.88l0.31-1.3h0a3.15,3.15,0,0,1-2.15,1c-1.07,0-1.83-.75-1.83-2.22,0-2.31,1.64-4.19,3.34-4.19a1.71,1.71,0,0,1,1.52.95h0l0.25-.79h0.82Zm-1.86,4.32,0.56-2.7a1.51,1.51,0,0,0-1.29-.94c-1.22,0-2.35,1.56-2.35,3.21,0,1,.43,1.53,1.13,1.53A2.73,2.73,0,0,0,196.64,341.51Z"/><path class="cls-1" d="M200.57,337.2h0.82l-0.09.95h0.05a3.53,3.53,0,0,1,2.21-1.1,1.36,1.36,0,0,1,1.5,1.57,3.6,3.6,0,0,1-.1.87l-0.81,4h-1l0.78-3.9a3.87,3.87,0,0,0,.1-0.74,0.84,0.84,0,0,0-.94-1,3.07,3.07,0,0,0-1.9,1.14l-0.9,4.47h-1Z"/><path class="cls-1" d="M208.82,342a2,2,0,0,0,1.63.92,1.24,1.24,0,0,0,1.34-1.05c0-.46-0.27-0.71-1.16-1.2s-1.44-1-1.44-1.73a2,2,0,0,1,2.17-1.88,2.53,2.53,0,0,1,1.86.84l-0.57.56a1.77,1.77,0,0,0-1.31-.62,1.11,1.11,0,0,0-1.2,1,1.57,1.57,0,0,0,1.12,1.12c1.13,0.62,1.48,1.11,1.48,1.79a2.09,2.09,0,0,1-2.37,1.95,2.77,2.77,0,0,1-2.17-1.2Z"/><path class="cls-1" d="M214.73,344.11l-0.4,2.07h-1l1.79-9H216l-0.08.83h0a3.58,3.58,0,0,1,2.18-1c1.11,0,1.82.82,1.82,2.29,0,2.43-1.66,4.34-3.41,4.34a1.78,1.78,0,0,1-1.52-.91h0Zm1.05-5.2-0.6,3a1.45,1.45,0,0,0,1.29.91c1.26,0,2.42-1.61,2.42-3.37,0-1.07-.44-1.6-1.16-1.6A2.94,2.94,0,0,0,215.78,338.91Z"/><path class="cls-1" d="M224.29,337c1.42,0,2,1,2,2.29a4.12,4.12,0,0,1-.22,1.23h-4.11c-0.23,1.63.61,2.31,1.72,2.31a2.53,2.53,0,0,0,1.42-.55l0.39,0.66a3.54,3.54,0,0,1-2,.68,2.37,2.37,0,0,1-2.48-2.64A3.76,3.76,0,0,1,224.29,337Zm1,2.85a3.34,3.34,0,0,0,.06-0.65,1.22,1.22,0,0,0-1.22-1.4,2.47,2.47,0,0,0-2.16,2.05h3.32Z"/><path class="cls-1" d="M230.68,337a2.08,2.08,0,0,1,1.64.77l-0.58.62a1.32,1.32,0,0,0-1.12-.57c-1.26,0-2.44,1.48-2.44,3.21,0,1.14.49,1.77,1.5,1.77a2.3,2.3,0,0,0,1.4-.56l0.44,0.65a3.22,3.22,0,0,1-2,.74,2.27,2.27,0,0,1-2.33-2.53A3.86,3.86,0,0,1,230.68,337Z"/><path class="cls-1" d="M234,337.2h1l-1.27,6.32h-1Zm0.21-1.9a0.75,0.75,0,0,1,.75-0.75,0.6,0.6,0,0,1,.64.6,0.74,0.74,0,0,1-.75.74A0.59,0.59,0,0,1,234.21,335.3Z"/><path class="cls-1" d="M239.34,337a1.69,1.69,0,0,1,1.52.95h0.05l0.25-.79H242l-1.26,6.32h-0.82l0.1-.94h-0.05a3.15,3.15,0,0,1-2.2,1.09c-1.11,0-1.82-.81-1.82-2.29C235.92,339,237.59,337,239.34,337Zm0.75,4.59,0.57-2.82a1.49,1.49,0,0,0-1.29-.94c-1.26,0-2.43,1.61-2.43,3.35,0,1.09.46,1.61,1.16,1.61A2.61,2.61,0,0,0,240.09,341.63Z"/><path class="cls-1" d="M244.64,334.26h1l-1.62,8.1a1.09,1.09,0,0,0,0,.25,0.21,0.21,0,0,0,.22.23,0.54,0.54,0,0,0,.21,0v0.77a1.64,1.64,0,0,1-.62.1,0.75,0.75,0,0,1-.84-0.82,2.44,2.44,0,0,1,.08-0.55Z"/><path class="cls-1" d="M247.28,337.2h1L247,343.51h-1Zm0.21-1.9a0.75,0.75,0,0,1,.75-0.75,0.6,0.6,0,0,1,.64.6,0.74,0.74,0,0,1-.75.74A0.59,0.59,0,0,1,247.49,335.3Z"/><path class="cls-1" d="M249.27,342a2,2,0,0,0,1.63.92,1.24,1.24,0,0,0,1.34-1.05c0-.46-0.27-0.71-1.16-1.2s-1.44-1-1.44-1.73a2,2,0,0,1,2.17-1.88,2.53,2.53,0,0,1,1.86.84l-0.57.56a1.77,1.77,0,0,0-1.31-.62,1.11,1.11,0,0,0-1.2,1,1.57,1.57,0,0,0,1.12,1.12c1.13,0.62,1.48,1.11,1.48,1.79a2.09,2.09,0,0,1-2.37,1.95,2.77,2.77,0,0,1-2.17-1.2Z"/><path class="cls-1" d="M255.63,338h-0.92l0.14-.74,1-.06,0.47-1.74h0.85l-0.35,1.74h1.6l-0.16.81h-1.62l-0.74,3.61a2.69,2.69,0,0,0,0,.47,0.68,0.68,0,0,0,.81.78,1.57,1.57,0,0,0,.66-0.2l0.22,0.72a2.89,2.89,0,0,1-1.2.29,1.31,1.31,0,0,1-1.51-1.4,5.78,5.78,0,0,1,.06-0.7Z"/><path class="cls-1" d="M258.72,342a2,2,0,0,0,1.63.92,1.24,1.24,0,0,0,1.34-1.05c0-.46-0.27-0.71-1.16-1.2s-1.44-1-1.44-1.73a2,2,0,0,1,2.17-1.88,2.53,2.53,0,0,1,1.86.84l-0.57.56a1.77,1.77,0,0,0-1.31-.62,1.11,1.11,0,0,0-1.2,1,1.57,1.57,0,0,0,1.12,1.12c1.13,0.62,1.48,1.11,1.48,1.79a2.09,2.09,0,0,1-2.37,1.95,2.77,2.77,0,0,1-2.17-1.2Z"/><circle class="cls-2" cx="350.87" cy="354.21" r="5.65"/><circle class="cls-2" cx="364.42" cy="340.82" r="5.65"/><circle class="cls-2" cx="336.96" cy="340.82" r="5.65"/><path class="cls-1" d="M592,40.22h3c2.17,0,3.63.74,3.63,2.9s-1.49,3-3.63,3h-1.77v3.9H592V40.22Zm2.87,4.92c1.72,0,2.55-.63,2.55-2s-0.85-1.89-2.55-1.89h-1.61v3.91h1.61Z"/><path class="cls-1" d="M600.39,42.77h1.25v4.45c0,1.37.4,2,1.36,2a2.48,2.48,0,0,0,2-1.23V42.77h1.23v7.29h-1l-0.11-1.14h0a3.08,3.08,0,0,1-2.4,1.32c-1.55,0-2.24-1-2.24-2.85V42.77Z"/><path class="cls-1" d="M608.66,42.77h1l0.1,1.32h0a2.49,2.49,0,0,1,2.07-1.5,1.81,1.81,0,0,1,.78.15l-0.24,1.08a2,2,0,0,0-.71-0.12c-0.62,0-1.35.45-1.84,1.68v4.68h-1.23V42.77Z"/><path class="cls-1" d="M616.44,42.59c1.86,0,2.91,1.33,2.91,3.42a4.43,4.43,0,0,1,0,.67h-4.92a2.43,2.43,0,0,0,2.43,2.56,3.3,3.3,0,0,0,1.81-.57l0.44,0.81a4.34,4.34,0,0,1-2.4.75,3.49,3.49,0,0,1-3.49-3.81C613.17,44,614.78,42.59,616.44,42.59Zm1.83,3.28c0-1.48-.66-2.31-1.8-2.31a2.27,2.27,0,0,0-2.1,2.31h3.9Z"/><path class="cls-1" d="M624,48.41a3.28,3.28,0,0,0,2.14.87,1.22,1.22,0,0,0,1.44-1.14c0-.75-0.87-1.08-1.67-1.38-1-.37-2.17-0.87-2.17-2.1s0.93-2.07,2.5-2.07a3.64,3.64,0,0,1,2.26.83l-0.58.78a2.71,2.71,0,0,0-1.67-.65,1.13,1.13,0,0,0-1.33,1c0,0.68.79,0.95,1.62,1.26,1,0.39,2.22.82,2.22,2.2,0,1.19-.95,2.18-2.67,2.18a4.39,4.39,0,0,1-2.71-1Z"/><path class="cls-1" d="M633.2,42.59c1.86,0,2.91,1.33,2.91,3.42a4.43,4.43,0,0,1,0,.67h-4.92a2.43,2.43,0,0,0,2.43,2.56,3.3,3.3,0,0,0,1.81-.57l0.44,0.81a4.34,4.34,0,0,1-2.4.75,3.49,3.49,0,0,1-3.49-3.81C629.93,44,631.53,42.59,633.2,42.59ZM635,45.87c0-1.48-.66-2.31-1.8-2.31a2.27,2.27,0,0,0-2.1,2.31H635Z"/><path class="cls-1" d="M637.91,42.77h1l0.1,1.32h0a2.49,2.49,0,0,1,2.07-1.5,1.81,1.81,0,0,1,.78.15l-0.24,1.08A2,2,0,0,0,641,43.7c-0.62,0-1.35.45-1.84,1.68v4.68h-1.23V42.77Z"/><path class="cls-1" d="M642.35,42.77h1.28L645,46.91c0.21,0.72.45,1.46,0.67,2.15h0.06c0.21-.69.45-1.42,0.66-2.15l1.38-4.14H649l-2.58,7.29H645Z"/><path class="cls-1" d="M650.18,40.47a0.86,0.86,0,0,1,1.71,0A0.86,0.86,0,0,1,650.18,40.47Zm0.22,2.29h1.23v7.29H650.4V42.77Z"/><path class="cls-1" d="M657.06,42.59a3,3,0,0,1,2.13.87l-0.62.79a2.2,2.2,0,0,0-1.47-.65c-1.32,0-2.28,1.14-2.28,2.82s0.92,2.79,2.25,2.79a2.6,2.6,0,0,0,1.71-.73l0.55,0.81a3.61,3.61,0,0,1-2.37.95c-1.93,0-3.42-1.4-3.42-3.81A3.53,3.53,0,0,1,657.06,42.59Z"/><path class="cls-1" d="M663.35,42.59c1.86,0,2.91,1.33,2.91,3.42a4.43,4.43,0,0,1,0,.67h-4.92a2.43,2.43,0,0,0,2.43,2.56,3.3,3.3,0,0,0,1.81-.57L666,49.49a4.34,4.34,0,0,1-2.4.75,3.49,3.49,0,0,1-3.49-3.81C660.08,44,661.68,42.59,663.35,42.59Zm1.83,3.28c0-1.48-.66-2.31-1.8-2.31a2.27,2.27,0,0,0-2.1,2.31h3.9Z"/><path class="cls-1" d="M673.73,42.59a3,3,0,0,1,2,.84l-0.06-1.24V39.38H677V50.06h-1l-0.11-.85h0a3.29,3.29,0,0,1-2.21,1c-1.83,0-3-1.38-3-3.81S672.06,42.59,673.73,42.59Zm0.12,6.61a2.47,2.47,0,0,0,1.86-1V44.39a2.54,2.54,0,0,0-1.77-.76c-1.17,0-2.1,1.13-2.1,2.79S672.57,49.2,673.85,49.2Z"/><path class="cls-1" d="M682.14,42.59c1.86,0,2.91,1.33,2.91,3.42a4.43,4.43,0,0,1,0,.67h-4.92a2.43,2.43,0,0,0,2.43,2.56,3.3,3.3,0,0,0,1.81-.57l0.44,0.81a4.34,4.34,0,0,1-2.4.75,3.49,3.49,0,0,1-3.49-3.81C678.87,44,680.48,42.59,682.14,42.59ZM684,45.87c0-1.48-.66-2.31-1.8-2.31a2.27,2.27,0,0,0-2.1,2.31H684Z"/><path class="cls-1" d="M686.66,48.41a3.28,3.28,0,0,0,2.14.87,1.22,1.22,0,0,0,1.44-1.14c0-.75-0.87-1.08-1.67-1.38-1-.37-2.17-0.87-2.17-2.1s0.93-2.07,2.5-2.07a3.64,3.64,0,0,1,2.26.83l-0.58.78a2.71,2.71,0,0,0-1.67-.65,1.13,1.13,0,0,0-1.33,1c0,0.68.79,0.95,1.62,1.26,1,0.39,2.22.82,2.22,2.2,0,1.19-.95,2.18-2.67,2.18a4.39,4.39,0,0,1-2.71-1Z"/><path class="cls-1" d="M692.91,40.47a0.86,0.86,0,0,1,1.71,0A0.86,0.86,0,0,1,692.91,40.47Zm0.22,2.29h1.23v7.29h-1.23V42.77Z"/><path class="cls-1" d="M697.34,49.8V49.74a1.35,1.35,0,0,1-.65-1.19,1.71,1.71,0,0,1,.79-1.35V47.15a2.57,2.57,0,0,1,1.8-4.56,2.91,2.91,0,0,1,1,.18h2.54v0.94h-1.5a2.11,2.11,0,0,1,.6,1.5,2.5,2.5,0,0,1-2.67,2.53,2.55,2.55,0,0,1-1.09-.25,1.1,1.1,0,0,0-.46.87c0,0.46.3,0.79,1.29,0.79h1.41c1.69,0,2.55.52,2.55,1.74s-1.42,2.52-3.69,2.52c-1.78,0-3-.71-3-2A2.1,2.1,0,0,1,697.34,49.8Zm2.13,2.76c1.39,0,2.31-.72,2.31-1.48s-0.53-.9-1.47-0.9H699a3.56,3.56,0,0,1-.95-0.12,1.53,1.53,0,0,0-.75,1.23C697.35,52.07,698.15,52.56,699.47,52.56Zm1.36-7.38a1.55,1.55,0,1,0-3.09,0A1.56,1.56,0,1,0,700.83,45.18Z"/><path class="cls-1" d="M704.38,42.77h1l0.1,1h0A3.43,3.43,0,0,1,708,42.59c1.53,0,2.22,1,2.22,2.85v4.62H709V45.6c0-1.37-.42-2-1.38-2a2.79,2.79,0,0,0-2,1.13v5.28h-1.23V42.77Z"/><path class="cls-1" d="M719.75,45.44c0-.93-0.31-1.83-1.5-1.83a3.93,3.93,0,0,0-2.17.78l-0.5-.85a5.41,5.41,0,0,1,2.87-.94c1.79,0,2.54,1.19,2.54,3v4.47h-1l-0.1-.87h0a4,4,0,0,1-2.42,1.05,2,2,0,0,1-2.14-2.07C715.26,46.58,716.64,45.78,719.75,45.44Zm-2,3.81a3,3,0,0,0,2-1v-2c-2.44.3-3.27,0.9-3.27,1.83A1.12,1.12,0,0,0,717.75,49.25Z"/><path class="cls-1" d="M723.81,49.8V49.74a1.35,1.35,0,0,1-.65-1.19,1.71,1.71,0,0,1,.79-1.35V47.15a2.57,2.57,0,0,1,1.8-4.56,2.91,2.91,0,0,1,1,.18h2.54v0.94h-1.5a2.11,2.11,0,0,1,.6,1.5,2.5,2.5,0,0,1-2.67,2.53,2.55,2.55,0,0,1-1.09-.25,1.1,1.1,0,0,0-.46.87c0,0.46.3,0.79,1.29,0.79h1.41c1.69,0,2.55.52,2.55,1.74s-1.42,2.52-3.69,2.52c-1.78,0-3-.71-3-2A2.1,2.1,0,0,1,723.81,49.8Zm2.13,2.76c1.39,0,2.31-.72,2.31-1.48s-0.53-.9-1.47-0.9h-1.26a3.56,3.56,0,0,1-.95-0.12,1.53,1.53,0,0,0-.75,1.23C723.83,52.07,724.62,52.56,725.94,52.56Zm1.36-7.38a1.55,1.55,0,1,0-3.09,0A1.56,1.56,0,1,0,727.3,45.18Z"/><path class="cls-1" d="M733.38,42.59c1.86,0,2.91,1.33,2.91,3.42a4.43,4.43,0,0,1,0,.67h-4.92a2.43,2.43,0,0,0,2.43,2.56,3.3,3.3,0,0,0,1.81-.57L736,49.49a4.34,4.34,0,0,1-2.4.75,3.49,3.49,0,0,1-3.49-3.81C730.11,44,731.71,42.59,733.38,42.59Zm1.83,3.28c0-1.48-.66-2.31-1.8-2.31a2.27,2.27,0,0,0-2.1,2.31h3.9Z"/><path class="cls-1" d="M738.09,42.77h1l0.1,1h0a3.44,3.44,0,0,1,2.45-1.23c1.53,0,2.22,1,2.22,2.85v4.62h-1.23V45.6c0-1.37-.42-2-1.38-2a2.79,2.79,0,0,0-2,1.13v5.28h-1.23V42.77Z"/><path class="cls-1" d="M749.26,42.59a3,3,0,0,1,2.13.87l-0.62.79a2.2,2.2,0,0,0-1.47-.65c-1.32,0-2.28,1.14-2.28,2.82s0.92,2.79,2.25,2.79a2.6,2.6,0,0,0,1.71-.73l0.55,0.81a3.61,3.61,0,0,1-2.37.95c-1.93,0-3.42-1.4-3.42-3.81A3.53,3.53,0,0,1,749.26,42.59Z"/><path class="cls-1" d="M753.28,52.17a1.87,1.87,0,0,0,1.65-1.56l0.17-.54-2.92-7.3h1.28l1.48,4c0.23,0.63.48,1.38,0.71,2.05h0.06c0.21-.66.42-1.41,0.61-2.05l1.31-4h1.2l-2.75,7.89c-0.51,1.44-1.26,2.53-2.73,2.53a2.42,2.42,0,0,1-.85-0.15l0.24-1A2.14,2.14,0,0,0,753.28,52.17Z"/><path class="cls-1" d="M274.14,40A3.82,3.82,0,0,1,277,41.25l-0.72.79a2.68,2.68,0,0,0-2.08-.92c-2,0-3.27,1.53-3.27,4s1.17,4,3.27,4a2.74,2.74,0,0,0,1.79-.58V46h-2.08V45h3.22V49.1A4.42,4.42,0,0,1,274,50.24c-2.58,0-4.42-1.89-4.42-5.1S271.5,40,274.14,40Z"/><path class="cls-1" d="M279.26,39.38h1.23v9.3c0,0.39.17,0.54,0.34,0.54a1,1,0,0,0,.27,0l0.17,0.93a1.66,1.66,0,0,1-.71.12c-0.93,0-1.31-.58-1.31-1.65V39.38Z"/><path class="cls-1" d="M285.92,42.59c1.79,0,3.38,1.4,3.38,3.84s-1.59,3.81-3.37,3.81-3.37-1.4-3.37-3.81S284.14,42.59,285.92,42.59Zm0,6.63c1.26,0,2.1-1.12,2.1-2.79s-0.84-2.82-2.1-2.82-2.1,1.14-2.1,2.82S284.68,49.22,285.92,49.22Z"/><path class="cls-1" d="M291.22,39.38h1.23v2.91l0,1.32a3.6,3.6,0,0,1,2.28-1c1.89,0,2.89,1.46,2.89,3.71,0,2.49-1.48,3.94-3.15,3.94a3.3,3.3,0,0,1-2.08-.9h0l-0.11.72h-1V39.38Zm3,9.82c1.2,0,2.08-1.09,2.08-2.9,0-1.6-.54-2.68-1.92-2.68a3,3,0,0,0-2,1v3.82A2.85,2.85,0,0,0,294.24,49.2Z"/><path class="cls-1" d="M303.46,45.44c0-.93-0.31-1.83-1.5-1.83a3.93,3.93,0,0,0-2.17.78l-0.5-.85a5.41,5.41,0,0,1,2.87-.94c1.79,0,2.54,1.19,2.54,3v4.47h-1l-0.1-.87h0a4,4,0,0,1-2.42,1.05A2,2,0,0,1,299,48.17C299,46.58,300.36,45.78,303.46,45.44Zm-2,3.81a3,3,0,0,0,2-1v-2c-2.44.3-3.27,0.9-3.27,1.83A1.12,1.12,0,0,0,301.47,49.25Z"/><path class="cls-1" d="M307,39.38h1.23v9.3c0,0.39.17,0.54,0.34,0.54a1,1,0,0,0,.27,0L309,50.12a1.66,1.66,0,0,1-.71.12c-0.93,0-1.31-.58-1.31-1.65V39.38Z"/><path class="cls-1" d="M316.51,42.59a3,3,0,0,1,2,.84l-0.06-1.24V39.38h1.25V50.06h-1l-0.11-.85h0a3.29,3.29,0,0,1-2.21,1c-1.83,0-3-1.38-3-3.81S314.85,42.59,316.51,42.59Zm0.12,6.61a2.47,2.47,0,0,0,1.86-1V44.39a2.54,2.54,0,0,0-1.77-.76c-1.17,0-2.1,1.13-2.1,2.79S315.36,49.2,316.63,49.2Z"/><path class="cls-1" d="M324.93,42.59c1.86,0,2.91,1.33,2.91,3.42a4.43,4.43,0,0,1,0,.67h-4.92a2.43,2.43,0,0,0,2.43,2.56,3.3,3.3,0,0,0,1.81-.57l0.44,0.81a4.34,4.34,0,0,1-2.4.75,3.49,3.49,0,0,1-3.49-3.81C321.66,44,323.26,42.59,324.93,42.59Zm1.83,3.28c0-1.48-.66-2.31-1.8-2.31a2.27,2.27,0,0,0-2.1,2.31h3.9Z"/><path class="cls-1" d="M329.44,48.41a3.28,3.28,0,0,0,2.14.87A1.22,1.22,0,0,0,333,48.14c0-.75-0.87-1.08-1.67-1.38-1-.37-2.17-0.87-2.17-2.1s0.93-2.07,2.5-2.07a3.64,3.64,0,0,1,2.26.83l-0.58.78a2.71,2.71,0,0,0-1.67-.65,1.13,1.13,0,0,0-1.33,1c0,0.68.79,0.95,1.62,1.26,1,0.39,2.22.82,2.22,2.2,0,1.19-.95,2.18-2.67,2.18a4.39,4.39,0,0,1-2.71-1Z"/><path class="cls-1" d="M335.7,40.47a0.86,0.86,0,0,1,1.71,0A0.86,0.86,0,0,1,335.7,40.47Zm0.22,2.29h1.23v7.29h-1.23V42.77Z"/><path class="cls-1" d="M340.12,49.8V49.74a1.35,1.35,0,0,1-.65-1.19,1.71,1.71,0,0,1,.79-1.35V47.15a2.57,2.57,0,0,1,1.8-4.56,2.91,2.91,0,0,1,1,.18h2.54v0.94h-1.5a2.11,2.11,0,0,1,.6,1.5,2.5,2.5,0,0,1-2.67,2.53,2.55,2.55,0,0,1-1.09-.25,1.1,1.1,0,0,0-.46.87c0,0.46.3,0.79,1.29,0.79h1.41c1.69,0,2.55.52,2.55,1.74s-1.42,2.52-3.69,2.52c-1.78,0-3-.71-3-2A2.1,2.1,0,0,1,340.12,49.8Zm2.13,2.76c1.39,0,2.31-.72,2.31-1.48s-0.53-.9-1.47-0.9h-1.26a3.56,3.56,0,0,1-.95-0.12,1.53,1.53,0,0,0-.75,1.23C340.13,52.07,340.93,52.56,342.25,52.56Zm1.36-7.38a1.55,1.55,0,1,0-3.09,0A1.56,1.56,0,1,0,343.61,45.18Z"/><path class="cls-1" d="M347.17,42.77h1l0.1,1h0a3.44,3.44,0,0,1,2.45-1.23c1.53,0,2.22,1,2.22,2.85v4.62h-1.23V45.6c0-1.37-.42-2-1.38-2a2.79,2.79,0,0,0-2,1.13v5.28h-1.23V42.77Z"/><path class="cls-1" d="M361.38,42.59a3,3,0,0,1,2.13.87l-0.62.79a2.2,2.2,0,0,0-1.47-.65c-1.32,0-2.28,1.14-2.28,2.82s0.92,2.79,2.25,2.79a2.6,2.6,0,0,0,1.71-.73l0.55,0.81a3.61,3.61,0,0,1-2.37.95c-1.93,0-3.42-1.4-3.42-3.81A3.53,3.53,0,0,1,361.38,42.59Z"/><path class="cls-1" d="M367.76,42.59c1.79,0,3.38,1.4,3.38,3.84s-1.59,3.81-3.37,3.81-3.37-1.4-3.37-3.81S366,42.59,367.76,42.59Zm0,6.63c1.26,0,2.1-1.12,2.1-2.79s-0.84-2.82-2.1-2.82-2.1,1.14-2.1,2.82S366.52,49.22,367.76,49.22Z"/><path class="cls-1" d="M373.06,42.77h1l0.1,1h0a3.44,3.44,0,0,1,2.45-1.23c1.53,0,2.22,1,2.22,2.85v4.62h-1.23V45.6c0-1.37-.42-2-1.38-2a2.79,2.79,0,0,0-2,1.13v5.28h-1.23V42.77Z"/><path class="cls-1" d="M381.07,48.41a3.28,3.28,0,0,0,2.14.87,1.22,1.22,0,0,0,1.44-1.14c0-.75-0.87-1.08-1.67-1.38-1-.37-2.17-0.87-2.17-2.1s0.93-2.07,2.5-2.07a3.64,3.64,0,0,1,2.26.83l-0.58.78a2.71,2.71,0,0,0-1.67-.65,1.13,1.13,0,0,0-1.33,1c0,0.68.79,0.95,1.62,1.26,1,0.39,2.22.82,2.22,2.2,0,1.19-.95,2.18-2.67,2.18a4.39,4.39,0,0,1-2.71-1Z"/><path class="cls-1" d="M387.45,42.77h1.25v4.45c0,1.37.4,2,1.36,2a2.48,2.48,0,0,0,2-1.23V42.77h1.23v7.29h-1l-0.11-1.14h0a3.08,3.08,0,0,1-2.4,1.32c-1.55,0-2.24-1-2.24-2.85V42.77Z"/><path class="cls-1" d="M395.71,39.38h1.23v9.3c0,0.39.17,0.54,0.34,0.54a1,1,0,0,0,.27,0l0.17,0.93a1.66,1.66,0,0,1-.71.12c-0.93,0-1.31-.58-1.31-1.65V39.38Z"/><path class="cls-1" d="M399.75,43.77h-1.08V42.84l1.14-.07,0.15-2h1v2h2v1h-2v4c0,0.9.29,1.41,1.13,1.41a2.66,2.66,0,0,0,.83-0.19L403.18,50a4.51,4.51,0,0,1-1.35.27c-1.56,0-2.08-1-2.08-2.43v-4Z"/><path class="cls-1" d="M408.46,45.44c0-.93-0.31-1.83-1.5-1.83a3.93,3.93,0,0,0-2.17.78l-0.5-.85a5.41,5.41,0,0,1,2.87-.94c1.79,0,2.54,1.19,2.54,3v4.47h-1l-0.1-.87h0a4,4,0,0,1-2.42,1.05A2,2,0,0,1,404,48.17C404,46.58,405.36,45.78,408.46,45.44Zm-2,3.81a3,3,0,0,0,2-1v-2c-2.44.3-3.27,0.9-3.27,1.83A1.12,1.12,0,0,0,406.47,49.25Z"/><path class="cls-1" d="M412,42.77h1l0.1,1h0a3.44,3.44,0,0,1,2.45-1.23c1.53,0,2.22,1,2.22,2.85v4.62h-1.23V45.6c0-1.37-.42-2-1.38-2a2.79,2.79,0,0,0-2,1.13v5.28H412V42.77Z"/><path class="cls-1" d="M423.19,42.59a3,3,0,0,1,2.13.87l-0.62.79a2.2,2.2,0,0,0-1.47-.65c-1.32,0-2.28,1.14-2.28,2.82s0.92,2.79,2.25,2.79a2.6,2.6,0,0,0,1.71-.73l0.55,0.81a3.61,3.61,0,0,1-2.37.95c-1.93,0-3.42-1.4-3.42-3.81A3.53,3.53,0,0,1,423.19,42.59Z"/><path class="cls-1" d="M427.21,52.17a1.87,1.87,0,0,0,1.65-1.56l0.17-.54-2.92-7.3h1.28l1.48,4c0.23,0.63.48,1.38,0.71,2.05h0.06c0.21-.66.42-1.41,0.61-2.05l1.31-4h1.2L430,50.66c-0.51,1.44-1.26,2.53-2.73,2.53a2.42,2.42,0,0,1-.85-0.15l0.24-1A2.14,2.14,0,0,0,427.21,52.17Z"/><line class="cls-3" x1="517.89" y1="231.74" x2="517.89" y2="232.54"/><line class="cls-4" x1="517.89" y1="234.14" x2="518.19" y2="313.29"/><line class="cls-3" x1="518.19" y1="314.08" x2="518.19" y2="314.88"/><line class="cls-3" x1="517.35" y1="137.85" x2="517.35" y2="138.65"/><line class="cls-5" x1="517.36" y1="140.21" x2="517.5" y2="204.75"/><line class="cls-3" x1="517.5" y1="205.53" x2="517.5" y2="206.33"/><polygon class="cls-6" points="517.34 132.24 514.12 140.16 517.35 138.27 520.59 140.14 517.34 132.24"/><line class="cls-7" x1="350.89" y1="227.59" x2="351.15" y2="347.77"/><polygon class="cls-6" points="350.88 221.98 347.66 229.89 350.89 228.01 354.13 229.88 350.88 221.98"/><line class="cls-8" x1="350.65" y1="113.68" x2="350.88" y2="222.76"/><polygon class="cls-9" points="350.63 107.73 347.23 116.11 350.65 114.12 354.07 116.1 350.63 107.73"/><line class="cls-7" x1="364.75" y1="227.59" x2="364.93" y2="335.17"/><polygon class="cls-6" points="364.74 221.98 361.52 229.89 364.75 228.01 367.99 229.88 364.74 221.98"/><line class="cls-10" x1="364.49" y1="113.68" x2="364.74" y2="222.83"/><polygon class="cls-11" points="364.48 107.73 361.08 116.11 364.49 114.12 367.92 116.1 364.48 107.73"/><circle class="cls-2" cx="378.24" cy="340.82" r="5.65"/><line class="cls-7" x1="377.76" y1="227.59" x2="378" y2="334.15"/><polygon class="cls-6" points="377.75 221.98 374.54 229.89 377.76 228.01 381 229.88 377.75 221.98"/><line class="cls-12" x1="377.5" y1="113.68" x2="377.75" y2="223.16"/><polygon class="cls-13" points="377.49 107.73 374.08 116.11 377.5 114.12 380.93 116.1 377.49 107.73"/><circle class="cls-2" cx="695.06" cy="222.76" r="5.65"/><circle class="cls-2" cx="323.19" cy="340.82" r="5.65"/><line class="cls-7" x1="323.21" y1="227.59" x2="323.45" y2="334.39"/><polygon class="cls-6" points="323.19 221.98 319.98 229.89 323.21 228.01 326.44 229.88 323.19 221.98"/><line class="cls-14" x1="322.95" y1="113.68" x2="323.19" y2="222.76"/><polygon class="cls-15" points="322.94 107.73 319.53 116.11 322.95 114.12 326.38 116.1 322.94 107.73"/><line class="cls-7" x1="336.72" y1="227.59" x2="336.96" y2="334.39"/><polygon class="cls-6" points="336.71 221.98 333.49 229.89 336.72 228.01 339.96 229.88 336.71 221.98"/><line class="cls-16" x1="336.46" y1="113.68" x2="336.71" y2="222.76"/><polygon class="cls-17" points="336.45 107.73 333.05 116.11 336.46 114.12 339.89 116.1 336.45 107.73"/><circle class="cls-2" cx="674.95" cy="354.21" r="5.65"/><circle class="cls-2" cx="685.08" cy="340.82" r="5.65"/><circle class="cls-2" cx="664.86" cy="340.82" r="5.65"/><line class="cls-18" x1="674.62" y1="223.49" x2="675.11" y2="348.56"/><polygon class="cls-19" points="674.6 217.55 671.21 225.93 674.62 223.93 678.05 225.91 674.6 217.55"/><line class="cls-20" x1="684.63" y1="223.49" x2="684.87" y2="335.17"/><polygon class="cls-21" points="684.61 217.55 681.21 225.93 684.63 223.93 688.05 225.91 684.61 217.55"/><line class="cls-22" x1="664.73" y1="223.49" x2="664.98" y2="335.17"/><polygon class="cls-23" points="664.72 217.55 661.32 225.93 664.73 223.93 668.16 225.91 664.72 217.55"/><line class="cls-24" x1="309.98" y1="340.82" x2="276.92" y2="340.82"/><line class="cls-25" x1="336.96" y1="354.21" x2="276.92" y2="354.21"/><line class="cls-26" x1="748.47" y1="354.21" x2="689.41" y2="354.21"/><path class="cls-1" d="M763.83,342.53a2,2,0,0,0,1.63.92,1.24,1.24,0,0,0,1.34-1.05c0-.46-0.27-0.71-1.16-1.2s-1.44-1-1.44-1.73a2,2,0,0,1,2.17-1.88,2.53,2.53,0,0,1,1.86.84l-0.57.56a1.76,1.76,0,0,0-1.31-.62,1.11,1.11,0,0,0-1.2,1,1.57,1.57,0,0,0,1.12,1.12c1.13,0.62,1.48,1.11,1.48,1.79a2.09,2.09,0,0,1-2.37,1.95,2.77,2.77,0,0,1-2.17-1.2Z"/><path class="cls-1" d="M772.34,337.59c1.42,0,2,1,2,2.29a4.12,4.12,0,0,1-.22,1.23H770c-0.23,1.63.61,2.31,1.72,2.31a2.53,2.53,0,0,0,1.42-.55l0.39,0.66a3.54,3.54,0,0,1-2,.68,2.37,2.37,0,0,1-2.48-2.64A3.76,3.76,0,0,1,772.34,337.59Zm1,2.85a3.34,3.34,0,0,0,.06-0.65,1.22,1.22,0,0,0-1.22-1.4,2.47,2.47,0,0,0-2.16,2.05h3.32Z"/><path class="cls-1" d="M776.39,337.75h0.82L777.06,339h0.05a2.56,2.56,0,0,1,2-1.36,1.45,1.45,0,0,1,.6.12l-0.35.88a1.23,1.23,0,0,0-.55-0.1,2.46,2.46,0,0,0-1.86,1.59l-0.79,4h-1Z"/><path class="cls-1" d="M780,337.75h1l0.47,3.65c0.07,0.61.12,1.27,0.18,1.89h0.05c0.3-.62.61-1.26,0.94-1.89l1.86-3.65h1l-3.37,6.32h-1.2Z"/><path class="cls-1" d="M786.75,337.75h1l-1.27,6.32h-1Zm0.21-1.9a0.75,0.75,0,0,1,.75-0.75,0.6,0.6,0,0,1,.64.6,0.74,0.74,0,0,1-.75.74A0.59,0.59,0,0,1,787,335.85Z"/><path class="cls-1" d="M792.17,337.59a2.08,2.08,0,0,1,1.64.77l-0.58.62a1.32,1.32,0,0,0-1.12-.57c-1.26,0-2.44,1.48-2.44,3.21,0,1.14.49,1.77,1.5,1.77a2.3,2.3,0,0,0,1.4-.56l0.44,0.65a3.22,3.22,0,0,1-2,.74,2.27,2.27,0,0,1-2.33-2.53A3.86,3.86,0,0,1,792.17,337.59Z"/><path class="cls-1" d="M797.48,337.59c1.42,0,2,1,2,2.29a4.12,4.12,0,0,1-.22,1.23h-4.11c-0.23,1.63.61,2.31,1.72,2.31a2.53,2.53,0,0,0,1.42-.55l0.39,0.66a3.54,3.54,0,0,1-2,.68,2.37,2.37,0,0,1-2.48-2.64A3.76,3.76,0,0,1,797.48,337.59Zm1,2.85a3.34,3.34,0,0,0,.06-0.65,1.22,1.22,0,0,0-1.22-1.4,2.47,2.47,0,0,0-2.16,2.05h3.32Z"/><path class="cls-1" d="M808,337.28l0.49-2.47h1l-1.87,9.26h-0.82l0.1-.94H806.9a3.15,3.15,0,0,1-2.2,1.09c-1.11,0-1.82-.81-1.82-2.29,0-2.43,1.66-4.34,3.42-4.34a1.67,1.67,0,0,1,1.5.92h0Zm-1,4.9,0.57-2.82a1.49,1.49,0,0,0-1.29-.94c-1.26,0-2.43,1.61-2.43,3.35,0,1.09.46,1.61,1.16,1.61A2.63,2.63,0,0,0,807.05,342.18Z"/><path class="cls-1" d="M813.19,337.59c1.42,0,2,1,2,2.29a4.12,4.12,0,0,1-.22,1.23h-4.11c-0.23,1.63.61,2.31,1.72,2.31a2.53,2.53,0,0,0,1.42-.55l0.39,0.66a3.54,3.54,0,0,1-2,.68,2.37,2.37,0,0,1-2.48-2.64A3.76,3.76,0,0,1,813.19,337.59Zm1,2.85a3.34,3.34,0,0,0,.06-0.65,1.22,1.22,0,0,0-1.22-1.4,2.47,2.47,0,0,0-2.16,2.05h3.32Z"/><path class="cls-1" d="M816.15,342.53a2,2,0,0,0,1.63.92,1.24,1.24,0,0,0,1.34-1.05c0-.46-0.27-0.71-1.16-1.2s-1.44-1-1.44-1.73a2,2,0,0,1,2.17-1.88,2.53,2.53,0,0,1,1.86.84L820,339a1.76,1.76,0,0,0-1.31-.62,1.11,1.11,0,0,0-1.2,1,1.57,1.57,0,0,0,1.12,1.12c1.13,0.62,1.48,1.11,1.48,1.79a2.09,2.09,0,0,1-2.37,1.95,2.77,2.77,0,0,1-2.17-1.2Z"/><path class="cls-1" d="M822.47,337.75h1l-1.27,6.32h-1Zm0.21-1.9a0.75,0.75,0,0,1,.75-0.75,0.6,0.6,0,0,1,.64.6,0.74,0.74,0,0,1-.75.74A0.59,0.59,0,0,1,822.68,335.85Z"/><path class="cls-1" d="M830.36,337.75L829,344.36a2.89,2.89,0,0,1-3,2.61,3.48,3.48,0,0,1-2.21-.87l0.47-.69a2.74,2.74,0,0,0,1.78.75,2.06,2.06,0,0,0,2-1.88l0.31-1.3h0a3.15,3.15,0,0,1-2.15,1c-1.07,0-1.83-.75-1.83-2.22,0-2.31,1.64-4.19,3.34-4.19a1.71,1.71,0,0,1,1.52.95h0l0.25-.79h0.82Zm-1.86,4.32,0.56-2.7a1.51,1.51,0,0,0-1.29-.94c-1.22,0-2.35,1.56-2.35,3.21,0,1,.43,1.53,1.13,1.53A2.73,2.73,0,0,0,828.5,342.06Z"/><path class="cls-1" d="M832.44,337.75h0.82l-0.09.95h0.05a3.53,3.53,0,0,1,2.21-1.1,1.36,1.36,0,0,1,1.49,1.57,3.59,3.59,0,0,1-.1.87l-0.81,4h-1l0.78-3.9a3.87,3.87,0,0,0,.1-0.74,0.84,0.84,0,0,0-.94-1,3.07,3.07,0,0,0-1.9,1.14l-0.9,4.47h-1Z"/><path class="cls-1" d="M841.48,337.59c1.42,0,2,1,2,2.29a4.12,4.12,0,0,1-.22,1.23H839.1c-0.23,1.63.61,2.31,1.72,2.31a2.53,2.53,0,0,0,1.42-.55l0.39,0.66a3.54,3.54,0,0,1-2,.68,2.37,2.37,0,0,1-2.48-2.64A3.76,3.76,0,0,1,841.48,337.59Zm1,2.85a3.34,3.34,0,0,0,.06-0.65,1.22,1.22,0,0,0-1.22-1.4,2.47,2.47,0,0,0-2.16,2.05h3.32Z"/><path class="cls-1" d="M845.52,337.75h0.82L846.19,339h0.05a2.56,2.56,0,0,1,2-1.36,1.45,1.45,0,0,1,.6.12l-0.35.88a1.23,1.23,0,0,0-.55-0.1,2.46,2.46,0,0,0-1.86,1.59l-0.79,4h-1Z"/><path class="cls-1" d="M848.81,342.53a2,2,0,0,0,1.63.92,1.24,1.24,0,0,0,1.34-1.05c0-.46-0.27-0.71-1.16-1.2s-1.44-1-1.44-1.73a2,2,0,0,1,2.17-1.88,2.53,2.53,0,0,1,1.86.84l-0.57.56a1.77,1.77,0,0,0-1.31-.62,1.11,1.11,0,0,0-1.2,1,1.57,1.57,0,0,0,1.12,1.12c1.13,0.62,1.48,1.11,1.48,1.79a2.09,2.09,0,0,1-2.37,1.95,2.77,2.77,0,0,1-2.17-1.2Z"/><line class="cls-27" x1="748.47" y1="340.82" x2="698.05" y2="340.82"/><path class="cls-1" d="M767.07,210.64c1.42,0,2,1,2,2.29a4.12,4.12,0,0,1-.22,1.23h-4.11c-0.23,1.63.61,2.31,1.72,2.31a2.52,2.52,0,0,0,1.42-.55l0.39,0.66a3.54,3.54,0,0,1-2,.68,2.37,2.37,0,0,1-2.48-2.64A3.76,3.76,0,0,1,767.07,210.64Zm1,2.85a3.34,3.34,0,0,0,.06-0.65,1.22,1.22,0,0,0-1.22-1.4,2.47,2.47,0,0,0-2.16,2.05h3.32Z"/><path class="cls-1" d="M770,210.79h1l0.47,3.65c0.07,0.61.12,1.27,0.18,1.88h0.05c0.3-.62.61-1.26,0.94-1.88l1.86-3.65h1l-3.37,6.32H771Z"/><path class="cls-1" d="M778.91,210.64c1.42,0,2,1,2,2.29a4.12,4.12,0,0,1-.22,1.23h-4.11c-0.23,1.63.61,2.31,1.72,2.31a2.52,2.52,0,0,0,1.42-.55l0.39,0.66a3.54,3.54,0,0,1-2,.68,2.37,2.37,0,0,1-2.48-2.64A3.76,3.76,0,0,1,778.91,210.64Zm1,2.85a3.34,3.34,0,0,0,.06-0.65,1.22,1.22,0,0,0-1.22-1.4,2.47,2.47,0,0,0-2.16,2.05h3.32Z"/><path class="cls-1" d="M783,210.79h0.82l-0.09.95h0.05a3.53,3.53,0,0,1,2.21-1.1,1.36,1.36,0,0,1,1.5,1.57,3.6,3.6,0,0,1-.1.87l-0.81,4h-1l0.78-3.9a3.86,3.86,0,0,0,.1-0.74,0.84,0.84,0,0,0-.94-1,3.07,3.07,0,0,0-1.9,1.14l-0.9,4.47h-1Z"/><path class="cls-1" d="M789.83,211.6H788.9l0.14-.74,1-.06,0.47-1.74h0.84L791,210.79h1.6l-0.16.81h-1.62l-0.74,3.61a2.69,2.69,0,0,0,0,.47,0.68,0.68,0,0,0,.81.78,1.57,1.57,0,0,0,.66-0.2l0.22,0.72a2.89,2.89,0,0,1-1.2.29,1.31,1.31,0,0,1-1.51-1.4,6,6,0,0,1,.06-0.7Z"/><path class="cls-1" d="M797.39,217.11h-0.82l0.1-1h-0.05a3.56,3.56,0,0,1-2.18,1.12,1.36,1.36,0,0,1-1.49-1.57,3.52,3.52,0,0,1,.1-0.87l0.81-4h1l-0.79,3.9a3.86,3.86,0,0,0-.1.74,0.84,0.84,0,0,0,.94,1,3,3,0,0,0,1.87-1.14l0.9-4.47h1Z"/><path class="cls-1" d="M803,210.64a1.69,1.69,0,0,1,1.52.95h0.05l0.25-.79h0.81l-1.26,6.32h-0.82l0.1-.94h-0.05a3.15,3.15,0,0,1-2.2,1.09c-1.11,0-1.82-.81-1.82-2.29C799.59,212.55,801.25,210.64,803,210.64Zm0.75,4.59,0.57-2.82a1.49,1.49,0,0,0-1.29-.94c-1.26,0-2.43,1.61-2.43,3.35,0,1.09.46,1.61,1.16,1.61A2.61,2.61,0,0,0,803.76,215.23Z"/><path class="cls-1" d="M808.31,207.85h1l-1.62,8.1a1.09,1.09,0,0,0,0,.25,0.21,0.21,0,0,0,.22.23,0.54,0.54,0,0,0,.21,0v0.77a1.63,1.63,0,0,1-.62.1,0.75,0.75,0,0,1-.84-0.82,2.44,2.44,0,0,1,.08-0.55Z"/><path class="cls-1" d="M815.65,210.64c1.42,0,2,1,2,2.29a4.12,4.12,0,0,1-.22,1.23h-4.11c-0.23,1.63.61,2.31,1.72,2.31a2.52,2.52,0,0,0,1.42-.55l0.39,0.66a3.54,3.54,0,0,1-2,.68,2.37,2.37,0,0,1-2.48-2.64A3.76,3.76,0,0,1,815.65,210.64Zm1,2.85a3.34,3.34,0,0,0,.06-0.65,1.22,1.22,0,0,0-1.22-1.4,2.47,2.47,0,0,0-2.16,2.05h3.32Z"/><path class="cls-1" d="M820.3,213.76l-1.18-3h1l0.55,1.4c0.14,0.38.25,0.7,0.38,1.07h0.05c0.26-.35.55-0.7,0.81-1.07l1.11-1.4h1.08l-2.6,3.19,1.29,3.13h-1l-0.57-1.48c-0.14-.38-0.29-0.78-0.46-1.17h-0.05c-0.27.39-.57,0.75-0.9,1.16l-1.22,1.5h-1.09Z"/><path class="cls-1" d="M825.32,211.6h-0.92l0.14-.74,1-.06,0.47-1.74h0.85l-0.35,1.74h1.6l-0.16.81h-1.62l-0.74,3.61a2.69,2.69,0,0,0,0,.47,0.68,0.68,0,0,0,.81.78,1.57,1.57,0,0,0,.66-0.2l0.22,0.72a2.89,2.89,0,0,1-1.2.29,1.31,1.31,0,0,1-1.51-1.4,5.8,5.8,0,0,1,.06-0.7Z"/><path class="cls-1" d="M831.56,210.64c1.42,0,2,1,2,2.29a4.12,4.12,0,0,1-.22,1.23h-4.11c-0.23,1.63.61,2.31,1.72,2.31a2.52,2.52,0,0,0,1.42-.55l0.39,0.66a3.54,3.54,0,0,1-2,.68,2.37,2.37,0,0,1-2.48-2.64A3.76,3.76,0,0,1,831.56,210.64Zm1,2.85a3.34,3.34,0,0,0,.06-0.65,1.22,1.22,0,0,0-1.22-1.4,2.47,2.47,0,0,0-2.16,2.05h3.32Z"/><path class="cls-1" d="M835.6,210.79h0.82L836.28,212h0.05a2.56,2.56,0,0,1,2-1.36,1.45,1.45,0,0,1,.6.12l-0.35.88a1.23,1.23,0,0,0-.55-0.1,2.46,2.46,0,0,0-1.86,1.59l-0.79,4h-1Z"/><path class="cls-1" d="M840,210.79h0.82l-0.09.95h0.05a3.53,3.53,0,0,1,2.21-1.1,1.36,1.36,0,0,1,1.49,1.57,3.59,3.59,0,0,1-.1.87l-0.81,4h-1l0.78-3.9a3.86,3.86,0,0,0,.1-0.74,0.84,0.84,0,0,0-.94-1,3.07,3.07,0,0,0-1.9,1.14l-0.9,4.47h-1Z"/><path class="cls-1" d="M849.15,210.64a1.69,1.69,0,0,1,1.52.95h0.05l0.25-.79h0.81l-1.26,6.32h-0.82l0.1-.94h-0.05a3.15,3.15,0,0,1-2.2,1.09c-1.11,0-1.82-.81-1.82-2.29C845.73,212.55,847.39,210.64,849.15,210.64Zm0.75,4.59,0.57-2.82a1.48,1.48,0,0,0-1.29-.94c-1.26,0-2.43,1.61-2.43,3.35,0,1.09.46,1.61,1.16,1.61A2.6,2.6,0,0,0,849.9,215.23Z"/><path class="cls-1" d="M854.45,207.85h1l-1.62,8.1a1.09,1.09,0,0,0,0,.25,0.21,0.21,0,0,0,.22.23,0.54,0.54,0,0,0,.21,0v0.77a1.63,1.63,0,0,1-.62.1,0.75,0.75,0,0,1-.84-0.82,2.44,2.44,0,0,1,.08-0.55Z"/><path class="cls-1" d="M771.16,225.92l0.49-2.47h1l-1.87,9.26H770l0.1-.94H770a3.15,3.15,0,0,1-2.2,1.09c-1.11,0-1.82-.81-1.82-2.29,0-2.43,1.66-4.34,3.42-4.34a1.67,1.67,0,0,1,1.5.92h0Zm-1,4.9,0.57-2.82a1.49,1.49,0,0,0-1.29-.94c-1.26,0-2.43,1.61-2.43,3.35,0,1.09.46,1.61,1.16,1.61A2.63,2.63,0,0,0,770.17,230.83Z"/><path class="cls-1" d="M776.31,226.24c1.42,0,2,1,2,2.29a4.12,4.12,0,0,1-.22,1.23h-4.11c-0.23,1.63.61,2.31,1.72,2.31a2.53,2.53,0,0,0,1.42-.55l0.39,0.66a3.54,3.54,0,0,1-2,.68,2.37,2.37,0,0,1-2.48-2.64A3.76,3.76,0,0,1,776.31,226.24Zm1,2.85a3.34,3.34,0,0,0,.06-0.65,1.22,1.22,0,0,0-1.22-1.4,2.47,2.47,0,0,0-2.16,2.05h3.32Z"/><path class="cls-1" d="M779.27,231.18a2,2,0,0,0,1.63.92,1.24,1.24,0,0,0,1.34-1.05c0-.46-0.27-0.71-1.16-1.2s-1.44-1-1.44-1.73a2,2,0,0,1,2.17-1.88,2.53,2.53,0,0,1,1.86.84l-0.57.56a1.76,1.76,0,0,0-1.31-.62,1.11,1.11,0,0,0-1.2,1,1.57,1.57,0,0,0,1.12,1.12c1.13,0.62,1.48,1.11,1.48,1.79a2.09,2.09,0,0,1-2.37,1.95,2.77,2.77,0,0,1-2.17-1.2Z"/><path class="cls-1" d="M785.59,226.39h1l-1.27,6.32h-1Zm0.21-1.9a0.75,0.75,0,0,1,.75-0.75,0.6,0.6,0,0,1,.64.6,0.74,0.74,0,0,1-.75.74A0.59,0.59,0,0,1,785.8,224.49Z"/><path class="cls-1" d="M793.48,226.39L792.15,233a2.89,2.89,0,0,1-3,2.61,3.48,3.48,0,0,1-2.21-.87l0.47-.69a2.74,2.74,0,0,0,1.78.75,2.06,2.06,0,0,0,2-1.88l0.31-1.3h0a3.15,3.15,0,0,1-2.15,1c-1.07,0-1.83-.75-1.83-2.22,0-2.31,1.64-4.19,3.34-4.19a1.71,1.71,0,0,1,1.52.95h0l0.25-.79h0.82Zm-1.86,4.32,0.56-2.7a1.51,1.51,0,0,0-1.29-.94c-1.22,0-2.35,1.56-2.35,3.21,0,1,.43,1.53,1.13,1.53A2.73,2.73,0,0,0,791.62,230.71Z"/><path class="cls-1" d="M795.56,226.39h0.82l-0.09.95h0.05a3.53,3.53,0,0,1,2.21-1.1,1.36,1.36,0,0,1,1.5,1.57,3.6,3.6,0,0,1-.1.87l-0.81,4h-1l0.78-3.9a3.87,3.87,0,0,0,.1-0.74,0.84,0.84,0,0,0-.94-1,3.07,3.07,0,0,0-1.9,1.14l-0.9,4.47h-1Z"/><path class="cls-1" d="M803.8,231.18a2,2,0,0,0,1.63.92,1.24,1.24,0,0,0,1.34-1.05c0-.46-0.27-0.71-1.16-1.2s-1.44-1-1.44-1.73a2,2,0,0,1,2.17-1.88,2.53,2.53,0,0,1,1.86.84l-0.57.56a1.77,1.77,0,0,0-1.31-.62,1.11,1.11,0,0,0-1.2,1,1.57,1.57,0,0,0,1.12,1.12c1.13,0.62,1.48,1.11,1.48,1.79a2.09,2.09,0,0,1-2.37,1.95,2.77,2.77,0,0,1-2.17-1.2Z"/><path class="cls-1" d="M809.72,233.31l-0.4,2.07h-1l1.79-9h0.82l-0.08.83h0a3.58,3.58,0,0,1,2.18-1c1.11,0,1.82.82,1.82,2.29,0,2.43-1.66,4.34-3.41,4.34A1.78,1.78,0,0,1,810,232h0Zm1.05-5.2-0.6,3a1.45,1.45,0,0,0,1.29.91c1.26,0,2.42-1.61,2.42-3.37,0-1.07-.44-1.6-1.16-1.6A2.94,2.94,0,0,0,810.77,228.11Z"/><path class="cls-1" d="M819.27,226.24c1.42,0,2,1,2,2.29a4.12,4.12,0,0,1-.22,1.23h-4.11c-0.23,1.63.61,2.31,1.72,2.31a2.53,2.53,0,0,0,1.42-.55l0.39,0.66a3.54,3.54,0,0,1-2,.68,2.37,2.37,0,0,1-2.48-2.64A3.76,3.76,0,0,1,819.27,226.24Zm1,2.85a3.34,3.34,0,0,0,.06-0.65,1.22,1.22,0,0,0-1.22-1.4,2.47,2.47,0,0,0-2.16,2.05h3.32Z"/><path class="cls-1" d="M825.67,226.24a2.08,2.08,0,0,1,1.64.77l-0.58.62a1.32,1.32,0,0,0-1.12-.57c-1.26,0-2.44,1.48-2.44,3.21,0,1.14.49,1.77,1.5,1.77a2.3,2.3,0,0,0,1.4-.56l0.44,0.65a3.22,3.22,0,0,1-2,.74,2.27,2.27,0,0,1-2.33-2.53A3.86,3.86,0,0,1,825.67,226.24Z"/><path class="cls-1" d="M829,226.39h1l-1.27,6.32h-1Zm0.21-1.9a0.75,0.75,0,0,1,.75-0.75,0.6,0.6,0,0,1,.64.6,0.74,0.74,0,0,1-.75.74A0.59,0.59,0,0,1,829.19,224.49Z"/><path class="cls-1" d="M834.33,226.24a1.69,1.69,0,0,1,1.52.95h0.05l0.25-.79H837l-1.26,6.32h-0.82l0.1-.94h-0.05a3.15,3.15,0,0,1-2.2,1.09c-1.11,0-1.82-.81-1.82-2.29C830.91,228.15,832.57,226.24,834.33,226.24Zm0.75,4.59,0.57-2.82a1.49,1.49,0,0,0-1.29-.94c-1.26,0-2.43,1.61-2.43,3.35,0,1.09.46,1.61,1.16,1.61A2.61,2.61,0,0,0,835.08,230.83Z"/><path class="cls-1" d="M839.63,223.45h1l-1.62,8.1a1.09,1.09,0,0,0,0,.25,0.21,0.21,0,0,0,.22.23,0.54,0.54,0,0,0,.21,0v0.77a1.64,1.64,0,0,1-.62.1A0.75,0.75,0,0,1,838,232a2.44,2.44,0,0,1,.08-0.55Z"/><path class="cls-1" d="M842.27,226.39h1L842,232.71h-1Zm0.21-1.9a0.75,0.75,0,0,1,.75-0.75,0.6,0.6,0,0,1,.64.6,0.74,0.74,0,0,1-.75.74A0.59,0.59,0,0,1,842.48,224.49Z"/><path class="cls-1" d="M844.26,231.18a2,2,0,0,0,1.63.92,1.24,1.24,0,0,0,1.34-1.05c0-.46-0.27-0.71-1.16-1.2s-1.44-1-1.44-1.73a2,2,0,0,1,2.17-1.88,2.53,2.53,0,0,1,1.86.84l-0.57.56a1.77,1.77,0,0,0-1.31-.62,1.11,1.11,0,0,0-1.2,1,1.57,1.57,0,0,0,1.12,1.12c1.13,0.62,1.48,1.11,1.48,1.79a2.09,2.09,0,0,1-2.37,1.95,2.77,2.77,0,0,1-2.17-1.2Z"/><path class="cls-1" d="M850.61,227.2h-0.92l0.14-.74,1-.06,0.47-1.74h0.85l-0.35,1.74h1.6l-0.16.81H851.6l-0.74,3.61a2.69,2.69,0,0,0,0,.47,0.68,0.68,0,0,0,.81.78,1.57,1.57,0,0,0,.66-0.2l0.22,0.72a2.89,2.89,0,0,1-1.2.29,1.31,1.31,0,0,1-1.51-1.4,5.78,5.78,0,0,1,.06-0.7Z"/><line class="cls-28" x1="748.47" y1="221.18" x2="714.81" y2="221.18"/><line class="cls-3" x1="674.5" y1="108.47" x2="674.5" y2="109.26"/><line class="cls-29" x1="674.51" y1="110.86" x2="674.98" y2="215.45"/><line class="cls-3" x1="674.98" y1="216.25" x2="674.98" y2="217.05"/><polygon class="cls-6" points="674.47 102.85 671.28 110.78 674.5 108.89 677.74 110.75 674.47 102.85"/><line class="cls-3" x1="684.5" y1="108.47" x2="684.51" y2="109.26"/><line class="cls-30" x1="684.51" y1="110.86" x2="684.74" y2="215.86"/><line class="cls-3" x1="684.75" y1="216.66" x2="684.75" y2="217.46"/><polygon class="cls-6" points="684.49 102.85 681.28 110.77 684.51 108.89 687.74 110.75 684.49 102.85"/><line class="cls-7" x1="694.94" y1="108.47" x2="695.19" y2="217.46"/><polygon class="cls-6" points="694.93 102.85 691.72 110.77 694.94 108.89 698.18 110.75 694.93 102.85"/><line class="cls-3" x1="664.61" y1="108.47" x2="664.61" y2="109.26"/><line class="cls-30" x1="664.62" y1="110.86" x2="664.85" y2="215.86"/><line class="cls-3" x1="664.85" y1="216.66" x2="664.85" y2="217.46"/><polygon class="cls-6" points="664.6 102.85 661.38 110.77 664.61 108.89 667.85 110.75 664.6 102.85"/><path class="cls-1" d="M496.92,321.39h0.49l0.05,1.16h0a2.14,2.14,0,0,1,1.77-1.31,1.28,1.28,0,0,1,.62.13l-0.13.52a1.36,1.36,0,0,0-.57-0.1c-0.56,0-1.22.43-1.7,1.6v4.25h-0.57v-6.24Z"/><path class="cls-1" d="M503.11,321.23c1.48,0,2.39,1.05,2.39,2.89a2.79,2.79,0,0,1,0,.47H501a2.45,2.45,0,0,0,2.35,2.7,2.76,2.76,0,0,0,1.68-.56l0.23,0.44a3.48,3.48,0,0,1-2,.61,3,3,0,0,1-2.89-3.26C500.39,322.48,501.72,321.23,503.11,321.23Zm1.85,2.91c0-1.6-.71-2.42-1.83-2.42a2.36,2.36,0,0,0-2.15,2.42h4Z"/><path class="cls-1" d="M506.75,326.5a2.9,2.9,0,0,0,2,.79,1.3,1.3,0,0,0,1.48-1.24c0-.78-0.81-1.12-1.52-1.38-0.95-.34-2-0.71-2-1.78a1.76,1.76,0,0,1,2-1.66,2.89,2.89,0,0,1,1.78.65l-0.31.4a2.36,2.36,0,0,0-1.5-.56,1.21,1.21,0,0,0-1.4,1.13c0,0.69.73,1,1.47,1.26,1,0.36,2,.69,2,1.91a1.86,1.86,0,0,1-2.11,1.76,3.61,3.61,0,0,1-2.29-.86Z"/><path class="cls-1" d="M514.65,321.23c1.48,0,2.39,1.05,2.39,2.89a2.79,2.79,0,0,1,0,.47h-4.5a2.45,2.45,0,0,0,2.35,2.7,2.76,2.76,0,0,0,1.68-.56l0.23,0.44a3.48,3.48,0,0,1-2,.61,3,3,0,0,1-2.89-3.26C511.93,322.48,513.26,321.23,514.65,321.23Zm1.85,2.91c0-1.6-.71-2.42-1.83-2.42a2.36,2.36,0,0,0-2.15,2.42h4Z"/><path class="cls-1" d="M522.22,323.72c0-.95-0.25-2-1.47-2a3.44,3.44,0,0,0-2,.73L518.5,322a4.16,4.16,0,0,1,2.31-.81c1.48,0,2,1.07,2,2.41v4h-0.48l-0.06-.81h0a3.7,3.7,0,0,1-2.21,1,1.64,1.64,0,0,1-1.82-1.72C518.19,324.69,519.45,324,522.22,323.72Zm-2.12,3.58a3.27,3.27,0,0,0,2.12-1v-2.12c-2.56.3-3.43,0.9-3.43,1.89A1.17,1.17,0,0,0,520.1,327.29Z"/><path class="cls-1" d="M525,321.39h0.49l0.05,1.16h0a2.14,2.14,0,0,1,1.77-1.31,1.28,1.28,0,0,1,.62.13l-0.13.52a1.36,1.36,0,0,0-.57-0.1c-0.56,0-1.22.43-1.7,1.6v4.25H525v-6.24Z"/><path class="cls-1" d="M531.34,321.23a2.56,2.56,0,0,1,1.83.77l-0.34.4a2.13,2.13,0,0,0-1.48-.66c-1.27,0-2.26,1.13-2.26,2.78s0.9,2.76,2.26,2.76a2.51,2.51,0,0,0,1.66-.71l0.3,0.39a3,3,0,0,1-2,.83c-1.61,0-2.83-1.2-2.83-3.26S529.82,321.23,531.34,321.23Z"/><path class="cls-1" d="M534.85,318.28h0.57v4.08a3.07,3.07,0,0,1,2.16-1.13c1.29,0,1.89.78,1.89,2.39v4H538.9V323.7c0-1.33-.42-1.95-1.43-1.95a2.86,2.86,0,0,0-2,1.17v4.71h-0.57v-9.35Z"/><path class="cls-1" d="M499.35,341a6.68,6.68,0,0,1-1.83-1.08,3.21,3.21,0,0,1-2.34,1.08,2.32,2.32,0,0,1-2.47-2.33c0-1.13.86-1.86,1.75-2.52a5,5,0,0,1-.57-2.12,1.77,1.77,0,0,1,1.77-1.91,1.4,1.4,0,0,1,1.43,1.56c0,1.1-1,1.83-2,2.56a11.46,11.46,0,0,0,2.38,2.94,7.79,7.79,0,0,0,1.35-2.82h0.56a9.21,9.21,0,0,1-1.52,3.15,6.1,6.1,0,0,0,1.66,1Zm-2.22-1.42a12.45,12.45,0,0,1-2.43-3,2.83,2.83,0,0,0-1.4,2.07,1.86,1.86,0,0,0,1.94,1.87A2.73,2.73,0,0,0,497.13,339.56Zm-2.22-3.76c0.87-.62,1.66-1.24,1.66-2.12a1,1,0,0,0-.94-1.12,1.27,1.27,0,0,0-1.21,1.42A4.33,4.33,0,0,0,494.9,335.81Z"/><path class="cls-1" d="M503.05,339.69a2.9,2.9,0,0,0,2,.79,1.3,1.3,0,0,0,1.48-1.24c0-.78-0.81-1.12-1.52-1.38-0.95-.34-2-0.71-2-1.78a1.76,1.76,0,0,1,2-1.66,2.89,2.89,0,0,1,1.78.65l-0.31.4a2.36,2.36,0,0,0-1.5-.56,1.21,1.21,0,0,0-1.4,1.13c0,0.69.73,1,1.47,1.26,1,0.36,2,.69,2,1.91A1.86,1.86,0,0,1,505,341a3.61,3.61,0,0,1-2.29-.86Z"/><path class="cls-1" d="M508.91,335.08h-1v-0.44l1-.05,0.08-1.81h0.49v1.81h1.81v0.49h-1.81v4.07c0,0.79.2,1.33,1.05,1.33a2.09,2.09,0,0,0,.78-0.19l0.16,0.47a3.49,3.49,0,0,1-1,.23c-1.21,0-1.56-.77-1.56-1.89v-4Z"/><path class="cls-1" d="M512.82,334.58h0.49l0.05,1.16h0a2.14,2.14,0,0,1,1.77-1.31,1.28,1.28,0,0,1,.62.13l-0.13.52a1.36,1.36,0,0,0-.57-0.1c-0.56,0-1.22.43-1.7,1.6v4.25h-0.57v-6.24Z"/><path class="cls-1" d="M520.32,336.91c0-.95-0.25-2-1.47-2a3.44,3.44,0,0,0-2,.73l-0.26-.43a4.16,4.16,0,0,1,2.31-.81c1.48,0,2,1.07,2,2.41v4h-0.48l-0.06-.81h0a3.7,3.7,0,0,1-2.21,1,1.64,1.64,0,0,1-1.82-1.72C516.29,337.89,517.55,337.22,520.32,336.91Zm-2.12,3.58a3.27,3.27,0,0,0,2.12-1v-2.12c-2.56.3-3.43,0.9-3.43,1.89A1.17,1.17,0,0,0,518.2,340.49Z"/><path class="cls-1" d="M523.27,335.08h-1v-0.44l1-.05,0.08-1.81h0.49v1.81h1.81v0.49h-1.81v4.07c0,0.79.2,1.33,1.05,1.33a2.09,2.09,0,0,0,.78-0.19l0.16,0.47a3.49,3.49,0,0,1-1,.23c-1.21,0-1.56-.77-1.56-1.89v-4Z"/><path class="cls-1" d="M529.25,334.43c1.48,0,2.39,1.05,2.39,2.89a2.79,2.79,0,0,1,0,.47h-4.5a2.45,2.45,0,0,0,2.35,2.7,2.76,2.76,0,0,0,1.68-.56l0.23,0.44a3.48,3.48,0,0,1-2,.61,3,3,0,0,1-2.89-3.26C526.53,335.68,527.86,334.43,529.25,334.43Zm1.85,2.91c0-1.6-.71-2.42-1.83-2.42a2.36,2.36,0,0,0-2.15,2.42h4Z"/><path class="cls-1" d="M533.6,340.59v-0.05a1.11,1.11,0,0,1-.55-1,1.47,1.47,0,0,1,.68-1.14v-0.05a2.33,2.33,0,0,1-.78-1.72,2.15,2.15,0,0,1,2.2-2.2,2.22,2.22,0,0,1,.82.16h2.12v0.48h-1.46a2.08,2.08,0,0,1,.69,1.57,2.13,2.13,0,0,1-2.17,2.2,2.16,2.16,0,0,1-1-.26,1.12,1.12,0,0,0-.51.9c0,0.46.26,0.82,1.2,0.82h1.34c1.4,0,2.05.44,2.05,1.43s-1.16,2.11-3,2.11c-1.57,0-2.56-.68-2.56-1.73A2,2,0,0,1,533.6,340.59Zm1.7,2.77c1.4,0,2.3-.79,2.3-1.57s-0.51-.95-1.44-0.95h-1.34a3.9,3.9,0,0,1-.78-0.1,1.63,1.63,0,0,0-.82,1.31C533.23,342.83,534,343.36,535.31,343.36Zm1.46-6.73a1.62,1.62,0,1,0-3.24,0A1.62,1.62,0,1,0,536.76,336.63Z"/><path class="cls-1" d="M539.29,343.14c0.77,0,1.29-.7,1.6-1.65l0.17-.55-2.56-6.36h0.62l1.51,3.93c0.2,0.52.44,1.2,0.68,1.74h0.05c0.2-.55.4-1.22,0.57-1.74l1.34-3.93h0.58l-2.47,7c-0.35,1-1,2.07-2.09,2.07a1.59,1.59,0,0,1-.64-0.13l0.13-.51A1.45,1.45,0,0,0,539.29,343.14Z"/><path class="cls-1" d="M497.34,216.51a0.52,0.52,0,1,1,.52.51A0.5,0.5,0,0,1,497.34,216.51Zm0.22,2h0.57v6.24h-0.57v-6.24Z"/><path class="cls-1" d="M502.78,218.36a2.88,2.88,0,0,1,1.88.77l0-1.14v-2.57h0.57v9.35h-0.49l-0.05-.81h0a2.92,2.92,0,0,1-2,1c-1.57,0-2.59-1.16-2.59-3.26S501.3,218.36,502.78,218.36Zm-0.1,6a2.81,2.81,0,0,0,2-1v-3.71a2.64,2.64,0,0,0-1.82-.81c-1.25,0-2.2,1.21-2.2,2.78S501.35,224.41,502.68,224.41Z"/><path class="cls-1" d="M509.8,218.36c1.48,0,2.39,1.05,2.39,2.89a2.79,2.79,0,0,1,0,.47h-4.5a2.45,2.45,0,0,0,2.35,2.7,2.76,2.76,0,0,0,1.68-.56l0.23,0.44a3.48,3.48,0,0,1-2,.61,3,3,0,0,1-2.89-3.26C507.09,219.61,508.41,218.36,509.8,218.36Zm1.85,2.91c0-1.6-.71-2.42-1.83-2.42a2.36,2.36,0,0,0-2.15,2.42h4Z"/><path class="cls-1" d="M517.37,220.85c0-.95-0.25-2-1.47-2a3.44,3.44,0,0,0-2,.73l-0.26-.43a4.16,4.16,0,0,1,2.31-.81c1.48,0,2,1.07,2,2.41v4h-0.48L517.4,224h0a3.7,3.7,0,0,1-2.21,1,1.64,1.64,0,0,1-1.82-1.72C513.34,221.82,514.6,221.16,517.37,220.85Zm-2.12,3.58a3.27,3.27,0,0,0,2.12-1v-2.12c-2.56.3-3.43,0.9-3.43,1.89A1.17,1.17,0,0,0,515.25,224.42Z"/><path class="cls-1" d="M520.32,219h-1v-0.44l1-.05,0.08-1.81h0.49v1.81h1.81V219H520.9v4.07c0,0.79.2,1.33,1.05,1.33a2.09,2.09,0,0,0,.78-0.19l0.16,0.47a3.49,3.49,0,0,1-1,.23c-1.21,0-1.56-.77-1.56-1.89v-4Z"/><path class="cls-1" d="M524,216.51a0.52,0.52,0,1,1,.52.51A0.5,0.5,0,0,1,524,216.51Zm0.22,2h0.57v6.24h-0.57v-6.24Z"/><path class="cls-1" d="M529.48,218.36c1.51,0,2.81,1.2,2.81,3.29s-1.3,3.26-2.81,3.26-2.79-1.2-2.79-3.26S528,218.36,529.48,218.36Zm0,6c1.26,0,2.21-1.12,2.21-2.76s-0.95-2.78-2.21-2.78-2.2,1.13-2.2,2.78S528.22,224.41,529.48,224.41Z"/><path class="cls-1" d="M534.17,218.52h0.49l0.05,1h0a3,3,0,0,1,2.14-1.12c1.29,0,1.89.78,1.89,2.39v4h-0.57v-3.93c0-1.33-.42-1.95-1.43-1.95a2.86,2.86,0,0,0-2,1.17v4.71h-0.57v-6.24Z"/><path class="cls-1" d="M476.65,109.92a0.52,0.52,0,1,1,.52.51A0.5,0.5,0,0,1,476.65,109.92Zm0.22,2h0.57v6.24h-0.57v-6.24Z"/><path class="cls-1" d="M479.85,111.94h0.49l0.05,1h0a2.86,2.86,0,0,1,2-1.12,1.62,1.62,0,0,1,1.73,1.27,3.13,3.13,0,0,1,2.12-1.27c1.25,0,1.87.78,1.87,2.39v4h-0.58v-3.93c0-1.33-.44-2-1.39-2a2.72,2.72,0,0,0-1.87,1.17v4.71H483.7v-3.93c0-1.33-.44-2-1.4-2a2.77,2.77,0,0,0-1.87,1.17v4.71h-0.57v-6.24Z"/><path class="cls-1" d="M491,118.72V121h-0.57v-9.06h0.49l0.05,0.78h0a3.65,3.65,0,0,1,2.12-.94c1.66,0,2.5,1.25,2.5,3.19,0,2.12-1.29,3.37-2.76,3.37a3.29,3.29,0,0,1-1.87-.77v1.16Zm1.85-.9c1.26,0,2.17-1.17,2.17-2.86,0-1.53-.55-2.68-2-2.68a3.3,3.3,0,0,0-2,1V117A3.05,3.05,0,0,0,492.83,117.83Z"/><path class="cls-1" d="M497.48,108.83H498v8.59c0,0.27.12,0.4,0.27,0.4a1,1,0,0,0,.23,0l0.1,0.47a1.21,1.21,0,0,1-.42.06c-0.51,0-.77-0.31-0.77-1v-8.52Z"/><path class="cls-1" d="M502.76,111.78c1.48,0,2.39,1.05,2.39,2.89a2.79,2.79,0,0,1,0,.47h-4.5a2.45,2.45,0,0,0,2.35,2.7,2.76,2.76,0,0,0,1.68-.56l0.23,0.44a3.48,3.48,0,0,1-2,.61,3,3,0,0,1-2.89-3.26C500,113,501.37,111.78,502.76,111.78Zm1.85,2.91c0-1.6-.71-2.42-1.83-2.42a2.36,2.36,0,0,0-2.15,2.42h4Z"/><path class="cls-1" d="M506.84,111.94h0.49l0.05,1h0a2.86,2.86,0,0,1,2-1.12,1.62,1.62,0,0,1,1.73,1.27,3.13,3.13,0,0,1,2.12-1.27c1.25,0,1.87.78,1.87,2.39v4h-0.58v-3.93c0-1.33-.44-2-1.39-2a2.72,2.72,0,0,0-1.87,1.17v4.71h-0.57v-3.93c0-1.33-.44-2-1.4-2a2.77,2.77,0,0,0-1.87,1.17v4.71h-0.57v-6.24Z"/><path class="cls-1" d="M519.59,111.78c1.48,0,2.39,1.05,2.39,2.89a2.79,2.79,0,0,1,0,.47h-4.5a2.45,2.45,0,0,0,2.35,2.7,2.76,2.76,0,0,0,1.68-.56l0.23,0.44a3.48,3.48,0,0,1-2,.61,3,3,0,0,1-2.89-3.26C516.87,113,518.2,111.78,519.59,111.78Zm1.85,2.91c0-1.6-.71-2.42-1.83-2.42a2.36,2.36,0,0,0-2.15,2.42h4Z"/><path class="cls-1" d="M523.67,111.94h0.49l0.05,1h0a3,3,0,0,1,2.14-1.12c1.29,0,1.89.78,1.89,2.39v4h-0.57v-3.93c0-1.33-.42-2-1.43-2a2.86,2.86,0,0,0-2,1.17v4.71h-0.57v-6.24Z"/><path class="cls-1" d="M530.73,112.43h-1V112l1-.05,0.08-1.81h0.49v1.81h1.81v0.49h-1.81v4.07c0,0.79.2,1.33,1.05,1.33a2.09,2.09,0,0,0,.78-0.19l0.16,0.47a3.47,3.47,0,0,1-1,.23c-1.21,0-1.56-.77-1.56-1.88v-4Z"/><path class="cls-1" d="M538.05,114.27c0-.95-0.25-2-1.47-2a3.44,3.44,0,0,0-2,.73l-0.26-.43a4.16,4.16,0,0,1,2.31-.81c1.48,0,2,1.07,2,2.4v4h-0.48l-0.06-.81h0a3.7,3.7,0,0,1-2.21,1,1.64,1.64,0,0,1-1.82-1.72C534,115.24,535.28,114.58,538.05,114.27Zm-2.12,3.58a3.27,3.27,0,0,0,2.12-1v-2.12c-2.56.3-3.43,0.9-3.43,1.89A1.17,1.17,0,0,0,535.93,117.84Z"/><path class="cls-1" d="M541,112.43h-1V112l1-.05,0.08-1.81h0.49v1.81h1.81v0.49h-1.81v4.07c0,0.79.2,1.33,1.05,1.33a2.09,2.09,0,0,0,.78-0.19l0.16,0.47a3.47,3.47,0,0,1-1,.23c-1.21,0-1.56-.77-1.56-1.88v-4Z"/><path class="cls-1" d="M544.69,109.92a0.52,0.52,0,1,1,.52.51A0.5,0.5,0,0,1,544.69,109.92Zm0.22,2h0.57v6.24h-0.57v-6.24Z"/><path class="cls-1" d="M550.17,111.78c1.51,0,2.81,1.2,2.81,3.29s-1.3,3.26-2.81,3.26-2.79-1.2-2.79-3.26S548.67,111.78,550.17,111.78Zm0,6c1.26,0,2.21-1.12,2.21-2.76s-0.95-2.78-2.21-2.78-2.2,1.13-2.2,2.78S548.91,117.83,550.17,117.83Z"/><path class="cls-1" d="M554.85,111.94h0.49l0.05,1h0a3,3,0,0,1,2.14-1.12c1.29,0,1.89.78,1.89,2.39v4h-0.57v-3.93c0-1.33-.42-2-1.43-2a2.86,2.86,0,0,0-2,1.17v4.71h-0.57v-6.24Z"/></svg>