<svg id="Layer_1" data-name="Layer 1" xmlns="http://www.w3.org/2000/svg" xmlns:xlink="http://www.w3.org/1999/xlink" viewBox="0 0 353.69 491.54"><defs><style>.cls-1,.cls-10,.cls-12,.cls-14,.cls-16,.cls-18,.cls-2,.cls-20,.cls-22,.cls-24,.cls-25,.cls-26,.cls-3,.cls-6,.cls-7,.cls-8{fill:none;stroke-miterlimit:10;}.cls-1,.cls-2,.cls-25,.cls-26,.cls-3,.cls-6,.cls-7{stroke:#5c9ad2;}.cls-1,.cls-2,.cls-25,.cls-26,.cls-3,.cls-7{stroke-width:0.79px;}.cls-2{stroke-dasharray:1.62 1.62;}.cls-3{stroke-dasharray:1.59 1.59;}.cls-4{fill:#5c9ad2;}.cls-5{fill:#231f20;}.cls-7{stroke-dasharray:1.59 1.59;}.cls-10,.cls-12,.cls-14,.cls-16,.cls-18,.cls-20,.cls-22,.cls-8{stroke-width:0.84px;}.cls-8{stroke:url(#linear-gradient);}.cls-9{fill:url(#linear-gradient-2);}.cls-10{stroke:url(#linear-gradient-3);}.cls-11{fill:url(#linear-gradient-4);}.cls-12{stroke:url(#linear-gradient-5);}.cls-13{fill:url(#linear-gradient-6);}.cls-14{stroke:url(#linear-gradient-7);}.cls-15{fill:url(#linear-gradient-8);}.cls-16{stroke:url(#linear-gradient-9);}.cls-17{fill:url(#linear-gradient-10);}.cls-18{stroke:url(#linear-gradient-11);}.cls-19{fill:url(#linear-gradient-12);}.cls-20{stroke:url(#linear-gradient-13);}.cls-21{fill:url(#linear-gradient-14);}.cls-22{stroke:url(#linear-gradient-15);}.cls-23{fill:url(#linear-gradient-16);}.cls-24{stroke:#231f20;stroke-width:0.25px;}.cls-25{stroke-dasharray:1.6 1.6;}.cls-26{stroke-dasharray:1.6 1.6;}</style><linearGradient id="linear-gradient" x1="70.2" y1="204.21" x2="70.2" y2="89.18" gradientUnits="userSpaceOnUse"><stop offset="0" stop-color="#b2cfe4"/><stop offset="1" stop-color="#5c9ad2"/></linearGradient><linearGradient id="linear-gradient-2" x1="70.09" y1="204.21" x2="70.09" y2="89.18" xlink:href="#linear-gradient"/><linearGradient id="linear-gradient-3" x1="83.55" y1="204.28" x2="83.55" y2="89.18" xlink:href="#linear-gradient"/><linearGradient id="linear-gradient-4" x1="83.43" y1="204.28" x2="83.43" y2="89.18" xlink:href="#linear-gradient"/><linearGradient id="linear-gradient-5" x1="96.56" y1="204.61" x2="96.56" y2="89.18" xlink:href="#linear-gradient"/><linearGradient id="linear-gradient-6" x1="96.44" y1="204.61" x2="96.44" y2="89.18" xlink:href="#linear-gradient"/><linearGradient id="linear-gradient-7" x1="42.51" y1="204.21" x2="42.51" y2="89.18" xlink:href="#linear-gradient"/><linearGradient id="linear-gradient-8" x1="42.39" y1="204.21" x2="42.39" y2="89.18" xlink:href="#linear-gradient"/><linearGradient id="linear-gradient-9" x1="56.02" y1="204.21" x2="56.02" y2="89.18" xlink:href="#linear-gradient"/><linearGradient id="linear-gradient-10" x1="55.9" y1="204.21" x2="55.9" y2="89.18" xlink:href="#linear-gradient"/><linearGradient id="linear-gradient-11" x1="273.8" y1="330.01" x2="273.8" y2="198.99" xlink:href="#linear-gradient"/><linearGradient id="linear-gradient-12" x1="273.57" y1="330.01" x2="273.57" y2="198.99" xlink:href="#linear-gradient"/><linearGradient id="linear-gradient-13" x1="283.69" y1="316.62" x2="283.69" y2="198.99" xlink:href="#linear-gradient"/><linearGradient id="linear-gradient-14" x1="283.57" y1="316.62" x2="283.57" y2="198.99" xlink:href="#linear-gradient"/><linearGradient id="linear-gradient-15" x1="263.8" y1="316.62" x2="263.8" y2="198.99" xlink:href="#linear-gradient"/><linearGradient id="linear-gradient-16" x1="263.68" y1="316.62" x2="263.68" y2="198.99" xlink:href="#linear-gradient"/></defs><title>thesis_final_website</title><line class="cls-1" x1="177.37" y1="228.6" x2="177.37" y2="229.4"/><line class="cls-2" x1="177.38" y1="231.01" x2="177.67" y2="301.41"/><line class="cls-1" x1="177.67" y1="302.21" x2="177.68" y2="303.01"/><line class="cls-1" x1="176.87" y1="114.05" x2="176.87" y2="114.84"/><line class="cls-3" x1="176.88" y1="116.43" x2="177.27" y2="191.91"/><line class="cls-1" x1="177.27" y1="192.71" x2="177.28" y2="193.5"/><path class="cls-4" d="M176.84,109.25a24,24,0,0,1-3.75,6.81l3.77-1.39,3.79,1.35A24,24,0,0,1,176.84,109.25Z"/><path class="cls-5" d="M156.4,310.45h0.49l0.05,1.16h0a2.14,2.14,0,0,1,1.77-1.31,1.28,1.28,0,0,1,.62.13l-0.13.52a1.36,1.36,0,0,0-.57-0.1c-0.56,0-1.22.43-1.7,1.6v4.25H156.4v-6.24Z"/><path class="cls-5" d="M162.59,310.29c1.48,0,2.39,1.05,2.39,2.89a2.79,2.79,0,0,1,0,.47h-4.5a2.45,2.45,0,0,0,2.35,2.7,2.76,2.76,0,0,0,1.68-.56l0.23,0.44a3.48,3.48,0,0,1-2,.61,3,3,0,0,1-2.89-3.26C159.88,311.54,161.2,310.29,162.59,310.29Zm1.85,2.91c0-1.6-.71-2.42-1.83-2.42a2.36,2.36,0,0,0-2.15,2.42h4Z"/><path class="cls-5" d="M166.23,315.56a2.9,2.9,0,0,0,2,.79,1.3,1.3,0,0,0,1.48-1.24c0-.78-0.81-1.12-1.52-1.38-0.95-.34-2-0.71-2-1.78a1.76,1.76,0,0,1,2-1.66,2.89,2.89,0,0,1,1.78.65l-0.31.4a2.36,2.36,0,0,0-1.5-.56,1.21,1.21,0,0,0-1.4,1.13c0,0.69.73,1,1.47,1.26,1,0.36,2,.69,2,1.91a1.86,1.86,0,0,1-2.11,1.76,3.61,3.61,0,0,1-2.29-.86Z"/><path class="cls-5" d="M174.14,310.29c1.48,0,2.39,1.05,2.39,2.89a2.79,2.79,0,0,1,0,.47H172a2.45,2.45,0,0,0,2.35,2.7,2.76,2.76,0,0,0,1.68-.56l0.23,0.44a3.48,3.48,0,0,1-2,.61,3,3,0,0,1-2.89-3.26C171.42,311.54,172.75,310.29,174.14,310.29Zm1.85,2.91c0-1.6-.71-2.42-1.83-2.42a2.36,2.36,0,0,0-2.15,2.42h4Z"/><path class="cls-5" d="M181.7,312.78c0-.95-0.25-2-1.47-2a3.44,3.44,0,0,0-2,.73L178,311.1a4.16,4.16,0,0,1,2.31-.81c1.48,0,2,1.07,2,2.41v4h-0.48l-0.06-.81h0a3.7,3.7,0,0,1-2.21,1,1.64,1.64,0,0,1-1.82-1.72C177.67,313.75,178.93,313.09,181.7,312.78Zm-2.12,3.58a3.27,3.27,0,0,0,2.12-1v-2.12c-2.56.3-3.43,0.9-3.43,1.89A1.17,1.17,0,0,0,179.58,316.35Z"/><path class="cls-5" d="M184.51,310.45H185l0.05,1.16h0a2.14,2.14,0,0,1,1.77-1.31,1.28,1.28,0,0,1,.62.13l-0.13.52a1.36,1.36,0,0,0-.57-0.1c-0.56,0-1.22.43-1.7,1.6v4.25h-0.57v-6.24Z"/><path class="cls-5" d="M190.83,310.29a2.56,2.56,0,0,1,1.83.77l-0.34.4a2.13,2.13,0,0,0-1.48-.66c-1.27,0-2.26,1.13-2.26,2.78s0.9,2.76,2.26,2.76a2.51,2.51,0,0,0,1.66-.71l0.3,0.39a3,3,0,0,1-2,.83c-1.61,0-2.83-1.2-2.83-3.26S189.31,310.29,190.83,310.29Z"/><path class="cls-5" d="M194.34,307.34h0.57v4.08a3.07,3.07,0,0,1,2.16-1.13c1.29,0,1.89.78,1.89,2.39v4h-0.57v-3.93c0-1.33-.42-1.95-1.43-1.95a2.86,2.86,0,0,0-2,1.17v4.71h-0.57v-9.35Z"/><path class="cls-5" d="M158.83,330A6.68,6.68,0,0,1,157,329a3.21,3.21,0,0,1-2.34,1.08,2.32,2.32,0,0,1-2.47-2.33c0-1.13.86-1.86,1.75-2.52a5,5,0,0,1-.57-2.12,1.77,1.77,0,0,1,1.77-1.91,1.4,1.4,0,0,1,1.43,1.56c0,1.1-1,1.83-2,2.56a11.46,11.46,0,0,0,2.38,2.94,7.79,7.79,0,0,0,1.35-2.82h0.56a9.21,9.21,0,0,1-1.52,3.15,6.1,6.1,0,0,0,1.66,1Zm-2.22-1.42a12.45,12.45,0,0,1-2.43-3,2.83,2.83,0,0,0-1.4,2.07,1.86,1.86,0,0,0,1.94,1.87A2.73,2.73,0,0,0,156.61,328.62Zm-2.22-3.76c0.87-.62,1.66-1.24,1.66-2.12a1,1,0,0,0-.94-1.12,1.27,1.27,0,0,0-1.21,1.42A4.33,4.33,0,0,0,154.39,324.87Z"/><path class="cls-5" d="M162.54,328.75a2.9,2.9,0,0,0,2,.79,1.3,1.3,0,0,0,1.48-1.24c0-.78-0.81-1.12-1.52-1.38-0.95-.34-2-0.71-2-1.78a1.76,1.76,0,0,1,2-1.66,2.89,2.89,0,0,1,1.78.65l-0.31.4a2.36,2.36,0,0,0-1.5-.56,1.21,1.21,0,0,0-1.4,1.13c0,0.69.73,1,1.47,1.26,1,0.36,2,.69,2,1.91a1.86,1.86,0,0,1-2.11,1.76,3.61,3.61,0,0,1-2.29-.86Z"/><path class="cls-5" d="M168.39,324.14h-1V323.7l1-.05,0.08-1.81H169v1.81h1.81v0.49H169v4.07c0,0.79.2,1.33,1.05,1.33a2.09,2.09,0,0,0,.78-0.19l0.16,0.47a3.49,3.49,0,0,1-1,.23c-1.21,0-1.56-.77-1.56-1.89v-4Z"/><path class="cls-5" d="M172.3,323.65h0.49l0.05,1.16h0a2.14,2.14,0,0,1,1.77-1.31,1.28,1.28,0,0,1,.62.13l-0.13.52a1.36,1.36,0,0,0-.57-0.1c-0.56,0-1.22.43-1.7,1.6v4.25H172.3v-6.24Z"/><path class="cls-5" d="M179.8,326c0-.95-0.25-2-1.47-2a3.44,3.44,0,0,0-2,.73l-0.26-.43a4.16,4.16,0,0,1,2.31-.81c1.48,0,2,1.07,2,2.41v4h-0.48l-0.06-.81h0a3.7,3.7,0,0,1-2.21,1,1.64,1.64,0,0,1-1.82-1.72C175.77,326.95,177,326.28,179.8,326Zm-2.12,3.58a3.27,3.27,0,0,0,2.12-1v-2.12c-2.56.3-3.43,0.9-3.43,1.89A1.17,1.17,0,0,0,177.68,329.55Z"/><path class="cls-5" d="M182.75,324.14h-1V323.7l1-.05,0.08-1.81h0.49v1.81h1.81v0.49h-1.81v4.07c0,0.79.2,1.33,1.05,1.33a2.09,2.09,0,0,0,.78-0.19l0.16,0.47a3.49,3.49,0,0,1-1,.23c-1.21,0-1.56-.77-1.56-1.89v-4Z"/><path class="cls-5" d="M188.73,323.49c1.48,0,2.39,1.05,2.39,2.89a2.79,2.79,0,0,1,0,.47h-4.5a2.45,2.45,0,0,0,2.35,2.7,2.76,2.76,0,0,0,1.68-.56l0.23,0.44a3.48,3.48,0,0,1-2,.61,3,3,0,0,1-2.89-3.26C186,324.74,187.34,323.49,188.73,323.49Zm1.85,2.91c0-1.6-.71-2.42-1.83-2.42a2.36,2.36,0,0,0-2.15,2.42h4Z"/><path class="cls-5" d="M193.09,329.65V329.6a1.11,1.11,0,0,1-.55-1,1.47,1.47,0,0,1,.68-1.14V327.4a2.33,2.33,0,0,1-.78-1.72,2.15,2.15,0,0,1,2.2-2.2,2.22,2.22,0,0,1,.82.16h2.12v0.48h-1.46a2.08,2.08,0,0,1,.69,1.57,2.13,2.13,0,0,1-2.17,2.2,2.16,2.16,0,0,1-1-.26,1.12,1.12,0,0,0-.51.9c0,0.46.26,0.82,1.2,0.82h1.34c1.4,0,2.05.44,2.05,1.43s-1.16,2.11-3,2.11c-1.57,0-2.56-.68-2.56-1.73A2,2,0,0,1,193.09,329.65Zm1.7,2.77c1.4,0,2.3-.79,2.3-1.57s-0.51-.95-1.44-0.95h-1.34a3.9,3.9,0,0,1-.78-0.1,1.63,1.63,0,0,0-.82,1.31C192.71,331.89,193.47,332.42,194.79,332.42Zm1.46-6.73a1.62,1.62,0,1,0-3.24,0A1.62,1.62,0,1,0,196.25,325.69Z"/><path class="cls-5" d="M198.77,332.2c0.77,0,1.29-.7,1.6-1.65l0.17-.55L198,323.65h0.62l1.51,3.93c0.2,0.52.44,1.2,0.68,1.74h0.05c0.2-.55.4-1.22,0.57-1.74l1.34-3.93h0.58l-2.47,7c-0.35,1-1,2.07-2.09,2.07a1.59,1.59,0,0,1-.64-0.13l0.13-.51A1.45,1.45,0,0,0,198.77,332.2Z"/><path class="cls-5" d="M156.82,205a0.52,0.52,0,1,1,.52.51A0.5,0.5,0,0,1,156.82,205Zm0.22,2h0.57v6.24H157V207Z"/><path class="cls-5" d="M162.27,206.87a2.88,2.88,0,0,1,1.88.77l0-1.14v-2.57h0.57v9.35H164.2l-0.05-.81h0a2.92,2.92,0,0,1-2,1c-1.57,0-2.59-1.16-2.59-3.26S160.79,206.87,162.27,206.87Zm-0.1,6a2.81,2.81,0,0,0,2-1v-3.71a2.64,2.64,0,0,0-1.82-.81c-1.25,0-2.2,1.21-2.2,2.78S160.84,212.92,162.16,212.92Z"/><path class="cls-5" d="M169.29,206.87c1.48,0,2.39,1.05,2.39,2.89a2.79,2.79,0,0,1,0,.47h-4.5a2.45,2.45,0,0,0,2.35,2.7,2.76,2.76,0,0,0,1.68-.56l0.23,0.44a3.48,3.48,0,0,1-2,.61,3,3,0,0,1-2.89-3.26C166.57,208.12,167.9,206.87,169.29,206.87Zm1.85,2.91c0-1.6-.71-2.42-1.83-2.42a2.36,2.36,0,0,0-2.15,2.42h4Z"/><path class="cls-5" d="M176.85,209.36c0-.95-0.25-2-1.47-2a3.44,3.44,0,0,0-2,.73l-0.26-.43a4.16,4.16,0,0,1,2.31-.81c1.48,0,2,1.07,2,2.41v4h-0.48l-0.06-.81h0a3.7,3.7,0,0,1-2.21,1,1.64,1.64,0,0,1-1.82-1.72C172.82,210.33,174.08,209.67,176.85,209.36Zm-2.12,3.58a3.27,3.27,0,0,0,2.12-1V209.8c-2.56.3-3.43,0.9-3.43,1.89A1.17,1.17,0,0,0,174.73,212.93Z"/><path class="cls-5" d="M179.8,207.52h-1v-0.44l1-.05,0.08-1.81h0.49V207h1.81v0.49h-1.81v4.07c0,0.79.2,1.33,1.05,1.33a2.09,2.09,0,0,0,.78-0.19l0.16,0.47a3.49,3.49,0,0,1-1,.23c-1.21,0-1.56-.77-1.56-1.89v-4Z"/><path class="cls-5" d="M183.5,205a0.52,0.52,0,1,1,.52.51A0.5,0.5,0,0,1,183.5,205Zm0.22,2h0.57v6.24h-0.57V207Z"/><path class="cls-5" d="M189,206.87c1.51,0,2.81,1.2,2.81,3.29s-1.3,3.26-2.81,3.26-2.79-1.2-2.79-3.26S187.47,206.87,189,206.87Zm0,6c1.26,0,2.21-1.12,2.21-2.76s-0.95-2.78-2.21-2.78-2.2,1.13-2.2,2.78S187.71,212.92,189,212.92Z"/><path class="cls-5" d="M193.65,207h0.49l0.05,1h0a3,3,0,0,1,2.14-1.12c1.29,0,1.89.78,1.89,2.39v4h-0.57v-3.93c0-1.33-.42-1.95-1.43-1.95a2.86,2.86,0,0,0-2,1.17v4.71h-0.57V207Z"/><path class="cls-5" d="M136.14,87.16a0.52,0.52,0,1,1,.52.51A0.5,0.5,0,0,1,136.14,87.16Zm0.22,2h0.57v6.24h-0.57V89.17Z"/><path class="cls-5" d="M139.33,89.17h0.49l0.05,1h0a2.86,2.86,0,0,1,2-1.12,1.62,1.62,0,0,1,1.73,1.27A3.13,3.13,0,0,1,145.73,89c1.25,0,1.87.78,1.87,2.39v4H147V91.49c0-1.33-.44-2-1.39-2a2.72,2.72,0,0,0-1.87,1.17v4.71h-0.57V91.49c0-1.33-.44-2-1.4-2a2.77,2.77,0,0,0-1.87,1.17v4.71h-0.57V89.17Z"/><path class="cls-5" d="M150.46,96v2.28h-0.57V89.17h0.49L150.44,90h0A3.65,3.65,0,0,1,152.6,89c1.66,0,2.5,1.25,2.5,3.19,0,2.12-1.29,3.37-2.76,3.37a3.29,3.29,0,0,1-1.87-.77V96Zm1.85-.9c1.26,0,2.17-1.17,2.17-2.86,0-1.53-.55-2.68-2-2.68a3.3,3.3,0,0,0-2,1v3.71A3.05,3.05,0,0,0,152.31,95.06Z"/><path class="cls-5" d="M157,86.07h0.57v8.59c0,0.27.12,0.4,0.27,0.4a1,1,0,0,0,.23,0l0.1,0.47a1.21,1.21,0,0,1-.42.06c-0.51,0-.77-0.31-0.77-1V86.07Z"/><path class="cls-5" d="M162.24,89c1.48,0,2.39,1.05,2.39,2.89a2.79,2.79,0,0,1,0,.47h-4.5a2.45,2.45,0,0,0,2.35,2.7,2.76,2.76,0,0,0,1.68-.56L164.37,95a3.48,3.48,0,0,1-2,.61,3,3,0,0,1-2.89-3.26C159.52,90.27,160.85,89,162.24,89Zm1.85,2.91c0-1.6-.71-2.42-1.83-2.42a2.36,2.36,0,0,0-2.15,2.42h4Z"/><path class="cls-5" d="M166.32,89.17h0.49l0.05,1h0a2.86,2.86,0,0,1,2-1.12,1.62,1.62,0,0,1,1.73,1.27A3.13,3.13,0,0,1,172.72,89c1.25,0,1.87.78,1.87,2.39v4H174V91.49c0-1.33-.44-2-1.39-2a2.72,2.72,0,0,0-1.87,1.17v4.71h-0.57V91.49c0-1.33-.44-2-1.4-2a2.77,2.77,0,0,0-1.87,1.17v4.71h-0.57V89.17Z"/><path class="cls-5" d="M179.08,89c1.48,0,2.39,1.05,2.39,2.89a2.79,2.79,0,0,1,0,.47h-4.5a2.45,2.45,0,0,0,2.35,2.7,2.76,2.76,0,0,0,1.68-.56L181.21,95a3.48,3.48,0,0,1-2,.61,3,3,0,0,1-2.89-3.26C176.36,90.27,177.68,89,179.08,89Zm1.85,2.91c0-1.6-.71-2.42-1.83-2.42a2.36,2.36,0,0,0-2.15,2.42h4Z"/><path class="cls-5" d="M183.16,89.17h0.49l0.05,1h0A3,3,0,0,1,185.89,89c1.29,0,1.89.78,1.89,2.39v4H187.2V91.49c0-1.33-.42-2-1.43-2a2.86,2.86,0,0,0-2,1.17v4.71h-0.57V89.17Z"/><path class="cls-5" d="M190.22,89.67h-1V89.23l1-.05,0.08-1.81h0.49v1.81h1.81v0.49H190.8v4.07c0,0.79.2,1.33,1.05,1.33a2.09,2.09,0,0,0,.78-0.19l0.16,0.47a3.47,3.47,0,0,1-1,.23c-1.21,0-1.56-.77-1.56-1.88v-4Z"/><path class="cls-5" d="M197.54,91.5c0-.95-0.25-2-1.47-2a3.44,3.44,0,0,0-2,.73l-0.26-.43a4.16,4.16,0,0,1,2.31-.81c1.48,0,2,1.07,2,2.4v4h-0.48l-0.06-.81h0a3.7,3.7,0,0,1-2.21,1,1.64,1.64,0,0,1-1.82-1.72C193.5,92.48,194.77,91.81,197.54,91.5Zm-2.12,3.58a3.27,3.27,0,0,0,2.12-1V91.94c-2.56.3-3.43,0.9-3.43,1.89A1.17,1.17,0,0,0,195.42,95.08Z"/><path class="cls-5" d="M200.49,89.67h-1V89.23l1-.05,0.08-1.81h0.49v1.81h1.81v0.49h-1.81v4.07c0,0.79.2,1.33,1.05,1.33a2.09,2.09,0,0,0,.78-0.19l0.16,0.47a3.47,3.47,0,0,1-1,.23c-1.21,0-1.56-.77-1.56-1.88v-4Z"/><path class="cls-5" d="M204.18,87.16a0.52,0.52,0,1,1,.52.51A0.5,0.5,0,0,1,204.18,87.16Zm0.22,2H205v6.24H204.4V89.17Z"/><path class="cls-5" d="M209.65,89c1.51,0,2.81,1.2,2.81,3.29s-1.3,3.26-2.81,3.26-2.79-1.2-2.79-3.26S208.16,89,209.65,89Zm0,6c1.26,0,2.21-1.12,2.21-2.76s-0.95-2.78-2.21-2.78-2.2,1.13-2.2,2.78S208.39,95.06,209.65,95.06Z"/><path class="cls-5" d="M214.33,89.17h0.49l0.05,1h0A3,3,0,0,1,217.06,89c1.29,0,1.89.78,1.89,2.39v4h-0.57V91.49c0-1.33-.42-2-1.43-2a2.86,2.86,0,0,0-2,1.17v4.71h-0.57V89.17Z"/><path class="cls-5" d="M239.42,375.28a2,2,0,0,0,1.63.92,1.24,1.24,0,0,0,1.34-1.05c0-.46-0.27-0.71-1.16-1.2s-1.44-1-1.44-1.73a2,2,0,0,1,2.17-1.88,2.53,2.53,0,0,1,1.86.84l-0.57.56a1.77,1.77,0,0,0-1.31-.62,1.11,1.11,0,0,0-1.2,1,1.57,1.57,0,0,0,1.12,1.12c1.13,0.62,1.48,1.11,1.48,1.79A2.09,2.09,0,0,1,241,377a2.77,2.77,0,0,1-2.17-1.2Z"/><path class="cls-5" d="M247.93,370.34c1.42,0,2,1,2,2.29a4.12,4.12,0,0,1-.22,1.23h-4.11c-0.23,1.63.61,2.31,1.72,2.31a2.53,2.53,0,0,0,1.42-.55l0.39,0.66a3.54,3.54,0,0,1-2,.68,2.37,2.37,0,0,1-2.48-2.64A3.76,3.76,0,0,1,247.93,370.34Zm1,2.85a3.34,3.34,0,0,0,.06-0.65,1.22,1.22,0,0,0-1.22-1.4,2.47,2.47,0,0,0-2.16,2.05H249Z"/><path class="cls-5" d="M252,370.5h0.82l-0.14,1.21h0.05a2.56,2.56,0,0,1,2-1.36,1.45,1.45,0,0,1,.6.12l-0.35.88a1.23,1.23,0,0,0-.55-0.1,2.46,2.46,0,0,0-1.86,1.59l-0.79,4h-1Z"/><path class="cls-5" d="M255.61,370.5h1l0.47,3.65c0.07,0.61.12,1.27,0.18,1.89h0.05c0.3-.62.61-1.26,0.94-1.89l1.86-3.65h1l-3.37,6.32h-1.2Z"/><path class="cls-5" d="M262.33,370.5h1l-1.27,6.32h-1Zm0.21-1.9a0.75,0.75,0,0,1,.75-0.75,0.6,0.6,0,0,1,.64.6,0.74,0.74,0,0,1-.75.74A0.59,0.59,0,0,1,262.54,368.6Z"/><path class="cls-5" d="M267.75,370.34a2.08,2.08,0,0,1,1.64.77l-0.58.62a1.32,1.32,0,0,0-1.12-.57c-1.26,0-2.44,1.48-2.44,3.21,0,1.14.49,1.77,1.5,1.77a2.3,2.3,0,0,0,1.4-.56l0.44,0.65a3.22,3.22,0,0,1-2,.74,2.27,2.27,0,0,1-2.33-2.53A3.86,3.86,0,0,1,267.75,370.34Z"/><path class="cls-5" d="M273.07,370.34c1.42,0,2,1,2,2.29a4.12,4.12,0,0,1-.22,1.23h-4.11c-0.23,1.63.61,2.31,1.72,2.31a2.53,2.53,0,0,0,1.42-.55l0.39,0.66a3.54,3.54,0,0,1-2,.68,2.37,2.37,0,0,1-2.48-2.64A3.76,3.76,0,0,1,273.07,370.34Zm1,2.85a3.34,3.34,0,0,0,.06-0.65,1.22,1.22,0,0,0-1.22-1.4,2.47,2.47,0,0,0-2.16,2.05h3.32Z"/><path class="cls-5" d="M283.63,370l0.49-2.47h1l-1.87,9.26h-0.82l0.1-.94h-0.05a3.15,3.15,0,0,1-2.2,1.09c-1.11,0-1.82-.81-1.82-2.29,0-2.43,1.66-4.34,3.42-4.34a1.67,1.67,0,0,1,1.5.92h0Zm-1,4.9,0.57-2.82a1.48,1.48,0,0,0-1.29-.94c-1.26,0-2.43,1.61-2.43,3.35,0,1.09.46,1.61,1.16,1.61A2.62,2.62,0,0,0,282.64,374.93Z"/><path class="cls-5" d="M288.78,370.34c1.42,0,2,1,2,2.29a4.12,4.12,0,0,1-.22,1.23H286.4c-0.23,1.63.61,2.31,1.72,2.31a2.53,2.53,0,0,0,1.42-.55l0.39,0.66a3.54,3.54,0,0,1-2,.68,2.37,2.37,0,0,1-2.48-2.64A3.76,3.76,0,0,1,288.78,370.34Zm1,2.85a3.34,3.34,0,0,0,.06-0.65,1.22,1.22,0,0,0-1.22-1.4,2.47,2.47,0,0,0-2.16,2.05h3.32Z"/><path class="cls-5" d="M291.74,375.28a2,2,0,0,0,1.63.92,1.24,1.24,0,0,0,1.34-1.05c0-.46-0.27-0.71-1.16-1.2s-1.44-1-1.44-1.73a2,2,0,0,1,2.17-1.88,2.53,2.53,0,0,1,1.86.84l-0.57.56a1.77,1.77,0,0,0-1.31-.62,1.11,1.11,0,0,0-1.2,1,1.57,1.57,0,0,0,1.12,1.12c1.13,0.62,1.48,1.11,1.48,1.79a2.09,2.09,0,0,1-2.37,1.95,2.77,2.77,0,0,1-2.17-1.2Z"/><path class="cls-5" d="M298.06,370.5h1l-1.27,6.32h-1Zm0.21-1.9a0.75,0.75,0,0,1,.75-0.75,0.6,0.6,0,0,1,.64.6,0.74,0.74,0,0,1-.75.74A0.59,0.59,0,0,1,298.27,368.6Z"/><path class="cls-5" d="M305.95,370.5l-1.33,6.62a2.89,2.89,0,0,1-3,2.61,3.48,3.48,0,0,1-2.21-.87l0.47-.69a2.74,2.74,0,0,0,1.78.75,2.06,2.06,0,0,0,2-1.88l0.31-1.3h0a3.15,3.15,0,0,1-2.15,1c-1.07,0-1.83-.75-1.83-2.22,0-2.31,1.64-4.19,3.34-4.19a1.71,1.71,0,0,1,1.52.95h0l0.25-.79h0.82Zm-1.86,4.32,0.56-2.7a1.51,1.51,0,0,0-1.29-.94c-1.22,0-2.35,1.56-2.35,3.21,0,1,.43,1.53,1.13,1.53A2.73,2.73,0,0,0,304.09,374.81Z"/><path class="cls-5" d="M308,370.5h0.82l-0.09.95h0.05a3.53,3.53,0,0,1,2.21-1.1,1.36,1.36,0,0,1,1.5,1.57,3.6,3.6,0,0,1-.1.87l-0.81,4h-1l0.78-3.9a3.87,3.87,0,0,0,.1-0.74,0.84,0.84,0,0,0-.94-1,3.07,3.07,0,0,0-1.9,1.14l-0.9,4.47h-1Z"/><path class="cls-5" d="M261.29,386.9h-0.92l0.14-.74,1-.06,0.47-1.74h0.85l-0.35,1.74h1.6l-0.16.81h-1.62l-0.74,3.61a2.69,2.69,0,0,0,0,.47,0.68,0.68,0,0,0,.81.78,1.57,1.57,0,0,0,.66-0.2l0.22,0.72a2.89,2.89,0,0,1-1.2.29,1.31,1.31,0,0,1-1.51-1.4,5.8,5.8,0,0,1,.06-0.7Z"/><path class="cls-5" d="M267.53,385.94c1.42,0,2,1,2,2.29a4.12,4.12,0,0,1-.22,1.23h-4.11c-0.23,1.63.61,2.31,1.72,2.31a2.52,2.52,0,0,0,1.42-.55l0.39,0.66a3.54,3.54,0,0,1-2,.68,2.37,2.37,0,0,1-2.48-2.64A3.76,3.76,0,0,1,267.53,385.94Zm1,2.85a3.34,3.34,0,0,0,.06-0.65,1.22,1.22,0,0,0-1.22-1.4,2.47,2.47,0,0,0-2.16,2.05h3.32Z"/><path class="cls-5" d="M273.85,385.94a1.69,1.69,0,0,1,1.52.95h0.05l0.25-.79h0.81l-1.26,6.32H274.4l0.1-.94h-0.05a3.15,3.15,0,0,1-2.2,1.09c-1.11,0-1.82-.81-1.82-2.29C270.43,387.85,272.1,385.94,273.85,385.94Zm0.75,4.59,0.57-2.82a1.49,1.49,0,0,0-1.29-.94c-1.26,0-2.43,1.61-2.43,3.35,0,1.09.46,1.61,1.16,1.61A2.61,2.61,0,0,0,274.61,390.53Z"/><path class="cls-5" d="M278.56,386.1h0.82l-0.09.95h0.05a3.43,3.43,0,0,1,2.08-1.1,1.29,1.29,0,0,1,1.46,1.23,3.69,3.69,0,0,1,2.24-1.23,1.36,1.36,0,0,1,1.5,1.57,4.43,4.43,0,0,1-.1.87l-0.81,4h-1l0.79-3.9a3.8,3.8,0,0,0,.1-0.74,0.84,0.84,0,0,0-.92-1,3.14,3.14,0,0,0-1.78,1.14l-0.9,4.47h-1l0.78-3.9a3.8,3.8,0,0,0,.1-0.74,0.83,0.83,0,0,0-.91-1,3.06,3.06,0,0,0-1.78,1.14l-0.9,4.47h-1Z"/><path class="cls-5" d="M292,383.16h1l-1.62,8.1a1.09,1.09,0,0,0,0,.25,0.21,0.21,0,0,0,.22.23,0.54,0.54,0,0,0,.21,0v0.77a1.63,1.63,0,0,1-.62.1,0.75,0.75,0,0,1-.84-0.82,2.44,2.44,0,0,1,.08-0.55Z"/><path class="cls-5" d="M296.88,385.94c1.42,0,2,1,2,2.29a4.12,4.12,0,0,1-.22,1.23H294.5c-0.23,1.63.61,2.31,1.72,2.31a2.52,2.52,0,0,0,1.42-.55L298,391.9a3.54,3.54,0,0,1-2,.68,2.37,2.37,0,0,1-2.48-2.64A3.76,3.76,0,0,1,296.88,385.94Zm1,2.85a3.34,3.34,0,0,0,.06-0.65,1.22,1.22,0,0,0-1.22-1.4,2.47,2.47,0,0,0-2.16,2.05h3.32Z"/><path class="cls-5" d="M303.19,385.94a1.69,1.69,0,0,1,1.52.95h0.05l0.25-.79h0.81l-1.26,6.32h-0.82l0.1-.94h-0.05a3.15,3.15,0,0,1-2.2,1.09c-1.11,0-1.82-.81-1.82-2.29C299.77,387.85,301.44,385.94,303.19,385.94Zm0.75,4.59,0.57-2.82a1.49,1.49,0,0,0-1.29-.94c-1.26,0-2.43,1.61-2.43,3.35,0,1.09.46,1.61,1.16,1.61A2.61,2.61,0,0,0,303.95,390.53Z"/><path class="cls-5" d="M311.92,385.63l0.49-2.47h1l-1.87,9.26h-0.82l0.1-.94h-0.05a3.15,3.15,0,0,1-2.2,1.09c-1.11,0-1.82-.81-1.82-2.29,0-2.43,1.66-4.34,3.42-4.34a1.67,1.67,0,0,1,1.5.92h0Zm-1,4.9,0.57-2.82a1.48,1.48,0,0,0-1.29-.94c-1.26,0-2.43,1.61-2.43,3.35,0,1.09.46,1.61,1.16,1.61A2.63,2.63,0,0,0,310.93,390.53Z"/><path class="cls-5" d="M42.36,370l0.49-2.47h1L42,376.82H41.16l0.1-.94H41.22A3.15,3.15,0,0,1,39,377c-1.11,0-1.82-.81-1.82-2.29,0-2.43,1.66-4.34,3.42-4.34a1.67,1.67,0,0,1,1.5.92h0Zm-1,4.9,0.57-2.82a1.48,1.48,0,0,0-1.29-.94c-1.26,0-2.43,1.61-2.43,3.35,0,1.09.46,1.61,1.16,1.61A2.63,2.63,0,0,0,41.37,374.93Z"/><path class="cls-5" d="M47.51,370.34c1.42,0,2,1,2,2.29a4.12,4.12,0,0,1-.22,1.23H45.13c-0.23,1.63.61,2.31,1.72,2.31a2.52,2.52,0,0,0,1.42-.55l0.39,0.66a3.54,3.54,0,0,1-2,.68,2.37,2.37,0,0,1-2.48-2.64A3.76,3.76,0,0,1,47.51,370.34Zm1,2.85a3.34,3.34,0,0,0,.06-0.65,1.22,1.22,0,0,0-1.22-1.4,2.47,2.47,0,0,0-2.16,2.05h3.32Z"/><path class="cls-5" d="M50.47,375.28a2,2,0,0,0,1.63.92,1.24,1.24,0,0,0,1.34-1.05c0-.46-0.27-0.71-1.16-1.2s-1.44-1-1.44-1.73A2,2,0,0,1,53,370.34a2.53,2.53,0,0,1,1.86.84l-0.57.56a1.77,1.77,0,0,0-1.31-.62,1.11,1.11,0,0,0-1.2,1,1.57,1.57,0,0,0,1.12,1.12c1.13,0.62,1.48,1.1,1.48,1.79A2.09,2.09,0,0,1,52,377a2.77,2.77,0,0,1-2.17-1.2Z"/><path class="cls-5" d="M56.79,370.5h1l-1.27,6.32h-1ZM57,368.6a0.75,0.75,0,0,1,.75-0.75,0.6,0.6,0,0,1,.64.6,0.74,0.74,0,0,1-.75.74A0.59,0.59,0,0,1,57,368.6Z"/><path class="cls-5" d="M64.68,370.5l-1.33,6.62a2.89,2.89,0,0,1-3,2.61,3.48,3.48,0,0,1-2.21-.87l0.47-.69a2.74,2.74,0,0,0,1.78.75,2.06,2.06,0,0,0,2-1.88l0.31-1.3h0a3.15,3.15,0,0,1-2.15,1c-1.07,0-1.83-.75-1.83-2.22,0-2.31,1.64-4.19,3.34-4.19a1.71,1.71,0,0,1,1.52.95h0l0.25-.79h0.82Zm-1.86,4.32,0.56-2.7a1.51,1.51,0,0,0-1.29-.94c-1.22,0-2.35,1.56-2.35,3.21,0,1,.43,1.53,1.13,1.53A2.73,2.73,0,0,0,62.82,374.81Z"/><path class="cls-5" d="M66.76,370.5h0.82l-0.09.95h0.05a3.53,3.53,0,0,1,2.21-1.1,1.36,1.36,0,0,1,1.49,1.57,3.59,3.59,0,0,1-.1.87l-0.81,4h-1l0.78-3.9a3.86,3.86,0,0,0,.1-0.74,0.84,0.84,0,0,0-.94-1,3.07,3.07,0,0,0-1.9,1.14l-0.9,4.47h-1Z"/><path class="cls-5" d="M76.13,371.3H75.21l0.14-.74,1-.06,0.47-1.74h0.85L77.3,370.5h1.6l-0.16.81H77.12l-0.74,3.61a2.69,2.69,0,0,0,0,.47,0.68,0.68,0,0,0,.81.78,1.57,1.57,0,0,0,.66-0.2L78,376.69a2.89,2.89,0,0,1-1.2.29,1.31,1.31,0,0,1-1.51-1.4,5.8,5.8,0,0,1,.06-0.7Z"/><path class="cls-5" d="M82.37,370.34c1.42,0,2,1,2,2.29a4.12,4.12,0,0,1-.22,1.23H80c-0.23,1.63.61,2.31,1.72,2.31a2.52,2.52,0,0,0,1.42-.55l0.39,0.66a3.54,3.54,0,0,1-2,.68A2.37,2.37,0,0,1,79,374.33,3.76,3.76,0,0,1,82.37,370.34Zm1,2.85a3.34,3.34,0,0,0,.06-0.65,1.22,1.22,0,0,0-1.22-1.4,2.47,2.47,0,0,0-2.16,2.05h3.32Z"/><path class="cls-5" d="M88.69,370.34a1.69,1.69,0,0,1,1.52.95h0.05l0.25-.79h0.81l-1.26,6.32H89.24l0.1-.94H89.29a3.15,3.15,0,0,1-2.2,1.09c-1.11,0-1.82-.81-1.82-2.29C85.27,372.25,86.94,370.34,88.69,370.34Zm0.75,4.59L90,372.11a1.49,1.49,0,0,0-1.29-.94c-1.26,0-2.43,1.61-2.43,3.35,0,1.09.46,1.61,1.16,1.61A2.61,2.61,0,0,0,89.45,374.93Z"/><path class="cls-5" d="M93.4,370.5h0.82l-0.09.95h0.05a3.43,3.43,0,0,1,2.08-1.1,1.29,1.29,0,0,1,1.46,1.23,3.69,3.69,0,0,1,2.24-1.23,1.36,1.36,0,0,1,1.5,1.57,4.43,4.43,0,0,1-.1.87l-0.81,4h-1l0.79-3.9a3.8,3.8,0,0,0,.1-0.74,0.84,0.84,0,0,0-.92-1,3.14,3.14,0,0,0-1.78,1.14l-0.9,4.47h-1l0.78-3.9a3.8,3.8,0,0,0,.1-0.74,0.83,0.83,0,0,0-.91-1A3.06,3.06,0,0,0,94,372.34l-0.9,4.47h-1Z"/><path class="cls-5" d="M38.94,383.16h1l-1.62,8.1a1.09,1.09,0,0,0,0,.25,0.21,0.21,0,0,0,.22.23,0.54,0.54,0,0,0,.21,0v0.77a1.64,1.64,0,0,1-.62.1,0.75,0.75,0,0,1-.84-0.82,2.44,2.44,0,0,1,.08-0.55Z"/><path class="cls-5" d="M43.78,385.94c1.42,0,2,1,2,2.29a4.12,4.12,0,0,1-.22,1.23H41.4c-0.23,1.63.61,2.31,1.72,2.31a2.53,2.53,0,0,0,1.42-.55l0.39,0.66a3.54,3.54,0,0,1-2,.68,2.37,2.37,0,0,1-2.48-2.64A3.76,3.76,0,0,1,43.78,385.94Zm1,2.85a3.34,3.34,0,0,0,.06-0.65,1.22,1.22,0,0,0-1.22-1.4,2.47,2.47,0,0,0-2.16,2.05h3.32Z"/><path class="cls-5" d="M50.09,385.94a1.69,1.69,0,0,1,1.52.95h0.05l0.25-.79h0.81l-1.26,6.32H50.64l0.1-.94H50.69a3.15,3.15,0,0,1-2.2,1.09c-1.11,0-1.82-.81-1.82-2.29C46.67,387.85,48.34,385.94,50.09,385.94Zm0.75,4.59,0.57-2.82a1.48,1.48,0,0,0-1.29-.94c-1.26,0-2.43,1.61-2.43,3.35,0,1.09.46,1.61,1.16,1.61A2.6,2.6,0,0,0,50.85,390.53Z"/><path class="cls-5" d="M58.82,385.63l0.49-2.47h1l-1.87,9.26H57.62l0.1-.94H57.67a3.15,3.15,0,0,1-2.2,1.09c-1.11,0-1.82-.81-1.82-2.29,0-2.43,1.66-4.34,3.42-4.34a1.67,1.67,0,0,1,1.5.92h0Zm-1,4.9,0.57-2.82a1.48,1.48,0,0,0-1.29-.94c-1.26,0-2.43,1.61-2.43,3.35,0,1.09.46,1.61,1.16,1.61A2.62,2.62,0,0,0,57.83,390.53Z"/><path class="cls-5" d="M41.28,414.28l0.49-2.47h1l-1.87,9.26H40.08l0.1-.94H40.13a3.15,3.15,0,0,1-2.2,1.09c-1.11,0-1.82-.81-1.82-2.29,0-2.43,1.66-4.34,3.42-4.34a1.67,1.67,0,0,1,1.5.92h0Zm-1,4.9,0.57-2.82a1.49,1.49,0,0,0-1.29-.94c-1.26,0-2.43,1.61-2.43,3.35,0,1.09.46,1.61,1.16,1.61A2.63,2.63,0,0,0,40.29,419.18Z"/><path class="cls-5" d="M46.42,414.59c1.42,0,2,1,2,2.29a4.12,4.12,0,0,1-.22,1.23H44c-0.23,1.63.61,2.31,1.72,2.31a2.53,2.53,0,0,0,1.42-.55l0.39,0.66a3.54,3.54,0,0,1-2,.68A2.37,2.37,0,0,1,43,418.58,3.76,3.76,0,0,1,46.42,414.59Zm1,2.85a3.34,3.34,0,0,0,.06-0.65,1.22,1.22,0,0,0-1.22-1.4,2.47,2.47,0,0,0-2.16,2.05h3.32Z"/><path class="cls-5" d="M49.39,419.53a2,2,0,0,0,1.63.92,1.24,1.24,0,0,0,1.34-1.05c0-.46-0.27-0.71-1.16-1.2s-1.44-1-1.44-1.73a2,2,0,0,1,2.17-1.88,2.53,2.53,0,0,1,1.86.84l-0.57.56a1.76,1.76,0,0,0-1.31-.62,1.11,1.11,0,0,0-1.2,1,1.57,1.57,0,0,0,1.12,1.12c1.13,0.62,1.48,1.11,1.48,1.79a2.09,2.09,0,0,1-2.37,1.95,2.77,2.77,0,0,1-2.17-1.2Z"/><path class="cls-5" d="M55.71,414.75h1l-1.27,6.32h-1Zm0.21-1.9a0.75,0.75,0,0,1,.75-0.75,0.6,0.6,0,0,1,.64.6,0.74,0.74,0,0,1-.75.74A0.59,0.59,0,0,1,55.91,412.85Z"/><path class="cls-5" d="M63.6,414.75l-1.33,6.62a2.89,2.89,0,0,1-3,2.61,3.48,3.48,0,0,1-2.21-.87l0.47-.69a2.74,2.74,0,0,0,1.78.75,2.06,2.06,0,0,0,2-1.88l0.31-1.3h0a3.15,3.15,0,0,1-2.15,1c-1.07,0-1.83-.75-1.83-2.22,0-2.31,1.64-4.19,3.34-4.19a1.71,1.71,0,0,1,1.52.95h0l0.25-.79H63.6Zm-1.86,4.32,0.56-2.7a1.51,1.51,0,0,0-1.29-.94c-1.22,0-2.35,1.56-2.35,3.21,0,1,.43,1.53,1.13,1.53A2.73,2.73,0,0,0,61.74,419.06Z"/><path class="cls-5" d="M65.68,414.75h0.82l-0.09.95h0.05a3.53,3.53,0,0,1,2.21-1.1,1.36,1.36,0,0,1,1.5,1.57,3.6,3.6,0,0,1-.1.87l-0.81,4h-1l0.78-3.9a3.87,3.87,0,0,0,.1-0.74,0.84,0.84,0,0,0-.94-1,3.07,3.07,0,0,0-1.9,1.14l-0.9,4.47h-1Z"/><path class="cls-5" d="M73.92,419.53a2,2,0,0,0,1.63.92,1.24,1.24,0,0,0,1.34-1.05c0-.46-0.27-0.71-1.16-1.2s-1.44-1-1.44-1.73a2,2,0,0,1,2.17-1.88,2.53,2.53,0,0,1,1.86.84l-0.57.56a1.77,1.77,0,0,0-1.31-.62,1.11,1.11,0,0,0-1.2,1,1.57,1.57,0,0,0,1.12,1.12c1.13,0.62,1.48,1.11,1.48,1.79a2.09,2.09,0,0,1-2.37,1.95,2.77,2.77,0,0,1-2.17-1.2Z"/><path class="cls-5" d="M79.83,421.66l-0.4,2.07h-1l1.79-9h0.82l-0.08.83h0a3.58,3.58,0,0,1,2.18-1c1.11,0,1.82.82,1.82,2.29,0,2.43-1.66,4.34-3.41,4.34a1.78,1.78,0,0,1-1.52-.91h0Zm1.05-5.2-0.6,3a1.45,1.45,0,0,0,1.29.91c1.26,0,2.42-1.61,2.42-3.37,0-1.07-.44-1.6-1.16-1.6A2.94,2.94,0,0,0,80.89,416.46Z"/><path class="cls-5" d="M89.39,414.59c1.42,0,2,1,2,2.29a4.12,4.12,0,0,1-.22,1.23H87c-0.23,1.63.61,2.31,1.72,2.31a2.53,2.53,0,0,0,1.42-.55l0.39,0.66a3.54,3.54,0,0,1-2,.68A2.37,2.37,0,0,1,86,418.58,3.76,3.76,0,0,1,89.39,414.59Zm1,2.85a3.34,3.34,0,0,0,.06-0.65,1.22,1.22,0,0,0-1.22-1.4,2.47,2.47,0,0,0-2.16,2.05h3.32Z"/><path class="cls-5" d="M95.78,414.59a2.08,2.08,0,0,1,1.64.77l-0.58.62a1.32,1.32,0,0,0-1.12-.57c-1.26,0-2.44,1.48-2.44,3.21,0,1.14.49,1.77,1.5,1.77a2.3,2.3,0,0,0,1.4-.56l0.44,0.65a3.22,3.22,0,0,1-2,.74,2.27,2.27,0,0,1-2.33-2.53A3.86,3.86,0,0,1,95.78,414.59Z"/><path class="cls-5" d="M99.1,414.75h1l-1.27,6.32h-1Zm0.21-1.9a0.75,0.75,0,0,1,.75-0.75,0.6,0.6,0,0,1,.64.6,0.74,0.74,0,0,1-.75.74A0.59,0.59,0,0,1,99.31,412.85Z"/><path class="cls-5" d="M104.44,414.59a1.69,1.69,0,0,1,1.52.95H106l0.25-.79h0.81l-1.26,6.32H105l0.1-.94H105a3.15,3.15,0,0,1-2.2,1.09c-1.11,0-1.82-.81-1.82-2.29C101,416.5,102.69,414.59,104.44,414.59Zm0.75,4.59,0.57-2.82a1.49,1.49,0,0,0-1.29-.94c-1.26,0-2.43,1.61-2.43,3.35,0,1.09.46,1.61,1.16,1.61A2.61,2.61,0,0,0,105.2,419.18Z"/><path class="cls-5" d="M109.75,411.81h1l-1.62,8.1a1.09,1.09,0,0,0,0,.25,0.21,0.21,0,0,0,.22.23,0.54,0.54,0,0,0,.21,0v0.77a1.64,1.64,0,0,1-.62.1,0.75,0.75,0,0,1-.84-0.82,2.44,2.44,0,0,1,.08-0.55Z"/><path class="cls-5" d="M112.38,414.75h1l-1.27,6.32h-1Zm0.21-1.9a0.75,0.75,0,0,1,.75-0.75,0.6,0.6,0,0,1,.64.6,0.74,0.74,0,0,1-.75.74A0.59,0.59,0,0,1,112.59,412.85Z"/><path class="cls-5" d="M114.37,419.53a2,2,0,0,0,1.63.92,1.24,1.24,0,0,0,1.34-1.05c0-.46-0.27-0.71-1.16-1.2s-1.44-1-1.44-1.73a2,2,0,0,1,2.17-1.88,2.53,2.53,0,0,1,1.86.84l-0.57.56a1.77,1.77,0,0,0-1.31-.62,1.11,1.11,0,0,0-1.2,1,1.57,1.57,0,0,0,1.12,1.12c1.13,0.62,1.48,1.11,1.48,1.79a2.09,2.09,0,0,1-2.37,1.95,2.77,2.77,0,0,1-2.17-1.2Z"/><path class="cls-5" d="M120.73,415.55h-0.92l0.14-.74,1-.06,0.47-1.74h0.85l-0.35,1.74h1.6l-0.16.81h-1.62L121,419.17a2.69,2.69,0,0,0,0,.47,0.68,0.68,0,0,0,.81.78,1.57,1.57,0,0,0,.66-0.2l0.22,0.72a2.89,2.89,0,0,1-1.2.29,1.31,1.31,0,0,1-1.51-1.4,5.78,5.78,0,0,1,.06-0.7Z"/><path class="cls-5" d="M123.82,419.53a2,2,0,0,0,1.63.92,1.24,1.24,0,0,0,1.34-1.05c0-.46-0.27-0.71-1.16-1.2s-1.44-1-1.44-1.73a2,2,0,0,1,2.17-1.88,2.53,2.53,0,0,1,1.86.84l-0.57.56a1.77,1.77,0,0,0-1.31-.62,1.11,1.11,0,0,0-1.2,1,1.57,1.57,0,0,0,1.12,1.12c1.13,0.62,1.48,1.11,1.48,1.79a2.09,2.09,0,0,1-2.37,1.95,2.77,2.77,0,0,1-2.17-1.2Z"/><circle class="cls-6" cx="70.3" cy="335.66" r="5.65"/><circle class="cls-6" cx="83.36" cy="322.27" r="5.65"/><circle class="cls-6" cx="56.39" cy="322.27" r="5.65"/><path class="cls-5" d="M237,13.66h3c2.17,0,3.63.74,3.63,2.9s-1.49,3-3.63,3h-1.77v3.9H237V13.66Zm2.87,4.92c1.72,0,2.55-.63,2.55-2s-0.85-1.89-2.55-1.89h-1.61v3.91h1.61Z"/><path class="cls-5" d="M245.42,16.21h1.25v4.45c0,1.37.4,2,1.36,2a2.48,2.48,0,0,0,2-1.23V16.21h1.23V23.5h-1l-0.11-1.14h0a3.08,3.08,0,0,1-2.4,1.32c-1.55,0-2.24-1-2.24-2.85V16.21Z"/><path class="cls-5" d="M253.68,16.21h1l0.1,1.32h0a2.49,2.49,0,0,1,2.07-1.5,1.81,1.81,0,0,1,.78.15l-0.24,1.08a2,2,0,0,0-.71-0.12c-0.62,0-1.35.45-1.84,1.68V23.5h-1.23V16.21Z"/><path class="cls-5" d="M261.47,16c1.86,0,2.91,1.33,2.91,3.42a4.43,4.43,0,0,1,0,.67h-4.92a2.43,2.43,0,0,0,2.43,2.56,3.3,3.3,0,0,0,1.81-.57l0.44,0.81a4.34,4.34,0,0,1-2.4.75,3.49,3.49,0,0,1-3.49-3.81C258.2,17.49,259.8,16,261.47,16Zm1.83,3.28c0-1.48-.66-2.31-1.8-2.31a2.27,2.27,0,0,0-2.1,2.31h3.9Z"/><path class="cls-5" d="M269,21.85a3.28,3.28,0,0,0,2.14.87,1.22,1.22,0,0,0,1.44-1.14c0-.75-0.87-1.08-1.67-1.38-1-.37-2.17-0.87-2.17-2.1s0.93-2.07,2.5-2.07a3.64,3.64,0,0,1,2.26.83l-0.58.78a2.71,2.71,0,0,0-1.67-.65,1.13,1.13,0,0,0-1.33,1c0,0.68.79,0.95,1.62,1.26,1,0.39,2.22.82,2.22,2.2,0,1.19-.95,2.18-2.67,2.18a4.39,4.39,0,0,1-2.71-1Z"/><path class="cls-5" d="M278.22,16c1.86,0,2.91,1.33,2.91,3.42a4.43,4.43,0,0,1,0,.67h-4.92a2.43,2.43,0,0,0,2.43,2.56,3.3,3.3,0,0,0,1.81-.57l0.44,0.81a4.34,4.34,0,0,1-2.4.75A3.49,3.49,0,0,1,275,19.87C275,17.49,276.56,16,278.22,16Zm1.83,3.28c0-1.48-.66-2.31-1.8-2.31a2.27,2.27,0,0,0-2.1,2.31h3.9Z"/><path class="cls-5" d="M282.93,16.21h1l0.1,1.32h0a2.49,2.49,0,0,1,2.07-1.5,1.81,1.81,0,0,1,.78.15l-0.24,1.08a2,2,0,0,0-.71-0.12c-0.62,0-1.35.45-1.84,1.68V23.5h-1.23V16.21Z"/><path class="cls-5" d="M287.37,16.21h1.28L290,20.35c0.21,0.72.45,1.46,0.67,2.15h0.06c0.21-.69.45-1.42,0.66-2.15l1.38-4.14H294l-2.58,7.29H290Z"/><path class="cls-5" d="M295.2,13.92a0.86,0.86,0,0,1,1.71,0A0.86,0.86,0,0,1,295.2,13.92Zm0.22,2.29h1.23V23.5h-1.23V16.21Z"/><path class="cls-5" d="M302.09,16a3,3,0,0,1,2.13.87l-0.62.79a2.2,2.2,0,0,0-1.47-.65c-1.32,0-2.28,1.14-2.28,2.82s0.92,2.79,2.25,2.79a2.6,2.6,0,0,0,1.71-.73l0.55,0.81a3.61,3.61,0,0,1-2.37.95c-1.93,0-3.42-1.4-3.42-3.81A3.53,3.53,0,0,1,302.09,16Z"/><path class="cls-5" d="M308.37,16c1.86,0,2.91,1.33,2.91,3.42a4.43,4.43,0,0,1,0,.67h-4.92a2.43,2.43,0,0,0,2.43,2.56,3.3,3.3,0,0,0,1.81-.57L311,22.93a4.34,4.34,0,0,1-2.4.75,3.49,3.49,0,0,1-3.49-3.81C305.1,17.49,306.71,16,308.37,16Zm1.83,3.28c0-1.48-.66-2.31-1.8-2.31a2.27,2.27,0,0,0-2.1,2.31h3.9Z"/><path class="cls-5" d="M233.09,34a3,3,0,0,1,2,.84l-0.06-1.24V30.82h1.25V41.5h-1l-0.11-.85h0a3.29,3.29,0,0,1-2.21,1c-1.83,0-3-1.38-3-3.81S231.42,34,233.09,34Zm0.12,6.61a2.47,2.47,0,0,0,1.86-1V35.83a2.54,2.54,0,0,0-1.77-.76c-1.17,0-2.1,1.13-2.1,2.79S231.93,40.65,233.21,40.65Z"/><path class="cls-5" d="M241.5,34c1.86,0,2.91,1.33,2.91,3.42a4.43,4.43,0,0,1,0,.67h-4.92a2.43,2.43,0,0,0,2.43,2.56,3.3,3.3,0,0,0,1.81-.57l0.44,0.81a4.34,4.34,0,0,1-2.4.75,3.49,3.49,0,0,1-3.49-3.81C238.24,35.49,239.84,34,241.5,34Zm1.83,3.28c0-1.48-.66-2.31-1.8-2.31a2.27,2.27,0,0,0-2.1,2.31h3.9Z"/><path class="cls-5" d="M246,39.85a3.28,3.28,0,0,0,2.14.87,1.22,1.22,0,0,0,1.44-1.14c0-.75-0.87-1.08-1.67-1.38-1-.37-2.17-0.87-2.17-2.1s0.93-2.07,2.5-2.07a3.64,3.64,0,0,1,2.26.83l-0.58.78a2.71,2.71,0,0,0-1.67-.65,1.13,1.13,0,0,0-1.33,1c0,0.68.79,0.95,1.62,1.26,1,0.39,2.22.82,2.22,2.2,0,1.19-.95,2.18-2.67,2.18a4.39,4.39,0,0,1-2.71-1Z"/><path class="cls-5" d="M252.27,31.92a0.86,0.86,0,0,1,1.71,0A0.86,0.86,0,0,1,252.27,31.92Zm0.22,2.29h1.23V41.5H252.5V34.21Z"/><path class="cls-5" d="M256.7,41.25V41.19a1.35,1.35,0,0,1-.65-1.19,1.71,1.71,0,0,1,.79-1.35V38.59a2.57,2.57,0,0,1,1.8-4.56,2.91,2.91,0,0,1,1,.18h2.54v0.94h-1.5a2.11,2.11,0,0,1,.6,1.5,2.5,2.5,0,0,1-2.67,2.53,2.55,2.55,0,0,1-1.09-.25,1.1,1.1,0,0,0-.46.87c0,0.46.3,0.79,1.29,0.79h1.41c1.69,0,2.55.52,2.55,1.74s-1.42,2.52-3.69,2.52c-1.78,0-3-.71-3-2A2.1,2.1,0,0,1,256.7,41.25ZM258.83,44c1.39,0,2.31-.72,2.31-1.48s-0.53-.9-1.47-0.9h-1.26a3.56,3.56,0,0,1-.95-0.12,1.53,1.53,0,0,0-.75,1.23C256.71,43.51,257.51,44,258.83,44Zm1.36-7.38a1.55,1.55,0,1,0-3.09,0A1.56,1.56,0,1,0,260.19,36.63Z"/><path class="cls-5" d="M263.75,34.21h1l0.1,1h0A3.43,3.43,0,0,1,267.36,34c1.53,0,2.22,1,2.22,2.85V41.5h-1.23V37c0-1.37-.42-2-1.38-2a2.79,2.79,0,0,0-2,1.13V41.5h-1.23V34.21Z"/><path class="cls-5" d="M279.11,36.88c0-.93-0.31-1.83-1.5-1.83a3.93,3.93,0,0,0-2.17.78l-0.5-.85A5.41,5.41,0,0,1,277.8,34c1.79,0,2.54,1.19,2.54,3V41.5h-1l-0.1-.87h0a4,4,0,0,1-2.42,1.05,2,2,0,0,1-2.14-2.07C274.62,38,276,37.23,279.11,36.88Zm-2,3.81a3,3,0,0,0,2-1v-2c-2.44.3-3.27,0.9-3.27,1.83A1.12,1.12,0,0,0,277.11,40.69Z"/><path class="cls-5" d="M283.17,41.25V41.19a1.35,1.35,0,0,1-.65-1.19,1.71,1.71,0,0,1,.79-1.35V38.59a2.57,2.57,0,0,1,1.8-4.56,2.91,2.91,0,0,1,1,.18h2.54v0.94h-1.5a2.11,2.11,0,0,1,.6,1.5,2.5,2.5,0,0,1-2.67,2.53,2.55,2.55,0,0,1-1.09-.25,1.1,1.1,0,0,0-.46.87c0,0.46.3,0.79,1.29,0.79h1.41c1.69,0,2.55.52,2.55,1.74s-1.42,2.52-3.69,2.52c-1.78,0-3-.71-3-2A2.1,2.1,0,0,1,283.17,41.25ZM285.3,44c1.39,0,2.31-.72,2.31-1.48s-0.53-.9-1.47-0.9h-1.26a3.56,3.56,0,0,1-.95-0.12,1.53,1.53,0,0,0-.75,1.23C283.19,43.51,284,44,285.3,44Zm1.36-7.38a1.55,1.55,0,1,0-3.09,0A1.56,1.56,0,1,0,286.67,36.63Z"/><path class="cls-5" d="M292.74,34c1.86,0,2.91,1.33,2.91,3.42a4.43,4.43,0,0,1,0,.67h-4.92a2.43,2.43,0,0,0,2.43,2.56,3.3,3.3,0,0,0,1.81-.57l0.44,0.81a4.34,4.34,0,0,1-2.4.75,3.49,3.49,0,0,1-3.49-3.81C289.47,35.49,291.08,34,292.74,34Zm1.83,3.28c0-1.48-.66-2.31-1.8-2.31a2.27,2.27,0,0,0-2.1,2.31h3.9Z"/><path class="cls-5" d="M297.45,34.21h1l0.1,1h0A3.44,3.44,0,0,1,301.07,34c1.53,0,2.22,1,2.22,2.85V41.5h-1.23V37c0-1.37-.42-2-1.38-2a2.79,2.79,0,0,0-2,1.13V41.5h-1.23V34.21Z"/><path class="cls-5" d="M308.63,34a3,3,0,0,1,2.13.87l-0.62.79a2.2,2.2,0,0,0-1.47-.65c-1.32,0-2.28,1.14-2.28,2.82s0.92,2.79,2.25,2.79a2.6,2.6,0,0,0,1.71-.73l0.55,0.81a3.61,3.61,0,0,1-2.37.95c-1.93,0-3.42-1.4-3.42-3.81A3.53,3.53,0,0,1,308.63,34Z"/><path class="cls-5" d="M312.65,43.62a1.87,1.87,0,0,0,1.65-1.56l0.17-.54-2.92-7.3h1.28l1.48,4c0.23,0.63.48,1.38,0.71,2.05h0.06c0.21-.66.42-1.41,0.61-2.05l1.31-4h1.2l-2.75,7.89c-0.51,1.44-1.26,2.53-2.73,2.53a2.42,2.42,0,0,1-.85-0.15l0.24-1A2.14,2.14,0,0,0,312.65,43.62Z"/><path class="cls-5" d="M33,13.48a3.83,3.83,0,0,1,2.82,1.21l-0.72.79A2.68,2.68,0,0,0,33,14.58c-2,0-3.27,1.53-3.27,4s1.17,4,3.27,4A2.74,2.74,0,0,0,34.76,22V19.44H32.68v-1H35.9v4.14a4.42,4.42,0,0,1-3.06,1.14c-2.58,0-4.42-1.89-4.42-5.1S30.32,13.48,33,13.48Z"/><path class="cls-5" d="M38.09,12.82h1.23v9.3c0,0.39.17,0.54,0.34,0.54a1,1,0,0,0,.27,0l0.17,0.93a1.66,1.66,0,0,1-.71.12c-0.93,0-1.31-.58-1.31-1.65V12.82Z"/><path class="cls-5" d="M44.75,16c1.79,0,3.38,1.4,3.38,3.84s-1.59,3.81-3.37,3.81-3.37-1.4-3.37-3.81S43,16,44.75,16Zm0,6.63c1.26,0,2.1-1.12,2.1-2.79s-0.84-2.82-2.1-2.82-2.1,1.14-2.1,2.82S43.51,22.66,44.75,22.66Z"/><path class="cls-5" d="M50,12.82h1.23v2.91l0,1.32a3.6,3.6,0,0,1,2.28-1c1.89,0,2.89,1.46,2.89,3.71,0,2.49-1.48,3.94-3.15,3.94a3.3,3.3,0,0,1-2.08-.9h0L51,23.5H50V12.82Zm3,9.82c1.2,0,2.08-1.09,2.08-2.9,0-1.6-.54-2.68-1.92-2.68a3,3,0,0,0-2,1v3.82A2.85,2.85,0,0,0,53.06,22.65Z"/><path class="cls-5" d="M62.28,18.88c0-.93-0.31-1.83-1.5-1.83a3.93,3.93,0,0,0-2.17.78L58.11,17A5.41,5.41,0,0,1,61,16c1.79,0,2.54,1.19,2.54,3V23.5h-1l-0.1-.87h0a4,4,0,0,1-2.42,1.05,2,2,0,0,1-2.14-2.07C57.8,20,59.18,19.23,62.28,18.88Zm-2,3.81a3,3,0,0,0,2-1v-2C59.84,20,59,20.59,59,21.52A1.12,1.12,0,0,0,60.29,22.69Z"/><path class="cls-5" d="M65.84,12.82h1.23v9.3c0,0.39.17,0.54,0.34,0.54a1,1,0,0,0,.27,0l0.17,0.93a1.66,1.66,0,0,1-.71.12c-0.93,0-1.31-.58-1.31-1.65V12.82Z"/><path class="cls-5" d="M75.34,16a3,3,0,0,1,2,.84l-0.06-1.24V12.82h1.25V23.5h-1l-0.11-.85h0a3.29,3.29,0,0,1-2.21,1c-1.83,0-3-1.38-3-3.81S73.67,16,75.34,16Zm0.12,6.61a2.47,2.47,0,0,0,1.86-1V17.83a2.54,2.54,0,0,0-1.77-.76c-1.17,0-2.1,1.13-2.1,2.79S74.18,22.65,75.46,22.65Z"/><path class="cls-5" d="M83.75,16c1.86,0,2.91,1.33,2.91,3.42a4.43,4.43,0,0,1,0,.67H81.7a2.43,2.43,0,0,0,2.43,2.56,3.3,3.3,0,0,0,1.81-.57l0.44,0.81a4.34,4.34,0,0,1-2.4.75,3.49,3.49,0,0,1-3.49-3.81C80.48,17.49,82.09,16,83.75,16Zm1.83,3.28c0-1.48-.66-2.31-1.8-2.31a2.27,2.27,0,0,0-2.1,2.31h3.9Z"/><path class="cls-5" d="M88.27,21.85a3.28,3.28,0,0,0,2.14.87,1.22,1.22,0,0,0,1.44-1.14c0-.75-0.87-1.08-1.67-1.38-1-.37-2.17-0.87-2.17-2.1S88.94,16,90.52,16a3.64,3.64,0,0,1,2.26.83l-0.58.78A2.71,2.71,0,0,0,90.53,17a1.13,1.13,0,0,0-1.33,1c0,0.68.79,0.95,1.62,1.26,1,0.39,2.22.82,2.22,2.2,0,1.19-.95,2.18-2.67,2.18a4.39,4.39,0,0,1-2.71-1Z"/><path class="cls-5" d="M94.52,13.92a0.86,0.86,0,0,1,1.71,0A0.86,0.86,0,0,1,94.52,13.92Zm0.22,2.29H96V23.5H94.74V16.21Z"/><path class="cls-5" d="M98.94,23.25V23.19A1.35,1.35,0,0,1,98.3,22a1.71,1.71,0,0,1,.79-1.35V20.59a2.57,2.57,0,0,1,1.8-4.56,2.91,2.91,0,0,1,1,.18h2.54v0.94H103a2.11,2.11,0,0,1,.6,1.5,2.5,2.5,0,0,1-2.67,2.53,2.55,2.55,0,0,1-1.09-.25,1.1,1.1,0,0,0-.46.87c0,0.46.3,0.79,1.29,0.79H102c1.69,0,2.55.52,2.55,1.74s-1.42,2.52-3.69,2.52c-1.78,0-3-.71-3-2A2.1,2.1,0,0,1,98.94,23.25ZM101.07,26c1.39,0,2.31-.72,2.31-1.48s-0.53-.9-1.47-0.9h-1.26a3.56,3.56,0,0,1-.95-0.12A1.53,1.53,0,0,0,99,24.73C99,25.51,99.75,26,101.07,26Zm1.36-7.38a1.55,1.55,0,1,0-3.09,0A1.56,1.56,0,1,0,102.44,18.63Z"/><path class="cls-5" d="M106,16.21h1l0.1,1h0A3.43,3.43,0,0,1,109.61,16c1.53,0,2.22,1,2.22,2.85V23.5H110.6V19c0-1.37-.42-2-1.38-2a2.79,2.79,0,0,0-2,1.13V23.5H106V16.21Z"/><path class="cls-5" d="M36.65,34a3,3,0,0,1,2.13.87l-0.62.79a2.2,2.2,0,0,0-1.47-.65c-1.32,0-2.28,1.14-2.28,2.82s0.92,2.79,2.25,2.79a2.6,2.6,0,0,0,1.71-.73l0.55,0.81a3.61,3.61,0,0,1-2.37.95c-1.93,0-3.42-1.4-3.42-3.81A3.53,3.53,0,0,1,36.65,34Z"/><path class="cls-5" d="M43,34c1.79,0,3.38,1.4,3.38,3.84S44.82,41.68,43,41.68s-3.37-1.4-3.37-3.81S41.26,34,43,34Zm0,6.63c1.26,0,2.1-1.12,2.1-2.79S44.3,35.05,43,35.05s-2.1,1.14-2.1,2.82S41.8,40.66,43,40.66Z"/><path class="cls-5" d="M48.33,34.21h1l0.1,1h0A3.43,3.43,0,0,1,51.95,34c1.53,0,2.22,1,2.22,2.85V41.5H52.94V37c0-1.37-.42-2-1.38-2a2.79,2.79,0,0,0-2,1.13V41.5H48.33V34.21Z"/><path class="cls-5" d="M56.34,39.85a3.28,3.28,0,0,0,2.14.87,1.22,1.22,0,0,0,1.44-1.14c0-.75-0.87-1.08-1.67-1.38-1-.37-2.17-0.87-2.17-2.1S57,34,58.59,34a3.64,3.64,0,0,1,2.26.83l-0.58.78A2.71,2.71,0,0,0,58.61,35a1.13,1.13,0,0,0-1.33,1c0,0.68.79,0.95,1.62,1.26,1,0.39,2.22.82,2.22,2.2,0,1.19-.95,2.18-2.67,2.18a4.39,4.39,0,0,1-2.71-1Z"/><path class="cls-5" d="M62.72,34.21H64v4.45c0,1.37.4,2,1.36,2a2.48,2.48,0,0,0,2-1.23V34.21h1.23V41.5h-1L67.4,40.36h0A3.08,3.08,0,0,1,65,41.68c-1.54,0-2.23-1-2.23-2.85V34.21Z"/><path class="cls-5" d="M71,30.82h1.23v9.3c0,0.39.17,0.54,0.34,0.54a1,1,0,0,0,.27,0L73,41.56a1.66,1.66,0,0,1-.71.12C71.36,41.68,71,41.1,71,40V30.82Z"/><path class="cls-5" d="M75,35.22H73.94V34.29l1.14-.07,0.15-2h1v2h2v1h-2v4c0,0.9.29,1.41,1.13,1.41a2.66,2.66,0,0,0,.83-0.19l0.24,0.93a4.51,4.51,0,0,1-1.35.27c-1.56,0-2.08-1-2.08-2.43v-4Z"/><path class="cls-5" d="M83.73,36.88c0-.93-0.31-1.83-1.5-1.83a3.93,3.93,0,0,0-2.17.78L79.56,35A5.41,5.41,0,0,1,82.43,34C84.22,34,85,35.22,85,37V41.5h-1l-0.1-.87h0a4,4,0,0,1-2.42,1.05,2,2,0,0,1-2.14-2.07C79.25,38,80.63,37.23,83.73,36.88Zm-2,3.81a3,3,0,0,0,2-1v-2c-2.44.3-3.27,0.9-3.27,1.83A1.12,1.12,0,0,0,81.74,40.69Z"/><path class="cls-5" d="M87.29,34.21h1l0.1,1h0A3.44,3.44,0,0,1,90.9,34c1.53,0,2.22,1,2.22,2.85V41.5H91.9V37c0-1.37-.42-2-1.38-2a2.79,2.79,0,0,0-2,1.13V41.5H87.29V34.21Z"/><path class="cls-5" d="M98.47,34a3,3,0,0,1,2.13.87L100,35.7a2.2,2.2,0,0,0-1.47-.65c-1.32,0-2.28,1.14-2.28,2.82s0.92,2.79,2.25,2.79a2.6,2.6,0,0,0,1.71-.73l0.55,0.81a3.61,3.61,0,0,1-2.37.95c-1.93,0-3.42-1.4-3.42-3.81A3.53,3.53,0,0,1,98.47,34Z"/><path class="cls-5" d="M102.48,43.62a1.87,1.87,0,0,0,1.65-1.56l0.17-.54-2.92-7.3h1.28l1.48,4c0.23,0.63.48,1.38,0.71,2.05h0.06c0.21-.66.42-1.41,0.61-2.05l1.31-4H108l-2.75,7.89c-0.51,1.44-1.26,2.53-2.73,2.53a2.42,2.42,0,0,1-.85-0.15l0.24-1A2.14,2.14,0,0,0,102.48,43.62Z"/><line class="cls-7" x1="70.33" y1="209.04" x2="70.58" y2="329.22"/><polygon class="cls-4" points="70.31 203.43 67.1 211.34 70.33 209.46 73.56 211.33 70.31 203.43"/><line class="cls-8" x1="70.08" y1="95.12" x2="70.31" y2="204.21"/><polygon class="cls-9" points="70.07 89.18 66.67 97.56 70.08 95.57 73.51 97.55 70.07 89.18"/><line class="cls-7" x1="83.69" y1="209.04" x2="83.86" y2="316.62"/><polygon class="cls-4" points="83.68 203.43 80.46 211.34 83.69 209.46 86.92 211.33 83.68 203.43"/><line class="cls-10" x1="83.43" y1="95.12" x2="83.68" y2="204.28"/><polygon class="cls-11" points="83.41 89.18 80.01 97.56 83.43 95.57 86.85 97.55 83.41 89.18"/><circle class="cls-6" cx="96.68" cy="322.27" r="5.65"/><line class="cls-7" x1="96.7" y1="209.04" x2="96.93" y2="315.6"/><polygon class="cls-4" points="96.69 203.43 93.47 211.34 96.7 209.46 99.93 211.33 96.69 203.43"/><line class="cls-12" x1="96.44" y1="95.12" x2="96.68" y2="204.61"/><polygon class="cls-13" points="96.42 89.18 93.02 97.56 96.44 95.57 99.86 97.55 96.42 89.18"/><circle class="cls-6" cx="294" cy="204.21" r="5.65"/><circle class="cls-6" cx="42.63" cy="322.27" r="5.65"/><line class="cls-7" x1="42.64" y1="209.04" x2="42.88" y2="315.84"/><polygon class="cls-4" points="42.63 203.43 39.41 211.34 42.64 209.46 45.88 211.33 42.63 203.43"/><line class="cls-14" x1="42.38" y1="95.12" x2="42.63" y2="204.21"/><polygon class="cls-15" points="42.37 89.18 38.97 97.56 42.39 95.57 45.81 97.55 42.37 89.18"/><line class="cls-7" x1="56.15" y1="209.04" x2="56.39" y2="315.84"/><polygon class="cls-4" points="56.14 203.43 52.93 211.34 56.16 209.46 59.39 211.33 56.14 203.43"/><line class="cls-16" x1="55.9" y1="95.12" x2="56.14" y2="204.21"/><polygon class="cls-17" points="55.88 89.18 52.48 97.56 55.9 95.57 59.32 97.55 55.88 89.18"/><circle class="cls-6" cx="273.89" cy="335.66" r="5.65"/><circle class="cls-6" cx="284.02" cy="322.27" r="5.65"/><circle class="cls-6" cx="263.8" cy="322.27" r="5.65"/><line class="cls-18" x1="273.56" y1="204.94" x2="274.05" y2="330"/><polygon class="cls-19" points="273.54 199 270.15 207.38 273.56 205.38 276.99 207.35 273.54 199"/><line class="cls-20" x1="283.57" y1="204.94" x2="283.81" y2="316.62"/><polygon class="cls-21" points="283.56 199 280.15 207.38 283.57 205.38 286.99 207.36 283.56 199"/><line class="cls-22" x1="263.67" y1="204.94" x2="263.92" y2="316.62"/><polygon class="cls-23" points="263.66 199 260.26 207.38 263.68 205.38 267.1 207.36 263.66 199"/><line class="cls-24" x1="70.19" y1="348.98" x2="70.19" y2="362.31"/><polyline class="cls-24" points="222.36 406.31 222.36 322.27 228.36 322.27"/><polyline class="cls-24" points="125.48 406.31 125.48 322.27 119.48 322.27"/><line class="cls-24" x1="274.91" y1="348.6" x2="274.91" y2="361.93"/><path class="cls-5" d="M223.71,419.53a2,2,0,0,0,1.63.92,1.24,1.24,0,0,0,1.34-1.05c0-.46-0.27-0.71-1.16-1.2s-1.44-1-1.44-1.73a2,2,0,0,1,2.17-1.88,2.53,2.53,0,0,1,1.86.84l-0.57.56a1.76,1.76,0,0,0-1.31-.62,1.11,1.11,0,0,0-1.2,1,1.57,1.57,0,0,0,1.12,1.12c1.13,0.62,1.48,1.11,1.48,1.79a2.09,2.09,0,0,1-2.37,1.95,2.77,2.77,0,0,1-2.17-1.2Z"/><path class="cls-5" d="M232.23,414.59c1.42,0,2,1,2,2.29a4.12,4.12,0,0,1-.22,1.23h-4.11c-0.23,1.63.61,2.31,1.72,2.31a2.53,2.53,0,0,0,1.42-.55l0.39,0.66a3.54,3.54,0,0,1-2,.68,2.37,2.37,0,0,1-2.48-2.64A3.76,3.76,0,0,1,232.23,414.59Zm1,2.85a3.34,3.34,0,0,0,.06-0.65,1.22,1.22,0,0,0-1.22-1.4,2.47,2.47,0,0,0-2.16,2.05h3.32Z"/><path class="cls-5" d="M236.27,414.75h0.82L236.94,416H237a2.56,2.56,0,0,1,2-1.36,1.45,1.45,0,0,1,.6.12l-0.35.88a1.23,1.23,0,0,0-.55-0.1,2.46,2.46,0,0,0-1.86,1.59l-0.79,4h-1Z"/><path class="cls-5" d="M239.91,414.75h1l0.47,3.65c0.07,0.61.12,1.27,0.18,1.89h0.05c0.3-.62.61-1.26,0.94-1.89l1.86-3.65h1L242,421.06h-1.2Z"/><path class="cls-5" d="M246.63,414.75h1l-1.27,6.32h-1Zm0.21-1.9a0.75,0.75,0,0,1,.75-0.75,0.6,0.6,0,0,1,.64.6,0.74,0.74,0,0,1-.75.74A0.59,0.59,0,0,1,246.84,412.85Z"/><path class="cls-5" d="M252,414.59a2.08,2.08,0,0,1,1.64.77l-0.58.62a1.32,1.32,0,0,0-1.12-.57c-1.26,0-2.44,1.48-2.44,3.21,0,1.14.49,1.77,1.5,1.77a2.3,2.3,0,0,0,1.4-.56l0.44,0.65a3.22,3.22,0,0,1-2,.74,2.27,2.27,0,0,1-2.33-2.53A3.86,3.86,0,0,1,252,414.59Z"/><path class="cls-5" d="M257.37,414.59c1.42,0,2,1,2,2.29a4.12,4.12,0,0,1-.22,1.23H255c-0.23,1.63.61,2.31,1.72,2.31a2.53,2.53,0,0,0,1.42-.55l0.39,0.66a3.54,3.54,0,0,1-2,.68,2.37,2.37,0,0,1-2.48-2.64A3.76,3.76,0,0,1,257.37,414.59Zm1,2.85a3.34,3.34,0,0,0,.06-0.65,1.22,1.22,0,0,0-1.22-1.4,2.47,2.47,0,0,0-2.16,2.05h3.32Z"/><path class="cls-5" d="M267.92,414.28l0.49-2.47h1l-1.87,9.26h-0.82l0.1-.94h-0.05a3.15,3.15,0,0,1-2.2,1.09c-1.11,0-1.82-.81-1.82-2.29,0-2.43,1.66-4.34,3.42-4.34a1.67,1.67,0,0,1,1.5.92h0Zm-1,4.9,0.57-2.82a1.49,1.49,0,0,0-1.29-.94c-1.26,0-2.43,1.61-2.43,3.35,0,1.09.46,1.61,1.16,1.61A2.63,2.63,0,0,0,266.94,419.18Z"/><path class="cls-5" d="M273.07,414.59c1.42,0,2,1,2,2.29a4.12,4.12,0,0,1-.22,1.23h-4.11c-0.23,1.63.61,2.31,1.72,2.31a2.53,2.53,0,0,0,1.42-.55l0.39,0.66a3.54,3.54,0,0,1-2,.68,2.37,2.37,0,0,1-2.48-2.64A3.76,3.76,0,0,1,273.07,414.59Zm1,2.85a3.34,3.34,0,0,0,.06-0.65,1.22,1.22,0,0,0-1.22-1.4,2.47,2.47,0,0,0-2.16,2.05h3.32Z"/><path class="cls-5" d="M276,419.53a2,2,0,0,0,1.63.92A1.24,1.24,0,0,0,279,419.4c0-.46-0.27-0.71-1.16-1.2s-1.44-1-1.44-1.73a2,2,0,0,1,2.17-1.88,2.53,2.53,0,0,1,1.86.84l-0.57.56a1.76,1.76,0,0,0-1.31-.62,1.11,1.11,0,0,0-1.2,1,1.57,1.57,0,0,0,1.12,1.12c1.13,0.62,1.48,1.11,1.48,1.79a2.09,2.09,0,0,1-2.37,1.95,2.77,2.77,0,0,1-2.17-1.2Z"/><path class="cls-5" d="M282.35,414.75h1l-1.27,6.32h-1Zm0.21-1.9a0.75,0.75,0,0,1,.75-0.75,0.6,0.6,0,0,1,.64.6,0.74,0.74,0,0,1-.75.74A0.59,0.59,0,0,1,282.56,412.85Z"/><path class="cls-5" d="M290.24,414.75l-1.33,6.62a2.89,2.89,0,0,1-3,2.61,3.48,3.48,0,0,1-2.21-.87l0.47-.69a2.74,2.74,0,0,0,1.78.75,2.06,2.06,0,0,0,2-1.88l0.31-1.3h0a3.15,3.15,0,0,1-2.15,1c-1.07,0-1.83-.75-1.83-2.22,0-2.31,1.64-4.19,3.34-4.19a1.71,1.71,0,0,1,1.52.95h0l0.25-.79h0.82Zm-1.86,4.32,0.56-2.7a1.51,1.51,0,0,0-1.29-.94c-1.22,0-2.35,1.56-2.35,3.21,0,1,.43,1.53,1.13,1.53A2.73,2.73,0,0,0,288.38,419.06Z"/><path class="cls-5" d="M292.32,414.75h0.82l-0.09.95h0.05a3.53,3.53,0,0,1,2.21-1.1,1.36,1.36,0,0,1,1.49,1.57,3.59,3.59,0,0,1-.1.87l-0.81,4h-1l0.78-3.9a3.87,3.87,0,0,0,.1-0.74,0.84,0.84,0,0,0-.94-1,3.07,3.07,0,0,0-1.9,1.14l-0.9,4.47h-1Z"/><path class="cls-5" d="M301.36,414.59c1.42,0,2,1,2,2.29a4.12,4.12,0,0,1-.22,1.23H299c-0.23,1.63.61,2.31,1.72,2.31a2.53,2.53,0,0,0,1.42-.55l0.39,0.66a3.54,3.54,0,0,1-2,.68,2.37,2.37,0,0,1-2.48-2.64A3.76,3.76,0,0,1,301.36,414.59Zm1,2.85a3.34,3.34,0,0,0,.06-0.65,1.22,1.22,0,0,0-1.22-1.4,2.47,2.47,0,0,0-2.16,2.05h3.32Z"/><path class="cls-5" d="M305.4,414.75h0.82L306.08,416h0.05a2.56,2.56,0,0,1,2-1.36,1.45,1.45,0,0,1,.6.12l-0.35.88a1.23,1.23,0,0,0-.55-0.1,2.46,2.46,0,0,0-1.86,1.59l-0.79,4h-1Z"/><path class="cls-5" d="M308.69,419.53a2,2,0,0,0,1.63.92,1.24,1.24,0,0,0,1.34-1.05c0-.46-0.27-0.71-1.16-1.2s-1.44-1-1.44-1.73a2,2,0,0,1,2.17-1.88,2.53,2.53,0,0,1,1.86.84l-0.57.56a1.77,1.77,0,0,0-1.31-.62,1.11,1.11,0,0,0-1.2,1,1.57,1.57,0,0,0,1.12,1.12c1.13,0.62,1.48,1.11,1.48,1.79a2.09,2.09,0,0,1-2.37,1.95,2.77,2.77,0,0,1-2.17-1.2Z"/><path class="cls-5" d="M237.29,446.59c1.42,0,2,1,2,2.29a4.12,4.12,0,0,1-.22,1.23h-4.11c-0.23,1.63.61,2.31,1.72,2.31a2.52,2.52,0,0,0,1.42-.55l0.39,0.66a3.54,3.54,0,0,1-2,.68,2.37,2.37,0,0,1-2.48-2.64A3.76,3.76,0,0,1,237.29,446.59Zm1,2.85a3.34,3.34,0,0,0,.06-0.65,1.22,1.22,0,0,0-1.22-1.4,2.47,2.47,0,0,0-2.16,2.05h3.32Z"/><path class="cls-5" d="M240.27,446.74h1l0.47,3.65c0.07,0.61.12,1.27,0.18,1.88H242c0.3-.62.61-1.26,0.94-1.88l1.86-3.65h1l-3.37,6.32h-1.2Z"/><path class="cls-5" d="M249.14,446.59c1.42,0,2,1,2,2.29a4.12,4.12,0,0,1-.22,1.23h-4.11c-0.23,1.63.61,2.31,1.72,2.31a2.52,2.52,0,0,0,1.42-.55l0.39,0.66a3.54,3.54,0,0,1-2,.68,2.37,2.37,0,0,1-2.48-2.64A3.76,3.76,0,0,1,249.14,446.59Zm1,2.85a3.34,3.34,0,0,0,.06-0.65,1.22,1.22,0,0,0-1.22-1.4,2.47,2.47,0,0,0-2.16,2.05h3.32Z"/><path class="cls-5" d="M253.18,446.74H254l-0.09.95H254a3.53,3.53,0,0,1,2.21-1.1,1.36,1.36,0,0,1,1.5,1.57,3.6,3.6,0,0,1-.1.87l-0.81,4h-1l0.78-3.9a3.86,3.86,0,0,0,.1-0.74,0.84,0.84,0,0,0-.94-1,3.07,3.07,0,0,0-1.9,1.14l-0.9,4.47h-1Z"/><path class="cls-5" d="M260.06,447.55h-0.92l0.14-.74,1-.06,0.47-1.74h0.84l-0.35,1.74h1.6l-0.16.81H261l-0.74,3.61a2.69,2.69,0,0,0,0,.47,0.68,0.68,0,0,0,.81.78,1.57,1.57,0,0,0,.66-0.2l0.22,0.72a2.89,2.89,0,0,1-1.2.29,1.31,1.31,0,0,1-1.51-1.4,6,6,0,0,1,.06-0.7Z"/><path class="cls-5" d="M267.62,453.06H266.8l0.1-1h-0.05a3.56,3.56,0,0,1-2.18,1.12,1.36,1.36,0,0,1-1.49-1.57,3.52,3.52,0,0,1,.1-0.87l0.81-4h1l-0.79,3.9a3.86,3.86,0,0,0-.1.74,0.84,0.84,0,0,0,.94,1,3,3,0,0,0,1.87-1.14l0.9-4.47h1Z"/><path class="cls-5" d="M273.24,446.59a1.69,1.69,0,0,1,1.52.95h0.05l0.25-.79h0.81l-1.26,6.32h-0.82l0.1-.94h-0.05a3.15,3.15,0,0,1-2.2,1.09c-1.11,0-1.82-.81-1.82-2.29C269.82,448.5,271.48,446.59,273.24,446.59Zm0.75,4.59,0.57-2.82a1.49,1.49,0,0,0-1.29-.94c-1.26,0-2.43,1.61-2.43,3.35,0,1.09.46,1.61,1.16,1.61A2.61,2.61,0,0,0,274,451.17Z"/><path class="cls-5" d="M278.54,443.8h1l-1.62,8.1a1.09,1.09,0,0,0,0,.25,0.21,0.21,0,0,0,.22.23,0.54,0.54,0,0,0,.21,0v0.77a1.63,1.63,0,0,1-.62.1,0.75,0.75,0,0,1-.84-0.82,2.44,2.44,0,0,1,.08-0.55Z"/><path class="cls-5" d="M285.87,446.59c1.42,0,2,1,2,2.29a4.12,4.12,0,0,1-.22,1.23h-4.11c-0.23,1.63.61,2.31,1.72,2.31a2.52,2.52,0,0,0,1.42-.55l0.39,0.66a3.54,3.54,0,0,1-2,.68,2.37,2.37,0,0,1-2.48-2.64A3.76,3.76,0,0,1,285.87,446.59Zm1,2.85a3.34,3.34,0,0,0,.06-0.65,1.22,1.22,0,0,0-1.22-1.4,2.47,2.47,0,0,0-2.16,2.05h3.32Z"/><path class="cls-5" d="M290.53,449.71l-1.18-3h1l0.55,1.4c0.14,0.38.25,0.7,0.38,1.07h0.05c0.26-.35.55-0.7,0.81-1.07l1.11-1.4h1.08l-2.6,3.19,1.29,3.13h-1l-0.57-1.48c-0.14-.38-0.29-0.78-0.46-1.17H290.9c-0.27.39-.57,0.75-0.9,1.16l-1.22,1.5h-1.09Z"/><path class="cls-5" d="M295.54,447.55h-0.92l0.14-.74,1-.06,0.47-1.74h0.85l-0.35,1.74h1.6l-0.16.81h-1.62l-0.74,3.61a2.69,2.69,0,0,0,0,.47,0.68,0.68,0,0,0,.81.78,1.57,1.57,0,0,0,.66-0.2l0.22,0.72a2.89,2.89,0,0,1-1.2.29,1.31,1.31,0,0,1-1.51-1.4,5.8,5.8,0,0,1,.06-0.7Z"/><path class="cls-5" d="M301.79,446.59c1.42,0,2,1,2,2.29a4.12,4.12,0,0,1-.22,1.23h-4.11c-0.23,1.63.61,2.31,1.72,2.31a2.52,2.52,0,0,0,1.42-.55l0.39,0.66a3.54,3.54,0,0,1-2,.68,2.37,2.37,0,0,1-2.48-2.64A3.76,3.76,0,0,1,301.79,446.59Zm1,2.85a3.34,3.34,0,0,0,.06-0.65,1.22,1.22,0,0,0-1.22-1.4,2.47,2.47,0,0,0-2.16,2.05h3.32Z"/><path class="cls-5" d="M305.83,446.74h0.82L306.5,448h0.05a2.56,2.56,0,0,1,2-1.36,1.45,1.45,0,0,1,.6.12l-0.35.88a1.23,1.23,0,0,0-.55-0.1,2.46,2.46,0,0,0-1.86,1.59l-0.79,4h-1Z"/><path class="cls-5" d="M310.27,446.74h0.82l-0.09.95h0.05a3.53,3.53,0,0,1,2.21-1.1,1.36,1.36,0,0,1,1.49,1.57,3.59,3.59,0,0,1-.1.87l-0.81,4h-1l0.78-3.9a3.86,3.86,0,0,0,.1-0.74,0.84,0.84,0,0,0-.94-1,3.07,3.07,0,0,0-1.9,1.14l-0.9,4.47h-1Z"/><path class="cls-5" d="M319.37,446.59a1.69,1.69,0,0,1,1.52.95h0.05l0.25-.79H322l-1.26,6.32h-0.82l0.1-.94H320a3.15,3.15,0,0,1-2.2,1.09c-1.11,0-1.82-.81-1.82-2.29C316,448.5,317.62,446.59,319.37,446.59Zm0.75,4.59,0.57-2.82a1.48,1.48,0,0,0-1.29-.94c-1.26,0-2.43,1.61-2.43,3.35,0,1.09.46,1.61,1.16,1.61A2.6,2.6,0,0,0,320.13,451.17Z"/><path class="cls-5" d="M324.68,443.8h1l-1.62,8.1a1.09,1.09,0,0,0,0,.25,0.21,0.21,0,0,0,.22.23,0.54,0.54,0,0,0,.21,0v0.77a1.63,1.63,0,0,1-.62.1,0.75,0.75,0,0,1-.84-0.82,2.44,2.44,0,0,1,.08-0.55Z"/><path class="cls-5" d="M241.39,461.87l0.49-2.47h1L241,468.66h-0.82l0.1-.94h-0.05a3.15,3.15,0,0,1-2.2,1.09c-1.11,0-1.82-.81-1.82-2.29,0-2.43,1.66-4.34,3.42-4.34a1.67,1.67,0,0,1,1.5.92h0Zm-1,4.9L241,464a1.49,1.49,0,0,0-1.29-.94c-1.26,0-2.43,1.61-2.43,3.35,0,1.09.46,1.61,1.16,1.61A2.63,2.63,0,0,0,240.4,466.78Z"/><path class="cls-5" d="M246.54,462.19c1.42,0,2,1,2,2.29a4.12,4.12,0,0,1-.22,1.23h-4.11c-0.23,1.63.61,2.31,1.72,2.31a2.53,2.53,0,0,0,1.42-.55l0.39,0.66a3.54,3.54,0,0,1-2,.68,2.37,2.37,0,0,1-2.48-2.64A3.76,3.76,0,0,1,246.54,462.19Zm1,2.85a3.34,3.34,0,0,0,.06-0.65,1.22,1.22,0,0,0-1.22-1.4,2.47,2.47,0,0,0-2.16,2.05h3.32Z"/><path class="cls-5" d="M249.5,467.13a2,2,0,0,0,1.63.92,1.24,1.24,0,0,0,1.34-1.05c0-.46-0.27-0.71-1.16-1.2s-1.44-1-1.44-1.73a2,2,0,0,1,2.17-1.88,2.53,2.53,0,0,1,1.86.84l-0.57.56A1.76,1.76,0,0,0,252,463a1.11,1.11,0,0,0-1.2,1,1.57,1.57,0,0,0,1.12,1.12c1.13,0.62,1.48,1.11,1.48,1.79a2.09,2.09,0,0,1-2.37,1.95,2.77,2.77,0,0,1-2.17-1.2Z"/><path class="cls-5" d="M255.82,462.34h1l-1.27,6.32h-1Zm0.21-1.9a0.75,0.75,0,0,1,.75-0.75,0.6,0.6,0,0,1,.64.6,0.74,0.74,0,0,1-.75.74A0.59,0.59,0,0,1,256,460.44Z"/><path class="cls-5" d="M263.71,462.34L262.38,469a2.89,2.89,0,0,1-3,2.61,3.48,3.48,0,0,1-2.21-.87l0.47-.69a2.74,2.74,0,0,0,1.78.75,2.06,2.06,0,0,0,2-1.88l0.31-1.3h0a3.15,3.15,0,0,1-2.15,1c-1.07,0-1.83-.75-1.83-2.22,0-2.31,1.64-4.19,3.34-4.19a1.71,1.71,0,0,1,1.52.95h0l0.25-.79h0.82Zm-1.86,4.32,0.56-2.7a1.51,1.51,0,0,0-1.29-.94c-1.22,0-2.35,1.56-2.35,3.21,0,1,.43,1.53,1.13,1.53A2.73,2.73,0,0,0,261.85,466.66Z"/><path class="cls-5" d="M265.79,462.34h0.82l-0.09.95h0.05a3.53,3.53,0,0,1,2.21-1.1,1.36,1.36,0,0,1,1.5,1.57,3.6,3.6,0,0,1-.1.87l-0.81,4h-1l0.78-3.9a3.87,3.87,0,0,0,.1-0.74,0.84,0.84,0,0,0-.94-1,3.07,3.07,0,0,0-1.9,1.14l-0.9,4.47h-1Z"/><path class="cls-5" d="M274,467.13a2,2,0,0,0,1.63.92A1.24,1.24,0,0,0,277,467c0-.46-0.27-0.71-1.16-1.2s-1.44-1-1.44-1.73a2,2,0,0,1,2.17-1.88,2.53,2.53,0,0,1,1.86.84l-0.57.56a1.77,1.77,0,0,0-1.31-.62,1.11,1.11,0,0,0-1.2,1,1.57,1.57,0,0,0,1.12,1.12c1.13,0.62,1.48,1.11,1.48,1.79a2.09,2.09,0,0,1-2.37,1.95,2.77,2.77,0,0,1-2.17-1.2Z"/><path class="cls-5" d="M279.94,469.26l-0.4,2.07h-1l1.79-9h0.82l-0.08.83h0a3.58,3.58,0,0,1,2.18-1c1.11,0,1.82.82,1.82,2.29,0,2.43-1.66,4.34-3.41,4.34a1.78,1.78,0,0,1-1.52-.91h0Zm1.05-5.2-0.6,3a1.45,1.45,0,0,0,1.29.91c1.26,0,2.42-1.61,2.42-3.37,0-1.07-.44-1.6-1.16-1.6A2.94,2.94,0,0,0,281,464.06Z"/><path class="cls-5" d="M289.5,462.19c1.42,0,2,1,2,2.29a4.12,4.12,0,0,1-.22,1.23h-4.11c-0.23,1.63.61,2.31,1.72,2.31a2.53,2.53,0,0,0,1.42-.55l0.39,0.66a3.54,3.54,0,0,1-2,.68,2.37,2.37,0,0,1-2.48-2.64A3.76,3.76,0,0,1,289.5,462.19Zm1,2.85a3.34,3.34,0,0,0,.06-0.65,1.22,1.22,0,0,0-1.22-1.4,2.47,2.47,0,0,0-2.16,2.05h3.32Z"/><path class="cls-5" d="M295.9,462.19a2.08,2.08,0,0,1,1.64.77l-0.58.62a1.32,1.32,0,0,0-1.12-.57c-1.26,0-2.44,1.48-2.44,3.21,0,1.14.49,1.77,1.5,1.77a2.3,2.3,0,0,0,1.4-.56l0.44,0.65a3.22,3.22,0,0,1-2,.74,2.27,2.27,0,0,1-2.33-2.53A3.86,3.86,0,0,1,295.9,462.19Z"/><path class="cls-5" d="M299.21,462.34h1l-1.27,6.32h-1Zm0.21-1.9a0.75,0.75,0,0,1,.75-0.75,0.6,0.6,0,0,1,.64.6,0.74,0.74,0,0,1-.75.74A0.59,0.59,0,0,1,299.42,460.44Z"/><path class="cls-5" d="M304.55,462.19a1.69,1.69,0,0,1,1.52.95h0.05l0.25-.79h0.81l-1.26,6.32H305.1l0.1-.94h-0.05a3.15,3.15,0,0,1-2.2,1.09c-1.11,0-1.82-.81-1.82-2.29C301.13,464.1,302.8,462.19,304.55,462.19Zm0.75,4.59,0.57-2.82a1.49,1.49,0,0,0-1.29-.94c-1.26,0-2.43,1.61-2.43,3.35,0,1.09.46,1.61,1.16,1.61A2.61,2.61,0,0,0,305.31,466.78Z"/><path class="cls-5" d="M309.86,459.4h1l-1.62,8.1a1.09,1.09,0,0,0,0,.25,0.21,0.21,0,0,0,.22.23,0.54,0.54,0,0,0,.21,0v0.77a1.64,1.64,0,0,1-.62.1,0.75,0.75,0,0,1-.84-0.82,2.44,2.44,0,0,1,.08-0.55Z"/><path class="cls-5" d="M312.5,462.34h1l-1.27,6.32h-1Zm0.21-1.9a0.75,0.75,0,0,1,.75-0.75,0.6,0.6,0,0,1,.64.6,0.74,0.74,0,0,1-.75.74A0.59,0.59,0,0,1,312.7,460.44Z"/><path class="cls-5" d="M314.49,467.13a2,2,0,0,0,1.63.92,1.24,1.24,0,0,0,1.34-1.05c0-.46-0.27-0.71-1.16-1.2s-1.44-1-1.44-1.73a2,2,0,0,1,2.17-1.88,2.53,2.53,0,0,1,1.86.84l-0.57.56A1.77,1.77,0,0,0,317,463a1.11,1.11,0,0,0-1.2,1,1.57,1.57,0,0,0,1.12,1.12c1.13,0.62,1.48,1.11,1.48,1.79a2.09,2.09,0,0,1-2.37,1.95,2.77,2.77,0,0,1-2.17-1.2Z"/><path class="cls-5" d="M320.84,463.15h-0.92l0.14-.74,1-.06,0.47-1.74h0.85L322,462.34h1.6l-0.16.81h-1.62l-0.74,3.61a2.69,2.69,0,0,0,0,.47,0.68,0.68,0,0,0,.81.78,1.57,1.57,0,0,0,.66-0.2l0.22,0.72a2.89,2.89,0,0,1-1.2.29,1.31,1.31,0,0,1-1.51-1.4,5.78,5.78,0,0,1,.06-0.7Z"/><polyline class="cls-24" points="326.91 204.44 335.11 204.44 335.11 440.1"/><line class="cls-1" x1="273.44" y1="89.91" x2="273.44" y2="90.71"/><line class="cls-25" x1="273.45" y1="92.31" x2="273.92" y2="196.9"/><line class="cls-1" x1="273.92" y1="197.7" x2="273.93" y2="198.49"/><polygon class="cls-4" points="273.42 84.3 270.22 92.22 273.44 90.33 276.68 92.2 273.42 84.3"/><line class="cls-1" x1="283.45" y1="89.91" x2="283.45" y2="90.71"/><line class="cls-26" x1="283.45" y1="92.31" x2="283.68" y2="197.31"/><line class="cls-1" x1="283.69" y1="198.11" x2="283.69" y2="198.91"/><polygon class="cls-4" points="283.43 84.3 280.22 92.22 283.45 90.33 286.68 92.2 283.43 84.3"/><line class="cls-7" x1="293.88" y1="89.91" x2="294.13" y2="198.91"/><polygon class="cls-4" points="293.87 84.3 290.66 92.22 293.88 90.33 297.12 92.2 293.87 84.3"/><line class="cls-1" x1="263.55" y1="89.91" x2="263.55" y2="90.71"/><line class="cls-26" x1="263.56" y1="92.31" x2="263.79" y2="197.31"/><line class="cls-1" x1="263.79" y1="198.11" x2="263.8" y2="198.91"/><polygon class="cls-4" points="263.54 84.3 260.33 92.22 263.55 90.33 266.79 92.2 263.54 84.3"/></svg>