<svg id="Layer_1" data-name="Layer 1" xmlns="http://www.w3.org/2000/svg" viewBox="0 0 1035.53 425.9"><defs><style>.cls-1{fill:#231f20;}.cls-2{fill:none;stroke:#5c9ad2;stroke-miterlimit:10;stroke-width:0.99px;}.cls-3{fill:#5c9ad2;}</style></defs><title>map4</title><path class="cls-1" d="M892.64,185.84a2.81,2.81,0,0,0,2.1,1,1.53,1.53,0,0,0,1.77-1.43,1.6,1.6,0,0,0-1.29-1.49l-1.08-.49a2,2,0,0,1-1.44-1.77,1.86,1.86,0,0,1,2.06-1.75,2.71,2.71,0,0,1,2,.85l-0.29.33a2.26,2.26,0,0,0-1.7-.73,1.35,1.35,0,0,0-1.57,1.27,1.6,1.6,0,0,0,1.23,1.37l1.08,0.48a2,2,0,0,1,1.49,1.89,2,2,0,0,1-2.28,1.91,3.14,3.14,0,0,1-2.4-1.07Z"/><path class="cls-1" d="M900.23,181.81c1.23,0,2,.88,2,2.4a2.36,2.36,0,0,1,0,.39h-3.74a2,2,0,0,0,2,2.25,2.29,2.29,0,0,0,1.39-.46l0.2,0.37a2.9,2.9,0,0,1-1.63.51A2.76,2.76,0,0,1,900.23,181.81Zm1.53,2.42c0-1.33-.59-2-1.52-2a2,2,0,0,0-1.78,2h3.31Z"/><path class="cls-1" d="M903.62,181.94H904l0,1h0a1.78,1.78,0,0,1,1.47-1.09,1.07,1.07,0,0,1,.52.11l-0.11.43a1.13,1.13,0,0,0-.47-0.09,1.73,1.73,0,0,0-1.42,1.33v3.53h-0.48v-5.19Z"/><path class="cls-1" d="M906.47,181.94H907l1.17,3.25c0.16,0.5.36,1,.52,1.49h0c0.17-.48.36-1,0.53-1.49l1.17-3.25h0.49L909,187.12h-0.56Z"/><path class="cls-1" d="M911.84,180.26a0.43,0.43,0,1,1,.43.42A0.41,0.41,0,0,1,911.84,180.26Zm0.18,1.67h0.47v5.19H912v-5.19Z"/><path class="cls-1" d="M916.43,181.81a2.13,2.13,0,0,1,1.52.64l-0.28.33a1.77,1.77,0,0,0-1.23-.55,2.06,2.06,0,0,0-1.88,2.31c0,1.36.75,2.29,1.88,2.29a2.08,2.08,0,0,0,1.38-.59l0.25,0.32a2.45,2.45,0,0,1-1.65.69,2.4,2.4,0,0,1-2.36-2.71A2.46,2.46,0,0,1,916.43,181.81Z"/><path class="cls-1" d="M921,181.81c1.23,0,2,.88,2,2.4a2.36,2.36,0,0,1,0,.39h-3.74a2,2,0,0,0,2,2.25,2.29,2.29,0,0,0,1.39-.46l0.2,0.37a2.9,2.9,0,0,1-1.63.51A2.76,2.76,0,0,1,921,181.81Zm1.53,2.42c0-1.33-.59-2-1.52-2a2,2,0,0,0-1.78,2h3.31Z"/><path class="cls-1" d="M893.87,192h1.64c2.19,0,3.24,1.38,3.24,3.53s-1,3.59-3.23,3.59h-1.65V192Zm1.59,6.7c1.93,0,2.78-1.31,2.78-3.17s-0.84-3.11-2.78-3.11h-1.09v6.28h1.09Z"/><path class="cls-1" d="M902.14,193.81c1.23,0,2,.88,2,2.4a2.36,2.36,0,0,1,0,.39h-3.74a2,2,0,0,0,2,2.25,2.29,2.29,0,0,0,1.39-.46l0.2,0.37a2.9,2.9,0,0,1-1.63.51A2.76,2.76,0,0,1,902.14,193.81Zm1.53,2.42c0-1.33-.59-2-1.52-2a2,2,0,0,0-1.78,2h3.31Z"/><path class="cls-1" d="M905.16,198.18a2.4,2.4,0,0,0,1.65.66,1.08,1.08,0,0,0,1.23-1,1.48,1.48,0,0,0-1.26-1.15c-0.79-.28-1.65-0.59-1.65-1.48a1.46,1.46,0,0,1,1.67-1.38,2.41,2.41,0,0,1,1.48.54l-0.26.33a2,2,0,0,0-1.24-.46,1,1,0,0,0-1.17.94c0,0.57.61,0.82,1.22,1,0.81,0.3,1.7.57,1.7,1.59a1.55,1.55,0,0,1-1.75,1.46,3,3,0,0,1-1.9-.71Z"/><path class="cls-1" d="M909.72,192.26a0.43,0.43,0,1,1,.43.42A0.41,0.41,0,0,1,909.72,192.26Zm0.18,1.67h0.48v5.19H909.9v-5.19Z"/><path class="cls-1" d="M912.71,198.93v0a0.92,0.92,0,0,1-.45-0.83,1.22,1.22,0,0,1,.56-1v0a1.93,1.93,0,0,1-.65-1.43,1.78,1.78,0,0,1,1.83-1.83,1.85,1.85,0,0,1,.68.13h1.76v0.4h-1.21a1.72,1.72,0,0,1,.57,1.31,1.77,1.77,0,0,1-1.8,1.83,1.8,1.8,0,0,1-.86-0.22,0.93,0.93,0,0,0-.42.75c0,0.38.22,0.68,1,.68h1.11c1.17,0,1.71.37,1.71,1.19s-1,1.75-2.45,1.75c-1.31,0-2.13-.56-2.13-1.44A1.64,1.64,0,0,1,912.71,198.93Zm1.42,2.3c1.17,0,1.91-.66,1.91-1.31s-0.42-.79-1.2-0.79h-1.11a3.2,3.2,0,0,1-.65-0.09,1.36,1.36,0,0,0-.68,1.09C912.4,200.79,913,201.23,914.13,201.23Zm1.21-5.6a1.35,1.35,0,1,0-2.69,0A1.35,1.35,0,1,0,915.34,195.63Z"/><path class="cls-1" d="M917.64,193.94H918l0,0.8h0a2.53,2.53,0,0,1,1.78-.93c1.07,0,1.57.65,1.57,2v3.33H921v-3.26c0-1.1-.35-1.62-1.19-1.62a2.37,2.37,0,0,0-1.7,1v3.91h-0.48v-5.19Z"/><path class="cls-1" d="M875.07,137H877c1.59,0,2.53.52,2.53,2S878.6,141,877,141h-1.45v3.06h-0.5V137Zm1.81,3.64c1.46,0,2.15-.49,2.15-1.65s-0.7-1.57-2.15-1.57h-1.32v3.22h1.32Z"/><path class="cls-1" d="M881,138.91h0.41l0,1h0a1.78,1.78,0,0,1,1.47-1.09,1.07,1.07,0,0,1,.52.11l-0.11.43a1.13,1.13,0,0,0-.47-0.09,1.73,1.73,0,0,0-1.42,1.33v3.53H881v-5.19Z"/><path class="cls-1" d="M886.21,138.78a2.76,2.76,0,1,1-2.32,2.73A2.44,2.44,0,0,1,886.21,138.78Zm0,5a2,2,0,0,0,1.84-2.29c0-1.37-.79-2.31-1.84-2.31s-1.83.94-1.83,2.31S885.16,143.8,886.21,143.8Z"/><path class="cls-1" d="M892,138.78a2.4,2.4,0,0,1,1.57.64l0-1v-2.14H894v7.77h-0.41l0-.67h0a2.43,2.43,0,0,1-1.68.8c-1.31,0-2.15-1-2.15-2.71A2.47,2.47,0,0,1,892,138.78Zm-0.09,5a2.34,2.34,0,0,0,1.63-.85v-3.08a2.19,2.19,0,0,0-1.51-.67,2.07,2.07,0,0,0-1.83,2.31C890.17,142.89,890.78,143.8,891.88,143.8Z"/><path class="cls-1" d="M895.9,138.91h0.48v3.26c0,1.1.35,1.62,1.18,1.62a2.17,2.17,0,0,0,1.67-1.06v-3.82h0.47v5.19h-0.4l-0.05-.86h0a2.32,2.32,0,0,1-1.76,1c-1.07,0-1.57-.65-1.57-2v-3.33Z"/><path class="cls-1" d="M903.62,138.78a2.13,2.13,0,0,1,1.52.64l-0.28.33a1.77,1.77,0,0,0-1.23-.55,2.06,2.06,0,0,0-1.88,2.31c0,1.36.75,2.29,1.88,2.29a2.08,2.08,0,0,0,1.38-.59l0.25,0.32a2.45,2.45,0,0,1-1.65.69,2.4,2.4,0,0,1-2.36-2.71A2.46,2.46,0,0,1,903.62,138.78Z"/><path class="cls-1" d="M906.65,139.32h-0.81V139l0.82,0,0.07-1.5h0.41v1.5h1.5v0.41h-1.5v3.38c0,0.66.16,1.1,0.88,1.1a1.74,1.74,0,0,0,.65-0.16l0.13,0.39a2.91,2.91,0,0,1-.84.19c-1,0-1.3-.64-1.3-1.57v-3.34Z"/><path class="cls-1" d="M911.84,142.81a2.8,2.8,0,0,0,2.1,1,1.53,1.53,0,0,0,1.77-1.43,1.6,1.6,0,0,0-1.29-1.49l-1.08-.49a2,2,0,0,1-1.44-1.77,1.86,1.86,0,0,1,2.06-1.75,2.71,2.71,0,0,1,2,.85l-0.29.33a2.26,2.26,0,0,0-1.7-.73,1.35,1.35,0,0,0-1.57,1.27,1.6,1.6,0,0,0,1.23,1.37l1.08,0.48a2,2,0,0,1,1.49,1.89,2,2,0,0,1-2.28,1.91,3.14,3.14,0,0,1-2.4-1.07Z"/><path class="cls-1" d="M919.43,138.78c1.23,0,2,.88,2,2.4a2.36,2.36,0,0,1,0,.39h-3.74a2,2,0,0,0,2,2.25,2.29,2.29,0,0,0,1.39-.46l0.2,0.37a2.9,2.9,0,0,1-1.63.51A2.76,2.76,0,0,1,919.43,138.78ZM921,141.2c0-1.33-.59-2-1.52-2a2,2,0,0,0-1.78,2H921Z"/><path class="cls-1" d="M922.82,138.91h0.41l0,1h0a1.78,1.78,0,0,1,1.47-1.09,1.07,1.07,0,0,1,.52.11l-0.11.43a1.13,1.13,0,0,0-.47-0.09,1.73,1.73,0,0,0-1.42,1.33v3.53h-0.47v-5.19Z"/><path class="cls-1" d="M925.67,138.91h0.52l1.17,3.25c0.16,0.5.36,1,.52,1.49h0c0.17-.48.36-1,0.53-1.49l1.17-3.25h0.49l-1.92,5.19h-0.56Z"/><path class="cls-1" d="M931,137.24a0.43,0.43,0,1,1,.43.42A0.41,0.41,0,0,1,931,137.24Zm0.18,1.67h0.48v5.19h-0.48v-5.19Z"/><path class="cls-1" d="M935.63,138.78a2.13,2.13,0,0,1,1.52.64l-0.28.33a1.77,1.77,0,0,0-1.23-.55,2.06,2.06,0,0,0-1.88,2.31c0,1.36.75,2.29,1.88,2.29a2.08,2.08,0,0,0,1.38-.59l0.25,0.32a2.45,2.45,0,0,1-1.65.69,2.4,2.4,0,0,1-2.36-2.71A2.46,2.46,0,0,1,935.63,138.78Z"/><path class="cls-1" d="M940.19,138.78c1.23,0,2,.88,2,2.4a2.36,2.36,0,0,1,0,.39h-3.74a2,2,0,0,0,2,2.25,2.29,2.29,0,0,0,1.39-.46l0.2,0.37a2.9,2.9,0,0,1-1.63.51A2.76,2.76,0,0,1,940.19,138.78Zm1.53,2.42c0-1.33-.59-2-1.52-2a2,2,0,0,0-1.78,2h3.31Z"/><path class="cls-1" d="M877.31,154.81a2.81,2.81,0,0,0,2.1,1,1.53,1.53,0,0,0,1.77-1.43,1.6,1.6,0,0,0-1.29-1.49l-1.08-.49a2,2,0,0,1-1.44-1.77,1.86,1.86,0,0,1,2.06-1.75,2.71,2.71,0,0,1,2,.85l-0.29.33a2.26,2.26,0,0,0-1.7-.73,1.35,1.35,0,0,0-1.57,1.27,1.6,1.6,0,0,0,1.23,1.37l1.08,0.48a2,2,0,0,1,1.49,1.89,2,2,0,0,1-2.28,1.91,3.14,3.14,0,0,1-2.4-1.07Z"/><path class="cls-1" d="M882.88,158a1.62,1.62,0,0,0,1.33-1.37l0.14-.45-2.13-5.28h0.52l1.25,3.26c0.16,0.43.37,1,.56,1.45h0c0.16-.45.33-1,0.48-1.45l1.11-3.26h0.49l-2.05,5.83a2.07,2.07,0,0,1-1.74,1.72,1.31,1.31,0,0,1-.53-0.11l0.11-.42A1.21,1.21,0,0,0,882.88,158Z"/><path class="cls-1" d="M887.42,155.16a2.4,2.4,0,0,0,1.65.66,1.08,1.08,0,0,0,1.23-1,1.48,1.48,0,0,0-1.26-1.15c-0.79-.28-1.65-0.59-1.65-1.48a1.46,1.46,0,0,1,1.67-1.38,2.41,2.41,0,0,1,1.48.54l-0.26.33a2,2,0,0,0-1.24-.46,1,1,0,0,0-1.17.94c0,0.57.61,0.82,1.22,1,0.81,0.3,1.7.57,1.7,1.59a1.55,1.55,0,0,1-1.75,1.46,3,3,0,0,1-1.9-.71Z"/><path class="cls-1" d="M892.28,151.32h-0.81V151l0.82,0,0.06-1.5h0.41v1.5h1.5v0.41h-1.5v3.38c0,0.66.16,1.1,0.88,1.1a1.74,1.74,0,0,0,.65-0.16l0.13,0.39a2.91,2.91,0,0,1-.84.19c-1,0-1.3-.64-1.3-1.57v-3.34Z"/><path class="cls-1" d="M897.25,150.78c1.23,0,2,.88,2,2.4a2.36,2.36,0,0,1,0,.39h-3.74a2,2,0,0,0,2,2.25,2.29,2.29,0,0,0,1.39-.46l0.2,0.37a2.9,2.9,0,0,1-1.63.51A2.76,2.76,0,0,1,897.25,150.78Zm1.53,2.42c0-1.33-.59-2-1.52-2a2,2,0,0,0-1.78,2h3.31Z"/><path class="cls-1" d="M900.64,150.91h0.41l0,0.8h0a2.37,2.37,0,0,1,1.63-.93,1.35,1.35,0,0,1,1.44,1.06,2.6,2.6,0,0,1,1.76-1.06c1,0,1.55.65,1.55,2v3.33H907v-3.26c0-1.1-.37-1.62-1.16-1.62a2.26,2.26,0,0,0-1.56,1v3.91h-0.48v-3.26c0-1.1-.37-1.62-1.17-1.62a2.3,2.3,0,0,0-1.55,1v3.91h-0.48v-5.19Z"/><path class="cls-1" d="M911.58,149h1.64c2.19,0,3.24,1.38,3.24,3.53s-1,3.59-3.23,3.59h-1.65V149Zm1.59,6.7c1.93,0,2.78-1.31,2.78-3.17s-0.84-3.11-2.78-3.11h-1.09v6.28h1.09Z"/><path class="cls-1" d="M919.85,150.78c1.23,0,2,.88,2,2.4a2.36,2.36,0,0,1,0,.39h-3.74a2,2,0,0,0,2,2.25,2.29,2.29,0,0,0,1.39-.46l0.2,0.37a2.9,2.9,0,0,1-1.63.51A2.76,2.76,0,0,1,919.85,150.78Zm1.53,2.42c0-1.33-.59-2-1.52-2a2,2,0,0,0-1.78,2h3.31Z"/><path class="cls-1" d="M922.88,155.16a2.4,2.4,0,0,0,1.65.66,1.08,1.08,0,0,0,1.23-1,1.48,1.48,0,0,0-1.26-1.15c-0.79-.28-1.65-0.59-1.65-1.48a1.46,1.46,0,0,1,1.67-1.38,2.41,2.41,0,0,1,1.48.54l-0.26.33a2,2,0,0,0-1.24-.46,1,1,0,0,0-1.17.94c0,0.57.61,0.82,1.22,1,0.81,0.3,1.7.57,1.7,1.59a1.55,1.55,0,0,1-1.75,1.46,3,3,0,0,1-1.9-.71Z"/><path class="cls-1" d="M927.43,149.24a0.43,0.43,0,1,1,.43.42A0.41,0.41,0,0,1,927.43,149.24Zm0.18,1.67h0.47v5.19h-0.47v-5.19Z"/><path class="cls-1" d="M930.43,155.9v0A0.92,0.92,0,0,1,930,155a1.22,1.22,0,0,1,.56-1v0a1.93,1.93,0,0,1-.65-1.43,1.78,1.78,0,0,1,1.83-1.83,1.85,1.85,0,0,1,.68.13h1.76v0.4h-1.21a1.72,1.72,0,0,1,.57,1.31,1.77,1.77,0,0,1-1.8,1.83,1.8,1.8,0,0,1-.86-0.22,0.93,0.93,0,0,0-.42.75c0,0.38.22,0.68,1,.68h1.11c1.17,0,1.71.37,1.71,1.19s-1,1.75-2.45,1.75c-1.31,0-2.13-.56-2.13-1.44A1.64,1.64,0,0,1,930.43,155.9Zm1.42,2.3c1.17,0,1.91-.66,1.91-1.31s-0.42-.79-1.2-0.79h-1.11a3.2,3.2,0,0,1-.65-0.09,1.36,1.36,0,0,0-.68,1.09C930.11,157.76,930.74,158.2,931.84,158.2Zm1.21-5.6a1.35,1.35,0,1,0-2.69,0A1.35,1.35,0,1,0,933.05,152.61Z"/><path class="cls-1" d="M935.35,150.91h0.41l0,0.8h0a2.53,2.53,0,0,1,1.78-.93c1.07,0,1.57.65,1.57,2v3.33h-0.48v-3.26c0-1.1-.35-1.62-1.19-1.62a2.38,2.38,0,0,0-1.7,1v3.91h-0.47v-5.19Z"/><path class="cls-1" d="M873.8,100h1.64c2.19,0,3.24,1.38,3.24,3.53s-1,3.59-3.23,3.59H873.8V100Zm1.59,6.7c1.93,0,2.78-1.31,2.78-3.17s-0.84-3.11-2.78-3.11h-1.09v6.28h1.09Z"/><path class="cls-1" d="M882.07,101.79c1.23,0,2,.88,2,2.4a2.36,2.36,0,0,1,0,.39H880.3a2,2,0,0,0,2,2.25,2.29,2.29,0,0,0,1.39-.46l0.2,0.37a2.89,2.89,0,0,1-1.63.51A2.76,2.76,0,0,1,882.07,101.79Zm1.53,2.42c0-1.33-.59-2-1.52-2a2,2,0,0,0-1.78,2h3.31Z"/><path class="cls-1" d="M885.09,106.16a2.4,2.4,0,0,0,1.65.66,1.08,1.08,0,0,0,1.23-1,1.48,1.48,0,0,0-1.26-1.15c-0.79-.28-1.65-0.59-1.65-1.48a1.46,1.46,0,0,1,1.67-1.38,2.41,2.41,0,0,1,1.48.54l-0.26.33a2,2,0,0,0-1.24-.46,1,1,0,0,0-1.17.94c0,0.57.61,0.82,1.22,1,0.81,0.3,1.7.57,1.7,1.59a1.55,1.55,0,0,1-1.75,1.46,3,3,0,0,1-1.9-.71Z"/><path class="cls-1" d="M889.65,100.24a0.43,0.43,0,1,1,.43.42A0.41,0.41,0,0,1,889.65,100.24Zm0.18,1.67h0.47v5.19h-0.47v-5.19Z"/><path class="cls-1" d="M892.64,106.91v0a0.92,0.92,0,0,1-.45-0.83,1.22,1.22,0,0,1,.56-1v0a1.93,1.93,0,0,1-.65-1.43,1.78,1.78,0,0,1,1.83-1.83,1.85,1.85,0,0,1,.68.13h1.76v0.4h-1.21a1.72,1.72,0,0,1,.57,1.31,1.77,1.77,0,0,1-1.8,1.83,1.8,1.8,0,0,1-.86-0.22,0.93,0.93,0,0,0-.42.75c0,0.38.22,0.68,1,.68h1.11c1.17,0,1.71.37,1.71,1.19s-1,1.75-2.45,1.75c-1.31,0-2.13-.56-2.13-1.44A1.64,1.64,0,0,1,892.64,106.91Zm1.42,2.3c1.17,0,1.91-.66,1.91-1.31s-0.42-.79-1.2-0.79h-1.11A3.2,3.2,0,0,1,893,107a1.35,1.35,0,0,0-.68,1.09C892.33,108.77,893,109.21,894.06,109.21Zm1.21-5.6a1.35,1.35,0,1,0-2.69,0A1.35,1.35,0,1,0,895.27,103.61Z"/><path class="cls-1" d="M897.56,101.92H898l0,0.8h0a2.53,2.53,0,0,1,1.78-.93c1.07,0,1.57.65,1.57,2v3.33h-0.48v-3.26c0-1.1-.35-1.62-1.19-1.62a2.38,2.38,0,0,0-1.7,1v3.91h-0.47v-5.19Z"/><path class="cls-1" d="M907,100.42h-2.27V100h5v0.43h-2.26v6.69H907v-6.69Z"/><path class="cls-1" d="M911,99.34h0.47v3.39a2.55,2.55,0,0,1,1.79-.94c1.07,0,1.57.65,1.57,2v3.33H914.4v-3.26c0-1.1-.35-1.62-1.19-1.62a2.38,2.38,0,0,0-1.7,1v3.91H911V99.34Z"/><path class="cls-1" d="M916.56,100.24a0.43,0.43,0,1,1,.43.42A0.41,0.41,0,0,1,916.56,100.24Zm0.18,1.67h0.48v5.19h-0.48v-5.19Z"/><path class="cls-1" d="M919.22,101.92h0.41l0,0.8h0a2.53,2.53,0,0,1,1.78-.93c1.07,0,1.57.65,1.57,2v3.33h-0.48v-3.26c0-1.1-.35-1.62-1.19-1.62a2.38,2.38,0,0,0-1.7,1v3.91h-0.48v-5.19Z"/><path class="cls-1" d="M925,99.34h0.47v5.73h0l2.56-3.14h0.55L926.89,104l2,3.13h-0.53l-1.72-2.78-1.17,1.36v1.42H925V99.34Z"/><path class="cls-1" d="M929.79,100.24a0.43,0.43,0,1,1,.43.42A0.41,0.41,0,0,1,929.79,100.24Zm0.18,1.67h0.48v5.19H930v-5.19Z"/><path class="cls-1" d="M932.45,101.92h0.41l0,0.8h0a2.53,2.53,0,0,1,1.78-.93c1.07,0,1.57.65,1.57,2v3.33h-0.48v-3.26c0-1.1-.35-1.62-1.19-1.62a2.38,2.38,0,0,0-1.7,1v3.91h-0.48v-5.19Z"/><path class="cls-1" d="M938.53,106.91v0a0.92,0.92,0,0,1-.45-0.83,1.22,1.22,0,0,1,.56-1v0a1.93,1.93,0,0,1-.65-1.43,1.78,1.78,0,0,1,1.83-1.83,1.85,1.85,0,0,1,.68.13h1.76v0.4H941a1.72,1.72,0,0,1,.57,1.31,1.77,1.77,0,0,1-1.8,1.83,1.8,1.8,0,0,1-.86-0.22,0.93,0.93,0,0,0-.42.75c0,0.38.22,0.68,1,.68h1.11c1.17,0,1.71.37,1.71,1.19s-1,1.75-2.45,1.75c-1.31,0-2.13-.56-2.13-1.44A1.64,1.64,0,0,1,938.53,106.91Zm1.42,2.3c1.17,0,1.91-.66,1.91-1.31s-0.42-.79-1.2-0.79h-1.11a3.2,3.2,0,0,1-.65-0.09,1.35,1.35,0,0,0-.68,1.09C938.21,108.77,938.84,109.21,939.94,109.21Zm1.21-5.6a1.35,1.35,0,1,0-2.69,0A1.35,1.35,0,1,0,941.15,103.61Z"/><path class="cls-1" d="M873.34,117.82a2.8,2.8,0,0,0,2.1,1,1.53,1.53,0,0,0,1.77-1.43,1.6,1.6,0,0,0-1.29-1.49l-1.08-.49a2,2,0,0,1-1.44-1.77,1.87,1.87,0,0,1,2.06-1.75,2.71,2.71,0,0,1,2,.85l-0.29.33a2.26,2.26,0,0,0-1.7-.73,1.35,1.35,0,0,0-1.57,1.27,1.6,1.6,0,0,0,1.23,1.37l1.08,0.48a2,2,0,0,1,1.49,1.89,2,2,0,0,1-2.28,1.91,3.14,3.14,0,0,1-2.4-1.07Z"/><path class="cls-1" d="M879.22,114.33h-0.81V114l0.82,0,0.06-1.5h0.41v1.5h1.5v0.41h-1.5v3.38c0,0.66.16,1.1,0.88,1.1a1.74,1.74,0,0,0,.65-0.16l0.13,0.39a2.89,2.89,0,0,1-.84.19c-1,0-1.3-.64-1.3-1.57v-3.34Z"/><path class="cls-1" d="M882.47,113.92h0.41l0,1h0a1.78,1.78,0,0,1,1.47-1.09,1.07,1.07,0,0,1,.52.11l-0.11.43a1.13,1.13,0,0,0-.47-0.09,1.73,1.73,0,0,0-1.42,1.33v3.53h-0.48v-5.19Z"/><path class="cls-1" d="M888.7,115.85c0-.79-0.21-1.64-1.22-1.64a2.86,2.86,0,0,0-1.65.6l-0.22-.36a3.46,3.46,0,0,1,1.92-.67c1.23,0,1.64.89,1.64,2v3.32h-0.4l-0.05-.67h0a3.07,3.07,0,0,1-1.84.8,1.37,1.37,0,0,1-1.51-1.43C885.36,116.66,886.4,116.11,888.7,115.85Zm-1.76,3a2.72,2.72,0,0,0,1.76-.84v-1.76c-2.13.25-2.85,0.75-2.85,1.57A1,1,0,0,0,886.94,118.82Z"/><path class="cls-1" d="M891.15,114.33h-0.81V114l0.82,0,0.06-1.5h0.41v1.5h1.5v0.41h-1.5v3.38c0,0.66.16,1.1,0.88,1.1a1.74,1.74,0,0,0,.65-0.16l0.13,0.39a2.89,2.89,0,0,1-.84.19c-1,0-1.3-.64-1.3-1.57v-3.34Z"/><path class="cls-1" d="M896.12,113.79c1.23,0,2,.88,2,2.4a2.36,2.36,0,0,1,0,.39h-3.74a2,2,0,0,0,2,2.25,2.29,2.29,0,0,0,1.39-.46l0.2,0.37a2.89,2.89,0,0,1-1.63.51A2.76,2.76,0,0,1,896.12,113.79Zm1.53,2.42c0-1.33-.59-2-1.52-2a2,2,0,0,0-1.78,2h3.31Z"/><path class="cls-1" d="M899.74,118.91v0a0.92,0.92,0,0,1-.45-0.83,1.22,1.22,0,0,1,.56-1v0a1.93,1.93,0,0,1-.65-1.43,1.78,1.78,0,0,1,1.83-1.83,1.85,1.85,0,0,1,.68.13h1.76v0.4h-1.21a1.72,1.72,0,0,1,.57,1.31,1.77,1.77,0,0,1-1.8,1.83,1.8,1.8,0,0,1-.86-0.22,0.93,0.93,0,0,0-.42.75c0,0.38.22,0.68,1,.68h1.11c1.17,0,1.71.37,1.71,1.19s-1,1.75-2.45,1.75c-1.31,0-2.13-.56-2.13-1.44A1.64,1.64,0,0,1,899.74,118.91Zm1.42,2.3c1.17,0,1.91-.66,1.91-1.31s-0.42-.79-1.2-0.79h-1.11a3.2,3.2,0,0,1-.65-0.09,1.35,1.35,0,0,0-.68,1.09C899.43,120.77,900.05,121.21,901.16,121.21Zm1.21-5.6a1.35,1.35,0,1,0-2.69,0A1.35,1.35,0,1,0,902.37,115.61Z"/><path class="cls-1" d="M904.48,112.24a0.43,0.43,0,1,1,.43.42A0.41,0.41,0,0,1,904.48,112.24Zm0.18,1.67h0.48v5.19h-0.48v-5.19Z"/><path class="cls-1" d="M909.07,113.79a2.13,2.13,0,0,1,1.52.64l-0.28.33a1.77,1.77,0,0,0-1.23-.55,2.06,2.06,0,0,0-1.88,2.31c0,1.36.75,2.29,1.88,2.29a2.09,2.09,0,0,0,1.38-.59l0.25,0.32a2.45,2.45,0,0,1-1.65.69,2.4,2.4,0,0,1-2.36-2.71A2.46,2.46,0,0,1,909.07,113.79Z"/><path class="cls-1" d="M914.16,112h1.64c2.19,0,3.24,1.38,3.24,3.53s-1,3.59-3.23,3.59h-1.65V112Zm1.59,6.7c1.93,0,2.78-1.31,2.78-3.17s-0.84-3.11-2.78-3.11h-1.09v6.28h1.09Z"/><path class="cls-1" d="M922.43,113.79c1.23,0,2,.88,2,2.4a2.36,2.36,0,0,1,0,.39h-3.74a2,2,0,0,0,2,2.25,2.29,2.29,0,0,0,1.39-.46l0.2,0.37a2.9,2.9,0,0,1-1.63.51A2.76,2.76,0,0,1,922.43,113.79Zm1.53,2.42c0-1.33-.59-2-1.52-2a2,2,0,0,0-1.78,2H924Z"/><path class="cls-1" d="M925.45,118.16a2.4,2.4,0,0,0,1.65.66,1.08,1.08,0,0,0,1.23-1,1.48,1.48,0,0,0-1.26-1.15c-0.79-.28-1.65-0.59-1.65-1.48a1.46,1.46,0,0,1,1.67-1.38,2.41,2.41,0,0,1,1.48.54l-0.26.33a2,2,0,0,0-1.24-.46,1,1,0,0,0-1.17.94c0,0.57.61,0.82,1.22,1,0.81,0.3,1.7.57,1.7,1.59a1.55,1.55,0,0,1-1.75,1.46,3,3,0,0,1-1.9-.71Z"/><path class="cls-1" d="M930,112.24a0.43,0.43,0,1,1,.43.42A0.41,0.41,0,0,1,930,112.24Zm0.18,1.67h0.48v5.19h-0.48v-5.19Z"/><path class="cls-1" d="M933,118.91v0a0.92,0.92,0,0,1-.45-0.83,1.22,1.22,0,0,1,.56-1v0a1.93,1.93,0,0,1-.65-1.43,1.78,1.78,0,0,1,1.83-1.83,1.85,1.85,0,0,1,.68.13h1.76v0.4h-1.21a1.72,1.72,0,0,1,.57,1.31,1.77,1.77,0,0,1-1.8,1.83,1.8,1.8,0,0,1-.86-0.22,0.93,0.93,0,0,0-.42.75c0,0.38.22,0.68,1,.68h1.11c1.17,0,1.71.37,1.71,1.19s-1,1.75-2.45,1.75c-1.31,0-2.13-.56-2.13-1.44A1.64,1.64,0,0,1,933,118.91Zm1.42,2.3c1.17,0,1.91-.66,1.91-1.31s-0.42-.79-1.2-0.79H934a3.2,3.2,0,0,1-.65-0.09,1.35,1.35,0,0,0-.68,1.09C932.69,120.77,933.31,121.21,934.42,121.21Zm1.21-5.6a1.35,1.35,0,1,0-2.69,0A1.35,1.35,0,1,0,935.63,115.61Z"/><path class="cls-1" d="M937.93,113.92h0.41l0,0.8h0a2.53,2.53,0,0,1,1.78-.93c1.07,0,1.57.65,1.57,2v3.33h-0.48v-3.26c0-1.1-.35-1.62-1.19-1.62a2.38,2.38,0,0,0-1.7,1v3.91h-0.48v-5.19Z"/><circle class="cls-2" cx="907.62" cy="190.4" r="66.52"/><circle class="cls-2" cx="907.62" cy="190.4" r="100.35"/><circle class="cls-2" cx="907.62" cy="190.4" r="26.58"/><path class="cls-1" d="M870.5,313.18a1.89,1.89,0,0,0,1.71,1.11c1,0,1.57-.6,1.57-2.1v-6.82H875v6.94c0,1.7-.78,3.08-2.71,3.08a2.87,2.87,0,0,1-2.7-1.58Z"/><path class="cls-1" d="M880.25,307.74c1.86,0,2.91,1.33,2.91,3.42a4.43,4.43,0,0,1,0,.67h-4.92a2.43,2.43,0,0,0,2.43,2.56,3.3,3.3,0,0,0,1.81-.57l0.44,0.81a4.34,4.34,0,0,1-2.4.75,3.49,3.49,0,0,1-3.49-3.81C877,309.19,878.58,307.74,880.25,307.74Zm1.83,3.28c0-1.48-.66-2.31-1.8-2.31a2.27,2.27,0,0,0-2.1,2.31h3.9Z"/><path class="cls-1" d="M885,307.92h1l0.1,1h0a3.43,3.43,0,0,1,2.44-1.23c1.53,0,2.22,1,2.22,2.85v4.62h-1.23v-4.45c0-1.37-.42-2-1.38-2a2.79,2.79,0,0,0-2,1.13v5.28H885v-7.29Z"/><path class="cls-1" d="M893.16,307.92h1l0.1,1h0a3.43,3.43,0,0,1,2.44-1.23c1.53,0,2.22,1,2.22,2.85v4.62h-1.23v-4.45c0-1.37-.42-2-1.38-2a2.79,2.79,0,0,0-2,1.13v5.28h-1.23v-7.29Z"/><path class="cls-1" d="M901.14,305.62a0.86,0.86,0,0,1,1.71,0A0.86,0.86,0,0,1,901.14,305.62Zm0.22,2.29h1.23v7.29h-1.23v-7.29Z"/><path class="cls-1" d="M908.16,305.37h3c2.17,0,3.63.73,3.63,2.89s-1.49,3-3.63,3h-1.77v3.9h-1.26v-9.84Zm2.87,4.92c1.72,0,2.55-.63,2.55-2s-0.85-1.89-2.55-1.89h-1.61v3.91H911Z"/><path class="cls-1" d="M920.13,310.59c0-.93-0.31-1.83-1.5-1.83a3.93,3.93,0,0,0-2.17.78l-0.5-.85a5.42,5.42,0,0,1,2.87-.94c1.79,0,2.54,1.19,2.54,3v4.47h-1l-0.1-.87h0a4,4,0,0,1-2.42,1.05,2,2,0,0,1-2.14-2.07C915.65,311.73,917,310.93,920.13,310.59Zm-2,3.81a3,3,0,0,0,2-1v-2c-2.44.3-3.27,0.9-3.27,1.83A1.12,1.12,0,0,0,918.14,314.4Z"/><path class="cls-1" d="M923.69,307.92h1l0.1,1.32h0a2.49,2.49,0,0,1,2.07-1.5,1.81,1.81,0,0,1,.78.15L927.47,309a2,2,0,0,0-.71-0.12c-0.62,0-1.35.45-1.84,1.68v4.68h-1.23v-7.29Z"/><path class="cls-1" d="M928.89,304.53h1.22v7.23h0l3.1-3.84h1.37l-2.45,2.92,2.78,4.36H933.6l-2.13-3.51-1.36,1.59v1.92h-1.22V304.53Z"/><path class="cls-1" d="M938.78,307.74c1.86,0,2.91,1.33,2.91,3.42a4.43,4.43,0,0,1,0,.67h-4.92a2.43,2.43,0,0,0,2.43,2.56,3.3,3.3,0,0,0,1.81-.57l0.44,0.81a4.34,4.34,0,0,1-2.4.75,3.49,3.49,0,0,1-3.49-3.81C935.51,309.19,937.11,307.74,938.78,307.74Zm1.83,3.28c0-1.48-.66-2.31-1.8-2.31a2.27,2.27,0,0,0-2.1,2.31h3.9Z"/><path class="cls-1" d="M943.49,307.92h1l0.1,1.32h0a2.49,2.49,0,0,1,2.07-1.5,1.81,1.81,0,0,1,.78.15L947.27,309a2,2,0,0,0-.71-0.12c-0.62,0-1.35.45-1.84,1.68v4.68h-1.23v-7.29Z"/><path class="cls-1" d="M302.53,124.85h1.82c2.43,0,3.6,1.54,3.6,3.92s-1.16,4-3.59,4h-1.83v-7.9Zm1.76,7.44c2.15,0,3.08-1.45,3.08-3.51s-0.94-3.45-3.08-3.45h-1.21v7h1.21Z"/><path class="cls-1" d="M309.49,125.14a0.48,0.48,0,1,1,.48.47A0.46,0.46,0,0,1,309.49,125.14Zm0.2,1.86h0.53v5.76h-0.53V127Z"/><path class="cls-1" d="M312,131.71a2.67,2.67,0,0,0,1.83.73,1.19,1.19,0,0,0,1.37-1.14c0-.72-0.74-1-1.4-1.27-0.87-.31-1.83-0.66-1.83-1.64a1.62,1.62,0,0,1,1.86-1.54,2.67,2.67,0,0,1,1.64.6l-0.29.37a2.18,2.18,0,0,0-1.38-.52,1.12,1.12,0,0,0-1.29,1c0,0.64.67,0.91,1.36,1.16,0.9,0.34,1.88.64,1.88,1.76a1.72,1.72,0,0,1-1.94,1.62,3.33,3.33,0,0,1-2.11-.79Z"/><path class="cls-1" d="M319.45,126.85a2.36,2.36,0,0,1,1.69.71l-0.31.37a2,2,0,0,0-1.37-.61c-1.18,0-2.09,1-2.09,2.57s0.83,2.54,2.09,2.54a2.32,2.32,0,0,0,1.54-.66l0.28,0.36a2.72,2.72,0,0,1-1.83.77c-1.49,0-2.61-1.1-2.61-3A2.73,2.73,0,0,1,319.45,126.85Z"/><path class="cls-1" d="M322.48,125.14a0.48,0.48,0,1,1,.48.47A0.46,0.46,0,0,1,322.48,125.14Zm0.2,1.86h0.53v5.76h-0.53V127Z"/><path class="cls-1" d="M326,133.26v2.1h-0.53V127h0.46l0,0.72h0a3.37,3.37,0,0,1,2-.86c1.54,0,2.3,1.15,2.3,2.94,0,2-1.19,3.11-2.54,3.11a3,3,0,0,1-1.73-.71v1.07Zm1.7-.83c1.16,0,2-1.08,2-2.64s-0.5-2.47-1.82-2.47a3,3,0,0,0-1.88.95v3.42A2.83,2.83,0,0,0,327.67,132.43Z"/><path class="cls-1" d="M332,124.13h0.53v7.93c0,0.25.11,0.37,0.25,0.37a0.93,0.93,0,0,0,.22,0l0.1,0.43a1.11,1.11,0,0,1-.38.06c-0.47,0-.71-0.29-0.71-0.91v-7.86Z"/><path class="cls-1" d="M334.6,125.14a0.48,0.48,0,1,1,.48.47A0.46,0.46,0,0,1,334.6,125.14Zm0.2,1.86h0.53v5.76h-0.53V127Z"/><path class="cls-1" d="M337.56,127H338l0,0.89h0a2.81,2.81,0,0,1,2-1c1.19,0,1.74.72,1.74,2.21v3.69h-0.53v-3.62c0-1.22-.38-1.8-1.32-1.8a2.64,2.64,0,0,0-1.88,1.08v4.34h-0.53V127Z"/><path class="cls-1" d="M346,126.85c1.37,0,2.21,1,2.21,2.66a2.66,2.66,0,0,1,0,.43H344a2.26,2.26,0,0,0,2.17,2.49,2.55,2.55,0,0,0,1.55-.52l0.22,0.41a3.21,3.21,0,0,1-1.81.56,2.72,2.72,0,0,1-2.66-3C343.46,128,344.68,126.85,346,126.85Zm1.7,2.69c0-1.48-.66-2.23-1.69-2.23a2.17,2.17,0,0,0-2,2.23h3.67Z"/><path class="cls-1" d="M290.76,145.73a3.12,3.12,0,0,0,2.33,1.07,1.7,1.7,0,0,0,2-1.58c0-1-.65-1.31-1.43-1.66l-1.2-.54a2.17,2.17,0,0,1-1.59-2,2.07,2.07,0,0,1,2.29-1.94,3,3,0,0,1,2.21.95l-0.32.37a2.51,2.51,0,0,0-1.88-.82,1.5,1.5,0,0,0-1.74,1.42,1.78,1.78,0,0,0,1.37,1.52l1.2,0.53a2.22,2.22,0,0,1,1.66,2.1,2.25,2.25,0,0,1-2.53,2.12,3.48,3.48,0,0,1-2.66-1.19Z"/><path class="cls-1" d="M299.2,141.25c1.37,0,2.21,1,2.21,2.66a2.66,2.66,0,0,1,0,.43h-4.15a2.26,2.26,0,0,0,2.17,2.49,2.55,2.55,0,0,0,1.55-.52l0.22,0.41a3.21,3.21,0,0,1-1.81.56,2.72,2.72,0,0,1-2.66-3C296.69,142.4,297.91,141.25,299.2,141.25Zm1.7,2.69c0-1.48-.66-2.23-1.69-2.23a2.17,2.17,0,0,0-2,2.23h3.67Z"/><path class="cls-1" d="M303,141.4h0.46l0,1.07h0a2,2,0,0,1,1.63-1.21,1.18,1.18,0,0,1,.58.12l-0.12.48a1.26,1.26,0,0,0-.53-0.1,1.92,1.92,0,0,0-1.57,1.48v3.92H303V141.4Z"/><path class="cls-1" d="M306.13,141.4h0.58L308,145c0.18,0.55.4,1.13,0.58,1.66h0c0.19-.53.4-1.1,0.59-1.66l1.29-3.61h0.54l-2.13,5.76h-0.62Z"/><path class="cls-1" d="M312.1,139.54a0.48,0.48,0,1,1,.48.47A0.46,0.46,0,0,1,312.1,139.54Zm0.2,1.86h0.53v5.76H312.3V141.4Z"/><path class="cls-1" d="M317.2,141.25a2.36,2.36,0,0,1,1.69.71l-0.31.37a2,2,0,0,0-1.37-.61c-1.17,0-2.09,1-2.09,2.57s0.83,2.54,2.09,2.54a2.31,2.31,0,0,0,1.54-.66l0.28,0.36a2.72,2.72,0,0,1-1.83.77c-1.49,0-2.61-1.1-2.61-3A2.73,2.73,0,0,1,317.2,141.25Z"/><path class="cls-1" d="M322.26,141.25c1.37,0,2.21,1,2.21,2.66a2.66,2.66,0,0,1,0,.43h-4.15a2.26,2.26,0,0,0,2.17,2.49,2.55,2.55,0,0,0,1.55-.52l0.22,0.41a3.21,3.21,0,0,1-1.81.56,2.72,2.72,0,0,1-2.66-3C319.75,142.4,321,141.25,322.26,141.25Zm1.7,2.69c0-1.48-.66-2.23-1.69-2.23a2.17,2.17,0,0,0-2,2.23H324Z"/><path class="cls-1" d="M328.44,139.25h1.82c2.43,0,3.6,1.54,3.6,3.92s-1.16,4-3.59,4h-1.83v-7.9Zm1.76,7.44c2.15,0,3.08-1.45,3.08-3.51s-0.94-3.45-3.08-3.45H329v7h1.21Z"/><path class="cls-1" d="M337.63,141.25c1.37,0,2.21,1,2.21,2.66a2.66,2.66,0,0,1,0,.43h-4.15a2.26,2.26,0,0,0,2.17,2.49,2.55,2.55,0,0,0,1.55-.52l0.22,0.41a3.21,3.21,0,0,1-1.81.56,2.72,2.72,0,0,1-2.66-3C335.13,142.4,336.35,141.25,337.63,141.25Zm1.7,2.69c0-1.48-.66-2.23-1.69-2.23a2.17,2.17,0,0,0-2,2.23h3.67Z"/><path class="cls-1" d="M341,146.11a2.67,2.67,0,0,0,1.83.73,1.19,1.19,0,0,0,1.37-1.14c0-.72-0.74-1-1.4-1.27-0.87-.31-1.83-0.66-1.83-1.64a1.62,1.62,0,0,1,1.86-1.54,2.67,2.67,0,0,1,1.64.6l-0.29.37a2.18,2.18,0,0,0-1.38-.52,1.12,1.12,0,0,0-1.29,1c0,0.64.67,0.91,1.36,1.16,0.9,0.34,1.88.64,1.88,1.76a1.72,1.72,0,0,1-1.94,1.62,3.33,3.33,0,0,1-2.11-.79Z"/><path class="cls-1" d="M346.06,139.54a0.48,0.48,0,1,1,.48.47A0.46,0.46,0,0,1,346.06,139.54Zm0.2,1.86h0.53v5.76h-0.53V141.4Z"/><path class="cls-1" d="M349.38,146.94v0a1,1,0,0,1-.5-0.92,1.35,1.35,0,0,1,.62-1.06v0a2.15,2.15,0,0,1-.72-1.58,2,2,0,0,1,2-2,2.07,2.07,0,0,1,.76.14h2v0.44h-1.34a1.91,1.91,0,0,1,.64,1.45,2,2,0,0,1-2,2,2,2,0,0,1-1-.24,1,1,0,0,0-.47.83c0,0.42.24,0.76,1.1,0.76h1.24c1.3,0,1.9.41,1.9,1.32s-1.07,1.94-2.72,1.94c-1.45,0-2.36-.62-2.36-1.6A1.81,1.81,0,0,1,349.38,146.94Zm1.57,2.55c1.3,0,2.12-.73,2.12-1.45s-0.47-.88-1.33-0.88h-1.24a3.58,3.58,0,0,1-.72-0.1,1.51,1.51,0,0,0-.76,1.21C349,149,349.73,149.49,351,149.49Zm1.34-6.21a1.5,1.5,0,1,0-3,0A1.5,1.5,0,1,0,352.3,143.28Z"/><path class="cls-1" d="M354.85,141.4h0.46l0,0.89h0a2.81,2.81,0,0,1,2-1c1.19,0,1.74.72,1.74,2.21v3.69h-0.53v-3.62c0-1.22-.38-1.8-1.32-1.8a2.64,2.64,0,0,0-1.88,1.08v4.34h-0.53V141.4Z"/><path class="cls-1" d="M346.36,238.73h2.16c1.76,0,2.81.58,2.81,2.21s-1.06,2.3-2.81,2.3h-1.61v3.39h-0.55v-7.9Zm2,4c1.62,0,2.39-.54,2.39-1.83s-0.78-1.74-2.39-1.74h-1.46v3.57h1.46Z"/><path class="cls-1" d="M353,240.87h0.46l0,1.07h0a2,2,0,0,1,1.63-1.21,1.18,1.18,0,0,1,.58.12l-0.12.48a1.26,1.26,0,0,0-.53-0.1,1.92,1.92,0,0,0-1.57,1.48v3.92H353v-5.76Z"/><path class="cls-1" d="M358.73,240.73c1.39,0,2.59,1.1,2.59,3a2.7,2.7,0,0,1-2.59,3c-1.38,0-2.58-1.1-2.58-3S357.35,240.73,358.73,240.73Zm0,5.58c1.16,0,2-1,2-2.54s-0.88-2.57-2-2.57-2,1-2,2.57S357.57,246.31,358.73,246.31Z"/><path class="cls-1" d="M365.13,240.73a2.66,2.66,0,0,1,1.74.71l0-1.06V238h0.53v8.62h-0.46l0-.74h0a2.69,2.69,0,0,1-1.87.89c-1.45,0-2.39-1.07-2.39-3A2.74,2.74,0,0,1,365.13,240.73Zm-0.1,5.58a2.6,2.6,0,0,0,1.81-.95v-3.42a2.44,2.44,0,0,0-1.68-.74c-1.15,0-2,1.12-2,2.57S363.81,246.31,365,246.31Z"/><path class="cls-1" d="M369.5,240.87H370v3.62c0,1.22.38,1.8,1.31,1.8a2.41,2.41,0,0,0,1.86-1.18v-4.25h0.53v5.76h-0.44l-0.06-1h0a2.57,2.57,0,0,1-2,1.1c-1.19,0-1.74-.72-1.74-2.21v-3.69Z"/><path class="cls-1" d="M378.08,240.73a2.36,2.36,0,0,1,1.69.71l-0.31.37a2,2,0,0,0-1.37-.61c-1.17,0-2.09,1-2.09,2.57s0.83,2.54,2.09,2.54a2.31,2.31,0,0,0,1.54-.66L379.9,246a2.72,2.72,0,0,1-1.83.77c-1.49,0-2.61-1.1-2.61-3A2.73,2.73,0,0,1,378.08,240.73Z"/><path class="cls-1" d="M381.45,241.33h-0.9v-0.41l0.91,0,0.07-1.67H382v1.67h1.67v0.46H382v3.75c0,0.73.18,1.22,1,1.22a1.92,1.92,0,0,0,.72-0.18l0.14,0.43a3.23,3.23,0,0,1-.94.22c-1.12,0-1.44-.71-1.44-1.74v-3.71Z"/><path class="cls-1" d="M387.21,245.2a3.12,3.12,0,0,0,2.33,1.07,1.7,1.7,0,0,0,2-1.58c0-1-.65-1.31-1.43-1.66l-1.2-.54a2.17,2.17,0,0,1-1.59-2,2.07,2.07,0,0,1,2.29-1.94,3,3,0,0,1,2.21.95l-0.32.37a2.51,2.51,0,0,0-1.88-.82,1.5,1.5,0,0,0-1.74,1.42A1.78,1.78,0,0,0,389.2,242l1.2,0.53a2.22,2.22,0,0,1,1.66,2.1,2.25,2.25,0,0,1-2.53,2.12,3.48,3.48,0,0,1-2.66-1.19Z"/><path class="cls-1" d="M395.64,240.73c1.37,0,2.21,1,2.21,2.66a2.66,2.66,0,0,1,0,.43h-4.15a2.26,2.26,0,0,0,2.17,2.49,2.55,2.55,0,0,0,1.55-.52l0.22,0.41a3.21,3.21,0,0,1-1.81.56,2.72,2.72,0,0,1-2.66-3C393.14,241.88,394.36,240.73,395.64,240.73Zm1.7,2.69c0-1.48-.66-2.23-1.69-2.23a2.17,2.17,0,0,0-2,2.23h3.67Z"/><path class="cls-1" d="M399.41,240.87h0.46l0,1.07h0a2,2,0,0,1,1.63-1.21,1.18,1.18,0,0,1,.58.12l-0.12.48a1.26,1.26,0,0,0-.53-0.1,1.92,1.92,0,0,0-1.57,1.48v3.92h-0.53v-5.76Z"/><path class="cls-1" d="M402.58,240.87h0.58l1.29,3.61c0.18,0.55.4,1.13,0.58,1.66h0c0.19-.53.4-1.1,0.59-1.66l1.29-3.61h0.54l-2.13,5.76h-0.62Z"/><path class="cls-1" d="M408.55,239a0.48,0.48,0,1,1,.48.47A0.46,0.46,0,0,1,408.55,239Zm0.2,1.86h0.53v5.76h-0.53v-5.76Z"/><path class="cls-1" d="M413.64,240.73a2.36,2.36,0,0,1,1.69.71l-0.31.37a2,2,0,0,0-1.37-.61c-1.18,0-2.09,1-2.09,2.57s0.83,2.54,2.09,2.54a2.32,2.32,0,0,0,1.54-.66l0.28,0.36a2.72,2.72,0,0,1-1.83.77c-1.49,0-2.61-1.1-2.61-3A2.73,2.73,0,0,1,413.64,240.73Z"/><path class="cls-1" d="M418.71,240.73c1.37,0,2.21,1,2.21,2.66a2.66,2.66,0,0,1,0,.43h-4.15a2.26,2.26,0,0,0,2.17,2.49,2.55,2.55,0,0,0,1.55-.52l0.22,0.41a3.21,3.21,0,0,1-1.81.56,2.72,2.72,0,0,1-2.66-3C416.2,241.88,417.42,240.73,418.71,240.73Zm1.7,2.69c0-1.48-.66-2.23-1.69-2.23a2.17,2.17,0,0,0-2,2.23h3.67Z"/><path class="cls-1" d="M348.85,259.6a3.12,3.12,0,0,0,2.33,1.07,1.7,1.7,0,0,0,2-1.58c0-1-.65-1.31-1.43-1.66l-1.2-.54a2.17,2.17,0,0,1-1.59-2,2.07,2.07,0,0,1,2.29-1.94,3,3,0,0,1,2.21.95l-0.32.37a2.51,2.51,0,0,0-1.88-.82,1.5,1.5,0,0,0-1.74,1.42,1.78,1.78,0,0,0,1.37,1.52L352,257a2.22,2.22,0,0,1,1.66,2.1,2.25,2.25,0,0,1-2.53,2.12A3.48,3.48,0,0,1,348.5,260Z"/><path class="cls-1" d="M355,263.16a1.8,1.8,0,0,0,1.47-1.52l0.16-.5-2.36-5.86h0.58l1.39,3.62c0.18,0.48.41,1.1,0.62,1.61h0c0.18-.5.37-1.13,0.53-1.61l1.24-3.62h0.54L357,261.75c-0.32,1-.9,1.91-1.93,1.91a1.46,1.46,0,0,1-.59-0.12l0.12-.47A1.35,1.35,0,0,0,355,263.16Z"/><path class="cls-1" d="M360.08,260a2.67,2.67,0,0,0,1.83.73,1.19,1.19,0,0,0,1.37-1.14c0-.72-0.74-1-1.4-1.27C361,258,360,257.65,360,256.66a1.62,1.62,0,0,1,1.86-1.54,2.67,2.67,0,0,1,1.64.6l-0.29.37a2.18,2.18,0,0,0-1.38-.52,1.12,1.12,0,0,0-1.3,1c0,0.64.67,0.91,1.36,1.16,0.9,0.34,1.88.64,1.88,1.76a1.72,1.72,0,0,1-1.94,1.62,3.33,3.33,0,0,1-2.11-.79Z"/><path class="cls-1" d="M365.48,255.73h-0.9v-0.41l0.91,0,0.07-1.67H366v1.67h1.67v0.46H366v3.75c0,0.73.18,1.22,1,1.22a1.93,1.93,0,0,0,.72-0.18l0.14,0.43a3.23,3.23,0,0,1-.94.22c-1.12,0-1.44-.71-1.44-1.74v-3.71Z"/><path class="cls-1" d="M371,255.13c1.37,0,2.21,1,2.21,2.66a2.66,2.66,0,0,1,0,.43H369a2.26,2.26,0,0,0,2.17,2.49,2.55,2.55,0,0,0,1.55-.52l0.22,0.41a3.21,3.21,0,0,1-1.81.56,2.72,2.72,0,0,1-2.66-3C368.5,256.28,369.72,255.13,371,255.13Zm1.7,2.69c0-1.48-.66-2.23-1.69-2.23a2.17,2.17,0,0,0-2,2.23h3.67Z"/><path class="cls-1" d="M374.77,255.27h0.46l0,0.89h0a2.63,2.63,0,0,1,1.81-1,1.5,1.5,0,0,1,1.59,1.18,2.89,2.89,0,0,1,2-1.18c1.15,0,1.73.72,1.73,2.21V261h-0.54v-3.62c0-1.22-.41-1.8-1.28-1.8a2.51,2.51,0,0,0-1.73,1.08V261h-0.53v-3.62c0-1.22-.41-1.8-1.29-1.8a2.56,2.56,0,0,0-1.73,1.08V261h-0.53v-5.76Z"/><path class="cls-1" d="M386.93,253.13h1.82c2.43,0,3.6,1.54,3.6,3.92s-1.16,4-3.59,4h-1.83v-7.9Zm1.76,7.44c2.15,0,3.08-1.45,3.08-3.51s-0.94-3.45-3.08-3.45h-1.21v7h1.21Z"/><path class="cls-1" d="M396.12,255.13c1.37,0,2.21,1,2.21,2.66a2.66,2.66,0,0,1,0,.43h-4.15a2.26,2.26,0,0,0,2.17,2.49,2.55,2.55,0,0,0,1.55-.52l0.22,0.41a3.21,3.21,0,0,1-1.81.56,2.72,2.72,0,0,1-2.66-3C393.61,256.28,394.83,255.13,396.12,255.13Zm1.7,2.69c0-1.48-.66-2.23-1.69-2.23a2.17,2.17,0,0,0-2,2.23h3.67Z"/><path class="cls-1" d="M399.48,260a2.67,2.67,0,0,0,1.83.73,1.19,1.19,0,0,0,1.37-1.14c0-.72-0.74-1-1.4-1.27-0.87-.31-1.83-0.66-1.83-1.64a1.62,1.62,0,0,1,1.86-1.54,2.67,2.67,0,0,1,1.64.6l-0.29.37a2.18,2.18,0,0,0-1.38-.52,1.12,1.12,0,0,0-1.29,1c0,0.64.67,0.91,1.36,1.16,0.9,0.34,1.88.64,1.88,1.76a1.72,1.72,0,0,1-1.94,1.62,3.33,3.33,0,0,1-2.11-.79Z"/><path class="cls-1" d="M404.54,253.41a0.48,0.48,0,1,1,.48.47A0.46,0.46,0,0,1,404.54,253.41Zm0.2,1.86h0.53V261h-0.53v-5.76Z"/><path class="cls-1" d="M407.87,260.81v0a1,1,0,0,1-.5-0.92,1.35,1.35,0,0,1,.62-1.06v0a2.15,2.15,0,0,1-.72-1.58,2,2,0,0,1,2-2,2.07,2.07,0,0,1,.76.14h2v0.44h-1.34a1.91,1.91,0,0,1,.64,1.45,2,2,0,0,1-2,2,2,2,0,0,1-1-.24,1,1,0,0,0-.47.83c0,0.42.24,0.76,1.1,0.76h1.24c1.3,0,1.9.41,1.9,1.32s-1.07,1.94-2.72,1.94c-1.45,0-2.36-.62-2.36-1.6A1.81,1.81,0,0,1,407.87,260.81Zm1.57,2.55c1.3,0,2.12-.73,2.12-1.45s-0.47-.88-1.33-0.88H409a3.58,3.58,0,0,1-.72-0.1,1.51,1.51,0,0,0-.76,1.21C407.52,262.88,408.22,263.37,409.44,263.37Zm1.34-6.21a1.5,1.5,0,1,0-3,0A1.5,1.5,0,1,0,410.78,257.16Z"/><path class="cls-1" d="M413.34,255.27h0.46l0,0.89h0a2.81,2.81,0,0,1,2-1c1.19,0,1.74.72,1.74,2.21V261h-0.53v-3.62c0-1.22-.38-1.8-1.32-1.8a2.64,2.64,0,0,0-1.88,1.08V261h-0.53v-5.76Z"/><path class="cls-1" d="M425.7,129.7h-3.13l-0.92,2.71h-0.56l2.79-7.9h0.55l2.78,7.9h-0.59Zm-0.16-.47-0.5-1.48c-0.31-.94-0.6-1.76-0.88-2.73h0c-0.28,1-.55,1.8-0.87,2.73l-0.5,1.48h2.81Z"/><path class="cls-1" d="M428.89,132.92V135h-0.53v-8.36h0.46l0,0.72h0a3.37,3.37,0,0,1,2-.86c1.54,0,2.3,1.15,2.3,2.94,0,2-1.19,3.11-2.54,3.11a3,3,0,0,1-1.73-.71v1.07Zm1.7-.83c1.16,0,2-1.08,2-2.64s-0.5-2.47-1.82-2.47a3,3,0,0,0-1.88.95v3.42A2.83,2.83,0,0,0,430.6,132.09Z"/><path class="cls-1" d="M435.42,132.92V135h-0.53v-8.36h0.46l0,0.72h0a3.37,3.37,0,0,1,2-.86c1.54,0,2.3,1.15,2.3,2.94,0,2-1.19,3.11-2.54,3.11a3,3,0,0,1-1.73-.71v1.07Zm1.7-.83c1.16,0,2-1.08,2-2.64s-0.5-2.47-1.82-2.47a3,3,0,0,0-1.88.95v3.42A2.83,2.83,0,0,0,437.12,132.09Z"/><path class="cls-1" d="M441.42,126.66h0.46l0,1.07h0a2,2,0,0,1,1.63-1.21,1.18,1.18,0,0,1,.58.12l-0.12.48a1.26,1.26,0,0,0-.53-0.1,1.92,1.92,0,0,0-1.57,1.48v3.92h-0.53v-5.76Z"/><path class="cls-1" d="M447.21,126.51c1.39,0,2.59,1.1,2.59,3a2.7,2.7,0,0,1-2.59,3c-1.38,0-2.58-1.1-2.58-3S445.83,126.51,447.21,126.51Zm0,5.58c1.16,0,2-1,2-2.54s-0.88-2.57-2-2.57-2,1-2,2.57S446,132.09,447.21,132.09Z"/><path class="cls-1" d="M454.74,128.8c0-.88-0.23-1.82-1.35-1.82a3.17,3.17,0,0,0-1.83.67l-0.24-.4a3.85,3.85,0,0,1,2.13-.74c1.37,0,1.82,1,1.82,2.22v3.68h-0.44l-0.06-.74h0a3.41,3.41,0,0,1-2,.89A1.52,1.52,0,0,1,451,131C451,129.7,452.19,129.09,454.74,128.8Zm-2,3.3a3,3,0,0,0,2-.94v-2c-2.36.28-3.17,0.83-3.17,1.74A1.08,1.08,0,0,0,452.79,132.1Z"/><path class="cls-1" d="M459.48,126.51a2.36,2.36,0,0,1,1.69.71l-0.31.37a2,2,0,0,0-1.37-.61c-1.18,0-2.09,1-2.09,2.57s0.83,2.54,2.09,2.54a2.32,2.32,0,0,0,1.54-.66l0.28,0.36a2.72,2.72,0,0,1-1.83.77c-1.49,0-2.61-1.1-2.61-3A2.73,2.73,0,0,1,459.48,126.51Z"/><path class="cls-1" d="M462.72,123.79h0.53v3.77a2.83,2.83,0,0,1,2-1c1.19,0,1.74.72,1.74,2.21v3.69h-0.53v-3.62c0-1.22-.38-1.8-1.32-1.8a2.64,2.64,0,0,0-1.88,1.08v4.34h-0.53v-8.62Z"/><path class="cls-1" d="M406.91,138.91h1.82c2.43,0,3.6,1.54,3.6,3.92s-1.16,4-3.59,4h-1.83v-7.9Zm1.76,7.44c2.15,0,3.08-1.45,3.08-3.51s-0.94-3.45-3.08-3.45h-1.21v7h1.21Z"/><path class="cls-1" d="M416.1,140.91c1.37,0,2.21,1,2.21,2.66a2.66,2.66,0,0,1,0,.43h-4.15a2.26,2.26,0,0,0,2.17,2.49,2.55,2.55,0,0,0,1.55-.52l0.22,0.41a3.21,3.21,0,0,1-1.81.56,2.72,2.72,0,0,1-2.66-3C413.59,142.06,414.82,140.91,416.1,140.91Zm1.7,2.69c0-1.48-.66-2.23-1.69-2.23a2.17,2.17,0,0,0-2,2.23h3.67Z"/><path class="cls-1" d="M419.46,145.77a2.67,2.67,0,0,0,1.83.73,1.19,1.19,0,0,0,1.37-1.14c0-.72-0.74-1-1.4-1.27-0.88-.31-1.84-0.66-1.84-1.64a1.62,1.62,0,0,1,1.86-1.54,2.67,2.67,0,0,1,1.64.6l-0.29.37a2.18,2.18,0,0,0-1.38-.52,1.12,1.12,0,0,0-1.3,1c0,0.64.67,0.91,1.36,1.16,0.9,0.34,1.88.64,1.88,1.76a1.72,1.72,0,0,1-1.94,1.62,3.33,3.33,0,0,1-2.11-.79Z"/><path class="cls-1" d="M424.53,139.2a0.48,0.48,0,1,1,.48.47A0.46,0.46,0,0,1,424.53,139.2Zm0.2,1.86h0.53v5.76h-0.53v-5.76Z"/><path class="cls-1" d="M427.85,146.6v0a1,1,0,0,1-.5-0.92,1.35,1.35,0,0,1,.62-1.06v0a2.15,2.15,0,0,1-.72-1.58,2,2,0,0,1,2-2,2.07,2.07,0,0,1,.76.14h2v0.44h-1.34a1.91,1.91,0,0,1,.64,1.45,2,2,0,0,1-2,2,2,2,0,0,1-1-.24,1,1,0,0,0-.47.83c0,0.42.24,0.76,1.1,0.76h1.24c1.3,0,1.9.41,1.9,1.32s-1.07,1.94-2.72,1.94c-1.45,0-2.36-.62-2.36-1.6A1.81,1.81,0,0,1,427.85,146.6Zm1.57,2.55c1.3,0,2.12-.73,2.12-1.45s-0.47-.88-1.33-0.88H429a3.58,3.58,0,0,1-.72-0.1,1.51,1.51,0,0,0-.76,1.21C427.5,148.66,428.2,149.15,429.42,149.15Zm1.34-6.21a1.5,1.5,0,1,0-3,0A1.5,1.5,0,1,0,430.76,142.94Z"/><path class="cls-1" d="M433.32,141.06h0.46l0,0.89h0a2.81,2.81,0,0,1,2-1c1.19,0,1.74.72,1.74,2.21v3.69h-0.53v-3.62c0-1.22-.38-1.8-1.32-1.8a2.64,2.64,0,0,0-1.88,1.08v4.34h-0.53v-5.76Z"/><path class="cls-1" d="M443.82,139.39H441.3v-0.48h5.58v0.48h-2.51v7.42h-0.55v-7.42Z"/><path class="cls-1" d="M448.3,138.19h0.53V142a2.83,2.83,0,0,1,2-1c1.19,0,1.74.72,1.74,2.21v3.69H452v-3.62c0-1.22-.38-1.8-1.32-1.8a2.64,2.64,0,0,0-1.88,1.08v4.34H448.3v-8.62Z"/><path class="cls-1" d="M454.43,139.2a0.48,0.48,0,1,1,.48.47A0.46,0.46,0,0,1,454.43,139.2Zm0.2,1.86h0.53v5.76h-0.53v-5.76Z"/><path class="cls-1" d="M457.38,141.06h0.46l0,0.89h0a2.81,2.81,0,0,1,2-1c1.19,0,1.74.72,1.74,2.21v3.69h-0.53v-3.62c0-1.22-.38-1.8-1.32-1.8a2.64,2.64,0,0,0-1.88,1.08v4.34h-0.53v-5.76Z"/><path class="cls-1" d="M463.77,138.19h0.53v6.36h0l2.84-3.49h0.61l-1.87,2.28,2.18,3.48H467.5l-1.91-3.08-1.3,1.51v1.57h-0.53v-8.62Z"/><path class="cls-1" d="M469.13,139.2a0.48,0.48,0,1,1,.48.47A0.46,0.46,0,0,1,469.13,139.2Zm0.2,1.86h0.53v5.76h-0.53v-5.76Z"/><path class="cls-1" d="M472.08,141.06h0.46l0,0.89h0a2.81,2.81,0,0,1,2-1c1.19,0,1.74.72,1.74,2.21v3.69h-0.53v-3.62c0-1.22-.38-1.8-1.32-1.8a2.64,2.64,0,0,0-1.88,1.08v4.34h-0.53v-5.76Z"/><path class="cls-1" d="M478.84,146.6v0a1,1,0,0,1-.5-0.92,1.35,1.35,0,0,1,.62-1.06v0a2.15,2.15,0,0,1-.72-1.58,2,2,0,0,1,2-2,2.07,2.07,0,0,1,.76.14h2v0.44h-1.34a1.91,1.91,0,0,1,.64,1.45,2,2,0,0,1-2,2,2,2,0,0,1-1-.24,1,1,0,0,0-.47.83c0,0.42.24,0.76,1.1,0.76h1.24c1.3,0,1.9.41,1.9,1.32s-1.07,1.94-2.72,1.94c-1.45,0-2.36-.62-2.36-1.6A1.81,1.81,0,0,1,478.84,146.6Zm1.57,2.55c1.3,0,2.12-.73,2.12-1.45s-0.47-.88-1.33-0.88H480a3.58,3.58,0,0,1-.72-0.1,1.51,1.51,0,0,0-.76,1.21C478.49,148.66,479.19,149.15,480.41,149.15Zm1.34-6.21a1.5,1.5,0,1,0-3,0A1.5,1.5,0,1,0,481.75,142.94Z"/><circle class="cls-2" cx="428.83" cy="167.6" r="65.95"/><circle class="cls-2" cx="337.1" cy="170.26" r="65.95"/><circle class="cls-2" cx="383.24" cy="218.17" r="65.95"/><path class="cls-1" d="M330.32,307.89c0-3.15,1.74-5.05,4.21-5.05s4.2,1.92,4.2,5.05S337,313,334.54,313,330.32,311.05,330.32,307.89Zm7.12,0c0-2.44-1.15-4-2.91-4s-2.92,1.52-2.92,4,1.15,4,2.92,4S337.45,310.35,337.45,307.89Z"/><path class="cls-1" d="M343.54,305.38c1.79,0,3.38,1.4,3.38,3.84s-1.59,3.81-3.37,3.81-3.37-1.4-3.37-3.81S341.75,305.38,343.54,305.38Zm0,6.63c1.26,0,2.1-1.12,2.1-2.79s-0.84-2.82-2.1-2.82-2.1,1.14-2.1,2.82S342.29,312,343.54,312Z"/><path class="cls-1" d="M348.83,305.56h1l0.1,1h0a3.43,3.43,0,0,1,2.44-1.23c1.53,0,2.22,1,2.22,2.85v4.62h-1.23V308.4c0-1.37-.42-2-1.38-2a2.79,2.79,0,0,0-2,1.13v5.28h-1.23v-7.29Z"/><path class="cls-1" d="M361.16,308.23c0-.93-0.31-1.83-1.5-1.83a3.93,3.93,0,0,0-2.17.78l-0.5-.85a5.41,5.41,0,0,1,2.87-.94c1.79,0,2.54,1.19,2.54,3v4.47h-1l-0.1-.87h0a4,4,0,0,1-2.42,1.05,2,2,0,0,1-2.14-2.07C356.68,309.37,358.06,308.58,361.16,308.23Zm-2,3.81a3,3,0,0,0,2-1v-2c-2.44.3-3.27,0.9-3.27,1.83A1.12,1.12,0,0,0,359.17,312Z"/><path class="cls-1" d="M365.23,312.6v-0.06a1.35,1.35,0,0,1-.65-1.19,1.71,1.71,0,0,1,.79-1.35v-0.06a2.57,2.57,0,0,1,1.8-4.56,2.91,2.91,0,0,1,1,.18h2.54v0.94h-1.5a2.11,2.11,0,0,1,.6,1.5,2.5,2.5,0,0,1-2.67,2.53,2.55,2.55,0,0,1-1.09-.25,1.1,1.1,0,0,0-.46.87c0,0.46.3,0.79,1.29,0.79h1.41c1.69,0,2.55.52,2.55,1.74s-1.42,2.52-3.69,2.52c-1.78,0-3-.71-3-2A2.1,2.1,0,0,1,365.23,312.6Zm2.13,2.76c1.39,0,2.31-.72,2.31-1.48s-0.53-.9-1.47-0.9h-1.26a3.56,3.56,0,0,1-.95-0.12,1.53,1.53,0,0,0-.75,1.23C365.24,314.86,366,315.36,367.36,315.36Zm1.36-7.38a1.55,1.55,0,1,0-3.09,0A1.56,1.56,0,1,0,368.72,308Z"/><path class="cls-1" d="M372.28,302.17h1.23v2.91l0,1.5a3.48,3.48,0,0,1,2.43-1.2c1.53,0,2.22,1,2.22,2.85v4.62h-1.23V308.4c0-1.37-.42-2-1.38-2a2.79,2.79,0,0,0-2,1.13v5.28h-1.23V302.17Z"/><path class="cls-1" d="M387.37,302.83a3.63,3.63,0,0,1,2.68,1.21l-0.71.79a2.63,2.63,0,0,0-2-.92c-1.87,0-3.12,1.53-3.12,4s1.18,4,3.06,4a2.87,2.87,0,0,0,2.25-1.09l0.71,0.76a3.77,3.77,0,0,1-3,1.43c-2.47,0-4.32-1.89-4.32-5.1S384.85,302.83,387.37,302.83Z"/><path class="cls-1" d="M394.79,305.38c1.79,0,3.38,1.4,3.38,3.84s-1.59,3.81-3.37,3.81-3.37-1.4-3.37-3.81S393,305.38,394.79,305.38Zm0,6.63c1.26,0,2.1-1.12,2.1-2.79s-0.84-2.82-2.1-2.82-2.1,1.14-2.1,2.82S393.55,312,394.79,312Z"/><path class="cls-1" d="M400.09,305.56h1l0.1,1h0a3.21,3.21,0,0,1,2.27-1.23,1.91,1.91,0,0,1,2,1.4,3.44,3.44,0,0,1,2.4-1.4c1.5,0,2.22,1,2.22,2.85v4.62h-1.23V308.4c0-1.37-.43-2-1.35-2a2.67,2.67,0,0,0-1.83,1.13v5.28h-1.23V308.4c0-1.37-.43-2-1.36-2a2.73,2.73,0,0,0-1.83,1.13v5.28h-1.23v-7.29Z"/><path class="cls-1" d="M415.25,305.38c1.86,0,2.91,1.33,2.91,3.42a4.43,4.43,0,0,1,0,.67H413.2a2.43,2.43,0,0,0,2.43,2.56,3.3,3.3,0,0,0,1.81-.57l0.44,0.81a4.34,4.34,0,0,1-2.4.75,3.49,3.49,0,0,1-3.49-3.81C412,306.84,413.59,305.38,415.25,305.38Zm1.83,3.28c0-1.48-.66-2.31-1.8-2.31a2.27,2.27,0,0,0-2.1,2.31h3.9Z"/><path class="cls-1" d="M420,305.56h1l0.1,1.32h0a2.49,2.49,0,0,1,2.07-1.5,1.81,1.81,0,0,1,.78.15l-0.24,1.08a2,2,0,0,0-.71-0.12c-0.62,0-1.35.45-1.84,1.68v4.68H420v-7.29Z"/><path class="cls-1" d="M428.45,303.18a2.05,2.05,0,0,0-.83-0.18c-0.69,0-1,.48-1,1.41v1.16h1.54v1h-1.54v6.28h-1.23v-6.28h-1v-0.93l1-.07v-1.16c0-1.48.68-2.41,2.13-2.41a3.31,3.31,0,0,1,1.21.24Z"/><path class="cls-1" d="M432.23,305.38c1.79,0,3.38,1.4,3.38,3.84S434,313,432.23,313s-3.37-1.4-3.37-3.81S430.45,305.38,432.23,305.38Zm0,6.63c1.26,0,2.1-1.12,2.1-2.79s-0.84-2.82-2.1-2.82-2.1,1.14-2.1,2.82S431,312,432.23,312Z"/><path class="cls-1" d="M437.53,305.56h1l0.1,1.32h0a2.49,2.49,0,0,1,2.07-1.5,1.81,1.81,0,0,1,.78.15l-0.24,1.08a2,2,0,0,0-.71-0.12c-0.62,0-1.35.45-1.84,1.68v4.68h-1.23v-7.29Z"/><path class="cls-1" d="M445.22,305.38a3,3,0,0,1,2,.84L447.2,305v-2.81h1.25v10.68h-1l-0.11-.85h0a3.29,3.29,0,0,1-2.21,1c-1.83,0-3-1.38-3-3.81S443.56,305.38,445.22,305.38Zm0.12,6.61a2.47,2.47,0,0,0,1.86-1v-3.81a2.54,2.54,0,0,0-1.77-.76c-1.17,0-2.1,1.13-2.1,2.79S444.07,312,445.34,312Z"/><path class="cls-1" d="M108.86,185.45H111c1.76,0,2.81.58,2.81,2.21S112.77,190,111,190h-1.61v3.39h-0.55v-7.9Zm2,4c1.62,0,2.39-.54,2.39-1.83s-0.78-1.74-2.39-1.74h-1.46v3.57h1.46Z"/><path class="cls-1" d="M115.45,187.6h0.46l0,1.07h0a2,2,0,0,1,1.63-1.21,1.18,1.18,0,0,1,.58.12l-0.12.48a1.26,1.26,0,0,0-.53-0.1,1.92,1.92,0,0,0-1.57,1.48v3.92h-0.53V187.6Z"/><path class="cls-1" d="M121.23,187.45c1.39,0,2.59,1.1,2.59,3a2.7,2.7,0,0,1-2.59,3c-1.38,0-2.58-1.1-2.58-3S119.85,187.45,121.23,187.45Zm0,5.58c1.16,0,2-1,2-2.54s-0.88-2.57-2-2.57-2,1-2,2.57S120.07,193,121.23,193Z"/><path class="cls-1" d="M127.63,187.45a2.66,2.66,0,0,1,1.74.71l0-1.06v-2.37h0.53v8.62h-0.46l0-.74h0a2.69,2.69,0,0,1-1.87.89c-1.45,0-2.39-1.07-2.39-3A2.74,2.74,0,0,1,127.63,187.45Zm-0.1,5.58a2.6,2.6,0,0,0,1.81-.95v-3.42a2.44,2.44,0,0,0-1.68-.74c-1.15,0-2,1.12-2,2.57S126.31,193,127.53,193Z"/><path class="cls-1" d="M132,187.6h0.53v3.62c0,1.22.38,1.8,1.31,1.8a2.41,2.41,0,0,0,1.86-1.18V187.6h0.53v5.76h-0.44l-0.06-1h0a2.57,2.57,0,0,1-2,1.1c-1.19,0-1.74-.72-1.74-2.21V187.6Z"/><path class="cls-1" d="M140.58,187.45a2.36,2.36,0,0,1,1.69.71l-0.31.37a2,2,0,0,0-1.37-.61c-1.17,0-2.09,1-2.09,2.57s0.83,2.54,2.09,2.54a2.31,2.31,0,0,0,1.54-.66l0.28,0.36a2.72,2.72,0,0,1-1.83.77c-1.49,0-2.61-1.1-2.61-3A2.73,2.73,0,0,1,140.58,187.45Z"/><path class="cls-1" d="M144,188.05h-0.9v-0.41l0.91,0,0.07-1.67h0.46v1.67h1.67v0.46h-1.67v3.75c0,0.73.18,1.22,1,1.22a1.92,1.92,0,0,0,.72-0.18l0.14,0.43a3.23,3.23,0,0,1-.94.22c-1.12,0-1.44-.71-1.44-1.74v-3.71Z"/><path class="cls-1" d="M110.45,152.55a3.12,3.12,0,0,0,2.33,1.07,1.7,1.7,0,0,0,2-1.58c0-1-.65-1.31-1.43-1.66l-1.2-.54a2.17,2.17,0,0,1-1.59-2,2.07,2.07,0,0,1,2.29-1.94,3,3,0,0,1,2.21.95l-0.32.37a2.51,2.51,0,0,0-1.88-.82,1.5,1.5,0,0,0-1.74,1.42,1.78,1.78,0,0,0,1.37,1.52l1.2,0.53a2.22,2.22,0,0,1,1.66,2.1,2.25,2.25,0,0,1-2.53,2.12,3.48,3.48,0,0,1-2.66-1.19Z"/><path class="cls-1" d="M118.88,148.08c1.37,0,2.21,1,2.21,2.66a2.66,2.66,0,0,1,0,.43h-4.15a2.26,2.26,0,0,0,2.17,2.49,2.55,2.55,0,0,0,1.55-.52l0.22,0.41a3.21,3.21,0,0,1-1.81.56,2.72,2.72,0,0,1-2.66-3C116.38,149.23,117.6,148.08,118.88,148.08Zm1.7,2.69c0-1.48-.66-2.23-1.69-2.23a2.17,2.17,0,0,0-2,2.23h3.67Z"/><path class="cls-1" d="M122.65,148.22h0.46l0,1.07h0a2,2,0,0,1,1.63-1.21,1.18,1.18,0,0,1,.58.12l-0.12.48a1.26,1.26,0,0,0-.53-0.1,1.92,1.92,0,0,0-1.57,1.48V154h-0.53v-5.76Z"/><path class="cls-1" d="M125.82,148.22h0.58l1.29,3.61c0.18,0.55.4,1.13,0.58,1.66h0c0.19-.53.4-1.1,0.59-1.66l1.29-3.61h0.54L128.6,154H128Z"/><path class="cls-1" d="M131.78,146.36a0.48,0.48,0,1,1,.48.47A0.46,0.46,0,0,1,131.78,146.36Zm0.2,1.86h0.53V154H132v-5.76Z"/><path class="cls-1" d="M136.88,148.08a2.36,2.36,0,0,1,1.69.71l-0.31.37a2,2,0,0,0-1.37-.61c-1.18,0-2.09,1-2.09,2.57s0.83,2.54,2.09,2.54a2.32,2.32,0,0,0,1.54-.66l0.28,0.36a2.72,2.72,0,0,1-1.83.77c-1.49,0-2.61-1.1-2.61-3A2.73,2.73,0,0,1,136.88,148.08Z"/><path class="cls-1" d="M141.95,148.08c1.37,0,2.21,1,2.21,2.66a2.66,2.66,0,0,1,0,.43H140a2.26,2.26,0,0,0,2.17,2.49,2.55,2.55,0,0,0,1.55-.52l0.22,0.41a3.21,3.21,0,0,1-1.81.56,2.72,2.72,0,0,1-2.66-3C139.44,149.23,140.66,148.08,141.95,148.08Zm1.7,2.69c0-1.48-.66-2.23-1.69-2.23a2.17,2.17,0,0,0-2,2.23h3.67Z"/><path class="cls-1" d="M110.25,119.64a3.12,3.12,0,0,0,2.33,1.07,1.7,1.7,0,0,0,2-1.58c0-1-.65-1.31-1.43-1.66l-1.2-.54a2.17,2.17,0,0,1-1.59-2,2.07,2.07,0,0,1,2.29-1.94,3,3,0,0,1,2.21.95l-0.32.37a2.51,2.51,0,0,0-1.88-.82,1.5,1.5,0,0,0-1.74,1.42,1.78,1.78,0,0,0,1.37,1.52l1.2,0.53a2.22,2.22,0,0,1,1.66,2.1,2.25,2.25,0,0,1-2.53,2.12A3.48,3.48,0,0,1,109.9,120Z"/><path class="cls-1" d="M116.43,123.2a1.8,1.8,0,0,0,1.47-1.52l0.16-.5-2.36-5.86h0.58l1.39,3.62c0.18,0.48.41,1.1,0.62,1.61h0c0.18-.5.37-1.13,0.53-1.61l1.24-3.62h0.54l-2.28,6.48c-0.32,1-.9,1.91-1.93,1.91a1.46,1.46,0,0,1-.59-0.12l0.12-.47A1.35,1.35,0,0,0,116.43,123.2Z"/><path class="cls-1" d="M121.48,120a2.67,2.67,0,0,0,1.83.73,1.19,1.19,0,0,0,1.37-1.14c0-.72-0.74-1-1.4-1.27-0.88-.31-1.84-0.66-1.84-1.64a1.62,1.62,0,0,1,1.86-1.54,2.67,2.67,0,0,1,1.64.6l-0.29.37a2.18,2.18,0,0,0-1.38-.52,1.12,1.12,0,0,0-1.3,1c0,0.64.67,0.91,1.36,1.16,0.9,0.34,1.88.64,1.88,1.76a1.72,1.72,0,0,1-1.94,1.62,3.33,3.33,0,0,1-2.11-.79Z"/><path class="cls-1" d="M126.88,115.77H126v-0.41l0.91,0,0.07-1.67h0.46v1.67h1.67v0.46h-1.67v3.75c0,0.73.18,1.22,1,1.22a1.93,1.93,0,0,0,.72-0.18l0.14,0.43a3.23,3.23,0,0,1-.94.22c-1.12,0-1.44-.71-1.44-1.74v-3.71Z"/><path class="cls-1" d="M132.4,115.17c1.37,0,2.21,1,2.21,2.66a2.66,2.66,0,0,1,0,.43h-4.15a2.26,2.26,0,0,0,2.17,2.49,2.55,2.55,0,0,0,1.55-.52l0.22,0.41a3.21,3.21,0,0,1-1.81.56,2.72,2.72,0,0,1-2.66-3C129.89,116.32,131.12,115.17,132.4,115.17Zm1.7,2.69c0-1.48-.66-2.23-1.69-2.23a2.17,2.17,0,0,0-2,2.23h3.67Z"/><path class="cls-1" d="M136.17,115.31h0.46l0,0.89h0a2.63,2.63,0,0,1,1.81-1,1.5,1.5,0,0,1,1.59,1.18,2.89,2.89,0,0,1,2-1.18c1.15,0,1.73.72,1.73,2.21v3.69h-0.54v-3.62c0-1.22-.41-1.8-1.28-1.8a2.51,2.51,0,0,0-1.73,1.08v4.34h-0.53v-3.62c0-1.22-.41-1.8-1.29-1.8a2.56,2.56,0,0,0-1.73,1.08v4.34h-0.53v-5.76Z"/><circle class="cls-2" cx="127.1" cy="190.93" r="61"/><circle class="cls-2" cx="127.1" cy="190.93" r="92.02"/><circle class="cls-2" cx="127.1" cy="190.93" r="24.37"/><path class="cls-1" d="M100.35,310.77c0-3.15,1.74-5.05,4.21-5.05s4.2,1.92,4.2,5.05-1.74,5.15-4.2,5.15S100.35,313.94,100.35,310.77Zm7.12,0c0-2.44-1.15-4-2.91-4s-2.92,1.52-2.92,4,1.15,4,2.92,4S107.47,313.23,107.47,310.77Z"/><path class="cls-1" d="M110.73,305.06H112v9.3c0,0.39.17,0.54,0.34,0.54a1,1,0,0,0,.27,0l0.17,0.93a1.66,1.66,0,0,1-.71.12c-0.93,0-1.31-.58-1.31-1.65v-9.21Z"/><path class="cls-1" d="M114.33,306.15a0.86,0.86,0,0,1,1.71,0A0.86,0.86,0,0,1,114.33,306.15Zm0.22,2.29h1.23v7.29h-1.23v-7.29Z"/><path class="cls-1" d="M121.39,313.59a3.83,3.83,0,0,0,2.71,1.23c1.29,0,2.06-.65,2.06-1.6s-0.72-1.32-1.65-1.74l-1.41-.62a2.78,2.78,0,0,1-2-2.53c0-1.5,1.32-2.61,3.1-2.61a4,4,0,0,1,2.89,1.21l-0.66.81a3.16,3.16,0,0,0-2.23-.93c-1.11,0-1.84.56-1.84,1.44s0.87,1.31,1.63,1.64l1.41,0.6a2.74,2.74,0,0,1,2,2.63c0,1.56-1.29,2.81-3.36,2.81a4.74,4.74,0,0,1-3.44-1.46Z"/><path class="cls-1" d="M129.21,305.06h1.23V308l0,1.5a3.48,3.48,0,0,1,2.43-1.2c1.53,0,2.22,1,2.22,2.85v4.62h-1.23v-4.45c0-1.37-.42-2-1.38-2a2.79,2.79,0,0,0-2,1.13v5.28h-1.23V305.06Z"/><path class="cls-1" d="M141.49,311.12c0-.93-0.31-1.83-1.5-1.83a3.93,3.93,0,0,0-2.17.78l-0.5-.85a5.42,5.42,0,0,1,2.87-.94c1.79,0,2.54,1.19,2.54,3v4.47h-1l-0.1-.87h0a4,4,0,0,1-2.42,1.05,2,2,0,0,1-2.14-2.07C137,312.26,138.39,311.46,141.49,311.12Zm-2,3.81a3,3,0,0,0,2-1v-2c-2.44.3-3.27,0.9-3.27,1.83A1.12,1.12,0,0,0,139.5,314.93Z"/><path class="cls-1" d="M144.18,308.45h1.26l1.08,4.21c0.17,0.69.3,1.35,0.43,2H147c0.17-.68.31-1.35,0.49-2l1.13-4.21h1.2l1.14,4.21c0.18,0.69.35,1.35,0.51,2h0.06c0.17-.68.3-1.33,0.45-2l1.06-4.21h1.17l-1.95,7.29h-1.5l-1-3.92c-0.18-.69-0.32-1.36-0.5-2.1h-0.06c-0.17.73-.31,1.42-0.51,2.11l-1,3.9H146.2Z"/><circle class="cls-2" cx="617.85" cy="163.32" r="56.2"/><circle class="cls-2" cx="674.78" cy="163.27" r="56.2"/><circle class="cls-2" cx="617.85" cy="219.37" r="56.2"/><path class="cls-3" d="M619.11,221.5m-1,.1c-0.07-1.13,0-1.14,0-2.29a56.74,56.74,0,1,1,9.65,31.6h1.2a55.68,55.68,0,1,0-9.85-31.6q0,1.1,0,2.19m-0.93.39"/><path class="cls-1" d="M579.29,143.91a3.12,3.12,0,0,0,2.33,1.07,1.7,1.7,0,0,0,2-1.58c0-1-.65-1.31-1.43-1.66l-1.2-.54a2.17,2.17,0,0,1-1.59-2,2.07,2.07,0,0,1,2.29-1.94,3,3,0,0,1,2.21.95l-0.32.37a2.51,2.51,0,0,0-1.88-.82,1.5,1.5,0,0,0-1.74,1.42,1.78,1.78,0,0,0,1.37,1.52l1.2,0.53a2.22,2.22,0,0,1,1.66,2.1,2.25,2.25,0,0,1-2.53,2.12,3.48,3.48,0,0,1-2.66-1.19Z"/><path class="cls-1" d="M587.73,139.43c1.37,0,2.21,1,2.21,2.66a2.66,2.66,0,0,1,0,.43h-4.15a2.26,2.26,0,0,0,2.17,2.49,2.55,2.55,0,0,0,1.55-.52l0.22,0.41a3.21,3.21,0,0,1-1.81.56,2.72,2.72,0,0,1-2.66-3C585.22,140.58,586.44,139.43,587.73,139.43Zm1.7,2.69c0-1.48-.66-2.23-1.69-2.23a2.17,2.17,0,0,0-2,2.23h3.67Z"/><path class="cls-1" d="M591.5,139.58H592l0,1.07h0a2,2,0,0,1,1.63-1.21,1.18,1.18,0,0,1,.58.12l-0.12.48a1.26,1.26,0,0,0-.53-0.1,1.92,1.92,0,0,0-1.57,1.48v3.92H591.5v-5.76Z"/><path class="cls-1" d="M594.66,139.58h0.58l1.29,3.61c0.18,0.55.4,1.13,0.58,1.66h0c0.19-.53.4-1.1,0.59-1.66l1.29-3.61h0.54l-2.13,5.76h-0.62Z"/><path class="cls-1" d="M600.63,137.72a0.48,0.48,0,1,1,.48.47A0.46,0.46,0,0,1,600.63,137.72Zm0.2,1.86h0.53v5.76h-0.53v-5.76Z"/><path class="cls-1" d="M605.73,139.43a2.36,2.36,0,0,1,1.69.71l-0.31.37a2,2,0,0,0-1.37-.61c-1.18,0-2.09,1-2.09,2.57s0.83,2.54,2.09,2.54a2.32,2.32,0,0,0,1.54-.66l0.28,0.36a2.72,2.72,0,0,1-1.83.77c-1.49,0-2.61-1.1-2.61-3A2.73,2.73,0,0,1,605.73,139.43Z"/><path class="cls-1" d="M610.79,139.43c1.37,0,2.21,1,2.21,2.66a2.66,2.66,0,0,1,0,.43h-4.15A2.26,2.26,0,0,0,611,145a2.55,2.55,0,0,0,1.55-.52l0.22,0.41a3.21,3.21,0,0,1-1.81.56,2.72,2.72,0,0,1-2.66-3C608.28,140.58,609.51,139.43,610.79,139.43Zm1.7,2.69c0-1.48-.66-2.23-1.69-2.23a2.17,2.17,0,0,0-2,2.23h3.67Z"/><path class="cls-1" d="M580.66,149.43h1.82c2.43,0,3.6,1.54,3.6,3.92s-1.16,4-3.59,4h-1.83v-7.9Zm1.76,7.44c2.15,0,3.08-1.45,3.08-3.51s-0.94-3.45-3.08-3.45h-1.21v7h1.21Z"/><path class="cls-1" d="M589.85,151.43c1.37,0,2.21,1,2.21,2.66a2.66,2.66,0,0,1,0,.43h-4.15a2.26,2.26,0,0,0,2.17,2.49,2.55,2.55,0,0,0,1.55-.52l0.22,0.41a3.21,3.21,0,0,1-1.81.56,2.72,2.72,0,0,1-2.66-3C587.34,152.58,588.57,151.43,589.85,151.43Zm1.7,2.69c0-1.48-.66-2.23-1.69-2.23a2.17,2.17,0,0,0-2,2.23h3.67Z"/><path class="cls-1" d="M593.21,156.29A2.67,2.67,0,0,0,595,157a1.19,1.19,0,0,0,1.37-1.14c0-.72-0.74-1-1.4-1.27-0.88-.31-1.84-0.66-1.84-1.64a1.62,1.62,0,0,1,1.86-1.54,2.67,2.67,0,0,1,1.64.6l-0.29.37a2.18,2.18,0,0,0-1.38-.52,1.12,1.12,0,0,0-1.3,1c0,0.64.67,0.91,1.36,1.16,0.9,0.34,1.88.64,1.88,1.76a1.72,1.72,0,0,1-1.94,1.62,3.33,3.33,0,0,1-2.11-.79Z"/><path class="cls-1" d="M598.27,149.72a0.48,0.48,0,1,1,.48.47A0.46,0.46,0,0,1,598.27,149.72Zm0.2,1.86H599v5.76h-0.53v-5.76Z"/><path class="cls-1" d="M601.6,157.12v0a1,1,0,0,1-.5-0.92,1.35,1.35,0,0,1,.62-1.06v0a2.15,2.15,0,0,1-.72-1.58,2,2,0,0,1,2-2,2.07,2.07,0,0,1,.76.14h2V152h-1.34a1.91,1.91,0,0,1,.64,1.45,2,2,0,0,1-2,2,2,2,0,0,1-1-.24,1,1,0,0,0-.47.83c0,0.42.24,0.76,1.1,0.76h1.24c1.3,0,1.9.41,1.9,1.32s-1.07,1.94-2.72,1.94c-1.45,0-2.36-.62-2.36-1.6A1.81,1.81,0,0,1,601.6,157.12Zm1.57,2.55c1.3,0,2.12-.73,2.12-1.45s-0.47-.88-1.33-0.88h-1.24a3.58,3.58,0,0,1-.72-0.1,1.51,1.51,0,0,0-.76,1.21C601.25,159.18,601.95,159.67,603.17,159.67Zm1.34-6.21a1.5,1.5,0,1,0-3,0A1.5,1.5,0,1,0,604.51,153.46Z"/><path class="cls-1" d="M607.07,151.58h0.46l0,0.89h0a2.81,2.81,0,0,1,2-1c1.19,0,1.74.72,1.74,2.21v3.69H610.8v-3.62c0-1.22-.38-1.8-1.32-1.8A2.64,2.64,0,0,0,607.6,153v4.34h-0.53v-5.76Z"/><path class="cls-1" d="M678.9,143.91a3.12,3.12,0,0,0,2.33,1.07,1.7,1.7,0,0,0,2-1.58c0-1-.65-1.31-1.43-1.66l-1.2-.54a2.17,2.17,0,0,1-1.59-2,2.07,2.07,0,0,1,2.29-1.94,3,3,0,0,1,2.21.95l-0.32.37a2.51,2.51,0,0,0-1.88-.82,1.5,1.5,0,0,0-1.74,1.42,1.78,1.78,0,0,0,1.37,1.52l1.2,0.53a2.22,2.22,0,0,1,1.66,2.1,2.25,2.25,0,0,1-2.53,2.12,3.48,3.48,0,0,1-2.66-1.19Z"/><path class="cls-1" d="M685.44,140h-0.9v-0.41l0.91,0,0.07-1.67H686v1.67h1.67V140H686v3.75c0,0.73.18,1.22,1,1.22a1.92,1.92,0,0,0,.72-0.18l0.14,0.43a3.23,3.23,0,0,1-.94.22c-1.12,0-1.44-.71-1.44-1.74V140Z"/><path class="cls-1" d="M689.05,139.58h0.46l0,1.07h0a2,2,0,0,1,1.63-1.21,1.18,1.18,0,0,1,.58.12l-0.12.48a1.26,1.26,0,0,0-.53-0.1,1.92,1.92,0,0,0-1.57,1.48v3.92h-0.53v-5.76Z"/><path class="cls-1" d="M696,141.72c0-.88-0.23-1.82-1.35-1.82a3.17,3.17,0,0,0-1.83.67l-0.24-.4a3.85,3.85,0,0,1,2.13-.74c1.37,0,1.82,1,1.82,2.22v3.68h-0.44l-0.06-.74h0a3.41,3.41,0,0,1-2,.89,1.52,1.52,0,0,1-1.68-1.58C692.26,142.62,693.42,142,696,141.72Zm-2,3.3a3,3,0,0,0,2-.94v-2c-2.36.28-3.17,0.83-3.17,1.74A1.08,1.08,0,0,0,694,145Z"/><path class="cls-1" d="M698.7,140h-0.9v-0.41l0.91,0,0.07-1.67h0.46v1.67h1.67V140h-1.67v3.75c0,0.73.18,1.22,1,1.22a1.92,1.92,0,0,0,.72-0.18l0.14,0.43a3.23,3.23,0,0,1-.94.22c-1.12,0-1.44-.71-1.44-1.74V140Z"/><path class="cls-1" d="M704.22,139.43c1.37,0,2.21,1,2.21,2.66a2.66,2.66,0,0,1,0,.43h-4.15a2.26,2.26,0,0,0,2.17,2.49,2.55,2.55,0,0,0,1.55-.52l0.22,0.41a3.21,3.21,0,0,1-1.81.56,2.72,2.72,0,0,1-2.66-3C701.71,140.58,702.94,139.43,704.22,139.43Zm1.7,2.69c0-1.48-.66-2.23-1.69-2.23a2.17,2.17,0,0,0-2,2.23h3.67Z"/><path class="cls-1" d="M708.24,145.12v0a1,1,0,0,1-.5-0.92,1.35,1.35,0,0,1,.62-1.06v0a2.15,2.15,0,0,1-.72-1.58,2,2,0,0,1,2-2,2.07,2.07,0,0,1,.76.14h2V140H711a1.91,1.91,0,0,1,.64,1.45,2,2,0,0,1-2,2,2,2,0,0,1-1-.24,1,1,0,0,0-.47.83c0,0.42.24,0.76,1.1,0.76h1.24c1.3,0,1.9.41,1.9,1.32s-1.07,1.94-2.72,1.94c-1.45,0-2.36-.62-2.36-1.6A1.81,1.81,0,0,1,708.24,145.12Zm1.57,2.55c1.3,0,2.12-.73,2.12-1.45s-0.47-.88-1.33-0.88h-1.24a3.58,3.58,0,0,1-.72-0.1,1.51,1.51,0,0,0-.76,1.21C707.89,147.18,708.59,147.67,709.81,147.67Zm1.34-6.21a1.5,1.5,0,1,0-3,0A1.5,1.5,0,1,0,711.15,141.46Z"/><path class="cls-1" d="M713.51,137.72a0.48,0.48,0,1,1,.48.47A0.46,0.46,0,0,1,713.51,137.72Zm0.2,1.86h0.53v5.76h-0.53v-5.76Z"/><path class="cls-1" d="M718.61,139.43a2.36,2.36,0,0,1,1.69.71l-0.31.37a2,2,0,0,0-1.37-.61c-1.18,0-2.09,1-2.09,2.57s0.83,2.54,2.09,2.54a2.32,2.32,0,0,0,1.54-.66l0.28,0.36a2.72,2.72,0,0,1-1.83.77c-1.49,0-2.61-1.1-2.61-3A2.73,2.73,0,0,1,718.61,139.43Z"/><path class="cls-1" d="M684.11,149.43h1.82c2.43,0,3.6,1.54,3.6,3.92s-1.16,4-3.59,4h-1.83v-7.9Zm1.76,7.44c2.15,0,3.08-1.45,3.08-3.51s-0.94-3.45-3.08-3.45h-1.21v7h1.21Z"/><path class="cls-1" d="M693.3,151.43c1.37,0,2.21,1,2.21,2.66a2.66,2.66,0,0,1,0,.43h-4.15A2.26,2.26,0,0,0,693.5,157a2.55,2.55,0,0,0,1.55-.52l0.22,0.41a3.21,3.21,0,0,1-1.81.56,2.72,2.72,0,0,1-2.66-3C690.79,152.58,692,151.43,693.3,151.43Zm1.7,2.69c0-1.48-.66-2.23-1.69-2.23a2.17,2.17,0,0,0-2,2.23H695Z"/><path class="cls-1" d="M696.66,156.29a2.67,2.67,0,0,0,1.83.73,1.19,1.19,0,0,0,1.37-1.14c0-.72-0.74-1-1.4-1.27-0.88-.31-1.84-0.66-1.84-1.64a1.62,1.62,0,0,1,1.86-1.54,2.67,2.67,0,0,1,1.64.6l-0.29.37a2.18,2.18,0,0,0-1.38-.52,1.12,1.12,0,0,0-1.3,1c0,0.64.67,0.91,1.36,1.16,0.9,0.34,1.88.64,1.88,1.76a1.72,1.72,0,0,1-1.94,1.62,3.33,3.33,0,0,1-2.11-.79Z"/><path class="cls-1" d="M701.72,149.72a0.48,0.48,0,1,1,.48.47A0.46,0.46,0,0,1,701.72,149.72Zm0.2,1.86h0.53v5.76h-0.53v-5.76Z"/><path class="cls-1" d="M705,157.12v0a1,1,0,0,1-.5-0.92,1.35,1.35,0,0,1,.62-1.06v0a2.15,2.15,0,0,1-.72-1.58,2,2,0,0,1,2-2,2.07,2.07,0,0,1,.76.14h2V152h-1.34a1.91,1.91,0,0,1,.64,1.45,2,2,0,0,1-2,2,2,2,0,0,1-1-.24,1,1,0,0,0-.47.83c0,0.42.24,0.76,1.1,0.76h1.24c1.3,0,1.9.41,1.9,1.32s-1.07,1.94-2.72,1.94c-1.45,0-2.36-.62-2.36-1.6A1.81,1.81,0,0,1,705,157.12Zm1.57,2.55c1.3,0,2.12-.73,2.12-1.45s-0.47-.88-1.33-0.88h-1.24a3.58,3.58,0,0,1-.72-0.1,1.51,1.51,0,0,0-.76,1.21C704.7,159.18,705.4,159.67,706.62,159.67Zm1.34-6.21a1.5,1.5,0,1,0-3,0A1.5,1.5,0,1,0,708,153.46Z"/><path class="cls-1" d="M710.52,151.58H711l0,0.89h0a2.81,2.81,0,0,1,2-1c1.19,0,1.74.72,1.74,2.21v3.69h-0.53v-3.62c0-1.22-.38-1.8-1.32-1.8A2.64,2.64,0,0,0,711,153v4.34h-0.53v-5.76Z"/><path class="cls-1" d="M599.11,303.41h2.46c3,0,4.65,1.76,4.65,4.88s-1.62,5-4.59,5h-2.52v-9.84Zm2.37,8.82c2.31,0,3.45-1.46,3.45-3.94s-1.14-3.85-3.45-3.85h-1.11v7.8h1.11Z"/><path class="cls-1" d="M611.05,305.78c1.79,0,3.38,1.4,3.38,3.84s-1.59,3.81-3.37,3.81-3.37-1.4-3.37-3.81S609.27,305.78,611.05,305.78Zm0,6.63c1.26,0,2.1-1.12,2.1-2.79s-0.84-2.82-2.1-2.82-2.1,1.14-2.1,2.82S609.81,312.41,611.05,312.41Z"/><path class="cls-1" d="M616.35,306h1l0.1,1h0a3.21,3.21,0,0,1,2.27-1.23,1.91,1.91,0,0,1,2,1.4,3.44,3.44,0,0,1,2.4-1.4c1.5,0,2.22,1,2.22,2.85v4.62h-1.23v-4.45c0-1.37-.43-2-1.35-2A2.67,2.67,0,0,0,622,308v5.28h-1.23v-4.45c0-1.37-.43-2-1.36-2a2.73,2.73,0,0,0-1.83,1.13v5.28h-1.23V306Z"/><path class="cls-1" d="M628.56,303.66a0.86,0.86,0,0,1,1.71,0A0.86,0.86,0,0,1,628.56,303.66Zm0.22,2.29H630v7.29h-1.23V306Z"/><path class="cls-1" d="M632.47,306h1l0.1,1h0a3.43,3.43,0,0,1,2.44-1.23c1.53,0,2.22,1,2.22,2.85v4.62h-1.23v-4.45c0-1.37-.42-2-1.38-2a2.79,2.79,0,0,0-2,1.13v5.28h-1.23V306Z"/><path class="cls-1" d="M640.45,303.66a0.86,0.86,0,0,1,1.71,0A0.86,0.86,0,0,1,640.45,303.66Zm0.22,2.29h1.23v7.29h-1.23V306Z"/><path class="cls-1" d="M647.34,305.78a3,3,0,0,1,2.13.87l-0.62.79a2.2,2.2,0,0,0-1.47-.65c-1.32,0-2.28,1.14-2.28,2.82s0.92,2.79,2.25,2.79a2.6,2.6,0,0,0,1.71-.73l0.55,0.81a3.61,3.61,0,0,1-2.37.95c-1.93,0-3.42-1.4-3.42-3.81A3.53,3.53,0,0,1,647.34,305.78Z"/><path class="cls-1" d="M654.31,303.41h2.92c2,0,3.39.68,3.39,2.4A2.14,2.14,0,0,1,658.9,308V308a2.31,2.31,0,0,1,2.28,2.35c0,1.94-1.53,2.88-3.72,2.88h-3.15v-9.84Zm2.71,4.2c1.67,0,2.37-.6,2.37-1.69s-0.79-1.52-2.31-1.52h-1.52v3.21H657Zm0.25,4.65c1.68,0,2.67-.62,2.67-2s-0.94-1.77-2.67-1.77h-1.71v3.72h1.71Z"/><path class="cls-1" d="M662.88,306h1.25v4.45c0,1.37.4,2,1.36,2a2.48,2.48,0,0,0,2-1.23V306h1.23v7.29h-1l-0.11-1.14h0a3.08,3.08,0,0,1-2.4,1.32c-1.54,0-2.23-1-2.23-2.85V306Z"/><path class="cls-1" d="M671.14,306h1l0.1,1.32h0a2.49,2.49,0,0,1,2.07-1.5,1.81,1.81,0,0,1,.78.15L674.92,307a2,2,0,0,0-.71-0.12c-0.62,0-1.35.45-1.84,1.68v4.68h-1.23V306Z"/><path class="cls-1" d="M676.56,307h-1.08V306l1.14-.07,0.15-2h1v2h2v1h-2v4c0,0.9.29,1.41,1.13,1.41a2.66,2.66,0,0,0,.83-0.19l0.24,0.93a4.51,4.51,0,0,1-1.35.27c-1.56,0-2.08-1-2.08-2.43v-4Z"/><path class="cls-1" d="M684.1,305.78c1.79,0,3.38,1.4,3.38,3.84s-1.59,3.81-3.37,3.81-3.37-1.4-3.37-3.81S682.32,305.78,684.1,305.78Zm0,6.63c1.26,0,2.1-1.12,2.1-2.79s-0.84-2.82-2.1-2.82-2.1,1.14-2.1,2.82S682.86,312.41,684.1,312.41Z"/><path class="cls-1" d="M689.4,306h1l0.1,1h0a3.44,3.44,0,0,1,2.45-1.23c1.53,0,2.22,1,2.22,2.85v4.62H694v-4.45c0-1.37-.42-2-1.38-2a2.79,2.79,0,0,0-2,1.13v5.28H689.4V306Z"/><path class="cls-1" d="M681.53,222.61h1.82c2.43,0,3.6,1.54,3.6,3.92s-1.16,4-3.59,4h-1.83v-7.9Zm1.76,7.44c2.15,0,3.08-1.45,3.08-3.51s-0.94-3.45-3.08-3.45h-1.21v7h1.21Z"/><path class="cls-1" d="M690.72,224.61c1.37,0,2.21,1,2.21,2.66a2.66,2.66,0,0,1,0,.43h-4.15a2.26,2.26,0,0,0,2.17,2.49,2.55,2.55,0,0,0,1.55-.52l0.22,0.41a3.21,3.21,0,0,1-1.81.56,2.72,2.72,0,0,1-2.66-3C688.21,225.76,689.44,224.61,690.72,224.61Zm1.7,2.69c0-1.48-.66-2.23-1.69-2.23a2.17,2.17,0,0,0-2,2.23h3.67Z"/><path class="cls-1" d="M694.08,229.47a2.67,2.67,0,0,0,1.83.73,1.19,1.19,0,0,0,1.37-1.14c0-.72-0.74-1-1.4-1.27-0.88-.31-1.84-0.66-1.84-1.64a1.62,1.62,0,0,1,1.86-1.54,2.67,2.67,0,0,1,1.64.6l-0.29.37a2.18,2.18,0,0,0-1.38-.52,1.12,1.12,0,0,0-1.3,1c0,0.64.67,0.91,1.36,1.16,0.9,0.34,1.88.64,1.88,1.76a1.72,1.72,0,0,1-1.94,1.62,3.33,3.33,0,0,1-2.11-.79Z"/><path class="cls-1" d="M699.15,222.9a0.48,0.48,0,1,1,.48.47A0.46,0.46,0,0,1,699.15,222.9Zm0.2,1.86h0.53v5.76h-0.53v-5.76Z"/><path class="cls-1" d="M702.47,230.3v0a1,1,0,0,1-.5-0.92,1.35,1.35,0,0,1,.62-1.06v0a2.15,2.15,0,0,1-.72-1.58,2,2,0,0,1,2-2,2.07,2.07,0,0,1,.76.14h2v0.44h-1.34a1.91,1.91,0,0,1,.64,1.45,2,2,0,0,1-2,2,2,2,0,0,1-1-.24,1,1,0,0,0-.47.83c0,0.42.24,0.76,1.1,0.76h1.24c1.3,0,1.9.41,1.9,1.32s-1.07,1.94-2.72,1.94c-1.45,0-2.36-.62-2.36-1.6A1.81,1.81,0,0,1,702.47,230.3Zm1.57,2.55c1.3,0,2.12-.73,2.12-1.45s-0.47-.88-1.33-0.88H703.6a3.58,3.58,0,0,1-.72-0.1,1.51,1.51,0,0,0-.76,1.21C702.12,232.36,702.82,232.85,704,232.85Zm1.34-6.21a1.5,1.5,0,1,0-3,0A1.5,1.5,0,1,0,705.38,226.64Z"/><path class="cls-1" d="M707.94,224.76h0.46l0,0.89h0a2.81,2.81,0,0,1,2-1c1.19,0,1.74.72,1.74,2.21v3.69h-0.53v-3.62c0-1.22-.38-1.8-1.32-1.8a2.64,2.64,0,0,0-1.88,1.08v4.34h-0.53v-5.76Z"/><path class="cls-1" d="M678.53,237.49H676V237h5.58v0.48h-2.51v7.42h-0.55v-7.42Z"/><path class="cls-1" d="M683,236.29h0.53v3.77a2.83,2.83,0,0,1,2-1c1.19,0,1.74.72,1.74,2.21v3.69h-0.53v-3.62c0-1.22-.38-1.8-1.32-1.8a2.64,2.64,0,0,0-1.88,1.08v4.34H683v-8.62Z"/><path class="cls-1" d="M689.14,237.3a0.48,0.48,0,1,1,.48.47A0.46,0.46,0,0,1,689.14,237.3Zm0.2,1.86h0.53v5.76h-0.53v-5.76Z"/><path class="cls-1" d="M692.1,239.16h0.46l0,0.89h0a2.81,2.81,0,0,1,2-1c1.19,0,1.74.72,1.74,2.21v3.69h-0.53v-3.62c0-1.22-.38-1.8-1.32-1.8a2.64,2.64,0,0,0-1.88,1.08v4.34H692.1v-5.76Z"/><path class="cls-1" d="M698.48,236.29H699v6.36h0l2.84-3.49h0.61l-1.87,2.28,2.18,3.48h-0.59l-1.91-3.08-1.3,1.51v1.57h-0.53v-8.62Z"/><path class="cls-1" d="M703.84,237.3a0.48,0.48,0,1,1,.48.47A0.46,0.46,0,0,1,703.84,237.3Zm0.2,1.86h0.53v5.76H704v-5.76Z"/><path class="cls-1" d="M706.79,239.16h0.46l0,0.89h0a2.81,2.81,0,0,1,2-1c1.19,0,1.74.72,1.74,2.21v3.69h-0.53v-3.62c0-1.22-.38-1.8-1.32-1.8a2.64,2.64,0,0,0-1.88,1.08v4.34h-0.53v-5.76Z"/><path class="cls-1" d="M713.55,244.7v0a1,1,0,0,1-.5-0.92,1.35,1.35,0,0,1,.62-1.06v0A2.15,2.15,0,0,1,713,241a2,2,0,0,1,2-2,2.07,2.07,0,0,1,.76.14h2v0.44h-1.34a1.91,1.91,0,0,1,.64,1.45,2,2,0,0,1-2,2,2,2,0,0,1-1-.24,1,1,0,0,0-.47.83c0,0.42.24,0.76,1.1,0.76h1.24c1.3,0,1.9.41,1.9,1.32s-1.07,1.94-2.72,1.94c-1.45,0-2.36-.62-2.36-1.6A1.81,1.81,0,0,1,713.55,244.7Zm1.57,2.55c1.3,0,2.12-.73,2.12-1.45s-0.47-.88-1.33-0.88h-1.24a3.58,3.58,0,0,1-.72-0.1,1.51,1.51,0,0,0-.76,1.21C713.2,246.76,713.9,247.25,715.12,247.25Zm1.34-6.21a1.5,1.5,0,1,0-3,0A1.5,1.5,0,1,0,716.46,241Z"/><path class="cls-1" d="M569.63,226.28h2.16c1.76,0,2.81.58,2.81,2.21s-1.06,2.3-2.81,2.3h-1.61v3.39h-0.55v-7.9Zm2,4c1.62,0,2.39-.54,2.39-1.83s-0.78-1.74-2.39-1.74h-1.46v3.57h1.46Z"/><path class="cls-1" d="M576.22,228.43h0.46l0,1.07h0a2,2,0,0,1,1.63-1.21,1.18,1.18,0,0,1,.58.12l-0.12.48a1.26,1.26,0,0,0-.53-0.1,1.92,1.92,0,0,0-1.57,1.48v3.92h-0.53v-5.76Z"/><path class="cls-1" d="M582,228.29c1.39,0,2.59,1.1,2.59,3a2.7,2.7,0,0,1-2.59,3c-1.38,0-2.58-1.1-2.58-3S580.62,228.29,582,228.29Zm0,5.58c1.16,0,2-1,2-2.54s-0.88-2.57-2-2.57-2,1-2,2.57S580.84,233.86,582,233.86Z"/><path class="cls-1" d="M588.4,228.29a2.66,2.66,0,0,1,1.74.71l0-1.06v-2.37h0.53v8.62h-0.46l0-.74h0a2.69,2.69,0,0,1-1.87.89c-1.45,0-2.39-1.07-2.39-3A2.74,2.74,0,0,1,588.4,228.29Zm-0.1,5.58a2.6,2.6,0,0,0,1.81-.95V229.5a2.44,2.44,0,0,0-1.68-.74c-1.15,0-2,1.12-2,2.57S587.08,233.86,588.3,233.86Z"/><path class="cls-1" d="M592.77,228.43h0.53v3.62c0,1.22.38,1.8,1.31,1.8a2.41,2.41,0,0,0,1.86-1.18v-4.25H597v5.76h-0.44l-0.06-1h0a2.57,2.57,0,0,1-2,1.1c-1.19,0-1.74-.72-1.74-2.21v-3.69Z"/><path class="cls-1" d="M601.34,228.29A2.36,2.36,0,0,1,603,229l-0.31.37a2,2,0,0,0-1.37-.61c-1.17,0-2.09,1-2.09,2.57s0.83,2.54,2.09,2.54a2.31,2.31,0,0,0,1.54-.66l0.28,0.36a2.72,2.72,0,0,1-1.83.77c-1.49,0-2.61-1.1-2.61-3A2.73,2.73,0,0,1,601.34,228.29Z"/><path class="cls-1" d="M604.72,228.89h-0.9v-0.41l0.91,0,0.07-1.67h0.46v1.67h1.67v0.46h-1.67v3.75c0,0.73.18,1.22,1,1.22a1.92,1.92,0,0,0,.72-0.18l0.14,0.43a3.23,3.23,0,0,1-.94.22c-1.12,0-1.44-.71-1.44-1.74v-3.71Z"/><path class="cls-1" d="M610.48,232.76a3.12,3.12,0,0,0,2.33,1.07,1.7,1.7,0,0,0,2-1.58c0-1-.65-1.31-1.43-1.66l-1.2-.54a2.17,2.17,0,0,1-1.59-2,2.07,2.07,0,0,1,2.29-1.94,3,3,0,0,1,2.21.95l-0.32.37a2.51,2.51,0,0,0-1.88-.82,1.5,1.5,0,0,0-1.74,1.42,1.78,1.78,0,0,0,1.37,1.52l1.2,0.53a2.22,2.22,0,0,1,1.66,2.1,2.25,2.25,0,0,1-2.53,2.12,3.48,3.48,0,0,1-2.66-1.19Z"/><path class="cls-1" d="M618.91,228.29c1.37,0,2.21,1,2.21,2.66a2.66,2.66,0,0,1,0,.43h-4.15a2.26,2.26,0,0,0,2.17,2.49,2.55,2.55,0,0,0,1.55-.52l0.22,0.41a3.21,3.21,0,0,1-1.81.56,2.72,2.72,0,0,1-2.66-3C616.41,229.44,617.63,228.29,618.91,228.29Zm1.7,2.69c0-1.48-.66-2.23-1.69-2.23a2.17,2.17,0,0,0-2,2.23h3.67Z"/><path class="cls-1" d="M622.68,228.43h0.46l0,1.07h0a2,2,0,0,1,1.63-1.21,1.18,1.18,0,0,1,.58.12l-0.12.48a1.26,1.26,0,0,0-.53-0.1,1.92,1.92,0,0,0-1.57,1.48v3.92h-0.53v-5.76Z"/><path class="cls-1" d="M625.85,228.43h0.58l1.29,3.61c0.18,0.55.4,1.13,0.58,1.66h0c0.19-.53.4-1.1,0.59-1.66l1.29-3.61h0.54l-2.13,5.76H628Z"/><path class="cls-1" d="M631.81,226.57a0.48,0.48,0,1,1,.48.47A0.46,0.46,0,0,1,631.81,226.57Zm0.2,1.86h0.53v5.76H632v-5.76Z"/><path class="cls-1" d="M636.91,228.29a2.36,2.36,0,0,1,1.69.71l-0.31.37a2,2,0,0,0-1.37-.61c-1.18,0-2.09,1-2.09,2.57s0.83,2.54,2.09,2.54a2.32,2.32,0,0,0,1.54-.66l0.28,0.36a2.72,2.72,0,0,1-1.83.77c-1.49,0-2.61-1.1-2.61-3A2.73,2.73,0,0,1,636.91,228.29Z"/><path class="cls-1" d="M642,228.29c1.37,0,2.21,1,2.21,2.66a2.66,2.66,0,0,1,0,.43H640a2.26,2.26,0,0,0,2.17,2.49,2.55,2.55,0,0,0,1.55-.52l0.22,0.41a3.21,3.21,0,0,1-1.81.56,2.72,2.72,0,0,1-2.66-3C639.47,229.44,640.69,228.29,642,228.29Zm1.7,2.69c0-1.48-.66-2.23-1.69-2.23a2.17,2.17,0,0,0-2,2.23h3.67Z"/><path class="cls-1" d="M572.12,244.76a3.12,3.12,0,0,0,2.33,1.07,1.7,1.7,0,0,0,2-1.58c0-1-.65-1.31-1.43-1.66l-1.2-.54a2.17,2.17,0,0,1-1.59-2,2.07,2.07,0,0,1,2.29-1.94,3,3,0,0,1,2.21.95l-0.32.37a2.51,2.51,0,0,0-1.88-.82,1.5,1.5,0,0,0-1.74,1.42,1.78,1.78,0,0,0,1.37,1.52l1.2,0.53a2.22,2.22,0,0,1,1.66,2.1,2.25,2.25,0,0,1-2.53,2.12,3.48,3.48,0,0,1-2.66-1.19Z"/><path class="cls-1" d="M578.3,248.32a1.8,1.8,0,0,0,1.47-1.52l0.16-.5-2.36-5.86h0.58l1.39,3.62c0.18,0.48.41,1.1,0.62,1.61h0c0.18-.5.37-1.13,0.53-1.61l1.24-3.62h0.54l-2.28,6.48c-0.32,1-.9,1.91-1.93,1.91a1.46,1.46,0,0,1-.59-0.12l0.12-.47A1.35,1.35,0,0,0,578.3,248.32Z"/><path class="cls-1" d="M583.35,245.15a2.67,2.67,0,0,0,1.83.73,1.19,1.19,0,0,0,1.37-1.14c0-.72-0.74-1-1.4-1.27-0.88-.31-1.84-0.66-1.84-1.64a1.62,1.62,0,0,1,1.86-1.54,2.67,2.67,0,0,1,1.64.6l-0.29.37a2.18,2.18,0,0,0-1.38-.52,1.12,1.12,0,0,0-1.3,1c0,0.64.67,0.91,1.36,1.16,0.9,0.34,1.88.64,1.88,1.76a1.72,1.72,0,0,1-1.94,1.62,3.33,3.33,0,0,1-2.11-.79Z"/><path class="cls-1" d="M588.75,240.89h-0.9v-0.41l0.91,0,0.07-1.67h0.46v1.67H591v0.46h-1.67v3.75c0,0.73.18,1.22,1,1.22a1.93,1.93,0,0,0,.72-0.18l0.14,0.43a3.23,3.23,0,0,1-.94.22c-1.12,0-1.44-.71-1.44-1.74v-3.71Z"/><path class="cls-1" d="M594.27,240.29c1.37,0,2.21,1,2.21,2.66a2.66,2.66,0,0,1,0,.43H592.3a2.26,2.26,0,0,0,2.17,2.49,2.55,2.55,0,0,0,1.55-.52l0.22,0.41a3.21,3.21,0,0,1-1.81.56,2.72,2.72,0,0,1-2.66-3C591.76,241.44,593,240.29,594.27,240.29ZM596,243c0-1.48-.66-2.23-1.69-2.23a2.17,2.17,0,0,0-2,2.23H596Z"/><path class="cls-1" d="M598,240.43h0.46l0,0.89h0a2.63,2.63,0,0,1,1.81-1,1.5,1.5,0,0,1,1.59,1.18,2.89,2.89,0,0,1,2-1.18c1.15,0,1.73.72,1.73,2.21v3.69h-0.54v-3.62c0-1.22-.41-1.8-1.28-1.8a2.51,2.51,0,0,0-1.73,1.08v4.34h-0.53v-3.62c0-1.22-.41-1.8-1.29-1.8a2.56,2.56,0,0,0-1.73,1.08v4.34H598v-5.76Z"/><path class="cls-1" d="M610.2,238.28H612c2.43,0,3.6,1.54,3.6,3.92s-1.16,4-3.59,4H610.2v-7.9Zm1.76,7.44c2.15,0,3.08-1.45,3.08-3.51s-0.94-3.45-3.08-3.45h-1.21v7H612Z"/><path class="cls-1" d="M619.39,240.29c1.37,0,2.21,1,2.21,2.66a2.66,2.66,0,0,1,0,.43h-4.15a2.26,2.26,0,0,0,2.17,2.49,2.55,2.55,0,0,0,1.55-.52l0.22,0.41a3.21,3.21,0,0,1-1.81.56,2.72,2.72,0,0,1-2.66-3C616.88,241.44,618.1,240.29,619.39,240.29Zm1.7,2.69c0-1.48-.66-2.23-1.69-2.23a2.17,2.17,0,0,0-2,2.23h3.67Z"/><path class="cls-1" d="M622.75,245.15a2.67,2.67,0,0,0,1.83.73,1.19,1.19,0,0,0,1.37-1.14c0-.72-0.74-1-1.4-1.27-0.87-.31-1.83-0.66-1.83-1.64a1.62,1.62,0,0,1,1.86-1.54,2.67,2.67,0,0,1,1.64.6l-0.29.37a2.18,2.18,0,0,0-1.38-.52,1.12,1.12,0,0,0-1.29,1c0,0.64.67,0.91,1.36,1.16,0.9,0.34,1.88.64,1.88,1.76a1.72,1.72,0,0,1-1.94,1.62,3.33,3.33,0,0,1-2.11-.79Z"/><path class="cls-1" d="M627.81,238.57a0.48,0.48,0,1,1,.48.47A0.46,0.46,0,0,1,627.81,238.57Zm0.2,1.86h0.53v5.76H628v-5.76Z"/><path class="cls-1" d="M631.14,246v0a1,1,0,0,1-.5-0.92,1.35,1.35,0,0,1,.62-1.06v0a2.15,2.15,0,0,1-.72-1.58,2,2,0,0,1,2-2,2.07,2.07,0,0,1,.76.14h2v0.44h-1.34a1.91,1.91,0,0,1,.64,1.45,2,2,0,0,1-2,2,2,2,0,0,1-1-.24,1,1,0,0,0-.47.83c0,0.42.24,0.76,1.1,0.76h1.24c1.3,0,1.9.41,1.9,1.32S634.3,249,632.65,249c-1.45,0-2.36-.62-2.36-1.6A1.81,1.81,0,0,1,631.14,246Zm1.57,2.55c1.3,0,2.12-.73,2.12-1.45s-0.47-.88-1.33-0.88h-1.24a3.58,3.58,0,0,1-.72-0.1,1.51,1.51,0,0,0-.76,1.21C630.79,248,631.48,248.53,632.71,248.53Zm1.34-6.21a1.5,1.5,0,1,0-3,0A1.5,1.5,0,1,0,634,242.31Z"/><path class="cls-1" d="M636.61,240.43h0.46l0,0.89h0a2.81,2.81,0,0,1,2-1c1.19,0,1.74.72,1.74,2.21v3.69h-0.53v-3.62c0-1.22-.38-1.8-1.32-1.8a2.64,2.64,0,0,0-1.88,1.08v4.34h-0.53v-5.76Z"/></svg>