<svg id="Layer_1" data-name="Layer 1" xmlns="http://www.w3.org/2000/svg" viewBox="0 0 353.69 1094.03"><defs><style>.cls-1{fill:#231f20;}.cls-2{fill:none;stroke:#5c9ad2;stroke-miterlimit:10;stroke-width:0.99px;}.cls-3{fill:#5c9ad2;}</style></defs><title>thesis_final_website</title><path class="cls-1" d="M160.45,920.13a2.81,2.81,0,0,0,2.1,1,1.53,1.53,0,0,0,1.77-1.43,1.6,1.6,0,0,0-1.29-1.49l-1.08-.49a2,2,0,0,1-1.44-1.77,1.86,1.86,0,0,1,2.06-1.75,2.71,2.71,0,0,1,2,.85l-0.29.33a2.26,2.26,0,0,0-1.7-.73,1.35,1.35,0,0,0-1.57,1.27,1.6,1.6,0,0,0,1.23,1.37l1.08,0.48a2,2,0,0,1,1.49,1.89,2,2,0,0,1-2.28,1.91,3.14,3.14,0,0,1-2.4-1.07Z"/><path class="cls-1" d="M168,916.1c1.23,0,2,.88,2,2.4a2.36,2.36,0,0,1,0,.39h-3.74a2,2,0,0,0,2,2.25,2.29,2.29,0,0,0,1.39-.46l0.2,0.37a2.9,2.9,0,0,1-1.63.51A2.76,2.76,0,0,1,168,916.1Zm1.53,2.42c0-1.33-.59-2-1.52-2a2,2,0,0,0-1.78,2h3.31Z"/><path class="cls-1" d="M171.43,916.23h0.41l0,1h0a1.78,1.78,0,0,1,1.47-1.09,1.07,1.07,0,0,1,.52.11l-0.11.43a1.13,1.13,0,0,0-.47-0.09,1.73,1.73,0,0,0-1.42,1.33v3.53h-0.48v-5.19Z"/><path class="cls-1" d="M174.28,916.23h0.52l1.17,3.25c0.16,0.5.36,1,.52,1.49h0c0.17-.48.36-1,0.53-1.49l1.17-3.25h0.49l-1.92,5.19h-0.56Z"/><path class="cls-1" d="M179.65,914.56a0.43,0.43,0,1,1,.43.42A0.41,0.41,0,0,1,179.65,914.56Zm0.18,1.67h0.47v5.19h-0.47v-5.19Z"/><path class="cls-1" d="M184.24,916.1a2.13,2.13,0,0,1,1.52.64l-0.28.33a1.77,1.77,0,0,0-1.23-.55,2.06,2.06,0,0,0-1.88,2.31c0,1.36.75,2.29,1.88,2.29a2.08,2.08,0,0,0,1.38-.59l0.25,0.32a2.45,2.45,0,0,1-1.65.69,2.4,2.4,0,0,1-2.36-2.71A2.46,2.46,0,0,1,184.24,916.1Z"/><path class="cls-1" d="M188.8,916.1c1.23,0,2,.88,2,2.4a2.36,2.36,0,0,1,0,.39H187a2,2,0,0,0,2,2.25,2.29,2.29,0,0,0,1.39-.46l0.2,0.37a2.9,2.9,0,0,1-1.63.51A2.76,2.76,0,0,1,188.8,916.1Zm1.53,2.42c0-1.33-.59-2-1.52-2a2,2,0,0,0-1.78,2h3.31Z"/><path class="cls-1" d="M161.68,926.3h1.64c2.19,0,3.24,1.38,3.24,3.53s-1,3.59-3.23,3.59h-1.65V926.3Zm1.59,6.7c1.93,0,2.78-1.31,2.78-3.17s-0.84-3.11-2.78-3.11h-1.09V933h1.09Z"/><path class="cls-1" d="M170,928.1c1.23,0,2,.88,2,2.4a2.36,2.36,0,0,1,0,.39h-3.74a2,2,0,0,0,2,2.25,2.29,2.29,0,0,0,1.39-.46l0.2,0.37a2.9,2.9,0,0,1-1.63.51A2.76,2.76,0,0,1,170,928.1Zm1.53,2.42c0-1.33-.59-2-1.52-2a2,2,0,0,0-1.78,2h3.31Z"/><path class="cls-1" d="M173,932.47a2.4,2.4,0,0,0,1.65.66,1.08,1.08,0,0,0,1.23-1,1.48,1.48,0,0,0-1.26-1.15c-0.79-.28-1.65-0.59-1.65-1.48a1.46,1.46,0,0,1,1.67-1.38,2.41,2.41,0,0,1,1.48.54l-0.26.33a2,2,0,0,0-1.24-.46,1,1,0,0,0-1.17.94c0,0.57.61,0.82,1.22,1,0.81,0.3,1.7.57,1.7,1.59a1.55,1.55,0,0,1-1.75,1.46,3,3,0,0,1-1.9-.71Z"/><path class="cls-1" d="M177.53,926.56a0.43,0.43,0,1,1,.43.42A0.41,0.41,0,0,1,177.53,926.56Zm0.18,1.67h0.48v5.19h-0.48v-5.19Z"/><path class="cls-1" d="M180.52,933.22v0a0.92,0.92,0,0,1-.45-0.83,1.22,1.22,0,0,1,.56-1v0a1.93,1.93,0,0,1-.65-1.43,1.78,1.78,0,0,1,1.83-1.83,1.85,1.85,0,0,1,.68.13h1.76v0.4H183a1.72,1.72,0,0,1,.57,1.31,1.77,1.77,0,0,1-1.8,1.83,1.8,1.8,0,0,1-.86-0.22,0.93,0.93,0,0,0-.42.75c0,0.38.22,0.68,1,.68h1.11c1.17,0,1.71.37,1.71,1.19s-1,1.75-2.45,1.75c-1.31,0-2.13-.56-2.13-1.44A1.64,1.64,0,0,1,180.52,933.22Zm1.42,2.3c1.17,0,1.91-.66,1.91-1.31s-0.42-.79-1.2-0.79h-1.11a3.2,3.2,0,0,1-.65-0.09,1.36,1.36,0,0,0-.68,1.09C180.21,935.08,180.84,935.52,181.94,935.52Zm1.21-5.6a1.35,1.35,0,1,0-2.69,0A1.35,1.35,0,1,0,183.15,929.93Z"/><path class="cls-1" d="M185.45,928.23h0.41l0,0.8h0a2.53,2.53,0,0,1,1.78-.93c1.07,0,1.57.65,1.57,2v3.33h-0.48v-3.26c0-1.1-.35-1.62-1.19-1.62a2.37,2.37,0,0,0-1.7,1v3.91h-0.48v-5.19Z"/><path class="cls-1" d="M142.89,871.27h1.94c1.59,0,2.53.52,2.53,2s-1,2.07-2.53,2.07h-1.45v3.06h-0.5v-7.12Zm1.81,3.64c1.46,0,2.15-.49,2.15-1.65s-0.7-1.57-2.15-1.57h-1.32v3.22h1.32Z"/><path class="cls-1" d="M148.81,873.2h0.41l0,1h0a1.78,1.78,0,0,1,1.47-1.09,1.07,1.07,0,0,1,.52.11l-0.11.43a1.13,1.13,0,0,0-.47-0.09,1.73,1.73,0,0,0-1.42,1.33v3.53h-0.48V873.2Z"/><path class="cls-1" d="M154,873.07a2.76,2.76,0,1,1-2.32,2.73A2.44,2.44,0,0,1,154,873.07Zm0,5a2,2,0,0,0,1.84-2.29c0-1.37-.79-2.31-1.84-2.31s-1.83.94-1.83,2.31S153,878.1,154,878.1Z"/><path class="cls-1" d="M159.78,873.07a2.4,2.4,0,0,1,1.57.64l0-1v-2.14h0.48v7.77h-0.41l0-.67h0a2.43,2.43,0,0,1-1.68.8c-1.31,0-2.15-1-2.15-2.71A2.47,2.47,0,0,1,159.78,873.07Zm-0.09,5a2.34,2.34,0,0,0,1.63-.85v-3.08a2.19,2.19,0,0,0-1.51-.67,2.07,2.07,0,0,0-1.83,2.31C158,877.18,158.59,878.1,159.69,878.1Z"/><path class="cls-1" d="M163.71,873.2h0.48v3.26c0,1.1.35,1.62,1.18,1.62A2.17,2.17,0,0,0,167,877V873.2h0.47v5.19h-0.4l-0.05-.86h0a2.32,2.32,0,0,1-1.76,1c-1.07,0-1.57-.65-1.57-2V873.2Z"/><path class="cls-1" d="M171.43,873.07a2.13,2.13,0,0,1,1.52.64l-0.28.33a1.77,1.77,0,0,0-1.23-.55,2.06,2.06,0,0,0-1.88,2.31c0,1.36.75,2.29,1.88,2.29a2.08,2.08,0,0,0,1.38-.59l0.25,0.32a2.45,2.45,0,0,1-1.65.69,2.4,2.4,0,0,1-2.36-2.71A2.46,2.46,0,0,1,171.43,873.07Z"/><path class="cls-1" d="M174.46,873.61h-0.81v-0.37l0.82,0,0.07-1.5h0.41v1.5h1.5v0.41h-1.5V877c0,0.66.16,1.1,0.88,1.1a1.74,1.74,0,0,0,.65-0.16l0.13,0.39a2.91,2.91,0,0,1-.84.19c-1,0-1.3-.64-1.3-1.57v-3.34Z"/><path class="cls-1" d="M179.65,877.1a2.8,2.8,0,0,0,2.1,1,1.53,1.53,0,0,0,1.77-1.43,1.6,1.6,0,0,0-1.29-1.49l-1.08-.49a2,2,0,0,1-1.44-1.77,1.86,1.86,0,0,1,2.06-1.75,2.71,2.71,0,0,1,2,.85l-0.29.33a2.26,2.26,0,0,0-1.7-.73,1.35,1.35,0,0,0-1.57,1.27,1.6,1.6,0,0,0,1.23,1.37l1.08,0.48a2,2,0,0,1,1.49,1.89,2,2,0,0,1-2.28,1.91,3.14,3.14,0,0,1-2.4-1.07Z"/><path class="cls-1" d="M187.24,873.07c1.23,0,2,.88,2,2.4a2.36,2.36,0,0,1,0,.39h-3.74a2,2,0,0,0,2,2.25,2.29,2.29,0,0,0,1.39-.46L189,878a2.9,2.9,0,0,1-1.63.51A2.76,2.76,0,0,1,187.24,873.07Zm1.53,2.42c0-1.33-.59-2-1.52-2a2,2,0,0,0-1.78,2h3.31Z"/><path class="cls-1" d="M190.63,873.2H191l0,1h0a1.78,1.78,0,0,1,1.47-1.09,1.07,1.07,0,0,1,.52.11l-0.11.43a1.13,1.13,0,0,0-.47-0.09,1.73,1.73,0,0,0-1.42,1.33v3.53h-0.47V873.2Z"/><path class="cls-1" d="M193.48,873.2H194l1.17,3.25c0.16,0.5.36,1,.52,1.49h0c0.17-.48.36-1,0.53-1.49l1.17-3.25h0.49L196,878.39h-0.56Z"/><path class="cls-1" d="M198.85,871.53a0.43,0.43,0,1,1,.43.42A0.41,0.41,0,0,1,198.85,871.53ZM199,873.2h0.48v5.19H199V873.2Z"/><path class="cls-1" d="M203.44,873.07a2.13,2.13,0,0,1,1.52.64l-0.28.33a1.77,1.77,0,0,0-1.23-.55,2.06,2.06,0,0,0-1.88,2.31c0,1.36.75,2.29,1.88,2.29a2.08,2.08,0,0,0,1.38-.59l0.25,0.32a2.45,2.45,0,0,1-1.65.69,2.4,2.4,0,0,1-2.36-2.71A2.46,2.46,0,0,1,203.44,873.07Z"/><path class="cls-1" d="M208,873.07c1.23,0,2,.88,2,2.4a2.36,2.36,0,0,1,0,.39h-3.74a2,2,0,0,0,2,2.25,2.29,2.29,0,0,0,1.39-.46l0.2,0.37a2.9,2.9,0,0,1-1.63.51A2.76,2.76,0,0,1,208,873.07Zm1.53,2.42c0-1.33-.59-2-1.52-2a2,2,0,0,0-1.78,2h3.31Z"/><path class="cls-1" d="M145.12,889.1a2.81,2.81,0,0,0,2.1,1,1.53,1.53,0,0,0,1.77-1.43,1.6,1.6,0,0,0-1.29-1.49l-1.08-.49a2,2,0,0,1-1.44-1.77,1.86,1.86,0,0,1,2.06-1.75,2.71,2.71,0,0,1,2,.85l-0.29.33a2.26,2.26,0,0,0-1.7-.73,1.35,1.35,0,0,0-1.57,1.27,1.6,1.6,0,0,0,1.23,1.37l1.08,0.48a2,2,0,0,1,1.49,1.89,2,2,0,0,1-2.28,1.91,3.14,3.14,0,0,1-2.4-1.07Z"/><path class="cls-1" d="M150.69,892.31a1.62,1.62,0,0,0,1.33-1.37l0.14-.45L150,885.2h0.52l1.25,3.26c0.16,0.43.37,1,.56,1.45h0c0.16-.45.33-1,0.48-1.45L154,885.2h0.49L152.43,891a2.07,2.07,0,0,1-1.74,1.72,1.31,1.31,0,0,1-.53-0.11l0.11-.42A1.21,1.21,0,0,0,150.69,892.31Z"/><path class="cls-1" d="M155.23,889.45a2.4,2.4,0,0,0,1.65.66,1.08,1.08,0,0,0,1.23-1,1.48,1.48,0,0,0-1.26-1.15c-0.79-.28-1.65-0.59-1.65-1.48a1.46,1.46,0,0,1,1.67-1.38,2.41,2.41,0,0,1,1.48.54l-0.26.33a2,2,0,0,0-1.24-.46,1,1,0,0,0-1.17.94c0,0.57.61,0.82,1.22,1,0.81,0.3,1.7.57,1.7,1.59a1.55,1.55,0,0,1-1.75,1.46,3,3,0,0,1-1.9-.71Z"/><path class="cls-1" d="M160.09,885.61h-0.81v-0.37l0.82,0,0.06-1.5h0.41v1.5h1.5v0.41h-1.5V889c0,0.66.16,1.1,0.88,1.1a1.74,1.74,0,0,0,.65-0.16l0.13,0.39a2.91,2.91,0,0,1-.84.19c-1,0-1.3-.64-1.3-1.57v-3.34Z"/><path class="cls-1" d="M165.06,885.07c1.23,0,2,.88,2,2.4a2.36,2.36,0,0,1,0,.39h-3.74a2,2,0,0,0,2,2.25,2.29,2.29,0,0,0,1.39-.46l0.2,0.37a2.9,2.9,0,0,1-1.63.51A2.76,2.76,0,0,1,165.06,885.07Zm1.53,2.42c0-1.33-.59-2-1.52-2a2,2,0,0,0-1.78,2h3.31Z"/><path class="cls-1" d="M168.45,885.2h0.41l0,0.8h0a2.37,2.37,0,0,1,1.63-.93,1.35,1.35,0,0,1,1.44,1.06,2.6,2.6,0,0,1,1.76-1.06c1,0,1.55.65,1.55,2v3.33h-0.49v-3.26c0-1.1-.37-1.62-1.16-1.62a2.26,2.26,0,0,0-1.56,1v3.91h-0.48v-3.26c0-1.1-.37-1.62-1.17-1.62a2.3,2.3,0,0,0-1.55,1v3.91h-0.48V885.2Z"/><path class="cls-1" d="M179.39,883.27H181c2.19,0,3.24,1.38,3.24,3.53s-1,3.59-3.23,3.59h-1.65v-7.12ZM181,890c1.93,0,2.78-1.31,2.78-3.17s-0.84-3.11-2.78-3.11h-1.09V890H181Z"/><path class="cls-1" d="M187.66,885.07c1.23,0,2,.88,2,2.4a2.36,2.36,0,0,1,0,.39h-3.74a2,2,0,0,0,2,2.25,2.29,2.29,0,0,0,1.39-.46l0.2,0.37a2.9,2.9,0,0,1-1.63.51A2.76,2.76,0,0,1,187.66,885.07Zm1.53,2.42c0-1.33-.59-2-1.52-2a2,2,0,0,0-1.78,2h3.31Z"/><path class="cls-1" d="M190.69,889.45a2.4,2.4,0,0,0,1.65.66,1.08,1.08,0,0,0,1.23-1,1.48,1.48,0,0,0-1.26-1.15c-0.79-.28-1.65-0.59-1.65-1.48a1.46,1.46,0,0,1,1.67-1.38,2.41,2.41,0,0,1,1.48.54l-0.26.33a2,2,0,0,0-1.24-.46,1,1,0,0,0-1.17.94c0,0.57.61,0.82,1.22,1,0.81,0.3,1.7.57,1.7,1.59a1.55,1.55,0,0,1-1.75,1.46,3,3,0,0,1-1.9-.71Z"/><path class="cls-1" d="M195.25,883.53a0.43,0.43,0,1,1,.43.42A0.41,0.41,0,0,1,195.25,883.53Zm0.18,1.67h0.47v5.19h-0.47V885.2Z"/><path class="cls-1" d="M198.24,890.2v0a0.92,0.92,0,0,1-.45-0.83,1.22,1.22,0,0,1,.56-1v0a1.93,1.93,0,0,1-.65-1.43,1.78,1.78,0,0,1,1.83-1.83,1.85,1.85,0,0,1,.68.13H202v0.4h-1.21a1.72,1.72,0,0,1,.57,1.31,1.77,1.77,0,0,1-1.8,1.83,1.8,1.8,0,0,1-.86-0.22,0.93,0.93,0,0,0-.42.75c0,0.38.22,0.68,1,.68h1.11c1.17,0,1.71.37,1.71,1.19s-1,1.75-2.45,1.75c-1.31,0-2.13-.56-2.13-1.44A1.64,1.64,0,0,1,198.24,890.2Zm1.42,2.3c1.17,0,1.91-.66,1.91-1.31s-0.42-.79-1.2-0.79h-1.11a3.2,3.2,0,0,1-.65-0.09,1.36,1.36,0,0,0-.68,1.09C197.92,892.05,198.55,892.5,199.65,892.5Zm1.21-5.6a1.35,1.35,0,1,0-2.69,0A1.35,1.35,0,1,0,200.86,886.9Z"/><path class="cls-1" d="M203.16,885.2h0.41l0,0.8h0a2.53,2.53,0,0,1,1.78-.93c1.07,0,1.57.65,1.57,2v3.33h-0.48v-3.26c0-1.1-.35-1.62-1.19-1.62a2.38,2.38,0,0,0-1.7,1v3.91h-0.47V885.2Z"/><path class="cls-1" d="M141.61,834.28h1.64c2.19,0,3.24,1.38,3.24,3.53s-1,3.59-3.23,3.59h-1.65v-7.12Zm1.59,6.7c1.93,0,2.78-1.31,2.78-3.17s-0.84-3.11-2.78-3.11H142.1V841h1.09Z"/><path class="cls-1" d="M149.88,836.08c1.23,0,2,.88,2,2.4a2.36,2.36,0,0,1,0,.39h-3.74a2,2,0,0,0,2,2.25,2.29,2.29,0,0,0,1.39-.46l0.2,0.37a2.89,2.89,0,0,1-1.63.51A2.76,2.76,0,0,1,149.88,836.08Zm1.53,2.42c0-1.33-.59-2-1.52-2a2,2,0,0,0-1.78,2h3.31Z"/><path class="cls-1" d="M152.9,840.46a2.4,2.4,0,0,0,1.65.66,1.08,1.08,0,0,0,1.23-1,1.48,1.48,0,0,0-1.26-1.15c-0.79-.28-1.65-0.59-1.65-1.48a1.46,1.46,0,0,1,1.67-1.38,2.41,2.41,0,0,1,1.48.54l-0.26.33a2,2,0,0,0-1.24-.46,1,1,0,0,0-1.17.94c0,0.57.61,0.82,1.22,1,0.81,0.3,1.7.57,1.7,1.59a1.55,1.55,0,0,1-1.75,1.46,3,3,0,0,1-1.9-.71Z"/><path class="cls-1" d="M157.46,834.54a0.43,0.43,0,1,1,.43.42A0.41,0.41,0,0,1,157.46,834.54Zm0.18,1.67h0.47v5.19h-0.47v-5.19Z"/><path class="cls-1" d="M160.45,841.2v0a0.92,0.92,0,0,1-.45-0.83,1.22,1.22,0,0,1,.56-1v0a1.93,1.93,0,0,1-.65-1.43,1.78,1.78,0,0,1,1.83-1.83,1.85,1.85,0,0,1,.68.13h1.76v0.4H163a1.72,1.72,0,0,1,.57,1.31,1.77,1.77,0,0,1-1.8,1.83,1.8,1.8,0,0,1-.86-0.22,0.93,0.93,0,0,0-.42.75c0,0.38.22,0.68,1,.68h1.11c1.17,0,1.71.37,1.71,1.19s-1,1.75-2.45,1.75c-1.31,0-2.13-.56-2.13-1.44A1.64,1.64,0,0,1,160.45,841.2Zm1.42,2.3c1.17,0,1.91-.66,1.91-1.31s-0.42-.79-1.2-0.79h-1.11a3.2,3.2,0,0,1-.65-0.09,1.35,1.35,0,0,0-.68,1.09C160.14,843.06,160.77,843.5,161.87,843.5Zm1.21-5.6a1.35,1.35,0,1,0-2.69,0A1.35,1.35,0,1,0,163.08,837.91Z"/><path class="cls-1" d="M165.38,836.21h0.41l0,0.8h0a2.53,2.53,0,0,1,1.78-.93c1.07,0,1.57.65,1.57,2v3.33h-0.48v-3.26c0-1.1-.35-1.62-1.19-1.62a2.38,2.38,0,0,0-1.7,1v3.91h-0.47v-5.19Z"/><path class="cls-1" d="M174.83,834.71h-2.27v-0.43h5v0.43h-2.26v6.69h-0.5v-6.69Z"/><path class="cls-1" d="M178.86,833.63h0.47V837a2.55,2.55,0,0,1,1.79-.94c1.07,0,1.57.65,1.57,2v3.33h-0.48v-3.26c0-1.1-.35-1.62-1.19-1.62a2.38,2.38,0,0,0-1.7,1v3.91h-0.47v-7.77Z"/><path class="cls-1" d="M184.37,834.54a0.43,0.43,0,1,1,.43.42A0.41,0.41,0,0,1,184.37,834.54Zm0.18,1.67H185v5.19h-0.48v-5.19Z"/><path class="cls-1" d="M187,836.21h0.41l0,0.8h0a2.53,2.53,0,0,1,1.78-.93c1.07,0,1.57.65,1.57,2v3.33h-0.48v-3.26c0-1.1-.35-1.62-1.19-1.62a2.38,2.38,0,0,0-1.7,1v3.91H187v-5.19Z"/><path class="cls-1" d="M192.77,833.63h0.47v5.73h0l2.56-3.14h0.55l-1.69,2.05,2,3.13h-0.53l-1.72-2.78L193.25,840v1.42h-0.47v-7.77Z"/><path class="cls-1" d="M197.6,834.54a0.43,0.43,0,1,1,.43.42A0.41,0.41,0,0,1,197.6,834.54Zm0.18,1.67h0.48v5.19h-0.48v-5.19Z"/><path class="cls-1" d="M200.26,836.21h0.41l0,0.8h0a2.53,2.53,0,0,1,1.78-.93c1.07,0,1.57.65,1.57,2v3.33h-0.48v-3.26c0-1.1-.35-1.62-1.19-1.62a2.38,2.38,0,0,0-1.7,1v3.91h-0.48v-5.19Z"/><path class="cls-1" d="M206.34,841.2v0a0.92,0.92,0,0,1-.45-0.83,1.22,1.22,0,0,1,.56-1v0a1.93,1.93,0,0,1-.65-1.43,1.78,1.78,0,0,1,1.83-1.83,1.85,1.85,0,0,1,.68.13h1.76v0.4h-1.21a1.72,1.72,0,0,1,.57,1.31,1.77,1.77,0,0,1-1.8,1.83,1.8,1.8,0,0,1-.86-0.22,0.93,0.93,0,0,0-.42.75c0,0.38.22,0.68,1,.68h1.11c1.17,0,1.71.37,1.71,1.19s-1,1.75-2.45,1.75c-1.31,0-2.13-.56-2.13-1.44A1.64,1.64,0,0,1,206.34,841.2Zm1.42,2.3c1.17,0,1.91-.66,1.91-1.31s-0.42-.79-1.2-0.79h-1.11a3.2,3.2,0,0,1-.65-0.09,1.35,1.35,0,0,0-.68,1.09C206,843.06,206.65,843.5,207.75,843.5Zm1.21-5.6a1.35,1.35,0,1,0-2.69,0A1.35,1.35,0,1,0,209,837.91Z"/><path class="cls-1" d="M141.15,852.11a2.8,2.8,0,0,0,2.1,1,1.53,1.53,0,0,0,1.77-1.43,1.6,1.6,0,0,0-1.29-1.49l-1.08-.49a2,2,0,0,1-1.44-1.77,1.87,1.87,0,0,1,2.06-1.75,2.71,2.71,0,0,1,2,.85l-0.29.33a2.26,2.26,0,0,0-1.7-.73,1.35,1.35,0,0,0-1.57,1.27,1.6,1.6,0,0,0,1.23,1.37l1.08,0.48a2,2,0,0,1,1.49,1.89,2,2,0,0,1-2.28,1.91,3.14,3.14,0,0,1-2.4-1.07Z"/><path class="cls-1" d="M147,848.62h-0.81v-0.37l0.82,0,0.06-1.5h0.41v1.5H149v0.41h-1.5V852c0,0.66.16,1.1,0.88,1.1a1.74,1.74,0,0,0,.65-0.16l0.13,0.39a2.89,2.89,0,0,1-.84.19c-1,0-1.3-.64-1.3-1.57v-3.34Z"/><path class="cls-1" d="M150.28,848.21h0.41l0,1h0a1.78,1.78,0,0,1,1.47-1.09,1.07,1.07,0,0,1,.52.11l-0.11.43a1.13,1.13,0,0,0-.47-0.09,1.73,1.73,0,0,0-1.42,1.33v3.53h-0.48v-5.19Z"/><path class="cls-1" d="M156.52,850.14c0-.79-0.21-1.64-1.22-1.64a2.86,2.86,0,0,0-1.65.6l-0.22-.36a3.46,3.46,0,0,1,1.92-.67c1.23,0,1.64.89,1.64,2v3.32h-0.4l-0.05-.67h0a3.07,3.07,0,0,1-1.84.8,1.37,1.37,0,0,1-1.51-1.43C153.17,851,154.22,850.4,156.52,850.14Zm-1.76,3a2.72,2.72,0,0,0,1.76-.84v-1.76c-2.13.25-2.85,0.75-2.85,1.57A1,1,0,0,0,154.76,853.12Z"/><path class="cls-1" d="M159,848.62h-0.81v-0.37l0.82,0,0.06-1.5h0.41v1.5H161v0.41h-1.5V852c0,0.66.16,1.1,0.88,1.1a1.74,1.74,0,0,0,.65-0.16l0.13,0.39a2.89,2.89,0,0,1-.84.19c-1,0-1.3-.64-1.3-1.57v-3.34Z"/><path class="cls-1" d="M163.93,848.08c1.23,0,2,.88,2,2.4a2.36,2.36,0,0,1,0,.39h-3.74a2,2,0,0,0,2,2.25,2.29,2.29,0,0,0,1.39-.46l0.2,0.37a2.89,2.89,0,0,1-1.63.51A2.76,2.76,0,0,1,163.93,848.08Zm1.53,2.42c0-1.33-.59-2-1.52-2a2,2,0,0,0-1.78,2h3.31Z"/><path class="cls-1" d="M167.55,853.2v0a0.92,0.92,0,0,1-.45-0.83,1.22,1.22,0,0,1,.56-1v0a1.93,1.93,0,0,1-.65-1.43,1.78,1.78,0,0,1,1.83-1.83,1.85,1.85,0,0,1,.68.13h1.76v0.4h-1.21a1.72,1.72,0,0,1,.57,1.31,1.77,1.77,0,0,1-1.8,1.83,1.8,1.8,0,0,1-.86-0.22,0.93,0.93,0,0,0-.42.75c0,0.38.22,0.68,1,.68h1.11c1.17,0,1.71.37,1.71,1.19s-1,1.75-2.45,1.75c-1.31,0-2.13-.56-2.13-1.44A1.64,1.64,0,0,1,167.55,853.2Zm1.42,2.3c1.17,0,1.91-.66,1.91-1.31s-0.42-.79-1.2-0.79h-1.11a3.2,3.2,0,0,1-.65-0.09,1.35,1.35,0,0,0-.68,1.09C167.24,855.06,167.86,855.5,169,855.5Zm1.21-5.6a1.35,1.35,0,1,0-2.69,0A1.35,1.35,0,1,0,170.18,849.91Z"/><path class="cls-1" d="M172.29,846.54a0.43,0.43,0,1,1,.43.42A0.41,0.41,0,0,1,172.29,846.54Zm0.18,1.67H173v5.19h-0.48v-5.19Z"/><path class="cls-1" d="M176.88,848.08a2.13,2.13,0,0,1,1.52.64l-0.28.33a1.77,1.77,0,0,0-1.23-.55,2.06,2.06,0,0,0-1.88,2.31c0,1.36.75,2.29,1.88,2.29a2.09,2.09,0,0,0,1.38-.59l0.25,0.32a2.45,2.45,0,0,1-1.65.69,2.4,2.4,0,0,1-2.36-2.71A2.46,2.46,0,0,1,176.88,848.08Z"/><path class="cls-1" d="M182,846.28h1.64c2.19,0,3.24,1.38,3.24,3.53s-1,3.59-3.23,3.59H182v-7.12Zm1.59,6.7c1.93,0,2.78-1.31,2.78-3.17s-0.84-3.11-2.78-3.11h-1.09V853h1.09Z"/><path class="cls-1" d="M190.24,848.08c1.23,0,2,.88,2,2.4a2.36,2.36,0,0,1,0,.39h-3.74a2,2,0,0,0,2,2.25,2.29,2.29,0,0,0,1.39-.46L192,853a2.9,2.9,0,0,1-1.63.51A2.76,2.76,0,0,1,190.24,848.08Zm1.53,2.42c0-1.33-.59-2-1.52-2a2,2,0,0,0-1.78,2h3.31Z"/><path class="cls-1" d="M193.27,852.46a2.4,2.4,0,0,0,1.65.66,1.08,1.08,0,0,0,1.23-1,1.48,1.48,0,0,0-1.26-1.15c-0.79-.28-1.65-0.59-1.65-1.48a1.46,1.46,0,0,1,1.67-1.38,2.41,2.41,0,0,1,1.48.54l-0.26.33a2,2,0,0,0-1.24-.46,1,1,0,0,0-1.17.94c0,0.57.61,0.82,1.22,1,0.81,0.3,1.7.57,1.7,1.59a1.55,1.55,0,0,1-1.75,1.46,3,3,0,0,1-1.9-.71Z"/><path class="cls-1" d="M197.82,846.54a0.43,0.43,0,1,1,.43.42A0.41,0.41,0,0,1,197.82,846.54Zm0.18,1.67h0.48v5.19H198v-5.19Z"/><path class="cls-1" d="M200.81,853.2v0a0.92,0.92,0,0,1-.45-0.83,1.22,1.22,0,0,1,.56-1v0a1.93,1.93,0,0,1-.65-1.43,1.78,1.78,0,0,1,1.83-1.83,1.85,1.85,0,0,1,.68.13h1.76v0.4h-1.21a1.72,1.72,0,0,1,.57,1.31,1.77,1.77,0,0,1-1.8,1.83,1.8,1.8,0,0,1-.86-0.22,0.93,0.93,0,0,0-.42.75c0,0.38.22,0.68,1,.68h1.11c1.17,0,1.71.37,1.71,1.19s-1,1.75-2.45,1.75c-1.31,0-2.13-.56-2.13-1.44A1.64,1.64,0,0,1,200.81,853.2Zm1.42,2.3c1.17,0,1.91-.66,1.91-1.31s-0.42-.79-1.2-0.79h-1.11a3.2,3.2,0,0,1-.65-0.09,1.35,1.35,0,0,0-.68,1.09C200.5,855.06,201.13,855.5,202.23,855.5Zm1.21-5.6a1.35,1.35,0,1,0-2.69,0A1.35,1.35,0,1,0,203.44,849.91Z"/><path class="cls-1" d="M205.74,848.21h0.41l0,0.8h0a2.53,2.53,0,0,1,1.78-.93c1.07,0,1.57.65,1.57,2v3.33H209.1v-3.26c0-1.1-.35-1.62-1.19-1.62a2.38,2.38,0,0,0-1.7,1v3.91h-0.48v-5.19Z"/><circle class="cls-2" cx="175.43" cy="924.69" r="66.52"/><circle class="cls-2" cx="175.43" cy="924.69" r="100.35"/><circle class="cls-2" cx="175.43" cy="924.69" r="26.58"/><path class="cls-1" d="M138.31,1047.48a1.89,1.89,0,0,0,1.71,1.11c1,0,1.57-.6,1.57-2.1v-6.82h1.25v6.94c0,1.7-.78,3.08-2.71,3.08a2.87,2.87,0,0,1-2.7-1.58Z"/><path class="cls-1" d="M148.06,1042c1.86,0,2.91,1.33,2.91,3.42a4.43,4.43,0,0,1,0,.67H146a2.43,2.43,0,0,0,2.43,2.56,3.3,3.3,0,0,0,1.81-.57l0.44,0.81a4.34,4.34,0,0,1-2.4.75,3.49,3.49,0,0,1-3.49-3.81C144.79,1043.49,146.4,1042,148.06,1042Zm1.83,3.28c0-1.48-.66-2.31-1.8-2.31a2.27,2.27,0,0,0-2.1,2.31h3.9Z"/><path class="cls-1" d="M152.77,1042.21h1l0.1,1h0a3.43,3.43,0,0,1,2.44-1.23c1.53,0,2.22,1,2.22,2.85v4.62h-1.23V1045c0-1.37-.42-2-1.38-2a2.79,2.79,0,0,0-2,1.13v5.28h-1.23v-7.29Z"/><path class="cls-1" d="M161,1042.21h1l0.1,1h0a3.43,3.43,0,0,1,2.44-1.23c1.53,0,2.22,1,2.22,2.85v4.62h-1.23V1045c0-1.37-.42-2-1.38-2a2.79,2.79,0,0,0-2,1.13v5.28H161v-7.29Z"/><path class="cls-1" d="M169,1039.92a0.86,0.86,0,0,1,1.71,0A0.86,0.86,0,0,1,169,1039.92Zm0.22,2.29h1.23v7.29h-1.23v-7.29Z"/><path class="cls-1" d="M176,1039.66h3c2.17,0,3.63.73,3.63,2.89s-1.49,3-3.63,3h-1.77v3.9H176v-9.84Zm2.87,4.92c1.72,0,2.55-.63,2.55-2s-0.85-1.89-2.55-1.89h-1.61v3.91h1.61Z"/><path class="cls-1" d="M187.94,1044.88c0-.93-0.31-1.83-1.5-1.83a3.93,3.93,0,0,0-2.17.78l-0.5-.85a5.42,5.42,0,0,1,2.87-.94c1.79,0,2.54,1.19,2.54,3v4.47h-1l-0.1-.87h0a4,4,0,0,1-2.42,1.05,2,2,0,0,1-2.14-2.07C183.46,1046,184.84,1045.23,187.94,1044.88Zm-2,3.81a3,3,0,0,0,2-1v-2c-2.44.3-3.27,0.9-3.27,1.83A1.12,1.12,0,0,0,185.95,1048.69Z"/><path class="cls-1" d="M191.5,1042.21h1l0.1,1.32h0a2.49,2.49,0,0,1,2.07-1.5,1.81,1.81,0,0,1,.78.15l-0.24,1.08a2,2,0,0,0-.71-0.12c-0.62,0-1.35.45-1.84,1.68v4.68H191.5v-7.29Z"/><path class="cls-1" d="M196.7,1038.82h1.22v7.23h0l3.1-3.84h1.37l-2.45,2.92,2.78,4.36h-1.35l-2.13-3.51-1.36,1.59v1.92H196.7v-10.68Z"/><path class="cls-1" d="M206.59,1042c1.86,0,2.91,1.33,2.91,3.42a4.43,4.43,0,0,1,0,.67h-4.92a2.43,2.43,0,0,0,2.43,2.56,3.3,3.3,0,0,0,1.81-.57l0.44,0.81a4.34,4.34,0,0,1-2.4.75,3.49,3.49,0,0,1-3.49-3.81C203.32,1043.49,204.92,1042,206.59,1042Zm1.83,3.28c0-1.48-.66-2.31-1.8-2.31a2.27,2.27,0,0,0-2.1,2.31h3.9Z"/><path class="cls-1" d="M211.3,1042.21h1l0.1,1.32h0a2.49,2.49,0,0,1,2.07-1.5,1.81,1.81,0,0,1,.78.15l-0.24,1.08a2,2,0,0,0-.71-0.12c-0.62,0-1.35.45-1.84,1.68v4.68H211.3v-7.29Z"/><path class="cls-1" d="M95,325.14h1.82c2.43,0,3.6,1.54,3.6,3.92s-1.16,4-3.59,4H95v-7.9Zm1.76,7.44c2.15,0,3.08-1.45,3.08-3.51s-0.94-3.45-3.08-3.45H95.54v7h1.21Z"/><path class="cls-1" d="M102,325.43a0.48,0.48,0,1,1,.48.47A0.46,0.46,0,0,1,102,325.43Zm0.2,1.86h0.53V333h-0.53v-5.76Z"/><path class="cls-1" d="M104.5,332a2.67,2.67,0,0,0,1.83.73,1.19,1.19,0,0,0,1.37-1.14c0-.72-0.74-1-1.4-1.27-0.87-.31-1.83-0.66-1.83-1.64a1.62,1.62,0,0,1,1.86-1.54,2.67,2.67,0,0,1,1.64.6l-0.29.37a2.18,2.18,0,0,0-1.38-.52,1.12,1.12,0,0,0-1.29,1c0,0.64.67,0.91,1.36,1.16,0.9,0.34,1.88.64,1.88,1.76a1.72,1.72,0,0,1-1.94,1.62,3.33,3.33,0,0,1-2.11-.79Z"/><path class="cls-1" d="M111.91,327.15a2.36,2.36,0,0,1,1.69.71l-0.31.37a2,2,0,0,0-1.37-.61c-1.18,0-2.09,1-2.09,2.57s0.83,2.54,2.09,2.54a2.32,2.32,0,0,0,1.54-.66l0.28,0.36a2.72,2.72,0,0,1-1.83.77c-1.49,0-2.61-1.1-2.61-3A2.73,2.73,0,0,1,111.91,327.15Z"/><path class="cls-1" d="M114.95,325.43a0.48,0.48,0,1,1,.48.47A0.46,0.46,0,0,1,114.95,325.43Zm0.2,1.86h0.53V333h-0.53v-5.76Z"/><path class="cls-1" d="M118.43,333.55v2.1H117.9v-8.36h0.46l0,0.72h0a3.37,3.37,0,0,1,2-.86c1.54,0,2.3,1.15,2.3,2.94,0,2-1.19,3.11-2.54,3.11a3,3,0,0,1-1.73-.71v1.07Zm1.7-.83c1.16,0,2-1.08,2-2.64s-0.5-2.47-1.82-2.47a3,3,0,0,0-1.88.95V332A2.83,2.83,0,0,0,120.13,332.72Z"/><path class="cls-1" d="M124.43,324.43H125v7.93c0,0.25.11,0.37,0.25,0.37a0.93,0.93,0,0,0,.22,0l0.1,0.43a1.11,1.11,0,0,1-.38.06c-0.47,0-.71-0.29-0.71-0.91v-7.86Z"/><path class="cls-1" d="M127.07,325.43a0.48,0.48,0,1,1,.48.47A0.46,0.46,0,0,1,127.07,325.43Zm0.2,1.86h0.53V333h-0.53v-5.76Z"/><path class="cls-1" d="M130,327.29h0.46l0,0.89h0a2.81,2.81,0,0,1,2-1c1.19,0,1.74.72,1.74,2.21V333h-0.53v-3.62c0-1.22-.38-1.8-1.32-1.8a2.64,2.64,0,0,0-1.88,1.08V333H130v-5.76Z"/><path class="cls-1" d="M138.43,327.15c1.37,0,2.21,1,2.21,2.66a2.66,2.66,0,0,1,0,.43h-4.15a2.26,2.26,0,0,0,2.17,2.49,2.55,2.55,0,0,0,1.55-.52l0.22,0.41a3.21,3.21,0,0,1-1.81.56,2.72,2.72,0,0,1-2.66-3C135.92,328.3,137.15,327.15,138.43,327.15Zm1.7,2.69c0-1.48-.66-2.23-1.69-2.23a2.17,2.17,0,0,0-2,2.23h3.67Z"/><path class="cls-1" d="M83.23,346a3.12,3.12,0,0,0,2.33,1.07,1.7,1.7,0,0,0,2-1.58c0-1-.65-1.31-1.43-1.66l-1.2-.54a2.17,2.17,0,0,1-1.59-2,2.07,2.07,0,0,1,2.29-1.94,3,3,0,0,1,2.21.95l-0.32.37a2.51,2.51,0,0,0-1.88-.82,1.5,1.5,0,0,0-1.74,1.42,1.78,1.78,0,0,0,1.37,1.52l1.2,0.53a2.22,2.22,0,0,1,1.66,2.1,2.25,2.25,0,0,1-2.53,2.12,3.48,3.48,0,0,1-2.66-1.19Z"/><path class="cls-1" d="M91.66,341.55c1.37,0,2.21,1,2.21,2.66a2.66,2.66,0,0,1,0,.43H89.69a2.26,2.26,0,0,0,2.17,2.49,2.55,2.55,0,0,0,1.55-.52L93.63,347a3.21,3.21,0,0,1-1.81.56,2.72,2.72,0,0,1-2.66-3C89.15,342.7,90.38,341.55,91.66,341.55Zm1.7,2.69c0-1.48-.66-2.23-1.69-2.23a2.17,2.17,0,0,0-2,2.23h3.67Z"/><path class="cls-1" d="M95.43,341.69h0.46l0,1.07h0a2,2,0,0,1,1.63-1.21,1.18,1.18,0,0,1,.58.12l-0.12.48a1.26,1.26,0,0,0-.53-0.1A1.92,1.92,0,0,0,96,343.53v3.92H95.43v-5.76Z"/><path class="cls-1" d="M98.6,341.69h0.58l1.29,3.61c0.18,0.55.4,1.13,0.58,1.66h0c0.19-.53.4-1.1,0.59-1.66l1.29-3.61h0.54l-2.13,5.76h-0.62Z"/><path class="cls-1" d="M104.56,339.83a0.48,0.48,0,1,1,.48.47A0.46,0.46,0,0,1,104.56,339.83Zm0.2,1.86h0.53v5.76h-0.53v-5.76Z"/><path class="cls-1" d="M109.66,341.55a2.36,2.36,0,0,1,1.69.71l-0.31.37a2,2,0,0,0-1.37-.61c-1.17,0-2.09,1-2.09,2.57s0.83,2.54,2.09,2.54a2.31,2.31,0,0,0,1.54-.66l0.28,0.36a2.72,2.72,0,0,1-1.83.77c-1.49,0-2.61-1.1-2.61-3A2.73,2.73,0,0,1,109.66,341.55Z"/><path class="cls-1" d="M114.72,341.55c1.37,0,2.21,1,2.21,2.66a2.66,2.66,0,0,1,0,.43h-4.15a2.26,2.26,0,0,0,2.17,2.49,2.55,2.55,0,0,0,1.55-.52l0.22,0.41a3.21,3.21,0,0,1-1.81.56,2.72,2.72,0,0,1-2.66-3C112.22,342.7,113.44,341.55,114.72,341.55Zm1.7,2.69c0-1.48-.66-2.23-1.69-2.23a2.17,2.17,0,0,0-2,2.23h3.67Z"/><path class="cls-1" d="M120.9,339.54h1.82c2.43,0,3.6,1.54,3.6,3.92s-1.16,4-3.59,4H120.9v-7.9Zm1.76,7.44c2.15,0,3.08-1.45,3.08-3.51s-0.94-3.45-3.08-3.45h-1.21v7h1.21Z"/><path class="cls-1" d="M130.1,341.55c1.37,0,2.21,1,2.21,2.66a2.66,2.66,0,0,1,0,.43h-4.15a2.26,2.26,0,0,0,2.17,2.49,2.55,2.55,0,0,0,1.55-.52l0.22,0.41a3.21,3.21,0,0,1-1.81.56,2.72,2.72,0,0,1-2.66-3C127.59,342.7,128.81,341.55,130.1,341.55Zm1.7,2.69c0-1.48-.66-2.23-1.69-2.23a2.17,2.17,0,0,0-2,2.23h3.67Z"/><path class="cls-1" d="M133.46,346.4a2.67,2.67,0,0,0,1.83.73,1.19,1.19,0,0,0,1.37-1.14c0-.72-0.74-1-1.4-1.27-0.87-.31-1.83-0.66-1.83-1.64a1.62,1.62,0,0,1,1.86-1.54,2.67,2.67,0,0,1,1.64.6l-0.29.37a2.18,2.18,0,0,0-1.38-.52,1.12,1.12,0,0,0-1.29,1c0,0.64.67,0.91,1.36,1.16,0.9,0.34,1.88.64,1.88,1.76a1.72,1.72,0,0,1-1.94,1.62,3.33,3.33,0,0,1-2.11-.79Z"/><path class="cls-1" d="M138.52,339.83a0.48,0.48,0,1,1,.48.47A0.46,0.46,0,0,1,138.52,339.83Zm0.2,1.86h0.53v5.76h-0.53v-5.76Z"/><path class="cls-1" d="M141.85,347.23v0a1,1,0,0,1-.5-0.92,1.35,1.35,0,0,1,.62-1.06v0a2.15,2.15,0,0,1-.72-1.58,2,2,0,0,1,2-2,2.07,2.07,0,0,1,.76.14h2v0.44h-1.34a1.91,1.91,0,0,1,.64,1.45,2,2,0,0,1-2,2,2,2,0,0,1-1-.24,1,1,0,0,0-.47.83c0,0.42.24,0.76,1.1,0.76h1.24c1.3,0,1.9.41,1.9,1.32s-1.07,1.94-2.72,1.94c-1.45,0-2.36-.62-2.36-1.6A1.81,1.81,0,0,1,141.85,347.23Zm1.57,2.55c1.3,0,2.12-.73,2.12-1.45s-0.47-.88-1.33-0.88H143a3.58,3.58,0,0,1-.72-0.1,1.51,1.51,0,0,0-.76,1.21C141.5,349.3,142.19,349.79,143.42,349.79Zm1.34-6.21a1.5,1.5,0,1,0-3,0A1.5,1.5,0,1,0,144.76,343.57Z"/><path class="cls-1" d="M147.32,341.69h0.46l0,0.89h0a2.81,2.81,0,0,1,2-1c1.19,0,1.74.72,1.74,2.21v3.69H151v-3.62c0-1.22-.38-1.8-1.32-1.8a2.64,2.64,0,0,0-1.88,1.08v4.34h-0.53v-5.76Z"/><path class="cls-1" d="M138.83,439H141c1.76,0,2.81.58,2.81,2.21s-1.06,2.3-2.81,2.3h-1.61v3.39h-0.55V439Zm2,4c1.62,0,2.39-.54,2.39-1.83s-0.78-1.74-2.39-1.74h-1.46v3.57h1.46Z"/><path class="cls-1" d="M145.42,441.17h0.46l0,1.07h0a2,2,0,0,1,1.63-1.21,1.18,1.18,0,0,1,.58.12l-0.12.48a1.26,1.26,0,0,0-.53-0.1,1.92,1.92,0,0,0-1.57,1.48v3.92h-0.53v-5.76Z"/><path class="cls-1" d="M151.2,441c1.39,0,2.59,1.1,2.59,3a2.7,2.7,0,0,1-2.59,3c-1.38,0-2.58-1.1-2.58-3S149.82,441,151.2,441Zm0,5.58c1.16,0,2-1,2-2.54s-0.88-2.57-2-2.57-2,1-2,2.57S150,446.6,151.2,446.6Z"/><path class="cls-1" d="M157.59,441a2.66,2.66,0,0,1,1.74.71l0-1.06V438.3h0.53v8.62h-0.46l0-.74h0a2.69,2.69,0,0,1-1.87.89c-1.45,0-2.39-1.07-2.39-3A2.74,2.74,0,0,1,157.59,441Zm-0.1,5.58a2.6,2.6,0,0,0,1.81-.95v-3.42a2.44,2.44,0,0,0-1.68-.74c-1.15,0-2,1.12-2,2.57S156.27,446.6,157.5,446.6Z"/><path class="cls-1" d="M162,441.17h0.53v3.62c0,1.22.38,1.8,1.31,1.8a2.41,2.41,0,0,0,1.86-1.18v-4.25h0.53v5.76h-0.44l-0.06-1h0a2.57,2.57,0,0,1-2,1.1c-1.19,0-1.74-.72-1.74-2.21v-3.69Z"/><path class="cls-1" d="M170.54,441a2.36,2.36,0,0,1,1.69.71l-0.31.37a2,2,0,0,0-1.37-.61c-1.17,0-2.09,1-2.09,2.57s0.83,2.54,2.09,2.54a2.31,2.31,0,0,0,1.54-.66l0.28,0.36a2.72,2.72,0,0,1-1.83.77c-1.49,0-2.61-1.1-2.61-3A2.73,2.73,0,0,1,170.54,441Z"/><path class="cls-1" d="M173.91,441.62H173v-0.41l0.91,0L174,439.5h0.46v1.67h1.67v0.46h-1.67v3.75c0,0.73.18,1.22,1,1.22a1.92,1.92,0,0,0,.72-0.18l0.14,0.43a3.23,3.23,0,0,1-.94.22c-1.12,0-1.44-.71-1.44-1.74v-3.71Z"/><path class="cls-1" d="M179.67,445.5a3.12,3.12,0,0,0,2.33,1.07,1.7,1.7,0,0,0,2-1.58c0-1-.65-1.31-1.43-1.66l-1.2-.54a2.17,2.17,0,0,1-1.59-2,2.07,2.07,0,0,1,2.29-1.94,3,3,0,0,1,2.21.95l-0.32.37a2.51,2.51,0,0,0-1.88-.82,1.5,1.5,0,0,0-1.74,1.42,1.78,1.78,0,0,0,1.37,1.52l1.2,0.53a2.22,2.22,0,0,1,1.66,2.1,2.25,2.25,0,0,1-2.53,2.12,3.48,3.48,0,0,1-2.66-1.19Z"/><path class="cls-1" d="M188.11,441c1.37,0,2.21,1,2.21,2.66a2.66,2.66,0,0,1,0,.43h-4.15a2.26,2.26,0,0,0,2.17,2.49,2.55,2.55,0,0,0,1.55-.52l0.22,0.41a3.21,3.21,0,0,1-1.81.56,2.72,2.72,0,0,1-2.66-3C185.6,442.17,186.83,441,188.11,441Zm1.7,2.69c0-1.48-.66-2.23-1.69-2.23a2.17,2.17,0,0,0-2,2.23h3.67Z"/><path class="cls-1" d="M191.88,441.17h0.46l0,1.07h0A2,2,0,0,1,194,441a1.18,1.18,0,0,1,.58.12l-0.12.48a1.26,1.26,0,0,0-.53-0.1,1.92,1.92,0,0,0-1.57,1.48v3.92h-0.53v-5.76Z"/><path class="cls-1" d="M195,441.17h0.58l1.29,3.61c0.18,0.55.4,1.13,0.58,1.66h0c0.19-.53.4-1.1,0.59-1.66l1.29-3.61H200l-2.13,5.76h-0.62Z"/><path class="cls-1" d="M201,439.31a0.48,0.48,0,1,1,.48.47A0.46,0.46,0,0,1,201,439.31Zm0.2,1.86h0.53v5.76h-0.53v-5.76Z"/><path class="cls-1" d="M206.11,441a2.36,2.36,0,0,1,1.69.71l-0.31.37a2,2,0,0,0-1.37-.61c-1.18,0-2.09,1-2.09,2.57s0.83,2.54,2.09,2.54a2.32,2.32,0,0,0,1.54-.66l0.28,0.36a2.72,2.72,0,0,1-1.83.77c-1.49,0-2.61-1.1-2.61-3A2.73,2.73,0,0,1,206.11,441Z"/><path class="cls-1" d="M211.17,441c1.37,0,2.21,1,2.21,2.66a2.66,2.66,0,0,1,0,.43h-4.15a2.26,2.26,0,0,0,2.17,2.49,2.55,2.55,0,0,0,1.55-.52l0.22,0.41a3.21,3.21,0,0,1-1.81.56,2.72,2.72,0,0,1-2.66-3C208.67,442.17,209.89,441,211.17,441Zm1.7,2.69c0-1.48-.66-2.23-1.69-2.23a2.17,2.17,0,0,0-2,2.23h3.67Z"/><path class="cls-1" d="M141.32,459.9a3.12,3.12,0,0,0,2.33,1.07,1.7,1.7,0,0,0,2-1.58c0-1-.65-1.31-1.43-1.66l-1.2-.54a2.17,2.17,0,0,1-1.59-2,2.07,2.07,0,0,1,2.29-1.94,3,3,0,0,1,2.21.95l-0.32.37a2.51,2.51,0,0,0-1.88-.82,1.5,1.5,0,0,0-1.74,1.42,1.78,1.78,0,0,0,1.37,1.52l1.2,0.53a2.22,2.22,0,0,1,1.66,2.1,2.25,2.25,0,0,1-2.53,2.12,3.48,3.48,0,0,1-2.66-1.19Z"/><path class="cls-1" d="M147.5,463.46a1.8,1.8,0,0,0,1.47-1.52l0.16-.5-2.36-5.86h0.58l1.39,3.62c0.18,0.48.41,1.1,0.62,1.61h0c0.18-.5.37-1.13,0.53-1.61l1.24-3.62h0.54L149.43,462c-0.32,1-.9,1.91-1.93,1.91a1.46,1.46,0,0,1-.59-0.12l0.12-.47A1.35,1.35,0,0,0,147.5,463.46Z"/><path class="cls-1" d="M152.55,460.28a2.67,2.67,0,0,0,1.83.73,1.19,1.19,0,0,0,1.37-1.14c0-.72-0.74-1-1.4-1.27-0.88-.31-1.84-0.66-1.84-1.64a1.62,1.62,0,0,1,1.86-1.54,2.67,2.67,0,0,1,1.64.6l-0.29.37a2.18,2.18,0,0,0-1.38-.52,1.12,1.12,0,0,0-1.3,1c0,0.64.67,0.91,1.36,1.16,0.9,0.34,1.88.64,1.88,1.76a1.72,1.72,0,0,1-1.94,1.62,3.33,3.33,0,0,1-2.11-.79Z"/><path class="cls-1" d="M157.95,456H157v-0.41l0.91,0L158,453.9h0.46v1.67h1.67V456h-1.67v3.75c0,0.73.18,1.22,1,1.22a1.93,1.93,0,0,0,.72-0.18l0.14,0.43a3.23,3.23,0,0,1-.94.22c-1.12,0-1.44-.71-1.44-1.74V456Z"/><path class="cls-1" d="M163.47,455.42c1.37,0,2.21,1,2.21,2.66a2.66,2.66,0,0,1,0,.43H161.5a2.26,2.26,0,0,0,2.17,2.49,2.55,2.55,0,0,0,1.55-.52l0.22,0.41a3.21,3.21,0,0,1-1.81.56,2.72,2.72,0,0,1-2.66-3C161,456.57,162.18,455.42,163.47,455.42Zm1.7,2.69c0-1.48-.66-2.23-1.69-2.23a2.17,2.17,0,0,0-2,2.23h3.67Z"/><path class="cls-1" d="M167.24,455.57h0.46l0,0.89h0a2.63,2.63,0,0,1,1.81-1,1.5,1.5,0,0,1,1.59,1.18,2.89,2.89,0,0,1,2-1.18c1.15,0,1.73.72,1.73,2.21v3.69h-0.54V457.7c0-1.22-.41-1.8-1.28-1.8a2.51,2.51,0,0,0-1.73,1.08v4.34h-0.53V457.7c0-1.22-.41-1.8-1.29-1.8a2.56,2.56,0,0,0-1.73,1.08v4.34h-0.53v-5.76Z"/><path class="cls-1" d="M179.39,453.42h1.82c2.43,0,3.6,1.54,3.6,3.92s-1.16,4-3.59,4h-1.83v-7.9Zm1.76,7.44c2.15,0,3.08-1.45,3.08-3.51s-0.94-3.45-3.08-3.45h-1.21v7h1.21Z"/><path class="cls-1" d="M188.58,455.42c1.37,0,2.21,1,2.21,2.66a2.66,2.66,0,0,1,0,.43h-4.15a2.26,2.26,0,0,0,2.17,2.49,2.55,2.55,0,0,0,1.55-.52l0.22,0.41a3.21,3.21,0,0,1-1.81.56,2.72,2.72,0,0,1-2.66-3C186.08,456.57,187.3,455.42,188.58,455.42Zm1.7,2.69c0-1.48-.66-2.23-1.69-2.23a2.17,2.17,0,0,0-2,2.23h3.67Z"/><path class="cls-1" d="M191.94,460.28a2.67,2.67,0,0,0,1.83.73,1.19,1.19,0,0,0,1.37-1.14c0-.72-0.74-1-1.4-1.27-0.87-.31-1.83-0.66-1.83-1.64a1.62,1.62,0,0,1,1.86-1.54,2.67,2.67,0,0,1,1.64.6l-0.29.37a2.18,2.18,0,0,0-1.38-.52,1.12,1.12,0,0,0-1.29,1c0,0.64.67,0.91,1.36,1.16,0.9,0.34,1.88.64,1.88,1.76a1.72,1.72,0,0,1-1.94,1.62,3.33,3.33,0,0,1-2.11-.79Z"/><path class="cls-1" d="M197,453.71a0.48,0.48,0,1,1,.48.47A0.46,0.46,0,0,1,197,453.71Zm0.2,1.86h0.53v5.76h-0.53v-5.76Z"/><path class="cls-1" d="M200.33,461.11v0a1,1,0,0,1-.5-0.92,1.35,1.35,0,0,1,.62-1.06v0a2.15,2.15,0,0,1-.72-1.58,2,2,0,0,1,2-2,2.07,2.07,0,0,1,.76.14h2V456h-1.34a1.91,1.91,0,0,1,.64,1.45,2,2,0,0,1-2,2,2,2,0,0,1-1-.24,1,1,0,0,0-.47.83c0,0.42.24,0.76,1.1,0.76h1.24c1.3,0,1.9.41,1.9,1.32s-1.07,1.94-2.72,1.94c-1.45,0-2.36-.62-2.36-1.6A1.81,1.81,0,0,1,200.33,461.11Zm1.57,2.55c1.3,0,2.12-.73,2.12-1.45s-0.47-.88-1.33-0.88h-1.24a3.58,3.58,0,0,1-.72-0.1,1.51,1.51,0,0,0-.76,1.21C200,463.17,200.68,463.66,201.9,463.66Zm1.34-6.21a1.5,1.5,0,1,0-3,0A1.5,1.5,0,1,0,203.25,457.45Z"/><path class="cls-1" d="M205.8,455.57h0.46l0,0.89h0a2.81,2.81,0,0,1,2-1c1.19,0,1.74.72,1.74,2.21v3.69h-0.53V457.7c0-1.22-.38-1.8-1.32-1.8a2.64,2.64,0,0,0-1.88,1.08v4.34H205.8v-5.76Z"/><path class="cls-1" d="M218.16,330H215l-0.92,2.71h-0.56l2.79-7.9h0.55l2.78,7.9h-0.59Zm-0.16-.47-0.5-1.48c-0.31-.94-0.6-1.76-0.88-2.73h0c-0.28,1-.55,1.8-0.87,2.73l-0.5,1.48H218Z"/><path class="cls-1" d="M221.36,333.21v2.1h-0.53V327h0.46l0,0.72h0a3.37,3.37,0,0,1,2-.86c1.54,0,2.3,1.15,2.3,2.94,0,2-1.19,3.11-2.54,3.11a3,3,0,0,1-1.73-.71v1.07Zm1.7-.83c1.16,0,2-1.08,2-2.64s-0.5-2.47-1.82-2.47a3,3,0,0,0-1.88.95v3.42A2.83,2.83,0,0,0,223.06,332.38Z"/><path class="cls-1" d="M227.89,333.21v2.1h-0.53V327h0.46l0,0.72h0a3.37,3.37,0,0,1,2-.86c1.54,0,2.3,1.15,2.3,2.94,0,2-1.19,3.11-2.54,3.11a3,3,0,0,1-1.73-.71v1.07Zm1.7-.83c1.16,0,2-1.08,2-2.64s-0.5-2.47-1.82-2.47a3,3,0,0,0-1.88.95v3.42A2.83,2.83,0,0,0,229.59,332.38Z"/><path class="cls-1" d="M233.89,327h0.46l0,1.07h0a2,2,0,0,1,1.63-1.21,1.18,1.18,0,0,1,.58.12l-0.12.48a1.26,1.26,0,0,0-.53-0.1,1.92,1.92,0,0,0-1.57,1.48v3.92h-0.53V327Z"/><path class="cls-1" d="M239.67,326.81c1.39,0,2.59,1.1,2.59,3a2.7,2.7,0,0,1-2.59,3c-1.38,0-2.58-1.1-2.58-3S238.29,326.81,239.67,326.81Zm0,5.58c1.16,0,2-1,2-2.54s-0.88-2.57-2-2.57-2,1-2,2.57S238.51,332.38,239.67,332.38Z"/><path class="cls-1" d="M247.2,329.1c0-.88-0.23-1.82-1.35-1.82a3.17,3.17,0,0,0-1.83.67l-0.24-.4a3.85,3.85,0,0,1,2.13-.74c1.37,0,1.82,1,1.82,2.22v3.68h-0.44l-0.06-.74h0a3.41,3.41,0,0,1-2,.89,1.52,1.52,0,0,1-1.68-1.58C243.49,330,244.65,329.39,247.2,329.1Zm-2,3.3a3,3,0,0,0,2-.94v-2c-2.36.28-3.17,0.83-3.17,1.74A1.08,1.08,0,0,0,245.25,332.4Z"/><path class="cls-1" d="M251.95,326.81a2.36,2.36,0,0,1,1.69.71l-0.31.37a2,2,0,0,0-1.37-.61c-1.18,0-2.09,1-2.09,2.57s0.83,2.54,2.09,2.54a2.32,2.32,0,0,0,1.54-.66l0.28,0.36a2.72,2.72,0,0,1-1.83.77c-1.49,0-2.61-1.1-2.61-3A2.73,2.73,0,0,1,251.95,326.81Z"/><path class="cls-1" d="M255.19,324.08h0.53v3.77a2.83,2.83,0,0,1,2-1c1.19,0,1.74.72,1.74,2.21v3.69h-0.53v-3.62c0-1.22-.38-1.8-1.32-1.8a2.64,2.64,0,0,0-1.88,1.08v4.34h-0.53v-8.62Z"/><path class="cls-1" d="M199.37,339.2h1.82c2.43,0,3.6,1.54,3.6,3.92s-1.16,4-3.59,4h-1.83v-7.9Zm1.76,7.44c2.15,0,3.08-1.45,3.08-3.51s-0.94-3.45-3.08-3.45h-1.21v7h1.21Z"/><path class="cls-1" d="M208.56,341.21c1.37,0,2.21,1,2.21,2.66a2.66,2.66,0,0,1,0,.43H206.6a2.26,2.26,0,0,0,2.17,2.49,2.55,2.55,0,0,0,1.55-.52l0.22,0.41a3.21,3.21,0,0,1-1.81.56,2.72,2.72,0,0,1-2.66-3C206.06,342.36,207.28,341.21,208.56,341.21Zm1.7,2.69c0-1.48-.66-2.23-1.69-2.23a2.17,2.17,0,0,0-2,2.23h3.67Z"/><path class="cls-1" d="M211.93,346.06a2.67,2.67,0,0,0,1.83.73,1.19,1.19,0,0,0,1.37-1.14c0-.72-0.74-1-1.4-1.27-0.88-.31-1.84-0.66-1.84-1.64a1.62,1.62,0,0,1,1.86-1.54,2.67,2.67,0,0,1,1.64.6l-0.29.37a2.18,2.18,0,0,0-1.38-.52,1.12,1.12,0,0,0-1.3,1c0,0.64.67,0.91,1.36,1.16,0.9,0.34,1.88.64,1.88,1.76a1.72,1.72,0,0,1-1.94,1.62,3.33,3.33,0,0,1-2.11-.79Z"/><path class="cls-1" d="M217,339.49a0.48,0.48,0,1,1,.48.47A0.46,0.46,0,0,1,217,339.49Zm0.2,1.86h0.53v5.76h-0.53v-5.76Z"/><path class="cls-1" d="M220.31,346.89v0a1,1,0,0,1-.5-0.92,1.35,1.35,0,0,1,.62-1.06v0a2.15,2.15,0,0,1-.72-1.58,2,2,0,0,1,2-2,2.07,2.07,0,0,1,.76.14h2v0.44h-1.34a1.91,1.91,0,0,1,.64,1.45,2,2,0,0,1-2,2,2,2,0,0,1-1-.24,1,1,0,0,0-.47.83c0,0.42.24,0.76,1.1,0.76h1.24c1.3,0,1.9.41,1.9,1.32s-1.07,1.94-2.72,1.94c-1.45,0-2.36-.62-2.36-1.6A1.81,1.81,0,0,1,220.31,346.89Zm1.57,2.55c1.3,0,2.12-.73,2.12-1.45s-0.47-.88-1.33-0.88h-1.24a3.58,3.58,0,0,1-.72-0.1,1.51,1.51,0,0,0-.76,1.21C220,349,220.66,349.45,221.88,349.45Zm1.34-6.21a1.5,1.5,0,1,0-3,0A1.5,1.5,0,1,0,223.23,343.23Z"/><path class="cls-1" d="M225.79,341.35h0.46l0,0.89h0a2.81,2.81,0,0,1,2-1c1.19,0,1.74.72,1.74,2.21v3.69h-0.53v-3.62c0-1.22-.38-1.8-1.32-1.8a2.64,2.64,0,0,0-1.88,1.08v4.34h-0.53v-5.76Z"/><path class="cls-1" d="M236.28,339.68h-2.52V339.2h5.58v0.48h-2.51v7.42h-0.55v-7.42Z"/><path class="cls-1" d="M240.76,338.48h0.53v3.77a2.83,2.83,0,0,1,2-1c1.19,0,1.74.72,1.74,2.21v3.69h-0.53v-3.62c0-1.22-.38-1.8-1.32-1.8a2.64,2.64,0,0,0-1.88,1.08v4.34h-0.53v-8.62Z"/><path class="cls-1" d="M246.89,339.49a0.48,0.48,0,1,1,.48.47A0.46,0.46,0,0,1,246.89,339.49Zm0.2,1.86h0.53v5.76H247.1v-5.76Z"/><path class="cls-1" d="M249.85,341.35h0.46l0,0.89h0a2.81,2.81,0,0,1,2-1c1.19,0,1.74.72,1.74,2.21v3.69h-0.53v-3.62c0-1.22-.38-1.8-1.32-1.8a2.64,2.64,0,0,0-1.88,1.08v4.34h-0.53v-5.76Z"/><path class="cls-1" d="M256.23,338.48h0.53v6.36h0l2.84-3.49h0.61l-1.87,2.28,2.18,3.48H260L258.05,344l-1.3,1.51v1.57h-0.53v-8.62Z"/><path class="cls-1" d="M261.59,339.49a0.48,0.48,0,1,1,.48.47A0.46,0.46,0,0,1,261.59,339.49Zm0.2,1.86h0.53v5.76H261.8v-5.76Z"/><path class="cls-1" d="M264.55,341.35H265l0,0.89h0a2.81,2.81,0,0,1,2-1c1.19,0,1.74.72,1.74,2.21v3.69h-0.53v-3.62c0-1.22-.38-1.8-1.32-1.8a2.64,2.64,0,0,0-1.88,1.08v4.34h-0.53v-5.76Z"/><path class="cls-1" d="M271.3,346.89v0a1,1,0,0,1-.5-0.92,1.35,1.35,0,0,1,.62-1.06v0a2.15,2.15,0,0,1-.72-1.58,2,2,0,0,1,2-2,2.07,2.07,0,0,1,.76.14h2v0.44H274.1a1.91,1.91,0,0,1,.64,1.45,2,2,0,0,1-2,2,2,2,0,0,1-1-.24,1,1,0,0,0-.47.83c0,0.42.24,0.76,1.1,0.76h1.24c1.3,0,1.9.41,1.9,1.32s-1.07,1.94-2.72,1.94c-1.45,0-2.36-.62-2.36-1.6A1.81,1.81,0,0,1,271.3,346.89Zm1.57,2.55c1.3,0,2.12-.73,2.12-1.45s-0.47-.88-1.33-0.88h-1.24a3.58,3.58,0,0,1-.72-0.1,1.51,1.51,0,0,0-.76,1.21C271,349,271.65,349.45,272.87,349.45Zm1.34-6.21a1.5,1.5,0,1,0-3,0A1.5,1.5,0,1,0,274.22,343.23Z"/><circle class="cls-2" cx="221.3" cy="367.9" r="65.95"/><circle class="cls-2" cx="129.57" cy="370.55" r="65.95"/><circle class="cls-2" cx="175.71" cy="418.47" r="65.95"/><path class="cls-1" d="M122.79,508.18c0-3.15,1.74-5.05,4.21-5.05s4.2,1.92,4.2,5.05-1.74,5.15-4.2,5.15S122.79,511.35,122.79,508.18Zm7.12,0c0-2.44-1.15-4-2.91-4s-2.92,1.52-2.92,4,1.15,4,2.92,4S129.91,510.64,129.91,508.18Z"/><path class="cls-1" d="M136,505.68c1.79,0,3.38,1.4,3.38,3.84s-1.59,3.81-3.37,3.81-3.37-1.4-3.37-3.81S134.22,505.68,136,505.68Zm0,6.63c1.26,0,2.1-1.12,2.1-2.79s-0.84-2.82-2.1-2.82-2.1,1.14-2.1,2.82S134.76,512.31,136,512.31Z"/><path class="cls-1" d="M141.3,505.86h1l0.1,1h0a3.43,3.43,0,0,1,2.44-1.23c1.53,0,2.22,1,2.22,2.85v4.62H145.9v-4.45c0-1.37-.42-2-1.38-2a2.79,2.79,0,0,0-2,1.13v5.28H141.3v-7.29Z"/><path class="cls-1" d="M153.63,508.53c0-.93-0.31-1.83-1.5-1.83a3.93,3.93,0,0,0-2.17.78l-0.5-.85a5.41,5.41,0,0,1,2.87-.94c1.79,0,2.54,1.19,2.54,3v4.47h-1l-0.1-.87h0a4,4,0,0,1-2.42,1.05,2,2,0,0,1-2.14-2.07C149.14,509.67,150.52,508.87,153.63,508.53Zm-2,3.81a3,3,0,0,0,2-1v-2c-2.44.3-3.27,0.9-3.27,1.83A1.12,1.12,0,0,0,151.63,512.34Z"/><path class="cls-1" d="M157.69,512.89v-0.06a1.35,1.35,0,0,1-.65-1.19,1.71,1.71,0,0,1,.79-1.35v-0.06a2.57,2.57,0,0,1,1.8-4.56,2.91,2.91,0,0,1,1,.18h2.54v0.94h-1.5a2.11,2.11,0,0,1,.6,1.5,2.5,2.5,0,0,1-2.67,2.53,2.55,2.55,0,0,1-1.09-.25,1.1,1.1,0,0,0-.46.87c0,0.46.3,0.79,1.29,0.79h1.41c1.69,0,2.55.52,2.55,1.74s-1.42,2.52-3.69,2.52c-1.78,0-3-.71-3-2A2.1,2.1,0,0,1,157.69,512.89Zm2.13,2.76c1.39,0,2.31-.72,2.31-1.48s-0.53-.9-1.47-0.9H159.4a3.56,3.56,0,0,1-.95-0.12,1.53,1.53,0,0,0-.75,1.23C157.71,515.16,158.5,515.65,159.82,515.65Zm1.36-7.38a1.55,1.55,0,1,0-3.09,0A1.56,1.56,0,1,0,161.19,508.27Z"/><path class="cls-1" d="M164.74,502.47H166v2.91l0,1.5a3.48,3.48,0,0,1,2.43-1.2c1.53,0,2.22,1,2.22,2.85v4.62h-1.23v-4.45c0-1.37-.42-2-1.38-2a2.79,2.79,0,0,0-2,1.13v5.28h-1.23V502.47Z"/><path class="cls-1" d="M179.83,503.13a3.63,3.63,0,0,1,2.68,1.21l-0.71.79a2.63,2.63,0,0,0-2-.92c-1.87,0-3.12,1.53-3.12,4s1.18,4,3.06,4a2.87,2.87,0,0,0,2.25-1.09l0.71,0.76a3.77,3.77,0,0,1-3,1.43c-2.47,0-4.32-1.89-4.32-5.1S177.31,503.13,179.83,503.13Z"/><path class="cls-1" d="M187.26,505.68c1.79,0,3.38,1.4,3.38,3.84s-1.59,3.81-3.37,3.81-3.37-1.4-3.37-3.81S185.47,505.68,187.26,505.68Zm0,6.63c1.26,0,2.1-1.12,2.1-2.79s-0.84-2.82-2.1-2.82-2.1,1.14-2.1,2.82S186,512.31,187.26,512.31Z"/><path class="cls-1" d="M192.55,505.86h1l0.1,1h0a3.21,3.21,0,0,1,2.27-1.23,1.91,1.91,0,0,1,2,1.4,3.44,3.44,0,0,1,2.4-1.4c1.5,0,2.22,1,2.22,2.85v4.62h-1.23v-4.45c0-1.37-.43-2-1.35-2a2.67,2.67,0,0,0-1.83,1.13v5.28H197v-4.45c0-1.37-.43-2-1.36-2a2.73,2.73,0,0,0-1.83,1.13v5.28h-1.23v-7.29Z"/><path class="cls-1" d="M207.72,505.68c1.86,0,2.91,1.33,2.91,3.42a4.43,4.43,0,0,1,0,.67h-4.92a2.43,2.43,0,0,0,2.43,2.56,3.3,3.3,0,0,0,1.81-.57l0.44,0.81a4.34,4.34,0,0,1-2.4.75,3.49,3.49,0,0,1-3.49-3.81C204.45,507.13,206.05,505.68,207.72,505.68Zm1.83,3.28c0-1.48-.66-2.31-1.8-2.31a2.27,2.27,0,0,0-2.1,2.31h3.9Z"/><path class="cls-1" d="M212.43,505.86h1l0.1,1.32h0a2.49,2.49,0,0,1,2.07-1.5,1.81,1.81,0,0,1,.78.15l-0.24,1.08a2,2,0,0,0-.71-0.12c-0.62,0-1.35.45-1.84,1.68v4.68h-1.23v-7.29Z"/><path class="cls-1" d="M220.92,503.47a2.05,2.05,0,0,0-.83-0.18c-0.69,0-1,.48-1,1.41v1.16h1.54v1h-1.54v6.28h-1.23v-6.28h-1v-0.93l1-.07V504.7c0-1.48.68-2.41,2.13-2.41a3.31,3.31,0,0,1,1.21.24Z"/><path class="cls-1" d="M224.7,505.68c1.79,0,3.38,1.4,3.38,3.84s-1.59,3.81-3.37,3.81-3.37-1.4-3.37-3.81S222.91,505.68,224.7,505.68Zm0,6.63c1.26,0,2.1-1.12,2.1-2.79s-0.84-2.82-2.1-2.82-2.1,1.14-2.1,2.82S223.45,512.31,224.7,512.31Z"/><path class="cls-1" d="M230,505.86h1l0.1,1.32h0a2.49,2.49,0,0,1,2.07-1.5,1.81,1.81,0,0,1,.78.15l-0.24,1.08a2,2,0,0,0-.71-0.12c-0.62,0-1.35.45-1.84,1.68v4.68H230v-7.29Z"/><path class="cls-1" d="M237.69,505.68a3,3,0,0,1,2,.84l-0.06-1.24v-2.81h1.25v10.68h-1l-0.11-.85h0a3.29,3.29,0,0,1-2.21,1c-1.83,0-3-1.38-3-3.81S236,505.68,237.69,505.68Zm0.12,6.61a2.47,2.47,0,0,0,1.86-1v-3.81a2.54,2.54,0,0,0-1.77-.76c-1.17,0-2.1,1.13-2.1,2.79S236.53,512.29,237.81,512.29Z"/><path class="cls-1" d="M157.2,128.65h2.16c1.76,0,2.81.58,2.81,2.21s-1.06,2.3-2.81,2.3h-1.61v3.39H157.2v-7.9Zm2,4c1.62,0,2.39-.54,2.39-1.83s-0.78-1.74-2.39-1.74h-1.46v3.57h1.46Z"/><path class="cls-1" d="M163.78,130.8h0.46l0,1.07h0a2,2,0,0,1,1.63-1.21,1.18,1.18,0,0,1,.58.12l-0.12.48a1.26,1.26,0,0,0-.53-0.1,1.92,1.92,0,0,0-1.57,1.48v3.92h-0.53V130.8Z"/><path class="cls-1" d="M169.57,130.66c1.39,0,2.59,1.1,2.59,3a2.7,2.7,0,0,1-2.59,3c-1.38,0-2.58-1.1-2.58-3S168.19,130.66,169.57,130.66Zm0,5.58c1.16,0,2-1,2-2.54s-0.88-2.57-2-2.57-2,1-2,2.57S168.4,136.23,169.57,136.23Z"/><path class="cls-1" d="M176,130.66a2.66,2.66,0,0,1,1.74.71l0-1.06v-2.37h0.53v8.62h-0.46l0-.74h0a2.69,2.69,0,0,1-1.87.89c-1.45,0-2.39-1.07-2.39-3A2.74,2.74,0,0,1,176,130.66Zm-0.1,5.58a2.6,2.6,0,0,0,1.81-.95v-3.42a2.44,2.44,0,0,0-1.68-.74c-1.15,0-2,1.12-2,2.57S174.64,136.23,175.87,136.23Z"/><path class="cls-1" d="M180.33,130.8h0.53v3.62c0,1.22.38,1.8,1.31,1.8A2.41,2.41,0,0,0,184,135V130.8h0.53v5.76h-0.44l-0.06-1h0a2.57,2.57,0,0,1-2,1.1c-1.19,0-1.74-.72-1.74-2.21V130.8Z"/><path class="cls-1" d="M188.91,130.66a2.36,2.36,0,0,1,1.69.71l-0.31.37a2,2,0,0,0-1.37-.61c-1.17,0-2.09,1-2.09,2.57s0.83,2.54,2.09,2.54a2.31,2.31,0,0,0,1.54-.66l0.28,0.36a2.72,2.72,0,0,1-1.83.77c-1.49,0-2.61-1.1-2.61-3A2.73,2.73,0,0,1,188.91,130.66Z"/><path class="cls-1" d="M192.28,131.26h-0.9v-0.41l0.91,0,0.07-1.67h0.46v1.67h1.67v0.46h-1.67V135c0,0.73.18,1.22,1,1.22a1.92,1.92,0,0,0,.72-0.18l0.14,0.43a3.23,3.23,0,0,1-.94.22c-1.12,0-1.44-.71-1.44-1.74v-3.71Z"/><path class="cls-1" d="M158.78,95.76a3.12,3.12,0,0,0,2.33,1.07,1.7,1.7,0,0,0,2-1.58c0-1-.65-1.31-1.43-1.66l-1.2-.54a2.17,2.17,0,0,1-1.59-2,2.07,2.07,0,0,1,2.29-1.94,3,3,0,0,1,2.21.95l-0.32.37a2.51,2.51,0,0,0-1.88-.82,1.5,1.5,0,0,0-1.74,1.42,1.78,1.78,0,0,0,1.37,1.52l1.2,0.53a2.22,2.22,0,0,1,1.66,2.1,2.25,2.25,0,0,1-2.53,2.12,3.48,3.48,0,0,1-2.66-1.19Z"/><path class="cls-1" d="M167.22,91.28c1.37,0,2.21,1,2.21,2.66a2.66,2.66,0,0,1,0,.43h-4.15a2.26,2.26,0,0,0,2.17,2.49,2.55,2.55,0,0,0,1.55-.52l0.22,0.41a3.21,3.21,0,0,1-1.81.56,2.72,2.72,0,0,1-2.66-3C164.71,92.43,165.93,91.28,167.22,91.28Zm1.7,2.69c0-1.48-.66-2.23-1.69-2.23a2.17,2.17,0,0,0-2,2.23h3.67Z"/><path class="cls-1" d="M171,91.43h0.46l0,1.07h0a2,2,0,0,1,1.63-1.21,1.18,1.18,0,0,1,.58.12l-0.12.48a1.26,1.26,0,0,0-.53-0.1,1.92,1.92,0,0,0-1.57,1.48v3.92H171V91.43Z"/><path class="cls-1" d="M174.15,91.43h0.58L176,95c0.18,0.55.4,1.13,0.58,1.66h0c0.19-.53.4-1.1,0.59-1.66l1.29-3.61h0.54l-2.13,5.76h-0.62Z"/><path class="cls-1" d="M180.12,89.57a0.48,0.48,0,1,1,.48.47A0.46,0.46,0,0,1,180.12,89.57Zm0.2,1.86h0.53v5.76h-0.53V91.43Z"/><path class="cls-1" d="M185.22,91.28a2.36,2.36,0,0,1,1.69.71l-0.31.37a2,2,0,0,0-1.37-.61c-1.18,0-2.09,1-2.09,2.57s0.83,2.54,2.09,2.54a2.32,2.32,0,0,0,1.54-.66L187,96.56a2.72,2.72,0,0,1-1.83.77c-1.49,0-2.61-1.1-2.61-3A2.73,2.73,0,0,1,185.22,91.28Z"/><path class="cls-1" d="M190.28,91.28c1.37,0,2.21,1,2.21,2.66a2.66,2.66,0,0,1,0,.43h-4.15a2.26,2.26,0,0,0,2.17,2.49,2.55,2.55,0,0,0,1.55-.52l0.22,0.41a3.21,3.21,0,0,1-1.81.56,2.72,2.72,0,0,1-2.66-3C187.77,92.43,189,91.28,190.28,91.28ZM192,94c0-1.48-.66-2.23-1.69-2.23a2.17,2.17,0,0,0-2,2.23H192Z"/><path class="cls-1" d="M158.58,62.85a3.12,3.12,0,0,0,2.33,1.07,1.7,1.7,0,0,0,2-1.58c0-1-.65-1.31-1.43-1.66l-1.2-.54a2.17,2.17,0,0,1-1.59-2,2.07,2.07,0,0,1,2.29-1.94,3,3,0,0,1,2.21.95l-0.32.37a2.51,2.51,0,0,0-1.88-.82,1.5,1.5,0,0,0-1.74,1.42,1.78,1.78,0,0,0,1.37,1.52l1.2,0.53a2.22,2.22,0,0,1,1.66,2.1,2.25,2.25,0,0,1-2.53,2.12,3.48,3.48,0,0,1-2.66-1.19Z"/><path class="cls-1" d="M164.76,66.41a1.8,1.8,0,0,0,1.47-1.52l0.16-.5L164,58.52h0.58L166,62.14c0.18,0.48.41,1.1,0.62,1.61h0c0.18-.5.37-1.13,0.53-1.61l1.24-3.62H169L166.69,65c-0.32,1-.9,1.91-1.93,1.91a1.46,1.46,0,0,1-.59-0.12l0.12-.47A1.35,1.35,0,0,0,164.76,66.41Z"/><path class="cls-1" d="M169.81,63.23a2.67,2.67,0,0,0,1.83.73A1.19,1.19,0,0,0,173,62.82c0-.72-0.74-1-1.4-1.27-0.88-.31-1.84-0.66-1.84-1.64a1.62,1.62,0,0,1,1.86-1.54,2.67,2.67,0,0,1,1.64.6l-0.29.37a2.18,2.18,0,0,0-1.38-.52,1.12,1.12,0,0,0-1.3,1c0,0.64.67,0.91,1.36,1.16,0.9,0.34,1.88.64,1.88,1.76a1.72,1.72,0,0,1-1.94,1.62,3.33,3.33,0,0,1-2.11-.79Z"/><path class="cls-1" d="M175.21,59h-0.9V58.56l0.91,0,0.07-1.67h0.46v1.67h1.67V59h-1.67v3.75c0,0.73.18,1.22,1,1.22a1.93,1.93,0,0,0,.72-0.18l0.14,0.43a3.23,3.23,0,0,1-.94.22c-1.12,0-1.44-.71-1.44-1.74V59Z"/><path class="cls-1" d="M180.73,58.37c1.37,0,2.21,1,2.21,2.66a2.66,2.66,0,0,1,0,.43h-4.15A2.26,2.26,0,0,0,180.94,64a2.55,2.55,0,0,0,1.55-.52l0.22,0.41a3.21,3.21,0,0,1-1.81.56,2.72,2.72,0,0,1-2.66-3C178.23,59.52,179.45,58.37,180.73,58.37Zm1.7,2.69c0-1.48-.66-2.23-1.69-2.23a2.17,2.17,0,0,0-2,2.23h3.67Z"/><path class="cls-1" d="M184.5,58.52H185l0,0.89h0a2.63,2.63,0,0,1,1.81-1,1.5,1.5,0,0,1,1.59,1.18,2.89,2.89,0,0,1,2-1.18c1.15,0,1.73.72,1.73,2.21v3.69h-0.54V60.65c0-1.22-.41-1.8-1.28-1.8a2.51,2.51,0,0,0-1.73,1.08v4.34h-0.53V60.65c0-1.22-.41-1.8-1.29-1.8A2.56,2.56,0,0,0,185,59.93v4.34H184.5V58.52Z"/><circle class="cls-2" cx="175.43" cy="134.13" r="61"/><circle class="cls-2" cx="175.43" cy="134.13" r="92.02"/><circle class="cls-2" cx="175.43" cy="134.13" r="24.37"/><path class="cls-1" d="M148.68,254c0-3.15,1.74-5.05,4.21-5.05s4.2,1.92,4.2,5.05-1.74,5.15-4.2,5.15S148.68,257.14,148.68,254Zm7.12,0c0-2.44-1.15-4-2.91-4s-2.92,1.52-2.92,4,1.15,4,2.92,4S155.8,256.44,155.8,254Z"/><path class="cls-1" d="M159.06,248.26h1.23v9.3c0,0.39.17,0.54,0.34,0.54a1,1,0,0,0,.27,0l0.17,0.93a1.66,1.66,0,0,1-.71.12c-0.93,0-1.31-.58-1.31-1.65v-9.21Z"/><path class="cls-1" d="M162.66,249.36a0.86,0.86,0,0,1,1.71,0A0.86,0.86,0,0,1,162.66,249.36Zm0.22,2.29h1.23v7.29h-1.23v-7.29Z"/><path class="cls-1" d="M169.72,256.8a3.83,3.83,0,0,0,2.71,1.23c1.29,0,2.06-.65,2.06-1.6s-0.72-1.32-1.65-1.74l-1.41-.62a2.78,2.78,0,0,1-2-2.53c0-1.5,1.32-2.61,3.1-2.61a4,4,0,0,1,2.89,1.21l-0.66.81a3.16,3.16,0,0,0-2.23-.93c-1.11,0-1.84.56-1.84,1.44s0.87,1.31,1.63,1.64l1.41,0.6a2.74,2.74,0,0,1,2,2.63c0,1.56-1.29,2.81-3.36,2.81a4.74,4.74,0,0,1-3.44-1.46Z"/><path class="cls-1" d="M177.54,248.26h1.23v2.91l0,1.5a3.48,3.48,0,0,1,2.43-1.2c1.53,0,2.22,1,2.22,2.85v4.62h-1.23v-4.45c0-1.37-.42-2-1.38-2a2.79,2.79,0,0,0-2,1.13v5.28h-1.23V248.26Z"/><path class="cls-1" d="M189.82,254.32c0-.93-0.31-1.83-1.5-1.83a3.93,3.93,0,0,0-2.17.78l-0.5-.85a5.42,5.42,0,0,1,2.87-.94c1.79,0,2.54,1.19,2.54,3v4.47h-1l-0.1-.87h0a4,4,0,0,1-2.42,1.05,2,2,0,0,1-2.14-2.07C185.34,255.46,186.72,254.67,189.82,254.32Zm-2,3.81a3,3,0,0,0,2-1v-2c-2.44.3-3.27,0.9-3.27,1.83A1.12,1.12,0,0,0,187.83,258.13Z"/><path class="cls-1" d="M192.51,251.65h1.26l1.08,4.21c0.17,0.69.3,1.35,0.43,2h0.06c0.17-.68.31-1.35,0.49-2l1.13-4.21h1.2l1.14,4.21c0.18,0.69.35,1.35,0.51,2h0.06c0.17-.68.3-1.33,0.45-2l1.06-4.21h1.17l-1.95,7.29h-1.5l-1-3.92c-0.18-.69-0.32-1.36-0.5-2.1H197.5c-0.17.73-.31,1.42-0.51,2.11l-1,3.9h-1.44Z"/><circle class="cls-2" cx="147.95" cy="620.23" r="56.2"/><circle class="cls-2" cx="204.88" cy="620.17" r="56.2"/><circle class="cls-2" cx="147.95" cy="676.27" r="56.2"/><path class="cls-3" d="M148.22,678.38m12.12,32.88,1.27,0a55.68,55.68,0,1,0-12.44-35q0,1.11,0,2.21l-1,0q0-1.08,0-2.17a56.76,56.76,0,1,1,12.16,35h1.27Z"/><path class="cls-1" d="M109.4,600.81a3.12,3.12,0,0,0,2.33,1.07,1.7,1.7,0,0,0,2-1.58c0-1-.65-1.31-1.43-1.66l-1.2-.54a2.17,2.17,0,0,1-1.59-2,2.07,2.07,0,0,1,2.29-1.94,3,3,0,0,1,2.21.95l-0.32.37a2.51,2.51,0,0,0-1.88-.82,1.5,1.5,0,0,0-1.74,1.42,1.78,1.78,0,0,0,1.37,1.52l1.2,0.53a2.22,2.22,0,0,1,1.66,2.1,2.25,2.25,0,0,1-2.53,2.12,3.48,3.48,0,0,1-2.66-1.19Z"/><path class="cls-1" d="M117.83,596.33c1.37,0,2.21,1,2.21,2.66a2.66,2.66,0,0,1,0,.43h-4.15a2.26,2.26,0,0,0,2.17,2.49,2.55,2.55,0,0,0,1.55-.52l0.22,0.41a3.21,3.21,0,0,1-1.81.56,2.72,2.72,0,0,1-2.66-3C115.32,597.48,116.55,596.33,117.83,596.33Zm1.7,2.69c0-1.48-.66-2.23-1.69-2.23a2.17,2.17,0,0,0-2,2.23h3.67Z"/><path class="cls-1" d="M121.6,596.48h0.46l0,1.07h0a2,2,0,0,1,1.63-1.21,1.18,1.18,0,0,1,.58.12l-0.12.48a1.26,1.26,0,0,0-.53-0.1,1.92,1.92,0,0,0-1.57,1.48v3.92H121.6v-5.76Z"/><path class="cls-1" d="M124.77,596.48h0.58l1.29,3.61c0.18,0.55.4,1.13,0.58,1.66h0c0.19-.53.4-1.1,0.59-1.66l1.29-3.61h0.54l-2.13,5.76h-0.62Z"/><path class="cls-1" d="M130.73,594.62a0.48,0.48,0,1,1,.48.47A0.46,0.46,0,0,1,130.73,594.62Zm0.2,1.86h0.53v5.76h-0.53v-5.76Z"/><path class="cls-1" d="M135.83,596.33a2.36,2.36,0,0,1,1.69.71l-0.31.37a2,2,0,0,0-1.37-.61c-1.18,0-2.09,1-2.09,2.57s0.83,2.54,2.09,2.54a2.32,2.32,0,0,0,1.54-.66l0.28,0.36a2.72,2.72,0,0,1-1.83.77c-1.49,0-2.61-1.1-2.61-3A2.73,2.73,0,0,1,135.83,596.33Z"/><path class="cls-1" d="M140.89,596.33c1.37,0,2.21,1,2.21,2.66a2.66,2.66,0,0,1,0,.43h-4.15a2.26,2.26,0,0,0,2.17,2.49,2.55,2.55,0,0,0,1.55-.52l0.22,0.41a3.21,3.21,0,0,1-1.81.56,2.72,2.72,0,0,1-2.66-3C138.39,597.48,139.61,596.33,140.89,596.33Zm1.7,2.69c0-1.48-.66-2.23-1.69-2.23a2.17,2.17,0,0,0-2,2.23h3.67Z"/><path class="cls-1" d="M110.76,606.33h1.82c2.43,0,3.6,1.54,3.6,3.92s-1.16,4-3.59,4h-1.83v-7.9Zm1.76,7.44c2.15,0,3.08-1.45,3.08-3.51s-0.94-3.45-3.08-3.45h-1.21v7h1.21Z"/><path class="cls-1" d="M120,608.33c1.37,0,2.21,1,2.21,2.66a2.66,2.66,0,0,1,0,.43H118a2.26,2.26,0,0,0,2.17,2.49,2.55,2.55,0,0,0,1.55-.52l0.22,0.41a3.21,3.21,0,0,1-1.81.56,2.72,2.72,0,0,1-2.66-3C117.45,609.48,118.67,608.33,120,608.33Zm1.7,2.69c0-1.48-.66-2.23-1.69-2.23a2.17,2.17,0,0,0-2,2.23h3.67Z"/><path class="cls-1" d="M123.31,613.19a2.67,2.67,0,0,0,1.83.73,1.19,1.19,0,0,0,1.37-1.14c0-.72-0.74-1-1.4-1.27-0.88-.31-1.84-0.66-1.84-1.64a1.62,1.62,0,0,1,1.86-1.54,2.67,2.67,0,0,1,1.64.6l-0.29.37a2.18,2.18,0,0,0-1.38-.52,1.12,1.12,0,0,0-1.3,1c0,0.64.67,0.91,1.36,1.16,0.9,0.34,1.88.64,1.88,1.76a1.72,1.72,0,0,1-1.94,1.62,3.33,3.33,0,0,1-2.11-.79Z"/><path class="cls-1" d="M128.38,606.62a0.48,0.48,0,1,1,.48.47A0.46,0.46,0,0,1,128.38,606.62Zm0.2,1.86h0.53v5.76h-0.53v-5.76Z"/><path class="cls-1" d="M131.7,614v0a1,1,0,0,1-.5-0.92,1.35,1.35,0,0,1,.62-1.06v0a2.15,2.15,0,0,1-.72-1.58,2,2,0,0,1,2-2,2.07,2.07,0,0,1,.76.14h2v0.44H134.5a1.91,1.91,0,0,1,.64,1.45,2,2,0,0,1-2,2,2,2,0,0,1-1-.24,1,1,0,0,0-.47.83c0,0.42.24,0.76,1.1,0.76H134c1.3,0,1.9.41,1.9,1.32s-1.07,1.94-2.72,1.94c-1.45,0-2.36-.62-2.36-1.6A1.81,1.81,0,0,1,131.7,614Zm1.57,2.55c1.3,0,2.12-.73,2.12-1.45s-0.47-.88-1.33-0.88h-1.24a3.58,3.58,0,0,1-.72-0.1,1.51,1.51,0,0,0-.76,1.21C131.36,616.08,132.05,616.57,133.27,616.57Zm1.34-6.21a1.5,1.5,0,1,0-3,0A1.5,1.5,0,1,0,134.62,610.36Z"/><path class="cls-1" d="M137.18,608.48h0.46l0,0.89h0a2.81,2.81,0,0,1,2-1c1.19,0,1.74.72,1.74,2.21v3.69H140.9v-3.62c0-1.22-.38-1.8-1.32-1.8a2.64,2.64,0,0,0-1.88,1.08v4.34h-0.53v-5.76Z"/><path class="cls-1" d="M209,600.81a3.12,3.12,0,0,0,2.33,1.07,1.7,1.7,0,0,0,2-1.58c0-1-.65-1.31-1.43-1.66l-1.2-.54a2.17,2.17,0,0,1-1.59-2,2.07,2.07,0,0,1,2.29-1.94,3,3,0,0,1,2.21.95l-0.32.37a2.51,2.51,0,0,0-1.88-.82,1.5,1.5,0,0,0-1.74,1.42,1.78,1.78,0,0,0,1.37,1.52l1.2,0.53a2.22,2.22,0,0,1,1.66,2.1,2.25,2.25,0,0,1-2.53,2.12,3.48,3.48,0,0,1-2.66-1.19Z"/><path class="cls-1" d="M215.54,596.93h-0.9v-0.41l0.91,0,0.07-1.67h0.46v1.67h1.67v0.46h-1.67v3.75c0,0.73.18,1.22,1,1.22a1.92,1.92,0,0,0,.72-0.18l0.14,0.43a3.23,3.23,0,0,1-.94.22c-1.12,0-1.44-.71-1.44-1.74v-3.71Z"/><path class="cls-1" d="M219.16,596.48h0.46l0,1.07h0a2,2,0,0,1,1.63-1.21,1.18,1.18,0,0,1,.58.12l-0.12.48a1.26,1.26,0,0,0-.53-0.1,1.92,1.92,0,0,0-1.57,1.48v3.92h-0.53v-5.76Z"/><path class="cls-1" d="M226.08,598.62c0-.88-0.23-1.82-1.35-1.82a3.17,3.17,0,0,0-1.83.67l-0.24-.4a3.85,3.85,0,0,1,2.13-.74c1.37,0,1.82,1,1.82,2.22v3.68h-0.44l-0.06-.74h0a3.41,3.41,0,0,1-2,.89,1.52,1.52,0,0,1-1.68-1.58C222.36,599.52,223.52,598.91,226.08,598.62Zm-2,3.3a3,3,0,0,0,2-.94v-2c-2.36.28-3.17,0.83-3.17,1.74A1.08,1.08,0,0,0,224.12,601.92Z"/><path class="cls-1" d="M228.8,596.93h-0.9v-0.41l0.91,0,0.07-1.67h0.46v1.67H231v0.46h-1.67v3.75c0,0.73.18,1.22,1,1.22a1.92,1.92,0,0,0,.72-0.18l0.14,0.43a3.23,3.23,0,0,1-.94.22c-1.12,0-1.44-.71-1.44-1.74v-3.71Z"/><path class="cls-1" d="M234.32,596.33c1.37,0,2.21,1,2.21,2.66a2.66,2.66,0,0,1,0,.43h-4.15a2.26,2.26,0,0,0,2.17,2.49,2.55,2.55,0,0,0,1.55-.52l0.22,0.41a3.21,3.21,0,0,1-1.81.56,2.72,2.72,0,0,1-2.66-3C231.82,597.48,233,596.33,234.32,596.33ZM236,599c0-1.48-.66-2.23-1.69-2.23a2.17,2.17,0,0,0-2,2.23H236Z"/><path class="cls-1" d="M238.35,602v0a1,1,0,0,1-.5-0.92,1.35,1.35,0,0,1,.62-1.06v0a2.15,2.15,0,0,1-.72-1.58,2,2,0,0,1,2-2,2.07,2.07,0,0,1,.76.14h2v0.44h-1.34a1.91,1.91,0,0,1,.64,1.45,2,2,0,0,1-2,2,2,2,0,0,1-1-.24,1,1,0,0,0-.47.83c0,0.42.24,0.76,1.1,0.76h1.24c1.3,0,1.9.41,1.9,1.32s-1.07,1.94-2.72,1.94c-1.45,0-2.36-.62-2.36-1.6A1.81,1.81,0,0,1,238.35,602Zm1.57,2.55c1.3,0,2.12-.73,2.12-1.45s-0.47-.88-1.33-0.88h-1.24a3.58,3.58,0,0,1-.72-0.1,1.51,1.51,0,0,0-.76,1.21C238,604.08,238.69,604.57,239.92,604.57Zm1.34-6.21a1.5,1.5,0,1,0-3,0A1.5,1.5,0,1,0,241.26,598.36Z"/><path class="cls-1" d="M243.61,594.62a0.48,0.48,0,1,1,.48.47A0.46,0.46,0,0,1,243.61,594.62Zm0.2,1.86h0.53v5.76h-0.53v-5.76Z"/><path class="cls-1" d="M248.71,596.33a2.36,2.36,0,0,1,1.69.71l-0.31.37a2,2,0,0,0-1.37-.61c-1.18,0-2.09,1-2.09,2.57s0.83,2.54,2.09,2.54a2.32,2.32,0,0,0,1.54-.66l0.28,0.36a2.72,2.72,0,0,1-1.83.77c-1.49,0-2.61-1.1-2.61-3A2.73,2.73,0,0,1,248.71,596.33Z"/><path class="cls-1" d="M214.21,606.33H216c2.43,0,3.6,1.54,3.6,3.92s-1.16,4-3.59,4h-1.83v-7.9Zm1.76,7.44c2.15,0,3.08-1.45,3.08-3.51s-0.94-3.45-3.08-3.45h-1.21v7H216Z"/><path class="cls-1" d="M223.4,608.33c1.37,0,2.21,1,2.21,2.66a2.66,2.66,0,0,1,0,.43h-4.15a2.26,2.26,0,0,0,2.17,2.49,2.55,2.55,0,0,0,1.55-.52l0.22,0.41a3.21,3.21,0,0,1-1.81.56,2.72,2.72,0,0,1-2.66-3C220.9,609.48,222.12,608.33,223.4,608.33Zm1.7,2.69c0-1.48-.66-2.23-1.69-2.23a2.17,2.17,0,0,0-2,2.23h3.67Z"/><path class="cls-1" d="M226.76,613.19a2.67,2.67,0,0,0,1.83.73,1.19,1.19,0,0,0,1.37-1.14c0-.72-0.74-1-1.4-1.27-0.88-.31-1.84-0.66-1.84-1.64a1.62,1.62,0,0,1,1.86-1.54,2.67,2.67,0,0,1,1.64.6l-0.29.37a2.18,2.18,0,0,0-1.38-.52,1.12,1.12,0,0,0-1.3,1c0,0.64.67,0.91,1.36,1.16,0.9,0.34,1.88.64,1.88,1.76a1.72,1.72,0,0,1-1.94,1.62,3.33,3.33,0,0,1-2.11-.79Z"/><path class="cls-1" d="M231.83,606.62a0.48,0.48,0,1,1,.48.47A0.46,0.46,0,0,1,231.83,606.62Zm0.2,1.86h0.53v5.76H232v-5.76Z"/><path class="cls-1" d="M235.15,614v0a1,1,0,0,1-.5-0.92,1.35,1.35,0,0,1,.62-1.06v0a2.15,2.15,0,0,1-.72-1.58,2,2,0,0,1,2-2,2.07,2.07,0,0,1,.76.14h2v0.44h-1.34a1.91,1.91,0,0,1,.64,1.45,2,2,0,0,1-2,2,2,2,0,0,1-1-.24,1,1,0,0,0-.47.83c0,0.42.24,0.76,1.1,0.76h1.24c1.3,0,1.9.41,1.9,1.32s-1.07,1.94-2.72,1.94c-1.45,0-2.36-.62-2.36-1.6A1.81,1.81,0,0,1,235.15,614Zm1.57,2.55c1.3,0,2.12-.73,2.12-1.45s-0.47-.88-1.33-0.88h-1.24a3.58,3.58,0,0,1-.72-0.1,1.51,1.51,0,0,0-.76,1.21C234.8,616.08,235.5,616.57,236.72,616.57Zm1.34-6.21a1.5,1.5,0,1,0-3,0A1.5,1.5,0,1,0,238.07,610.36Z"/><path class="cls-1" d="M240.63,608.48h0.46l0,0.89h0a2.81,2.81,0,0,1,2-1c1.19,0,1.74.72,1.74,2.21v3.69h-0.53v-3.62c0-1.22-.38-1.8-1.32-1.8a2.64,2.64,0,0,0-1.88,1.08v4.34h-0.53v-5.76Z"/><path class="cls-1" d="M129.22,760.31h2.46c3,0,4.65,1.76,4.65,4.88s-1.62,5-4.59,5h-2.52v-9.84Zm2.37,8.82c2.31,0,3.45-1.46,3.45-3.94s-1.14-3.85-3.45-3.85h-1.11v7.8h1.11Z"/><path class="cls-1" d="M141.16,762.68c1.79,0,3.38,1.4,3.38,3.84s-1.59,3.81-3.37,3.81-3.37-1.4-3.37-3.81S139.37,762.68,141.16,762.68Zm0,6.63c1.26,0,2.1-1.12,2.1-2.79s-0.84-2.82-2.1-2.82-2.1,1.14-2.1,2.82S139.91,769.31,141.16,769.31Z"/><path class="cls-1" d="M146.45,762.86h1l0.1,1h0a3.21,3.21,0,0,1,2.27-1.23,1.91,1.91,0,0,1,2,1.4,3.44,3.44,0,0,1,2.4-1.4c1.5,0,2.22,1,2.22,2.85v4.62h-1.23v-4.45c0-1.37-.43-2-1.35-2a2.67,2.67,0,0,0-1.83,1.13v5.28h-1.23v-4.45c0-1.37-.43-2-1.36-2a2.73,2.73,0,0,0-1.83,1.13v5.28h-1.23v-7.29Z"/><path class="cls-1" d="M158.66,760.56a0.86,0.86,0,0,1,1.71,0A0.86,0.86,0,0,1,158.66,760.56Zm0.22,2.29h1.23v7.29h-1.23v-7.29Z"/><path class="cls-1" d="M162.58,762.86h1l0.1,1h0a3.43,3.43,0,0,1,2.44-1.23c1.53,0,2.22,1,2.22,2.85v4.62h-1.23v-4.45c0-1.37-.42-2-1.38-2a2.79,2.79,0,0,0-2,1.13v5.28h-1.23v-7.29Z"/><path class="cls-1" d="M170.56,760.56a0.86,0.86,0,0,1,1.71,0A0.86,0.86,0,0,1,170.56,760.56Zm0.22,2.29H172v7.29h-1.23v-7.29Z"/><path class="cls-1" d="M177.44,762.68a3,3,0,0,1,2.13.87l-0.62.79a2.2,2.2,0,0,0-1.47-.65c-1.32,0-2.28,1.14-2.28,2.82s0.92,2.79,2.25,2.79a2.6,2.6,0,0,0,1.71-.73l0.55,0.81a3.61,3.61,0,0,1-2.37.95c-1.93,0-3.42-1.4-3.42-3.81A3.53,3.53,0,0,1,177.44,762.68Z"/><path class="cls-1" d="M184.42,760.31h2.92c2,0,3.39.68,3.39,2.4a2.14,2.14,0,0,1-1.73,2.14v0.06a2.31,2.31,0,0,1,2.28,2.35c0,1.94-1.53,2.88-3.72,2.88h-3.15v-9.84Zm2.71,4.2c1.67,0,2.37-.6,2.37-1.69s-0.79-1.52-2.31-1.52h-1.52v3.21h1.46Zm0.25,4.65c1.68,0,2.67-.62,2.67-2s-0.94-1.77-2.67-1.77h-1.71v3.72h1.71Z"/><path class="cls-1" d="M193,762.86h1.25v4.45c0,1.37.4,2,1.36,2a2.48,2.48,0,0,0,2-1.23v-5.17h1.23v7.29h-1L197.66,769h0a3.08,3.08,0,0,1-2.4,1.32c-1.54,0-2.23-1-2.23-2.85v-4.62Z"/><path class="cls-1" d="M201.25,762.86h1l0.1,1.32h0a2.49,2.49,0,0,1,2.07-1.5,1.81,1.81,0,0,1,.78.15L205,763.91a2,2,0,0,0-.71-0.12c-0.62,0-1.35.45-1.84,1.68v4.68h-1.23v-7.29Z"/><path class="cls-1" d="M206.66,763.86h-1.08v-0.93l1.14-.07,0.15-2h1v2h2v1h-2v4c0,0.9.29,1.41,1.13,1.41a2.66,2.66,0,0,0,.83-0.19l0.24,0.93a4.51,4.51,0,0,1-1.35.27c-1.56,0-2.08-1-2.08-2.43v-4Z"/><path class="cls-1" d="M214.21,762.68c1.79,0,3.38,1.4,3.38,3.84s-1.59,3.81-3.37,3.81-3.37-1.4-3.37-3.81S212.42,762.68,214.21,762.68Zm0,6.63c1.26,0,2.1-1.12,2.1-2.79s-0.84-2.82-2.1-2.82-2.1,1.14-2.1,2.82S213,769.31,214.21,769.31Z"/><path class="cls-1" d="M219.5,762.86h1l0.1,1h0a3.44,3.44,0,0,1,2.45-1.23c1.53,0,2.22,1,2.22,2.85v4.62h-1.23v-4.45c0-1.37-.42-2-1.38-2a2.79,2.79,0,0,0-2,1.13v5.28H219.5v-7.29Z"/><path class="cls-1" d="M211.63,679.51h1.82c2.43,0,3.6,1.54,3.6,3.92s-1.16,4-3.59,4h-1.83v-7.9Zm1.76,7.44c2.15,0,3.08-1.45,3.08-3.51S215.54,680,213.4,680h-1.21v7h1.21Z"/><path class="cls-1" d="M220.82,681.51c1.37,0,2.21,1,2.21,2.66a2.66,2.66,0,0,1,0,.43h-4.15A2.26,2.26,0,0,0,221,687.1a2.55,2.55,0,0,0,1.55-.52l0.22,0.41a3.21,3.21,0,0,1-1.81.56,2.72,2.72,0,0,1-2.66-3C218.32,682.67,219.54,681.51,220.82,681.51Zm1.7,2.69c0-1.48-.66-2.23-1.69-2.23a2.17,2.17,0,0,0-2,2.23h3.67Z"/><path class="cls-1" d="M224.19,686.37a2.67,2.67,0,0,0,1.83.73,1.19,1.19,0,0,0,1.37-1.14c0-.72-0.74-1-1.4-1.27-0.88-.31-1.84-0.66-1.84-1.64a1.62,1.62,0,0,1,1.86-1.54,2.67,2.67,0,0,1,1.64.6l-0.29.37A2.18,2.18,0,0,0,226,682a1.12,1.12,0,0,0-1.3,1c0,0.64.67,0.91,1.36,1.16,0.9,0.34,1.88.64,1.88,1.76a1.72,1.72,0,0,1-1.94,1.62,3.33,3.33,0,0,1-2.11-.79Z"/><path class="cls-1" d="M229.25,679.8a0.48,0.48,0,1,1,.48.47A0.46,0.46,0,0,1,229.25,679.8Zm0.2,1.86H230v5.76h-0.53v-5.76Z"/><path class="cls-1" d="M232.57,687.2v0a1,1,0,0,1-.5-0.92,1.35,1.35,0,0,1,.62-1.06v0a2.15,2.15,0,0,1-.72-1.58,2,2,0,0,1,2-2,2.07,2.07,0,0,1,.76.14h2v0.44h-1.34a1.91,1.91,0,0,1,.64,1.45,2,2,0,0,1-2,2,2,2,0,0,1-1-.24,1,1,0,0,0-.47.83c0,0.42.24,0.76,1.1,0.76h1.24c1.3,0,1.9.41,1.9,1.32s-1.07,1.94-2.72,1.94c-1.45,0-2.36-.62-2.36-1.6A1.81,1.81,0,0,1,232.57,687.2Zm1.57,2.55c1.3,0,2.12-.73,2.12-1.45s-0.47-.88-1.33-0.88H233.7a3.58,3.58,0,0,1-.72-0.1,1.51,1.51,0,0,0-.76,1.21C232.23,689.26,232.92,689.75,234.15,689.75Zm1.34-6.21a1.5,1.5,0,1,0-3,0A1.5,1.5,0,1,0,235.49,683.54Z"/><path class="cls-1" d="M238,681.66h0.46l0,0.89h0a2.81,2.81,0,0,1,2-1c1.19,0,1.74.72,1.74,2.21v3.69h-0.53v-3.62c0-1.22-.38-1.8-1.32-1.8a2.64,2.64,0,0,0-1.88,1.08v4.34H238v-5.76Z"/><path class="cls-1" d="M208.64,694.39h-2.52v-0.48h5.58v0.48h-2.51v7.42h-0.55v-7.42Z"/><path class="cls-1" d="M213.12,693.19h0.53V697a2.83,2.83,0,0,1,2-1c1.19,0,1.74.72,1.74,2.21v3.69h-0.53v-3.62c0-1.22-.38-1.8-1.32-1.8a2.64,2.64,0,0,0-1.88,1.08v4.34h-0.53v-8.62Z"/><path class="cls-1" d="M219.25,694.2a0.48,0.48,0,1,1,.48.47A0.46,0.46,0,0,1,219.25,694.2Zm0.2,1.86H220v5.76h-0.53v-5.76Z"/><path class="cls-1" d="M222.2,696.06h0.46l0,0.89h0a2.81,2.81,0,0,1,2-1c1.19,0,1.74.72,1.74,2.21v3.69h-0.53v-3.62c0-1.22-.38-1.8-1.32-1.8a2.64,2.64,0,0,0-1.88,1.08v4.34H222.2v-5.76Z"/><path class="cls-1" d="M228.58,693.19h0.53v6.36h0l2.84-3.49h0.61l-1.87,2.28,2.18,3.48h-0.59l-1.91-3.08-1.3,1.51v1.57h-0.53v-8.62Z"/><path class="cls-1" d="M233.95,694.2a0.48,0.48,0,1,1,.48.47A0.46,0.46,0,0,1,233.95,694.2Zm0.2,1.86h0.53v5.76h-0.53v-5.76Z"/><path class="cls-1" d="M236.9,696.06h0.46l0,0.89h0a2.81,2.81,0,0,1,2-1c1.19,0,1.74.72,1.74,2.21v3.69h-0.53v-3.62c0-1.22-.38-1.8-1.32-1.8a2.64,2.64,0,0,0-1.88,1.08v4.34H236.9v-5.76Z"/><path class="cls-1" d="M243.66,701.6v0a1,1,0,0,1-.5-0.92,1.35,1.35,0,0,1,.62-1.06v0a2.15,2.15,0,0,1-.72-1.58,2,2,0,0,1,2-2,2.07,2.07,0,0,1,.76.14h2v0.44h-1.34a1.91,1.91,0,0,1,.64,1.45,2,2,0,0,1-2,2,2,2,0,0,1-1-.24,1,1,0,0,0-.47.83c0,0.42.24,0.76,1.1,0.76H246c1.3,0,1.9.41,1.9,1.32s-1.07,1.94-2.72,1.94c-1.45,0-2.36-.62-2.36-1.6A1.81,1.81,0,0,1,243.66,701.6Zm1.57,2.55c1.3,0,2.12-.73,2.12-1.45s-0.47-.88-1.33-0.88h-1.24a3.58,3.58,0,0,1-.72-0.1,1.51,1.51,0,0,0-.76,1.21C243.31,703.66,244,704.15,245.23,704.15Zm1.34-6.21a1.5,1.5,0,1,0-3,0A1.5,1.5,0,1,0,246.57,697.94Z"/><path class="cls-1" d="M99.73,683.19h2.16c1.76,0,2.81.58,2.81,2.21s-1.06,2.3-2.81,2.3h-1.61v3.39H99.73v-7.9Zm2,4c1.62,0,2.39-.54,2.39-1.83s-0.78-1.74-2.39-1.74h-1.46v3.57h1.46Z"/><path class="cls-1" d="M106.32,685.33h0.46l0,1.07h0a2,2,0,0,1,1.63-1.21,1.18,1.18,0,0,1,.58.12l-0.12.48a1.26,1.26,0,0,0-.53-0.1,1.92,1.92,0,0,0-1.57,1.48v3.92h-0.53v-5.76Z"/><path class="cls-1" d="M112.11,685.19c1.39,0,2.59,1.1,2.59,3a2.7,2.7,0,0,1-2.59,3c-1.38,0-2.58-1.1-2.58-3S110.73,685.19,112.11,685.19Zm0,5.58c1.16,0,2-1,2-2.54s-0.88-2.57-2-2.57-2,1-2,2.57S110.94,690.77,112.11,690.77Z"/><path class="cls-1" d="M118.5,685.19a2.66,2.66,0,0,1,1.74.71l0-1.06v-2.37h0.53v8.62h-0.46l0-.74h0a2.69,2.69,0,0,1-1.87.89c-1.45,0-2.39-1.07-2.39-3A2.74,2.74,0,0,1,118.5,685.19Zm-0.1,5.58a2.6,2.6,0,0,0,1.81-.95V686.4a2.44,2.44,0,0,0-1.68-.74c-1.15,0-2,1.12-2,2.57S117.18,690.77,118.41,690.77Z"/><path class="cls-1" d="M122.87,685.33h0.53V689c0,1.22.38,1.8,1.31,1.8a2.41,2.41,0,0,0,1.86-1.18v-4.25h0.53v5.76h-0.44l-0.06-1h0a2.57,2.57,0,0,1-2,1.1c-1.19,0-1.74-.72-1.74-2.21v-3.69Z"/><path class="cls-1" d="M131.45,685.19a2.36,2.36,0,0,1,1.69.71l-0.31.37a2,2,0,0,0-1.37-.61c-1.17,0-2.09,1-2.09,2.57s0.83,2.54,2.09,2.54a2.31,2.31,0,0,0,1.54-.66l0.28,0.36a2.72,2.72,0,0,1-1.83.77c-1.49,0-2.61-1.1-2.61-3A2.73,2.73,0,0,1,131.45,685.19Z"/><path class="cls-1" d="M134.82,685.79h-0.9v-0.41l0.91,0,0.07-1.67h0.46v1.67H137v0.46h-1.67v3.75c0,0.73.18,1.22,1,1.22a1.92,1.92,0,0,0,.72-0.18L137.2,691a3.23,3.23,0,0,1-.94.22c-1.12,0-1.44-.71-1.44-1.74v-3.71Z"/><path class="cls-1" d="M140.58,689.66a3.12,3.12,0,0,0,2.33,1.07,1.7,1.7,0,0,0,2-1.58c0-1-.65-1.31-1.43-1.66l-1.2-.54a2.17,2.17,0,0,1-1.59-2,2.07,2.07,0,0,1,2.29-1.94,3,3,0,0,1,2.21.95l-0.32.37a2.51,2.51,0,0,0-1.88-.82,1.5,1.5,0,0,0-1.74,1.42,1.78,1.78,0,0,0,1.37,1.52l1.2,0.53a2.22,2.22,0,0,1,1.66,2.1,2.25,2.25,0,0,1-2.53,2.12,3.48,3.48,0,0,1-2.66-1.19Z"/><path class="cls-1" d="M149,685.19c1.37,0,2.21,1,2.21,2.66a2.66,2.66,0,0,1,0,.43h-4.15a2.26,2.26,0,0,0,2.17,2.49,2.55,2.55,0,0,0,1.55-.52l0.22,0.41a3.21,3.21,0,0,1-1.81.56,2.72,2.72,0,0,1-2.66-3C146.51,686.34,147.73,685.19,149,685.19Zm1.7,2.69c0-1.48-.66-2.23-1.69-2.23a2.17,2.17,0,0,0-2,2.23h3.67Z"/><path class="cls-1" d="M152.79,685.33h0.46l0,1.07h0a2,2,0,0,1,1.63-1.21,1.18,1.18,0,0,1,.58.12l-0.12.48a1.26,1.26,0,0,0-.53-0.1,1.92,1.92,0,0,0-1.57,1.48v3.92h-0.53v-5.76Z"/><path class="cls-1" d="M156,685.33h0.58l1.29,3.61c0.18,0.55.4,1.13,0.58,1.66h0c0.19-.53.4-1.1,0.59-1.66l1.29-3.61h0.54l-2.13,5.76h-0.62Z"/><path class="cls-1" d="M161.92,683.47a0.48,0.48,0,1,1,.48.47A0.46,0.46,0,0,1,161.92,683.47Zm0.2,1.86h0.53v5.76h-0.53v-5.76Z"/><path class="cls-1" d="M167,685.19a2.36,2.36,0,0,1,1.69.71l-0.31.37a2,2,0,0,0-1.37-.61c-1.18,0-2.09,1-2.09,2.57s0.83,2.54,2.09,2.54a2.32,2.32,0,0,0,1.54-.66l0.28,0.36a2.72,2.72,0,0,1-1.83.77c-1.49,0-2.61-1.1-2.61-3A2.73,2.73,0,0,1,167,685.19Z"/><path class="cls-1" d="M172.08,685.19c1.37,0,2.21,1,2.21,2.66a2.66,2.66,0,0,1,0,.43h-4.15a2.26,2.26,0,0,0,2.17,2.49,2.55,2.55,0,0,0,1.55-.52l0.22,0.41a3.21,3.21,0,0,1-1.81.56,2.72,2.72,0,0,1-2.66-3C169.57,686.34,170.8,685.19,172.08,685.19Zm1.7,2.69c0-1.48-.66-2.23-1.69-2.23a2.17,2.17,0,0,0-2,2.23h3.67Z"/><path class="cls-1" d="M102.23,701.66a3.12,3.12,0,0,0,2.33,1.07,1.7,1.7,0,0,0,2-1.58c0-1-.65-1.31-1.43-1.66l-1.2-.54a2.17,2.17,0,0,1-1.59-2,2.07,2.07,0,0,1,2.29-1.94,3,3,0,0,1,2.21.95l-0.32.37a2.51,2.51,0,0,0-1.88-.82,1.5,1.5,0,0,0-1.74,1.42,1.78,1.78,0,0,0,1.37,1.52l1.2,0.53a2.22,2.22,0,0,1,1.66,2.1,2.25,2.25,0,0,1-2.53,2.12,3.48,3.48,0,0,1-2.66-1.19Z"/><path class="cls-1" d="M108.41,705.22a1.8,1.8,0,0,0,1.47-1.52l0.16-.5-2.36-5.86h0.58l1.39,3.62c0.18,0.48.41,1.1,0.62,1.61h0c0.18-.5.37-1.13,0.53-1.61l1.24-3.62h0.54l-2.28,6.48c-0.32,1-.9,1.91-1.93,1.91a1.46,1.46,0,0,1-.59-0.12l0.12-.47A1.35,1.35,0,0,0,108.41,705.22Z"/><path class="cls-1" d="M113.46,702a2.67,2.67,0,0,0,1.83.73,1.19,1.19,0,0,0,1.37-1.14c0-.72-0.74-1-1.4-1.27-0.88-.31-1.84-0.66-1.84-1.64a1.62,1.62,0,0,1,1.86-1.54,2.67,2.67,0,0,1,1.64.6l-0.29.37a2.18,2.18,0,0,0-1.38-.52,1.12,1.12,0,0,0-1.3,1c0,0.64.67,0.91,1.36,1.16,0.9,0.34,1.88.64,1.88,1.76a1.72,1.72,0,0,1-1.94,1.62,3.33,3.33,0,0,1-2.11-.79Z"/><path class="cls-1" d="M118.86,697.79H118v-0.41l0.91,0,0.07-1.67h0.46v1.67h1.67v0.46H119.4v3.75c0,0.73.18,1.22,1,1.22a1.93,1.93,0,0,0,.72-0.18l0.14,0.43a3.23,3.23,0,0,1-.94.22c-1.12,0-1.44-.71-1.44-1.74v-3.71Z"/><path class="cls-1" d="M124.38,697.19c1.37,0,2.21,1,2.21,2.66a2.66,2.66,0,0,1,0,.43h-4.15a2.26,2.26,0,0,0,2.17,2.49,2.55,2.55,0,0,0,1.55-.52l0.22,0.41a3.21,3.21,0,0,1-1.81.56,2.72,2.72,0,0,1-2.66-3C121.87,698.34,123.09,697.19,124.38,697.19Zm1.7,2.69c0-1.48-.66-2.23-1.69-2.23a2.17,2.17,0,0,0-2,2.23h3.67Z"/><path class="cls-1" d="M128.15,697.33h0.46l0,0.89h0a2.63,2.63,0,0,1,1.81-1,1.5,1.5,0,0,1,1.59,1.18,2.89,2.89,0,0,1,2-1.18c1.15,0,1.73.72,1.73,2.21v3.69h-0.54v-3.62c0-1.22-.41-1.8-1.28-1.8a2.51,2.51,0,0,0-1.73,1.08v4.34h-0.53v-3.62c0-1.22-.41-1.8-1.29-1.8a2.56,2.56,0,0,0-1.73,1.08v4.34h-0.53v-5.76Z"/><path class="cls-1" d="M140.3,695.19h1.82c2.43,0,3.6,1.54,3.6,3.92s-1.16,4-3.59,4H140.3v-7.9Zm1.76,7.44c2.15,0,3.08-1.45,3.08-3.51s-0.94-3.45-3.08-3.45h-1.21v7h1.21Z"/><path class="cls-1" d="M149.49,697.19c1.37,0,2.21,1,2.21,2.66a2.66,2.66,0,0,1,0,.43h-4.15a2.26,2.26,0,0,0,2.17,2.49,2.55,2.55,0,0,0,1.55-.52l0.22,0.41a3.21,3.21,0,0,1-1.81.56,2.72,2.72,0,0,1-2.66-3C147,698.34,148.21,697.19,149.49,697.19Zm1.7,2.69c0-1.48-.66-2.23-1.69-2.23a2.17,2.17,0,0,0-2,2.23h3.67Z"/><path class="cls-1" d="M152.85,702a2.67,2.67,0,0,0,1.83.73,1.19,1.19,0,0,0,1.37-1.14c0-.72-0.74-1-1.4-1.27-0.87-.31-1.83-0.66-1.83-1.64a1.62,1.62,0,0,1,1.86-1.54,2.67,2.67,0,0,1,1.64.6l-0.29.37a2.18,2.18,0,0,0-1.38-.52,1.12,1.12,0,0,0-1.29,1c0,0.64.67,0.91,1.36,1.16,0.9,0.34,1.88.64,1.88,1.76a1.72,1.72,0,0,1-1.94,1.62,3.33,3.33,0,0,1-2.11-.79Z"/><path class="cls-1" d="M157.92,695.47a0.48,0.48,0,1,1,.48.47A0.46,0.46,0,0,1,157.92,695.47Zm0.2,1.86h0.53v5.76h-0.53v-5.76Z"/><path class="cls-1" d="M161.24,702.87v0a1,1,0,0,1-.5-0.92,1.35,1.35,0,0,1,.62-1.06v0a2.15,2.15,0,0,1-.72-1.58,2,2,0,0,1,2-2,2.07,2.07,0,0,1,.76.14h2v0.44H164a1.91,1.91,0,0,1,.64,1.45,2,2,0,0,1-2,2,2,2,0,0,1-1-.24,1,1,0,0,0-.47.83c0,0.42.24,0.76,1.1,0.76h1.24c1.3,0,1.9.41,1.9,1.32s-1.07,1.94-2.72,1.94c-1.45,0-2.36-.62-2.36-1.6A1.81,1.81,0,0,1,161.24,702.87Zm1.57,2.55c1.3,0,2.12-.73,2.12-1.45s-0.47-.88-1.33-0.88h-1.24a3.58,3.58,0,0,1-.72-0.1,1.51,1.51,0,0,0-.76,1.21C160.89,704.94,161.59,705.43,162.81,705.43Zm1.34-6.21a1.5,1.5,0,1,0-3,0A1.5,1.5,0,1,0,164.15,699.22Z"/><path class="cls-1" d="M166.71,697.33h0.46l0,0.89h0a2.81,2.81,0,0,1,2-1c1.19,0,1.74.72,1.74,2.21v3.69h-0.53v-3.62c0-1.22-.38-1.8-1.32-1.8a2.64,2.64,0,0,0-1.88,1.08v4.34h-0.53v-5.76Z"/></svg>