<svg id="Layer_1" data-name="Layer 1" xmlns="http://www.w3.org/2000/svg" viewBox="0 0 1035.53 425.9"><defs><style>.cls-1{fill:#b2cfe4;}.cls-2{fill:#231f20;}.cls-3,.cls-4,.cls-5,.cls-6,.cls-7{fill:none;stroke-miterlimit:10;}.cls-3,.cls-5{stroke:#2b388f;}.cls-3{stroke-width:0.8px;}.cls-4,.cls-6{stroke:#7daada;}.cls-4{stroke-width:1.67px;stroke-dasharray:1.67 1.67;}.cls-5{stroke-width:0.75px;}.cls-6{stroke-width:1.56px;stroke-dasharray:1.56 1.56;}.cls-7{stroke:#b2cfe4;stroke-width:2px;}</style></defs><title>thesis_final_website</title><circle class="cls-1" cx="239.38" cy="157.31" r="20.45"/><circle class="cls-1" cx="618.27" cy="157.31" r="20.45"/><path class="cls-2" d="M61.54,351.58L62,349.11h1l-1.87,9.26H60.34l0.1-.94H60.4a3.15,3.15,0,0,1-2.2,1.09c-1.11,0-1.82-.81-1.82-2.29,0-2.43,1.66-4.34,3.42-4.34a1.67,1.67,0,0,1,1.5.92h0Zm-1,4.9,0.57-2.82a1.48,1.48,0,0,0-1.29-.94c-1.26,0-2.43,1.61-2.43,3.35,0,1.09.46,1.61,1.16,1.61A2.63,2.63,0,0,0,60.55,356.48Z"/><path class="cls-2" d="M66.69,351.89c1.42,0,2,1,2,2.29a4.12,4.12,0,0,1-.22,1.23H64.31c-0.23,1.63.61,2.31,1.72,2.31a2.52,2.52,0,0,0,1.42-.55l0.39,0.66a3.54,3.54,0,0,1-2,.68,2.37,2.37,0,0,1-2.48-2.64A3.76,3.76,0,0,1,66.69,351.89Zm1,2.85a3.34,3.34,0,0,0,.06-0.65,1.22,1.22,0,0,0-1.22-1.4,2.47,2.47,0,0,0-2.16,2.05h3.32Z"/><path class="cls-2" d="M69.65,356.83a2,2,0,0,0,1.63.92,1.24,1.24,0,0,0,1.34-1.05c0-.46-0.27-0.71-1.16-1.2s-1.44-1-1.44-1.73a2,2,0,0,1,2.17-1.88,2.53,2.53,0,0,1,1.86.84l-0.57.56a1.77,1.77,0,0,0-1.31-.62,1.11,1.11,0,0,0-1.2,1,1.57,1.57,0,0,0,1.12,1.12c1.13,0.62,1.48,1.1,1.48,1.79a2.09,2.09,0,0,1-2.37,2,2.77,2.77,0,0,1-2.17-1.2Z"/><path class="cls-2" d="M76,352h1l-1.27,6.32h-1Zm0.21-1.9a0.75,0.75,0,0,1,.75-0.75,0.6,0.6,0,0,1,.64.6,0.74,0.74,0,0,1-.75.74A0.59,0.59,0,0,1,76.18,350.15Z"/><path class="cls-2" d="M83.86,352l-1.33,6.62a2.89,2.89,0,0,1-3,2.61,3.48,3.48,0,0,1-2.21-.87l0.47-.69a2.74,2.74,0,0,0,1.78.75,2.06,2.06,0,0,0,2-1.88l0.31-1.3h0a3.15,3.15,0,0,1-2.15,1c-1.07,0-1.83-.75-1.83-2.22,0-2.31,1.64-4.19,3.34-4.19a1.71,1.71,0,0,1,1.52.95h0L83,352h0.82ZM82,356.37l0.56-2.7a1.51,1.51,0,0,0-1.29-.94c-1.22,0-2.35,1.56-2.35,3.21,0,1,.43,1.53,1.13,1.53A2.73,2.73,0,0,0,82,356.37Z"/><path class="cls-2" d="M85.94,352h0.82l-0.09.95h0.05a3.53,3.53,0,0,1,2.21-1.1,1.36,1.36,0,0,1,1.5,1.57,3.6,3.6,0,0,1-.1.87l-0.81,4h-1l0.78-3.9a3.86,3.86,0,0,0,.1-0.74,0.84,0.84,0,0,0-.94-1,3.07,3.07,0,0,0-1.9,1.14l-0.9,4.47h-1Z"/><path class="cls-2" d="M95.31,352.86H94.39l0.14-.74,1-.06L96,350.31h0.84L96.48,352h1.6l-0.16.81H96.3l-0.74,3.61a2.69,2.69,0,0,0,0,.47,0.68,0.68,0,0,0,.81.78,1.57,1.57,0,0,0,.66-0.2l0.22,0.72a2.89,2.89,0,0,1-1.2.29,1.31,1.31,0,0,1-1.51-1.4,6,6,0,0,1,.06-0.7Z"/><path class="cls-2" d="M101.55,351.89c1.42,0,2,1,2,2.29a4.12,4.12,0,0,1-.22,1.23H99.18c-0.23,1.63.61,2.31,1.72,2.31a2.52,2.52,0,0,0,1.42-.55l0.39,0.66a3.54,3.54,0,0,1-2,.68,2.37,2.37,0,0,1-2.48-2.64A3.76,3.76,0,0,1,101.55,351.89Zm1,2.85a3.34,3.34,0,0,0,.06-0.65,1.22,1.22,0,0,0-1.22-1.4,2.47,2.47,0,0,0-2.16,2.05h3.32Z"/><path class="cls-2" d="M107.87,351.89a1.69,1.69,0,0,1,1.52.95h0.05l0.25-.79h0.81l-1.26,6.32h-0.82l0.1-.94h-0.05a3.15,3.15,0,0,1-2.2,1.09c-1.11,0-1.82-.81-1.82-2.29C104.45,353.8,106.12,351.89,107.87,351.89Zm0.75,4.59,0.57-2.82a1.48,1.48,0,0,0-1.29-.94c-1.26,0-2.43,1.61-2.43,3.35,0,1.09.46,1.61,1.16,1.61A2.6,2.6,0,0,0,108.63,356.48Z"/><path class="cls-2" d="M112.58,352h0.82l-0.09.95h0.05a3.43,3.43,0,0,1,2.08-1.1,1.29,1.29,0,0,1,1.46,1.23,3.69,3.69,0,0,1,2.24-1.23,1.36,1.36,0,0,1,1.5,1.57,4.43,4.43,0,0,1-.1.87l-0.81,4h-1l0.79-3.9a3.8,3.8,0,0,0,.1-0.74,0.84,0.84,0,0,0-.92-1,3.14,3.14,0,0,0-1.78,1.14l-0.9,4.47h-1l0.78-3.9a3.8,3.8,0,0,0,.1-0.74,0.83,0.83,0,0,0-.91-1,3.06,3.06,0,0,0-1.78,1.14l-0.9,4.47h-1Z"/><path class="cls-2" d="M59.88,397.35a2.08,2.08,0,0,1,1.64.77l-0.58.62a1.32,1.32,0,0,0-1.12-.57c-1.26,0-2.44,1.48-2.44,3.21,0,1.14.49,1.77,1.5,1.77a2.3,2.3,0,0,0,1.4-.56l0.44,0.65a3.22,3.22,0,0,1-2,.74,2.27,2.27,0,0,1-2.33-2.54A3.86,3.86,0,0,1,59.88,397.35Z"/><path class="cls-2" d="M61.84,401.45c0-2.39,1.68-4.1,3.41-4.1a2.25,2.25,0,0,1,2.26,2.54c0,2.39-1.69,4.1-3.42,4.1A2.24,2.24,0,0,1,61.84,401.45Zm1-.07c0,1.14.48,1.77,1.35,1.77,1.17,0,2.3-1.43,2.3-3.2,0-1.14-.48-1.78-1.35-1.78C64,398.17,62.84,399.62,62.84,401.38Z"/><path class="cls-2" d="M69.68,397.51H70.5l-0.09.95h0.05a3.43,3.43,0,0,1,2.08-1.1A1.29,1.29,0,0,1,74,398.59a3.69,3.69,0,0,1,2.24-1.23,1.36,1.36,0,0,1,1.5,1.57,4.43,4.43,0,0,1-.1.87l-0.81,4h-1l0.79-3.9a3.8,3.8,0,0,0,.1-0.74,0.84,0.84,0,0,0-.92-1A3.14,3.14,0,0,0,74,399.36l-0.9,4.47h-1l0.78-3.9a3.8,3.8,0,0,0,.1-0.74,0.83,0.83,0,0,0-.91-1,3.06,3.06,0,0,0-1.78,1.14l-0.9,4.47h-1Z"/><path class="cls-2" d="M80.07,397.51h0.82l-0.09.95h0.05a3.43,3.43,0,0,1,2.08-1.1,1.29,1.29,0,0,1,1.46,1.23,3.69,3.69,0,0,1,2.24-1.23,1.36,1.36,0,0,1,1.5,1.57,4.43,4.43,0,0,1-.1.87l-0.81,4h-1l0.79-3.9a3.8,3.8,0,0,0,.1-0.74,0.84,0.84,0,0,0-.92-1,3.14,3.14,0,0,0-1.78,1.14l-0.9,4.47h-1l0.78-3.9a3.8,3.8,0,0,0,.1-0.74,0.83,0.83,0,0,0-.91-1,3.06,3.06,0,0,0-1.78,1.14l-0.9,4.47h-1Z"/><path class="cls-2" d="M92.66,397.35c1.42,0,2,1,2,2.29a4.12,4.12,0,0,1-.22,1.23H90.28c-0.23,1.63.61,2.31,1.72,2.31a2.52,2.52,0,0,0,1.42-.55l0.39,0.66a3.54,3.54,0,0,1-2,.68,2.37,2.37,0,0,1-2.48-2.64A3.76,3.76,0,0,1,92.66,397.35Zm1,2.85a3.34,3.34,0,0,0,.06-0.65,1.22,1.22,0,0,0-1.22-1.4,2.47,2.47,0,0,0-2.16,2.05H93.7Z"/><path class="cls-2" d="M96.7,397.51h0.82l-0.14,1.21h0.05a2.56,2.56,0,0,1,2-1.36,1.45,1.45,0,0,1,.6.12l-0.35.88a1.23,1.23,0,0,0-.55-0.1,2.46,2.46,0,0,0-1.86,1.59l-0.79,4h-1Z"/><path class="cls-2" d="M103.37,397.35a2.08,2.08,0,0,1,1.64.77l-0.58.62a1.32,1.32,0,0,0-1.12-.57c-1.26,0-2.44,1.48-2.44,3.21,0,1.14.49,1.77,1.5,1.77a2.3,2.3,0,0,0,1.4-.56l0.44,0.65a3.22,3.22,0,0,1-2,.74,2.27,2.27,0,0,1-2.33-2.54A3.86,3.86,0,0,1,103.37,397.35Z"/><path class="cls-2" d="M106.69,397.51h1l-1.27,6.32h-1Zm0.21-1.9a0.75,0.75,0,0,1,.75-0.75,0.6,0.6,0,0,1,.64.6,0.74,0.74,0,0,1-.75.74A0.59,0.59,0,0,1,106.9,395.61Z"/><path class="cls-2" d="M112,397.35a1.69,1.69,0,0,1,1.52.95h0.05l0.25-.79h0.81l-1.26,6.32h-0.82l0.1-.94h-0.05a3.15,3.15,0,0,1-2.2,1.09c-1.11,0-1.82-.81-1.82-2.29C108.61,399.27,110.28,397.35,112,397.35Zm0.75,4.59,0.57-2.82a1.48,1.48,0,0,0-1.29-.94c-1.26,0-2.43,1.61-2.43,3.35,0,1.09.46,1.61,1.16,1.61A2.6,2.6,0,0,0,112.79,401.94Z"/><path class="cls-2" d="M117.34,394.57h1l-1.62,8.1a1.09,1.09,0,0,0,0,.25,0.21,0.21,0,0,0,.22.23,0.54,0.54,0,0,0,.21,0v0.77a1.63,1.63,0,0,1-.62.1,0.75,0.75,0,0,1-.84-0.82,2.44,2.44,0,0,1,.08-0.55Z"/><path class="cls-2" d="M124.81,397.35a2.08,2.08,0,0,1,1.64.77l-0.58.62a1.32,1.32,0,0,0-1.12-.57c-1.26,0-2.44,1.48-2.44,3.21,0,1.14.49,1.77,1.5,1.77a2.3,2.3,0,0,0,1.4-.56l0.44,0.65a3.22,3.22,0,0,1-2,.74,2.27,2.27,0,0,1-2.33-2.54A3.86,3.86,0,0,1,124.81,397.35Z"/><path class="cls-2" d="M128.71,394.57h1l-1.62,8.1a1.09,1.09,0,0,0,0,.25,0.21,0.21,0,0,0,.22.23,0.54,0.54,0,0,0,.21,0v0.77a1.63,1.63,0,0,1-.62.1,0.75,0.75,0,0,1-.84-0.82,2.44,2.44,0,0,1,.08-0.55Z"/><path class="cls-2" d="M131.35,397.51h1l-1.27,6.32h-1Zm0.21-1.9a0.75,0.75,0,0,1,.75-0.75,0.6,0.6,0,0,1,.64.6,0.74,0.74,0,0,1-.75.74A0.59,0.59,0,0,1,131.56,395.61Z"/><path class="cls-2" d="M136.63,397.35c1.42,0,2,1,2,2.29a4.12,4.12,0,0,1-.22,1.23h-4.11c-0.23,1.63.61,2.31,1.72,2.31a2.52,2.52,0,0,0,1.42-.55l0.39,0.66a3.54,3.54,0,0,1-2,.68,2.37,2.37,0,0,1-2.48-2.64A3.76,3.76,0,0,1,136.63,397.35Zm1,2.85a3.34,3.34,0,0,0,.06-0.65,1.22,1.22,0,0,0-1.22-1.4,2.47,2.47,0,0,0-2.16,2.05h3.32Z"/><path class="cls-2" d="M140.67,397.51h0.82l-0.09.95h0.05a3.53,3.53,0,0,1,2.21-1.1,1.36,1.36,0,0,1,1.49,1.57,3.59,3.59,0,0,1-.1.87l-0.81,4h-1l0.78-3.9a3.86,3.86,0,0,0,.1-0.74,0.84,0.84,0,0,0-.94-1,3.07,3.07,0,0,0-1.9,1.14l-0.9,4.47h-1Z"/><path class="cls-2" d="M147.55,398.32h-0.92l0.14-.74,1-.06,0.47-1.74h0.85l-0.35,1.74h1.6l-0.16.81h-1.62l-0.74,3.61a2.69,2.69,0,0,0,0,.47,0.68,0.68,0,0,0,.81.78,1.57,1.57,0,0,0,.66-0.2l0.22,0.72a2.89,2.89,0,0,1-1.2.29,1.31,1.31,0,0,1-1.51-1.4,5.8,5.8,0,0,1,.06-0.7Z"/><path class="cls-2" d="M92.95,235.18h1.29l3.57,6.18,1.06,2h0.06c-0.06-1-.17-2.1-0.17-3.13v-5.08H100V245H98.66l-3.55-6.19-1.06-2H94c0.06,1,.15,2,0.15,3.07V245H92.95v-9.84Z"/><path class="cls-2" d="M105.34,237.55c1.79,0,3.38,1.4,3.38,3.84s-1.59,3.81-3.37,3.81-3.37-1.4-3.37-3.81S103.55,237.55,105.34,237.55Zm0,6.63c1.26,0,2.1-1.12,2.1-2.79s-0.84-2.82-2.1-2.82-2.1,1.14-2.1,2.82S104.09,244.18,105.34,244.18Z"/><path class="cls-2" d="M110.63,237.73h1l0.1,1h0a3.43,3.43,0,0,1,2.44-1.23c1.53,0,2.22,1,2.22,2.85V245h-1.23v-4.45c0-1.37-.42-2-1.38-2a2.79,2.79,0,0,0-2,1.13V245h-1.23v-7.29Z"/><path class="cls-2" d="M120.07,245.64v2.46h-1.23V237.73h1l0.1,0.84h0a3.77,3.77,0,0,1,2.32-1c1.88,0,2.88,1.46,2.88,3.72,0,2.48-1.48,3.93-3.15,3.93a3.38,3.38,0,0,1-2-.84Zm1.79-1.47c1.2,0,2.08-1.09,2.08-2.9,0-1.6-.54-2.68-1.92-2.68a3.07,3.07,0,0,0-2,1v3.82A2.88,2.88,0,0,0,121.85,244.17Z"/><path class="cls-2" d="M127.16,237.73h1l0.1,1.32h0a2.49,2.49,0,0,1,2.07-1.5,1.81,1.81,0,0,1,.78.15l-0.24,1.08a2,2,0,0,0-.71-0.12c-0.62,0-1.35.45-1.84,1.68V245h-1.23v-7.29Z"/><path class="cls-2" d="M135.05,237.55c1.79,0,3.38,1.4,3.38,3.84s-1.59,3.81-3.37,3.81-3.37-1.4-3.37-3.81S133.27,237.55,135.05,237.55Zm0,6.63c1.26,0,2.1-1.12,2.1-2.79s-0.84-2.82-2.1-2.82-2.1,1.14-2.1,2.82S133.81,244.18,135.05,244.18Z"/><path class="cls-2" d="M143.63,235.35a2.05,2.05,0,0,0-.83-0.18c-0.69,0-1,.48-1,1.41v1.16h1.54v1h-1.54V245h-1.23v-6.28h-1v-0.93l1-.07v-1.16c0-1.48.68-2.41,2.13-2.41a3.31,3.31,0,0,1,1.21.24Z"/><path class="cls-2" d="M144.5,235.44a0.86,0.86,0,0,1,1.71,0A0.86,0.86,0,0,1,144.5,235.44Zm0.22,2.29H146V245h-1.23v-7.29Z"/><path class="cls-2" d="M148.63,238.74h-1.08v-0.93l1.14-.07,0.15-2h1v2h2v1h-2v4c0,0.9.29,1.41,1.13,1.41a2.66,2.66,0,0,0,.83-0.19l0.24,0.93a4.51,4.51,0,0,1-1.35.27c-1.56,0-2.08-1-2.08-2.43v-4Z"/><path class="cls-2" d="M159.35,237.55c1.79,0,3.38,1.4,3.38,3.84s-1.59,3.81-3.37,3.81-3.37-1.4-3.37-3.81S157.57,237.55,159.35,237.55Zm0,6.63c1.26,0,2.1-1.12,2.1-2.79s-0.84-2.82-2.1-2.82-2.1,1.14-2.1,2.82S158.11,244.18,159.35,244.18Z"/><path class="cls-2" d="M164.65,237.73h1l0.1,1.32h0a2.49,2.49,0,0,1,2.07-1.5,1.81,1.81,0,0,1,.78.15l-0.24,1.08a2,2,0,0,0-.71-0.12c-0.62,0-1.35.45-1.84,1.68V245h-1.23v-7.29Z"/><path class="cls-2" d="M170.21,244.77v-0.06a1.35,1.35,0,0,1-.65-1.19,1.71,1.71,0,0,1,.79-1.35v-0.06a2.57,2.57,0,0,1,1.8-4.56,2.91,2.91,0,0,1,1,.18h2.54v0.94h-1.5a2.11,2.11,0,0,1,.6,1.5,2.5,2.5,0,0,1-2.67,2.53,2.55,2.55,0,0,1-1.09-.25,1.1,1.1,0,0,0-.46.87c0,0.46.3,0.79,1.29,0.79h1.41c1.69,0,2.55.52,2.55,1.74s-1.42,2.52-3.69,2.52c-1.78,0-3-.71-3-2A2.1,2.1,0,0,1,170.21,244.77Zm2.13,2.76c1.39,0,2.31-.72,2.31-1.48s-0.53-.9-1.47-0.9h-1.26A3.56,3.56,0,0,1,171,245a1.53,1.53,0,0,0-.75,1.23C170.23,247,171,247.53,172.34,247.53Zm1.36-7.38a1.55,1.55,0,1,0-3.09,0A1.56,1.56,0,1,0,173.71,240.15Z"/><path class="cls-2" d="M181.15,240.4c0-.93-0.31-1.83-1.5-1.83a3.93,3.93,0,0,0-2.17.78l-0.5-.85a5.41,5.41,0,0,1,2.87-.94c1.79,0,2.54,1.19,2.54,3V245h-1l-0.1-.87h0a4,4,0,0,1-2.42,1.05,2,2,0,0,1-2.14-2.07C176.66,241.54,178,240.75,181.15,240.4Zm-2,3.81a3,3,0,0,0,2-1v-2c-2.44.3-3.27,0.9-3.27,1.83A1.12,1.12,0,0,0,179.15,244.21Z"/><path class="cls-2" d="M184.7,237.73h1l0.1,1h0a3.44,3.44,0,0,1,2.45-1.23c1.53,0,2.22,1,2.22,2.85V245h-1.23v-4.45c0-1.37-.42-2-1.38-2a2.79,2.79,0,0,0-2,1.13V245H184.7v-7.29Z"/><path class="cls-2" d="M192.68,235.44a0.86,0.86,0,0,1,1.71,0A0.86,0.86,0,0,1,192.68,235.44Zm0.22,2.29h1.23V245h-1.23v-7.29Z"/><path class="cls-2" d="M195.83,244.36l3.84-5.62h-3.42v-1h5v0.66L197.39,244h4v1h-5.52v-0.66Z"/><path class="cls-2" d="M206.75,240.4c0-.93-0.31-1.83-1.5-1.83a3.93,3.93,0,0,0-2.17.78l-0.5-.85a5.41,5.41,0,0,1,2.87-.94c1.79,0,2.54,1.19,2.54,3V245h-1l-0.1-.87h0a4,4,0,0,1-2.42,1.05,2,2,0,0,1-2.14-2.07C202.27,241.54,203.65,240.75,206.75,240.4Zm-2,3.81a3,3,0,0,0,2-1v-2c-2.44.3-3.27,0.9-3.27,1.83A1.12,1.12,0,0,0,204.76,244.21Z"/><path class="cls-2" d="M210.52,238.74h-1.08v-0.93l1.14-.07,0.15-2h1v2h2v1h-2v4c0,0.9.29,1.41,1.13,1.41a2.66,2.66,0,0,0,.83-0.19l0.24,0.93a4.51,4.51,0,0,1-1.35.27c-1.56,0-2.08-1-2.08-2.43v-4Z"/><path class="cls-2" d="M215.15,235.44a0.86,0.86,0,0,1,1.71,0A0.86,0.86,0,0,1,215.15,235.44Zm0.22,2.29h1.23V245h-1.23v-7.29Z"/><path class="cls-2" d="M221.9,237.55c1.79,0,3.38,1.4,3.38,3.84s-1.59,3.81-3.37,3.81-3.37-1.4-3.37-3.81S220.12,237.55,221.9,237.55Zm0,6.63c1.26,0,2.1-1.12,2.1-2.79s-0.84-2.82-2.1-2.82-2.1,1.14-2.1,2.82S220.66,244.18,221.9,244.18Z"/><path class="cls-2" d="M227.19,237.73h1l0.1,1h0a3.44,3.44,0,0,1,2.45-1.23c1.53,0,2.22,1,2.22,2.85V245H231.8v-4.45c0-1.37-.42-2-1.38-2a2.79,2.79,0,0,0-2,1.13V245h-1.23v-7.29Z"/><path class="cls-2" d="M235.21,243.37a3.28,3.28,0,0,0,2.14.87,1.22,1.22,0,0,0,1.44-1.14c0-.75-0.87-1.08-1.67-1.38-1-.37-2.17-0.87-2.17-2.1s0.93-2.07,2.5-2.07a3.64,3.64,0,0,1,2.26.83l-0.58.78a2.71,2.71,0,0,0-1.67-.65,1.13,1.13,0,0,0-1.33,1c0,0.68.79,0.95,1.62,1.26,1,0.39,2.22.82,2.22,2.2,0,1.19-.95,2.18-2.67,2.18a4.39,4.39,0,0,1-2.71-1Z"/><path class="cls-2" d="M248,238.74h-1.08v-0.93l1.14-.07,0.15-2h1v2h2v1h-2v4c0,0.9.29,1.41,1.13,1.41a2.66,2.66,0,0,0,.83-0.19l0.24,0.93a4.51,4.51,0,0,1-1.35.27c-1.56,0-2.08-1-2.08-2.43v-4Z"/><path class="cls-2" d="M252.82,234.34H254v2.91l0,1.5a3.48,3.48,0,0,1,2.43-1.2c1.53,0,2.22,1,2.22,2.85V245h-1.23v-4.45c0-1.37-.42-2-1.38-2a2.79,2.79,0,0,0-2,1.13V245h-1.23V234.34Z"/><path class="cls-2" d="M265.1,240.4c0-.93-0.31-1.83-1.5-1.83a3.93,3.93,0,0,0-2.17.78l-0.5-.85a5.41,5.41,0,0,1,2.87-.94c1.79,0,2.54,1.19,2.54,3V245h-1l-0.1-.87h0a4,4,0,0,1-2.42,1.05,2,2,0,0,1-2.14-2.07C260.62,241.54,262,240.75,265.1,240.4Zm-2,3.81a3,3,0,0,0,2-1v-2c-2.44.3-3.27,0.9-3.27,1.83A1.12,1.12,0,0,0,263.11,244.21Z"/><path class="cls-2" d="M268.87,238.74h-1.08v-0.93l1.14-.07,0.15-2h1v2h2v1h-2v4c0,0.9.29,1.41,1.13,1.41a2.66,2.66,0,0,0,.83-0.19l0.24,0.93a4.51,4.51,0,0,1-1.35.27c-1.56,0-2.08-1-2.08-2.43v-4Z"/><path class="cls-2" d="M276.65,237.73h1.25v4.45c0,1.37.4,2,1.36,2a2.48,2.48,0,0,0,2-1.23v-5.17h1.23V245h-1l-0.11-1.14h0a3.08,3.08,0,0,1-2.4,1.32c-1.54,0-2.23-1-2.23-2.85v-4.62Z"/><path class="cls-2" d="M284.72,243.37a3.28,3.28,0,0,0,2.14.87,1.22,1.22,0,0,0,1.44-1.14c0-.75-0.87-1.08-1.67-1.38-1-.37-2.17-0.87-2.17-2.1s0.93-2.07,2.5-2.07a3.64,3.64,0,0,1,2.26.83l-0.58.78a2.71,2.71,0,0,0-1.67-.65,1.13,1.13,0,0,0-1.33,1c0,0.68.79,0.95,1.62,1.26,1,0.39,2.22.82,2.22,2.2,0,1.19-.95,2.18-2.67,2.18a4.39,4.39,0,0,1-2.71-1Z"/><path class="cls-2" d="M293.93,237.55c1.86,0,2.91,1.33,2.91,3.42a4.43,4.43,0,0,1,0,.67h-4.92a2.43,2.43,0,0,0,2.43,2.56,3.3,3.3,0,0,0,1.81-.57l0.44,0.81a4.34,4.34,0,0,1-2.4.75,3.49,3.49,0,0,1-3.49-3.81C290.66,239,292.27,237.55,293.93,237.55Zm1.83,3.28c0-1.48-.66-2.31-1.8-2.31a2.27,2.27,0,0,0-2.1,2.31h3.9Z"/><path class="cls-2" d="M301.48,243.37a3.28,3.28,0,0,0,2.14.87,1.22,1.22,0,0,0,1.44-1.14c0-.75-0.87-1.08-1.67-1.38-1-.37-2.17-0.87-2.17-2.1s0.93-2.07,2.5-2.07a3.64,3.64,0,0,1,2.26.83l-0.58.78a2.71,2.71,0,0,0-1.67-.65,1.13,1.13,0,0,0-1.33,1c0,0.68.79,0.95,1.62,1.26,1,0.39,2.22.82,2.22,2.2,0,1.19-.95,2.18-2.67,2.18a4.39,4.39,0,0,1-2.71-1Z"/><path class="cls-2" d="M310.69,237.55c1.86,0,2.91,1.33,2.91,3.42a4.43,4.43,0,0,1,0,.67h-4.92a2.43,2.43,0,0,0,2.43,2.56,3.3,3.3,0,0,0,1.81-.57l0.44,0.81a4.34,4.34,0,0,1-2.4.75,3.49,3.49,0,0,1-3.49-3.81C307.42,239,309,237.55,310.69,237.55Zm1.83,3.28c0-1.48-.66-2.31-1.8-2.31a2.27,2.27,0,0,0-2.1,2.31h3.9Z"/><path class="cls-2" d="M315.4,237.73h1l0.1,1.32h0a2.49,2.49,0,0,1,2.07-1.5,1.81,1.81,0,0,1,.78.15l-0.24,1.08a2,2,0,0,0-.71-0.12c-0.62,0-1.35.45-1.84,1.68V245H315.4v-7.29Z"/><path class="cls-2" d="M319.84,237.73h1.28l1.38,4.14c0.21,0.72.45,1.46,0.67,2.15h0.06c0.21-.69.45-1.42,0.66-2.15l1.38-4.14h1.22L323.9,245h-1.44Z"/><path class="cls-2" d="M327.67,235.44a0.86,0.86,0,0,1,1.71,0A0.86,0.86,0,0,1,327.67,235.44Zm0.22,2.29h1.23V245h-1.23v-7.29Z"/><path class="cls-2" d="M334.55,237.55a3,3,0,0,1,2.13.87l-0.62.79a2.2,2.2,0,0,0-1.47-.65c-1.32,0-2.28,1.14-2.28,2.82s0.92,2.79,2.25,2.79a2.6,2.6,0,0,0,1.71-.73l0.55,0.81a3.61,3.61,0,0,1-2.37.95c-1.93,0-3.42-1.4-3.42-3.81A3.53,3.53,0,0,1,334.55,237.55Z"/><path class="cls-2" d="M340.84,237.55c1.86,0,2.91,1.33,2.91,3.42a4.43,4.43,0,0,1,0,.67h-4.92a2.43,2.43,0,0,0,2.43,2.56,3.3,3.3,0,0,0,1.81-.57l0.44,0.81a4.34,4.34,0,0,1-2.4.75,3.49,3.49,0,0,1-3.49-3.81C337.57,239,339.17,237.55,340.84,237.55Zm1.83,3.28c0-1.48-.66-2.31-1.8-2.31a2.27,2.27,0,0,0-2.1,2.31h3.9Z"/><path class="cls-2" d="M96,255.55a3,3,0,0,1,2,.84L98,255.15v-2.81H99.2V263h-1l-0.11-.85h0a3.29,3.29,0,0,1-2.21,1c-1.83,0-3-1.38-3-3.81S94.31,255.55,96,255.55Zm0.12,6.61a2.47,2.47,0,0,0,1.86-1v-3.81a2.54,2.54,0,0,0-1.77-.76c-1.17,0-2.1,1.13-2.1,2.79S94.82,262.17,96.1,262.17Z"/><path class="cls-2" d="M104.39,255.55c1.86,0,2.91,1.33,2.91,3.42a4.43,4.43,0,0,1,0,.67h-4.92a2.43,2.43,0,0,0,2.43,2.56,3.3,3.3,0,0,0,1.81-.57l0.44,0.81a4.34,4.34,0,0,1-2.4.75,3.49,3.49,0,0,1-3.49-3.81C101.12,257,102.73,255.55,104.39,255.55Zm1.83,3.28c0-1.48-.66-2.31-1.8-2.31a2.27,2.27,0,0,0-2.1,2.31h3.9Z"/><path class="cls-2" d="M108.91,261.37a3.28,3.28,0,0,0,2.14.87,1.22,1.22,0,0,0,1.44-1.14c0-.75-0.87-1.08-1.67-1.38-1-.37-2.17-0.87-2.17-2.1s0.93-2.07,2.5-2.07a3.64,3.64,0,0,1,2.26.83l-0.58.78a2.71,2.71,0,0,0-1.67-.65,1.13,1.13,0,0,0-1.33,1c0,0.68.79,0.95,1.62,1.26,1,0.39,2.22.82,2.22,2.2,0,1.19-.95,2.18-2.67,2.18a4.39,4.39,0,0,1-2.71-1Z"/><path class="cls-2" d="M115.16,253.44a0.86,0.86,0,0,1,1.71,0A0.86,0.86,0,0,1,115.16,253.44Zm0.22,2.29h1.23V263h-1.23v-7.29Z"/><path class="cls-2" d="M119.59,262.77v-0.06a1.35,1.35,0,0,1-.65-1.19,1.71,1.71,0,0,1,.79-1.35v-0.06a2.57,2.57,0,0,1,1.8-4.56,2.91,2.91,0,0,1,1,.18h2.54v0.94h-1.5a2.11,2.11,0,0,1,.6,1.5,2.5,2.5,0,0,1-2.67,2.53,2.55,2.55,0,0,1-1.09-.25,1.1,1.1,0,0,0-.46.87c0,0.46.3,0.79,1.29,0.79h1.41c1.69,0,2.55.52,2.55,1.74s-1.42,2.52-3.69,2.52c-1.78,0-3-.71-3-2A2.1,2.1,0,0,1,119.59,262.77Zm2.13,2.76c1.39,0,2.31-.72,2.31-1.48s-0.53-.9-1.47-0.9H121.3a3.56,3.56,0,0,1-.95-0.12,1.53,1.53,0,0,0-.75,1.23C119.6,265,120.4,265.53,121.72,265.53Zm1.36-7.38a1.55,1.55,0,1,0-3.09,0A1.56,1.56,0,1,0,123.08,258.15Z"/><path class="cls-2" d="M126.64,255.73h1l0.1,1h0a3.43,3.43,0,0,1,2.44-1.23c1.53,0,2.22,1,2.22,2.85V263h-1.23v-4.45c0-1.37-.42-2-1.38-2a2.79,2.79,0,0,0-2,1.13V263h-1.23v-7.29Z"/><path class="cls-2" d="M137.87,255.73h1l0.1,1h0a3.21,3.21,0,0,1,2.27-1.23,1.91,1.91,0,0,1,2,1.4,3.44,3.44,0,0,1,2.4-1.4c1.5,0,2.22,1,2.22,2.85V263h-1.23v-4.45c0-1.37-.43-2-1.35-2a2.67,2.67,0,0,0-1.83,1.13V263H142.3v-4.45c0-1.37-.43-2-1.36-2a2.73,2.73,0,0,0-1.83,1.13V263h-1.23v-7.29Z"/><path class="cls-2" d="M153,255.55c1.86,0,2.91,1.33,2.91,3.42a4.43,4.43,0,0,1,0,.67H151a2.43,2.43,0,0,0,2.43,2.56,3.3,3.3,0,0,0,1.81-.57l0.44,0.81a4.34,4.34,0,0,1-2.4.75,3.49,3.49,0,0,1-3.49-3.81C149.77,257,151.37,255.55,153,255.55Zm1.83,3.28c0-1.48-.66-2.31-1.8-2.31a2.27,2.27,0,0,0-2.1,2.31h3.9Z"/><path class="cls-2" d="M157.75,256.74h-1.08v-0.93l1.14-.07,0.15-2h1v2h2v1h-2v4c0,0.9.29,1.41,1.13,1.41a2.66,2.66,0,0,0,.83-0.19l0.24,0.93a4.51,4.51,0,0,1-1.35.27c-1.56,0-2.08-1-2.08-2.43v-4Z"/><path class="cls-2" d="M162.61,252.34h1.23v2.91l0,1.5a3.48,3.48,0,0,1,2.43-1.2c1.53,0,2.22,1,2.22,2.85V263h-1.23v-4.45c0-1.37-.42-2-1.38-2a2.79,2.79,0,0,0-2,1.13V263h-1.23V252.34Z"/><path class="cls-2" d="M173.6,255.55c1.79,0,3.38,1.4,3.38,3.84s-1.59,3.81-3.37,3.81-3.37-1.4-3.37-3.81S171.82,255.55,173.6,255.55Zm0,6.63c1.26,0,2.1-1.12,2.1-2.79s-0.84-2.82-2.1-2.82-2.1,1.14-2.1,2.82S172.36,262.18,173.6,262.18Z"/><path class="cls-2" d="M181.54,255.55a3,3,0,0,1,2,.84l-0.06-1.24v-2.81h1.25V263h-1l-0.11-.85h0a3.29,3.29,0,0,1-2.21,1c-1.83,0-3-1.38-3-3.81S179.87,255.55,181.54,255.55Zm0.12,6.61a2.47,2.47,0,0,0,1.86-1v-3.81a2.54,2.54,0,0,0-1.77-.76c-1.17,0-2.1,1.13-2.1,2.79S180.38,262.17,181.66,262.17Z"/><path class="cls-2" d="M190.06,255.55c1.79,0,3.38,1.4,3.38,3.84s-1.59,3.81-3.37,3.81-3.37-1.4-3.37-3.81S188.27,255.55,190.06,255.55Zm0,6.63c1.26,0,2.1-1.12,2.1-2.79s-0.84-2.82-2.1-2.82-2.1,1.14-2.1,2.82S188.81,262.18,190.06,262.18Z"/><path class="cls-2" d="M195.35,252.34h1.23v9.3c0,0.39.17,0.54,0.34,0.54a1,1,0,0,0,.27,0l0.17,0.93a1.66,1.66,0,0,1-.71.12c-0.93,0-1.31-.58-1.31-1.65v-9.21Z"/><path class="cls-2" d="M202,255.55c1.79,0,3.38,1.4,3.38,3.84s-1.59,3.81-3.37,3.81-3.37-1.4-3.37-3.81S200.23,255.55,202,255.55Zm0,6.63c1.26,0,2.1-1.12,2.1-2.79s-0.84-2.82-2.1-2.82-2.1,1.14-2.1,2.82S200.77,262.18,202,262.18Z"/><path class="cls-2" d="M207.82,262.77v-0.06a1.35,1.35,0,0,1-.65-1.19,1.71,1.71,0,0,1,.79-1.35v-0.06a2.57,2.57,0,0,1,1.8-4.56,2.91,2.91,0,0,1,1,.18h2.54v0.94h-1.5a2.11,2.11,0,0,1,.6,1.5,2.5,2.5,0,0,1-2.67,2.53,2.55,2.55,0,0,1-1.09-.25,1.1,1.1,0,0,0-.46.87c0,0.46.3,0.79,1.29,0.79h1.41c1.69,0,2.55.52,2.55,1.74s-1.42,2.52-3.69,2.52c-1.78,0-3-.71-3-2A2.1,2.1,0,0,1,207.82,262.77Zm2.13,2.76c1.39,0,2.31-.72,2.31-1.48s-0.53-.9-1.47-0.9h-1.26a3.56,3.56,0,0,1-.95-0.12,1.53,1.53,0,0,0-.75,1.23C207.83,265,208.63,265.53,209.95,265.53Zm1.36-7.38a1.55,1.55,0,1,0-3.09,0A1.56,1.56,0,1,0,211.31,258.15Z"/><path class="cls-2" d="M214.64,253.44a0.86,0.86,0,0,1,1.71,0A0.86,0.86,0,0,1,214.64,253.44Zm0.22,2.29h1.23V263h-1.23v-7.29Z"/><path class="cls-2" d="M221.28,255.55c1.86,0,2.91,1.33,2.91,3.42a4.43,4.43,0,0,1,0,.67h-4.92a2.43,2.43,0,0,0,2.43,2.56,3.3,3.3,0,0,0,1.81-.57l0.44,0.81a4.34,4.34,0,0,1-2.4.75,3.49,3.49,0,0,1-3.49-3.81C218,257,219.62,255.55,221.28,255.55Zm1.83,3.28c0-1.48-.66-2.31-1.8-2.31a2.27,2.27,0,0,0-2.1,2.31h3.9Z"/><path class="cls-2" d="M225.8,261.37a3.28,3.28,0,0,0,2.14.87,1.22,1.22,0,0,0,1.44-1.14c0-.75-0.87-1.08-1.67-1.38-1-.37-2.17-0.87-2.17-2.1s0.93-2.07,2.5-2.07a3.64,3.64,0,0,1,2.26.83l-0.58.78a2.71,2.71,0,0,0-1.67-.65,1.13,1.13,0,0,0-1.33,1c0,0.68.79,0.95,1.62,1.26,1,0.39,2.22.82,2.22,2.2,0,1.19-.95,2.18-2.67,2.18a4.39,4.39,0,0,1-2.71-1Z"/><path class="cls-2" d="M234.44,255.73h1.26l1.08,4.21c0.17,0.69.3,1.35,0.43,2h0.06c0.16-.68.31-1.35,0.49-2l1.13-4.21h1.2l1.14,4.21c0.18,0.69.35,1.35,0.51,2h0.06c0.17-.68.3-1.33,0.45-2l1.06-4.21h1.17L242.54,263H241l-1-3.92c-0.18-.69-0.32-1.36-0.5-2.1h-0.06c-0.17.73-.31,1.42-0.51,2.11l-1,3.9h-1.44Z"/><path class="cls-2" d="M248.85,255.55c1.79,0,3.38,1.4,3.38,3.84s-1.59,3.81-3.37,3.81-3.37-1.4-3.37-3.81S247.07,255.55,248.85,255.55Zm0,6.63c1.26,0,2.1-1.12,2.1-2.79s-0.84-2.82-2.1-2.82-2.1,1.14-2.1,2.82S247.61,262.18,248.85,262.18Z"/><path class="cls-2" d="M254.15,255.73h1l0.1,1.32h0a2.49,2.49,0,0,1,2.07-1.5,1.81,1.81,0,0,1,.78.15l-0.24,1.08a2,2,0,0,0-.71-0.12c-0.62,0-1.35.45-1.84,1.68V263h-1.23v-7.29Z"/><path class="cls-2" d="M259.35,252.34h1.22v7.23h0l3.1-3.84h1.37l-2.45,2.92,2.78,4.36h-1.35l-2.13-3.51-1.36,1.59V263h-1.22V252.34Z"/><path class="cls-2" d="M266.55,253.44a0.86,0.86,0,0,1,1.71,0A0.86,0.86,0,0,1,266.55,253.44Zm0.22,2.29H268V263h-1.23v-7.29Z"/><path class="cls-2" d="M270.47,255.73h1l0.1,1h0a3.44,3.44,0,0,1,2.45-1.23c1.53,0,2.22,1,2.22,2.85V263h-1.23v-4.45c0-1.37-.42-2-1.38-2a2.79,2.79,0,0,0-2,1.13V263h-1.23v-7.29Z"/><path class="cls-2" d="M279.18,262.77v-0.06a1.35,1.35,0,0,1-.65-1.19,1.71,1.71,0,0,1,.79-1.35v-0.06a2.57,2.57,0,0,1,1.8-4.56,2.91,2.91,0,0,1,1,.18h2.54v0.94h-1.5a2.11,2.11,0,0,1,.6,1.5,2.5,2.5,0,0,1-2.67,2.53,2.55,2.55,0,0,1-1.09-.25,1.1,1.1,0,0,0-.46.87c0,0.46.3,0.79,1.29,0.79h1.41c1.69,0,2.55.52,2.55,1.74s-1.42,2.52-3.69,2.52c-1.78,0-3-.71-3-2A2.1,2.1,0,0,1,279.18,262.77Zm2.13,2.76c1.39,0,2.31-.72,2.31-1.48s-0.53-.9-1.47-0.9h-1.26a3.56,3.56,0,0,1-.95-0.12,1.53,1.53,0,0,0-.75,1.23C279.2,265,280,265.53,281.31,265.53Zm1.36-7.38a1.55,1.55,0,1,0-3.09,0A1.56,1.56,0,1,0,282.68,258.15Z"/><path class="cls-2" d="M292.1,255.55c1.79,0,3.38,1.4,3.38,3.84s-1.59,3.81-3.37,3.81-3.37-1.4-3.37-3.81S290.31,255.55,292.1,255.55Zm0,6.63c1.26,0,2.1-1.12,2.1-2.79s-0.84-2.82-2.1-2.82-2.1,1.14-2.1,2.82S290.85,262.18,292.1,262.18Z"/><path class="cls-2" d="M297.39,255.73h1l0.1,1h0a3.43,3.43,0,0,1,2.44-1.23c1.53,0,2.22,1,2.22,2.85V263H302v-4.45c0-1.37-.42-2-1.38-2a2.79,2.79,0,0,0-2,1.13V263h-1.23v-7.29Z"/><path class="cls-2" d="M308.43,261.37a3.28,3.28,0,0,0,2.14.87A1.22,1.22,0,0,0,312,261.1c0-.75-0.87-1.08-1.67-1.38-1-.37-2.17-0.87-2.17-2.1s0.93-2.07,2.5-2.07a3.64,3.64,0,0,1,2.26.83l-0.58.78a2.71,2.71,0,0,0-1.67-.65,1.13,1.13,0,0,0-1.33,1c0,0.68.79,0.95,1.62,1.26,1,0.39,2.22.82,2.22,2.2,0,1.19-.95,2.18-2.67,2.18a4.39,4.39,0,0,1-2.71-1Z"/><path class="cls-2" d="M317.75,255.55c1.79,0,3.38,1.4,3.38,3.84s-1.59,3.81-3.37,3.81-3.37-1.4-3.37-3.81S316,255.55,317.75,255.55Zm0,6.63c1.26,0,2.1-1.12,2.1-2.79s-0.84-2.82-2.1-2.82-2.1,1.14-2.1,2.82S316.5,262.18,317.75,262.18Z"/><path class="cls-2" d="M326,255.55a3,3,0,0,1,2.13.87l-0.62.79a2.2,2.2,0,0,0-1.47-.65c-1.32,0-2.28,1.14-2.28,2.82s0.92,2.79,2.25,2.79a2.6,2.6,0,0,0,1.71-.73l0.55,0.81a3.61,3.61,0,0,1-2.37.95c-1.93,0-3.42-1.4-3.42-3.81A3.53,3.53,0,0,1,326,255.55Z"/><path class="cls-2" d="M329.66,253.44a0.86,0.86,0,0,1,1.71,0A0.86,0.86,0,0,1,329.66,253.44Zm0.22,2.29h1.23V263h-1.23v-7.29Z"/><path class="cls-2" d="M337.7,258.4c0-.93-0.31-1.83-1.5-1.83a3.93,3.93,0,0,0-2.17.78l-0.5-.85a5.41,5.41,0,0,1,2.87-.94c1.79,0,2.54,1.19,2.54,3V263h-1l-0.1-.87h0a4,4,0,0,1-2.42,1.05,2,2,0,0,1-2.14-2.07C333.21,259.54,334.59,258.75,337.7,258.4Zm-2,3.81a3,3,0,0,0,2-1v-2c-2.44.3-3.27,0.9-3.27,1.83A1.12,1.12,0,0,0,335.7,262.21Z"/><path class="cls-2" d="M341.25,252.34h1.23v9.3c0,0.39.17,0.54,0.34,0.54a1,1,0,0,0,.27,0l0.17,0.93a1.66,1.66,0,0,1-.71.12c-0.93,0-1.31-.58-1.31-1.65v-9.21Z"/><path class="cls-2" d="M158.22,271.44a0.86,0.86,0,0,1,1.71,0A0.86,0.86,0,0,1,158.22,271.44Zm0.22,2.29h1.23V281h-1.23v-7.29Z"/><path class="cls-2" d="M162.13,273.73h1l0.1,1h0a3.44,3.44,0,0,1,2.45-1.23c1.53,0,2.22,1,2.22,2.85V281h-1.23v-4.45c0-1.37-.42-2-1.38-2a2.79,2.79,0,0,0-2,1.13V281h-1.23v-7.29Z"/><path class="cls-2" d="M170.34,273.73h1l0.1,1h0a3.44,3.44,0,0,1,2.45-1.23c1.53,0,2.22,1,2.22,2.85V281h-1.23v-4.45c0-1.37-.42-2-1.38-2a2.79,2.79,0,0,0-2,1.13V281h-1.23v-7.29Z"/><path class="cls-2" d="M181.38,273.55c1.79,0,3.38,1.4,3.38,3.84s-1.59,3.81-3.37,3.81-3.37-1.4-3.37-3.81S179.59,273.55,181.38,273.55Zm0,6.63c1.26,0,2.1-1.12,2.1-2.79s-0.84-2.82-2.1-2.82-2.1,1.14-2.1,2.82S180.13,280.18,181.38,280.18Z"/><path class="cls-2" d="M185.56,273.73h1.28l1.38,4.14c0.21,0.72.45,1.46,0.67,2.15H189c0.21-.69.45-1.42,0.66-2.15l1.38-4.14h1.22L189.63,281h-1.44Z"/><path class="cls-2" d="M197.44,276.4c0-.93-0.31-1.83-1.5-1.83a3.93,3.93,0,0,0-2.17.78l-0.5-.85a5.41,5.41,0,0,1,2.87-.94c1.79,0,2.54,1.19,2.54,3V281h-1l-0.1-.87h0a4,4,0,0,1-2.42,1.05,2,2,0,0,1-2.14-2.07C193,277.54,194.34,276.75,197.44,276.4Zm-2,3.81a3,3,0,0,0,2-1v-2c-2.44.3-3.27,0.9-3.27,1.83A1.12,1.12,0,0,0,195.45,280.21Z"/><path class="cls-2" d="M201.21,274.74h-1.08v-0.93l1.14-.07,0.15-2h1v2h2v1h-2v4c0,0.9.29,1.41,1.13,1.41a2.66,2.66,0,0,0,.83-0.19l0.24,0.93a4.51,4.51,0,0,1-1.35.27c-1.56,0-2.08-1-2.08-2.43v-4Z"/><path class="cls-2" d="M205.84,271.44a0.86,0.86,0,0,1,1.71,0A0.86,0.86,0,0,1,205.84,271.44Zm0.22,2.29h1.23V281h-1.23v-7.29Z"/><path class="cls-2" d="M212.59,273.55c1.79,0,3.38,1.4,3.38,3.84s-1.59,3.81-3.37,3.81-3.37-1.4-3.37-3.81S210.81,273.55,212.59,273.55Zm0,6.63c1.26,0,2.1-1.12,2.1-2.79s-0.84-2.82-2.1-2.82-2.1,1.14-2.1,2.82S211.35,280.18,212.59,280.18Z"/><path class="cls-2" d="M217.89,273.73h1l0.1,1h0a3.43,3.43,0,0,1,2.44-1.23c1.53,0,2.22,1,2.22,2.85V281h-1.23v-4.45c0-1.37-.42-2-1.38-2a2.79,2.79,0,0,0-2,1.13V281h-1.23v-7.29Z"/><path class="cls-2" d="M230.35,281.64v2.46h-1.23V273.73h1l0.1,0.84h0a3.77,3.77,0,0,1,2.33-1c1.88,0,2.88,1.46,2.88,3.72,0,2.48-1.48,3.93-3.15,3.93a3.38,3.38,0,0,1-2-.84Zm1.79-1.47c1.2,0,2.08-1.09,2.08-2.9,0-1.6-.54-2.68-1.92-2.68a3.07,3.07,0,0,0-2,1v3.82A2.88,2.88,0,0,0,232.14,280.17Z"/><path class="cls-2" d="M237.45,273.73h1l0.1,1.32h0a2.49,2.49,0,0,1,2.07-1.5,1.81,1.81,0,0,1,.78.15l-0.24,1.08a2,2,0,0,0-.71-0.12c-0.62,0-1.35.45-1.84,1.68V281h-1.23v-7.29Z"/><path class="cls-2" d="M245.34,273.55c1.79,0,3.38,1.4,3.38,3.84s-1.59,3.81-3.37,3.81-3.37-1.4-3.37-3.81S243.55,273.55,245.34,273.55Zm0,6.63c1.26,0,2.1-1.12,2.1-2.79s-0.84-2.82-2.1-2.82-2.1,1.14-2.1,2.82S244.09,280.18,245.34,280.18Z"/><path class="cls-2" d="M250.65,273.73h1.23v8.11c0,1.48-.54,2.43-2,2.43a2.89,2.89,0,0,1-1.08-.19l0.25-.93a2.27,2.27,0,0,0,.69.12c0.72,0,.9-0.54.9-1.42v-8.11Zm-0.23-2.29a0.85,0.85,0,1,1,.86.79A0.81,0.81,0,0,1,250.42,271.44Z"/><path class="cls-2" d="M257.07,273.55c1.86,0,2.91,1.33,2.91,3.42a4.43,4.43,0,0,1,0,.67H255a2.43,2.43,0,0,0,2.43,2.56,3.3,3.3,0,0,0,1.81-.57l0.44,0.81a4.34,4.34,0,0,1-2.4.75,3.49,3.49,0,0,1-3.49-3.81C253.8,275,255.4,273.55,257.07,273.55Zm1.83,3.28c0-1.48-.66-2.31-1.8-2.31a2.27,2.27,0,0,0-2.1,2.31h3.9Z"/><path class="cls-2" d="M264.75,273.55a3,3,0,0,1,2.13.87l-0.62.79a2.2,2.2,0,0,0-1.47-.65c-1.32,0-2.28,1.14-2.28,2.82s0.92,2.79,2.25,2.79a2.6,2.6,0,0,0,1.71-.73l0.55,0.81a3.61,3.61,0,0,1-2.37.95c-1.93,0-3.42-1.4-3.42-3.81A3.53,3.53,0,0,1,264.75,273.55Z"/><path class="cls-2" d="M268.83,274.74h-1.08v-0.93l1.14-.07,0.15-2h1v2h2v1h-2v4c0,0.9.29,1.41,1.13,1.41A2.66,2.66,0,0,0,272,280l0.24,0.93a4.51,4.51,0,0,1-1.35.27c-1.56,0-2.08-1-2.08-2.43v-4Z"/><path class="cls-2" d="M273.49,279.37a3.28,3.28,0,0,0,2.14.87,1.22,1.22,0,0,0,1.44-1.14c0-.75-0.87-1.08-1.67-1.38-1-.37-2.17-0.87-2.17-2.1s0.93-2.07,2.5-2.07a3.64,3.64,0,0,1,2.26.83l-0.58.78a2.71,2.71,0,0,0-1.67-.65,1.13,1.13,0,0,0-1.33,1c0,0.68.79,0.95,1.62,1.26,1,0.39,2.22.82,2.22,2.2,0,1.19-.95,2.18-2.67,2.18a4.39,4.39,0,0,1-2.71-1Z"/><path class="cls-2" d="M423.27,235.18h2.46c3,0,4.65,1.76,4.65,4.88s-1.62,5-4.59,5h-2.52v-9.84Zm2.37,8.82c2.31,0,3.45-1.46,3.45-3.94s-1.14-3.85-3.45-3.85h-1.11V244h1.11Z"/><path class="cls-2" d="M435.11,237.55c1.86,0,2.91,1.33,2.91,3.42a4.43,4.43,0,0,1,0,.67h-4.92a2.43,2.43,0,0,0,2.43,2.56,3.3,3.3,0,0,0,1.81-.57l0.44,0.81a4.34,4.34,0,0,1-2.4.75,3.49,3.49,0,0,1-3.49-3.81C431.84,239,433.44,237.55,435.11,237.55Zm1.83,3.28c0-1.48-.66-2.31-1.8-2.31a2.27,2.27,0,0,0-2.1,2.31h3.9Z"/><path class="cls-2" d="M439.62,243.37a3.28,3.28,0,0,0,2.14.87,1.22,1.22,0,0,0,1.44-1.14c0-.75-0.87-1.08-1.67-1.38-1-.37-2.17-0.87-2.17-2.1s0.93-2.07,2.5-2.07a3.64,3.64,0,0,1,2.26.83l-0.58.78a2.71,2.71,0,0,0-1.67-.65,1.13,1.13,0,0,0-1.33,1c0,0.68.79,0.95,1.62,1.26,1,0.39,2.22.82,2.22,2.2,0,1.19-.95,2.18-2.67,2.18a4.39,4.39,0,0,1-2.71-1Z"/><path class="cls-2" d="M445.88,235.44a0.86,0.86,0,0,1,1.71,0A0.86,0.86,0,0,1,445.88,235.44Zm0.22,2.29h1.23V245H446.1v-7.29Z"/><path class="cls-2" d="M450.3,244.77v-0.06a1.35,1.35,0,0,1-.65-1.19,1.71,1.71,0,0,1,.79-1.35v-0.06a2.57,2.57,0,0,1,1.8-4.56,2.91,2.91,0,0,1,1,.18h2.54v0.94h-1.5a2.11,2.11,0,0,1,.6,1.5,2.5,2.5,0,0,1-2.67,2.53,2.55,2.55,0,0,1-1.09-.25,1.1,1.1,0,0,0-.46.87c0,0.46.3,0.79,1.29,0.79h1.41c1.69,0,2.55.52,2.55,1.74s-1.42,2.52-3.69,2.52c-1.78,0-3-.71-3-2A2.1,2.1,0,0,1,450.3,244.77Zm2.13,2.76c1.39,0,2.31-.72,2.31-1.48s-0.53-.9-1.47-0.9H452a3.56,3.56,0,0,1-.95-0.12,1.53,1.53,0,0,0-.75,1.23C450.32,247,451.11,247.53,452.43,247.53Zm1.36-7.38a1.55,1.55,0,1,0-3.09,0A1.56,1.56,0,1,0,453.8,240.15Z"/><path class="cls-2" d="M457.35,237.73h1l0.1,1h0a3.43,3.43,0,0,1,2.44-1.23c1.53,0,2.22,1,2.22,2.85V245H462v-4.45c0-1.37-.42-2-1.38-2a2.79,2.79,0,0,0-2,1.13V245h-1.23v-7.29Z"/><path class="cls-2" d="M471.87,235.35a2.05,2.05,0,0,0-.83-0.18c-0.69,0-1,.48-1,1.41v1.16h1.54v1H470V245H468.8v-6.28h-1v-0.93l1-.07v-1.16c0-1.48.67-2.41,2.13-2.41a3.31,3.31,0,0,1,1.21.24Z"/><path class="cls-2" d="M472.74,235.44a0.86,0.86,0,0,1,1.71,0A0.86,0.86,0,0,1,472.74,235.44Zm0.22,2.29h1.23V245H473v-7.29Z"/><path class="cls-2" d="M476.65,237.73h1l0.1,1.32h0a2.49,2.49,0,0,1,2.07-1.5,1.81,1.81,0,0,1,.78.15l-0.24,1.08a2,2,0,0,0-.71-0.12c-0.62,0-1.35.45-1.84,1.68V245h-1.23v-7.29Z"/><path class="cls-2" d="M481.86,237.73h1l0.1,1h0a3.2,3.2,0,0,1,2.26-1.23,1.91,1.91,0,0,1,2,1.4,3.44,3.44,0,0,1,2.4-1.4c1.5,0,2.22,1,2.22,2.85V245h-1.23v-4.45c0-1.37-.43-2-1.35-2a2.67,2.67,0,0,0-1.83,1.13V245h-1.23v-4.45c0-1.37-.43-2-1.36-2a2.73,2.73,0,0,0-1.83,1.13V245h-1.23v-7.29Z"/><path class="cls-2" d="M494.1,243.37a3.28,3.28,0,0,0,2.14.87,1.22,1.22,0,0,0,1.44-1.14c0-.75-0.87-1.08-1.67-1.38-1-.37-2.17-0.87-2.17-2.1s0.93-2.07,2.5-2.07a3.64,3.64,0,0,1,2.26.83l-0.58.78a2.71,2.71,0,0,0-1.67-.65,1.13,1.13,0,0,0-1.33,1c0,0.68.79,0.95,1.62,1.26,1,0.39,2.22.82,2.22,2.2,0,1.19-.95,2.18-2.67,2.18a4.39,4.39,0,0,1-2.71-1Z"/><path class="cls-2" d="M502.74,237.73H504l1.08,4.21c0.17,0.69.3,1.35,0.43,2h0.06c0.16-.68.31-1.35,0.49-2l1.13-4.21h1.2l1.14,4.21c0.18,0.69.35,1.35,0.51,2h0.06c0.17-.68.3-1.33,0.45-2l1.06-4.21h1.17L510.84,245h-1.5l-1-3.92c-0.18-.69-0.32-1.36-0.5-2.1h-0.06c-0.17.73-.31,1.42-0.51,2.11l-1,3.9h-1.44Z"/><path class="cls-2" d="M517.15,237.55c1.79,0,3.38,1.4,3.38,3.84s-1.59,3.81-3.37,3.81-3.37-1.4-3.37-3.81S515.37,237.55,517.15,237.55Zm0,6.63c1.26,0,2.1-1.12,2.1-2.79s-0.84-2.82-2.1-2.82-2.1,1.14-2.1,2.82S515.91,244.18,517.15,244.18Z"/><path class="cls-2" d="M522.45,237.73h1l0.1,1.32h0a2.49,2.49,0,0,1,2.07-1.5,1.81,1.81,0,0,1,.78.15l-0.24,1.08a2,2,0,0,0-.71-0.12c-0.62,0-1.35.45-1.84,1.68V245h-1.23v-7.29Z"/><path class="cls-2" d="M527.65,234.34h1.22v7.23h0l3.1-3.84h1.37l-2.45,2.92,2.78,4.36h-1.35l-2.13-3.51-1.36,1.59V245h-1.22V234.34Z"/><path class="cls-2" d="M534.86,235.44a0.86,0.86,0,0,1,1.71,0A0.86,0.86,0,0,1,534.86,235.44Zm0.22,2.29h1.23V245h-1.23v-7.29Z"/><path class="cls-2" d="M538.77,237.73h1l0.1,1h0a3.44,3.44,0,0,1,2.45-1.23c1.53,0,2.22,1,2.22,2.85V245h-1.23v-4.45c0-1.37-.42-2-1.38-2a2.79,2.79,0,0,0-2,1.13V245h-1.23v-7.29Z"/><path class="cls-2" d="M547.48,244.77v-0.06a1.35,1.35,0,0,1-.65-1.19,1.71,1.71,0,0,1,.79-1.35v-0.06a2.57,2.57,0,0,1,1.8-4.56,2.91,2.91,0,0,1,1,.18H553v0.94h-1.5a2.11,2.11,0,0,1,.6,1.5,2.5,2.5,0,0,1-2.67,2.53,2.55,2.55,0,0,1-1.09-.25,1.1,1.1,0,0,0-.46.87c0,0.46.3,0.79,1.29,0.79h1.41c1.69,0,2.55.52,2.55,1.74s-1.42,2.52-3.69,2.52c-1.78,0-3-.71-3-2A2.1,2.1,0,0,1,547.48,244.77Zm2.13,2.76c1.39,0,2.31-.72,2.31-1.48s-0.53-.9-1.47-0.9h-1.26a3.56,3.56,0,0,1-.95-0.12,1.53,1.53,0,0,0-.75,1.23C547.5,247,548.29,247.53,549.61,247.53Zm1.36-7.38a1.55,1.55,0,1,0-3.09,0A1.56,1.56,0,1,0,551,240.15Z"/><path class="cls-2" d="M557.56,237.73h1l0.1,1h0a3.21,3.21,0,0,1,2.27-1.23,1.91,1.91,0,0,1,2,1.4,3.44,3.44,0,0,1,2.4-1.4c1.5,0,2.22,1,2.22,2.85V245H566.4v-4.45c0-1.37-.43-2-1.35-2a2.67,2.67,0,0,0-1.83,1.13V245H562v-4.45c0-1.37-.43-2-1.36-2a2.73,2.73,0,0,0-1.83,1.13V245h-1.23v-7.29Z"/><path class="cls-2" d="M574.12,240.4c0-.93-0.31-1.83-1.5-1.83a3.93,3.93,0,0,0-2.17.78l-0.5-.85a5.41,5.41,0,0,1,2.87-.94c1.79,0,2.54,1.19,2.54,3V245h-1l-0.1-.87h0a4,4,0,0,1-2.42,1.05,2,2,0,0,1-2.14-2.07C569.64,241.54,571,240.75,574.12,240.4Zm-2,3.81a3,3,0,0,0,2-1v-2c-2.44.3-3.27,0.9-3.27,1.83A1.12,1.12,0,0,0,572.13,244.21Z"/><path class="cls-2" d="M577.45,235.44a0.86,0.86,0,0,1,1.71,0A0.86,0.86,0,0,1,577.45,235.44Zm0.22,2.29h1.23V245h-1.23v-7.29Z"/><path class="cls-2" d="M581.37,237.73h1l0.1,1h0a3.43,3.43,0,0,1,2.44-1.23c1.53,0,2.22,1,2.22,2.85V245H586v-4.45c0-1.37-.42-2-1.38-2a2.79,2.79,0,0,0-2,1.13V245h-1.23v-7.29Z"/><path class="cls-2" d="M589.57,234.34h1.23v9.3c0,0.39.17,0.54,0.34,0.54a1,1,0,0,0,.27,0l0.17,0.93a1.66,1.66,0,0,1-.71.12c-0.93,0-1.31-.58-1.31-1.65v-9.21Z"/><path class="cls-2" d="M593.46,247.14a1.87,1.87,0,0,0,1.65-1.56l0.17-.54-2.92-7.3h1.28l1.48,4c0.23,0.63.48,1.38,0.71,2.05h0.06c0.21-.66.42-1.41,0.61-2.05l1.31-4H599l-2.75,7.89c-0.51,1.44-1.26,2.53-2.73,2.53a2.42,2.42,0,0,1-.85-0.15l0.24-1A2.14,2.14,0,0,0,593.46,247.14Z"/><path class="cls-2" d="M606.27,237.55c1.79,0,3.38,1.4,3.38,3.84s-1.59,3.81-3.37,3.81-3.37-1.4-3.37-3.81S604.48,237.55,606.27,237.55Zm0,6.63c1.26,0,2.1-1.12,2.1-2.79s-0.84-2.82-2.1-2.82-2.1,1.14-2.1,2.82S605,244.18,606.27,244.18Z"/><path class="cls-2" d="M611.56,237.73h1l0.1,1h0a3.43,3.43,0,0,1,2.44-1.23c1.53,0,2.22,1,2.22,2.85V245h-1.23v-4.45c0-1.37-.42-2-1.38-2a2.79,2.79,0,0,0-2,1.13V245h-1.23v-7.29Z"/><path class="cls-2" d="M417.08,255.55a3,3,0,0,1,2.13.87l-0.62.79a2.2,2.2,0,0,0-1.47-.65c-1.32,0-2.28,1.14-2.28,2.82s0.92,2.79,2.25,2.79a2.6,2.6,0,0,0,1.71-.73l0.55,0.81a3.61,3.61,0,0,1-2.37.95c-1.93,0-3.42-1.4-3.42-3.81A3.53,3.53,0,0,1,417.08,255.55Z"/><path class="cls-2" d="M423.47,255.55c1.79,0,3.38,1.4,3.38,3.84s-1.59,3.81-3.37,3.81-3.37-1.4-3.37-3.81S421.69,255.55,423.47,255.55Zm0,6.63c1.26,0,2.1-1.12,2.1-2.79s-0.84-2.82-2.1-2.82-2.1,1.14-2.1,2.82S422.23,262.18,423.47,262.18Z"/><path class="cls-2" d="M428.77,255.73h1l0.1,1h0a3.2,3.2,0,0,1,2.26-1.23,1.91,1.91,0,0,1,2,1.4,3.44,3.44,0,0,1,2.4-1.4c1.5,0,2.22,1,2.22,2.85V263H437.6v-4.45c0-1.37-.43-2-1.35-2a2.67,2.67,0,0,0-1.83,1.13V263h-1.23v-4.45c0-1.37-.43-2-1.36-2a2.73,2.73,0,0,0-1.83,1.13V263h-1.23v-7.29Z"/><path class="cls-2" d="M441.2,255.73h1l0.1,1h0a3.2,3.2,0,0,1,2.26-1.23,1.91,1.91,0,0,1,2,1.4,3.44,3.44,0,0,1,2.4-1.4c1.5,0,2.22,1,2.22,2.85V263H450v-4.45c0-1.37-.43-2-1.35-2a2.67,2.67,0,0,0-1.83,1.13V263h-1.23v-4.45c0-1.37-.43-2-1.36-2a2.73,2.73,0,0,0-1.83,1.13V263H441.2v-7.29Z"/><path class="cls-2" d="M456.37,255.55c1.86,0,2.91,1.33,2.91,3.42a4.43,4.43,0,0,1,0,.67h-4.92a2.43,2.43,0,0,0,2.43,2.56,3.3,3.3,0,0,0,1.81-.57l0.44,0.81a4.34,4.34,0,0,1-2.4.75,3.49,3.49,0,0,1-3.49-3.81C453.1,257,454.7,255.55,456.37,255.55Zm1.83,3.28c0-1.48-.66-2.31-1.8-2.31a2.27,2.27,0,0,0-2.1,2.31h3.9Z"/><path class="cls-2" d="M461.08,255.73h1l0.1,1.32h0a2.49,2.49,0,0,1,2.07-1.5,1.81,1.81,0,0,1,.78.15l-0.24,1.08a2,2,0,0,0-.71-0.12c-0.62,0-1.35.45-1.84,1.68V263h-1.23v-7.29Z"/><path class="cls-2" d="M469.1,255.55a3,3,0,0,1,2.13.87l-0.62.79a2.2,2.2,0,0,0-1.47-.65c-1.32,0-2.28,1.14-2.28,2.82s0.92,2.79,2.25,2.79a2.6,2.6,0,0,0,1.71-.73l0.55,0.81a3.61,3.61,0,0,1-2.37.95c-1.93,0-3.42-1.4-3.42-3.81A3.53,3.53,0,0,1,469.1,255.55Z"/><path class="cls-2" d="M472.75,253.44a0.86,0.86,0,0,1,1.71,0A0.86,0.86,0,0,1,472.75,253.44Zm0.22,2.29h1.23V263H473v-7.29Z"/><path class="cls-2" d="M480.79,258.4c0-.93-0.31-1.83-1.5-1.83a3.93,3.93,0,0,0-2.17.78l-0.5-.85a5.41,5.41,0,0,1,2.87-.94c1.79,0,2.54,1.19,2.54,3V263h-1l-0.1-.87h0a4,4,0,0,1-2.42,1.05,2,2,0,0,1-2.14-2.07C476.3,259.54,477.68,258.75,480.79,258.4Zm-2,3.81a3,3,0,0,0,2-1v-2c-2.44.3-3.27,0.9-3.27,1.83A1.12,1.12,0,0,0,478.79,262.21Z"/><path class="cls-2" d="M484.34,252.34h1.23v9.3c0,0.39.17,0.54,0.34,0.54a1,1,0,0,0,.27,0l0.17,0.93a1.66,1.66,0,0,1-.71.12c-0.93,0-1.31-.58-1.31-1.65v-9.21Z"/><path class="cls-2" d="M490.33,255.73h1.26l1.08,4.21c0.17,0.69.3,1.35,0.43,2h0.06c0.17-.68.31-1.35,0.49-2l1.13-4.21H496l1.14,4.21c0.18,0.69.35,1.35,0.51,2h0.06c0.17-.68.3-1.33,0.45-2l1.06-4.21h1.17L498.43,263h-1.5l-1-3.92c-0.18-.69-0.32-1.36-0.5-2.1h-0.06c-0.17.73-.31,1.42-0.51,2.11l-1,3.9h-1.44Z"/><path class="cls-2" d="M504.74,255.55c1.79,0,3.38,1.4,3.38,3.84s-1.59,3.81-3.37,3.81-3.37-1.4-3.37-3.81S503,255.55,504.74,255.55Zm0,6.63c1.26,0,2.1-1.12,2.1-2.79s-0.84-2.82-2.1-2.82-2.1,1.14-2.1,2.82S503.5,262.18,504.74,262.18Z"/><path class="cls-2" d="M510,255.73h1l0.1,1.32h0a2.49,2.49,0,0,1,2.07-1.5,1.81,1.81,0,0,1,.78.15l-0.24,1.08a2,2,0,0,0-.71-0.12c-0.62,0-1.35.45-1.84,1.68V263H510v-7.29Z"/><path class="cls-2" d="M515.24,252.34h1.22v7.23h0l3.1-3.84H521l-2.45,2.92L521.3,263H520l-2.13-3.51-1.36,1.59V263h-1.22V252.34Z"/><path class="cls-2" d="M529.82,258.4c0-.93-0.31-1.83-1.5-1.83a3.93,3.93,0,0,0-2.17.78l-0.5-.85a5.41,5.41,0,0,1,2.87-.94c1.79,0,2.54,1.19,2.54,3V263h-1l-0.1-.87h0a4,4,0,0,1-2.42,1.05,2,2,0,0,1-2.14-2.07C525.34,259.54,526.72,258.75,529.82,258.4Zm-2,3.81a3,3,0,0,0,2-1v-2c-2.44.3-3.27,0.9-3.27,1.83A1.12,1.12,0,0,0,527.83,262.21Z"/><path class="cls-2" d="M533.38,255.73h1l0.1,1h0a3.44,3.44,0,0,1,2.45-1.23c1.53,0,2.22,1,2.22,2.85V263H538v-4.45c0-1.37-.42-2-1.38-2a2.79,2.79,0,0,0-2,1.13V263h-1.23v-7.29Z"/><path class="cls-2" d="M544.22,255.55a3,3,0,0,1,2,.84l-0.06-1.24v-2.81h1.25V263h-1l-0.11-.85h0a3.29,3.29,0,0,1-2.21,1c-1.83,0-3-1.38-3-3.81S542.56,255.55,544.22,255.55Zm0.12,6.61a2.47,2.47,0,0,0,1.86-1v-3.81a2.54,2.54,0,0,0-1.77-.76c-1.17,0-2.1,1.13-2.1,2.79S543.07,262.17,544.34,262.17Z"/><path class="cls-2" d="M555.91,255.55a3,3,0,0,1,2.13.87l-0.62.79a2.2,2.2,0,0,0-1.47-.65c-1.32,0-2.28,1.14-2.28,2.82s0.92,2.79,2.25,2.79a2.6,2.6,0,0,0,1.71-.73l0.55,0.81a3.61,3.61,0,0,1-2.37.95c-1.93,0-3.42-1.4-3.42-3.81A3.53,3.53,0,0,1,555.91,255.55Z"/><path class="cls-2" d="M563.75,258.4c0-.93-0.31-1.83-1.5-1.83a3.93,3.93,0,0,0-2.17.78l-0.5-.85a5.41,5.41,0,0,1,2.87-.94c1.79,0,2.54,1.19,2.54,3V263h-1l-0.1-.87h0a4,4,0,0,1-2.42,1.05,2,2,0,0,1-2.14-2.07C559.27,259.54,560.65,258.75,563.75,258.4Zm-2,3.81a3,3,0,0,0,2-1v-2c-2.44.3-3.27,0.9-3.27,1.83A1.12,1.12,0,0,0,561.76,262.21Z"/><path class="cls-2" d="M567.31,255.73h1l0.1,1.32h0a2.49,2.49,0,0,1,2.07-1.5,1.81,1.81,0,0,1,.78.15l-0.24,1.08a2,2,0,0,0-.71-0.12c-0.62,0-1.35.45-1.84,1.68V263h-1.23v-7.29Z"/><path class="cls-2" d="M572.51,255.73h1l0.1,1.32h0a2.49,2.49,0,0,1,2.07-1.5,1.81,1.81,0,0,1,.78.15l-0.24,1.08a2,2,0,0,0-.71-0.12c-0.62,0-1.35.45-1.84,1.68V263h-1.23v-7.29Z"/><path class="cls-2" d="M578.06,265.14a1.87,1.87,0,0,0,1.65-1.56l0.17-.54-2.92-7.3h1.28l1.48,4c0.23,0.63.48,1.38,0.71,2.05h0.06c0.21-.66.42-1.41,0.61-2.05l1.31-4h1.2l-2.75,7.89c-0.51,1.44-1.26,2.53-2.73,2.53a2.42,2.42,0,0,1-.85-0.15l0.24-1A2.14,2.14,0,0,0,578.06,265.14Z"/><path class="cls-2" d="M584.78,253.44a0.86,0.86,0,0,1,1.71,0A0.86,0.86,0,0,1,584.78,253.44Zm0.22,2.29h1.23V263H585v-7.29Z"/><path class="cls-2" d="M588.7,255.73h1l0.1,1h0a3.43,3.43,0,0,1,2.44-1.23c1.53,0,2.22,1,2.22,2.85V263H593.3v-4.45c0-1.37-.42-2-1.38-2a2.79,2.79,0,0,0-2,1.13V263H588.7v-7.29Z"/><path class="cls-2" d="M597.41,262.77v-0.06a1.35,1.35,0,0,1-.65-1.19,1.71,1.71,0,0,1,.79-1.35v-0.06a2.57,2.57,0,0,1,1.8-4.56,2.91,2.91,0,0,1,1,.18h2.54v0.94h-1.5a2.11,2.11,0,0,1,.6,1.5,2.5,2.5,0,0,1-2.67,2.53,2.55,2.55,0,0,1-1.09-.25,1.1,1.1,0,0,0-.46.87c0,0.46.3,0.79,1.29,0.79h1.41c1.69,0,2.55.52,2.55,1.74s-1.42,2.52-3.69,2.52c-1.78,0-3-.71-3-2A2.1,2.1,0,0,1,597.41,262.77Zm2.13,2.76c1.39,0,2.31-.72,2.31-1.48s-0.53-.9-1.47-0.9h-1.26a3.56,3.56,0,0,1-.95-0.12,1.53,1.53,0,0,0-.75,1.23C597.43,265,598.22,265.53,599.54,265.53Zm1.36-7.38a1.55,1.55,0,1,0-3.09,0A1.56,1.56,0,1,0,600.91,258.15Z"/><path class="cls-2" d="M610.33,255.55c1.79,0,3.38,1.4,3.38,3.84s-1.59,3.81-3.37,3.81-3.37-1.4-3.37-3.81S608.54,255.55,610.33,255.55Zm0,6.63c1.26,0,2.1-1.12,2.1-2.79s-0.84-2.82-2.1-2.82-2.1,1.14-2.1,2.82S609.08,262.18,610.33,262.18Z"/><path class="cls-2" d="M615.52,255.73h1.25v4.45c0,1.37.4,2,1.36,2a2.48,2.48,0,0,0,2-1.23v-5.17h1.23V263h-1l-0.11-1.14h0a3.08,3.08,0,0,1-2.4,1.32c-1.55,0-2.24-1-2.24-2.85v-4.62Z"/><path class="cls-2" d="M624,256.74h-1.08v-0.93l1.14-.07,0.15-2h1v2h2v1h-2v4c0,0.9.29,1.41,1.13,1.41a2.66,2.66,0,0,0,.83-0.19l0.24,0.93a4.51,4.51,0,0,1-1.35.27c-1.56,0-2.08-1-2.08-2.43v-4Z"/><path class="cls-2" d="M422.56,279.37a3.28,3.28,0,0,0,2.14.87,1.22,1.22,0,0,0,1.44-1.14c0-.75-0.87-1.08-1.67-1.38-1-.37-2.17-0.87-2.17-2.1s0.93-2.07,2.5-2.07a3.64,3.64,0,0,1,2.26.83l-0.58.78a2.71,2.71,0,0,0-1.67-.65,1.13,1.13,0,0,0-1.33,1c0,0.68.79,0.95,1.62,1.26,1,0.39,2.22.82,2.22,2.2,0,1.19-.95,2.18-2.67,2.18a4.39,4.39,0,0,1-2.71-1Z"/><path class="cls-2" d="M431.87,273.55c1.79,0,3.38,1.4,3.38,3.84s-1.59,3.81-3.37,3.81-3.37-1.4-3.37-3.81S430.09,273.55,431.87,273.55Zm0,6.63c1.26,0,2.1-1.12,2.1-2.79s-0.84-2.82-2.1-2.82-2.1,1.14-2.1,2.82S430.63,280.18,431.87,280.18Z"/><path class="cls-2" d="M440.14,273.55a3,3,0,0,1,2.13.87l-0.62.79a2.2,2.2,0,0,0-1.47-.65c-1.32,0-2.28,1.14-2.28,2.82s0.92,2.79,2.25,2.79a2.6,2.6,0,0,0,1.71-.73l0.55,0.81a3.61,3.61,0,0,1-2.37.95c-1.93,0-3.42-1.4-3.42-3.81A3.53,3.53,0,0,1,440.14,273.55Z"/><path class="cls-2" d="M443.78,271.44a0.86,0.86,0,0,1,1.71,0A0.86,0.86,0,0,1,443.78,271.44Zm0.22,2.29h1.23V281H444v-7.29Z"/><path class="cls-2" d="M451.82,276.4c0-.93-0.31-1.83-1.5-1.83a3.93,3.93,0,0,0-2.17.78l-0.5-.85a5.41,5.41,0,0,1,2.87-.94c1.79,0,2.54,1.19,2.54,3V281h-1l-0.1-.87h0a4,4,0,0,1-2.42,1.05,2,2,0,0,1-2.14-2.07C447.34,277.54,448.72,276.75,451.82,276.4Zm-2,3.81a3,3,0,0,0,2-1v-2c-2.44.3-3.27,0.9-3.27,1.83A1.12,1.12,0,0,0,449.83,280.21Z"/><path class="cls-2" d="M455.38,270.34h1.23v9.3c0,0.39.17,0.54,0.34,0.54a1,1,0,0,0,.27,0l0.17,0.93a1.66,1.66,0,0,1-.71.12c-0.93,0-1.31-.58-1.31-1.65v-9.21Z"/><path class="cls-2" d="M462,271.44a0.86,0.86,0,0,1,1.71,0A0.86,0.86,0,0,1,462,271.44Zm0.22,2.29h1.23V281h-1.23v-7.29Z"/><path class="cls-2" d="M465.92,273.73h1l0.1,1h0a3.44,3.44,0,0,1,2.45-1.23c1.53,0,2.22,1,2.22,2.85V281h-1.23v-4.45c0-1.37-.42-2-1.38-2a2.79,2.79,0,0,0-2,1.13V281h-1.23v-7.29Z"/><path class="cls-2" d="M474.13,273.73h1l0.1,1h0a3.44,3.44,0,0,1,2.45-1.23c1.53,0,2.22,1,2.22,2.85V281h-1.23v-4.45c0-1.37-.42-2-1.38-2a2.79,2.79,0,0,0-2,1.13V281h-1.23v-7.29Z"/><path class="cls-2" d="M485.17,273.55c1.79,0,3.38,1.4,3.38,3.84s-1.59,3.81-3.37,3.81-3.37-1.4-3.37-3.81S483.38,273.55,485.17,273.55Zm0,6.63c1.26,0,2.1-1.12,2.1-2.79s-0.84-2.82-2.1-2.82-2.1,1.14-2.1,2.82S483.92,280.18,485.17,280.18Z"/><path class="cls-2" d="M489.35,273.73h1.28l1.38,4.14c0.21,0.72.45,1.46,0.67,2.15h0.06c0.21-.69.45-1.42,0.66-2.15l1.38-4.14H496L493.42,281H492Z"/><path class="cls-2" d="M501.23,276.4c0-.93-0.31-1.83-1.5-1.83a3.93,3.93,0,0,0-2.17.78l-0.5-.85a5.41,5.41,0,0,1,2.87-.94c1.79,0,2.54,1.19,2.54,3V281h-1l-0.1-.87h0a4,4,0,0,1-2.42,1.05,2,2,0,0,1-2.14-2.07C496.75,277.54,498.13,276.75,501.23,276.4Zm-2,3.81a3,3,0,0,0,2-1v-2c-2.44.3-3.27,0.9-3.27,1.83A1.12,1.12,0,0,0,499.24,280.21Z"/><path class="cls-2" d="M505,274.74h-1.08v-0.93l1.14-.07,0.15-2h1v2h2v1h-2v4c0,0.9.29,1.41,1.13,1.41a2.66,2.66,0,0,0,.83-0.19l0.24,0.93a4.51,4.51,0,0,1-1.35.27c-1.56,0-2.08-1-2.08-2.43v-4Z"/><path class="cls-2" d="M509.63,271.44a0.86,0.86,0,0,1,1.71,0A0.86,0.86,0,0,1,509.63,271.44Zm0.22,2.29h1.23V281h-1.23v-7.29Z"/><path class="cls-2" d="M516.38,273.55c1.79,0,3.38,1.4,3.38,3.84s-1.59,3.81-3.37,3.81-3.37-1.4-3.37-3.81S514.6,273.55,516.38,273.55Zm0,6.63c1.26,0,2.1-1.12,2.1-2.79s-0.84-2.82-2.1-2.82-2.1,1.14-2.1,2.82S515.14,280.18,516.38,280.18Z"/><path class="cls-2" d="M521.68,273.73h1l0.1,1h0a3.43,3.43,0,0,1,2.44-1.23c1.53,0,2.22,1,2.22,2.85V281h-1.23v-4.45c0-1.37-.42-2-1.38-2a2.79,2.79,0,0,0-2,1.13V281h-1.23v-7.29Z"/><path class="cls-2" d="M534.14,281.64v2.46h-1.23V273.73h1l0.1,0.84h0a3.77,3.77,0,0,1,2.33-1c1.88,0,2.88,1.46,2.88,3.72,0,2.48-1.48,3.93-3.15,3.93a3.38,3.38,0,0,1-2-.84Zm1.79-1.47c1.2,0,2.08-1.09,2.08-2.9,0-1.6-.54-2.68-1.92-2.68a3.07,3.07,0,0,0-2,1v3.82A2.88,2.88,0,0,0,535.93,280.17Z"/><path class="cls-2" d="M541.24,273.73h1l0.1,1.32h0a2.49,2.49,0,0,1,2.07-1.5,1.81,1.81,0,0,1,.78.15L545,274.78a2,2,0,0,0-.71-0.12c-0.62,0-1.35.45-1.84,1.68V281h-1.23v-7.29Z"/><path class="cls-2" d="M549.13,273.55c1.79,0,3.38,1.4,3.38,3.84s-1.59,3.81-3.37,3.81-3.37-1.4-3.37-3.81S547.34,273.55,549.13,273.55Zm0,6.63c1.26,0,2.1-1.12,2.1-2.79s-0.84-2.82-2.1-2.82-2.1,1.14-2.1,2.82S547.88,280.18,549.13,280.18Z"/><path class="cls-2" d="M554.44,273.73h1.23v8.11c0,1.48-.54,2.43-2,2.43a2.89,2.89,0,0,1-1.08-.19l0.25-.93a2.27,2.27,0,0,0,.69.12c0.72,0,.9-0.54.9-1.42v-8.11Zm-0.23-2.29a0.85,0.85,0,1,1,.86.79A0.81,0.81,0,0,1,554.21,271.44Z"/><path class="cls-2" d="M560.86,273.55c1.86,0,2.91,1.33,2.91,3.42a4.43,4.43,0,0,1,0,.67H558.8a2.43,2.43,0,0,0,2.43,2.56,3.3,3.3,0,0,0,1.81-.57l0.44,0.81a4.34,4.34,0,0,1-2.4.75,3.49,3.49,0,0,1-3.49-3.81C557.59,275,559.19,273.55,560.86,273.55Zm1.83,3.28c0-1.48-.66-2.31-1.8-2.31a2.27,2.27,0,0,0-2.1,2.31h3.9Z"/><path class="cls-2" d="M568.54,273.55a3,3,0,0,1,2.13.87l-0.62.79a2.2,2.2,0,0,0-1.47-.65c-1.32,0-2.28,1.14-2.28,2.82s0.92,2.79,2.25,2.79a2.6,2.6,0,0,0,1.71-.73l0.55,0.81a3.61,3.61,0,0,1-2.37.95c-1.93,0-3.42-1.4-3.42-3.81A3.53,3.53,0,0,1,568.54,273.55Z"/><path class="cls-2" d="M572.62,274.74h-1.08v-0.93l1.14-.07,0.15-2h1v2h2v1h-2v4c0,0.9.29,1.41,1.13,1.41a2.66,2.66,0,0,0,.83-0.19l0.24,0.93a4.51,4.51,0,0,1-1.35.27c-1.56,0-2.08-1-2.08-2.43v-4Z"/><path class="cls-2" d="M577.28,279.37a3.28,3.28,0,0,0,2.14.87,1.22,1.22,0,0,0,1.44-1.14c0-.75-0.87-1.08-1.67-1.38-1-.37-2.17-0.87-2.17-2.1s0.93-2.07,2.5-2.07a3.64,3.64,0,0,1,2.26.83l-0.58.78a2.71,2.71,0,0,0-1.67-.65,1.13,1.13,0,0,0-1.33,1c0,0.68.79,0.95,1.62,1.26,1,0.39,2.22.82,2.22,2.2,0,1.19-.95,2.18-2.67,2.18a4.39,4.39,0,0,1-2.71-1Z"/><path class="cls-2" d="M590.92,276.4c0-.93-0.31-1.83-1.5-1.83a3.93,3.93,0,0,0-2.17.78l-0.5-.85a5.41,5.41,0,0,1,2.87-.94c1.79,0,2.54,1.19,2.54,3V281h-1l-0.1-.87h0a4,4,0,0,1-2.42,1.05,2,2,0,0,1-2.14-2.07C586.43,277.54,587.81,276.75,590.92,276.4Zm-2,3.81a3,3,0,0,0,2-1v-2c-2.44.3-3.27,0.9-3.27,1.83A1.12,1.12,0,0,0,588.92,280.21Z"/><path class="cls-2" d="M594.28,279.37a3.28,3.28,0,0,0,2.14.87,1.22,1.22,0,0,0,1.44-1.14c0-.75-0.87-1.08-1.67-1.38-1-.37-2.17-0.87-2.17-2.1s0.93-2.07,2.5-2.07a3.64,3.64,0,0,1,2.26.83l-0.58.78a2.71,2.71,0,0,0-1.67-.65,1.13,1.13,0,0,0-1.33,1c0,0.68.79,0.95,1.62,1.26,1,0.39,2.22.82,2.22,2.2,0,1.19-.95,2.18-2.67,2.18a4.39,4.39,0,0,1-2.71-1Z"/><path class="cls-2" d="M600.53,271.44a0.86,0.86,0,0,1,1.71,0A0.86,0.86,0,0,1,600.53,271.44Zm0.22,2.29H602V281h-1.23v-7.29Z"/><path class="cls-2" d="M607.09,273.55a3,3,0,0,1,2,.84l-0.06-1.24v-2.81h1.25V281h-1l-0.11-.85h0a3.29,3.29,0,0,1-2.21,1c-1.83,0-3-1.38-3-3.81S605.42,273.55,607.09,273.55Zm0.12,6.61a2.47,2.47,0,0,0,1.86-1v-3.81a2.54,2.54,0,0,0-1.77-.76c-1.17,0-2.1,1.13-2.1,2.79S605.93,280.17,607.21,280.17Z"/><path class="cls-2" d="M615.5,273.55c1.86,0,2.91,1.33,2.91,3.42a4.43,4.43,0,0,1,0,.67h-4.92a2.43,2.43,0,0,0,2.43,2.56,3.3,3.3,0,0,0,1.81-.57l0.44,0.81a4.34,4.34,0,0,1-2.4.75,3.49,3.49,0,0,1-3.49-3.81C612.23,275,613.84,273.55,615.5,273.55Zm1.83,3.28c0-1.48-.66-2.31-1.8-2.31a2.27,2.27,0,0,0-2.1,2.31h3.9Z"/><path class="cls-2" d="M746.6,235.18h2.46c3,0,4.65,1.76,4.65,4.88s-1.62,5-4.59,5H746.6v-9.84ZM749,244c2.31,0,3.45-1.46,3.45-3.94s-1.14-3.85-3.45-3.85h-1.11V244H749Z"/><path class="cls-2" d="M758.44,237.55c1.86,0,2.91,1.33,2.91,3.42a4.43,4.43,0,0,1,0,.67h-4.92a2.43,2.43,0,0,0,2.43,2.56,3.3,3.3,0,0,0,1.81-.57l0.44,0.81a4.34,4.34,0,0,1-2.4.75,3.49,3.49,0,0,1-3.49-3.81C755.17,239,756.77,237.55,758.44,237.55Zm1.83,3.28c0-1.48-.66-2.31-1.8-2.31a2.27,2.27,0,0,0-2.1,2.31h3.9Z"/><path class="cls-2" d="M763,243.37a3.28,3.28,0,0,0,2.14.87,1.22,1.22,0,0,0,1.44-1.14c0-.75-0.87-1.08-1.67-1.38-1-.37-2.17-0.87-2.17-2.1s0.93-2.07,2.5-2.07a3.64,3.64,0,0,1,2.26.83l-0.58.78a2.71,2.71,0,0,0-1.67-.65,1.13,1.13,0,0,0-1.33,1c0,0.68.79,0.95,1.62,1.26,1,0.39,2.22.82,2.22,2.2,0,1.19-.95,2.18-2.67,2.18a4.39,4.39,0,0,1-2.71-1Z"/><path class="cls-2" d="M769.21,235.44a0.86,0.86,0,0,1,1.71,0A0.86,0.86,0,0,1,769.21,235.44Zm0.22,2.29h1.23V245h-1.23v-7.29Z"/><path class="cls-2" d="M773.63,244.77v-0.06a1.35,1.35,0,0,1-.65-1.19,1.71,1.71,0,0,1,.79-1.35v-0.06a2.57,2.57,0,0,1,1.8-4.56,2.91,2.91,0,0,1,1,.18h2.54v0.94h-1.5a2.11,2.11,0,0,1,.6,1.5,2.5,2.5,0,0,1-2.67,2.53,2.55,2.55,0,0,1-1.09-.25,1.1,1.1,0,0,0-.46.87c0,0.46.3,0.79,1.29,0.79h1.41c1.69,0,2.55.52,2.55,1.74s-1.42,2.52-3.69,2.52c-1.78,0-3-.71-3-2A2.1,2.1,0,0,1,773.63,244.77Zm2.13,2.76c1.39,0,2.31-.72,2.31-1.48s-0.53-.9-1.47-0.9h-1.26a3.56,3.56,0,0,1-.95-0.12,1.53,1.53,0,0,0-.75,1.23C773.65,247,774.44,247.53,775.76,247.53Zm1.36-7.38a1.55,1.55,0,1,0-3.09,0A1.56,1.56,0,1,0,777.13,240.15Z"/><path class="cls-2" d="M780.68,237.73h1l0.1,1h0a3.44,3.44,0,0,1,2.45-1.23c1.53,0,2.22,1,2.22,2.85V245h-1.23v-4.45c0-1.37-.42-2-1.38-2a2.79,2.79,0,0,0-2,1.13V245h-1.23v-7.29Z"/><path class="cls-2" d="M795.2,235.35a2.05,2.05,0,0,0-.83-0.18c-0.69,0-1,.48-1,1.41v1.16h1.54v1h-1.54V245h-1.23v-6.28h-1v-0.93l1-.07v-1.16c0-1.48.68-2.41,2.13-2.41a3.31,3.31,0,0,1,1.21.24Z"/><path class="cls-2" d="M796.07,235.44a0.86,0.86,0,0,1,1.71,0A0.86,0.86,0,0,1,796.07,235.44Zm0.22,2.29h1.23V245H796.3v-7.29Z"/><path class="cls-2" d="M800,237.73h1l0.1,1.32h0a2.49,2.49,0,0,1,2.07-1.5,1.81,1.81,0,0,1,.78.15l-0.24,1.08a2,2,0,0,0-.71-0.12c-0.62,0-1.35.45-1.84,1.68V245H800v-7.29Z"/><path class="cls-2" d="M805.19,237.73h1l0.1,1h0a3.21,3.21,0,0,1,2.27-1.23,1.91,1.91,0,0,1,2,1.4,3.44,3.44,0,0,1,2.4-1.4c1.5,0,2.22,1,2.22,2.85V245H814v-4.45c0-1.37-.43-2-1.35-2a2.67,2.67,0,0,0-1.83,1.13V245h-1.23v-4.45c0-1.37-.43-2-1.36-2a2.73,2.73,0,0,0-1.83,1.13V245h-1.23v-7.29Z"/><path class="cls-2" d="M817.43,243.37a3.28,3.28,0,0,0,2.14.87A1.22,1.22,0,0,0,821,243.1c0-.75-0.87-1.08-1.67-1.38-1-.37-2.17-0.87-2.17-2.1s0.93-2.07,2.5-2.07a3.64,3.64,0,0,1,2.26.83l-0.58.78a2.71,2.71,0,0,0-1.67-.65,1.13,1.13,0,0,0-1.33,1c0,0.68.79,0.95,1.62,1.26,1,0.39,2.22.82,2.22,2.2,0,1.19-.95,2.18-2.67,2.18a4.39,4.39,0,0,1-2.71-1Z"/><path class="cls-2" d="M826.72,235.44a0.86,0.86,0,0,1,1.71,0A0.86,0.86,0,0,1,826.72,235.44Zm0.22,2.29h1.23V245h-1.23v-7.29Z"/><path class="cls-2" d="M830.63,237.73h1l0.1,1h0a3.44,3.44,0,0,1,2.45-1.23c1.53,0,2.22,1,2.22,2.85V245h-1.23v-4.45c0-1.37-.42-2-1.38-2a2.79,2.79,0,0,0-2,1.13V245h-1.23v-7.29Z"/><path class="cls-2" d="M841.81,237.55a3,3,0,0,1,2.13.87l-0.62.79a2.2,2.2,0,0,0-1.47-.65c-1.32,0-2.28,1.14-2.28,2.82s0.92,2.79,2.25,2.79a2.6,2.6,0,0,0,1.71-.73l0.55,0.81a3.61,3.61,0,0,1-2.37.95c-1.93,0-3.42-1.4-3.42-3.81A3.53,3.53,0,0,1,841.81,237.55Z"/><path class="cls-2" d="M845.68,234.34h1.23v9.3c0,0.39.17,0.54,0.34,0.54a1,1,0,0,0,.27,0l0.17,0.93a1.66,1.66,0,0,1-.71.12c-0.93,0-1.31-.58-1.31-1.65v-9.21Z"/><path class="cls-2" d="M849.4,237.73h1.25v4.45c0,1.37.4,2,1.36,2a2.48,2.48,0,0,0,2-1.23v-5.17h1.23V245h-1l-0.11-1.14h0a3.08,3.08,0,0,1-2.4,1.32c-1.54,0-2.23-1-2.23-2.85v-4.62Z"/><path class="cls-2" d="M860.3,237.55a3,3,0,0,1,2,.84l-0.06-1.24v-2.81h1.25V245h-1l-0.11-.85h0a3.29,3.29,0,0,1-2.21,1c-1.83,0-3-1.38-3-3.81S858.64,237.55,860.3,237.55Zm0.12,6.61a2.47,2.47,0,0,0,1.86-1v-3.81a2.54,2.54,0,0,0-1.77-.76c-1.17,0-2.1,1.13-2.1,2.79S859.15,244.17,860.42,244.17Z"/><path class="cls-2" d="M865.76,235.44a0.86,0.86,0,0,1,1.71,0A0.86,0.86,0,0,1,865.76,235.44Zm0.22,2.29h1.23V245H866v-7.29Z"/><path class="cls-2" d="M869.68,237.73h1l0.1,1h0a3.44,3.44,0,0,1,2.45-1.23c1.53,0,2.22,1,2.22,2.85V245h-1.23v-4.45c0-1.37-.42-2-1.38-2a2.79,2.79,0,0,0-2,1.13V245h-1.23v-7.29Z"/><path class="cls-2" d="M878.39,244.77v-0.06a1.35,1.35,0,0,1-.65-1.19,1.71,1.71,0,0,1,.79-1.35v-0.06a2.57,2.57,0,0,1,1.8-4.56,2.91,2.91,0,0,1,1,.18h2.54v0.94h-1.5a2.11,2.11,0,0,1,.6,1.5,2.5,2.5,0,0,1-2.67,2.53,2.55,2.55,0,0,1-1.09-.25,1.1,1.1,0,0,0-.46.87c0,0.46.3,0.79,1.29,0.79h1.41c1.69,0,2.55.52,2.55,1.74s-1.42,2.52-3.69,2.52c-1.78,0-3-.71-3-2A2.1,2.1,0,0,1,878.39,244.77Zm2.13,2.76c1.39,0,2.31-.72,2.31-1.48s-0.53-.9-1.47-0.9H880.1a3.56,3.56,0,0,1-.95-0.12,1.53,1.53,0,0,0-.75,1.23C878.41,247,879.2,247.53,880.52,247.53Zm1.36-7.38a1.55,1.55,0,1,0-3.09,0A1.56,1.56,0,1,0,881.89,240.15Z"/><path class="cls-2" d="M690.08,261.37a3.28,3.28,0,0,0,2.14.87,1.22,1.22,0,0,0,1.44-1.14c0-.75-0.87-1.08-1.67-1.38-1-.37-2.17-0.87-2.17-2.1s0.93-2.07,2.5-2.07a3.64,3.64,0,0,1,2.26.83l-0.58.78a2.71,2.71,0,0,0-1.67-.65,1.13,1.13,0,0,0-1.33,1c0,0.68.79,0.95,1.62,1.26,1,0.39,2.22.82,2.22,2.2,0,1.19-.95,2.18-2.67,2.18a4.39,4.39,0,0,1-2.71-1Z"/><path class="cls-2" d="M699.39,255.55c1.79,0,3.38,1.4,3.38,3.84s-1.59,3.81-3.37,3.81-3.37-1.4-3.37-3.81S697.61,255.55,699.39,255.55Zm0,6.63c1.26,0,2.1-1.12,2.1-2.79s-0.84-2.82-2.1-2.82-2.1,1.14-2.1,2.82S698.15,262.18,699.39,262.18Z"/><path class="cls-2" d="M707.66,255.55a3,3,0,0,1,2.13.87l-0.62.79a2.2,2.2,0,0,0-1.47-.65c-1.32,0-2.28,1.14-2.28,2.82s0.92,2.79,2.25,2.79a2.6,2.6,0,0,0,1.71-.73l0.55,0.81a3.61,3.61,0,0,1-2.37.95c-1.93,0-3.42-1.4-3.42-3.81A3.53,3.53,0,0,1,707.66,255.55Z"/><path class="cls-2" d="M711.3,253.44a0.86,0.86,0,0,1,1.71,0A0.86,0.86,0,0,1,711.3,253.44Zm0.22,2.29h1.23V263h-1.23v-7.29Z"/><path class="cls-2" d="M719.34,258.4c0-.93-0.31-1.83-1.5-1.83a3.93,3.93,0,0,0-2.17.78l-0.5-.85a5.41,5.41,0,0,1,2.87-.94c1.79,0,2.54,1.19,2.54,3V263h-1l-0.1-.87h0A4,4,0,0,1,717,263.2a2,2,0,0,1-2.14-2.07C714.86,259.54,716.24,258.75,719.34,258.4Zm-2,3.81a3,3,0,0,0,2-1v-2c-2.44.3-3.27,0.9-3.27,1.83A1.12,1.12,0,0,0,717.35,262.21Z"/><path class="cls-2" d="M722.9,252.34h1.23v9.3c0,0.39.17,0.54,0.34,0.54a1,1,0,0,0,.27,0l0.17,0.93a1.66,1.66,0,0,1-.71.12c-0.93,0-1.31-.58-1.31-1.65v-9.21Z"/><path class="cls-2" d="M729.65,252.37h0.9l-4,13h-0.92Z"/><path class="cls-2" d="M734.24,255.55c1.86,0,2.91,1.33,2.91,3.42a4.43,4.43,0,0,1,0,.67h-4.92a2.43,2.43,0,0,0,2.43,2.56,3.3,3.3,0,0,0,1.81-.57l0.44,0.81a4.34,4.34,0,0,1-2.4.75,3.49,3.49,0,0,1-3.49-3.81C731,257,732.57,255.55,734.24,255.55Zm1.83,3.28c0-1.48-.66-2.31-1.8-2.31a2.27,2.27,0,0,0-2.1,2.31h3.9Z"/><path class="cls-2" d="M738.94,255.73h1l0.1,1h0a3.44,3.44,0,0,1,2.45-1.23c1.53,0,2.22,1,2.22,2.85V263h-1.23v-4.45c0-1.37-.42-2-1.38-2a2.79,2.79,0,0,0-2,1.13V263h-1.23v-7.29Z"/><path class="cls-2" d="M746.1,255.73h1.28l1.38,4.14c0.21,0.72.45,1.46,0.67,2.15h0.06c0.21-.69.45-1.42,0.66-2.15l1.38-4.14h1.22L750.17,263h-1.44Z"/><path class="cls-2" d="M753.93,253.44a0.86,0.86,0,0,1,1.71,0A0.86,0.86,0,0,1,753.93,253.44Zm0.22,2.29h1.23V263h-1.23v-7.29Z"/><path class="cls-2" d="M757.84,255.73h1l0.1,1.32h0a2.49,2.49,0,0,1,2.07-1.5,1.81,1.81,0,0,1,.78.15l-0.24,1.08a2,2,0,0,0-.71-0.12c-0.62,0-1.35.45-1.84,1.68V263h-1.23v-7.29Z"/><path class="cls-2" d="M765.73,255.55c1.79,0,3.38,1.4,3.38,3.84s-1.59,3.81-3.37,3.81-3.37-1.4-3.37-3.81S763.95,255.55,765.73,255.55Zm0,6.63c1.26,0,2.1-1.12,2.1-2.79s-0.84-2.82-2.1-2.82-2.1,1.14-2.1,2.82S764.49,262.18,765.73,262.18Z"/><path class="cls-2" d="M771,255.73h1l0.1,1h0a3.44,3.44,0,0,1,2.45-1.23c1.53,0,2.22,1,2.22,2.85V263h-1.23v-4.45c0-1.37-.42-2-1.38-2a2.79,2.79,0,0,0-2,1.13V263H771v-7.29Z"/><path class="cls-2" d="M779.23,255.73h1l0.1,1h0a3.21,3.21,0,0,1,2.27-1.23,1.91,1.91,0,0,1,2,1.4,3.44,3.44,0,0,1,2.4-1.4c1.5,0,2.22,1,2.22,2.85V263h-1.23v-4.45c0-1.37-.43-2-1.35-2a2.67,2.67,0,0,0-1.83,1.13V263h-1.23v-4.45c0-1.37-.43-2-1.36-2a2.73,2.73,0,0,0-1.83,1.13V263h-1.23v-7.29Z"/><path class="cls-2" d="M794.4,255.55c1.86,0,2.91,1.33,2.91,3.42a4.43,4.43,0,0,1,0,.67h-4.92a2.43,2.43,0,0,0,2.43,2.56,3.3,3.3,0,0,0,1.81-.57l0.44,0.81a4.34,4.34,0,0,1-2.4.75,3.49,3.49,0,0,1-3.49-3.81C791.13,257,792.73,255.55,794.4,255.55Zm1.83,3.28c0-1.48-.66-2.31-1.8-2.31a2.27,2.27,0,0,0-2.1,2.31h3.9Z"/><path class="cls-2" d="M799.11,255.73h1l0.1,1h0a3.43,3.43,0,0,1,2.44-1.23c1.53,0,2.22,1,2.22,2.85V263h-1.23v-4.45c0-1.37-.42-2-1.38-2a2.79,2.79,0,0,0-2,1.13V263h-1.23v-7.29Z"/><path class="cls-2" d="M807.52,256.74h-1.08v-0.93l1.14-.07,0.15-2h1v2h2v1h-2v4c0,0.9.29,1.41,1.13,1.41a2.66,2.66,0,0,0,.83-0.19l0.24,0.93a4.51,4.51,0,0,1-1.35.27c-1.56,0-2.08-1-2.08-2.43v-4Z"/><path class="cls-2" d="M816.24,258.4c0-.93-0.31-1.83-1.5-1.83a3.93,3.93,0,0,0-2.17.78l-0.5-.85a5.41,5.41,0,0,1,2.87-.94c1.79,0,2.54,1.19,2.54,3V263h-1l-0.1-.87h0a4,4,0,0,1-2.42,1.05,2,2,0,0,1-2.14-2.07C811.75,259.54,813.13,258.75,816.24,258.4Zm-2,3.81a3,3,0,0,0,2-1v-2c-2.44.3-3.27,0.9-3.27,1.83A1.12,1.12,0,0,0,814.24,262.21Z"/><path class="cls-2" d="M819.79,252.34H821v9.3c0,0.39.17,0.54,0.34,0.54a1,1,0,0,0,.27,0l0.17,0.93a1.66,1.66,0,0,1-.71.12c-0.93,0-1.31-.58-1.31-1.65v-9.21Z"/><path class="cls-2" d="M826.65,255.73h1l0.1,1.32h0a2.49,2.49,0,0,1,2.07-1.5,1.81,1.81,0,0,1,.78.15l-0.24,1.08a2,2,0,0,0-.71-0.12c-0.62,0-1.35.45-1.84,1.68V263h-1.23v-7.29Z"/><path class="cls-2" d="M834.44,255.55c1.86,0,2.91,1.33,2.91,3.42a4.43,4.43,0,0,1,0,.67h-4.92a2.43,2.43,0,0,0,2.43,2.56,3.3,3.3,0,0,0,1.81-.57l0.44,0.81a4.34,4.34,0,0,1-2.4.75,3.49,3.49,0,0,1-3.49-3.81C831.17,257,832.77,255.55,834.44,255.55Zm1.83,3.28c0-1.48-.66-2.31-1.8-2.31a2.27,2.27,0,0,0-2.1,2.31h3.9Z"/><path class="cls-2" d="M842.11,255.55a3,3,0,0,1,2.13.87l-0.62.79a2.2,2.2,0,0,0-1.47-.65c-1.32,0-2.28,1.14-2.28,2.82s0.92,2.79,2.25,2.79a2.6,2.6,0,0,0,1.71-.73l0.55,0.81a3.61,3.61,0,0,1-2.37.95c-1.93,0-3.42-1.4-3.42-3.81A3.53,3.53,0,0,1,842.11,255.55Z"/><path class="cls-2" d="M848.5,255.55c1.79,0,3.38,1.4,3.38,3.84s-1.59,3.81-3.37,3.81-3.37-1.4-3.37-3.81S846.72,255.55,848.5,255.55Zm0,6.63c1.26,0,2.1-1.12,2.1-2.79s-0.84-2.82-2.1-2.82-2.1,1.14-2.1,2.82S847.26,262.18,848.5,262.18Z"/><path class="cls-2" d="M853.8,255.73h1l0.1,1h0a3.21,3.21,0,0,1,2.27-1.23,1.91,1.91,0,0,1,2,1.4,3.44,3.44,0,0,1,2.4-1.4c1.5,0,2.22,1,2.22,2.85V263h-1.23v-4.45c0-1.37-.43-2-1.35-2a2.67,2.67,0,0,0-1.83,1.13V263h-1.23v-4.45c0-1.37-.43-2-1.36-2a2.73,2.73,0,0,0-1.83,1.13V263H853.8v-7.29Z"/><path class="cls-2" d="M866.23,255.73h1l0.1,1h0a3.2,3.2,0,0,1,2.26-1.23,1.91,1.91,0,0,1,2,1.4,3.44,3.44,0,0,1,2.4-1.4c1.5,0,2.22,1,2.22,2.85V263h-1.23v-4.45c0-1.37-.43-2-1.35-2a2.67,2.67,0,0,0-1.83,1.13V263h-1.23v-4.45c0-1.37-.43-2-1.36-2a2.73,2.73,0,0,0-1.83,1.13V263h-1.23v-7.29Z"/><path class="cls-2" d="M881.4,255.55c1.86,0,2.91,1.33,2.91,3.42a4.43,4.43,0,0,1,0,.67h-4.92a2.43,2.43,0,0,0,2.43,2.56,3.3,3.3,0,0,0,1.81-.57l0.44,0.81a4.34,4.34,0,0,1-2.4.75,3.49,3.49,0,0,1-3.49-3.81C878.13,257,879.73,255.55,881.4,255.55Zm1.83,3.28c0-1.48-.66-2.31-1.8-2.31a2.27,2.27,0,0,0-2.1,2.31h3.9Z"/><path class="cls-2" d="M886.11,255.73h1l0.1,1h0a3.44,3.44,0,0,1,2.45-1.23c1.53,0,2.22,1,2.22,2.85V263h-1.23v-4.45c0-1.37-.42-2-1.38-2a2.79,2.79,0,0,0-2,1.13V263h-1.23v-7.29Z"/><path class="cls-2" d="M897,255.55a3,3,0,0,1,2,.84l-0.06-1.24v-2.81h1.25V263h-1l-0.11-.85h0a3.29,3.29,0,0,1-2.21,1c-1.83,0-3-1.38-3-3.81S895.29,255.55,897,255.55Zm0.12,6.61a2.47,2.47,0,0,0,1.86-1v-3.81a2.54,2.54,0,0,0-1.77-.76c-1.17,0-2.1,1.13-2.1,2.79S895.8,262.17,897.07,262.17Z"/><path class="cls-2" d="M906.76,258.4c0-.93-0.31-1.83-1.5-1.83a3.93,3.93,0,0,0-2.17.78l-0.5-.85a5.41,5.41,0,0,1,2.87-.94c1.79,0,2.54,1.19,2.54,3V263h-1l-0.1-.87h0a4,4,0,0,1-2.42,1.05,2,2,0,0,1-2.14-2.07C902.28,259.54,903.66,258.75,906.76,258.4Zm-2,3.81a3,3,0,0,0,2-1v-2c-2.44.3-3.27,0.9-3.27,1.83A1.12,1.12,0,0,0,904.77,262.21Z"/><path class="cls-2" d="M910.53,256.74h-1.08v-0.93l1.14-.07,0.15-2h1v2h2v1h-2v4c0,0.9.29,1.41,1.13,1.41a2.66,2.66,0,0,0,.83-0.19l0.24,0.93a4.51,4.51,0,0,1-1.35.27c-1.56,0-2.08-1-2.08-2.43v-4Z"/><path class="cls-2" d="M915.16,253.44a0.86,0.86,0,0,1,1.71,0A0.86,0.86,0,0,1,915.16,253.44Zm0.22,2.29h1.23V263h-1.23v-7.29Z"/><path class="cls-2" d="M921.91,255.55c1.79,0,3.38,1.4,3.38,3.84s-1.59,3.81-3.37,3.81-3.37-1.4-3.37-3.81S920.13,255.55,921.91,255.55Zm0,6.63c1.26,0,2.1-1.12,2.1-2.79s-0.84-2.82-2.1-2.82-2.1,1.14-2.1,2.82S920.67,262.18,921.91,262.18Z"/><path class="cls-2" d="M927.21,255.73h1l0.1,1h0a3.44,3.44,0,0,1,2.45-1.23c1.53,0,2.22,1,2.22,2.85V263h-1.23v-4.45c0-1.37-.42-2-1.38-2a2.79,2.79,0,0,0-2,1.13V263h-1.23v-7.29Z"/><path class="cls-2" d="M935.22,261.37a3.28,3.28,0,0,0,2.14.87,1.22,1.22,0,0,0,1.44-1.14c0-.75-0.87-1.08-1.67-1.38-1-.37-2.17-0.87-2.17-2.1s0.93-2.07,2.5-2.07a3.64,3.64,0,0,1,2.26.83l-0.58.78a2.71,2.71,0,0,0-1.67-.65,1.13,1.13,0,0,0-1.33,1c0,0.68.79,0.95,1.62,1.26,1,0.39,2.22.82,2.22,2.2,0,1.19-.95,2.18-2.67,2.18a4.39,4.39,0,0,1-2.71-1Z"/><path class="cls-2" d="M727.92,273.55c1.79,0,3.38,1.4,3.38,3.84s-1.59,3.81-3.37,3.81-3.37-1.4-3.37-3.81S726.14,273.55,727.92,273.55Zm0,6.63c1.26,0,2.1-1.12,2.1-2.79s-0.84-2.82-2.1-2.82-2.1,1.14-2.1,2.82S726.68,280.18,727.92,280.18Z"/><path class="cls-2" d="M733.22,273.73h1l0.1,1h0a3.43,3.43,0,0,1,2.44-1.23c1.53,0,2.22,1,2.22,2.85V281h-1.23v-4.45c0-1.37-.42-2-1.38-2a2.79,2.79,0,0,0-2,1.13V281h-1.23v-7.29Z"/><path class="cls-2" d="M747.42,273.55a3,3,0,0,1,2.13.87l-0.62.79a2.2,2.2,0,0,0-1.47-.65c-1.32,0-2.28,1.14-2.28,2.82s0.92,2.79,2.25,2.79a2.6,2.6,0,0,0,1.71-.73l0.55,0.81a3.61,3.61,0,0,1-2.37.95c-1.93,0-3.42-1.4-3.42-3.81A3.53,3.53,0,0,1,747.42,273.55Z"/><path class="cls-2" d="M753.81,273.55c1.79,0,3.38,1.4,3.38,3.84s-1.59,3.81-3.37,3.81-3.37-1.4-3.37-3.81S752,273.55,753.81,273.55Zm0,6.63c1.26,0,2.1-1.12,2.1-2.79s-0.84-2.82-2.1-2.82-2.1,1.14-2.1,2.82S752.57,280.18,753.81,280.18Z"/><path class="cls-2" d="M759.11,273.73h1l0.1,1h0a3.2,3.2,0,0,1,2.26-1.23,1.91,1.91,0,0,1,2,1.4,3.44,3.44,0,0,1,2.4-1.4c1.5,0,2.22,1,2.22,2.85V281h-1.23v-4.45c0-1.37-.43-2-1.35-2a2.67,2.67,0,0,0-1.83,1.13V281h-1.23v-4.45c0-1.37-.43-2-1.36-2a2.73,2.73,0,0,0-1.83,1.13V281h-1.23v-7.29Z"/><path class="cls-2" d="M771.54,273.73h1l0.1,1h0a3.2,3.2,0,0,1,2.26-1.23,1.91,1.91,0,0,1,2,1.4,3.44,3.44,0,0,1,2.4-1.4c1.5,0,2.22,1,2.22,2.85V281h-1.23v-4.45c0-1.37-.43-2-1.35-2a2.67,2.67,0,0,0-1.83,1.13V281H776v-4.45c0-1.37-.43-2-1.36-2a2.73,2.73,0,0,0-1.83,1.13V281h-1.23v-7.29Z"/><path class="cls-2" d="M786.71,273.55c1.86,0,2.91,1.33,2.91,3.42a4.43,4.43,0,0,1,0,.67h-4.92a2.43,2.43,0,0,0,2.43,2.56,3.3,3.3,0,0,0,1.81-.57l0.44,0.81a4.34,4.34,0,0,1-2.4.75,3.49,3.49,0,0,1-3.49-3.81C783.44,275,785,273.55,786.71,273.55Zm1.83,3.28c0-1.48-.66-2.31-1.8-2.31a2.27,2.27,0,0,0-2.1,2.31h3.9Z"/><path class="cls-2" d="M791.41,273.73h1l0.1,1.32h0a2.49,2.49,0,0,1,2.07-1.5,1.81,1.81,0,0,1,.78.15l-0.24,1.08a2,2,0,0,0-.71-0.12c-0.62,0-1.35.45-1.84,1.68V281h-1.23v-7.29Z"/><path class="cls-2" d="M799.44,273.55a3,3,0,0,1,2.13.87l-0.62.79a2.2,2.2,0,0,0-1.47-.65c-1.32,0-2.28,1.14-2.28,2.82s0.92,2.79,2.25,2.79a2.6,2.6,0,0,0,1.71-.73l0.55,0.81a3.61,3.61,0,0,1-2.37.95c-1.93,0-3.42-1.4-3.42-3.81A3.53,3.53,0,0,1,799.44,273.55Z"/><path class="cls-2" d="M803.08,271.44a0.86,0.86,0,0,1,1.71,0A0.86,0.86,0,0,1,803.08,271.44Zm0.22,2.29h1.23V281h-1.23v-7.29Z"/><path class="cls-2" d="M811.12,276.4c0-.93-0.31-1.83-1.5-1.83a3.93,3.93,0,0,0-2.17.78l-0.5-.85a5.41,5.41,0,0,1,2.87-.94c1.79,0,2.54,1.19,2.54,3V281h-1l-0.1-.87h0a4,4,0,0,1-2.42,1.05,2,2,0,0,1-2.14-2.07C806.64,277.54,808,276.75,811.12,276.4Zm-2,3.81a3,3,0,0,0,2-1v-2c-2.44.3-3.27,0.9-3.27,1.83A1.12,1.12,0,0,0,809.13,280.21Z"/><path class="cls-2" d="M814.68,270.34h1.23v9.3c0,0.39.17,0.54,0.34,0.54a1,1,0,0,0,.27,0l0.17,0.93a1.66,1.66,0,0,1-.71.12c-0.93,0-1.31-.58-1.31-1.65v-9.21Z"/><path class="cls-2" d="M820.66,273.73h1.26l1.08,4.21c0.17,0.69.3,1.35,0.43,2h0.06c0.16-.68.31-1.35,0.49-2l1.13-4.21h1.2l1.14,4.21c0.18,0.69.35,1.35,0.51,2H828c0.17-.68.3-1.33,0.45-2l1.06-4.21h1.17L828.76,281h-1.5l-1-3.92c-0.18-.69-0.32-1.36-0.5-2.1h-0.06c-0.17.73-.31,1.42-0.51,2.11l-1,3.9h-1.44Z"/><path class="cls-2" d="M835.08,273.55c1.79,0,3.38,1.4,3.38,3.84s-1.59,3.81-3.37,3.81-3.37-1.4-3.37-3.81S833.29,273.55,835.08,273.55Zm0,6.63c1.26,0,2.1-1.12,2.1-2.79s-0.84-2.82-2.1-2.82-2.1,1.14-2.1,2.82S833.83,280.18,835.08,280.18Z"/><path class="cls-2" d="M840.37,273.73h1l0.1,1.32h0a2.49,2.49,0,0,1,2.07-1.5,1.81,1.81,0,0,1,.78.15l-0.24,1.08a2,2,0,0,0-.71-0.12c-0.62,0-1.35.45-1.84,1.68V281h-1.23v-7.29Z"/><path class="cls-2" d="M845.58,270.34h1.22v7.23h0l3.1-3.84h1.37l-2.45,2.92,2.78,4.36h-1.35l-2.13-3.51-1.36,1.59V281h-1.22V270.34Z"/><path class="cls-2" d="M857.26,281.64v2.46H856V273.73h1l0.1,0.84h0a3.77,3.77,0,0,1,2.32-1c1.88,0,2.88,1.46,2.88,3.72,0,2.48-1.48,3.93-3.15,3.93a3.38,3.38,0,0,1-2-.84Zm1.79-1.47c1.2,0,2.08-1.09,2.08-2.9,0-1.6-.54-2.68-1.92-2.68a3.07,3.07,0,0,0-2,1v3.82A2.88,2.88,0,0,0,859,280.17Z"/><path class="cls-2" d="M864.36,273.73h1l0.1,1.32h0a2.49,2.49,0,0,1,2.07-1.5,1.81,1.81,0,0,1,.78.15l-0.24,1.08a2,2,0,0,0-.71-0.12c-0.62,0-1.35.45-1.84,1.68V281h-1.23v-7.29Z"/><path class="cls-2" d="M872.25,273.55c1.79,0,3.38,1.4,3.38,3.84s-1.59,3.81-3.37,3.81-3.37-1.4-3.37-3.81S870.46,273.55,872.25,273.55Zm0,6.63c1.26,0,2.1-1.12,2.1-2.79s-0.84-2.82-2.1-2.82-2.1,1.14-2.1,2.82S871,280.18,872.25,280.18Z"/><path class="cls-2" d="M877.56,273.73h1.23v8.11c0,1.48-.54,2.43-2,2.43a2.9,2.9,0,0,1-1.08-.19l0.25-.93a2.27,2.27,0,0,0,.69.12c0.72,0,.9-0.54.9-1.42v-8.11Zm-0.23-2.29a0.85,0.85,0,1,1,.86.79A0.81,0.81,0,0,1,877.33,271.44Z"/><path class="cls-2" d="M884,273.55c1.86,0,2.91,1.33,2.91,3.42a4.43,4.43,0,0,1,0,.67h-4.92a2.43,2.43,0,0,0,2.43,2.56,3.3,3.3,0,0,0,1.81-.57l0.44,0.81a4.34,4.34,0,0,1-2.4.75,3.49,3.49,0,0,1-3.49-3.81C880.71,275,882.31,273.55,884,273.55Zm1.83,3.28c0-1.48-.66-2.31-1.8-2.31a2.27,2.27,0,0,0-2.1,2.31h3.9Z"/><path class="cls-2" d="M891.66,273.55a3,3,0,0,1,2.13.87l-0.62.79a2.2,2.2,0,0,0-1.47-.65c-1.32,0-2.28,1.14-2.28,2.82s0.92,2.79,2.25,2.79a2.6,2.6,0,0,0,1.71-.73l0.55,0.81a3.61,3.61,0,0,1-2.37.95c-1.93,0-3.42-1.4-3.42-3.81A3.53,3.53,0,0,1,891.66,273.55Z"/><path class="cls-2" d="M895.74,274.74h-1.08v-0.93l1.14-.07,0.15-2h1v2h2v1h-2v4c0,0.9.29,1.41,1.13,1.41a2.66,2.66,0,0,0,.83-0.19l0.24,0.93a4.51,4.51,0,0,1-1.35.27c-1.56,0-2.08-1-2.08-2.43v-4Z"/><path class="cls-2" d="M900.4,279.37a3.28,3.28,0,0,0,2.14.87A1.22,1.22,0,0,0,904,279.1c0-.75-0.87-1.08-1.67-1.38-1-.37-2.17-0.87-2.17-2.1s0.93-2.07,2.5-2.07a3.64,3.64,0,0,1,2.26.83l-0.58.78a2.71,2.71,0,0,0-1.67-.65,1.13,1.13,0,0,0-1.33,1c0,0.68.79,0.95,1.62,1.26,1,0.39,2.22.82,2.22,2.2,0,1.19-.95,2.18-2.67,2.18a4.39,4.39,0,0,1-2.71-1Z"/><path class="cls-3" d="M170.52,169.78A12.47,12.47,0,1,1,183,157.31,12.48,12.48,0,0,1,170.52,169.78Zm0-23.32a10.86,10.86,0,1,0,10.86,10.85A10.87,10.87,0,0,0,170.52,146.46Z"/><path class="cls-3" d="M548.22,144.84a12.47,12.47,0,1,1-12.47,12.47A12.48,12.48,0,0,1,548.22,144.84Zm0,23.32a10.86,10.86,0,1,0-10.86-10.85A10.87,10.87,0,0,0,548.22,168.17Z"/><circle class="cls-4" cx="446.03" cy="157.31" r="49.89"/><circle class="cls-1" cx="894.18" cy="157.31" r="20.45"/><path class="cls-3" d="M774.61,169.78a12.47,12.47,0,1,1,12.47-12.47A12.48,12.48,0,0,1,774.61,169.78Zm0-23.32a10.86,10.86,0,1,0,10.86,10.85A10.87,10.87,0,0,0,774.61,146.46Z"/><circle class="cls-4" cx="871.51" cy="157.31" r="49.89"/><rect class="cls-5" x="24.88" y="355.5" width="18.61" height="1.51"/><line class="cls-6" x1="43.49" y1="399.87" x2="24.88" y2="399.87"/><path class="cls-2" d="M56.44,380a2,2,0,0,0,1.63.92,1.24,1.24,0,0,0,1.34-1.05c0-.46-0.27-0.71-1.16-1.2s-1.44-1-1.44-1.73A2,2,0,0,1,59,375.07a2.53,2.53,0,0,1,1.86.84l-0.57.56a1.76,1.76,0,0,0-1.31-.62,1.11,1.11,0,0,0-1.2,1A1.57,1.57,0,0,0,58.87,378c1.13,0.62,1.48,1.1,1.48,1.79a2.09,2.09,0,0,1-2.37,2,2.77,2.77,0,0,1-2.17-1.2Z"/><path class="cls-2" d="M61.6,379.17c0-2.39,1.68-4.1,3.41-4.1a2.25,2.25,0,0,1,2.26,2.54c0,2.39-1.69,4.1-3.42,4.1A2.24,2.24,0,0,1,61.6,379.17Zm1-.07c0,1.14.48,1.77,1.35,1.77,1.17,0,2.3-1.43,2.3-3.2,0-1.14-.48-1.78-1.35-1.78C63.75,375.89,62.61,377.34,62.61,379.1Z"/><path class="cls-2" d="M71.8,375.07a2.08,2.08,0,0,1,1.64.77l-0.58.62a1.32,1.32,0,0,0-1.12-.57c-1.26,0-2.44,1.48-2.44,3.21,0,1.14.49,1.77,1.5,1.77a2.3,2.3,0,0,0,1.4-.56L72.63,381a3.22,3.22,0,0,1-2,.74,2.27,2.27,0,0,1-2.33-2.54A3.86,3.86,0,0,1,71.8,375.07Z"/><path class="cls-2" d="M75.11,375.23h1l-1.27,6.32h-1Zm0.21-1.9a0.75,0.75,0,0,1,.75-0.75,0.6,0.6,0,0,1,.64.6,0.74,0.74,0,0,1-.75.74A0.59,0.59,0,0,1,75.32,373.33Z"/><path class="cls-2" d="M80.45,375.07A1.69,1.69,0,0,1,82,376H82l0.25-.79h0.81l-1.26,6.32H81l0.1-.94H81.05a3.15,3.15,0,0,1-2.2,1.09c-1.11,0-1.82-.81-1.82-2.29C77,377,78.7,375.07,80.45,375.07Zm0.75,4.59,0.57-2.82a1.49,1.49,0,0,0-1.29-.94c-1.26,0-2.43,1.61-2.43,3.35,0,1.09.46,1.61,1.16,1.61A2.61,2.61,0,0,0,81.21,379.66Z"/><path class="cls-2" d="M85.76,372.29h1l-1.62,8.1a1.09,1.09,0,0,0,0,.25,0.21,0.21,0,0,0,.22.23,0.54,0.54,0,0,0,.21,0v0.77a1.63,1.63,0,0,1-.62.1,0.75,0.75,0,0,1-.84-0.82,2.44,2.44,0,0,1,.08-0.55Z"/><path class="cls-2" d="M91.44,372.32h0.73l-5.66,11.31H85.8Z"/><path class="cls-2" d="M94.75,375.07c1.42,0,2,1,2,2.29a4.12,4.12,0,0,1-.22,1.23H92.38c-0.23,1.63.61,2.31,1.72,2.31a2.52,2.52,0,0,0,1.42-.55L95.9,381a3.54,3.54,0,0,1-2,.68,2.37,2.37,0,0,1-2.48-2.64A3.76,3.76,0,0,1,94.75,375.07Zm1,2.85a3.34,3.34,0,0,0,.06-0.65,1.22,1.22,0,0,0-1.22-1.4,2.47,2.47,0,0,0-2.16,2.05h3.32Z"/><path class="cls-2" d="M98.8,375.23h0.82l-0.09.95h0.05a3.53,3.53,0,0,1,2.21-1.1,1.36,1.36,0,0,1,1.49,1.57,3.59,3.59,0,0,1-.1.87l-0.81,4h-1l0.78-3.9a3.86,3.86,0,0,0,.1-0.74,0.84,0.84,0,0,0-.94-1,3.07,3.07,0,0,0-1.9,1.14l-0.9,4.47h-1Z"/><path class="cls-2" d="M104.74,375.23h1l0.47,3.65c0.07,0.61.12,1.27,0.18,1.88h0.05c0.3-.62.61-1.26,0.94-1.88l1.86-3.65h1l-3.37,6.32h-1.2Z"/><path class="cls-2" d="M111.46,375.23h1l-1.27,6.32h-1Zm0.21-1.9a0.75,0.75,0,0,1,.75-0.75,0.6,0.6,0,0,1,.64.6,0.74,0.74,0,0,1-.75.74A0.59,0.59,0,0,1,111.67,373.33Z"/><path class="cls-2" d="M114.53,375.23h0.82l-0.14,1.21h0.05a2.56,2.56,0,0,1,2-1.36,1.45,1.45,0,0,1,.6.12l-0.35.88a1.23,1.23,0,0,0-.55-0.1,2.46,2.46,0,0,0-1.86,1.59l-0.79,4h-1Z"/><path class="cls-2" d="M117.7,379.17c0-2.39,1.68-4.1,3.41-4.1a2.25,2.25,0,0,1,2.26,2.54c0,2.39-1.69,4.1-3.42,4.1A2.24,2.24,0,0,1,117.7,379.17Zm1-.07c0,1.14.48,1.77,1.35,1.77,1.17,0,2.3-1.43,2.3-3.2,0-1.14-.48-1.78-1.35-1.78C119.85,375.89,118.7,377.34,118.7,379.1Z"/><path class="cls-2" d="M125.54,375.23h0.82l-0.09.95h0.05a3.53,3.53,0,0,1,2.21-1.1,1.36,1.36,0,0,1,1.49,1.57,3.59,3.59,0,0,1-.1.87l-0.81,4h-1l0.78-3.9a3.86,3.86,0,0,0,.1-0.74,0.84,0.84,0,0,0-.94-1,3.07,3.07,0,0,0-1.9,1.14l-0.9,4.47h-1Z"/><path class="cls-2" d="M132.36,375.23h0.82l-0.09.95h0.05a3.43,3.43,0,0,1,2.08-1.1,1.29,1.29,0,0,1,1.46,1.23,3.69,3.69,0,0,1,2.24-1.23,1.36,1.36,0,0,1,1.5,1.57,4.43,4.43,0,0,1-.1.87l-0.81,4h-1l0.79-3.9a3.8,3.8,0,0,0,.1-0.74,0.84,0.84,0,0,0-.92-1,3.14,3.14,0,0,0-1.78,1.14l-0.9,4.47h-1l0.78-3.9a3.8,3.8,0,0,0,.1-0.74,0.83,0.83,0,0,0-.91-1,3.06,3.06,0,0,0-1.78,1.14l-0.9,4.47h-1Z"/><path class="cls-2" d="M145,375.07c1.42,0,2,1,2,2.29a4.12,4.12,0,0,1-.22,1.23h-4.11c-0.23,1.63.61,2.31,1.72,2.31a2.52,2.52,0,0,0,1.42-.55l0.39,0.66a3.54,3.54,0,0,1-2,.68,2.37,2.37,0,0,1-2.48-2.64A3.76,3.76,0,0,1,145,375.07Zm1,2.85a3.34,3.34,0,0,0,.06-0.65,1.22,1.22,0,0,0-1.22-1.4,2.47,2.47,0,0,0-2.16,2.05H146Z"/><path class="cls-2" d="M149,375.23h0.82l-0.09.95h0.05a3.53,3.53,0,0,1,2.21-1.1,1.36,1.36,0,0,1,1.49,1.57,3.59,3.59,0,0,1-.1.87l-0.81,4h-1l0.78-3.9a3.86,3.86,0,0,0,.1-0.74,0.84,0.84,0,0,0-.94-1,3.07,3.07,0,0,0-1.9,1.14l-0.9,4.47h-1Z"/><path class="cls-2" d="M155.88,376H155l0.14-.74,1-.06,0.47-1.74h0.85l-0.35,1.74h1.6l-0.16.81h-1.62l-0.74,3.61a2.69,2.69,0,0,0,0,.47,0.68,0.68,0,0,0,.81.78,1.57,1.57,0,0,0,.66-0.2l0.22,0.72a2.89,2.89,0,0,1-1.2.29,1.31,1.31,0,0,1-1.51-1.4,5.8,5.8,0,0,1,.06-0.7Z"/><path class="cls-2" d="M162.19,375.07a1.69,1.69,0,0,1,1.52.95h0.05l0.25-.79h0.81l-1.26,6.32h-0.82l0.1-.94h-0.05a3.15,3.15,0,0,1-2.2,1.09c-1.11,0-1.82-.81-1.82-2.29C158.77,377,160.43,375.07,162.19,375.07Zm0.75,4.59,0.57-2.82a1.48,1.48,0,0,0-1.29-.94c-1.26,0-2.43,1.61-2.43,3.35,0,1.09.46,1.61,1.16,1.61A2.6,2.6,0,0,0,162.94,379.66Z"/><path class="cls-2" d="M167.49,372.29h1l-1.62,8.1a1.09,1.09,0,0,0,0,.25,0.21,0.21,0,0,0,.22.23,0.54,0.54,0,0,0,.21,0v0.77a1.63,1.63,0,0,1-.62.1,0.75,0.75,0,0,1-.84-0.82,2.44,2.44,0,0,1,.08-0.55Z"/><path class="cls-2" d="M172.62,375.23h1l-1.27,6.32h-1Zm0.21-1.9a0.75,0.75,0,0,1,.75-0.75,0.6,0.6,0,0,1,.64.6,0.74,0.74,0,0,1-.75.74A0.59,0.59,0,0,1,172.83,373.33Z"/><path class="cls-2" d="M175.69,375.23h0.82l-0.09.95h0.05a3.43,3.43,0,0,1,2.08-1.1,1.29,1.29,0,0,1,1.46,1.23,3.69,3.69,0,0,1,2.24-1.23,1.36,1.36,0,0,1,1.5,1.57,4.43,4.43,0,0,1-.1.87l-0.81,4h-1l0.79-3.9a3.8,3.8,0,0,0,.1-0.74,0.84,0.84,0,0,0-.92-1,3.14,3.14,0,0,0-1.78,1.14l-0.9,4.47h-1l0.78-3.9a3.8,3.8,0,0,0,.1-0.74,0.83,0.83,0,0,0-.91-1,3.06,3.06,0,0,0-1.78,1.14l-0.9,4.47h-1Z"/><path class="cls-2" d="M185.69,382.15l-0.4,2.07h-1l1.79-9h0.82l-0.08.83h0a3.58,3.58,0,0,1,2.18-1c1.11,0,1.82.82,1.82,2.29,0,2.43-1.66,4.34-3.41,4.34a1.78,1.78,0,0,1-1.52-.91h0Zm1.05-5.2-0.6,3a1.45,1.45,0,0,0,1.29.91c1.26,0,2.42-1.61,2.42-3.37,0-1.07-.44-1.6-1.16-1.6A2.94,2.94,0,0,0,186.74,376.95Z"/><path class="cls-2" d="M195.31,375.07a1.69,1.69,0,0,1,1.52.95h0.05l0.25-.79h0.81l-1.26,6.32h-0.82l0.1-.94h-0.05a3.15,3.15,0,0,1-2.2,1.09c-1.11,0-1.82-.81-1.82-2.29C191.89,377,193.55,375.07,195.31,375.07Zm0.75,4.59,0.57-2.82a1.48,1.48,0,0,0-1.29-.94c-1.26,0-2.43,1.61-2.43,3.35,0,1.09.46,1.61,1.16,1.61A2.6,2.6,0,0,0,196.06,379.66Z"/><path class="cls-2" d="M202.37,375.07a2.08,2.08,0,0,1,1.64.77l-0.58.62a1.32,1.32,0,0,0-1.12-.57c-1.26,0-2.44,1.48-2.44,3.21,0,1.14.49,1.77,1.5,1.77a2.3,2.3,0,0,0,1.4-.56L203.2,381a3.22,3.22,0,0,1-2,.74,2.27,2.27,0,0,1-2.33-2.54A3.86,3.86,0,0,1,202.37,375.07Z"/><path class="cls-2" d="M205.72,376H204.8l0.14-.74,1-.06,0.47-1.74h0.84l-0.35,1.74h1.6l-0.16.81h-1.62L206,379.65a2.69,2.69,0,0,0,0,.47,0.68,0.68,0,0,0,.81.78,1.57,1.57,0,0,0,.66-0.2l0.22,0.72a2.89,2.89,0,0,1-1.2.29,1.31,1.31,0,0,1-1.51-1.4,6,6,0,0,1,.06-0.7Z"/><line class="cls-7" x1="43.49" y1="377.59" x2="24.88" y2="377.59"/><polygon class="cls-2" points="802.72 160.57 802.18 159.97 805.14 157.31 802.27 154.56 802.83 153.97 806.32 157.33 802.72 160.57"/><polygon class="cls-2" points="199.1 160.57 198.56 159.97 201.51 157.31 198.64 154.56 199.2 153.97 202.7 157.33 199.1 160.57"/><polygon class="cls-2" points="519.15 154.05 519.69 154.65 516.73 157.31 519.6 160.06 519.04 160.65 515.55 157.29 519.15 154.05"/><polygon class="cls-2" points="577.28 160.57 576.74 159.97 579.7 157.31 576.83 154.56 577.39 153.97 580.88 157.33 577.28 160.57"/><path class="cls-2" d="M220.1,86.72h2.07v-5.5h-1.79V79.85a6.63,6.63,0,0,0,2.37-.87h1.62v7.74h1.78V88.5H220.1V86.72Z"/><path class="cls-2" d="M522.64,87.24c2.43-2.29,4.14-3.93,4.14-5.28a1.28,1.28,0,0,0-1.35-1.44,2.43,2.43,0,0,0-1.69,1l-1.2-1.18a4,4,0,0,1,3.19-1.52,2.92,2.92,0,0,1,3.15,3c0,1.6-1.5,3.31-3,4.94a14.7,14.7,0,0,1,1.59-.12h1.92V88.5h-6.71V87.24Z"/><path class="cls-2" d="M812.15,85.94a3,3,0,0,0,2.08,1c0.93,0,1.54-.4,1.54-1.12s-0.5-1.36-2.56-1.36V82.85c1.71,0,2.25-.51,2.25-1.27a1,1,0,0,0-1.17-1,2.65,2.65,0,0,0-1.79.84L811.4,80a4.47,4.47,0,0,1,3-1.21c2,0,3.29.94,3.29,2.61a2.24,2.24,0,0,1-1.59,2.11v0.06A2.36,2.36,0,0,1,818,85.91c0,1.77-1.62,2.77-3.54,2.77a4.14,4.14,0,0,1-3.31-1.35Z"/></svg>