<svg id="Layer_1" data-name="Layer 1" xmlns="http://www.w3.org/2000/svg" viewBox="0 0 353.69 874.32"><defs><style>.cls-1{fill:#231f20;}.cls-2,.cls-3,.cls-4,.cls-6,.cls-7{fill:none;stroke-miterlimit:10;}.cls-2,.cls-6{stroke:#2b388f;}.cls-2{stroke-width:0.75px;}.cls-3,.cls-7{stroke:#7daada;}.cls-3{stroke-width:1.56px;stroke-dasharray:1.56 1.56;}.cls-4{stroke:#b2cfe4;stroke-width:2px;}.cls-5{fill:#b2cfe4;}.cls-6{stroke-width:0.8px;}.cls-7{stroke-width:1.67px;stroke-dasharray:1.67 1.67;}</style></defs><title>thesis_final_website</title><path class="cls-1" d="M65.9,835.91l0.49-2.47h1l-1.87,9.26H64.71l0.1-.94H64.76a3.15,3.15,0,0,1-2.2,1.09c-1.11,0-1.82-.81-1.82-2.29,0-2.43,1.66-4.34,3.42-4.34a1.67,1.67,0,0,1,1.5.92h0Zm-1,4.9L65.49,838A1.48,1.48,0,0,0,64.2,837c-1.26,0-2.43,1.61-2.43,3.35,0,1.09.46,1.61,1.16,1.61A2.63,2.63,0,0,0,64.91,840.81Z"/><path class="cls-1" d="M71,836.22c1.42,0,2,1,2,2.29a4.12,4.12,0,0,1-.22,1.23H68.67c-0.23,1.63.61,2.31,1.72,2.31a2.52,2.52,0,0,0,1.42-.55l0.39,0.66a3.54,3.54,0,0,1-2,.68,2.37,2.37,0,0,1-2.48-2.64A3.76,3.76,0,0,1,71,836.22Zm1,2.85a3.34,3.34,0,0,0,.06-0.65,1.22,1.22,0,0,0-1.22-1.4,2.47,2.47,0,0,0-2.16,2.05h3.32Z"/><path class="cls-1" d="M74,841.16a2,2,0,0,0,1.63.92A1.24,1.24,0,0,0,77,841c0-.46-0.27-0.71-1.16-1.2s-1.44-1-1.44-1.73a2,2,0,0,1,2.17-1.88,2.53,2.53,0,0,1,1.86.84l-0.57.56a1.77,1.77,0,0,0-1.31-.62,1.11,1.11,0,0,0-1.2,1,1.57,1.57,0,0,0,1.12,1.12c1.13,0.62,1.48,1.1,1.48,1.79a2.09,2.09,0,0,1-2.37,2,2.77,2.77,0,0,1-2.17-1.2Z"/><path class="cls-1" d="M80.33,836.37h1l-1.27,6.32h-1Zm0.21-1.9a0.75,0.75,0,0,1,.75-0.75,0.6,0.6,0,0,1,.64.6,0.74,0.74,0,0,1-.75.74A0.59,0.59,0,0,1,80.54,834.48Z"/><path class="cls-1" d="M88.22,836.37L86.9,843a2.89,2.89,0,0,1-3,2.61,3.48,3.48,0,0,1-2.21-.87l0.47-.69a2.74,2.74,0,0,0,1.78.75,2.06,2.06,0,0,0,2-1.88l0.31-1.3h0a3.15,3.15,0,0,1-2.15,1c-1.07,0-1.83-.75-1.83-2.22,0-2.31,1.64-4.19,3.34-4.19a1.71,1.71,0,0,1,1.52.95h0l0.25-.79h0.82Zm-1.86,4.32,0.56-2.7a1.51,1.51,0,0,0-1.29-.94c-1.22,0-2.35,1.56-2.35,3.21,0,1,.43,1.53,1.13,1.53A2.73,2.73,0,0,0,86.36,840.69Z"/><path class="cls-1" d="M90.3,836.37h0.82l-0.09.95h0.05a3.53,3.53,0,0,1,2.21-1.1,1.36,1.36,0,0,1,1.5,1.57,3.6,3.6,0,0,1-.1.87l-0.81,4h-1l0.78-3.9a3.86,3.86,0,0,0,.1-0.74,0.84,0.84,0,0,0-.94-1,3.07,3.07,0,0,0-1.9,1.14L90,842.69h-1Z"/><path class="cls-1" d="M99.68,837.18H98.75l0.14-.74,1-.06,0.47-1.74h0.84l-0.35,1.74h1.6l-0.16.81h-1.62l-0.74,3.61a2.69,2.69,0,0,0,0,.47,0.68,0.68,0,0,0,.81.78,1.57,1.57,0,0,0,.66-0.2l0.22,0.72a2.89,2.89,0,0,1-1.2.29,1.31,1.31,0,0,1-1.51-1.4,6,6,0,0,1,.06-0.7Z"/><path class="cls-1" d="M105.92,836.22c1.42,0,2,1,2,2.29a4.12,4.12,0,0,1-.22,1.23h-4.11c-0.23,1.63.61,2.31,1.72,2.31a2.52,2.52,0,0,0,1.42-.55l0.39,0.66a3.54,3.54,0,0,1-2,.68,2.37,2.37,0,0,1-2.48-2.64A3.76,3.76,0,0,1,105.92,836.22Zm1,2.85a3.34,3.34,0,0,0,.06-0.65,1.22,1.22,0,0,0-1.22-1.4,2.47,2.47,0,0,0-2.16,2.05H107Z"/><path class="cls-1" d="M112.23,836.22a1.69,1.69,0,0,1,1.52.95h0.05l0.25-.79h0.81l-1.26,6.32h-0.82l0.1-.94h-0.05a3.15,3.15,0,0,1-2.2,1.09c-1.11,0-1.82-.81-1.82-2.29C108.81,838.13,110.48,836.22,112.23,836.22Zm0.75,4.59,0.57-2.82a1.48,1.48,0,0,0-1.29-.94c-1.26,0-2.43,1.61-2.43,3.35,0,1.09.46,1.61,1.16,1.61A2.6,2.6,0,0,0,113,840.81Z"/><path class="cls-1" d="M116.94,836.37h0.82l-0.09.95h0.05a3.43,3.43,0,0,1,2.08-1.1,1.29,1.29,0,0,1,1.46,1.23,3.69,3.69,0,0,1,2.24-1.23,1.36,1.36,0,0,1,1.5,1.57,4.43,4.43,0,0,1-.1.87l-0.81,4h-1l0.79-3.9a3.8,3.8,0,0,0,.1-0.74,0.84,0.84,0,0,0-.92-1,3.14,3.14,0,0,0-1.78,1.14l-0.9,4.47h-1l0.78-3.9a3.8,3.8,0,0,0,.1-0.74,0.83,0.83,0,0,0-.91-1,3.06,3.06,0,0,0-1.78,1.14l-0.9,4.47h-1Z"/><path class="cls-1" d="M222.67,836.22a2.08,2.08,0,0,1,1.64.77l-0.58.62a1.32,1.32,0,0,0-1.12-.57c-1.26,0-2.44,1.48-2.44,3.21,0,1.14.49,1.77,1.5,1.77a2.3,2.3,0,0,0,1.4-.56l0.44,0.65a3.22,3.22,0,0,1-2,.74,2.27,2.27,0,0,1-2.33-2.54A3.86,3.86,0,0,1,222.67,836.22Z"/><path class="cls-1" d="M224.64,840.31c0-2.39,1.68-4.1,3.41-4.1a2.25,2.25,0,0,1,2.26,2.54c0,2.39-1.69,4.1-3.42,4.1A2.24,2.24,0,0,1,224.64,840.31Zm1-.07c0,1.14.48,1.77,1.35,1.77,1.17,0,2.3-1.43,2.3-3.2,0-1.14-.48-1.78-1.35-1.78C226.78,837,225.64,838.48,225.64,840.25Z"/><path class="cls-1" d="M232.48,836.37h0.82l-0.09.95h0.05a3.43,3.43,0,0,1,2.08-1.1,1.29,1.29,0,0,1,1.46,1.23,3.69,3.69,0,0,1,2.24-1.23,1.36,1.36,0,0,1,1.5,1.57,4.43,4.43,0,0,1-.1.87l-0.81,4h-1l0.79-3.9a3.8,3.8,0,0,0,.1-0.74,0.84,0.84,0,0,0-.92-1,3.14,3.14,0,0,0-1.78,1.14l-0.9,4.47h-1l0.78-3.9a3.8,3.8,0,0,0,.1-0.74,0.83,0.83,0,0,0-.91-1,3.06,3.06,0,0,0-1.78,1.14l-0.9,4.47h-1Z"/><path class="cls-1" d="M242.86,836.37h0.82l-0.09.95h0.05a3.43,3.43,0,0,1,2.08-1.1,1.29,1.29,0,0,1,1.46,1.23,3.69,3.69,0,0,1,2.24-1.23,1.36,1.36,0,0,1,1.5,1.57,4.43,4.43,0,0,1-.1.87l-0.81,4h-1l0.79-3.9a3.8,3.8,0,0,0,.1-0.74,0.84,0.84,0,0,0-.92-1,3.14,3.14,0,0,0-1.78,1.14l-0.9,4.47h-1l0.78-3.9a3.8,3.8,0,0,0,.1-0.74,0.83,0.83,0,0,0-.91-1,3.06,3.06,0,0,0-1.78,1.14l-0.9,4.47h-1Z"/><path class="cls-1" d="M255.46,836.22c1.42,0,2,1,2,2.29a4.12,4.12,0,0,1-.22,1.23h-4.11c-0.23,1.63.61,2.31,1.72,2.31a2.52,2.52,0,0,0,1.42-.55l0.39,0.66a3.54,3.54,0,0,1-2,.68,2.37,2.37,0,0,1-2.48-2.64A3.76,3.76,0,0,1,255.46,836.22Zm1,2.85a3.34,3.34,0,0,0,.06-0.65,1.22,1.22,0,0,0-1.22-1.4,2.47,2.47,0,0,0-2.16,2.05h3.32Z"/><path class="cls-1" d="M259.5,836.37h0.82l-0.14,1.21h0.05a2.56,2.56,0,0,1,2-1.36,1.45,1.45,0,0,1,.6.12l-0.35.88a1.23,1.23,0,0,0-.55-0.1A2.46,2.46,0,0,0,260,838.7l-0.79,4h-1Z"/><path class="cls-1" d="M266.17,836.22a2.08,2.08,0,0,1,1.64.77l-0.58.62a1.32,1.32,0,0,0-1.12-.57c-1.26,0-2.44,1.48-2.44,3.21,0,1.14.49,1.77,1.5,1.77a2.3,2.3,0,0,0,1.4-.56l0.44,0.65a3.22,3.22,0,0,1-2,.74,2.27,2.27,0,0,1-2.33-2.54A3.86,3.86,0,0,1,266.17,836.22Z"/><path class="cls-1" d="M269.49,836.37h1l-1.27,6.32h-1Zm0.21-1.9a0.75,0.75,0,0,1,.75-0.75,0.6,0.6,0,0,1,.64.6,0.74,0.74,0,0,1-.75.74A0.59,0.59,0,0,1,269.7,834.48Z"/><path class="cls-1" d="M274.83,836.22a1.69,1.69,0,0,1,1.52.95h0.05l0.25-.79h0.81l-1.26,6.32h-0.82l0.1-.94h-0.05a3.15,3.15,0,0,1-2.2,1.09c-1.11,0-1.82-.81-1.82-2.29C271.41,838.13,273.08,836.22,274.83,836.22Zm0.75,4.59,0.57-2.82a1.48,1.48,0,0,0-1.29-.94c-1.26,0-2.43,1.61-2.43,3.35,0,1.09.46,1.61,1.16,1.61A2.6,2.6,0,0,0,275.59,840.81Z"/><path class="cls-1" d="M280.13,833.44h1l-1.62,8.1a1.09,1.09,0,0,0,0,.25,0.21,0.21,0,0,0,.22.23,0.54,0.54,0,0,0,.21,0v0.77a1.63,1.63,0,0,1-.62.1,0.75,0.75,0,0,1-.84-0.82,2.44,2.44,0,0,1,.08-0.55Z"/><path class="cls-1" d="M287.61,836.22a2.08,2.08,0,0,1,1.64.77l-0.58.62a1.32,1.32,0,0,0-1.12-.57c-1.26,0-2.44,1.48-2.44,3.21,0,1.14.49,1.77,1.5,1.77a2.3,2.3,0,0,0,1.4-.56l0.44,0.65a3.22,3.22,0,0,1-2,.74,2.27,2.27,0,0,1-2.33-2.54A3.86,3.86,0,0,1,287.61,836.22Z"/><path class="cls-1" d="M291.51,833.44h1l-1.62,8.1a1.09,1.09,0,0,0,0,.25,0.21,0.21,0,0,0,.22.23,0.54,0.54,0,0,0,.21,0v0.77a1.63,1.63,0,0,1-.62.1,0.75,0.75,0,0,1-.84-0.82,2.44,2.44,0,0,1,.08-0.55Z"/><path class="cls-1" d="M294.15,836.37h1l-1.27,6.32h-1Zm0.21-1.9a0.75,0.75,0,0,1,.75-0.75,0.6,0.6,0,0,1,.64.6,0.74,0.74,0,0,1-.75.74A0.59,0.59,0,0,1,294.36,834.48Z"/><path class="cls-1" d="M299.43,836.22c1.42,0,2,1,2,2.29a4.12,4.12,0,0,1-.22,1.23H297c-0.23,1.63.61,2.31,1.72,2.31a2.52,2.52,0,0,0,1.42-.55l0.39,0.66a3.54,3.54,0,0,1-2,.68,2.37,2.37,0,0,1-2.48-2.64A3.76,3.76,0,0,1,299.43,836.22Zm1,2.85a3.34,3.34,0,0,0,.06-0.65,1.22,1.22,0,0,0-1.22-1.4,2.47,2.47,0,0,0-2.16,2.05h3.32Z"/><path class="cls-1" d="M303.47,836.37h0.82l-0.09.95h0.05a3.53,3.53,0,0,1,2.21-1.1,1.36,1.36,0,0,1,1.49,1.57,3.59,3.59,0,0,1-.1.87l-0.81,4h-1l0.78-3.9a3.86,3.86,0,0,0,.1-0.74,0.84,0.84,0,0,0-.94-1,3.07,3.07,0,0,0-1.9,1.14l-0.9,4.47h-1Z"/><path class="cls-1" d="M310.35,837.18h-0.92l0.14-.74,1-.06,0.47-1.74h0.85l-0.35,1.74h1.6l-0.16.81h-1.62l-0.74,3.61a2.69,2.69,0,0,0,0,.47,0.68,0.68,0,0,0,.81.78,1.57,1.57,0,0,0,.66-0.2l0.22,0.72a2.89,2.89,0,0,1-1.2.29,1.31,1.31,0,0,1-1.51-1.4,5.8,5.8,0,0,1,.06-0.7Z"/><rect class="cls-2" x="29.24" y="839.83" width="18.61" height="1.51"/><line class="cls-3" x1="206.29" y1="838.74" x2="187.68" y2="838.74"/><path class="cls-1" d="M60.81,807.53a2,2,0,0,0,1.63.92,1.24,1.24,0,0,0,1.34-1.05c0-.46-0.27-0.71-1.16-1.2s-1.44-1-1.44-1.73a2,2,0,0,1,2.17-1.88,2.53,2.53,0,0,1,1.86.84l-0.57.56a1.76,1.76,0,0,0-1.31-.62,1.11,1.11,0,0,0-1.2,1,1.57,1.57,0,0,0,1.12,1.12c1.13,0.62,1.48,1.1,1.48,1.79a2.09,2.09,0,0,1-2.37,2,2.77,2.77,0,0,1-2.17-1.2Z"/><path class="cls-1" d="M66,806.68c0-2.39,1.68-4.1,3.41-4.1a2.25,2.25,0,0,1,2.26,2.54c0,2.39-1.69,4.1-3.42,4.1A2.24,2.24,0,0,1,66,806.68Zm1-.07c0,1.14.48,1.77,1.35,1.77,1.17,0,2.3-1.43,2.3-3.2,0-1.14-.48-1.78-1.35-1.78C68.11,803.41,67,804.85,67,806.62Z"/><path class="cls-1" d="M76.16,802.59a2.08,2.08,0,0,1,1.64.77l-0.58.62a1.32,1.32,0,0,0-1.12-.57c-1.26,0-2.44,1.48-2.44,3.21,0,1.14.49,1.77,1.5,1.77a2.3,2.3,0,0,0,1.4-.56L77,808.48a3.22,3.22,0,0,1-2,.74,2.27,2.27,0,0,1-2.33-2.54A3.86,3.86,0,0,1,76.16,802.59Z"/><path class="cls-1" d="M79.47,802.74h1l-1.27,6.32h-1Zm0.21-1.9a0.75,0.75,0,0,1,.75-0.75,0.6,0.6,0,0,1,.64.6,0.74,0.74,0,0,1-.75.74A0.59,0.59,0,0,1,79.68,800.85Z"/><path class="cls-1" d="M84.82,802.59a1.69,1.69,0,0,1,1.52.95h0.05l0.25-.79h0.81l-1.26,6.32H85.36l0.1-.94H85.42a3.15,3.15,0,0,1-2.2,1.09c-1.11,0-1.82-.81-1.82-2.29C81.4,804.5,83.06,802.59,84.82,802.59Zm0.75,4.59,0.57-2.82a1.49,1.49,0,0,0-1.29-.94c-1.26,0-2.43,1.61-2.43,3.35,0,1.09.46,1.61,1.16,1.61A2.61,2.61,0,0,0,85.57,807.18Z"/><path class="cls-1" d="M90.12,799.81h1l-1.62,8.1a1.09,1.09,0,0,0,0,.25,0.21,0.21,0,0,0,.22.23,0.54,0.54,0,0,0,.21,0v0.77a1.63,1.63,0,0,1-.62.1,0.75,0.75,0,0,1-.84-0.82,2.44,2.44,0,0,1,.08-0.55Z"/><path class="cls-1" d="M95.8,799.83h0.73l-5.66,11.31H90.16Z"/><path class="cls-1" d="M99.12,802.59c1.42,0,2,1,2,2.29a4.12,4.12,0,0,1-.22,1.23H96.74c-0.23,1.63.61,2.31,1.72,2.31a2.52,2.52,0,0,0,1.42-.55l0.39,0.66a3.54,3.54,0,0,1-2,.68,2.37,2.37,0,0,1-2.48-2.64A3.76,3.76,0,0,1,99.12,802.59Zm1,2.85a3.34,3.34,0,0,0,.06-0.65,1.22,1.22,0,0,0-1.22-1.4,2.47,2.47,0,0,0-2.16,2.05h3.32Z"/><path class="cls-1" d="M103.16,802.74H104l-0.09.95h0.05a3.53,3.53,0,0,1,2.21-1.1,1.36,1.36,0,0,1,1.49,1.57,3.59,3.59,0,0,1-.1.87l-0.81,4h-1l0.78-3.9a3.86,3.86,0,0,0,.1-0.74,0.84,0.84,0,0,0-.94-1,3.07,3.07,0,0,0-1.9,1.14l-0.9,4.47h-1Z"/><path class="cls-1" d="M109.1,802.74h1l0.47,3.65c0.07,0.61.12,1.27,0.18,1.88h0.05c0.3-.62.61-1.26,0.94-1.88l1.86-3.65h1l-3.37,6.32H110Z"/><path class="cls-1" d="M115.82,802.74h1l-1.27,6.32h-1Zm0.21-1.9a0.75,0.75,0,0,1,.75-0.75,0.6,0.6,0,0,1,.64.6,0.74,0.74,0,0,1-.75.74A0.59,0.59,0,0,1,116,800.85Z"/><path class="cls-1" d="M118.89,802.74h0.82L119.57,804h0.05a2.56,2.56,0,0,1,2-1.36,1.45,1.45,0,0,1,.6.12l-0.35.88a1.23,1.23,0,0,0-.55-0.1,2.46,2.46,0,0,0-1.86,1.59l-0.79,4h-1Z"/><path class="cls-1" d="M122.06,806.68c0-2.39,1.68-4.1,3.41-4.1a2.25,2.25,0,0,1,2.26,2.54c0,2.39-1.69,4.1-3.42,4.1A2.24,2.24,0,0,1,122.06,806.68Zm1-.07c0,1.14.48,1.77,1.35,1.77,1.17,0,2.3-1.43,2.3-3.2,0-1.14-.48-1.78-1.35-1.78C124.21,803.41,123.06,804.85,123.06,806.62Z"/><path class="cls-1" d="M129.9,802.74h0.82l-0.09.95h0.05a3.53,3.53,0,0,1,2.21-1.1,1.36,1.36,0,0,1,1.49,1.57,3.59,3.59,0,0,1-.1.87l-0.81,4h-1l0.78-3.9a3.86,3.86,0,0,0,.1-0.74,0.84,0.84,0,0,0-.94-1,3.07,3.07,0,0,0-1.9,1.14l-0.9,4.47h-1Z"/><path class="cls-1" d="M136.73,802.74h0.82l-0.09.95h0.05a3.43,3.43,0,0,1,2.08-1.1,1.29,1.29,0,0,1,1.46,1.23,3.69,3.69,0,0,1,2.24-1.23,1.36,1.36,0,0,1,1.5,1.57,4.43,4.43,0,0,1-.1.87l-0.81,4h-1l0.79-3.9a3.8,3.8,0,0,0,.1-0.74,0.84,0.84,0,0,0-.92-1,3.14,3.14,0,0,0-1.78,1.14l-0.9,4.47h-1l0.78-3.9a3.8,3.8,0,0,0,.1-0.74,0.83,0.83,0,0,0-.91-1,3.06,3.06,0,0,0-1.78,1.14l-0.9,4.47h-1Z"/><path class="cls-1" d="M149.32,802.59c1.42,0,2,1,2,2.29a4.12,4.12,0,0,1-.22,1.23h-4.11c-0.23,1.63.61,2.31,1.72,2.31a2.52,2.52,0,0,0,1.42-.55l0.39,0.66a3.54,3.54,0,0,1-2,.68,2.37,2.37,0,0,1-2.48-2.64A3.76,3.76,0,0,1,149.32,802.59Zm1,2.85a3.34,3.34,0,0,0,.06-0.65,1.22,1.22,0,0,0-1.22-1.4,2.47,2.47,0,0,0-2.16,2.05h3.32Z"/><path class="cls-1" d="M153.37,802.74h0.82l-0.09.95h0.05a3.53,3.53,0,0,1,2.21-1.1,1.36,1.36,0,0,1,1.49,1.57,3.59,3.59,0,0,1-.1.87l-0.81,4h-1l0.78-3.9a3.86,3.86,0,0,0,.1-0.74,0.84,0.84,0,0,0-.94-1,3.07,3.07,0,0,0-1.9,1.14l-0.9,4.47h-1Z"/><path class="cls-1" d="M160.24,803.55h-0.92l0.14-.74,1-.06,0.47-1.74h0.85l-0.35,1.74H163l-0.16.81h-1.62l-0.74,3.61a2.69,2.69,0,0,0,0,.47,0.68,0.68,0,0,0,.81.78,1.57,1.57,0,0,0,.66-0.2l0.22,0.72a2.89,2.89,0,0,1-1.2.29,1.31,1.31,0,0,1-1.51-1.4,5.8,5.8,0,0,1,.06-0.7Z"/><path class="cls-1" d="M166.55,802.59a1.69,1.69,0,0,1,1.52.95h0.05l0.25-.79h0.81l-1.26,6.32h-0.82l0.1-.94h-0.05a3.15,3.15,0,0,1-2.2,1.09c-1.11,0-1.82-.81-1.82-2.29C163.13,804.5,164.79,802.59,166.55,802.59Zm0.75,4.59,0.57-2.82a1.48,1.48,0,0,0-1.29-.94c-1.26,0-2.43,1.61-2.43,3.35,0,1.09.46,1.61,1.16,1.61A2.6,2.6,0,0,0,167.3,807.18Z"/><path class="cls-1" d="M171.85,799.81h1l-1.62,8.1a1.09,1.09,0,0,0,0,.25,0.21,0.21,0,0,0,.22.23,0.54,0.54,0,0,0,.21,0v0.77a1.63,1.63,0,0,1-.62.1,0.75,0.75,0,0,1-.84-0.82,2.44,2.44,0,0,1,.08-0.55Z"/><path class="cls-1" d="M177,802.74h1l-1.27,6.32h-1Zm0.21-1.9a0.75,0.75,0,0,1,.75-0.75,0.6,0.6,0,0,1,.64.6,0.74,0.74,0,0,1-.75.74A0.59,0.59,0,0,1,177.19,800.85Z"/><path class="cls-1" d="M180.05,802.74h0.82l-0.09.95h0.05a3.43,3.43,0,0,1,2.08-1.1,1.29,1.29,0,0,1,1.46,1.23,3.69,3.69,0,0,1,2.24-1.23,1.36,1.36,0,0,1,1.5,1.57,4.43,4.43,0,0,1-.1.87l-0.81,4h-1l0.79-3.9a3.8,3.8,0,0,0,.1-0.74,0.84,0.84,0,0,0-.92-1,3.14,3.14,0,0,0-1.78,1.14l-0.9,4.47h-1l0.78-3.9a3.8,3.8,0,0,0,.1-0.74,0.83,0.83,0,0,0-.91-1,3.06,3.06,0,0,0-1.78,1.14l-0.9,4.47h-1Z"/><path class="cls-1" d="M190.05,809.66l-0.4,2.07h-1l1.79-9h0.82l-0.08.83h0a3.58,3.58,0,0,1,2.18-1c1.11,0,1.82.82,1.82,2.29,0,2.43-1.66,4.34-3.41,4.34a1.78,1.78,0,0,1-1.52-.91h0Zm1.05-5.2-0.6,3a1.45,1.45,0,0,0,1.29.91c1.26,0,2.42-1.61,2.42-3.37,0-1.07-.44-1.6-1.16-1.6A2.94,2.94,0,0,0,191.1,804.46Z"/><path class="cls-1" d="M199.67,802.59a1.69,1.69,0,0,1,1.52.95h0.05l0.25-.79h0.81L201,809.06h-0.82l0.1-.94h-0.05a3.15,3.15,0,0,1-2.2,1.09c-1.11,0-1.82-.81-1.82-2.29C196.25,804.5,197.92,802.59,199.67,802.59Zm0.75,4.59,0.57-2.82a1.48,1.48,0,0,0-1.29-.94c-1.26,0-2.43,1.61-2.43,3.35,0,1.09.46,1.61,1.16,1.61A2.6,2.6,0,0,0,200.42,807.18Z"/><path class="cls-1" d="M206.73,802.59a2.08,2.08,0,0,1,1.64.77l-0.58.62a1.32,1.32,0,0,0-1.12-.57c-1.26,0-2.44,1.48-2.44,3.21,0,1.14.49,1.77,1.5,1.77a2.3,2.3,0,0,0,1.4-.56l0.44,0.65a3.22,3.22,0,0,1-2,.74,2.27,2.27,0,0,1-2.33-2.54A3.86,3.86,0,0,1,206.73,802.59Z"/><path class="cls-1" d="M210.08,803.55h-0.92l0.14-.74,1-.06,0.47-1.74h0.84l-0.35,1.74h1.6l-0.16.81h-1.62l-0.74,3.61a2.69,2.69,0,0,0,0,.47,0.68,0.68,0,0,0,.81.78,1.57,1.57,0,0,0,.66-0.2l0.22,0.72a2.89,2.89,0,0,1-1.2.29,1.31,1.31,0,0,1-1.51-1.4,6,6,0,0,1,.06-0.7Z"/><line class="cls-4" x1="47.85" y1="805.11" x2="29.24" y2="805.11"/><circle class="cls-5" cx="192.74" cy="115.31" r="20.45"/><path class="cls-1" d="M48.83,193.18h1.29l3.57,6.18,1.06,2h0.06c-0.06-1-.17-2.1-0.17-3.13v-5.08h1.18V203H54.54L51,196.83l-1.06-2H49.86c0.06,1,.15,2,0.15,3.07V203H48.83v-9.84Z"/><path class="cls-1" d="M61.22,195.55c1.79,0,3.38,1.4,3.38,3.84S63,203.2,61.22,203.2s-3.37-1.4-3.37-3.81S59.43,195.55,61.22,195.55Zm0,6.63c1.26,0,2.1-1.12,2.1-2.79s-0.84-2.82-2.1-2.82-2.1,1.14-2.1,2.82S60,202.18,61.22,202.18Z"/><path class="cls-1" d="M66.51,195.73h1l0.1,1h0a3.43,3.43,0,0,1,2.44-1.23c1.53,0,2.22,1,2.22,2.85V203H71.12v-4.45c0-1.37-.42-2-1.38-2a2.79,2.79,0,0,0-2,1.13V203H66.51v-7.29Z"/><path class="cls-1" d="M75.95,203.64v2.46H74.72V195.73h1l0.1,0.84h0a3.77,3.77,0,0,1,2.32-1c1.88,0,2.88,1.46,2.88,3.72,0,2.48-1.48,3.93-3.15,3.93a3.38,3.38,0,0,1-2-.84Zm1.79-1.47c1.2,0,2.08-1.09,2.08-2.9,0-1.6-.54-2.68-1.92-2.68a3.07,3.07,0,0,0-2,1v3.82A2.88,2.88,0,0,0,77.73,202.17Z"/><path class="cls-1" d="M83,195.73h1l0.1,1.32h0a2.49,2.49,0,0,1,2.07-1.5,1.81,1.81,0,0,1,.78.15l-0.24,1.08a2,2,0,0,0-.71-0.12c-0.62,0-1.35.45-1.84,1.68V203H83v-7.29Z"/><path class="cls-1" d="M90.93,195.55c1.79,0,3.38,1.4,3.38,3.84s-1.59,3.81-3.37,3.81-3.37-1.4-3.37-3.81S89.15,195.55,90.93,195.55Zm0,6.63c1.26,0,2.1-1.12,2.1-2.79s-0.84-2.82-2.1-2.82-2.1,1.14-2.1,2.82S89.69,202.18,90.93,202.18Z"/><path class="cls-1" d="M99.51,193.35a2.05,2.05,0,0,0-.83-0.18c-0.69,0-1,.48-1,1.41v1.16h1.54v1H97.67V203H96.44v-6.28h-1v-0.93l1-.07v-1.16c0-1.48.68-2.41,2.13-2.41a3.31,3.31,0,0,1,1.21.24Z"/><path class="cls-1" d="M100.38,193.44a0.86,0.86,0,0,1,1.71,0A0.86,0.86,0,0,1,100.38,193.44Zm0.22,2.29h1.23V203h-1.23v-7.29Z"/><path class="cls-1" d="M104.51,196.74h-1.08v-0.93l1.14-.07,0.15-2h1v2h2v1h-2v4c0,0.9.29,1.41,1.13,1.41a2.66,2.66,0,0,0,.83-0.19l0.24,0.93a4.51,4.51,0,0,1-1.35.27c-1.56,0-2.08-1-2.08-2.43v-4Z"/><path class="cls-1" d="M115.23,195.55c1.79,0,3.38,1.4,3.38,3.84s-1.59,3.81-3.37,3.81-3.37-1.4-3.37-3.81S113.45,195.55,115.23,195.55Zm0,6.63c1.26,0,2.1-1.12,2.1-2.79s-0.84-2.82-2.1-2.82-2.1,1.14-2.1,2.82S114,202.18,115.23,202.18Z"/><path class="cls-1" d="M120.53,195.73h1l0.1,1.32h0a2.49,2.49,0,0,1,2.07-1.5,1.81,1.81,0,0,1,.78.15l-0.24,1.08a2,2,0,0,0-.71-0.12c-0.62,0-1.35.45-1.84,1.68V203h-1.23v-7.29Z"/><path class="cls-1" d="M126.09,202.77v-0.06a1.35,1.35,0,0,1-.65-1.19,1.71,1.71,0,0,1,.79-1.35v-0.06a2.57,2.57,0,0,1,1.8-4.56,2.91,2.91,0,0,1,1,.18h2.54v0.94h-1.5a2.11,2.11,0,0,1,.6,1.5,2.5,2.5,0,0,1-2.67,2.53,2.55,2.55,0,0,1-1.09-.25,1.1,1.1,0,0,0-.46.87c0,0.46.3,0.79,1.29,0.79h1.41c1.69,0,2.55.52,2.55,1.74s-1.42,2.52-3.69,2.52c-1.78,0-3-.71-3-2A2.1,2.1,0,0,1,126.09,202.77Zm2.13,2.76c1.39,0,2.31-.72,2.31-1.48s-0.53-.9-1.47-0.9H127.8a3.56,3.56,0,0,1-.95-0.12,1.53,1.53,0,0,0-.75,1.23C126.11,205,126.9,205.53,128.22,205.53Zm1.36-7.38a1.55,1.55,0,1,0-3.09,0A1.56,1.56,0,1,0,129.59,198.15Z"/><path class="cls-1" d="M137,198.4c0-.93-0.31-1.83-1.5-1.83a3.93,3.93,0,0,0-2.17.78l-0.5-.85a5.41,5.41,0,0,1,2.87-.94c1.79,0,2.54,1.19,2.54,3V203h-1l-0.1-.87h0a4,4,0,0,1-2.42,1.05,2,2,0,0,1-2.14-2.07C132.54,199.54,133.92,198.75,137,198.4Zm-2,3.81a3,3,0,0,0,2-1v-2c-2.44.3-3.27,0.9-3.27,1.83A1.12,1.12,0,0,0,135,202.21Z"/><path class="cls-1" d="M140.58,195.73h1l0.1,1h0a3.44,3.44,0,0,1,2.45-1.23c1.53,0,2.22,1,2.22,2.85V203h-1.23v-4.45c0-1.37-.42-2-1.38-2a2.79,2.79,0,0,0-2,1.13V203h-1.23v-7.29Z"/><path class="cls-1" d="M148.56,193.44a0.86,0.86,0,0,1,1.71,0A0.86,0.86,0,0,1,148.56,193.44Zm0.22,2.29H150V203h-1.23v-7.29Z"/><path class="cls-1" d="M151.71,202.36l3.84-5.62h-3.42v-1h5v0.66L153.27,202h4v1h-5.52v-0.66Z"/><path class="cls-1" d="M162.63,198.4c0-.93-0.31-1.83-1.5-1.83a3.93,3.93,0,0,0-2.17.78l-0.5-.85a5.41,5.41,0,0,1,2.87-.94c1.79,0,2.54,1.19,2.54,3V203h-1l-0.1-.87h0a4,4,0,0,1-2.42,1.05,2,2,0,0,1-2.14-2.07C158.15,199.54,159.53,198.75,162.63,198.4Zm-2,3.81a3,3,0,0,0,2-1v-2c-2.44.3-3.27,0.9-3.27,1.83A1.12,1.12,0,0,0,160.64,202.21Z"/><path class="cls-1" d="M166.4,196.74h-1.08v-0.93l1.14-.07,0.15-2h1v2h2v1h-2v4c0,0.9.29,1.41,1.13,1.41a2.66,2.66,0,0,0,.83-0.19l0.24,0.93a4.51,4.51,0,0,1-1.35.27c-1.56,0-2.08-1-2.08-2.43v-4Z"/><path class="cls-1" d="M171,193.44a0.86,0.86,0,0,1,1.71,0A0.86,0.86,0,0,1,171,193.44Zm0.22,2.29h1.23V203h-1.23v-7.29Z"/><path class="cls-1" d="M177.78,195.55c1.79,0,3.38,1.4,3.38,3.84s-1.59,3.81-3.37,3.81-3.37-1.4-3.37-3.81S176,195.55,177.78,195.55Zm0,6.63c1.26,0,2.1-1.12,2.1-2.79s-0.84-2.82-2.1-2.82-2.1,1.14-2.1,2.82S176.54,202.18,177.78,202.18Z"/><path class="cls-1" d="M183.08,195.73h1l0.1,1h0a3.44,3.44,0,0,1,2.45-1.23c1.53,0,2.22,1,2.22,2.85V203h-1.23v-4.45c0-1.37-.42-2-1.38-2a2.79,2.79,0,0,0-2,1.13V203h-1.23v-7.29Z"/><path class="cls-1" d="M191.09,201.37a3.28,3.28,0,0,0,2.14.87,1.22,1.22,0,0,0,1.44-1.14c0-.75-0.87-1.08-1.67-1.38-1-.37-2.17-0.87-2.17-2.1s0.93-2.07,2.5-2.07a3.64,3.64,0,0,1,2.26.83l-0.58.78a2.71,2.71,0,0,0-1.67-.65,1.13,1.13,0,0,0-1.33,1c0,0.68.79,0.95,1.62,1.26,1,0.39,2.22.82,2.22,2.2,0,1.19-.95,2.18-2.67,2.18a4.39,4.39,0,0,1-2.71-1Z"/><path class="cls-1" d="M203.84,196.74h-1.08v-0.93l1.14-.07,0.15-2h1v2h2v1h-2v4c0,0.9.29,1.41,1.13,1.41A2.66,2.66,0,0,0,207,202l0.24,0.93a4.51,4.51,0,0,1-1.35.27c-1.56,0-2.08-1-2.08-2.43v-4Z"/><path class="cls-1" d="M208.7,192.34h1.23v2.91l0,1.5a3.48,3.48,0,0,1,2.43-1.2c1.53,0,2.22,1,2.22,2.85V203H213.3v-4.45c0-1.37-.42-2-1.38-2a2.79,2.79,0,0,0-2,1.13V203H208.7V192.34Z"/><path class="cls-1" d="M221,198.4c0-.93-0.31-1.83-1.5-1.83a3.93,3.93,0,0,0-2.17.78l-0.5-.85a5.41,5.41,0,0,1,2.87-.94c1.79,0,2.54,1.19,2.54,3V203h-1l-0.1-.87h0a4,4,0,0,1-2.42,1.05,2,2,0,0,1-2.14-2.07C216.5,199.54,217.88,198.75,221,198.4Zm-2,3.81a3,3,0,0,0,2-1v-2c-2.44.3-3.27,0.9-3.27,1.83A1.12,1.12,0,0,0,219,202.21Z"/><path class="cls-1" d="M224.75,196.74h-1.08v-0.93l1.14-.07,0.15-2h1v2h2v1h-2v4c0,0.9.29,1.41,1.13,1.41a2.66,2.66,0,0,0,.83-0.19l0.24,0.93a4.51,4.51,0,0,1-1.35.27c-1.56,0-2.08-1-2.08-2.43v-4Z"/><path class="cls-1" d="M232.53,195.73h1.25v4.45c0,1.37.4,2,1.36,2a2.48,2.48,0,0,0,2-1.23v-5.17h1.23V203h-1l-0.11-1.14h0a3.08,3.08,0,0,1-2.4,1.32c-1.54,0-2.23-1-2.23-2.85v-4.62Z"/><path class="cls-1" d="M240.6,201.37a3.28,3.28,0,0,0,2.14.87,1.22,1.22,0,0,0,1.44-1.14c0-.75-0.87-1.08-1.67-1.38-1-.37-2.17-0.87-2.17-2.1s0.93-2.07,2.5-2.07a3.64,3.64,0,0,1,2.26.83l-0.58.78a2.71,2.71,0,0,0-1.67-.65,1.13,1.13,0,0,0-1.33,1c0,0.68.79,0.95,1.62,1.26,1,0.39,2.22.82,2.22,2.2,0,1.19-.95,2.18-2.67,2.18a4.39,4.39,0,0,1-2.71-1Z"/><path class="cls-1" d="M249.81,195.55c1.86,0,2.91,1.33,2.91,3.42a4.43,4.43,0,0,1,0,.67h-4.92a2.43,2.43,0,0,0,2.43,2.56,3.3,3.3,0,0,0,1.81-.57l0.44,0.81a4.34,4.34,0,0,1-2.4.75,3.49,3.49,0,0,1-3.49-3.81C246.54,197,248.15,195.55,249.81,195.55Zm1.83,3.28c0-1.48-.66-2.31-1.8-2.31a2.27,2.27,0,0,0-2.1,2.31h3.9Z"/><path class="cls-1" d="M257.36,201.37a3.28,3.28,0,0,0,2.14.87,1.22,1.22,0,0,0,1.44-1.14c0-.75-0.87-1.08-1.67-1.38-1-.37-2.17-0.87-2.17-2.1s0.93-2.07,2.5-2.07a3.64,3.64,0,0,1,2.26.83l-0.58.78a2.71,2.71,0,0,0-1.67-.65,1.13,1.13,0,0,0-1.33,1c0,0.68.79,0.95,1.62,1.26,1,0.39,2.22.82,2.22,2.2,0,1.19-.95,2.18-2.67,2.18a4.39,4.39,0,0,1-2.71-1Z"/><path class="cls-1" d="M266.57,195.55c1.86,0,2.91,1.33,2.91,3.42a4.43,4.43,0,0,1,0,.67h-4.92a2.43,2.43,0,0,0,2.43,2.56,3.3,3.3,0,0,0,1.81-.57l0.44,0.81a4.34,4.34,0,0,1-2.4.75,3.49,3.49,0,0,1-3.49-3.81C263.3,197,264.9,195.55,266.57,195.55Zm1.83,3.28c0-1.48-.66-2.31-1.8-2.31a2.27,2.27,0,0,0-2.1,2.31h3.9Z"/><path class="cls-1" d="M271.28,195.73h1l0.1,1.32h0a2.49,2.49,0,0,1,2.07-1.5,1.81,1.81,0,0,1,.78.15l-0.24,1.08a2,2,0,0,0-.71-0.12c-0.62,0-1.35.45-1.84,1.68V203h-1.23v-7.29Z"/><path class="cls-1" d="M275.72,195.73H277l1.38,4.14c0.21,0.72.45,1.46,0.67,2.15h0.06c0.21-.69.45-1.42,0.66-2.15l1.38-4.14h1.22L279.78,203h-1.44Z"/><path class="cls-1" d="M283.55,193.44a0.86,0.86,0,0,1,1.71,0A0.86,0.86,0,0,1,283.55,193.44Zm0.22,2.29H285V203h-1.23v-7.29Z"/><path class="cls-1" d="M290.43,195.55a3,3,0,0,1,2.13.87l-0.62.79a2.2,2.2,0,0,0-1.47-.65c-1.32,0-2.28,1.14-2.28,2.82s0.92,2.79,2.25,2.79a2.6,2.6,0,0,0,1.71-.73l0.55,0.81a3.61,3.61,0,0,1-2.37.95c-1.93,0-3.42-1.4-3.42-3.81A3.53,3.53,0,0,1,290.43,195.55Z"/><path class="cls-1" d="M296.72,195.55c1.86,0,2.91,1.33,2.91,3.42a4.43,4.43,0,0,1,0,.67h-4.92a2.43,2.43,0,0,0,2.43,2.56,3.3,3.3,0,0,0,1.81-.57l0.44,0.81a4.34,4.34,0,0,1-2.4.75,3.49,3.49,0,0,1-3.49-3.81C293.45,197,295.05,195.55,296.72,195.55Zm1.83,3.28c0-1.48-.66-2.31-1.8-2.31a2.27,2.27,0,0,0-2.1,2.31h3.9Z"/><path class="cls-1" d="M51.86,213.55a3,3,0,0,1,2,.84l-0.06-1.24v-2.81h1.25V221h-1L54,220.17h0a3.29,3.29,0,0,1-2.21,1c-1.83,0-3-1.38-3-3.81S50.19,213.55,51.86,213.55ZM52,220.17a2.47,2.47,0,0,0,1.86-1v-3.81a2.54,2.54,0,0,0-1.77-.76c-1.17,0-2.1,1.13-2.1,2.79S50.7,220.17,52,220.17Z"/><path class="cls-1" d="M60.27,213.55c1.86,0,2.91,1.33,2.91,3.42a4.43,4.43,0,0,1,0,.67H58.22a2.43,2.43,0,0,0,2.43,2.56,3.3,3.3,0,0,0,1.81-.57l0.44,0.81a4.34,4.34,0,0,1-2.4.75A3.49,3.49,0,0,1,57,217.39C57,215,58.61,213.55,60.27,213.55Zm1.83,3.28c0-1.48-.66-2.31-1.8-2.31a2.27,2.27,0,0,0-2.1,2.31h3.9Z"/><path class="cls-1" d="M64.79,219.37a3.28,3.28,0,0,0,2.14.87,1.22,1.22,0,0,0,1.44-1.14c0-.75-0.87-1.08-1.67-1.38-1-.37-2.17-0.87-2.17-2.1s0.93-2.07,2.5-2.07a3.64,3.64,0,0,1,2.26.83l-0.58.78a2.71,2.71,0,0,0-1.67-.65,1.13,1.13,0,0,0-1.33,1c0,0.68.79,0.95,1.62,1.26,1,0.39,2.22.82,2.22,2.2,0,1.19-.95,2.18-2.67,2.18a4.39,4.39,0,0,1-2.71-1Z"/><path class="cls-1" d="M71,211.44a0.86,0.86,0,0,1,1.71,0A0.86,0.86,0,0,1,71,211.44Zm0.22,2.29H72.5V221H71.27v-7.29Z"/><path class="cls-1" d="M75.47,220.77v-0.06a1.35,1.35,0,0,1-.65-1.19,1.71,1.71,0,0,1,.79-1.35v-0.06a2.57,2.57,0,0,1,1.8-4.56,2.91,2.91,0,0,1,1,.18H81v0.94h-1.5a2.11,2.11,0,0,1,.6,1.5,2.5,2.5,0,0,1-2.67,2.53,2.55,2.55,0,0,1-1.09-.25,1.1,1.1,0,0,0-.46.87c0,0.46.3,0.79,1.29,0.79h1.41c1.69,0,2.55.52,2.55,1.74s-1.42,2.52-3.69,2.52c-1.78,0-3-.71-3-2A2.1,2.1,0,0,1,75.47,220.77Zm2.13,2.76c1.39,0,2.31-.72,2.31-1.48s-0.53-.9-1.47-0.9H77.18a3.56,3.56,0,0,1-.95-0.12,1.53,1.53,0,0,0-.75,1.23C75.48,223,76.28,223.53,77.6,223.53ZM79,216.15a1.55,1.55,0,1,0-3.09,0A1.56,1.56,0,1,0,79,216.15Z"/><path class="cls-1" d="M82.52,213.73h1l0.1,1h0a3.43,3.43,0,0,1,2.44-1.23c1.53,0,2.22,1,2.22,2.85V221H87.12v-4.45c0-1.37-.42-2-1.38-2a2.79,2.79,0,0,0-2,1.13V221H82.52v-7.29Z"/><path class="cls-1" d="M93.75,213.73h1l0.1,1h0a3.21,3.21,0,0,1,2.27-1.23,1.91,1.91,0,0,1,2,1.4,3.44,3.44,0,0,1,2.4-1.4c1.5,0,2.22,1,2.22,2.85V221h-1.23v-4.45c0-1.37-.43-2-1.35-2a2.67,2.67,0,0,0-1.83,1.13V221H98.18v-4.45c0-1.37-.43-2-1.36-2A2.73,2.73,0,0,0,95,215.74V221H93.75v-7.29Z"/><path class="cls-1" d="M108.92,213.55c1.86,0,2.91,1.33,2.91,3.42a4.43,4.43,0,0,1,0,.67h-4.92a2.43,2.43,0,0,0,2.43,2.56,3.3,3.3,0,0,0,1.81-.57l0.44,0.81a4.34,4.34,0,0,1-2.4.75,3.49,3.49,0,0,1-3.49-3.81C105.65,215,107.25,213.55,108.92,213.55Zm1.83,3.28c0-1.48-.66-2.31-1.8-2.31a2.27,2.27,0,0,0-2.1,2.31h3.9Z"/><path class="cls-1" d="M113.63,214.74h-1.08v-0.93l1.14-.07,0.15-2h1v2h2v1h-2v4c0,0.9.29,1.41,1.13,1.41a2.66,2.66,0,0,0,.83-0.19l0.24,0.93a4.51,4.51,0,0,1-1.35.27c-1.56,0-2.08-1-2.08-2.43v-4Z"/><path class="cls-1" d="M118.49,210.34h1.23v2.91l0,1.5a3.48,3.48,0,0,1,2.43-1.2c1.53,0,2.22,1,2.22,2.85V221h-1.23v-4.45c0-1.37-.42-2-1.38-2a2.79,2.79,0,0,0-2,1.13V221h-1.23V210.34Z"/><path class="cls-1" d="M129.48,213.55c1.79,0,3.38,1.4,3.38,3.84s-1.59,3.81-3.37,3.81-3.37-1.4-3.37-3.81S127.7,213.55,129.48,213.55Zm0,6.63c1.26,0,2.1-1.12,2.1-2.79s-0.84-2.82-2.1-2.82-2.1,1.14-2.1,2.82S128.24,220.18,129.48,220.18Z"/><path class="cls-1" d="M137.42,213.55a3,3,0,0,1,2,.84l-0.06-1.24v-2.81h1.25V221h-1l-0.11-.85h0a3.29,3.29,0,0,1-2.21,1c-1.83,0-3-1.38-3-3.81S135.75,213.55,137.42,213.55Zm0.12,6.61a2.47,2.47,0,0,0,1.86-1v-3.81a2.54,2.54,0,0,0-1.77-.76c-1.17,0-2.1,1.13-2.1,2.79S136.26,220.17,137.54,220.17Z"/><path class="cls-1" d="M145.94,213.55c1.79,0,3.38,1.4,3.38,3.84s-1.59,3.81-3.37,3.81-3.37-1.4-3.37-3.81S144.15,213.55,145.94,213.55Zm0,6.63c1.26,0,2.1-1.12,2.1-2.79s-0.84-2.82-2.1-2.82-2.1,1.14-2.1,2.82S144.69,220.18,145.94,220.18Z"/><path class="cls-1" d="M151.23,210.34h1.23v9.3c0,0.39.17,0.54,0.34,0.54a1,1,0,0,0,.27,0l0.17,0.93a1.66,1.66,0,0,1-.71.12c-0.93,0-1.31-.58-1.31-1.65v-9.21Z"/><path class="cls-1" d="M157.89,213.55c1.79,0,3.38,1.4,3.38,3.84s-1.59,3.81-3.37,3.81-3.37-1.4-3.37-3.81S156.11,213.55,157.89,213.55Zm0,6.63c1.26,0,2.1-1.12,2.1-2.79s-0.84-2.82-2.1-2.82-2.1,1.14-2.1,2.82S156.65,220.18,157.89,220.18Z"/><path class="cls-1" d="M163.7,220.77v-0.06a1.35,1.35,0,0,1-.65-1.19,1.71,1.71,0,0,1,.79-1.35v-0.06a2.57,2.57,0,0,1,1.8-4.56,2.91,2.91,0,0,1,1,.18h2.54v0.94h-1.5a2.11,2.11,0,0,1,.6,1.5,2.5,2.5,0,0,1-2.67,2.53,2.55,2.55,0,0,1-1.09-.25,1.1,1.1,0,0,0-.46.87c0,0.46.3,0.79,1.29,0.79h1.41c1.69,0,2.55.52,2.55,1.74s-1.42,2.52-3.69,2.52c-1.78,0-3-.71-3-2A2.1,2.1,0,0,1,163.7,220.77Zm2.13,2.76c1.39,0,2.31-.72,2.31-1.48s-0.53-.9-1.47-0.9h-1.26a3.56,3.56,0,0,1-.95-0.12,1.53,1.53,0,0,0-.75,1.23C163.71,223,164.51,223.53,165.83,223.53Zm1.36-7.38a1.55,1.55,0,1,0-3.09,0A1.56,1.56,0,1,0,167.19,216.15Z"/><path class="cls-1" d="M170.52,211.44a0.86,0.86,0,0,1,1.71,0A0.86,0.86,0,0,1,170.52,211.44Zm0.22,2.29H172V221h-1.23v-7.29Z"/><path class="cls-1" d="M177.17,213.55c1.86,0,2.91,1.33,2.91,3.42a4.43,4.43,0,0,1,0,.67h-4.92a2.43,2.43,0,0,0,2.43,2.56,3.3,3.3,0,0,0,1.81-.57l0.44,0.81a4.34,4.34,0,0,1-2.4.75,3.49,3.49,0,0,1-3.49-3.81C173.9,215,175.5,213.55,177.17,213.55Zm1.83,3.28c0-1.48-.66-2.31-1.8-2.31a2.27,2.27,0,0,0-2.1,2.31H179Z"/><path class="cls-1" d="M181.68,219.37a3.28,3.28,0,0,0,2.14.87,1.22,1.22,0,0,0,1.44-1.14c0-.75-0.87-1.08-1.67-1.38-1-.37-2.17-0.87-2.17-2.1s0.93-2.07,2.5-2.07a3.64,3.64,0,0,1,2.26.83l-0.58.78a2.71,2.71,0,0,0-1.67-.65,1.13,1.13,0,0,0-1.33,1c0,0.68.79,0.95,1.62,1.26,1,0.39,2.22.82,2.22,2.2,0,1.19-.95,2.18-2.67,2.18a4.39,4.39,0,0,1-2.71-1Z"/><path class="cls-1" d="M190.32,213.73h1.26l1.08,4.21c0.17,0.69.3,1.35,0.43,2h0.06c0.16-.68.31-1.35,0.49-2l1.13-4.21H196l1.14,4.21c0.18,0.69.35,1.35,0.51,2h0.06c0.17-.68.3-1.33,0.45-2l1.06-4.21h1.17L198.42,221h-1.5l-1-3.92c-0.18-.69-0.32-1.36-0.5-2.1h-0.06c-0.17.73-.31,1.42-0.51,2.11l-1,3.9h-1.44Z"/><path class="cls-1" d="M204.73,213.55c1.79,0,3.38,1.4,3.38,3.84s-1.59,3.81-3.37,3.81-3.37-1.4-3.37-3.81S203,213.55,204.73,213.55Zm0,6.63c1.26,0,2.1-1.12,2.1-2.79s-0.84-2.82-2.1-2.82-2.1,1.14-2.1,2.82S203.49,220.18,204.73,220.18Z"/><path class="cls-1" d="M210,213.73h1l0.1,1.32h0a2.49,2.49,0,0,1,2.07-1.5,1.81,1.81,0,0,1,.78.15l-0.24,1.08a2,2,0,0,0-.71-0.12c-0.62,0-1.35.45-1.84,1.68V221H210v-7.29Z"/><path class="cls-1" d="M215.23,210.34h1.22v7.23h0l3.1-3.84H221l-2.45,2.92L221.3,221h-1.35l-2.13-3.51-1.36,1.59V221h-1.22V210.34Z"/><path class="cls-1" d="M222.43,211.44a0.86,0.86,0,0,1,1.71,0A0.86,0.86,0,0,1,222.43,211.44Zm0.22,2.29h1.23V221h-1.23v-7.29Z"/><path class="cls-1" d="M226.35,213.73h1l0.1,1h0a3.44,3.44,0,0,1,2.45-1.23c1.53,0,2.22,1,2.22,2.85V221H231v-4.45c0-1.37-.42-2-1.38-2a2.79,2.79,0,0,0-2,1.13V221h-1.23v-7.29Z"/><path class="cls-1" d="M235.06,220.77v-0.06a1.35,1.35,0,0,1-.65-1.19,1.71,1.71,0,0,1,.79-1.35v-0.06a2.57,2.57,0,0,1,1.8-4.56,2.91,2.91,0,0,1,1,.18h2.54v0.94h-1.5a2.11,2.11,0,0,1,.6,1.5,2.5,2.5,0,0,1-2.67,2.53,2.55,2.55,0,0,1-1.09-.25,1.1,1.1,0,0,0-.46.87c0,0.46.3,0.79,1.29,0.79h1.41c1.69,0,2.55.52,2.55,1.74s-1.42,2.52-3.69,2.52c-1.78,0-3-.71-3-2A2.1,2.1,0,0,1,235.06,220.77Zm2.13,2.76c1.39,0,2.31-.72,2.31-1.48s-0.53-.9-1.47-0.9h-1.26a3.56,3.56,0,0,1-.95-0.12,1.53,1.53,0,0,0-.75,1.23C235.08,223,235.87,223.53,237.19,223.53Zm1.36-7.38a1.55,1.55,0,1,0-3.09,0A1.56,1.56,0,1,0,238.56,216.15Z"/><path class="cls-1" d="M248,213.55c1.79,0,3.38,1.4,3.38,3.84s-1.59,3.81-3.37,3.81-3.37-1.4-3.37-3.81S246.19,213.55,248,213.55Zm0,6.63c1.26,0,2.1-1.12,2.1-2.79s-0.84-2.82-2.1-2.82-2.1,1.14-2.1,2.82S246.73,220.18,248,220.18Z"/><path class="cls-1" d="M253.27,213.73h1l0.1,1h0a3.43,3.43,0,0,1,2.44-1.23c1.53,0,2.22,1,2.22,2.85V221h-1.23v-4.45c0-1.37-.42-2-1.38-2a2.79,2.79,0,0,0-2,1.13V221h-1.23v-7.29Z"/><path class="cls-1" d="M264.31,219.37a3.28,3.28,0,0,0,2.14.87,1.22,1.22,0,0,0,1.44-1.14c0-.75-0.87-1.08-1.67-1.38-1-.37-2.17-0.87-2.17-2.1s0.93-2.07,2.5-2.07a3.64,3.64,0,0,1,2.26.83l-0.58.78a2.71,2.71,0,0,0-1.67-.65,1.13,1.13,0,0,0-1.33,1c0,0.68.79,0.95,1.62,1.26,1,0.39,2.22.82,2.22,2.2,0,1.19-.95,2.18-2.67,2.18a4.39,4.39,0,0,1-2.71-1Z"/><path class="cls-1" d="M273.63,213.55c1.79,0,3.38,1.4,3.38,3.84s-1.59,3.81-3.37,3.81-3.37-1.4-3.37-3.81S271.84,213.55,273.63,213.55Zm0,6.63c1.26,0,2.1-1.12,2.1-2.79s-0.84-2.82-2.1-2.82-2.1,1.14-2.1,2.82S272.38,220.18,273.63,220.18Z"/><path class="cls-1" d="M281.89,213.55a3,3,0,0,1,2.13.87l-0.62.79a2.2,2.2,0,0,0-1.47-.65c-1.32,0-2.28,1.14-2.28,2.82s0.92,2.79,2.25,2.79a2.6,2.6,0,0,0,1.71-.73l0.55,0.81a3.61,3.61,0,0,1-2.37.95c-1.93,0-3.42-1.4-3.42-3.81A3.53,3.53,0,0,1,281.89,213.55Z"/><path class="cls-1" d="M285.54,211.44a0.86,0.86,0,0,1,1.71,0A0.86,0.86,0,0,1,285.54,211.44Zm0.22,2.29H287V221h-1.23v-7.29Z"/><path class="cls-1" d="M293.58,216.4c0-.93-0.31-1.83-1.5-1.83a3.93,3.93,0,0,0-2.17.78l-0.5-.85a5.41,5.41,0,0,1,2.87-.94c1.79,0,2.54,1.19,2.54,3V221h-1l-0.1-.87h0a4,4,0,0,1-2.42,1.05,2,2,0,0,1-2.14-2.07C289.09,217.54,290.47,216.75,293.58,216.4Zm-2,3.81a3,3,0,0,0,2-1v-2c-2.44.3-3.27,0.9-3.27,1.83A1.12,1.12,0,0,0,291.58,220.21Z"/><path class="cls-1" d="M297.13,210.34h1.23v9.3c0,0.39.17,0.54,0.34,0.54a1,1,0,0,0,.27,0l0.17,0.93a1.66,1.66,0,0,1-.71.12c-0.93,0-1.31-.58-1.31-1.65v-9.21Z"/><path class="cls-1" d="M114.1,229.44a0.86,0.86,0,0,1,1.71,0A0.86,0.86,0,0,1,114.1,229.44Zm0.22,2.29h1.23V239h-1.23v-7.29Z"/><path class="cls-1" d="M118,231.73h1l0.1,1h0a3.44,3.44,0,0,1,2.45-1.23c1.53,0,2.22,1,2.22,2.85V239h-1.23v-4.45c0-1.37-.42-2-1.38-2a2.79,2.79,0,0,0-2,1.13V239H118v-7.29Z"/><path class="cls-1" d="M126.22,231.73h1l0.1,1h0a3.44,3.44,0,0,1,2.45-1.23c1.53,0,2.22,1,2.22,2.85V239h-1.23v-4.45c0-1.37-.42-2-1.38-2a2.79,2.79,0,0,0-2,1.13V239h-1.23v-7.29Z"/><path class="cls-1" d="M137.26,231.55c1.79,0,3.38,1.4,3.38,3.84s-1.59,3.81-3.37,3.81-3.37-1.4-3.37-3.81S135.47,231.55,137.26,231.55Zm0,6.63c1.26,0,2.1-1.12,2.1-2.79s-0.84-2.82-2.1-2.82-2.1,1.14-2.1,2.82S136,238.18,137.26,238.18Z"/><path class="cls-1" d="M141.44,231.73h1.28l1.38,4.14c0.21,0.72.45,1.46,0.67,2.15h0.06c0.21-.69.45-1.42,0.66-2.15l1.38-4.14h1.22L145.51,239h-1.44Z"/><path class="cls-1" d="M153.32,234.4c0-.93-0.31-1.83-1.5-1.83a3.93,3.93,0,0,0-2.17.78l-0.5-.85a5.41,5.41,0,0,1,2.87-.94c1.79,0,2.54,1.19,2.54,3V239h-1l-0.1-.87h0A4,4,0,0,1,151,239.2a2,2,0,0,1-2.14-2.07C148.84,235.54,150.22,234.75,153.32,234.4Zm-2,3.81a3,3,0,0,0,2-1v-2c-2.44.3-3.27,0.9-3.27,1.83A1.12,1.12,0,0,0,151.33,238.21Z"/><path class="cls-1" d="M157.09,232.74H156v-0.93l1.14-.07,0.15-2h1v2h2v1h-2v4c0,0.9.29,1.41,1.13,1.41a2.66,2.66,0,0,0,.83-0.19l0.24,0.93a4.51,4.51,0,0,1-1.35.27c-1.56,0-2.08-1-2.08-2.43v-4Z"/><path class="cls-1" d="M161.72,229.44a0.86,0.86,0,0,1,1.71,0A0.86,0.86,0,0,1,161.72,229.44Zm0.22,2.29h1.23V239h-1.23v-7.29Z"/><path class="cls-1" d="M168.47,231.55c1.79,0,3.38,1.4,3.38,3.84s-1.59,3.81-3.37,3.81-3.37-1.4-3.37-3.81S166.69,231.55,168.47,231.55Zm0,6.63c1.26,0,2.1-1.12,2.1-2.79s-0.84-2.82-2.1-2.82-2.1,1.14-2.1,2.82S167.23,238.18,168.47,238.18Z"/><path class="cls-1" d="M173.77,231.73h1l0.1,1h0a3.43,3.43,0,0,1,2.44-1.23c1.53,0,2.22,1,2.22,2.85V239h-1.23v-4.45c0-1.37-.42-2-1.38-2a2.79,2.79,0,0,0-2,1.13V239h-1.23v-7.29Z"/><path class="cls-1" d="M186.23,239.64v2.46H185V231.73h1l0.1,0.84h0a3.77,3.77,0,0,1,2.33-1c1.88,0,2.88,1.46,2.88,3.72,0,2.48-1.48,3.93-3.15,3.93a3.38,3.38,0,0,1-2-.84Zm1.79-1.47c1.2,0,2.08-1.09,2.08-2.9,0-1.6-.54-2.68-1.92-2.68a3.07,3.07,0,0,0-2,1v3.82A2.88,2.88,0,0,0,188,238.17Z"/><path class="cls-1" d="M193.33,231.73h1l0.1,1.32h0a2.49,2.49,0,0,1,2.07-1.5,1.81,1.81,0,0,1,.78.15l-0.24,1.08a2,2,0,0,0-.71-0.12c-0.62,0-1.35.45-1.84,1.68V239h-1.23v-7.29Z"/><path class="cls-1" d="M201.22,231.55c1.79,0,3.38,1.4,3.38,3.84s-1.59,3.81-3.37,3.81-3.37-1.4-3.37-3.81S199.43,231.55,201.22,231.55Zm0,6.63c1.26,0,2.1-1.12,2.1-2.79s-0.84-2.82-2.1-2.82-2.1,1.14-2.1,2.82S200,238.18,201.22,238.18Z"/><path class="cls-1" d="M206.53,231.73h1.23v8.11c0,1.48-.54,2.43-2,2.43a2.89,2.89,0,0,1-1.08-.19l0.25-.93a2.27,2.27,0,0,0,.69.12c0.72,0,.9-0.54.9-1.42v-8.11Zm-0.23-2.29a0.85,0.85,0,1,1,.86.79A0.81,0.81,0,0,1,206.3,229.44Z"/><path class="cls-1" d="M212.95,231.55c1.86,0,2.91,1.33,2.91,3.42a4.43,4.43,0,0,1,0,.67h-4.92a2.43,2.43,0,0,0,2.43,2.56,3.3,3.3,0,0,0,1.81-.57l0.44,0.81a4.34,4.34,0,0,1-2.4.75,3.49,3.49,0,0,1-3.49-3.81C209.68,233,211.28,231.55,212.95,231.55Zm1.83,3.28c0-1.48-.66-2.31-1.8-2.31a2.27,2.27,0,0,0-2.1,2.31h3.9Z"/><path class="cls-1" d="M220.63,231.55a3,3,0,0,1,2.13.87l-0.62.79a2.2,2.2,0,0,0-1.47-.65c-1.32,0-2.28,1.14-2.28,2.82s0.92,2.79,2.25,2.79a2.6,2.6,0,0,0,1.71-.73l0.55,0.81a3.61,3.61,0,0,1-2.37.95c-1.93,0-3.42-1.4-3.42-3.81A3.53,3.53,0,0,1,220.63,231.55Z"/><path class="cls-1" d="M224.71,232.74h-1.08v-0.93l1.14-.07,0.15-2h1v2h2v1h-2v4c0,0.9.29,1.41,1.13,1.41a2.66,2.66,0,0,0,.83-0.19l0.24,0.93a4.51,4.51,0,0,1-1.35.27c-1.56,0-2.08-1-2.08-2.43v-4Z"/><path class="cls-1" d="M229.37,237.37a3.28,3.28,0,0,0,2.14.87A1.22,1.22,0,0,0,233,237.1c0-.75-0.87-1.08-1.67-1.38-1-.37-2.17-0.87-2.17-2.1s0.93-2.07,2.5-2.07a3.64,3.64,0,0,1,2.26.83l-0.58.78a2.71,2.71,0,0,0-1.67-.65,1.13,1.13,0,0,0-1.33,1c0,0.68.79,0.95,1.62,1.26,1,0.39,2.22.82,2.22,2.2,0,1.19-.95,2.18-2.67,2.18a4.39,4.39,0,0,1-2.71-1Z"/><path class="cls-6" d="M123.89,127.78a12.47,12.47,0,1,1,12.47-12.47A12.48,12.48,0,0,1,123.89,127.78Zm0-23.32a10.86,10.86,0,1,0,10.86,10.85A10.87,10.87,0,0,0,123.89,104.46Z"/><polygon class="cls-1" points="152.46 118.57 151.92 117.97 154.88 115.31 152.01 112.56 152.57 111.97 156.06 115.33 152.46 118.57"/><path class="cls-1" d="M170.95,44.72H173v-5.5h-1.79V37.85A6.63,6.63,0,0,0,173.6,37h1.62v7.74H177V46.5h-6.06V44.72Z"/><circle class="cls-5" cx="267.21" cy="367.28" r="20.45"/><path class="cls-1" d="M75.11,445.15h2.46c3,0,4.65,1.76,4.65,4.88s-1.62,5-4.59,5H75.11v-9.84ZM77.48,454c2.31,0,3.45-1.46,3.45-3.94s-1.14-3.85-3.45-3.85H76.37V454h1.11Z"/><path class="cls-1" d="M86.95,447.53c1.86,0,2.91,1.33,2.91,3.42a4.43,4.43,0,0,1,0,.67H84.89a2.43,2.43,0,0,0,2.43,2.56,3.3,3.3,0,0,0,1.81-.57l0.44,0.81a4.34,4.34,0,0,1-2.4.75,3.49,3.49,0,0,1-3.49-3.81C83.68,449,85.28,447.53,86.95,447.53Zm1.83,3.28c0-1.48-.66-2.31-1.8-2.31a2.27,2.27,0,0,0-2.1,2.31h3.9Z"/><path class="cls-1" d="M91.46,453.34a3.28,3.28,0,0,0,2.14.87A1.22,1.22,0,0,0,95,453.07c0-.75-0.87-1.08-1.67-1.38-1-.37-2.17-0.87-2.17-2.1s0.93-2.07,2.5-2.07a3.64,3.64,0,0,1,2.26.83l-0.58.78a2.71,2.71,0,0,0-1.67-.65,1.13,1.13,0,0,0-1.33,1c0,0.68.79,0.95,1.62,1.26,1,0.39,2.22.82,2.22,2.2,0,1.19-.95,2.18-2.67,2.18a4.39,4.39,0,0,1-2.71-1Z"/><path class="cls-1" d="M97.72,445.41a0.86,0.86,0,0,1,1.71,0A0.86,0.86,0,0,1,97.72,445.41Zm0.22,2.29h1.23V455H97.94v-7.29Z"/><path class="cls-1" d="M102.14,454.74v-0.06a1.35,1.35,0,0,1-.65-1.19,1.71,1.71,0,0,1,.79-1.35v-0.06a2.57,2.57,0,0,1,1.8-4.56,2.91,2.91,0,0,1,1,.18h2.54v0.94h-1.5a2.11,2.11,0,0,1,.6,1.5,2.5,2.5,0,0,1-2.67,2.53,2.55,2.55,0,0,1-1.09-.25,1.1,1.1,0,0,0-.46.87c0,0.46.3,0.79,1.29,0.79h1.41c1.69,0,2.55.52,2.55,1.74s-1.42,2.52-3.69,2.52c-1.78,0-3-.71-3-2A2.1,2.1,0,0,1,102.14,454.74Zm2.13,2.76c1.39,0,2.31-.72,2.31-1.48s-0.53-.9-1.47-0.9h-1.26a3.56,3.56,0,0,1-.95-0.12,1.53,1.53,0,0,0-.75,1.23C102.16,457,103,457.5,104.27,457.5Zm1.36-7.38a1.55,1.55,0,1,0-3.09,0A1.56,1.56,0,1,0,105.63,450.12Z"/><path class="cls-1" d="M109.19,447.71h1l0.1,1h0a3.43,3.43,0,0,1,2.44-1.23c1.53,0,2.22,1,2.22,2.85V455H113.8v-4.45c0-1.37-.42-2-1.38-2a2.79,2.79,0,0,0-2,1.13V455h-1.23v-7.29Z"/><path class="cls-1" d="M123.71,445.32a2.05,2.05,0,0,0-.83-0.18c-0.69,0-1,.48-1,1.41v1.16h1.54v1h-1.54V455h-1.23v-6.28h-1v-0.93l1-.07v-1.16c0-1.48.67-2.41,2.13-2.41a3.31,3.31,0,0,1,1.21.24Z"/><path class="cls-1" d="M124.58,445.41a0.86,0.86,0,0,1,1.71,0A0.86,0.86,0,0,1,124.58,445.41Zm0.22,2.29H126V455H124.8v-7.29Z"/><path class="cls-1" d="M128.49,447.71h1l0.1,1.32h0a2.49,2.49,0,0,1,2.07-1.5,1.81,1.81,0,0,1,.78.15l-0.24,1.08a2,2,0,0,0-.71-0.12c-0.62,0-1.35.45-1.84,1.68V455h-1.23v-7.29Z"/><path class="cls-1" d="M133.7,447.71h1l0.1,1h0a3.2,3.2,0,0,1,2.26-1.23,1.91,1.91,0,0,1,2,1.4,3.44,3.44,0,0,1,2.4-1.4c1.5,0,2.22,1,2.22,2.85V455h-1.23v-4.45c0-1.37-.43-2-1.35-2a2.67,2.67,0,0,0-1.83,1.13V455h-1.23v-4.45c0-1.37-.43-2-1.36-2a2.73,2.73,0,0,0-1.83,1.13V455H133.7v-7.29Z"/><path class="cls-1" d="M145.94,453.34a3.28,3.28,0,0,0,2.14.87,1.22,1.22,0,0,0,1.44-1.14c0-.75-0.87-1.08-1.67-1.38-1-.37-2.17-0.87-2.17-2.1s0.93-2.07,2.5-2.07a3.64,3.64,0,0,1,2.26.83l-0.58.78a2.71,2.71,0,0,0-1.67-.65,1.13,1.13,0,0,0-1.33,1c0,0.68.79,0.95,1.62,1.26,1,0.39,2.22.82,2.22,2.2,0,1.19-.95,2.18-2.67,2.18a4.39,4.39,0,0,1-2.71-1Z"/><path class="cls-1" d="M154.58,447.71h1.26l1.08,4.21c0.17,0.69.3,1.35,0.43,2h0.06c0.16-.68.31-1.35,0.49-2l1.13-4.21h1.2l1.14,4.21c0.18,0.69.35,1.35,0.51,2h0.06c0.17-.68.3-1.33,0.45-2l1.06-4.21h1.17L162.68,455h-1.5l-1-3.92c-0.18-.69-0.32-1.36-0.5-2.1h-0.06c-0.17.73-.31,1.42-0.51,2.11l-1,3.9H156.6Z"/><path class="cls-1" d="M169,447.53c1.79,0,3.38,1.4,3.38,3.84s-1.59,3.81-3.37,3.81-3.37-1.4-3.37-3.81S167.21,447.53,169,447.53Zm0,6.63c1.26,0,2.1-1.12,2.1-2.79s-0.84-2.82-2.1-2.82-2.1,1.14-2.1,2.82S167.75,454.15,169,454.15Z"/><path class="cls-1" d="M174.29,447.71h1l0.1,1.32h0a2.49,2.49,0,0,1,2.07-1.5,1.81,1.81,0,0,1,.78.15l-0.24,1.08a2,2,0,0,0-.71-0.12c-0.62,0-1.35.45-1.84,1.68V455h-1.23v-7.29Z"/><path class="cls-1" d="M179.49,444.32h1.22v7.23h0l3.1-3.84h1.37l-2.45,2.92,2.78,4.36H184.2l-2.13-3.51-1.36,1.59V455h-1.22V444.32Z"/><path class="cls-1" d="M186.69,445.41a0.86,0.86,0,0,1,1.71,0A0.86,0.86,0,0,1,186.69,445.41Zm0.22,2.29h1.23V455h-1.23v-7.29Z"/><path class="cls-1" d="M190.61,447.71h1l0.1,1h0a3.44,3.44,0,0,1,2.45-1.23c1.53,0,2.22,1,2.22,2.85V455h-1.23v-4.45c0-1.37-.42-2-1.38-2a2.79,2.79,0,0,0-2,1.13V455h-1.23v-7.29Z"/><path class="cls-1" d="M199.32,454.74v-0.06a1.35,1.35,0,0,1-.65-1.19,1.71,1.71,0,0,1,.79-1.35v-0.06a2.57,2.57,0,0,1,1.8-4.56,2.91,2.91,0,0,1,1,.18h2.54v0.94h-1.5a2.11,2.11,0,0,1,.6,1.5,2.5,2.5,0,0,1-2.67,2.53,2.55,2.55,0,0,1-1.09-.25,1.1,1.1,0,0,0-.46.87c0,0.46.3,0.79,1.29,0.79h1.41c1.69,0,2.55.52,2.55,1.74s-1.42,2.52-3.69,2.52c-1.78,0-3-.71-3-2A2.1,2.1,0,0,1,199.32,454.74Zm2.13,2.76c1.39,0,2.31-.72,2.31-1.48s-0.53-.9-1.47-0.9H201a3.56,3.56,0,0,1-.95-0.12,1.53,1.53,0,0,0-.75,1.23C199.34,457,200.13,457.5,201.45,457.5Zm1.36-7.38a1.55,1.55,0,1,0-3.09,0A1.56,1.56,0,1,0,202.82,450.12Z"/><path class="cls-1" d="M209.4,447.71h1l0.1,1h0a3.21,3.21,0,0,1,2.27-1.23,1.91,1.91,0,0,1,2,1.4,3.44,3.44,0,0,1,2.4-1.4c1.5,0,2.22,1,2.22,2.85V455h-1.23v-4.45c0-1.37-.43-2-1.35-2a2.67,2.67,0,0,0-1.83,1.13V455h-1.23v-4.45c0-1.37-.43-2-1.36-2a2.73,2.73,0,0,0-1.83,1.13V455H209.4v-7.29Z"/><path class="cls-1" d="M226,450.38c0-.93-0.31-1.83-1.5-1.83a3.93,3.93,0,0,0-2.17.78l-0.5-.85a5.41,5.41,0,0,1,2.87-.94c1.79,0,2.54,1.19,2.54,3V455h-1l-0.1-.87h0a4,4,0,0,1-2.42,1.05,2,2,0,0,1-2.14-2.07C221.48,451.51,222.86,450.72,226,450.38Zm-2,3.81a3,3,0,0,0,2-1v-2c-2.44.3-3.27,0.9-3.27,1.83A1.12,1.12,0,0,0,224,454.18Z"/><path class="cls-1" d="M229.29,445.41a0.86,0.86,0,0,1,1.71,0A0.86,0.86,0,0,1,229.29,445.41Zm0.22,2.29h1.23V455h-1.23v-7.29Z"/><path class="cls-1" d="M233.21,447.71h1l0.1,1h0a3.43,3.43,0,0,1,2.44-1.23c1.53,0,2.22,1,2.22,2.85V455h-1.23v-4.45c0-1.37-.42-2-1.38-2a2.79,2.79,0,0,0-2,1.13V455h-1.23v-7.29Z"/><path class="cls-1" d="M241.41,444.32h1.23v9.3c0,0.39.17,0.54,0.34,0.54a1,1,0,0,0,.27,0l0.17,0.93a1.66,1.66,0,0,1-.71.12c-0.93,0-1.31-.58-1.31-1.65v-9.21Z"/><path class="cls-1" d="M245.3,457.11a1.87,1.87,0,0,0,1.65-1.56l0.17-.54-2.92-7.3h1.28l1.48,4c0.23,0.63.48,1.38,0.71,2.05h0.06c0.21-.66.42-1.41,0.61-2.05l1.31-4h1.2l-2.75,7.89c-0.51,1.44-1.26,2.53-2.73,2.53a2.42,2.42,0,0,1-.85-0.15l0.24-1A2.14,2.14,0,0,0,245.3,457.11Z"/><path class="cls-1" d="M258.11,447.53c1.79,0,3.38,1.4,3.38,3.84s-1.59,3.81-3.37,3.81-3.37-1.4-3.37-3.81S256.32,447.53,258.11,447.53Zm0,6.63c1.26,0,2.1-1.12,2.1-2.79s-0.84-2.82-2.1-2.82-2.1,1.14-2.1,2.82S256.86,454.15,258.11,454.15Z"/><path class="cls-1" d="M263.4,447.71h1l0.1,1h0a3.43,3.43,0,0,1,2.44-1.23c1.53,0,2.22,1,2.22,2.85V455H268v-4.45c0-1.37-.42-2-1.38-2a2.79,2.79,0,0,0-2,1.13V455H263.4v-7.29Z"/><path class="cls-1" d="M68.92,465.53a3,3,0,0,1,2.13.87l-0.62.79a2.2,2.2,0,0,0-1.47-.65c-1.32,0-2.28,1.14-2.28,2.82s0.92,2.79,2.25,2.79a2.6,2.6,0,0,0,1.71-.73l0.55,0.81a3.61,3.61,0,0,1-2.37.95c-1.93,0-3.42-1.4-3.42-3.81A3.53,3.53,0,0,1,68.92,465.53Z"/><path class="cls-1" d="M75.31,465.53c1.79,0,3.38,1.4,3.38,3.84s-1.59,3.81-3.37,3.81-3.37-1.4-3.37-3.81S73.53,465.53,75.31,465.53Zm0,6.63c1.26,0,2.1-1.12,2.1-2.79s-0.84-2.82-2.1-2.82-2.1,1.14-2.1,2.82S74.07,472.15,75.31,472.15Z"/><path class="cls-1" d="M80.61,465.71h1l0.1,1h0A3.2,3.2,0,0,1,84,465.53a1.91,1.91,0,0,1,2,1.4,3.44,3.44,0,0,1,2.4-1.4c1.5,0,2.22,1,2.22,2.85V473H89.44v-4.45c0-1.37-.43-2-1.35-2a2.67,2.67,0,0,0-1.83,1.13V473H85v-4.45c0-1.37-.43-2-1.36-2a2.73,2.73,0,0,0-1.83,1.13V473H80.61v-7.29Z"/><path class="cls-1" d="M93,465.71h1l0.1,1h0a3.2,3.2,0,0,1,2.26-1.23,1.91,1.91,0,0,1,2,1.4,3.44,3.44,0,0,1,2.4-1.4c1.5,0,2.22,1,2.22,2.85V473h-1.23v-4.45c0-1.37-.43-2-1.35-2a2.67,2.67,0,0,0-1.83,1.13V473H97.47v-4.45c0-1.37-.43-2-1.36-2a2.73,2.73,0,0,0-1.83,1.13V473H93v-7.29Z"/><path class="cls-1" d="M108.21,465.53c1.86,0,2.91,1.33,2.91,3.42a4.43,4.43,0,0,1,0,.67h-4.92a2.43,2.43,0,0,0,2.43,2.56,3.3,3.3,0,0,0,1.81-.57l0.44,0.81a4.34,4.34,0,0,1-2.4.75,3.49,3.49,0,0,1-3.49-3.81C104.94,467,106.54,465.53,108.21,465.53Zm1.83,3.28c0-1.48-.66-2.31-1.8-2.31a2.27,2.27,0,0,0-2.1,2.31H110Z"/><path class="cls-1" d="M112.92,465.71h1L114,467h0a2.49,2.49,0,0,1,2.07-1.5,1.81,1.81,0,0,1,.78.15l-0.24,1.08a2,2,0,0,0-.71-0.12c-0.62,0-1.35.45-1.84,1.68V473h-1.23v-7.29Z"/><path class="cls-1" d="M120.94,465.53a3,3,0,0,1,2.13.87l-0.62.79a2.2,2.2,0,0,0-1.47-.65c-1.32,0-2.28,1.14-2.28,2.82s0.92,2.79,2.25,2.79a2.6,2.6,0,0,0,1.71-.73l0.55,0.81a3.61,3.61,0,0,1-2.37.95c-1.93,0-3.42-1.4-3.42-3.81A3.53,3.53,0,0,1,120.94,465.53Z"/><path class="cls-1" d="M124.59,463.41a0.86,0.86,0,0,1,1.71,0A0.86,0.86,0,0,1,124.59,463.41Zm0.22,2.29H126V473h-1.23v-7.29Z"/><path class="cls-1" d="M132.63,468.38c0-.93-0.31-1.83-1.5-1.83a3.93,3.93,0,0,0-2.17.78l-0.5-.85a5.41,5.41,0,0,1,2.87-.94c1.79,0,2.54,1.19,2.54,3V473h-1l-0.1-.87h0a4,4,0,0,1-2.42,1.05,2,2,0,0,1-2.14-2.07C128.14,469.51,129.52,468.72,132.63,468.38Zm-2,3.81a3,3,0,0,0,2-1v-2c-2.44.3-3.27,0.9-3.27,1.83A1.12,1.12,0,0,0,130.63,472.18Z"/><path class="cls-1" d="M136.18,462.32h1.23v9.3c0,0.39.17,0.54,0.34,0.54a1,1,0,0,0,.27,0l0.17,0.93a1.66,1.66,0,0,1-.71.12c-0.93,0-1.31-.58-1.31-1.65v-9.21Z"/><path class="cls-1" d="M142.17,465.71h1.26l1.08,4.21c0.17,0.69.3,1.35,0.43,2H145c0.17-.68.31-1.35,0.49-2l1.13-4.21h1.2l1.14,4.21c0.18,0.69.35,1.35,0.51,2h0.06c0.17-.68.3-1.33,0.45-2l1.06-4.21h1.17L150.27,473h-1.5l-1-3.92c-0.18-.69-0.32-1.36-0.5-2.1h-0.06c-0.17.73-.31,1.42-0.51,2.11l-1,3.9h-1.44Z"/><path class="cls-1" d="M156.58,465.53c1.79,0,3.38,1.4,3.38,3.84s-1.59,3.81-3.37,3.81-3.37-1.4-3.37-3.81S154.8,465.53,156.58,465.53Zm0,6.63c1.26,0,2.1-1.12,2.1-2.79s-0.84-2.82-2.1-2.82-2.1,1.14-2.1,2.82S155.34,472.15,156.58,472.15Z"/><path class="cls-1" d="M161.88,465.71h1L163,467h0a2.49,2.49,0,0,1,2.07-1.5,1.81,1.81,0,0,1,.78.15l-0.24,1.08a2,2,0,0,0-.71-0.12c-0.62,0-1.35.45-1.84,1.68V473h-1.23v-7.29Z"/><path class="cls-1" d="M167.08,462.32h1.22v7.23h0l3.1-3.84h1.37l-2.45,2.92,2.78,4.36h-1.35l-2.13-3.51-1.36,1.59V473h-1.22V462.32Z"/><path class="cls-1" d="M181.66,468.38c0-.93-0.31-1.83-1.5-1.83a3.93,3.93,0,0,0-2.17.78l-0.5-.85a5.41,5.41,0,0,1,2.87-.94c1.79,0,2.54,1.19,2.54,3V473h-1l-0.1-.87h0a4,4,0,0,1-2.42,1.05,2,2,0,0,1-2.14-2.07C177.18,469.51,178.56,468.72,181.66,468.38Zm-2,3.81a3,3,0,0,0,2-1v-2c-2.44.3-3.27,0.9-3.27,1.83A1.12,1.12,0,0,0,179.67,472.18Z"/><path class="cls-1" d="M185.22,465.71h1l0.1,1h0a3.44,3.44,0,0,1,2.45-1.23c1.53,0,2.22,1,2.22,2.85V473h-1.23v-4.45c0-1.37-.42-2-1.38-2a2.79,2.79,0,0,0-2,1.13V473h-1.23v-7.29Z"/><path class="cls-1" d="M196.06,465.53a3,3,0,0,1,2,.84L198,465.12v-2.81h1.25V473h-1l-0.11-.85h0a3.29,3.29,0,0,1-2.21,1c-1.83,0-3-1.38-3-3.81S194.4,465.53,196.06,465.53Zm0.12,6.61a2.47,2.47,0,0,0,1.86-1v-3.81a2.54,2.54,0,0,0-1.77-.76c-1.17,0-2.1,1.13-2.1,2.79S194.91,472.14,196.18,472.14Z"/><path class="cls-1" d="M207.75,465.53a3,3,0,0,1,2.13.87l-0.62.79a2.2,2.2,0,0,0-1.47-.65c-1.32,0-2.28,1.14-2.28,2.82s0.92,2.79,2.25,2.79a2.6,2.6,0,0,0,1.71-.73l0.55,0.81a3.61,3.61,0,0,1-2.37.95c-1.93,0-3.42-1.4-3.42-3.81A3.53,3.53,0,0,1,207.75,465.53Z"/><path class="cls-1" d="M215.59,468.38c0-.93-0.31-1.83-1.5-1.83a3.93,3.93,0,0,0-2.17.78l-0.5-.85a5.41,5.41,0,0,1,2.87-.94c1.79,0,2.54,1.19,2.54,3V473h-1l-0.1-.87h0a4,4,0,0,1-2.42,1.05,2,2,0,0,1-2.14-2.07C211.11,469.51,212.49,468.72,215.59,468.38Zm-2,3.81a3,3,0,0,0,2-1v-2c-2.44.3-3.27,0.9-3.27,1.83A1.12,1.12,0,0,0,213.6,472.18Z"/><path class="cls-1" d="M219.15,465.71h1l0.1,1.32h0a2.49,2.49,0,0,1,2.07-1.5,1.81,1.81,0,0,1,.78.15l-0.24,1.08a2,2,0,0,0-.71-0.12c-0.62,0-1.35.45-1.84,1.68V473h-1.23v-7.29Z"/><path class="cls-1" d="M224.35,465.71h1l0.1,1.32h0a2.49,2.49,0,0,1,2.07-1.5,1.81,1.81,0,0,1,.78.15l-0.24,1.08a2,2,0,0,0-.71-0.12c-0.62,0-1.35.45-1.84,1.68V473h-1.23v-7.29Z"/><path class="cls-1" d="M229.9,475.11a1.87,1.87,0,0,0,1.65-1.56l0.17-.54-2.92-7.3h1.28l1.48,4c0.23,0.63.48,1.38,0.71,2.05h0.06c0.21-.66.42-1.41,0.61-2.05l1.31-4h1.2l-2.75,7.89c-0.51,1.44-1.26,2.53-2.73,2.53a2.42,2.42,0,0,1-.85-0.15l0.24-1A2.14,2.14,0,0,0,229.9,475.11Z"/><path class="cls-1" d="M236.62,463.41a0.86,0.86,0,0,1,1.71,0A0.86,0.86,0,0,1,236.62,463.41Zm0.22,2.29h1.23V473h-1.23v-7.29Z"/><path class="cls-1" d="M240.54,465.71h1l0.1,1h0a3.43,3.43,0,0,1,2.44-1.23c1.53,0,2.22,1,2.22,2.85V473h-1.23v-4.45c0-1.37-.42-2-1.38-2a2.79,2.79,0,0,0-2,1.13V473h-1.23v-7.29Z"/><path class="cls-1" d="M249.25,472.74v-0.06a1.35,1.35,0,0,1-.65-1.19,1.71,1.71,0,0,1,.79-1.35v-0.06a2.57,2.57,0,0,1,1.8-4.56,2.91,2.91,0,0,1,1,.18h2.54v0.94h-1.5a2.11,2.11,0,0,1,.6,1.5,2.5,2.5,0,0,1-2.67,2.53,2.55,2.55,0,0,1-1.09-.25,1.1,1.1,0,0,0-.46.87c0,0.46.3,0.79,1.29,0.79h1.41c1.69,0,2.55.52,2.55,1.74s-1.42,2.52-3.69,2.52c-1.78,0-3-.71-3-2A2.1,2.1,0,0,1,249.25,472.74Zm2.13,2.76c1.39,0,2.31-.72,2.31-1.48s-0.53-.9-1.47-0.9H251A3.56,3.56,0,0,1,250,473a1.53,1.53,0,0,0-.75,1.23C249.27,475,250.06,475.5,251.38,475.5Zm1.36-7.38a1.55,1.55,0,1,0-3.09,0A1.56,1.56,0,1,0,252.75,468.12Z"/><path class="cls-1" d="M262.17,465.53c1.79,0,3.38,1.4,3.38,3.84s-1.59,3.81-3.37,3.81-3.37-1.4-3.37-3.81S260.38,465.53,262.17,465.53Zm0,6.63c1.26,0,2.1-1.12,2.1-2.79s-0.84-2.82-2.1-2.82-2.1,1.14-2.1,2.82S260.92,472.15,262.17,472.15Z"/><path class="cls-1" d="M267.36,465.71h1.25v4.45c0,1.37.4,2,1.36,2a2.48,2.48,0,0,0,2-1.23v-5.17h1.23V473h-1L272,471.85h0a3.08,3.08,0,0,1-2.4,1.32c-1.55,0-2.24-1-2.24-2.85v-4.62Z"/><path class="cls-1" d="M275.83,466.71h-1.08v-0.93l1.14-.07,0.15-2h1v2h2v1h-2v4c0,0.9.29,1.41,1.13,1.41A2.66,2.66,0,0,0,279,472l0.24,0.93a4.51,4.51,0,0,1-1.35.27c-1.56,0-2.08-1-2.08-2.43v-4Z"/><path class="cls-1" d="M74.4,489.34a3.28,3.28,0,0,0,2.14.87A1.22,1.22,0,0,0,78,489.07c0-.75-0.87-1.08-1.67-1.38-1-.37-2.17-0.87-2.17-2.1s0.93-2.07,2.5-2.07a3.64,3.64,0,0,1,2.26.83l-0.58.78a2.71,2.71,0,0,0-1.67-.65,1.13,1.13,0,0,0-1.33,1c0,0.68.79,0.95,1.62,1.26,1,0.39,2.22.82,2.22,2.2,0,1.19-.95,2.18-2.67,2.18a4.39,4.39,0,0,1-2.71-1Z"/><path class="cls-1" d="M83.71,483.53c1.79,0,3.38,1.4,3.38,3.84s-1.59,3.81-3.37,3.81-3.37-1.4-3.37-3.81S81.93,483.53,83.71,483.53Zm0,6.63c1.26,0,2.1-1.12,2.1-2.79s-0.84-2.82-2.1-2.82-2.1,1.14-2.1,2.82S82.47,490.15,83.71,490.15Z"/><path class="cls-1" d="M92,483.53a3,3,0,0,1,2.13.87l-0.62.79a2.2,2.2,0,0,0-1.47-.65c-1.32,0-2.28,1.14-2.28,2.82s0.92,2.79,2.25,2.79a2.6,2.6,0,0,0,1.71-.73l0.55,0.81a3.61,3.61,0,0,1-2.37.95c-1.93,0-3.42-1.4-3.42-3.81A3.53,3.53,0,0,1,92,483.53Z"/><path class="cls-1" d="M95.62,481.41a0.86,0.86,0,0,1,1.71,0A0.86,0.86,0,0,1,95.62,481.41Zm0.22,2.29h1.23V491H95.85v-7.29Z"/><path class="cls-1" d="M103.66,486.38c0-.93-0.31-1.83-1.5-1.83a3.93,3.93,0,0,0-2.17.78l-0.5-.85a5.41,5.41,0,0,1,2.87-.94c1.79,0,2.54,1.19,2.54,3V491h-1l-0.1-.87h0a4,4,0,0,1-2.42,1.05,2,2,0,0,1-2.14-2.07C99.18,487.51,100.56,486.72,103.66,486.38Zm-2,3.81a3,3,0,0,0,2-1v-2c-2.44.3-3.27,0.9-3.27,1.83A1.12,1.12,0,0,0,101.67,490.18Z"/><path class="cls-1" d="M107.22,480.32h1.23v9.3c0,0.39.17,0.54,0.34,0.54a1,1,0,0,0,.27,0l0.17,0.93a1.66,1.66,0,0,1-.71.12c-0.93,0-1.31-.58-1.31-1.65v-9.21Z"/><path class="cls-1" d="M113.85,481.41a0.86,0.86,0,0,1,1.71,0A0.86,0.86,0,0,1,113.85,481.41Zm0.22,2.29h1.23V491h-1.23v-7.29Z"/><path class="cls-1" d="M117.76,483.71h1l0.1,1h0a3.44,3.44,0,0,1,2.45-1.23c1.53,0,2.22,1,2.22,2.85V491h-1.23v-4.45c0-1.37-.42-2-1.38-2a2.79,2.79,0,0,0-2,1.13V491h-1.23v-7.29Z"/><path class="cls-1" d="M126,483.71h1l0.1,1h0a3.44,3.44,0,0,1,2.45-1.23c1.53,0,2.22,1,2.22,2.85V491h-1.23v-4.45c0-1.37-.42-2-1.38-2a2.79,2.79,0,0,0-2,1.13V491H126v-7.29Z"/><path class="cls-1" d="M137,483.53c1.79,0,3.38,1.4,3.38,3.84s-1.59,3.81-3.37,3.81-3.37-1.4-3.37-3.81S135.22,483.53,137,483.53Zm0,6.63c1.26,0,2.1-1.12,2.1-2.79s-0.84-2.82-2.1-2.82-2.1,1.14-2.1,2.82S135.76,490.15,137,490.15Z"/><path class="cls-1" d="M141.19,483.71h1.28l1.38,4.14c0.21,0.72.45,1.46,0.67,2.15h0.06c0.21-.69.45-1.42,0.66-2.15l1.38-4.14h1.22L145.26,491h-1.44Z"/><path class="cls-1" d="M153.07,486.38c0-.93-0.31-1.83-1.5-1.83a3.93,3.93,0,0,0-2.17.78l-0.5-.85a5.41,5.41,0,0,1,2.87-.94c1.79,0,2.54,1.19,2.54,3V491h-1l-0.1-.87h0a4,4,0,0,1-2.42,1.05,2,2,0,0,1-2.14-2.07C148.59,487.51,150,486.72,153.07,486.38Zm-2,3.81a3,3,0,0,0,2-1v-2c-2.44.3-3.27,0.9-3.27,1.83A1.12,1.12,0,0,0,151.08,490.18Z"/><path class="cls-1" d="M156.84,484.71h-1.08v-0.93l1.14-.07,0.15-2h1v2h2v1h-2v4c0,0.9.29,1.41,1.13,1.41A2.66,2.66,0,0,0,160,490l0.24,0.93a4.51,4.51,0,0,1-1.35.27c-1.56,0-2.08-1-2.08-2.43v-4Z"/><path class="cls-1" d="M161.47,481.41a0.86,0.86,0,0,1,1.71,0A0.86,0.86,0,0,1,161.47,481.41Zm0.22,2.29h1.23V491H161.7v-7.29Z"/><path class="cls-1" d="M168.22,483.53c1.79,0,3.38,1.4,3.38,3.84s-1.59,3.81-3.37,3.81-3.37-1.4-3.37-3.81S166.44,483.53,168.22,483.53Zm0,6.63c1.26,0,2.1-1.12,2.1-2.79s-0.84-2.82-2.1-2.82-2.1,1.14-2.1,2.82S167,490.15,168.22,490.15Z"/><path class="cls-1" d="M173.52,483.71h1l0.1,1h0a3.43,3.43,0,0,1,2.44-1.23c1.53,0,2.22,1,2.22,2.85V491h-1.23v-4.45c0-1.37-.42-2-1.38-2a2.79,2.79,0,0,0-2,1.13V491h-1.23v-7.29Z"/><path class="cls-1" d="M186,491.61v2.46h-1.23V483.71h1l0.1,0.84h0a3.77,3.77,0,0,1,2.33-1c1.88,0,2.88,1.46,2.88,3.72,0,2.48-1.48,3.93-3.15,3.93a3.38,3.38,0,0,1-2-.84Zm1.79-1.47c1.2,0,2.08-1.09,2.08-2.9,0-1.6-.54-2.68-1.92-2.68a3.07,3.07,0,0,0-2,1v3.82A2.88,2.88,0,0,0,187.77,490.14Z"/><path class="cls-1" d="M193.08,483.71h1l0.1,1.32h0a2.49,2.49,0,0,1,2.07-1.5,1.81,1.81,0,0,1,.78.15l-0.24,1.08a2,2,0,0,0-.71-0.12c-0.62,0-1.35.45-1.84,1.68V491h-1.23v-7.29Z"/><path class="cls-1" d="M201,483.53c1.79,0,3.38,1.4,3.38,3.84s-1.59,3.81-3.37,3.81-3.37-1.4-3.37-3.81S199.18,483.53,201,483.53Zm0,6.63c1.26,0,2.1-1.12,2.1-2.79s-0.84-2.82-2.1-2.82-2.1,1.14-2.1,2.82S199.72,490.15,201,490.15Z"/><path class="cls-1" d="M206.28,483.71h1.23v8.11c0,1.48-.54,2.43-2,2.43a2.89,2.89,0,0,1-1.08-.19l0.25-.93a2.27,2.27,0,0,0,.69.12c0.72,0,.9-0.54.9-1.42v-8.11Zm-0.23-2.29a0.85,0.85,0,1,1,.86.79A0.81,0.81,0,0,1,206.05,481.41Z"/><path class="cls-1" d="M212.7,483.53c1.86,0,2.91,1.33,2.91,3.42a4.43,4.43,0,0,1,0,.67h-4.92a2.43,2.43,0,0,0,2.43,2.56,3.3,3.3,0,0,0,1.81-.57l0.44,0.81a4.34,4.34,0,0,1-2.4.75,3.49,3.49,0,0,1-3.49-3.81C209.43,485,211,483.53,212.7,483.53Zm1.83,3.28c0-1.48-.66-2.31-1.8-2.31a2.27,2.27,0,0,0-2.1,2.31h3.9Z"/><path class="cls-1" d="M220.38,483.53a3,3,0,0,1,2.13.87l-0.62.79a2.2,2.2,0,0,0-1.47-.65c-1.32,0-2.28,1.14-2.28,2.82s0.92,2.79,2.25,2.79a2.6,2.6,0,0,0,1.71-.73l0.55,0.81a3.61,3.61,0,0,1-2.37.95c-1.93,0-3.42-1.4-3.42-3.81A3.53,3.53,0,0,1,220.38,483.53Z"/><path class="cls-1" d="M224.46,484.71h-1.08v-0.93l1.14-.07,0.15-2h1v2h2v1h-2v4c0,0.9.29,1.41,1.13,1.41a2.66,2.66,0,0,0,.83-0.19l0.24,0.93a4.51,4.51,0,0,1-1.35.27c-1.56,0-2.08-1-2.08-2.43v-4Z"/><path class="cls-1" d="M229.12,489.34a3.28,3.28,0,0,0,2.14.87,1.22,1.22,0,0,0,1.44-1.14c0-.75-0.87-1.08-1.67-1.38-1-.37-2.17-0.87-2.17-2.1s0.93-2.07,2.5-2.07a3.64,3.64,0,0,1,2.26.83l-0.58.78a2.71,2.71,0,0,0-1.67-.65,1.13,1.13,0,0,0-1.33,1c0,0.68.79,0.95,1.62,1.26,1,0.39,2.22.82,2.22,2.2,0,1.19-.95,2.18-2.67,2.18a4.39,4.39,0,0,1-2.71-1Z"/><path class="cls-1" d="M242.76,486.38c0-.93-0.31-1.83-1.5-1.83a3.93,3.93,0,0,0-2.17.78l-0.5-.85a5.41,5.41,0,0,1,2.87-.94c1.79,0,2.54,1.19,2.54,3V491h-1l-0.1-.87h0a4,4,0,0,1-2.42,1.05,2,2,0,0,1-2.14-2.07C238.27,487.51,239.65,486.72,242.76,486.38Zm-2,3.81a3,3,0,0,0,2-1v-2c-2.44.3-3.27,0.9-3.27,1.83A1.12,1.12,0,0,0,240.76,490.18Z"/><path class="cls-1" d="M246.12,489.34a3.28,3.28,0,0,0,2.14.87,1.22,1.22,0,0,0,1.44-1.14c0-.75-0.87-1.08-1.67-1.38-1-.37-2.17-0.87-2.17-2.1s0.93-2.07,2.5-2.07a3.64,3.64,0,0,1,2.26.83l-0.58.78a2.71,2.71,0,0,0-1.67-.65,1.13,1.13,0,0,0-1.33,1c0,0.68.79,0.95,1.62,1.26,1,0.39,2.22.82,2.22,2.2,0,1.19-.95,2.18-2.67,2.18a4.39,4.39,0,0,1-2.71-1Z"/><path class="cls-1" d="M252.37,481.41a0.86,0.86,0,0,1,1.71,0A0.86,0.86,0,0,1,252.37,481.41Zm0.22,2.29h1.23V491H252.6v-7.29Z"/><path class="cls-1" d="M258.93,483.53a3,3,0,0,1,2,.84l-0.06-1.24v-2.81h1.25V491h-1l-0.11-.85h0a3.29,3.29,0,0,1-2.21,1c-1.83,0-3-1.38-3-3.81S257.26,483.53,258.93,483.53Zm0.12,6.61a2.47,2.47,0,0,0,1.86-1v-3.81a2.54,2.54,0,0,0-1.77-.76c-1.17,0-2.1,1.13-2.1,2.79S257.77,490.14,259,490.14Z"/><path class="cls-1" d="M267.34,483.53c1.86,0,2.91,1.33,2.91,3.42a4.43,4.43,0,0,1,0,.67h-4.92a2.43,2.43,0,0,0,2.43,2.56,3.3,3.3,0,0,0,1.81-.57l0.44,0.81a4.34,4.34,0,0,1-2.4.75,3.49,3.49,0,0,1-3.49-3.81C264.07,485,265.68,483.53,267.34,483.53Zm1.83,3.28c0-1.48-.66-2.31-1.8-2.31a2.27,2.27,0,0,0-2.1,2.31h3.9Z"/><path class="cls-6" d="M197.16,354.81a12.47,12.47,0,1,1-12.47,12.47A12.48,12.48,0,0,1,197.16,354.81Zm0,23.32a10.86,10.86,0,1,0-10.86-10.85A10.87,10.87,0,0,0,197.16,378.14Z"/><circle class="cls-7" cx="94.98" cy="367.28" r="49.89"/><polygon class="cls-1" points="168.09 364.02 168.63 364.62 165.68 367.28 168.55 370.04 167.99 370.62 164.49 367.26 168.09 364.02"/><polygon class="cls-1" points="226.23 370.54 225.69 369.94 228.64 367.28 225.77 364.53 226.33 363.95 229.83 367.3 226.23 370.54"/><path class="cls-1" d="M168.69,297.21c2.43-2.29,4.14-3.93,4.14-5.28a1.28,1.28,0,0,0-1.35-1.44,2.43,2.43,0,0,0-1.69,1l-1.2-1.18a4,4,0,0,1,3.19-1.52,2.92,2.92,0,0,1,3.15,3c0,1.6-1.5,3.31-3,4.94a14.7,14.7,0,0,1,1.59-.12h1.92v1.86h-6.71v-1.26Z"/><path class="cls-1" d="M104.72,699.07h2.46c3,0,4.65,1.76,4.65,4.88s-1.62,5-4.59,5h-2.52v-9.84Zm2.37,8.82c2.31,0,3.45-1.46,3.45-3.94s-1.14-3.85-3.45-3.85H106v7.8h1.11Z"/><path class="cls-1" d="M116.55,701.44c1.86,0,2.91,1.33,2.91,3.42a4.43,4.43,0,0,1,0,.67H114.5a2.43,2.43,0,0,0,2.43,2.56,3.3,3.3,0,0,0,1.81-.57l0.44,0.81a4.34,4.34,0,0,1-2.4.75,3.49,3.49,0,0,1-3.49-3.81C113.29,702.89,114.89,701.44,116.55,701.44Zm1.83,3.28c0-1.48-.66-2.31-1.8-2.31a2.27,2.27,0,0,0-2.1,2.31h3.9Z"/><path class="cls-1" d="M121.07,707.26a3.28,3.28,0,0,0,2.14.87,1.22,1.22,0,0,0,1.44-1.14c0-.75-0.87-1.08-1.67-1.38-1-.37-2.17-0.87-2.17-2.1s0.93-2.07,2.5-2.07a3.64,3.64,0,0,1,2.26.83L125,703a2.71,2.71,0,0,0-1.67-.65,1.13,1.13,0,0,0-1.33,1c0,0.68.79,0.95,1.62,1.26,1,0.39,2.22.82,2.22,2.2,0,1.19-.95,2.18-2.67,2.18a4.39,4.39,0,0,1-2.71-1Z"/><path class="cls-1" d="M127.32,699.32a0.86,0.86,0,0,1,1.71,0A0.86,0.86,0,0,1,127.32,699.32Zm0.22,2.29h1.23v7.29h-1.23v-7.29Z"/><path class="cls-1" d="M131.75,708.65v-0.06a1.35,1.35,0,0,1-.65-1.19,1.71,1.71,0,0,1,.79-1.35V706a2.57,2.57,0,0,1,1.8-4.56,2.91,2.91,0,0,1,1,.18h2.54v0.94h-1.5a2.11,2.11,0,0,1,.6,1.5,2.5,2.5,0,0,1-2.67,2.53,2.55,2.55,0,0,1-1.09-.25,1.1,1.1,0,0,0-.46.87c0,0.46.3,0.79,1.29,0.79h1.41c1.69,0,2.55.52,2.55,1.74s-1.42,2.52-3.69,2.52c-1.78,0-3-.71-3-2A2.1,2.1,0,0,1,131.75,708.65Zm2.13,2.76c1.39,0,2.31-.72,2.31-1.48s-0.53-.9-1.47-0.9h-1.26a3.56,3.56,0,0,1-.95-0.12,1.53,1.53,0,0,0-.75,1.23C131.76,710.92,132.56,711.41,133.88,711.41Zm1.36-7.38a1.55,1.55,0,1,0-3.09,0A1.56,1.56,0,1,0,135.24,704Z"/><path class="cls-1" d="M138.8,701.62h1l0.1,1h0a3.44,3.44,0,0,1,2.45-1.23c1.53,0,2.22,1,2.22,2.85v4.62H143.4v-4.45c0-1.37-.42-2-1.38-2a2.79,2.79,0,0,0-2,1.13v5.28H138.8v-7.29Z"/><path class="cls-1" d="M153.32,699.23a2.05,2.05,0,0,0-.83-0.18c-0.69,0-1,.48-1,1.41v1.16H153v1h-1.54v6.28h-1.23v-6.28h-1v-0.93l1-.07v-1.16c0-1.48.68-2.41,2.13-2.41a3.31,3.31,0,0,1,1.21.24Z"/><path class="cls-1" d="M154.19,699.32a0.86,0.86,0,0,1,1.71,0A0.86,0.86,0,0,1,154.19,699.32Zm0.22,2.29h1.23v7.29h-1.23v-7.29Z"/><path class="cls-1" d="M158.1,701.62h1l0.1,1.32h0a2.49,2.49,0,0,1,2.07-1.5,1.81,1.81,0,0,1,.78.15l-0.24,1.08a2,2,0,0,0-.71-0.12c-0.62,0-1.35.45-1.84,1.68v4.68H158.1v-7.29Z"/><path class="cls-1" d="M163.31,701.62h1l0.1,1h0a3.21,3.21,0,0,1,2.27-1.23,1.91,1.91,0,0,1,2,1.4,3.44,3.44,0,0,1,2.4-1.4c1.5,0,2.22,1,2.22,2.85v4.62h-1.23v-4.45c0-1.37-.43-2-1.35-2a2.67,2.67,0,0,0-1.83,1.13v5.28h-1.23v-4.45c0-1.37-.43-2-1.36-2a2.73,2.73,0,0,0-1.83,1.13v5.28h-1.23v-7.29Z"/><path class="cls-1" d="M175.55,707.26a3.28,3.28,0,0,0,2.14.87,1.22,1.22,0,0,0,1.44-1.14c0-.75-0.87-1.08-1.67-1.38-1-.37-2.17-0.87-2.17-2.1s0.93-2.07,2.5-2.07a3.64,3.64,0,0,1,2.26.83l-0.58.78a2.71,2.71,0,0,0-1.67-.65,1.13,1.13,0,0,0-1.33,1c0,0.68.79,0.95,1.62,1.26,1,0.39,2.22.82,2.22,2.2,0,1.19-.95,2.18-2.67,2.18a4.39,4.39,0,0,1-2.71-1Z"/><path class="cls-1" d="M184.83,699.32a0.86,0.86,0,0,1,1.71,0A0.86,0.86,0,0,1,184.83,699.32Zm0.22,2.29h1.23v7.29h-1.23v-7.29Z"/><path class="cls-1" d="M188.75,701.62h1l0.1,1h0a3.44,3.44,0,0,1,2.45-1.23c1.53,0,2.22,1,2.22,2.85v4.62h-1.23v-4.45c0-1.37-.42-2-1.38-2a2.79,2.79,0,0,0-2,1.13v5.28h-1.23v-7.29Z"/><path class="cls-1" d="M199.92,701.44a3,3,0,0,1,2.13.87l-0.62.79a2.2,2.2,0,0,0-1.47-.65c-1.32,0-2.28,1.14-2.28,2.82s0.92,2.79,2.25,2.79a2.6,2.6,0,0,0,1.71-.73l0.55,0.81a3.61,3.61,0,0,1-2.37.95c-1.93,0-3.42-1.4-3.42-3.81A3.53,3.53,0,0,1,199.92,701.44Z"/><path class="cls-1" d="M203.79,698.23H205v9.3c0,0.39.17,0.54,0.34,0.54a1,1,0,0,0,.27,0L205.8,709a1.66,1.66,0,0,1-.71.12c-0.93,0-1.31-.58-1.31-1.65v-9.21Z"/><path class="cls-1" d="M207.51,701.62h1.25v4.45c0,1.37.4,2,1.36,2a2.48,2.48,0,0,0,2-1.23v-5.17h1.23v7.29h-1l-0.11-1.14h0a3.08,3.08,0,0,1-2.4,1.32c-1.54,0-2.23-1-2.23-2.85v-4.62Z"/><path class="cls-1" d="M218.42,701.44a3,3,0,0,1,2,.84L220.4,701v-2.81h1.25v10.68h-1l-0.11-.85h0a3.29,3.29,0,0,1-2.21,1c-1.83,0-3-1.38-3-3.81S216.75,701.44,218.42,701.44Zm0.12,6.61a2.47,2.47,0,0,0,1.86-1v-3.81a2.54,2.54,0,0,0-1.77-.76c-1.17,0-2.1,1.13-2.1,2.79S217.26,708.05,218.54,708.05Z"/><path class="cls-1" d="M223.88,699.32a0.86,0.86,0,0,1,1.71,0A0.86,0.86,0,0,1,223.88,699.32Zm0.22,2.29h1.23v7.29H224.1v-7.29Z"/><path class="cls-1" d="M227.79,701.62h1l0.1,1h0a3.44,3.44,0,0,1,2.45-1.23c1.53,0,2.22,1,2.22,2.85v4.62H232.4v-4.45c0-1.37-.42-2-1.38-2a2.79,2.79,0,0,0-2,1.13v5.28h-1.23v-7.29Z"/><path class="cls-1" d="M236.51,708.65v-0.06a1.35,1.35,0,0,1-.65-1.19,1.71,1.71,0,0,1,.79-1.35V706a2.57,2.57,0,0,1,1.8-4.56,2.91,2.91,0,0,1,1,.18H242v0.94h-1.5a2.11,2.11,0,0,1,.6,1.5,2.5,2.5,0,0,1-2.67,2.53,2.55,2.55,0,0,1-1.09-.25,1.1,1.1,0,0,0-.46.87c0,0.46.3,0.79,1.29,0.79h1.41c1.69,0,2.55.52,2.55,1.74s-1.42,2.52-3.69,2.52c-1.78,0-3-.71-3-2A2.1,2.1,0,0,1,236.51,708.65Zm2.13,2.76c1.39,0,2.31-.72,2.31-1.48s-0.53-.9-1.47-0.9h-1.26a3.56,3.56,0,0,1-.95-0.12,1.53,1.53,0,0,0-.75,1.23C236.52,710.92,237.32,711.41,238.64,711.41ZM240,704a1.55,1.55,0,1,0-3.09,0A1.56,1.56,0,1,0,240,704Z"/><path class="cls-1" d="M48.19,725.26a3.28,3.28,0,0,0,2.14.87A1.22,1.22,0,0,0,51.78,725c0-.75-0.87-1.08-1.67-1.38-1-.37-2.17-0.87-2.17-2.1s0.93-2.07,2.5-2.07a3.64,3.64,0,0,1,2.26.83l-0.58.78a2.71,2.71,0,0,0-1.67-.65,1.13,1.13,0,0,0-1.33,1c0,0.68.79,0.95,1.62,1.26,1,0.39,2.22.82,2.22,2.2,0,1.19-.95,2.18-2.67,2.18a4.39,4.39,0,0,1-2.71-1Z"/><path class="cls-1" d="M57.51,719.44c1.79,0,3.38,1.4,3.38,3.84s-1.59,3.81-3.37,3.81-3.37-1.4-3.37-3.81S55.72,719.44,57.51,719.44Zm0,6.63c1.26,0,2.1-1.12,2.1-2.79s-0.84-2.82-2.1-2.82-2.1,1.14-2.1,2.82S56.26,726.07,57.51,726.07Z"/><path class="cls-1" d="M65.77,719.44a3,3,0,0,1,2.13.87l-0.62.79a2.2,2.2,0,0,0-1.47-.65c-1.32,0-2.28,1.14-2.28,2.82s0.92,2.79,2.25,2.79a2.6,2.6,0,0,0,1.71-.73l0.55,0.81a3.61,3.61,0,0,1-2.37.95c-1.93,0-3.42-1.4-3.42-3.81A3.53,3.53,0,0,1,65.77,719.44Z"/><path class="cls-1" d="M69.42,717.32a0.86,0.86,0,0,1,1.71,0A0.86,0.86,0,0,1,69.42,717.32Zm0.22,2.29h1.23v7.29H69.64v-7.29Z"/><path class="cls-1" d="M77.46,722.29c0-.93-0.31-1.83-1.5-1.83a3.93,3.93,0,0,0-2.17.78l-0.5-.85a5.41,5.41,0,0,1,2.87-.94c1.79,0,2.54,1.19,2.54,3v4.47h-1l-0.1-.87h0a4,4,0,0,1-2.42,1.05A2,2,0,0,1,73,725C73,723.43,74.35,722.63,77.46,722.29Zm-2,3.81a3,3,0,0,0,2-1v-2c-2.44.3-3.27,0.9-3.27,1.83A1.12,1.12,0,0,0,75.46,726.1Z"/><path class="cls-1" d="M81,716.23h1.23v9.3c0,0.39.17,0.54,0.34,0.54a1,1,0,0,0,.27,0L83,727a1.66,1.66,0,0,1-.71.12c-0.93,0-1.31-.58-1.31-1.65v-9.21Z"/><path class="cls-1" d="M87.76,716.26h0.9l-4,13H83.76Z"/><path class="cls-1" d="M92.35,719.44c1.86,0,2.91,1.33,2.91,3.42a4.43,4.43,0,0,1,0,.67H90.3a2.43,2.43,0,0,0,2.43,2.56,3.3,3.3,0,0,0,1.81-.57L95,726.34a4.34,4.34,0,0,1-2.4.75,3.49,3.49,0,0,1-3.49-3.81C89.08,720.89,90.69,719.44,92.35,719.44Zm1.83,3.28c0-1.48-.66-2.31-1.8-2.31a2.27,2.27,0,0,0-2.1,2.31h3.9Z"/><path class="cls-1" d="M97.06,719.62h1l0.1,1h0a3.44,3.44,0,0,1,2.45-1.23c1.53,0,2.22,1,2.22,2.85v4.62h-1.23v-4.45c0-1.37-.42-2-1.38-2a2.79,2.79,0,0,0-2,1.13v5.28H97.06v-7.29Z"/><path class="cls-1" d="M104.22,719.62h1.28l1.38,4.14c0.21,0.72.45,1.46,0.67,2.15h0.06c0.21-.69.45-1.42,0.66-2.15l1.38-4.14h1.22l-2.58,7.29h-1.44Z"/><path class="cls-1" d="M112,717.32a0.86,0.86,0,0,1,1.71,0A0.86,0.86,0,0,1,112,717.32Zm0.22,2.29h1.23v7.29h-1.23v-7.29Z"/><path class="cls-1" d="M116,719.62h1l0.1,1.32h0a2.49,2.49,0,0,1,2.07-1.5,1.81,1.81,0,0,1,.78.15l-0.24,1.08a2,2,0,0,0-.71-0.12c-0.62,0-1.35.45-1.84,1.68v4.68H116v-7.29Z"/><path class="cls-1" d="M123.85,719.44c1.79,0,3.38,1.4,3.38,3.84s-1.59,3.81-3.37,3.81-3.37-1.4-3.37-3.81S122.07,719.44,123.85,719.44Zm0,6.63c1.26,0,2.1-1.12,2.1-2.79s-0.84-2.82-2.1-2.82-2.1,1.14-2.1,2.82S122.61,726.07,123.85,726.07Z"/><path class="cls-1" d="M129.15,719.62h1l0.1,1h0a3.44,3.44,0,0,1,2.45-1.23c1.53,0,2.22,1,2.22,2.85v4.62h-1.23v-4.45c0-1.37-.42-2-1.38-2a2.79,2.79,0,0,0-2,1.13v5.28h-1.23v-7.29Z"/><path class="cls-1" d="M137.35,719.62h1l0.1,1h0a3.21,3.21,0,0,1,2.27-1.23,1.91,1.91,0,0,1,2,1.4,3.44,3.44,0,0,1,2.4-1.4c1.5,0,2.22,1,2.22,2.85v4.62h-1.23v-4.45c0-1.37-.43-2-1.35-2a2.67,2.67,0,0,0-1.83,1.13v5.28h-1.23v-4.45c0-1.37-.43-2-1.36-2a2.73,2.73,0,0,0-1.83,1.13v5.28h-1.23v-7.29Z"/><path class="cls-1" d="M152.52,719.44c1.86,0,2.91,1.33,2.91,3.42a4.43,4.43,0,0,1,0,.67h-4.92a2.43,2.43,0,0,0,2.43,2.56,3.3,3.3,0,0,0,1.81-.57l0.44,0.81a4.34,4.34,0,0,1-2.4.75,3.49,3.49,0,0,1-3.49-3.81C149.25,720.89,150.85,719.44,152.52,719.44Zm1.83,3.28c0-1.48-.66-2.31-1.8-2.31a2.27,2.27,0,0,0-2.1,2.31h3.9Z"/><path class="cls-1" d="M157.22,719.62h1l0.1,1h0a3.43,3.43,0,0,1,2.44-1.23c1.53,0,2.22,1,2.22,2.85v4.62h-1.23v-4.45c0-1.37-.42-2-1.38-2a2.79,2.79,0,0,0-2,1.13v5.28h-1.23v-7.29Z"/><path class="cls-1" d="M165.64,720.62h-1.08v-0.93l1.14-.07,0.15-2h1v2h2v1h-2v4c0,0.9.29,1.41,1.13,1.41a2.66,2.66,0,0,0,.83-0.19l0.24,0.93a4.51,4.51,0,0,1-1.35.27c-1.56,0-2.08-1-2.08-2.43v-4Z"/><path class="cls-1" d="M174.36,722.29c0-.93-0.31-1.83-1.5-1.83a3.93,3.93,0,0,0-2.17.78l-0.5-.85a5.41,5.41,0,0,1,2.87-.94c1.79,0,2.54,1.19,2.54,3v4.47h-1l-0.1-.87h0a4,4,0,0,1-2.42,1.05,2,2,0,0,1-2.14-2.07C169.87,723.43,171.25,722.63,174.36,722.29Zm-2,3.81a3,3,0,0,0,2-1v-2c-2.44.3-3.27,0.9-3.27,1.83A1.12,1.12,0,0,0,172.36,726.1Z"/><path class="cls-1" d="M177.91,716.23h1.23v9.3c0,0.39.17,0.54,0.34,0.54a1,1,0,0,0,.27,0l0.17,0.93a1.66,1.66,0,0,1-.71.12c-0.93,0-1.31-.58-1.31-1.65v-9.21Z"/><path class="cls-1" d="M184.77,719.62h1l0.1,1.32h0a2.49,2.49,0,0,1,2.07-1.5,1.81,1.81,0,0,1,.78.15l-0.24,1.08a2,2,0,0,0-.71-0.12c-0.62,0-1.35.45-1.84,1.68v4.68h-1.23v-7.29Z"/><path class="cls-1" d="M192.55,719.44c1.86,0,2.91,1.33,2.91,3.42a4.43,4.43,0,0,1,0,.67H190.5a2.43,2.43,0,0,0,2.43,2.56,3.3,3.3,0,0,0,1.81-.57l0.44,0.81a4.34,4.34,0,0,1-2.4.75,3.49,3.49,0,0,1-3.49-3.81C189.28,720.89,190.89,719.44,192.55,719.44Zm1.83,3.28c0-1.48-.66-2.31-1.8-2.31a2.27,2.27,0,0,0-2.1,2.31h3.9Z"/><path class="cls-1" d="M200.23,719.44a3,3,0,0,1,2.13.87l-0.62.79a2.2,2.2,0,0,0-1.47-.65c-1.32,0-2.28,1.14-2.28,2.82s0.92,2.79,2.25,2.79a2.6,2.6,0,0,0,1.71-.73l0.55,0.81a3.61,3.61,0,0,1-2.37.95c-1.93,0-3.42-1.4-3.42-3.81A3.53,3.53,0,0,1,200.23,719.44Z"/><path class="cls-1" d="M206.62,719.44c1.79,0,3.38,1.4,3.38,3.84s-1.59,3.81-3.37,3.81-3.37-1.4-3.37-3.81S204.84,719.44,206.62,719.44Zm0,6.63c1.26,0,2.1-1.12,2.1-2.79s-0.84-2.82-2.1-2.82-2.1,1.14-2.1,2.82S205.38,726.07,206.62,726.07Z"/><path class="cls-1" d="M211.92,719.62h1l0.1,1h0a3.21,3.21,0,0,1,2.27-1.23,1.91,1.91,0,0,1,2,1.4,3.44,3.44,0,0,1,2.4-1.4c1.5,0,2.22,1,2.22,2.85v4.62h-1.23v-4.45c0-1.37-.43-2-1.35-2a2.67,2.67,0,0,0-1.83,1.13v5.28h-1.23v-4.45c0-1.37-.43-2-1.36-2a2.73,2.73,0,0,0-1.83,1.13v5.28h-1.23v-7.29Z"/><path class="cls-1" d="M224.35,719.62h1l0.1,1h0a3.2,3.2,0,0,1,2.26-1.23,1.91,1.91,0,0,1,2,1.4,3.44,3.44,0,0,1,2.4-1.4c1.5,0,2.22,1,2.22,2.85v4.62h-1.23v-4.45c0-1.37-.43-2-1.35-2a2.67,2.67,0,0,0-1.83,1.13v5.28h-1.23v-4.45c0-1.37-.43-2-1.36-2a2.73,2.73,0,0,0-1.83,1.13v5.28h-1.23v-7.29Z"/><path class="cls-1" d="M239.51,719.44c1.86,0,2.91,1.33,2.91,3.42a4.43,4.43,0,0,1,0,.67h-4.92a2.43,2.43,0,0,0,2.43,2.56,3.3,3.3,0,0,0,1.81-.57l0.44,0.81a4.34,4.34,0,0,1-2.4.75,3.49,3.49,0,0,1-3.49-3.81C236.25,720.89,237.85,719.44,239.51,719.44Zm1.83,3.28c0-1.48-.66-2.31-1.8-2.31a2.27,2.27,0,0,0-2.1,2.31h3.9Z"/><path class="cls-1" d="M244.22,719.62h1l0.1,1h0a3.44,3.44,0,0,1,2.45-1.23c1.53,0,2.22,1,2.22,2.85v4.62h-1.23v-4.45c0-1.37-.42-2-1.38-2a2.79,2.79,0,0,0-2,1.13v5.28h-1.23v-7.29Z"/><path class="cls-1" d="M255.07,719.44a3,3,0,0,1,2,.84L257,719v-2.81h1.25v10.68h-1l-0.11-.85h0a3.29,3.29,0,0,1-2.21,1c-1.83,0-3-1.38-3-3.81S253.4,719.44,255.07,719.44Zm0.12,6.61a2.47,2.47,0,0,0,1.86-1v-3.81a2.54,2.54,0,0,0-1.77-.76c-1.17,0-2.1,1.13-2.1,2.79S253.91,726.05,255.19,726.05Z"/><path class="cls-1" d="M264.88,722.29c0-.93-0.31-1.83-1.5-1.83a3.93,3.93,0,0,0-2.17.78l-0.5-.85a5.41,5.41,0,0,1,2.87-.94c1.79,0,2.54,1.19,2.54,3v4.47h-1L265,726h0a4,4,0,0,1-2.42,1.05,2,2,0,0,1-2.14-2.07C260.39,723.43,261.77,722.63,264.88,722.29Zm-2,3.81a3,3,0,0,0,2-1v-2c-2.44.3-3.27,0.9-3.27,1.83A1.12,1.12,0,0,0,262.88,726.1Z"/><path class="cls-1" d="M268.64,720.62h-1.08v-0.93l1.14-.07,0.15-2h1v2h2v1h-2v4c0,0.9.29,1.41,1.13,1.41a2.66,2.66,0,0,0,.83-0.19l0.24,0.93a4.51,4.51,0,0,1-1.35.27c-1.56,0-2.08-1-2.08-2.43v-4Z"/><path class="cls-1" d="M273.28,717.32a0.86,0.86,0,0,1,1.71,0A0.86,0.86,0,0,1,273.28,717.32Zm0.22,2.29h1.23v7.29H273.5v-7.29Z"/><path class="cls-1" d="M280,719.44c1.79,0,3.38,1.4,3.38,3.84s-1.59,3.81-3.37,3.81-3.37-1.4-3.37-3.81S278.24,719.44,280,719.44Zm0,6.63c1.26,0,2.1-1.12,2.1-2.79s-0.84-2.82-2.1-2.82-2.1,1.14-2.1,2.82S278.78,726.07,280,726.07Z"/><path class="cls-1" d="M285.32,719.62h1l0.1,1h0a3.44,3.44,0,0,1,2.45-1.23c1.53,0,2.22,1,2.22,2.85v4.62h-1.23v-4.45c0-1.37-.42-2-1.38-2a2.79,2.79,0,0,0-2,1.13v5.28h-1.23v-7.29Z"/><path class="cls-1" d="M293.33,725.26a3.28,3.28,0,0,0,2.14.87,1.22,1.22,0,0,0,1.44-1.14c0-.75-0.87-1.08-1.67-1.38-1-.37-2.17-0.87-2.17-2.1s0.93-2.07,2.5-2.07a3.64,3.64,0,0,1,2.26.83l-0.58.78a2.71,2.71,0,0,0-1.67-.65,1.13,1.13,0,0,0-1.33,1c0,0.68.79,0.95,1.62,1.26,1,0.39,2.22.82,2.22,2.2,0,1.19-.95,2.18-2.67,2.18a4.39,4.39,0,0,1-2.71-1Z"/><path class="cls-1" d="M86,737.44c1.79,0,3.38,1.4,3.38,3.84s-1.59,3.81-3.37,3.81-3.37-1.4-3.37-3.81S84.25,737.44,86,737.44Zm0,6.63c1.26,0,2.1-1.12,2.1-2.79s-0.84-2.82-2.1-2.82-2.1,1.14-2.1,2.82S84.79,744.07,86,744.07Z"/><path class="cls-1" d="M91.33,737.62h1l0.1,1h0a3.43,3.43,0,0,1,2.44-1.23c1.53,0,2.22,1,2.22,2.85v4.62H95.94v-4.45c0-1.37-.42-2-1.38-2a2.79,2.79,0,0,0-2,1.13v5.28H91.33v-7.29Z"/><path class="cls-1" d="M105.54,737.44a3,3,0,0,1,2.13.87l-0.62.79a2.2,2.2,0,0,0-1.47-.65c-1.32,0-2.28,1.14-2.28,2.82s0.92,2.79,2.25,2.79a2.6,2.6,0,0,0,1.71-.73l0.55,0.81a3.61,3.61,0,0,1-2.37.95c-1.93,0-3.42-1.4-3.42-3.81A3.53,3.53,0,0,1,105.54,737.44Z"/><path class="cls-1" d="M111.93,737.44c1.79,0,3.38,1.4,3.38,3.84s-1.59,3.81-3.37,3.81-3.37-1.4-3.37-3.81S110.14,737.44,111.93,737.44Zm0,6.63c1.26,0,2.1-1.12,2.1-2.79s-0.84-2.82-2.1-2.82-2.1,1.14-2.1,2.82S110.68,744.07,111.93,744.07Z"/><path class="cls-1" d="M117.22,737.62h1l0.1,1h0a3.2,3.2,0,0,1,2.26-1.23,1.91,1.91,0,0,1,2,1.4,3.44,3.44,0,0,1,2.4-1.4c1.5,0,2.22,1,2.22,2.85v4.62h-1.23v-4.45c0-1.37-.43-2-1.35-2a2.67,2.67,0,0,0-1.83,1.13v5.28h-1.23v-4.45c0-1.37-.43-2-1.36-2a2.73,2.73,0,0,0-1.83,1.13v5.28h-1.23v-7.29Z"/><path class="cls-1" d="M129.66,737.62h1l0.1,1h0a3.2,3.2,0,0,1,2.26-1.23,1.91,1.91,0,0,1,2,1.4,3.44,3.44,0,0,1,2.4-1.4c1.5,0,2.22,1,2.22,2.85v4.62h-1.23v-4.45c0-1.37-.43-2-1.35-2a2.67,2.67,0,0,0-1.83,1.13v5.28h-1.23v-4.45c0-1.37-.43-2-1.36-2a2.73,2.73,0,0,0-1.83,1.13v5.28h-1.23v-7.29Z"/><path class="cls-1" d="M144.82,737.44c1.86,0,2.91,1.33,2.91,3.42a4.43,4.43,0,0,1,0,.67h-4.92a2.43,2.43,0,0,0,2.43,2.56,3.3,3.3,0,0,0,1.81-.57l0.44,0.81a4.34,4.34,0,0,1-2.4.75,3.49,3.49,0,0,1-3.49-3.81C141.55,738.89,143.16,737.44,144.82,737.44Zm1.83,3.28c0-1.48-.66-2.31-1.8-2.31a2.27,2.27,0,0,0-2.1,2.31h3.9Z"/><path class="cls-1" d="M149.53,737.62h1l0.1,1.32h0a2.49,2.49,0,0,1,2.07-1.5,1.81,1.81,0,0,1,.78.15l-0.24,1.08a2,2,0,0,0-.71-0.12c-0.62,0-1.35.45-1.84,1.68v4.68h-1.23v-7.29Z"/><path class="cls-1" d="M157.56,737.44a3,3,0,0,1,2.13.87l-0.62.79a2.2,2.2,0,0,0-1.47-.65c-1.32,0-2.28,1.14-2.28,2.82s0.92,2.79,2.25,2.79a2.6,2.6,0,0,0,1.71-.73l0.55,0.81a3.61,3.61,0,0,1-2.37.95c-1.93,0-3.42-1.4-3.42-3.81A3.53,3.53,0,0,1,157.56,737.44Z"/><path class="cls-1" d="M161.2,735.32a0.86,0.86,0,0,1,1.71,0A0.86,0.86,0,0,1,161.2,735.32Zm0.22,2.29h1.23v7.29h-1.23v-7.29Z"/><path class="cls-1" d="M169.24,740.29c0-.93-0.31-1.83-1.5-1.83a3.93,3.93,0,0,0-2.17.78l-0.5-.85a5.41,5.41,0,0,1,2.87-.94c1.79,0,2.54,1.19,2.54,3v4.47h-1l-0.1-.87h0a4,4,0,0,1-2.42,1.05,2,2,0,0,1-2.14-2.07C164.76,741.43,166.14,740.63,169.24,740.29Zm-2,3.81a3,3,0,0,0,2-1v-2c-2.44.3-3.27,0.9-3.27,1.83A1.12,1.12,0,0,0,167.25,744.1Z"/><path class="cls-1" d="M172.8,734.23H174v9.3c0,0.39.17,0.54,0.34,0.54a1,1,0,0,0,.27,0l0.17,0.93a1.66,1.66,0,0,1-.71.12c-0.93,0-1.31-.58-1.31-1.65v-9.21Z"/><path class="cls-1" d="M178.78,737.62H180l1.08,4.21c0.17,0.69.3,1.35,0.43,2h0.06c0.16-.68.31-1.35,0.49-2l1.13-4.21h1.2l1.14,4.21c0.18,0.69.35,1.35,0.51,2h0.06c0.17-.68.3-1.33,0.45-2l1.06-4.21h1.17l-1.95,7.29h-1.5l-1-3.92c-0.18-.69-0.32-1.36-0.5-2.1h-0.06c-0.17.73-.31,1.42-0.51,2.11l-1,3.9h-1.44Z"/><path class="cls-1" d="M193.2,737.44c1.79,0,3.38,1.4,3.38,3.84s-1.59,3.81-3.37,3.81-3.37-1.4-3.37-3.81S191.41,737.44,193.2,737.44Zm0,6.63c1.26,0,2.1-1.12,2.1-2.79s-0.84-2.82-2.1-2.82-2.1,1.14-2.1,2.82S192,744.07,193.2,744.07Z"/><path class="cls-1" d="M198.49,737.62h1l0.1,1.32h0a2.49,2.49,0,0,1,2.07-1.5,1.81,1.81,0,0,1,.78.15l-0.24,1.08a2,2,0,0,0-.71-0.12c-0.62,0-1.35.45-1.84,1.68v4.68h-1.23v-7.29Z"/><path class="cls-1" d="M203.7,734.23h1.22v7.23h0l3.1-3.84h1.37L207,740.54l2.78,4.36h-1.35l-2.13-3.51L204.91,743v1.92H203.7V734.23Z"/><path class="cls-1" d="M215.38,745.52V748h-1.23V737.62h1l0.1,0.84h0a3.77,3.77,0,0,1,2.32-1c1.88,0,2.88,1.46,2.88,3.72,0,2.48-1.48,3.93-3.15,3.93a3.38,3.38,0,0,1-2-.84Zm1.79-1.47c1.2,0,2.08-1.09,2.08-2.9,0-1.6-.54-2.68-1.92-2.68a3.07,3.07,0,0,0-2,1v3.82A2.88,2.88,0,0,0,217.17,744.05Z"/><path class="cls-1" d="M222.48,737.62h1l0.1,1.32h0a2.49,2.49,0,0,1,2.07-1.5,1.81,1.81,0,0,1,.78.15l-0.24,1.08a2,2,0,0,0-.71-0.12c-0.62,0-1.35.45-1.84,1.68v4.68h-1.23v-7.29Z"/><path class="cls-1" d="M230.37,737.44c1.79,0,3.38,1.4,3.38,3.84s-1.59,3.81-3.37,3.81-3.37-1.4-3.37-3.81S228.58,737.44,230.37,737.44Zm0,6.63c1.26,0,2.1-1.12,2.1-2.79s-0.84-2.82-2.1-2.82-2.1,1.14-2.1,2.82S229.12,744.07,230.37,744.07Z"/><path class="cls-1" d="M235.68,737.62h1.23v8.11c0,1.48-.54,2.43-2,2.43a2.9,2.9,0,0,1-1.08-.19l0.25-.93a2.27,2.27,0,0,0,.69.12c0.72,0,.9-0.54.9-1.42v-8.11Zm-0.23-2.29a0.85,0.85,0,1,1,.86.79A0.81,0.81,0,0,1,235.45,735.32Z"/><path class="cls-1" d="M242.1,737.44c1.86,0,2.91,1.33,2.91,3.42a4.43,4.43,0,0,1,0,.67H240a2.43,2.43,0,0,0,2.43,2.56,3.3,3.3,0,0,0,1.81-.57l0.44,0.81a4.34,4.34,0,0,1-2.4.75,3.49,3.49,0,0,1-3.49-3.81C238.83,738.89,240.43,737.44,242.1,737.44Zm1.83,3.28c0-1.48-.66-2.31-1.8-2.31a2.27,2.27,0,0,0-2.1,2.31h3.9Z"/><path class="cls-1" d="M249.78,737.44a3,3,0,0,1,2.13.87l-0.62.79a2.2,2.2,0,0,0-1.47-.65c-1.32,0-2.28,1.14-2.28,2.82s0.92,2.79,2.25,2.79a2.6,2.6,0,0,0,1.71-.73l0.55,0.81a3.61,3.61,0,0,1-2.37.95c-1.93,0-3.42-1.4-3.42-3.81A3.53,3.53,0,0,1,249.78,737.44Z"/><path class="cls-1" d="M253.85,738.62h-1.08v-0.93l1.14-.07,0.15-2h1v2h2v1h-2v4c0,0.9.29,1.41,1.13,1.41a2.66,2.66,0,0,0,.83-0.19l0.24,0.93a4.51,4.51,0,0,1-1.35.27c-1.56,0-2.08-1-2.08-2.43v-4Z"/><path class="cls-1" d="M258.52,743.26a3.28,3.28,0,0,0,2.14.87,1.22,1.22,0,0,0,1.44-1.14c0-.75-0.87-1.08-1.67-1.38-1-.37-2.17-0.87-2.17-2.1s0.93-2.07,2.5-2.07a3.64,3.64,0,0,1,2.26.83l-0.58.78a2.71,2.71,0,0,0-1.67-.65,1.13,1.13,0,0,0-1.33,1c0,0.68.79,0.95,1.62,1.26,1,0.39,2.22.82,2.22,2.2,0,1.19-.95,2.18-2.67,2.18a4.39,4.39,0,0,1-2.71-1Z"/><circle class="cls-5" cx="252.3" cy="621.2" r="20.45"/><path class="cls-6" d="M132.72,633.67a12.47,12.47,0,1,1,12.47-12.47A12.48,12.48,0,0,1,132.72,633.67Zm0-23.32a10.86,10.86,0,1,0,10.86,10.85A10.87,10.87,0,0,0,132.72,610.34Z"/><circle class="cls-7" cx="229.63" cy="621.2" r="49.89"/><polygon class="cls-1" points="160.84 624.46 160.3 623.86 163.25 621.2 160.38 618.44 160.94 617.86 164.44 621.22 160.84 624.46"/><path class="cls-1" d="M170.26,549.82a3,3,0,0,0,2.08,1c0.93,0,1.54-.4,1.54-1.12s-0.5-1.36-2.56-1.36v-1.56c1.71,0,2.25-.51,2.25-1.27a1,1,0,0,0-1.17-1,2.65,2.65,0,0,0-1.79.84l-1.11-1.35a4.47,4.47,0,0,1,3-1.21c2,0,3.29.94,3.29,2.61a2.24,2.24,0,0,1-1.59,2.11v0.06a2.36,2.36,0,0,1,1.89,2.33c0,1.77-1.62,2.77-3.54,2.77a4.14,4.14,0,0,1-3.31-1.35Z"/></svg>