<svg id="Layer_1" data-name="Layer 1" xmlns="http://www.w3.org/2000/svg" xmlns:xlink="http://www.w3.org/1999/xlink" viewBox="0 0 353.69 425.9"><defs><style>.cls-1{fill:#231f20;}.cls-2,.cls-3,.cls-5,.cls-6,.cls-7,.cls-8{fill:none;stroke-miterlimit:10;}.cls-2,.cls-3,.cls-5,.cls-6,.cls-7{stroke:#5c9ad2;}.cls-2,.cls-3{stroke-width:0.54px;}.cls-3{stroke-dasharray:1.08 1.08;}.cls-4{fill:#5c9ad2;}.cls-5,.cls-6,.cls-7{stroke-width:1.16px;}.cls-5{stroke-dasharray:1.16 1.16;}.cls-7{stroke-dasharray:1.17 1.17;}.cls-8{stroke-width:1.08px;stroke:url(#linear-gradient);}</style><linearGradient id="linear-gradient" x1="131.76" y1="266.13" x2="131.76" y2="152.75" gradientUnits="userSpaceOnUse"><stop offset="0.01" stop-color="#fff"/><stop offset="0.06" stop-color="#e6eff8"/><stop offset="0.14" stop-color="#c1d9ee"/><stop offset="0.24" stop-color="#a2c5e5"/><stop offset="0.34" stop-color="#88b5de"/><stop offset="0.44" stop-color="#74a9d9"/><stop offset="0.57" stop-color="#67a1d5"/><stop offset="0.73" stop-color="#5e9bd3"/><stop offset="1" stop-color="#5c9ad2"/></linearGradient></defs><title>thesis_final_website</title><path class="cls-1" d="M53.21,354.71h3c2.17,0,3.63.73,3.63,2.89s-1.49,3-3.63,3H54.47v3.9H53.21v-9.84Zm2.87,4.92c1.72,0,2.55-.63,2.55-2s-0.85-1.89-2.55-1.89H54.47v3.91h1.61Z"/><path class="cls-1" d="M64.18,357.08c1.79,0,3.38,1.4,3.38,3.84s-1.59,3.81-3.37,3.81-3.37-1.4-3.37-3.81S62.39,357.08,64.18,357.08Zm0,6.63c1.26,0,2.1-1.12,2.1-2.79s-0.84-2.82-2.1-2.82-2.1,1.14-2.1,2.82S62.93,363.71,64.18,363.71Z"/><path class="cls-1" d="M70.7,365.16v2.46H69.47V357.26h1l0.1,0.84h0a3.77,3.77,0,0,1,2.32-1c1.88,0,2.88,1.46,2.88,3.72,0,2.48-1.48,3.93-3.15,3.93a3.38,3.38,0,0,1-2-.84Zm1.79-1.47c1.2,0,2.08-1.09,2.08-2.9,0-1.6-.54-2.68-1.92-2.68a3.07,3.07,0,0,0-2,1v3.82A2.88,2.88,0,0,0,72.49,363.69Z"/><path class="cls-1" d="M77.69,357.26h1.25v4.45c0,1.37.4,2,1.36,2a2.48,2.48,0,0,0,2-1.23v-5.17H83.5v7.29h-1l-0.11-1.14h0a3.08,3.08,0,0,1-2.4,1.32c-1.55,0-2.24-1-2.24-2.85v-4.62Z"/><path class="cls-1" d="M86,353.87h1.23v9.3c0,0.39.17,0.54,0.34,0.54a1,1,0,0,0,.27,0L88,364.61a1.66,1.66,0,0,1-.71.12c-0.93,0-1.31-.58-1.31-1.65v-9.21Z"/><path class="cls-1" d="M93.91,359.93c0-.93-0.31-1.83-1.5-1.83a3.93,3.93,0,0,0-2.17.78l-0.5-.85a5.42,5.42,0,0,1,2.87-.94c1.79,0,2.54,1.19,2.54,3v4.47h-1l-0.1-.87h0a4,4,0,0,1-2.42,1.05,2,2,0,0,1-2.14-2.07C89.42,361.07,90.8,360.27,93.91,359.93Zm-2,3.81a3,3,0,0,0,2-1v-2c-2.44.3-3.27,0.9-3.27,1.83A1.12,1.12,0,0,0,91.91,363.74Z"/><path class="cls-1" d="M97.46,357.26h1l0.1,1.32h0a2.49,2.49,0,0,1,2.07-1.5,1.81,1.81,0,0,1,.78.15l-0.24,1.08a2,2,0,0,0-.71-0.12c-0.62,0-1.35.45-1.84,1.68v4.68H97.46v-7.29Z"/><path class="cls-1" d="M102.44,355a0.86,0.86,0,0,1,1.71,0A0.86,0.86,0,0,1,102.44,355Zm0.22,2.29h1.23v7.29h-1.23v-7.29Z"/><path class="cls-1" d="M106.57,358.26h-1.08v-0.93l1.14-.07,0.15-2h1v2h2v1h-2v4c0,0.9.29,1.41,1.13,1.41a2.66,2.66,0,0,0,.83-0.19l0.24,0.93a4.51,4.51,0,0,1-1.35.27c-1.56,0-2.08-1-2.08-2.43v-4Z"/><path class="cls-1" d="M111.49,366.66a1.87,1.87,0,0,0,1.65-1.56l0.17-.54-2.92-7.3h1.28l1.48,4c0.23,0.63.48,1.38,0.71,2.06h0.06c0.21-.66.42-1.41,0.61-2.06l1.31-4H117l-2.75,7.89c-0.51,1.44-1.26,2.53-2.73,2.53a2.42,2.42,0,0,1-.85-0.15l0.24-1A2.14,2.14,0,0,0,111.49,366.66Z"/><path class="cls-1" d="M125.59,359.93c0-.93-0.31-1.83-1.5-1.83a3.93,3.93,0,0,0-2.17.78l-0.5-.85a5.42,5.42,0,0,1,2.87-.94c1.79,0,2.54,1.19,2.54,3v4.47h-1l-0.1-.87h0a4,4,0,0,1-2.42,1.05,2,2,0,0,1-2.14-2.07C121.1,361.07,122.48,360.27,125.59,359.93Zm-2,3.81a3,3,0,0,0,2-1v-2c-2.44.3-3.27,0.9-3.27,1.83A1.12,1.12,0,0,0,123.59,363.74Z"/><path class="cls-1" d="M129.14,357.26h1l0.1,1h0a3.44,3.44,0,0,1,2.45-1.23c1.53,0,2.22,1,2.22,2.85v4.62h-1.23v-4.45c0-1.37-.42-2-1.38-2a2.79,2.79,0,0,0-2,1.13v5.28h-1.23v-7.29Z"/><path class="cls-1" d="M140,357.08a3,3,0,0,1,2,.84L142,356.67v-2.81h1.25v10.68h-1l-0.11-.85h0a3.29,3.29,0,0,1-2.21,1c-1.83,0-3-1.38-3-3.81S138.32,357.08,140,357.08Zm0.12,6.61a2.47,2.47,0,0,0,1.86-1v-3.81a2.54,2.54,0,0,0-1.77-.76c-1.17,0-2.1,1.13-2.1,2.79S138.83,363.69,140.11,363.69Z"/><path class="cls-1" d="M148.48,355a0.86,0.86,0,0,1,1.71,0A0.86,0.86,0,0,1,148.48,355Zm0.22,2.29h1.23v7.29H148.7v-7.29Z"/><path class="cls-1" d="M152.39,357.26h1l0.1,1h0a3.21,3.21,0,0,1,2.27-1.23,1.91,1.91,0,0,1,2,1.4,3.44,3.44,0,0,1,2.4-1.4c1.5,0,2.22,1,2.22,2.85v4.62h-1.23v-4.45c0-1.37-.43-2-1.35-2a2.67,2.67,0,0,0-1.83,1.13v5.28h-1.23v-4.45c0-1.37-.43-2-1.36-2a2.73,2.73,0,0,0-1.83,1.13v5.28h-1.23v-7.29Z"/><path class="cls-1" d="M166.06,365.16v2.46h-1.23V357.26h1l0.1,0.84h0a3.77,3.77,0,0,1,2.32-1c1.88,0,2.88,1.46,2.88,3.72,0,2.48-1.48,3.93-3.15,3.93a3.38,3.38,0,0,1-2-.84Zm1.79-1.47c1.2,0,2.08-1.09,2.08-2.9,0-1.6-.54-2.68-1.92-2.68a3.07,3.07,0,0,0-2,1v3.82A2.88,2.88,0,0,0,167.84,363.69Z"/><path class="cls-1" d="M177.07,359.93c0-.93-0.31-1.83-1.5-1.83a3.93,3.93,0,0,0-2.17.78l-0.5-.85a5.42,5.42,0,0,1,2.87-.94c1.79,0,2.54,1.19,2.54,3v4.47h-1l-0.1-.87h0a4,4,0,0,1-2.42,1.05,2,2,0,0,1-2.14-2.07C172.58,361.07,174,360.27,177.07,359.93Zm-2,3.81a3,3,0,0,0,2-1v-2c-2.44.3-3.27,0.9-3.27,1.83A1.12,1.12,0,0,0,175.07,363.74Z"/><path class="cls-1" d="M183.59,357.08a3,3,0,0,1,2.13.87l-0.62.79a2.2,2.2,0,0,0-1.47-.65c-1.32,0-2.28,1.14-2.28,2.82s0.92,2.79,2.25,2.79a2.6,2.6,0,0,0,1.71-.73l0.55,0.81a3.61,3.61,0,0,1-2.37.95c-1.93,0-3.42-1.4-3.42-3.81A3.53,3.53,0,0,1,183.59,357.08Z"/><path class="cls-1" d="M187.67,358.26h-1.08v-0.93l1.14-.07,0.15-2h1v2h2v1h-2v4c0,0.9.29,1.41,1.13,1.41a2.66,2.66,0,0,0,.83-0.19l0.24,0.93a4.51,4.51,0,0,1-1.35.27c-1.56,0-2.08-1-2.08-2.43v-4Z"/><path class="cls-1" d="M198.4,357.08c1.79,0,3.38,1.4,3.38,3.84s-1.59,3.81-3.37,3.81-3.37-1.4-3.37-3.81S196.61,357.08,198.4,357.08Zm0,6.63c1.26,0,2.1-1.12,2.1-2.79s-0.84-2.82-2.1-2.82-2.1,1.14-2.1,2.82S197.15,363.71,198.4,363.71Z"/><path class="cls-1" d="M207,354.87a2.05,2.05,0,0,0-.83-0.18c-0.69,0-1,.48-1,1.41v1.16h1.54v1h-1.54v6.28H203.9v-6.28h-1v-0.93l1-.07V356.1c0-1.48.67-2.41,2.13-2.41a3.31,3.31,0,0,1,1.21.24Z"/><path class="cls-1" d="M210.91,362.9a3.28,3.28,0,0,0,2.14.87,1.22,1.22,0,0,0,1.44-1.14c0-.75-0.87-1.08-1.67-1.38-1-.37-2.17-0.87-2.17-2.1s0.93-2.07,2.5-2.07a3.64,3.64,0,0,1,2.26.83l-0.58.78a2.71,2.71,0,0,0-1.67-.65,1.13,1.13,0,0,0-1.33,1c0,0.68.79,0.95,1.62,1.26,1,0.39,2.22.82,2.22,2.2,0,1.19-.95,2.18-2.67,2.18a4.39,4.39,0,0,1-2.71-1Z"/><path class="cls-1" d="M220.12,357.08c1.86,0,2.91,1.33,2.91,3.42a4.43,4.43,0,0,1,0,.67h-4.92a2.43,2.43,0,0,0,2.43,2.56,3.3,3.3,0,0,0,1.81-.57l0.44,0.81a4.34,4.34,0,0,1-2.4.75,3.49,3.49,0,0,1-3.49-3.81C216.85,358.53,218.45,357.08,220.12,357.08Zm1.83,3.28c0-1.48-.66-2.31-1.8-2.31a2.27,2.27,0,0,0-2.1,2.31h3.9Z"/><path class="cls-1" d="M224.83,357.26h1l0.1,1.32h0a2.49,2.49,0,0,1,2.07-1.5,1.81,1.81,0,0,1,.78.15l-0.24,1.08a2,2,0,0,0-.71-0.12c-0.62,0-1.35.45-1.84,1.68v4.68h-1.23v-7.29Z"/><path class="cls-1" d="M229.26,357.26h1.28l1.38,4.14c0.21,0.72.45,1.46,0.67,2.15h0.06c0.21-.69.45-1.42,0.66-2.15l1.38-4.14h1.22l-2.58,7.29h-1.44Z"/><path class="cls-1" d="M237.1,355a0.86,0.86,0,0,1,1.71,0A0.86,0.86,0,0,1,237.1,355Zm0.22,2.29h1.23v7.29h-1.23v-7.29Z"/><path class="cls-1" d="M244,357.08a3,3,0,0,1,2.13.87l-0.62.79a2.2,2.2,0,0,0-1.47-.65c-1.32,0-2.28,1.14-2.28,2.82s0.92,2.79,2.25,2.79a2.6,2.6,0,0,0,1.71-.73l0.55,0.81a3.61,3.61,0,0,1-2.37.95c-1.93,0-3.42-1.4-3.42-3.81A3.53,3.53,0,0,1,244,357.08Z"/><path class="cls-1" d="M250.26,357.08c1.86,0,2.91,1.33,2.91,3.42a4.43,4.43,0,0,1,0,.67h-4.92a2.43,2.43,0,0,0,2.43,2.56,3.3,3.3,0,0,0,1.81-.57l0.44,0.81a4.34,4.34,0,0,1-2.4.75,3.49,3.49,0,0,1-3.49-3.81C247,358.53,248.6,357.08,250.26,357.08Zm1.83,3.28c0-1.48-.66-2.31-1.8-2.31a2.27,2.27,0,0,0-2.1,2.31h3.9Z"/><path class="cls-1" d="M260.64,357.08a3,3,0,0,1,2,.84l-0.06-1.24v-2.81h1.25v10.68h-1l-0.11-.85h0a3.29,3.29,0,0,1-2.21,1c-1.83,0-3-1.38-3-3.81S259,357.08,260.64,357.08Zm0.12,6.61a2.47,2.47,0,0,0,1.86-1v-3.81a2.54,2.54,0,0,0-1.77-.76c-1.17,0-2.1,1.13-2.1,2.79S259.49,363.69,260.76,363.69Z"/><path class="cls-1" d="M269.06,357.08c1.86,0,2.91,1.33,2.91,3.42a4.43,4.43,0,0,1,0,.67H267a2.43,2.43,0,0,0,2.43,2.56,3.3,3.3,0,0,0,1.81-.57l0.44,0.81a4.34,4.34,0,0,1-2.4.75,3.49,3.49,0,0,1-3.49-3.81C265.79,358.53,267.39,357.08,269.06,357.08Zm1.83,3.28c0-1.48-.66-2.31-1.8-2.31a2.27,2.27,0,0,0-2.1,2.31h3.9Z"/><path class="cls-1" d="M273.57,362.9a3.28,3.28,0,0,0,2.14.87,1.22,1.22,0,0,0,1.44-1.14c0-.75-0.87-1.08-1.67-1.38-1-.37-2.17-0.87-2.17-2.1s0.93-2.07,2.5-2.07a3.64,3.64,0,0,1,2.26.83l-0.58.78a2.71,2.71,0,0,0-1.67-.65,1.13,1.13,0,0,0-1.33,1c0,0.68.79,0.95,1.62,1.26,1,0.39,2.22.82,2.22,2.2,0,1.19-.95,2.18-2.67,2.18a4.39,4.39,0,0,1-2.71-1Z"/><path class="cls-1" d="M279.83,355a0.86,0.86,0,0,1,1.71,0A0.86,0.86,0,0,1,279.83,355Zm0.22,2.29h1.23v7.29h-1.23v-7.29Z"/><path class="cls-1" d="M284.25,364.29v-0.06a1.35,1.35,0,0,1-.65-1.19,1.71,1.71,0,0,1,.79-1.35v-0.06a2.57,2.57,0,0,1,1.8-4.56,2.91,2.91,0,0,1,1,.18h2.54v0.94h-1.5a2.11,2.11,0,0,1,.6,1.5,2.5,2.5,0,0,1-2.67,2.53,2.55,2.55,0,0,1-1.09-.25,1.1,1.1,0,0,0-.46.87c0,0.46.3,0.79,1.29,0.79h1.41c1.69,0,2.55.52,2.55,1.74s-1.42,2.52-3.69,2.52c-1.78,0-3-.71-3-2A2.1,2.1,0,0,1,284.25,364.29Zm2.13,2.76c1.39,0,2.31-.72,2.31-1.48s-0.53-.9-1.47-0.9H286a3.56,3.56,0,0,1-.95-0.12,1.53,1.53,0,0,0-.75,1.23C284.27,366.56,285.06,367.05,286.38,367.05Zm1.36-7.38a1.55,1.55,0,1,0-3.09,0A1.56,1.56,0,1,0,287.75,359.67Z"/><path class="cls-1" d="M291.3,357.26h1l0.1,1h0a3.44,3.44,0,0,1,2.45-1.23c1.53,0,2.22,1,2.22,2.85v4.62h-1.23v-4.45c0-1.37-.42-2-1.38-2a2.79,2.79,0,0,0-2,1.13v5.28H291.3v-7.29Z"/><path class="cls-1" d="M314.92,64.27H317v-5.5H315.2V57.4a6.63,6.63,0,0,0,2.37-.87h1.62v7.74H321v1.79h-6.06V64.27Z"/><path class="cls-1" d="M314.42,137.65c2.43-2.29,4.14-3.93,4.14-5.28a1.28,1.28,0,0,0-1.35-1.44,2.43,2.43,0,0,0-1.69,1l-1.2-1.18a4,4,0,0,1,3.19-1.52,2.92,2.92,0,0,1,3.15,3c0,1.6-1.5,3.31-3,4.94a14.7,14.7,0,0,1,1.59-.12h1.92v1.86h-6.71v-1.26Z"/><path class="cls-1" d="M315.22,226.58a3,3,0,0,0,2.08,1c0.93,0,1.54-.4,1.54-1.12s-0.5-1.36-2.56-1.36v-1.56c1.71,0,2.25-.51,2.25-1.27a1,1,0,0,0-1.17-1,2.65,2.65,0,0,0-1.79.84l-1.11-1.35a4.47,4.47,0,0,1,3-1.21c2,0,3.29.94,3.29,2.61a2.24,2.24,0,0,1-1.59,2.11v0.06a2.36,2.36,0,0,1,1.89,2.33c0,1.77-1.62,2.77-3.54,2.77A4.14,4.14,0,0,1,314.2,228Z"/><line class="cls-2" x1="330.29" y1="264.41" x2="329.75" y2="264.42"/><line class="cls-3" x1="328.68" y1="264.43" x2="22.9" y2="266.79"/><line class="cls-2" x1="22.36" y1="266.79" x2="21.82" y2="266.8"/><polygon class="cls-4" points="334.09 264.38 328.72 262.24 330.01 264.42 328.75 266.61 334.09 264.38"/><path class="cls-1" d="M29.67,292.85c2.73-2.77,4.09-4.32,4.09-5.76A1.68,1.68,0,0,0,32,285.24,2.6,2.6,0,0,0,30,286.34L29.65,286A3.14,3.14,0,0,1,32,284.75a2.16,2.16,0,0,1,2.34,2.33c0,1.65-1.51,3.24-3.81,5.68,0.46,0,.94-0.06,1.39-0.06h2.83v0.52h-5.1v-0.36Z"/><path class="cls-1" d="M36,289c0-2.76.9-4.28,2.48-4.28S41,286.27,41,289s-0.9,4.34-2.48,4.34S36,291.8,36,289Zm4.38,0c0-2.54-.74-3.78-1.9-3.78s-1.9,1.25-1.9,3.78,0.75,3.85,1.9,3.85S40.37,291.56,40.37,289Z"/><path class="cls-1" d="M42.69,292.71h2v-6.89H43.15v-0.39a5,5,0,0,0,1.6-.52h0.47v7.8H47v0.51H42.69v-0.51Z"/><path class="cls-1" d="M48.44,289c0-2.76.9-4.28,2.48-4.28s2.48,1.52,2.48,4.28-0.9,4.34-2.48,4.34S48.44,291.8,48.44,289Zm4.38,0c0-2.54-.74-3.78-1.9-3.78S49,286.49,49,289s0.75,3.85,1.9,3.85S52.83,291.56,52.83,289Z"/><path class="cls-1" d="M167.42,292.85c2.73-2.77,4.09-4.32,4.09-5.76a1.68,1.68,0,0,0-1.81-1.85,2.6,2.6,0,0,0-1.94,1.09L167.4,286a3.14,3.14,0,0,1,2.37-1.22,2.16,2.16,0,0,1,2.34,2.33c0,1.65-1.51,3.24-3.81,5.68,0.46,0,.94-0.06,1.39-0.06h2.83v0.52h-5.1v-0.36Z"/><path class="cls-1" d="M173.74,289c0-2.76.9-4.28,2.48-4.28s2.48,1.52,2.48,4.28-0.9,4.34-2.48,4.34S173.74,291.8,173.74,289Zm4.38,0c0-2.54-.74-3.78-1.9-3.78s-1.9,1.25-1.9,3.78,0.75,3.85,1.9,3.85S178.12,291.56,178.12,289Z"/><path class="cls-1" d="M180.44,292.71h2v-6.89h-1.48v-0.39a5,5,0,0,0,1.6-.52H183v7.8h1.81v0.51h-4.34v-0.51Z"/><path class="cls-1" d="M186.24,291.85a3,3,0,0,0,2.28,1,2.11,2.11,0,0,0,2.07-2.24,1.94,1.94,0,0,0-2-2.15A2.53,2.53,0,0,0,187,289l-0.4-.25,0.3-3.89h3.83v0.51h-3.32l-0.26,3a2.7,2.7,0,0,1,1.48-.44,2.37,2.37,0,0,1,2.54,2.63,2.64,2.64,0,0,1-2.65,2.77,3.45,3.45,0,0,1-2.61-1.12Z"/><path class="cls-1" d="M305.18,292.85c2.73-2.77,4.09-4.32,4.09-5.76a1.68,1.68,0,0,0-1.81-1.85,2.6,2.6,0,0,0-1.94,1.09l-0.38-.36a3.14,3.14,0,0,1,2.37-1.22,2.16,2.16,0,0,1,2.34,2.33c0,1.65-1.51,3.24-3.81,5.68,0.46,0,.94-0.06,1.39-0.06h2.83v0.52h-5.1v-0.36Z"/><path class="cls-1" d="M311.49,289c0-2.76.9-4.28,2.48-4.28s2.48,1.52,2.48,4.28-0.9,4.34-2.48,4.34S311.49,291.8,311.49,289Zm4.38,0c0-2.54-.74-3.78-1.9-3.78s-1.9,1.25-1.9,3.78,0.75,3.85,1.9,3.85S315.88,291.56,315.88,289Z"/><path class="cls-1" d="M317.63,292.85c2.73-2.77,4.09-4.32,4.09-5.76a1.68,1.68,0,0,0-1.81-1.85,2.6,2.6,0,0,0-1.94,1.09L317.6,286a3.14,3.14,0,0,1,2.37-1.22,2.16,2.16,0,0,1,2.34,2.33c0,1.65-1.51,3.24-3.81,5.68,0.46,0,.94-0.06,1.39-0.06h2.83v0.52h-5.1v-0.36Z"/><path class="cls-1" d="M323.95,289c0-2.76.9-4.28,2.48-4.28s2.48,1.52,2.48,4.28-0.9,4.34-2.48,4.34S323.95,291.8,323.95,289Zm4.38,0c0-2.54-.74-3.78-1.9-3.78s-1.9,1.25-1.9,3.78,0.75,3.85,1.9,3.85S328.33,291.56,328.33,289Z"/><path class="cls-5" d="M57.32,265.59c72.41,0,89.24-73.65,148.57-112.39,20.32-13.27,45.63,68.25,79.86,69.74"/><polygon class="cls-4" points="281.5 227.27 280.78 226.35 285.31 222.81 281.45 218.56 282.31 217.78 287.01 222.96 281.5 227.27"/><path class="cls-6" d="M57.32,265.59h0.58"/><path class="cls-7" d="M59.07,265.58c70.94-1.18,88-74,146.82-112.38,20.09-13.12,45-18.95,78.69-19.69"/><path class="cls-6" d="M285.17,133.5h0.58"/><polygon class="cls-4" points="282.06 138.41 281.24 137.58 285.3 133.53 280.96 129.77 281.73 128.89 287.01 133.47 282.06 138.41"/><path class="cls-5" d="M57.32,265.59c72.41,0,89.24-73.65,148.57-112.39,20.32-13.27,45.63-87.81,79.86-90.1"/><polygon class="cls-4" points="282.46 68.36 281.57 67.6 285.31 63.24 280.69 59.83 281.39 58.89 287.01 63.05 282.46 68.36"/><path class="cls-8" d="M57.32,265.59c72.41,0,89.24-73.65,148.57-112.39"/><path class="cls-4" d="M24.42,59.42V62h2.51v1.13H24.42V65.8H23.24V63.16H20.74V62h2.51V59.42h1.18Z"/><path class="cls-4" d="M27,233v1.21H23.9V233H27Z"/></svg>