<svg id="Layer_1" data-name="Layer 1" xmlns="http://www.w3.org/2000/svg" xmlns:xlink="http://www.w3.org/1999/xlink" viewBox="0 0 1035.53 425.9"><defs><style>.cls-1{fill:#231f20;}.cls-2,.cls-3,.cls-5,.cls-6,.cls-7,.cls-8{fill:none;stroke-miterlimit:10;}.cls-2,.cls-3,.cls-5,.cls-6,.cls-7{stroke:#5c9ad2;}.cls-2,.cls-3{stroke-width:0.87px;}.cls-3{stroke-dasharray:1.75 1.75;}.cls-4{fill:#5c9ad2;}.cls-5,.cls-6,.cls-7{stroke-width:1.89px;}.cls-5{stroke-dasharray:1.89 1.89;}.cls-7{stroke-dasharray:1.89 1.89;}.cls-8{stroke-width:1.75px;stroke:url(#linear-gradient);}</style><linearGradient id="linear-gradient" x1="397.1" y1="266.88" x2="397.1" y2="152.77" gradientUnits="userSpaceOnUse"><stop offset="0.01" stop-color="#fff"/><stop offset="0.06" stop-color="#e6eff8"/><stop offset="0.14" stop-color="#c1d9ee"/><stop offset="0.24" stop-color="#a2c5e5"/><stop offset="0.34" stop-color="#88b5de"/><stop offset="0.44" stop-color="#74a9d9"/><stop offset="0.57" stop-color="#67a1d5"/><stop offset="0.73" stop-color="#5e9bd3"/><stop offset="1" stop-color="#5c9ad2"/></linearGradient></defs><title>thesis_final_website</title><path class="cls-1" d="M676.94,351.82h3c2.17,0,3.63.73,3.63,2.89s-1.49,3-3.63,3H678.2v3.9h-1.26v-9.84Zm2.87,4.92c1.72,0,2.55-.63,2.55-2s-0.85-1.89-2.55-1.89H678.2v3.91h1.61Z"/><path class="cls-1" d="M687.91,354.19c1.79,0,3.38,1.4,3.38,3.84s-1.59,3.81-3.37,3.81-3.37-1.4-3.37-3.81S686.12,354.19,687.91,354.19Zm0,6.63c1.26,0,2.1-1.12,2.1-2.79s-0.84-2.82-2.1-2.82-2.1,1.14-2.1,2.82S686.66,360.82,687.91,360.82Z"/><path class="cls-1" d="M694.43,362.28v2.46H693.2V354.37h1l0.1,0.84h0a3.77,3.77,0,0,1,2.33-1c1.88,0,2.88,1.46,2.88,3.72,0,2.48-1.48,3.93-3.15,3.93a3.38,3.38,0,0,1-2-.84Zm1.79-1.47c1.2,0,2.08-1.09,2.08-2.9,0-1.6-.54-2.68-1.92-2.68a3.07,3.07,0,0,0-2,1V360A2.88,2.88,0,0,0,696.22,360.81Z"/><path class="cls-1" d="M701.42,354.37h1.25v4.45c0,1.37.4,2,1.36,2a2.48,2.48,0,0,0,2-1.23v-5.17h1.23v7.29h-1l-0.11-1.14h0a3.08,3.08,0,0,1-2.4,1.32c-1.54,0-2.23-1-2.23-2.85v-4.62Z"/><path class="cls-1" d="M709.69,351h1.23v9.3c0,0.39.17,0.54,0.34,0.54a1,1,0,0,0,.27,0l0.17,0.93a1.66,1.66,0,0,1-.71.12c-0.93,0-1.31-.58-1.31-1.65V351Z"/><path class="cls-1" d="M717.64,357c0-.93-0.31-1.83-1.5-1.83A3.93,3.93,0,0,0,714,356l-0.5-.85a5.42,5.42,0,0,1,2.87-.94c1.79,0,2.54,1.19,2.54,3v4.47h-1l-0.1-.87h0a4,4,0,0,1-2.42,1.05,2,2,0,0,1-2.14-2.07C713.15,358.18,714.53,357.39,717.64,357Zm-2,3.81a3,3,0,0,0,2-1v-2c-2.44.3-3.27,0.9-3.27,1.83A1.12,1.12,0,0,0,715.64,360.85Z"/><path class="cls-1" d="M721.19,354.37h1l0.1,1.32h0a2.49,2.49,0,0,1,2.07-1.5,1.81,1.81,0,0,1,.78.15L725,355.42a2,2,0,0,0-.71-0.12c-0.62,0-1.35.45-1.84,1.68v4.68h-1.23v-7.29Z"/><path class="cls-1" d="M726.17,352.08a0.86,0.86,0,0,1,1.71,0A0.86,0.86,0,0,1,726.17,352.08Zm0.22,2.29h1.23v7.29H726.4v-7.29Z"/><path class="cls-1" d="M730.3,355.38h-1.08v-0.93l1.14-.07,0.15-2h1v2h2v1h-2v4c0,0.9.29,1.41,1.13,1.41a2.66,2.66,0,0,0,.83-0.19l0.24,0.93a4.51,4.51,0,0,1-1.35.27c-1.56,0-2.08-1-2.08-2.43v-4Z"/><path class="cls-1" d="M735.22,363.78a1.87,1.87,0,0,0,1.65-1.56l0.17-.54-2.92-7.3h1.28l1.48,4c0.23,0.63.48,1.38,0.71,2.06h0.06c0.21-.66.42-1.41,0.61-2.06l1.31-4h1.2L738,362.26c-0.51,1.44-1.26,2.53-2.73,2.53a2.42,2.42,0,0,1-.85-0.15l0.24-1A2.14,2.14,0,0,0,735.22,363.78Z"/><path class="cls-1" d="M749.32,357c0-.93-0.31-1.83-1.5-1.83a3.93,3.93,0,0,0-2.17.78l-0.5-.85a5.42,5.42,0,0,1,2.87-.94c1.79,0,2.54,1.19,2.54,3v4.47h-1l-0.1-.87h0a4,4,0,0,1-2.42,1.05,2,2,0,0,1-2.14-2.07C744.83,358.18,746.21,357.39,749.32,357Zm-2,3.81a3,3,0,0,0,2-1v-2c-2.44.3-3.27,0.9-3.27,1.83A1.12,1.12,0,0,0,747.32,360.85Z"/><path class="cls-1" d="M752.87,354.37h1l0.1,1h0a3.44,3.44,0,0,1,2.45-1.23c1.53,0,2.22,1,2.22,2.85v4.62h-1.23v-4.45c0-1.37-.42-2-1.38-2a2.79,2.79,0,0,0-2,1.13v5.28h-1.23v-7.29Z"/><path class="cls-1" d="M763.72,354.19a3,3,0,0,1,2,.84l-0.06-1.24V351h1.25v10.68h-1l-0.11-.85h0a3.29,3.29,0,0,1-2.21,1c-1.83,0-3-1.38-3-3.81S762.05,354.19,763.72,354.19Zm0.12,6.61a2.47,2.47,0,0,0,1.86-1V356a2.54,2.54,0,0,0-1.77-.76c-1.17,0-2.1,1.13-2.1,2.79S762.56,360.81,763.84,360.81Z"/><path class="cls-1" d="M772.21,352.08a0.86,0.86,0,0,1,1.71,0A0.86,0.86,0,0,1,772.21,352.08Zm0.22,2.29h1.23v7.29h-1.23v-7.29Z"/><path class="cls-1" d="M776.12,354.37h1l0.1,1h0a3.21,3.21,0,0,1,2.27-1.23,1.91,1.91,0,0,1,2,1.4,3.44,3.44,0,0,1,2.4-1.4c1.5,0,2.22,1,2.22,2.85v4.62H785v-4.45c0-1.37-.43-2-1.35-2a2.67,2.67,0,0,0-1.83,1.13v5.28h-1.23v-4.45c0-1.37-.43-2-1.36-2a2.73,2.73,0,0,0-1.83,1.13v5.28h-1.23v-7.29Z"/><path class="cls-1" d="M789.78,362.28v2.46h-1.23V354.37h1l0.1,0.84h0a3.77,3.77,0,0,1,2.32-1c1.88,0,2.88,1.46,2.88,3.72,0,2.48-1.48,3.93-3.15,3.93a3.38,3.38,0,0,1-2-.84Zm1.79-1.47c1.2,0,2.08-1.09,2.08-2.9,0-1.6-.54-2.68-1.92-2.68a3.07,3.07,0,0,0-2,1V360A2.88,2.88,0,0,0,791.57,360.81Z"/><path class="cls-1" d="M800.79,357c0-.93-0.31-1.83-1.5-1.83a3.93,3.93,0,0,0-2.17.78l-0.5-.85a5.42,5.42,0,0,1,2.87-.94c1.79,0,2.54,1.19,2.54,3v4.47h-1l-0.1-.87h0a4,4,0,0,1-2.42,1.05,2,2,0,0,1-2.14-2.07C796.31,358.18,797.69,357.39,800.79,357Zm-2,3.81a3,3,0,0,0,2-1v-2c-2.44.3-3.27,0.9-3.27,1.83A1.12,1.12,0,0,0,798.8,360.85Z"/><path class="cls-1" d="M807.32,354.19a3,3,0,0,1,2.13.87l-0.62.79a2.2,2.2,0,0,0-1.47-.65c-1.32,0-2.28,1.14-2.28,2.82s0.92,2.79,2.25,2.79a2.6,2.6,0,0,0,1.71-.73l0.55,0.81a3.61,3.61,0,0,1-2.37.95c-1.93,0-3.42-1.4-3.42-3.81A3.53,3.53,0,0,1,807.32,354.19Z"/><path class="cls-1" d="M811.4,355.38h-1.08v-0.93l1.14-.07,0.15-2h1v2h2v1h-2v4c0,0.9.29,1.41,1.13,1.41a2.66,2.66,0,0,0,.83-0.19l0.24,0.93a4.51,4.51,0,0,1-1.35.27c-1.56,0-2.08-1-2.08-2.43v-4Z"/><path class="cls-1" d="M822.12,354.19c1.79,0,3.38,1.4,3.38,3.84s-1.59,3.81-3.37,3.81-3.37-1.4-3.37-3.81S820.34,354.19,822.12,354.19Zm0,6.63c1.26,0,2.1-1.12,2.1-2.79s-0.84-2.82-2.1-2.82S820,356.35,820,358,820.88,360.82,822.12,360.82Z"/><path class="cls-1" d="M830.7,352a2.05,2.05,0,0,0-.83-0.18c-0.69,0-1,.48-1,1.41v1.16h1.54v1h-1.54v6.28h-1.23v-6.28h-1v-0.93l1-.07v-1.16c0-1.48.68-2.41,2.13-2.41A3.31,3.31,0,0,1,831,351Z"/><path class="cls-1" d="M834.64,360a3.28,3.28,0,0,0,2.14.87,1.22,1.22,0,0,0,1.44-1.14c0-.75-0.87-1.08-1.67-1.38-1-.37-2.17-0.87-2.17-2.1s0.93-2.07,2.5-2.07a3.64,3.64,0,0,1,2.26.83l-0.58.78a2.71,2.71,0,0,0-1.67-.65,1.13,1.13,0,0,0-1.33,1c0,0.68.79,0.95,1.62,1.26,1,0.39,2.22.82,2.22,2.2,0,1.19-.95,2.18-2.67,2.18a4.39,4.39,0,0,1-2.71-1Z"/><path class="cls-1" d="M843.85,354.19c1.86,0,2.91,1.33,2.91,3.42a4.43,4.43,0,0,1,0,.67h-4.92a2.43,2.43,0,0,0,2.43,2.56,3.3,3.3,0,0,0,1.81-.57l0.44,0.81a4.34,4.34,0,0,1-2.4.75,3.49,3.49,0,0,1-3.49-3.81C840.58,355.65,842.18,354.19,843.85,354.19Zm1.83,3.28c0-1.48-.66-2.31-1.8-2.31a2.27,2.27,0,0,0-2.1,2.31h3.9Z"/><path class="cls-1" d="M848.55,354.37h1l0.1,1.32h0a2.49,2.49,0,0,1,2.07-1.5,1.81,1.81,0,0,1,.78.15l-0.24,1.08a2,2,0,0,0-.71-0.12c-0.62,0-1.35.45-1.84,1.68v4.68h-1.23v-7.29Z"/><path class="cls-1" d="M853,354.37h1.28l1.38,4.14c0.21,0.72.45,1.46,0.67,2.15h0.06c0.21-.69.45-1.42,0.66-2.15l1.38-4.14h1.22l-2.58,7.29h-1.44Z"/><path class="cls-1" d="M860.82,352.08a0.86,0.86,0,0,1,1.71,0A0.86,0.86,0,0,1,860.82,352.08Zm0.22,2.29h1.23v7.29H861v-7.29Z"/><path class="cls-1" d="M867.71,354.19a3,3,0,0,1,2.13.87l-0.62.79a2.2,2.2,0,0,0-1.47-.65c-1.32,0-2.28,1.14-2.28,2.82s0.92,2.79,2.25,2.79a2.6,2.6,0,0,0,1.71-.73L870,360.9a3.61,3.61,0,0,1-2.37.95c-1.93,0-3.42-1.4-3.42-3.81A3.53,3.53,0,0,1,867.71,354.19Z"/><path class="cls-1" d="M874,354.19c1.86,0,2.91,1.33,2.91,3.42a4.43,4.43,0,0,1,0,.67h-4.92a2.43,2.43,0,0,0,2.43,2.56,3.3,3.3,0,0,0,1.81-.57l0.44,0.81a4.34,4.34,0,0,1-2.4.75,3.49,3.49,0,0,1-3.49-3.81C870.72,355.65,872.33,354.19,874,354.19Zm1.83,3.28c0-1.48-.66-2.31-1.8-2.31a2.27,2.27,0,0,0-2.1,2.31h3.9Z"/><path class="cls-1" d="M884.37,354.19a3,3,0,0,1,2,.84l-0.06-1.24V351h1.25v10.68h-1l-0.11-.85h0a3.29,3.29,0,0,1-2.21,1c-1.83,0-3-1.38-3-3.81S882.71,354.19,884.37,354.19Zm0.12,6.61a2.47,2.47,0,0,0,1.86-1V356a2.54,2.54,0,0,0-1.77-.76c-1.17,0-2.1,1.13-2.1,2.79S883.22,360.81,884.49,360.81Z"/><path class="cls-1" d="M892.79,354.19c1.86,0,2.91,1.33,2.91,3.42a4.43,4.43,0,0,1,0,.67h-4.92a2.43,2.43,0,0,0,2.43,2.56,3.3,3.3,0,0,0,1.81-.57l0.44,0.81a4.34,4.34,0,0,1-2.4.75,3.49,3.49,0,0,1-3.49-3.81C889.52,355.65,891.12,354.19,892.79,354.19Zm1.83,3.28c0-1.48-.66-2.31-1.8-2.31a2.27,2.27,0,0,0-2.1,2.31h3.9Z"/><path class="cls-1" d="M897.3,360a3.28,3.28,0,0,0,2.14.87,1.22,1.22,0,0,0,1.44-1.14c0-.75-0.87-1.08-1.67-1.38-1-.37-2.17-0.87-2.17-2.1s0.93-2.07,2.5-2.07a3.64,3.64,0,0,1,2.26.83l-0.58.78a2.71,2.71,0,0,0-1.67-.65,1.13,1.13,0,0,0-1.33,1c0,0.68.79,0.95,1.62,1.26,1,0.39,2.22.82,2.22,2.2,0,1.19-.95,2.18-2.67,2.18a4.39,4.39,0,0,1-2.71-1Z"/><path class="cls-1" d="M903.56,352.08a0.86,0.86,0,0,1,1.71,0A0.86,0.86,0,0,1,903.56,352.08Zm0.22,2.29H905v7.29h-1.23v-7.29Z"/><path class="cls-1" d="M908,361.41v-0.06a1.35,1.35,0,0,1-.65-1.19,1.71,1.71,0,0,1,.79-1.35v-0.06a2.57,2.57,0,0,1,1.8-4.56,2.91,2.91,0,0,1,1,.18h2.54v0.94H912a2.11,2.11,0,0,1,.6,1.5,2.5,2.5,0,0,1-2.67,2.53,2.55,2.55,0,0,1-1.09-.25,1.1,1.1,0,0,0-.46.87c0,0.46.3,0.79,1.29,0.79h1.41c1.69,0,2.55.52,2.55,1.74S912.2,365,909.93,365c-1.78,0-3-.71-3-2A2.1,2.1,0,0,1,908,361.41Zm2.13,2.76c1.39,0,2.31-.72,2.31-1.48s-0.53-.9-1.47-0.9h-1.26a3.56,3.56,0,0,1-.95-0.12,1.53,1.53,0,0,0-.75,1.23C908,363.67,908.79,364.17,910.11,364.17Zm1.36-7.38a1.55,1.55,0,1,0-3.09,0A1.56,1.56,0,1,0,911.48,356.79Z"/><path class="cls-1" d="M915,354.37h1l0.1,1h0a3.44,3.44,0,0,1,2.45-1.23c1.53,0,2.22,1,2.22,2.85v4.62h-1.23v-4.45c0-1.37-.42-2-1.38-2a2.79,2.79,0,0,0-2,1.13v5.28H915v-7.29Z"/><path class="cls-1" d="M864.1,64.69h2.07v-5.5h-1.79V57.82a6.63,6.63,0,0,0,2.37-.87h1.62v7.74h1.78v1.79H864.1V64.69Z"/><path class="cls-1" d="M863.6,138.07c2.43-2.29,4.14-3.93,4.14-5.28a1.28,1.28,0,0,0-1.35-1.44,2.43,2.43,0,0,0-1.69,1l-1.2-1.18a4,4,0,0,1,3.19-1.52,2.92,2.92,0,0,1,3.15,3c0,1.6-1.5,3.31-3,4.94a14.7,14.7,0,0,1,1.59-.12h1.92v1.86H863.6v-1.26Z"/><path class="cls-1" d="M864.4,227a3,3,0,0,0,2.08,1c0.93,0,1.54-.4,1.54-1.12s-0.5-1.36-2.56-1.36v-1.56c1.71,0,2.25-.51,2.25-1.27a1,1,0,0,0-1.17-1,2.65,2.65,0,0,0-1.79.84l-1.11-1.35a4.47,4.47,0,0,1,3-1.21c2,0,3.29.94,3.29,2.61a2.24,2.24,0,0,1-1.59,2.11v0.06a2.36,2.36,0,0,1,1.89,2.33c0,1.77-1.62,2.77-3.54,2.77a4.14,4.14,0,0,1-3.31-1.35Z"/><line class="cls-2" x1="922.83" y1="264.82" x2="921.96" y2="264.83"/><line class="cls-3" x1="920.21" y1="264.83" x2="110.3" y2="267.21"/><line class="cls-2" x1="109.43" y1="267.22" x2="108.55" y2="267.22"/><polygon class="cls-4" points="929 264.81 920.3 261.28 922.37 264.82 920.32 268.38 929 264.81"/><path class="cls-1" d="M252.4,293.27c2.73-2.77,4.09-4.32,4.09-5.76a1.68,1.68,0,0,0-1.81-1.85,2.6,2.6,0,0,0-1.94,1.09l-0.38-.36a3.14,3.14,0,0,1,2.37-1.22,2.16,2.16,0,0,1,2.34,2.33c0,1.65-1.51,3.24-3.81,5.68,0.46,0,.94-0.06,1.39-0.06h2.83v0.52h-5.1v-0.36Z"/><path class="cls-1" d="M258.72,289.45c0-2.76.9-4.28,2.48-4.28s2.48,1.52,2.48,4.28-0.9,4.34-2.48,4.34S258.72,292.22,258.72,289.45Zm4.38,0c0-2.54-.74-3.78-1.9-3.78s-1.9,1.25-1.9,3.78,0.75,3.85,1.9,3.85S263.1,292,263.1,289.45Z"/><path class="cls-1" d="M265.41,293.13h2v-6.89h-1.48v-0.39a5,5,0,0,0,1.6-.52h0.47v7.8h1.81v0.51h-4.34v-0.51Z"/><path class="cls-1" d="M271.17,289.45c0-2.76.9-4.28,2.48-4.28s2.48,1.52,2.48,4.28-0.9,4.34-2.48,4.34S271.17,292.22,271.17,289.45Zm4.38,0c0-2.54-.74-3.78-1.9-3.78s-1.9,1.25-1.9,3.78,0.75,3.85,1.9,3.85S275.55,292,275.55,289.45Z"/><path class="cls-1" d="M486.82,293.27c2.73-2.77,4.09-4.32,4.09-5.76a1.68,1.68,0,0,0-1.81-1.85,2.6,2.6,0,0,0-1.94,1.09l-0.38-.36a3.14,3.14,0,0,1,2.37-1.22,2.16,2.16,0,0,1,2.34,2.33c0,1.65-1.51,3.24-3.81,5.68,0.46,0,.94-0.06,1.39-0.06h2.83v0.52h-5.1v-0.36Z"/><path class="cls-1" d="M493.14,289.45c0-2.76.9-4.28,2.48-4.28s2.48,1.52,2.48,4.28-0.9,4.34-2.48,4.34S493.14,292.22,493.14,289.45Zm4.38,0c0-2.54-.74-3.78-1.9-3.78s-1.9,1.25-1.9,3.78,0.75,3.85,1.9,3.85S497.52,292,497.52,289.45Z"/><path class="cls-1" d="M499.83,293.13h2v-6.89H500.3v-0.39a5,5,0,0,0,1.6-.52h0.47v7.8h1.81v0.51h-4.34v-0.51Z"/><path class="cls-1" d="M505.63,292.27a3,3,0,0,0,2.28,1A2.11,2.11,0,0,0,510,291a1.94,1.94,0,0,0-2-2.15,2.53,2.53,0,0,0-1.55.56l-0.4-.25,0.3-3.89h3.83v0.51h-3.32l-0.26,3a2.7,2.7,0,0,1,1.48-.44,2.37,2.37,0,0,1,2.54,2.63,2.64,2.64,0,0,1-2.65,2.77,3.45,3.45,0,0,1-2.61-1.12Z"/><path class="cls-1" d="M731.24,293.27c2.73-2.77,4.09-4.32,4.09-5.76a1.68,1.68,0,0,0-1.81-1.85,2.6,2.6,0,0,0-1.94,1.09l-0.38-.36a3.14,3.14,0,0,1,2.37-1.22,2.16,2.16,0,0,1,2.34,2.33c0,1.65-1.51,3.24-3.81,5.68,0.46,0,.94-0.06,1.39-0.06h2.83v0.52h-5.1v-0.36Z"/><path class="cls-1" d="M737.55,289.45c0-2.76.9-4.28,2.48-4.28s2.48,1.52,2.48,4.28-0.9,4.34-2.48,4.34S737.55,292.22,737.55,289.45Zm4.38,0c0-2.54-.74-3.78-1.9-3.78s-1.9,1.25-1.9,3.78,0.75,3.85,1.9,3.85S741.94,292,741.94,289.45Z"/><path class="cls-1" d="M743.69,293.27c2.73-2.77,4.09-4.32,4.09-5.76a1.68,1.68,0,0,0-1.81-1.85,2.6,2.6,0,0,0-1.94,1.09l-0.38-.36a3.14,3.14,0,0,1,2.37-1.22,2.16,2.16,0,0,1,2.34,2.33c0,1.65-1.51,3.24-3.81,5.68,0.46,0,.94-0.06,1.39-0.06h2.83v0.52h-5.1v-0.36Z"/><path class="cls-1" d="M750,289.45c0-2.76.9-4.28,2.48-4.28s2.48,1.52,2.48,4.28-0.9,4.34-2.48,4.34S750,292.22,750,289.45Zm4.38,0c0-2.54-.74-3.78-1.9-3.78s-1.9,1.25-1.9,3.78,0.75,3.85,1.9,3.85S754.39,292,754.39,289.45Z"/><path class="cls-5" d="M201.82,266c190.25,0,234.46-73.65,390.34-112.39,53.64-13.33,120.5,69,211.08,69.75"/><polygon class="cls-4" points="796.82 230.91 795.56 229.5 802.52 223.32 795.85 216.82 797.17 215.47 805.3 223.38 796.82 230.91"/><path class="cls-6" d="M201.82,266h0.94"/><path class="cls-7" d="M204.66,266c187.86-.73,232.41-73.84,387.51-112.38,53.27-13.24,119.57-19.06,209.2-19.71"/><path class="cls-6" d="M802.3,133.91h0.94"/><polygon class="cls-4" points="797.1 141.72 795.79 140.35 802.52 133.93 795.62 127.68 796.89 126.28 805.3 133.89 797.1 141.72"/><path class="cls-5" d="M201.82,266c190.25,0,234.46-73.65,390.34-112.39,53.64-13.33,120.5-88.51,211.08-90.13"/><polygon class="cls-4" points="797.24 71.44 795.91 70.1 802.53 63.56 795.51 57.43 796.76 56.01 805.3 63.47 797.24 71.44"/><path class="cls-8" d="M201.82,266c190.25,0,234.46-73.65,390.34-112.39"/><path class="cls-4" d="M145.65,57.81v2.61h2.51v1.13h-2.51v2.64h-1.18V61.55H142V60.42h2.51V57.81h1.18Z"/><path class="cls-4" d="M148.27,238.45v1.21h-3.14v-1.21h3.14Z"/></svg>