<svg id="Layer_1" data-name="Layer 1" xmlns="http://www.w3.org/2000/svg" xmlns:xlink="http://www.w3.org/1999/xlink" viewBox="0 0 189.76 147"><defs><style>.cls-1,.cls-8{fill:none;}.cls-2{clip-path:url(#clip-path);}.cls-3{fill:#b1d0e7;}.cls-4{fill:#b1d0e6;}.cls-5{fill:#b1d0e5;}.cls-6{fill:#b2d0e5;}.cls-7{fill:#fff;}.cls-8{stroke:#2e74b5;stroke-width:0.47px;}</style><clipPath id="clip-path"><rect class="cls-1" x="-404.4" y="568.31" width="589.51" height="181.92"/></clipPath></defs><title>thesis_final_website</title><g class="cls-2"><path class="cls-3" d="M-658.17-131.06C-637.31-90-616.28-64.17-595.6-47.8c31,24.55,61.2,27.74,88.51,29.14,13.66,0.7,26.61,1,38.61,3.21s23,6.47,33,15.11c2.72,2.37,5.28,3.53,7.71,3.54s4.9-1.32,7-3.69c3.87-4.44,7-12.57,9.66-23.46,9.32-38.09,12.82-110,17.86-172.33,2.52-31.18,5.42-60,9.62-81,2.1-10.49,4.52-19,7.35-24.89a22.82,22.82,0,0,1,4.54-6.71,7.33,7.33,0,0,1,5.07-2.27,7.75,7.75,0,0,1,3.3.81c38.13,18,83.91,44.52,130.53,66.61S-138.81-204-97.22-204c19.34,0,37.41-3.82,53.52-12.78s30.21-23.08,41.64-43.62C42-339.61,114.65-399.8,188.48-399.78c56.46,0,113.76,35.13,159.8,124.14l0.82-.42C303-365.25,245.36-400.71,188.48-400.7c-74.35,0-147.17,60.47-191.34,139.86-11.36,20.41-25.35,34.38-41.29,43.26S-78-204.92-97.22-204.92c-41.34,0-88.72-17.55-135.29-39.62S-324.86-293.17-363-311.15a8.63,8.63,0,0,0-3.7-.9c-2.52,0-4.8,1.33-6.81,3.69-3.78,4.44-6.83,12.57-9.43,23.46-9.09,38.09-12.51,110-17.61,172.33-2.55,31.18-5.52,60-9.82,81-2.15,10.49-4.63,19-7.53,24.89A22.89,22.89,0,0,1-422.61,0a7.61,7.61,0,0,1-5.2,2.27c-2.12,0-4.48-1-7.1-3.31-13.42-11.68-28.9-15.41-45.79-17-25.33-2.39-53.89-.06-83.89-12.45s-61.53-39.5-92.76-101l-0.82.42h0Z"/><path class="cls-3" d="M-658.14-121.44c21.28,40.89,42.5,66.52,63.22,82.66,31.09,24.21,61,27,88.11,28,13.54,0.48,26.38.51,38.3,2.52s22.93,6,32.89,14.35c2.7,2.27,5.25,3.38,7.68,3.38,2.6,0,5-1.3,7.1-3.63,4-4.37,7.24-12.39,10.06-23.13,9.85-37.55,14.12-108.4,19.85-169.88,2.87-30.74,6.1-59.13,10.57-79.81,2.23-10.34,4.78-18.75,7.72-24.53a22.82,22.82,0,0,1,4.68-6.61,7.67,7.67,0,0,1,5.19-2.24,8,8,0,0,1,3.34.79c38.21,17.43,83.88,43.92,130.28,66.05s93.57,39.93,134.87,39.93c19,0,36.71-3.76,52.55-12.61S-12-229-.64-249.25c44-78.7,116.24-138.83,189.56-138.81,55.71,0,112.2,34.65,157.76,122.5l0.82-.42C301.87-354,245-389,188.92-389,115.08-389,42.71-328.57-1.44-249.7-12.71-229.57-26.5-215.79-42.17-207s-33.25,12.49-52.1,12.49c-41,0-88.11-17.73-134.48-39.84s-92-48.6-130.3-66.06a8.94,8.94,0,0,0-3.72-.87c-2.55,0-4.88,1.3-6.95,3.63-3.89,4.38-7.06,12.39-9.82,23.13-9.62,37.55-13.8,108.39-19.6,169.88-2.9,30.74-6.2,59.13-10.78,79.81-2.29,10.34-4.9,18.75-7.91,24.53a22.86,22.86,0,0,1-4.8,6.61,8,8,0,0,1-5.32,2.24c-2.13,0-4.49-1-7.09-3.17-13.48-11.33-28.88-14.72-45.63-16-25.14-1.92-53.38.84-83.28-11.19s-61.53-38.81-93.39-100l-0.81.42h0Z"/><path class="cls-3" d="M-658.11-111.83c21.7,40.72,43.11,66.15,63.88,82.06C-563.07-5.89-533.37-3.48-506.52-3c13.42,0.26,26.14.06,38,1.83s22.82,5.48,32.82,13.59c2.67,2.17,5.22,3.23,7.64,3.23,2.64,0,5.06-1.28,7.24-3.57,4.08-4.31,7.48-12.22,10.45-22.8C-400-47.7-395-117.52-388.54-178.12c3.22-30.29,6.78-58.28,11.53-78.66,2.37-10.19,5-18.48,8.08-24.18a22.83,22.83,0,0,1,4.82-6.52,8,8,0,0,1,5.31-2.21,8.29,8.29,0,0,1,3.37.77c38.29,16.91,83.83,43.32,130,65.5s93,40.16,134,40.16c18.61,0,36-3.71,51.6-12.43s29.3-22.44,40.54-42.42c44-78.19,115.77-138.27,188.57-138.25,55,0,110.65,34.17,155.72,120.87l0.81-.42c-45.14-86.88-101.16-121.37-156.53-121.36C116-377.25,44.1-316.91,0-238.55c-11.18,19.85-24.77,33.44-40.19,42.07s-32.66,12.31-51.16,12.31c-40.74,0-87.51-17.91-133.65-40.07s-91.68-48.57-130-65.51a9.19,9.19,0,0,0-3.74-.85c-2.59,0-5,1.28-7.08,3.58-4,4.31-7.3,12.22-10.2,22.8-10.14,37-15.09,106.84-21.59,167.43-3.25,30.29-6.89,58.28-11.74,78.66C-411.83-8-414.57.34-417.68,6a22.87,22.87,0,0,1-4.94,6.52,8.32,8.32,0,0,1-5.45,2.22c-2.15,0-4.49-.94-7.06-3-13.54-11-28.86-14-45.48-15-24.94-1.45-52.87,1.73-82.66-9.92s-61.54-38.13-94-99.09l-0.81.43h0Z"/><path class="cls-3" d="M-658.08-102.21C-630-50.75-602.77-23.95-576.9-10s50.32,14.93,72.71,14.93c3.82,0,7.58,0,11.28,0,21.27,0,40.43,1,57.1,14,2.65,2.07,5.18,3.08,7.59,3.08a10.36,10.36,0,0,0,7.38-3.51c4.19-4.24,7.72-12,10.84-22.47,10.91-36.48,16.71-105.28,23.85-165,3.56-29.85,7.46-57.43,12.48-77.51,2.51-10,5.3-18.2,8.45-23.82a23,23,0,0,1,5-6.42,8.38,8.38,0,0,1,5.43-2.19,8.63,8.63,0,0,1,3.4.75c38.36,16.4,83.76,42.72,129.73,65s92.5,40.39,133.22,40.39c18.26,0,35.35-3.66,50.67-12.26s28.85-22.13,40-41.83c44-77.68,115.3-137.7,187.58-137.68,54.21,0,109.1,33.68,153.69,119.24l0.81-.42c-44.66-85.73-99.88-119.73-154.5-119.73-72.81,0-144.29,60.3-188.37,138.14-11.09,19.58-24.49,33-39.66,41.48s-32.09,12.14-50.23,12.14c-40.45,0-86.9-18.08-132.82-40.3s-91.32-48.55-129.76-65a9.53,9.53,0,0,0-3.76-.82c-2.62,0-5,1.26-7.22,3.52-4.1,4.24-7.54,12-10.59,22.46-10.67,36.47-16.38,105.28-23.58,165-3.6,29.85-7.57,57.43-12.71,77.51-2.57,10-5.42,18.2-8.65,23.82a23,23,0,0,1-5.09,6.42A8.7,8.7,0,0,1-428.22,21c-2.15,0-4.49-.9-7-2.89C-452.19,4.92-471.63,4-492.91,4c-3.71,0-7.47,0-11.28,0-22.37,0-46.62-1-72.28-14.82s-52.79-40.44-80.81-91.81l-0.8.44h0Z"/><path class="cls-3" d="M-658.05-92.59c27,48.42,53,74.78,77.57,89s47.77,16.35,69.16,16.35c9,0,17.64-.37,26-0.37,18.17,0,34.68,1.75,49.44,12.83a12.67,12.67,0,0,0,7.54,2.94,10.76,10.76,0,0,0,7.51-3.46c4.3-4.18,8-11.86,11.24-22.13,11.45-35.94,18-103.72,25.84-162.55,3.92-29.41,8.15-56.57,13.44-76.36,2.65-9.89,5.57-17.93,8.82-23.47a23,23,0,0,1,5.11-6.33,8.76,8.76,0,0,1,5.56-2.16,8.9,8.9,0,0,1,3.43.73C-309-251.65-263.74-225.4-218-203.11s92,40.62,132.38,40.63c17.91,0,34.7-3.61,49.77-12.09s28.42-21.82,39.48-41.25c22-38.58,50.67-72.87,82.86-97.51s67.84-39.61,103.73-39.61c53.46,0,107.55,33.21,151.66,117.61l0.81-.42c-44.18-84.58-98.6-118.11-152.47-118.1-36.14,0-72,15.07-104.28,39.8S24.86-254.93,2.84-216.26c-11,19.3-24.22,32.51-39.14,40.9s-31.53,12-49.32,12c-40.16,0-86.29-18.27-132-40.54s-91-48.53-129.46-64.45a9.84,9.84,0,0,0-3.77-.8,10.42,10.42,0,0,0-7.35,3.46c-4.2,4.18-7.77,11.86-11,22.13-11.2,35.94-17.67,103.72-25.57,162.54C-398.7-51.62-403-24.45-408.42-4.67c-2.71,9.89-5.69,17.93-9,23.46a23.16,23.16,0,0,1-5.23,6.33,9.12,9.12,0,0,1-5.69,2.16,11.78,11.78,0,0,1-7-2.76c-15-11.26-31.78-13-50-13-8.35,0-17,.37-26,0.37-21.34,0-44.31-2.09-68.71-16.23S-630.27-44.7-657.26-93l-0.79.44h0Z"/><path class="cls-4" d="M-658-83c26.58,46.53,51.84,72.47,75.67,86.78s46.21,17,66.91,17c12.13,0,23.69-.9,34.65-0.9,16.28,0,31.2,2,44.79,11.79a12.86,12.86,0,0,0,7.49,2.79,11.18,11.18,0,0,0,7.65-3.4c4.4-4.11,8.2-11.68,11.63-21.8,12-35.4,19.31-102.16,27.84-160.1,4.27-29,8.83-55.72,14.4-75.21,2.79-9.74,5.83-17.66,9.19-23.11a23.16,23.16,0,0,1,5.26-6.24,9.17,9.17,0,0,1,5.68-2.13,9.26,9.26,0,0,1,3.46.71c38.46,15.37,83.57,41.55,129.07,63.89s91.4,40.86,131.54,40.87c17.58,0,34.05-3.56,48.88-11.92s28-21.52,39-40.67c22-38.32,50.54-72.48,82.54-97s67.42-39.53,103-39.53c52.71,0,106,32.73,149.64,116l0.8-.42c-43.7-83.43-97.32-116.48-150.44-116.47-35.89,0-71.48,15.06-103.6,39.71S26.27-243.53,4.26-205.11c-10.91,19-24,32.06-38.62,40.33S-65.34-153-82.8-153c-39.87,0-85.68-18.45-131.14-40.77s-90.58-48.51-129.14-63.92a10.13,10.13,0,0,0-3.79-.77,10.82,10.82,0,0,0-7.49,3.4c-4.31,4.11-8,11.68-11.38,21.8-11.73,35.4-19,102.16-27.57,160.1-4.3,29-8.94,55.72-14.63,75.2-2.84,9.74-6,17.66-9.39,23.11a23.28,23.28,0,0,1-5.38,6.24,9.54,9.54,0,0,1-5.82,2.13,12,12,0,0,1-7-2.62c-13.81-10-29-12-45.32-12-11,0-22.57.9-34.65,0.9-20.64,0-42.79-2.62-66.45-16.82s-48.82-40-75.35-86.46L-658-83h0Z"/><path class="cls-4" d="M-658-73.35c26.31,45,51.07,70.57,74.32,84.86s45,17.3,65.12,17.3c14.61,0,28.39-1.58,41.32-1.58,14.8,0,28.48,2.05,41.13,10.82a13.08,13.08,0,0,0,7.43,2.65,11.62,11.62,0,0,0,7.79-3.34c4.51-4,8.44-11.5,12-21.47C-396.36-19-388.27-84.72-379-141.77c4.61-28.52,9.51-54.87,15.37-74.05,2.93-9.59,6.1-17.39,9.56-22.76a23.35,23.35,0,0,1,5.4-6.14,9.61,9.61,0,0,1,5.8-2.1,9.61,9.61,0,0,1,3.49.69c38.5,14.86,83.46,41,128.71,63.37s90.83,41.1,130.69,41.11c17.24,0,33.42-3.51,48-11.76s27.58-21.22,38.46-40.1c21.94-38.07,50.4-72.09,82.22-96.57s67-39.44,102.36-39.44c52,0,104.47,32.25,147.62,114.37l0.8-.42c-43.21-82.29-96-114.86-148.42-114.85-35.63,0-71,15.05-102.91,39.63S27.68-232.13,5.69-194C-5.13-175.2-18-162.36-32.43-154.2S-62.88-142.56-80-142.56c-39.58,0-85.07-18.63-130.29-41s-90.18-48.5-128.79-63.4a10.52,10.52,0,0,0-3.81-.75,11.26,11.26,0,0,0-7.63,3.35c-4.42,4-8.26,11.5-11.77,21.47-12.27,34.86-20.27,100.6-29.58,157.66-4.65,28.52-9.62,54.87-15.59,74.05-3,9.59-6.22,17.39-9.76,22.75a23.55,23.55,0,0,1-5.52,6.14,10,10,0,0,1-5.94,2.1,12.2,12.2,0,0,1-6.91-2.49c-12.86-8.91-26.77-11-41.65-11-13,0-26.78,1.58-41.32,1.58-20,0-41.56-3-64.65-17.17s-47.76-39.61-74-84.55l-0.78.45h0Z"/><path class="cls-4" d="M-658-63.73C-631.84-20-607.47,5.16-584.69,19.39s44,17.51,63.59,17.51c16.71,0,32.31-2.36,46.86-2.36,13.56,0,26.19,2,38,9.91A13.31,13.31,0,0,0-428.84,47a12.08,12.08,0,0,0,7.92-3.29c4.62-4,8.68-11.33,12.41-21.14,13-34.33,21.9-99,31.84-155.22,5-28.08,10.2-54,16.34-72.9,3.07-9.44,6.36-17.12,9.94-22.4a23.61,23.61,0,0,1,5.55-6,10.07,10.07,0,0,1,5.93-2.07,10,10,0,0,1,3.51.67c38.53,14.35,83.32,40.39,128.33,62.85s90.26,41.35,129.83,41.35c16.92,0,32.81-3.46,47.16-11.59s27.17-20.93,38-39.54c21.92-37.81,50.27-71.69,81.91-96.11s66.57-39.36,101.67-39.36c51.22,0,102.94,31.78,145.61,112.75l0.79-.42c-42.73-81.14-94.78-113.24-146.4-113.23-35.36,0-70.47,15-102.22,39.54S29.09-220.72,7.11-182.82c-10.73,18.51-23.43,31.17-37.63,39.21s-29.92,11.48-46.72,11.48c-39.29,0-84.46-18.82-129.44-41.26s-89.77-48.49-128.42-62.89a11,11,0,0,0-3.83-.72,11.72,11.72,0,0,0-7.77,3.29c-4.52,4-8.5,11.33-12.17,21.14-12.8,34.32-21.58,99-31.58,155.21-5,28.08-10.3,54-16.55,72.9-3.12,9.44-6.48,17.12-10.13,22.4a23.78,23.78,0,0,1-5.67,6,10.45,10.45,0,0,1-6.06,2.08,12.42,12.42,0,0,1-6.86-2.36c-12-8-24.89-10.06-38.54-10.06-14.64,0-30.23,2.37-46.86,2.36-19.53,0-40.5-3.24-63.12-17.37s-46.91-39.17-73-82.82l-0.77.46h0Z"/><path class="cls-4" d="M-657.94-54.11c26,42.57,50.05,67.37,72.43,81.52S-542.42,45-523.25,45c18.56,0,35.71-3.25,51.63-3.25,12.49,0,24.2,2,35.33,9.06A13.54,13.54,0,0,0-429,53.22,12.55,12.55,0,0,0-421,50c4.72-3.92,8.92-11.15,12.8-20.8C-394.58-4.6-385-68.31-374.31-123.59c5.32-27.64,10.89-53.17,17.3-71.75,3.21-9.29,6.63-16.85,10.31-22a23.89,23.89,0,0,1,5.7-6,10.57,10.57,0,0,1,6.06-2,10.38,10.38,0,0,1,3.54.65c38.55,13.85,83.16,39.82,127.93,62.34s89.68,41.6,129,41.6c16.6,0,32.2-3.41,46.33-11.43s26.77-20.63,37.48-39c21.91-37.56,50.13-71.3,81.58-95.64s66.14-39.28,101-39.28c50.47,0,101.41,31.31,143.6,111.14l0.79-.42C294-275.42,242.76-307,191.88-307c-35.1,0-70,15-101.53,39.46S30.5-209.32,8.54-171.68C-2.1-153.43-14.63-140.95-28.6-133S-58-121.7-74.49-121.7c-39,0-83.85-19-128.58-41.51s-89.35-48.49-128-62.39a11.31,11.31,0,0,0-3.84-.7,12.2,12.2,0,0,0-7.91,3.23c-4.63,3.92-8.75,11.15-12.57,20.8-13.34,33.78-22.89,97.49-33.59,152.77-5.35,27.64-11,53.17-17.51,71.75-3.26,9.29-6.74,16.85-10.49,22s-7.74,8-12,8a12.65,12.65,0,0,1-6.8-2.23c-11.31-7.19-23.24-9.2-35.81-9.2-16,0-33.17,3.25-51.63,3.25-19.07,0-39.55-3.45-61.78-17.5s-46.2-38.73-72.15-81.23l-0.76.47h0Z"/><path class="cls-4" d="M-657.91-44.49c25.91,41.52,49.7,66,71.73,80s42.29,17.71,61.05,17.71c20.23,0,38.72-4.23,55.84-4.23,11.53,0,22.43,1.9,32.89,8.26a13.81,13.81,0,0,0,7.2,2.23A13.06,13.06,0,0,0-421,56.3c4.83-3.85,9.16-11,13.19-20.47C-393.7,2.59-383.31-60.1-372-114.5c5.67-27.2,11.57-52.32,18.28-70.61,3.35-9.14,6.9-16.58,10.69-21.69s7.8-7.88,12-7.88a10.88,10.88,0,0,1,3.56.63c38.56,13.35,83,39.26,127.5,61.84s89.1,41.84,128.11,41.85c16.29,0,31.61-3.37,45.52-11.28s26.38-20.35,37-38.44c21.89-37.3,50-70.91,81.26-95.18s65.71-39.2,100.29-39.2c49.73,0,99.89,30.84,141.59,109.53l0.79-.42c-41.76-78.86-92.24-110-142.38-110-34.84,0-69.46,15-100.84,39.38s-59.54,58-81.48,95.43c-10.56,18-22.92,30.3-36.67,38.12s-28.91,11.16-45.08,11.16c-38.72,0-83.23-19.18-127.71-41.75s-88.92-48.49-127.61-61.89a11.7,11.7,0,0,0-3.86-.68,12.71,12.71,0,0,0-8.06,3.18c-4.74,3.86-9,11-13,20.47-13.88,33.25-24.2,95.93-35.6,150.33-5.7,27.2-11.67,52.32-18.47,70.6-3.4,9.14-7,16.58-10.87,21.69s-7.93,7.88-12.27,7.88a12.94,12.94,0,0,1-6.73-2.1c-10.64-6.46-21.73-8.39-33.35-8.39-17.27,0-35.73,4.23-55.84,4.23-18.64,0-38.69-3.61-60.57-17.57S-631.29-3.51-657.15-45l-0.75.47h0Z"/><path class="cls-4" d="M-657.88-34.87C-632,5.68-608.46,29.76-586.74,43.7s41.6,17.74,60,17.73c21.76,0,41.42-5.29,59.62-5.29,10.67,0,20.82,1.8,30.67,7.51a14.11,14.11,0,0,0,7.1,2.09A13.6,13.6,0,0,0-421,62.62c4.93-3.79,9.39-10.79,13.58-20.14,14.63-32.71,25.79-94.38,37.84-147.9,6-26.75,12.27-51.47,19.25-69.46,3.49-9,7.17-16.31,11.07-21.34s8-7.76,12.33-7.75a11.29,11.29,0,0,1,3.59.61c38.57,12.85,82.8,38.7,127,61.35s88.5,42.09,127.24,42.1c16,0,31-3.32,44.72-11.12s26-20.06,36.53-37.91C34-186,62-219.45,93.09-243.65s65.28-39.12,99.6-39.12c49,0,98.37,30.37,139.59,107.92l0.78-.42c-41.28-77.72-91-108.4-140.37-108.39-34.58,0-69,15-100.15,39.3s-59.23,57.84-81.15,95c-10.48,17.74-22.68,29.87-36.21,37.59s-28.42,11-44.28,11c-38.44,0-82.62-19.37-126.83-42s-88.47-48.49-127.17-61.4a12.18,12.18,0,0,0-3.87-.65,13.27,13.27,0,0,0-8.2,3.12c-4.85,3.79-9.25,10.79-13.38,20.14C-363-148.88-374.07-87.21-386.18-33.69c-6.05,26.75-12.35,51.47-19.43,69.45-3.54,9-7.27,16.31-11.24,21.34s-8.13,7.76-12.54,7.76a13.21,13.21,0,0,1-6.66-2c-10-5.8-20.35-7.63-31.11-7.62-18.38,0-38,5.29-59.62,5.29-18.25,0-37.91-3.75-59.49-17.59s-45.06-37.82-70.87-78.3l-0.75.48h0Z"/><path class="cls-4" d="M-657.85-25.25c25.81,39.64,49.18,63.38,70.63,77.2s41,17.73,59,17.73c23.18,0,43.86-6.43,63.05-6.42,9.88,0,19.35,1.69,28.61,6.8a14.4,14.4,0,0,0,7,2,14.16,14.16,0,0,0,8.47-3.07c5-3.72,9.63-10.61,14-19.8C-392,17-380-43.68-367.29-96.32c6.38-26.31,13-50.62,20.23-68.31,3.63-8.85,7.44-16,11.46-21s8.21-7.63,12.61-7.63a11.76,11.76,0,0,1,3.61.59c38.56,12.36,82.6,38.15,126.58,60.86S-104.9-89.45-66.44-89.44c15.69,0,30.47-3.28,43.94-11s25.62-19.79,36.08-37.38C35.44-174.57,63.28-207.91,94.19-232s64.85-39,98.9-39c48.25,0,96.85,29.9,137.59,106.32l0.78-.42C290.66-241.76,241.74-272,193.09-272c-34.32,0-68.44,15-99.45,39.23s-58.92,57.63-80.82,94.5C2.43-120.75-9.61-108.78-22.94-101.18S-50.88-90.32-66.44-90.32c-38.16,0-82-19.56-126-42.26s-88-48.5-126.71-60.92a12.67,12.67,0,0,0-3.88-.63,13.84,13.84,0,0,0-8.35,3.07c-5,3.73-9.5,10.61-13.78,19.8-15,32.17-26.84,92.82-39.65,145.45-6.4,26.31-13,50.61-20.39,68.31-3.68,8.85-7.53,16-11.6,21s-8.33,7.64-12.81,7.63a13.51,13.51,0,0,1-6.57-1.85c-9.42-5.2-19.06-6.91-29-6.91-19.39,0-40,6.43-63.05,6.43-17.88,0-37.19-3.86-58.49-17.59s-44.6-37.37-70.37-76.94l-0.74.48h0Z"/><path class="cls-4" d="M-657.82-15.64c25.79,38.79,49,62.19,70.19,75.89s40.39,17.7,58.06,17.7c24.51,0,46.1-7.64,66.2-7.63,9.15,0,18,1.57,26.69,6.13a14.74,14.74,0,0,0,6.89,1.83,14.75,14.75,0,0,0,8.61-3c5.14-3.66,9.87-10.43,14.36-19.47,15.7-31.63,28.39-91.27,41.86-143,6.73-25.87,13.65-49.77,21.21-67.16,3.77-8.7,7.71-15.77,11.84-20.63s8.41-7.51,12.9-7.51a12.27,12.27,0,0,1,3.63.56c38.54,11.88,82.38,37.61,126.09,60.38S-102-79-63.81-79C-33-79-5.73-91.95,15-126.64c21.84-36.53,49.57-69.73,80.28-93.79s64.41-39,98.2-39c47.51,0,95.34,29.44,135.59,104.72l0.78-.41c-40.32-75.45-88.46-105.19-136.37-105.19-34.06,0-67.93,15-98.75,39.16s-58.6,57.43-80.49,94C3.94-109.85-8-98-21.07-90.55s-27.47,10.7-42.75,10.7c-37.88,0-81.39-19.75-125.07-42.51s-87.54-48.52-126.23-60.44a13.11,13.11,0,0,0-3.89-.61,14.46,14.46,0,0,0-8.5,3c-5.08,3.66-9.75,10.43-14.19,19.47-15.53,31.63-28.17,91.27-41.68,143C-390.14,8-397.11,31.86-404.74,49.25c-3.81,8.7-7.8,15.77-12,20.63s-8.52,7.51-13.07,7.51a13.87,13.87,0,0,1-6.48-1.73c-8.85-4.64-17.85-6.24-27.1-6.23-20.32,0-41.87,7.64-66.2,7.64-17.54,0-36.52-3.95-57.58-17.56s-44.19-36.91-69.93-75.64l-0.73.49h0Z"/><path class="cls-4" d="M-657.79-6C-632,32-609,55-588,68.61s39.86,17.64,57.22,17.64c25.77,0,48.15-8.92,69.1-8.91a54.46,54.46,0,0,1,24.89,5.51,15.09,15.09,0,0,0,6.77,1.7,15.38,15.38,0,0,0,8.75-3C-416,78-411.15,71.34-406.5,62.45c16.23-31.1,29.69-89.71,43.87-140.58,7.08-25.43,14.35-48.92,22.19-66,3.92-8.55,8-15.5,12.23-20.28s8.62-7.39,13.19-7.39a12.81,12.81,0,0,1,3.65.54c38.52,11.39,82.14,37.07,125.57,59.91S-99.12-68.49-61.21-68.49c30.23,0,57.07-12.81,77.63-47,21.82-36.27,49.42-69.35,79.95-93.34s64-38.9,97.5-38.9c46.77,0,93.84,29,133.61,103.13l0.77-.41C288.42-219.33,241-248.61,193.87-248.6c-33.8,0-67.41,15-98,39.09s-58.29,57.23-80.16,93.58C-4.8-82-31.23-69.38-61.21-69.36c-37.6,0-80.78-19.93-124.18-42.77s-87.05-48.53-125.73-60a13.68,13.68,0,0,0-3.89-.58,15.1,15.1,0,0,0-8.65,3c-5.19,3.6-10,10.25-14.6,19.14C-354.36-119.5-367.77-60.88-382-10c-7.11,25.43-14.41,48.92-22.32,66-4,8.55-8.06,15.5-12.35,20.28s-8.72,7.39-13.35,7.39a14.21,14.21,0,0,1-6.38-1.6,55.36,55.36,0,0,0-25.28-5.6c-21.2,0-43.54,8.92-69.1,8.91-17.22,0-35.9-4-56.74-17.5s-43.82-36.46-69.55-74.38l-0.72.49h0Z"/><path class="cls-4" d="M-657.76,3.6c25.77,37.22,48.7,60,69.47,73.4s39.38,17.58,56.44,17.57c27,0,50-10.27,71.8-10.25a53.23,53.23,0,0,1,23.19,4.93,15.49,15.49,0,0,0,6.64,1.57c6.14,0,11.82-4.06,17.17-11,9.36-12.15,17.83-33.26,26-58.14,12.2-37.31,23.6-83.08,35.82-119.5,6.1-18.21,12.41-34.08,19.09-45.37,3.34-5.64,6.77-10.14,10.3-13.2s7.13-4.7,10.86-4.7a13.31,13.31,0,0,1,3.66.52c38.49,10.91,81.89,36.54,125,59.45S-96.27-58-58.63-58C-29-58-2.56-70.63,17.84-104.34c21.81-36,49.28-69,79.61-92.88s63.53-38.83,96.8-38.83c46,0,92.34,28.51,131.62,101.54l0.77-.41c-39.35-73.18-86-102-132.39-102-33.53,0-66.9,15-97.34,39s-58,57-79.82,93.11C-3.21-71.3-29.21-58.88-58.63-58.87c-37.33,0-80.16-20.12-123.29-43s-86.55-48.55-125.21-59.52A14.22,14.22,0,0,0-311-162c-6.09,0-11.72,4.06-17,11-9.28,12.15-17.7,33.26-25.8,58.14C-366-55.51-377.41-9.75-389.68,26.68-395.8,44.88-402.15,60.76-408.88,72c-3.36,5.64-6.83,10.14-10.39,13.2s-7.2,4.7-11,4.7a14.61,14.61,0,0,1-6.26-1.49,54.12,54.12,0,0,0-23.56-5c-22,0-45.06,10.26-71.8,10.25-16.92,0-35.33-4.08-56-17.43s-43.49-36-69.23-73.16l-0.72.5h0Z"/><path class="cls-5" d="M-657.73,13.22c25.78,36.48,48.59,58.9,69.17,72.21s38.93,17.49,55.71,17.49c28.1,0,51.78-11.67,74.31-11.66A52.15,52.15,0,0,1-437,95.65a15.86,15.86,0,0,0,6.49,1.45c6.21,0,12-4,17.5-10.79,9.61-11.93,18.4-32.68,26.9-57.12,12.74-36.66,24.77-81.62,37.52-117.4,6.37-17.89,12.93-33.48,19.83-44.56,3.45-5.54,7-10,10.6-13s7.3-4.62,11.09-4.62a14,14,0,0,1,3.67.5c38.45,10.44,81.63,36,124.49,59S-93.45-47.5-56.08-47.49C-27-47.48-1-60,19.26-93.2,41.06-129,68.4-161.76,98.55-185.63s63.09-38.76,96.09-38.76c45.3,0,90.84,28.05,129.65,100l0.77-.41c-38.86-72.05-84.71-100.41-130.41-100.41-33.27,0-66.38,15-96.63,39S40.36-129.48,18.52-93.65c-20.15,33-45.72,45.27-74.6,45.28-37.06,0-79.55-20.31-122.39-43.28s-86-48.57-124.67-59.07a14.82,14.82,0,0,0-3.9-.53c-6.17,0-11.93,4-17.38,10.8-9.55,11.93-18.3,32.68-26.78,57.12-12.7,36.66-24.73,81.62-37.52,117.4-6.39,17.89-13,33.48-19.92,44.57-3.47,5.54-7,10-10.66,13s-7.35,4.62-11.17,4.62a15,15,0,0,1-6.14-1.37,53,53,0,0,0-21.93-4.46c-22.83,0-46.45,11.67-74.31,11.66-16.63,0-34.78-4.13-55.23-17.35s-43.19-35.56-68.93-72l-0.71.5h0Z"/><path class="cls-5" d="M-657.7,22.84c25.79,35.78,48.5,57.89,68.91,71.06s38.52,17.4,55,17.4c29.2,0,53.39-13.14,76.66-13.12a51.1,51.1,0,0,1,20,3.88,16.34,16.34,0,0,0,6.33,1.32c6.29,0,12.2-3.91,17.83-10.6,9.85-11.72,19-32.09,27.84-56.09,13.28-36,25.93-80.16,39.23-115.29,6.65-17.57,13.46-32.88,20.58-43.76a54.19,54.19,0,0,1,10.89-12.74c3.71-3,7.47-4.54,11.32-4.54a14.57,14.57,0,0,1,3.68.48c38.4,10,81.34,35.5,123.92,58.55S-90.65-37-53.55-37C-25-37,.6-49.29,20.69-82c21.78-35.5,49-68.18,78.94-92s62.65-38.7,95.38-38.7c44.57,0,89.35,27.6,127.67,98.37l0.76-.41C285.06-185.69,240-213.6,195-213.59c-33,0-65.86,15-95.92,38.89S41.77-118.07,19.95-82.5C0-50-25.21-37.87-53.55-37.85c-36.79,0-78.93-20.49-121.49-43.54S-260.55-130-299.14-140a15.42,15.42,0,0,0-3.9-.51c-6.26,0-12.14,3.91-17.75,10.6-9.81,11.72-18.91,32.09-27.75,56.09-13.26,36-25.9,80.15-39.23,115.29-6.66,17.57-13.5,32.88-20.64,43.76A54.24,54.24,0,0,1-419.35,98c-3.72,3-7.5,4.54-11.38,4.54a15.44,15.44,0,0,1-6-1.26,52,52,0,0,0-20.38-3.94c-23.6,0-47.72,13.13-76.66,13.12-16.37,0-34.28-4.17-54.56-17.26S-631.25,58.05-657,22.33l-0.7.51h0Z"/><path class="cls-5" d="M-657.67,32.46c25.81,35.1,48.43,56.9,68.68,69.94s38.13,17.29,54.39,17.29c15.13,0,28.85-3.67,41.79-7.33s25.09-7.31,37.09-7.3a50.18,50.18,0,0,1,18.58,3.4,16.8,16.8,0,0,0,6.16,1.21c6.36,0,12.38-3.83,18.16-10.4,10.1-11.5,19.56-31.51,28.78-55.07C-370.23,8.84-357-34.51-343.11-69c6.92-17.24,14-32.28,21.33-43a54.55,54.55,0,0,1,11.19-12.51c3.79-2.91,7.63-4.46,11.56-4.46a15.28,15.28,0,0,1,3.68.46c38.35,9.51,81,35,123.33,58.11s84.15,43.89,121,43.9C-23-26.45,2.18-38.61,22.11-70.9c21.76-35.23,48.84-67.79,78.6-91.53s62.2-38.64,94.66-38.64c43.84,0,87.87,27.14,125.71,96.79l0.76-.41c-37.9-69.8-82.23-97.24-126.47-97.24-32.73,0-65.34,15-95.2,38.83s-57,56.44-78.8,91.75c-19.84,32.09-44.6,44-72.42,44-36.52,0-78.32-20.68-120.57-43.8s-85-48.63-123.53-58.19a16.13,16.13,0,0,0-3.89-.48c-6.35,0-12.36,3.83-18.12,10.4-10.08,11.5-19.52,31.51-28.74,55.07C-359.7-29-373,14.36-386.84,48.85c-6.93,17.24-14,32.27-21.36,43a54.57,54.57,0,0,1-11.21,12.51c-3.8,2.91-7.65,4.46-11.59,4.46a15.94,15.94,0,0,1-5.85-1.14,51.05,51.05,0,0,0-18.89-3.46c-12.18,0-24.4,3.68-37.32,7.34s-26.56,7.3-41.55,7.3c-16.11,0-33.8-4.2-53.93-17.15S-631.21,67-657,31.95l-0.7.51h0Z"/><path class="cls-5" d="M-657.64,42.07c25.82,34.45,48.36,55.95,68.47,68.84s37.78,17.18,53.8,17.17c15.65,0,29.71-4.07,42.95-8.12s25.66-8.09,38-8.09a49.33,49.33,0,0,1,17.16,3,17.31,17.31,0,0,0,6,1.09c6.43,0,12.57-3.76,18.49-10.2,10.35-11.29,20.13-30.92,29.72-54C-368.69,17-354.8-25.55-340.4-59.4c7.2-16.93,14.52-31.68,22.08-42.17a55.09,55.09,0,0,1,11.49-12.28c3.88-2.85,7.8-4.38,11.8-4.38a16,16,0,0,1,3.68.44c38.28,9,80.74,34.48,122.72,57.68S-85.14-16-48.56-15.94c27.56,0,52.31-12,72.09-43.81,21.74-35,48.69-67.4,78.26-91.08s61.75-38.58,93.94-38.58c43.11,0,86.39,26.69,123.75,95.21l0.76-.41c-37.41-68.67-81-95.67-124.5-95.66-32.47,0-64.81,15-94.48,38.77S44.58-95.25,22.8-60.21C3.12-28.58-21.25-16.82-48.56-16.8c-36.25,0-77.7-20.87-119.66-44.06s-84.45-48.66-122.93-57.76a16.81,16.81,0,0,0-3.88-.46c-6.43,0-12.57,3.76-18.49,10.2-10.35,11.29-20.14,30.92-29.72,54-14.37,34.69-28.27,77.23-42.67,111.08-7.2,16.92-14.52,31.67-22.08,42.16a55.07,55.07,0,0,1-11.49,12.28c-3.88,2.86-7.8,4.38-11.79,4.39a16.45,16.45,0,0,1-5.68-1,50.23,50.23,0,0,0-17.46-3c-12.54,0-25,4.08-38.26,8.13s-27.2,8.09-42.7,8.09c-15.87,0-33.36-4.22-53.34-17S-631.17,76-657,41.56l-0.69.52h0Z"/><path class="cls-5" d="M-657.61,51.69c25.85,33.82,48.31,55,68.29,67.77s37.45,17.06,53.25,17.05c16.15,0,30.53-4.48,44-8.94s26.18-8.9,38.88-8.9a48.57,48.57,0,0,1,15.8,2.56,17.88,17.88,0,0,0,5.77,1c6.51,0,12.76-3.68,18.81-10,10.6-11.07,20.71-30.34,30.67-53,14.92-34,29.45-75.77,44.4-109,7.48-16.6,15.06-31.07,22.84-41.36a55.73,55.73,0,0,1,11.79-12c4-2.8,8-4.3,12-4.3a16.64,16.64,0,0,1,3.68.41c38.21,8.59,80.41,34,122.09,57.26S-82.42-5.42-46.1-5.41C-19-5.4,5.32-17.23,25-48.61c21.72-34.71,48.54-67,77.92-90.63s61.3-38.52,93.22-38.52c42.38,0,84.92,26.24,121.79,93.65l0.75-.41c-36.93-67.55-79.77-94.1-122.54-94.09-32.2,0-64.29,15-93.76,38.71S46-83.84,24.22-49.06C4.69-17.88-19.29-6.28-46.1-6.27c-36,0-77.08-21.05-118.74-44.32s-83.89-48.7-122.32-57.34a17.55,17.55,0,0,0-3.86-.43c-6.53,0-12.79,3.68-18.86,10-10.62,11.07-20.76,30.34-30.72,53-14.94,34-29.46,75.77-44.4,109-7.47,16.6-15,31.07-22.8,41.36a55.65,55.65,0,0,1-11.76,12c-4,2.8-8,4.31-12,4.31a17,17,0,0,1-5.5-.93,49.45,49.45,0,0,0-16.08-2.6c-12.91,0-25.64,4.49-39.15,8.94s-27.79,8.9-43.78,8.9c-15.64,0-32.93-4.24-52.79-16.92s-42.26-33.81-68.07-67.57l-0.68.52h0Z"/><path class="cls-5" d="M-657.59,61.31c25.87,33.21,48.27,54.12,68.12,66.73S-552.32,145-536.74,145c16.64,0,31.31-4.9,45.09-9.78s26.66-9.74,39.71-9.73a47.87,47.87,0,0,1,14.49,2.19,18.42,18.42,0,0,0,5.56.87c6.58,0,12.94-3.6,19.14-9.8,10.85-10.86,21.29-29.75,31.61-52C-365.66,33.32-350.5-7.61-335-40.18c7.76-16.28,15.6-30.47,23.6-40.57a56.44,56.44,0,0,1,12.1-11.81c4.07-2.75,8.15-4.23,12.28-4.23a17.48,17.48,0,0,1,3.67.39c38.14,8.14,80.08,33.5,121.44,56.84S-79.72,5.12-43.66,5.13c26.58,0,50.56-11.67,70-42.59,21.71-34.45,48.39-66.63,77.57-90.19s60.84-38.47,92.5-38.47c41.66,0,83.45,25.79,119.84,92.08l0.75-.41C280.58-140.88,238.49-167,196.44-167c-31.93,0-63.76,15-93,38.66s-56,55.88-77.76,90.39C6.27-7.18-17.34,4.27-43.66,4.28-79.38,4.29-120.13-17-161.48-40.3S-244.81-89-283.17-97.23a18.22,18.22,0,0,0-3.84-.41c-6.62,0-13,3.6-19.24,9.8-10.9,10.86-21.38,29.75-31.72,52C-353.48-2.46-368.63,38.48-384.11,71c-7.74,16.28-15.56,30.47-23.52,40.57a56.36,56.36,0,0,1-12,11.82c-4,2.75-8.11,4.23-12.21,4.23a17.53,17.53,0,0,1-5.3-.83,48.72,48.72,0,0,0-14.75-2.23c-13.27,0-26.23,4.91-40,9.79s-28.34,9.73-44.81,9.73c-15.43,0-32.54-4.25-52.27-16.79s-42.08-33.38-67.9-66.54l-0.67.52h0Z"/><path class="cls-5" d="M-657.56,70.93c25.89,32.61,48.24,53.24,68,65.71s36.86,16.8,52.24,16.79c17.12,0,32.07-5.34,46.08-10.65s27.11-10.6,40.5-10.6A47.33,47.33,0,0,1-437.53,134a19.08,19.08,0,0,0,5.31.76c6.65,0,13.13-3.53,19.47-9.61,11.1-10.65,21.88-29.17,32.56-51,16-32.72,31.81-72.85,47.89-104.78,8-16,16.15-29.88,24.37-39.77S-291.38-86.08-283-86.07a18.29,18.29,0,0,1,3.65.37c38.06,7.7,79.73,33,120.78,56.44S-77,15.67-41.24,15.68c26.1,0,49.71-11.51,69-42C49.48-60.51,76-92.56,105-116.06s60.38-38.42,91.77-38.42c40.94,0,82,25.35,117.9,90.52l0.74-.41c-36-65.32-77.32-91-118.64-91-31.66,0-63.23,15-92.3,38.61S48.8-61,27.08-26.77C7.84,3.52-15.4,14.82-41.24,14.83-76.71,14.85-117.1-6.59-158.14-30s-82.75-48.77-121-56.53a19.16,19.16,0,0,0-3.82-.39c-6.71,0-13.24,3.53-19.63,9.61-11.18,10.65-22,29.17-32.73,51-16.07,32.72-31.86,72.85-47.88,104.78-8,16-16.08,29.88-24.25,39.77s-16.42,15.74-24.74,15.73a18.22,18.22,0,0,1-5.08-.73,48.07,48.07,0,0,0-13.46-1.88c-13.63,0-26.8,5.34-40.81,10.65s-28.84,10.6-45.78,10.6c-15.23,0-32.17-4.26-51.79-16.66S-631,103-656.89,70.4l-0.66.53h0Z"/><path class="cls-5" d="M-657.53,80.55c25.92,32,48.22,52.38,67.84,64.71s36.59,16.66,51.79,16.66c17.59,0,32.79-5.79,47-11.54s27.51-11.48,41.26-11.48a46.64,46.64,0,0,1,12,1.54,19.7,19.7,0,0,0,5.05.66c6.73,0,13.32-3.46,19.8-9.41,11.35-10.43,22.46-28.58,33.52-50,16.58-32.07,33-71.39,49.65-102.68,8.32-15.64,16.7-29.28,25.14-39s17-15.43,25.49-15.42a19.18,19.18,0,0,1,3.63.35c38,7.26,79.37,32.54,120.1,56S-74.4,26.23-38.85,26.24c25.63,0,48.88-11.36,68.06-41.41C50.89-49.1,77.3-81,106.08-104.47s59.92-38.37,91-38.37c40.22,0,80.54,24.9,116,89l0.74-.41c-35.48-64.21-76.1-89.4-116.7-89.4-31.4,0-62.7,15-91.57,38.56s-55.34,55.51-77,89.5c-19.09,29.86-42,41-67.35,41-35.2,0-75.23-21.61-116-45.1S-237-68.52-275.18-75.83A20,20,0,0,0-279-76.2c-6.81,0-13.47,3.45-20,9.41-11.46,10.43-22.64,28.58-33.75,50-16.65,32.07-33.07,71.39-49.64,102.68-8.28,15.64-16.6,29.28-25,39s-16.8,15.43-25.22,15.42a18.86,18.86,0,0,1-4.84-.63A47.46,47.46,0,0,0-449.62,138c-14,0-27.35,5.79-41.58,11.54s-29.3,11.48-46.7,11.48c-15,0-31.82-4.27-51.33-16.53S-631,112-656.87,80l-0.66.53h0Z"/><path class="cls-5" d="M-657.5,90.17c25.95,31.48,48.2,51.54,67.72,63.73s36.34,16.52,51.35,16.52c18.06,0,33.48-6.24,47.92-12.46s27.89-12.39,42-12.39a46.15,46.15,0,0,1,10.79,1.26,20.5,20.5,0,0,0,4.77.57c6.8,0,13.51-3.38,20.13-9.21,11.6-10.22,23-28,34.48-48.94,17.14-31.41,34.21-69.93,51.42-100.58C-318.31-26.67-309.67-40-301-49.52s17.38-15.12,26.06-15.11a20.07,20.07,0,0,1,3.59.32c37.87,6.82,79,32.07,119.41,55.64S-71.77,36.8-36.47,36.81C-11.3,36.82,11.6,25.6,30.64-4,52.29-37.69,78.57-69.5,107.15-92.88s59.46-38.32,90.3-38.32c39.5,0,79.09,24.46,114,87.41l0.74-.41c-35-63.1-74.88-87.85-114.77-87.85-31.13,0-62.17,15.06-90.84,38.51S51.62-38.2,29.93-4.48C11,25-11.56,36-36.47,36c-34.95,0-74.62-21.79-115-45.36s-81.57-48.86-119.68-55.74a21,21,0,0,0-3.74-.34c-6.9,0-13.7,3.38-20.41,9.22-11.74,10.21-23.29,28-34.77,48.94-17.23,31.41-34.29,69.93-51.41,100.58-8.56,15.32-17.13,28.68-25.72,38.18s-17.17,15.12-25.71,15.11a19.63,19.63,0,0,1-4.58-.54,47,47,0,0,0-11-1.29c-14.35,0-27.9,6.25-42.32,12.46s-29.73,12.39-47.59,12.39c-14.85,0-31.49-4.26-50.91-16.39s-41.61-32.11-67.52-63.55l-0.65.53h0Z"/><path class="cls-5" d="M-657.47,99.78c26,30.94,48.18,50.72,67.62,62.77s36.11,16.37,51,16.37c18.52,0,34.15-6.72,48.77-13.39s28.23-13.32,42.68-13.32a45.63,45.63,0,0,1,9.62,1,21.27,21.27,0,0,0,4.47.48c6.87,0,13.69-3.31,20.46-9,11.85-10,23.64-27.42,35.44-47.92C-359.75,66-342,28.28-324.24-1.73c8.89-15,17.81-28.08,26.72-37.38s17.81-14.81,26.64-14.8a21.23,21.23,0,0,1,3.55.3c37.77,6.4,78.6,31.61,118.7,55.26S-69.16,47.37-34.11,47.38c24.73,0,47.28-11.07,66.17-40.25C53.69-26.28,79.83-58,108.21-81.3s59-38.28,89.57-38.28c38.78,0,77.65,24,112.1,85.87l0.74-.41c-34.51-62-73.67-86.3-112.84-86.3-30.86,0-61.63,15.07-90.1,38.47S53-26.79,31.35,6.67c-18.81,29-41,39.86-65.47,39.87-34.69,0-74-22-114.09-45.62s-81-48.91-119-55.37a22,22,0,0,0-3.69-.31c-7,0-13.94,3.31-20.81,9-12,10-23.93,27.42-35.81,47.92-17.81,30.76-35.52,68.48-53.2,98.49-8.83,15-17.66,28.08-26.45,37.38s-17.55,14.81-26.2,14.8a20.43,20.43,0,0,1-4.29-.46,46.49,46.49,0,0,0-9.8-1c-14.72,0-28.43,6.72-43,13.39s-30.11,13.32-48.42,13.32c-14.68,0-31.18-4.26-50.51-16.25s-41.49-31.7-67.42-62.59l-0.64.54h0Z"/><path class="cls-5" d="M-657.44,109.4c26,30.41,48.17,49.91,67.52,61.82s35.89,16.23,50.57,16.22c19,0,34.8-7.2,49.59-14.35s28.54-14.28,43.36-14.27a45.26,45.26,0,0,1,8.49.8,22.09,22.09,0,0,0,4.13.39c6.94,0,13.88-3.23,20.79-8.82,12.1-9.79,24.23-26.83,36.41-46.9,18.27-30.1,36.64-67,55-96.4C-312.38-6.8-303.2-19.6-294-28.7s18.24-14.5,27.22-14.49a22.24,22.24,0,0,1,3.5.28c37.67,6,78.21,31.16,118,54.88S-66.58,58-31.78,58C-7.49,58,14.72,47,33.48,18.27c21.62-33.14,47.61-64.72,75.79-88S167.79-108,198.09-108c38.07,0,76.22,23.58,110.19,84.33L309-24c-34-60.88-72.47-84.76-110.92-84.76-30.59,0-61.09,15.08-89.36,38.43s-54.3,55-76,88.18C14.11,46.41-7.75,57.12-31.78,57.13c-34.44,0-73.39-22.16-113.15-45.88s-80.34-49-118.27-55a23.22,23.22,0,0,0-3.64-.29c-7.1,0-14.18,3.23-21.21,8.82-12.32,9.79-24.59,26.83-36.86,46.91-18.4,30.1-36.77,67-55,96.4-9.11,14.69-18.19,27.49-27.2,36.59s-17.93,14.5-26.68,14.49a21.19,21.19,0,0,1-4-.37,46.09,46.09,0,0,0-8.64-.81c-15.09,0-28.95,7.2-43.72,14.35s-30.47,14.27-49.23,14.27c-14.51,0-30.88-4.25-50.13-16.1s-41.37-31.29-67.32-61.65l-0.63.54h0Z"/><path class="cls-5" d="M-657.41,119c26,29.89,48.16,49.13,67.43,60.9S-554.29,196-539.76,196c19.43,0,35.43-7.69,50.37-15.33s28.83-15.25,44-15.24A44.81,44.81,0,0,1-438,166a23,23,0,0,0,3.76.31c7,0,14.06-3.16,21.12-8.63,12.35-9.58,24.82-26.25,37.38-45.89,18.84-29.45,37.87-65.57,56.83-94.31,9.48-14.37,18.94-26.89,28.33-35.8s18.68-14.19,27.81-14.18a23.45,23.45,0,0,1,3.44.25c37.55,5.55,77.8,30.71,117.24,54.52S-64,68.54-29.46,68.55c23.86,0,45.74-10.78,64.36-39.13C56.5-3.46,82.36-34.91,110.33-58.14s58-38.21,88.08-38.2c37.36,0,74.79,23.15,108.28,82.79l0.73-.41c-33.55-59.78-71.27-83.22-109-83.22-30.32,0-60.55,15.1-88.61,38.4S55.84-4,34.2,29C15.67,57.14-5.86,67.71-29.46,67.72c-34.19,0-72.77-22.34-112.2-46.14S-221.38-27.44-259.2-33a24.15,24.15,0,0,0-3.57-.26c-7.21,0-14.42,3.16-21.62,8.63C-297-15.11-309.65,1.57-322.31,21.21c-19,29.45-38,65.57-56.81,94.31-9.39,14.37-18.73,26.89-27.94,35.8s-18.31,14.19-27.17,14.18a22.28,22.28,0,0,1-3.63-.3,45.72,45.72,0,0,0-7.51-.62c-15.48,0-29.47,7.7-44.39,15.33s-30.79,15.24-50,15.24c-14.36,0-30.61-4.24-49.78-16s-41.26-30.89-67.24-60.74l-0.63.55h0Z"/><path class="cls-5" d="M-657.38,128.64c26,29.39,48.15,48.36,67.35,60s35.5,15.92,49.88,15.92c19.88,0,36-8.19,51.11-16.34S-459.95,172-444.39,172a44.51,44.51,0,0,1,6.29.45,22.34,22.34,0,0,0,3.14.22c6.89,0,13.89-3.12,21-8.51,12.39-9.44,25.09-25.88,37.92-45.24,19.24-29,38.76-64.64,57.78-93,9.51-14.17,18.89-26.51,28-35.29s18-14,26.47-14a20.51,20.51,0,0,1,8.37,1.79c33.32,14.72,70.89,41,108.71,63.53S-70.81,83.45-36.34,83.46c27.2,0,52.13-11.84,72.66-42.89C57.9,8,83.61-23.39,111.38-46.56s57.57-38.17,87.32-38.17c36.65,0,73.37,22.71,106.38,81.26l0.72-.41c-33.06-58.68-70.07-81.69-107.1-81.68-30,0-60,15.12-87.86,38.36S57.24,7.45,35.63,40.11c-20.44,30.86-45,42.51-72,42.52-34.16,0-72.16-18.82-110-41.37s-75.37-48.8-108.8-63.58a21.33,21.33,0,0,0-8.71-1.87c-6.71,0-13.55,3.12-20.49,8.51C-296.45-6.24-309,10.2-321.7,29.56c-19.09,29-38.62,64.64-57.8,93-9.59,14.16-19.09,26.51-28.39,35.29s-18.37,14-27.07,14a21.46,21.46,0,0,1-3-.21,45.25,45.25,0,0,0-6.4-.45c-15.86,0-30,8.2-45,16.34s-31.08,16.24-50.72,16.24c-14.21,0-30.35-4.23-49.45-15.8s-41.16-30.48-67.16-59.83l-0.62.55h0Z"/><path class="cls-5" d="M-657.35,138.25c26.06,28.89,48.15,47.6,67.28,59.09s35.32,15.77,49.56,15.77c20.33,0,36.63-8.71,51.83-17.36s29.32-17.26,45.26-17.25a44.06,44.06,0,0,1,5.22.31,23.21,23.21,0,0,0,2.73.16c6.94,0,14-3,21.24-8.31,12.61-9.23,25.61-25.3,38.78-44.24C-355.69,98-335.56,63.21-316,35.5-306.19,21.65-296.54,9.58-287.17,1s18.46-13.68,27.07-13.67a21.52,21.52,0,0,1,8.67,1.82c33.25,14.45,70.55,40.66,108,63.27S-68.18,94-34,94.05c26.74,0,51.31-11.7,71.72-42.34C59.3,19.37,84.87-11.86,112.43-35S169.52-73.13,199-73.13c35.95,0,72,22.28,104.48,79.74l0.72-.41C271.62-51.38,235.32-74,199-74c-29.77,0-59.46,15.14-87.1,38.33S58.65,18.87,37.06,51.26c-20.32,30.46-44.55,42-71,42-33.89,0-71.51-18.93-109-41.53S-217.73,2.88-251.1-11.62a22.34,22.34,0,0,0-9-1.89c-6.82,0-13.81,3-20.92,8.32C-293.47,4-306.35,20.11-319.46,39c-19.66,28.39-39.8,63.22-59.48,90.92-9.84,13.85-19.57,25.92-29.05,34.51s-18.69,13.68-27.48,13.68a22.39,22.39,0,0,1-2.63-.15,44.85,44.85,0,0,0-5.31-.31c-16.26,0-30.49,8.72-45.67,17.36s-31.34,17.25-51.42,17.25c-14.07,0-30.1-4.21-49.14-15.65s-41.06-30.09-67.09-58.94l-0.61.55h0Z"/><path class="cls-5" d="M-657.32,147.87c52.16,56.81,88.25,73.82,116.48,73.82,20.78,0,37.21-9.23,52.52-18.4S-458.8,185-442.46,185c1.37,0,2.76.06,4.17,0.2,0.76,0.07,1.51.11,2.27,0.11,7,0,14.18-3,21.5-8.12,25.62-18,53.25-62.86,80.5-103.19,13.62-20.16,27.13-39.2,40.2-53.17S-268.12-2-256.41-2a22.63,22.63,0,0,1,9,1.85C-214.23,14-177.21,40.18-140,62.84s74.5,41.8,108.42,41.8c26.28,0,50.49-11.55,70.78-41.78,21.54-32.08,47-63.2,74.31-86.28s56.61-38.12,85.81-38.11c35.24,0,70.55,21.85,102.59,78.22l0.72-.41c-32.09-56.5-67.69-78.64-103.31-78.64-29.5,0-58.91,15.16-86.34,38.31S60.06,30.28,38.48,62.4c-20.2,30.05-44.07,41.41-70.1,41.42-33.61,0-70.85-19-108-41.68S-213.78,13.3-247.1-.93a23.44,23.44,0,0,0-9.3-1.91c-6.94,0-14.08,3-21.36,8.13-25.48,18-53,62.86-80.32,103.19-13.63,20.17-27.18,39.2-40.3,53.17s-25.82,22.85-37.63,22.84q-1.1,0-2.2-.1-2.15-.21-4.24-0.2c-16.67,0-31,9.24-46.29,18.4s-31.57,18.28-52.09,18.28c-27.86,0-63.77-16.81-115.87-73.56l-0.6.56h0Z"/><path class="cls-5" d="M-657.3,157.49c52.21,55.87,88.16,72.79,116.14,72.8,21.23,0,37.77-9.76,53.18-19.46s29.71-19.34,46.46-19.33q1.55,0,3.13.11c0.59,0,1.19.06,1.79,0.06,14.09,0,29.07-11.56,44.59-28.73,23.28-25.78,47.75-64.39,71.62-96.54,11.93-16.08,23.71-30.54,35.08-41S-263,8.65-252.72,8.65a23.86,23.86,0,0,1,9.3,1.87c33.14,13.87,69.89,40,106.73,62.73s73.78,42,107.44,42c25.82,0,49.68-11.4,69.84-41.22,21.52-31.81,46.8-62.82,73.93-85.85s56.12-38.09,85-38.09c34.55,0,69.16,21.43,100.72,76.71l0.71-.4C269.38-29,234.49-50.76,199.57-50.75c-29.22,0-58.36,15.18-85.58,38.28s-52.53,54.16-74.08,86c-20.07,29.64-43.6,40.85-69.17,40.86-33.34,0-70.2-19.16-107-41.85S-209.84,23.7-243.11,9.77a24.67,24.67,0,0,0-9.62-1.94c-14.13,0-29.14,11.56-44.69,28.73-23.31,25.78-47.79,64.39-71.65,96.54-11.92,16.08-23.69,30.54-35,41s-22.29,16.79-32.5,16.78q-0.87,0-1.73-.06-1.61-.12-3.19-0.11c-17.08,0-31.5,9.77-46.9,19.46s-31.77,19.34-52.74,19.33c-27.61,0-63.4-16.73-115.54-72.54l-0.6.56h0Z"/><path class="cls-5" d="M-657.27,167.11c53.45,56.21,89.72,73.49,117.73,73.5,21.51,0,38-10.21,53.54-20.61s30-21,47.56-22c14.16-.83,29.43-12.48,45.35-29.4,23.87-25.4,49.2-62.77,73.89-93.77,12.35-15.5,24.54-29.41,36.29-39.43s23.05-16.13,33.58-16.12a25.87,25.87,0,0,1,9.92,2c33.09,13.57,69.56,39.71,106.07,62.46s73.06,42.13,106.45,42.14C-1.54,125.83,22,114.56,42,85.16,63.51,53.61,88.63,22.72,115.56-.28s55.63-38.07,84.28-38.07c33.85,0,67.77,21,98.85,75.2l0.71-.41c-31.13-54.32-65.33-75.61-99.55-75.61C170.89-39.16,142-24,115-.9s-52.16,54-73.69,85.59C21.39,113.93-1.79,125-26.9,125c-33.06,0-69.54-19.28-106-42s-73-48.88-106.19-62.52a26.68,26.68,0,0,0-10.23-2c-14.47,0-30,11.08-46,27.6-24.11,24.8-49.49,62-74.07,93.33-12.29,15.65-24.38,29.83-36,40.22s-22.74,17-33,17.58c-17.83,1-32.47,11.74-48,22.13s-31.85,20.48-53.09,20.47c-27.64,0-63.75-17.09-117.14-73.25l-0.59.56h0Z"/><path class="cls-5" d="M-657.24,176.72c53.49,55.29,89.67,72.48,117.46,72.48,21.76,0,38.26-10.55,53.71-21.4s29.9-22,47.53-23.41c14.19-1.16,29.65-12.7,45.85-29.29,24.3-24.89,50.26-61.21,75.57-91.3,12.65-15,25.14-28.53,37.16-38.24s23.55-15.63,34.26-15.62a27.32,27.32,0,0,1,10.29,2c33,13.27,69.24,39.37,105.41,62.17s72.34,42.31,105.45,42.32c24.92,0,48.07-11.11,68-40.11,21.48-31.28,46.46-62.06,73.16-85s55.14-38.06,83.51-38.05c33.16,0,66.39,20.59,97,73.7l0.7-.4C267.14-6.71,233.63-27.58,200.1-27.58c-28.67,0-57.25,15.23-84,38.25S64.27,64.53,42.76,95.84C22.94,124.67.11,135.59-24.56,135.6c-32.79,0-68.87-19.41-105-42.2S-201.93,44.5-235.12,31.16a28.12,28.12,0,0,0-10.59-2c-14.69,0-30.53,10.72-47,26.74-24.68,24-50.73,60.16-75.85,90.68-12.56,15.26-24.89,29.12-36.68,39.36s-23,16.85-33.38,17.68c-17.95,1.46-32.49,12.73-47.93,23.56s-31.76,21.25-53.24,21.25c-27.42,0-63.45-17-116.88-72.23l-0.58.57h0Z"/><path class="cls-5" d="M-657.21,186.34c53.52,54.39,89.62,71.47,117.2,71.47,22,0,38.48-10.9,53.88-22.19s29.75-23,47.5-24.83c14.21-1.49,29.86-12.92,46.35-29.17C-367.55,157.25-341,122-315.05,92.78c13-14.59,25.74-27.65,38-37S-253,40.61-242.08,40.62a28.88,28.88,0,0,1,10.66,2c33,13,68.91,39,104.75,61.89S-55.05,147-22.21,147c24.47,0,47.28-11,67.06-39.55,21.46-31,46.28-61.69,72.77-84.6s54.64-38,82.73-38c32.47,0,65,20.17,95.13,72.21l0.7-.4C266,4.44,233.19-16,200.35-16,172-16,143.66-.74,117.09,22.24S65.67,75.95,44.18,107C24.49,135.41,2,146.19-22.21,146.2c-32.52,0-68.21-19.54-104-42.38s-71.75-48.94-104.89-62a29.72,29.72,0,0,0-11-2.05c-14.91,0-31.1,10.36-47.93,25.87-25.25,23.29-52,58.3-77.63,88C-380.47,168.58-393,182.12-405,192.2s-23.34,16.7-33.72,17.78c-18.07,1.89-32.51,13.71-47.89,25s-31.67,22-53.4,22c-27.22,0-63.17-16.9-116.63-71.23l-0.58.57h0Z"/><path class="cls-5" d="M-657.18,196c53.55,53.5,89.57,70.46,117,70.47,22.27,0,38.72-11.25,54-23s29.59-24,47.45-26.26c14.24-1.82,30.08-13.14,46.85-29,25.15-23.86,52.36-58.1,78.88-86.37,13.26-14.13,26.35-26.77,38.9-35.86s24.56-14.62,35.64-14.62a30.59,30.59,0,0,1,11.05,2c33,12.63,68.59,38.68,104.09,61.59s70.88,42.69,103.46,42.7c24,0,46.49-10.82,66.14-39,21.44-30.74,46.11-61.31,72.38-84.19s54.14-38,82-38c31.78,0,63.65,19.75,93.29,70.72l0.7-.4c-29.69-51.09-61.83-71.12-94-71.12-28.12,0-56.13,15.29-82.48,38.23s-51,53.57-72.51,84.33c-19.56,28-41.71,38.65-65.48,38.66-32.24,0-67.54-19.67-103-42.57s-71.13-49-104.24-61.67a31.38,31.38,0,0,0-11.34-2.07c-15.14,0-31.67,10-48.88,25-25.82,22.53-53.2,56.44-79.39,85.38-13.1,14.47-25.89,27.69-38,37.63s-23.63,16.56-34.05,17.87c-18.18,2.32-32.52,14.7-47.84,26.42s-31.58,22.82-53.56,22.82c-27,0-62.9-16.79-116.39-70.24l-0.57.57h0Z"/><path class="cls-5" d="M-657.15,205.58c53.56,52.62,89.51,69.47,116.72,69.48,22.54,0,39-11.6,54.22-23.79s29.41-25,47.39-27.69c14.26-2.15,30.29-13.35,47.34-28.91,25.56-23.35,53.39-56.55,80.51-83.9C-297.41,97.09-284,84.87-271.2,76.09S-246.14,62-234.87,62a32.42,32.42,0,0,1,11.46,2c32.91,12.3,68.27,38.33,103.43,61.29s70.14,42.88,102.45,42.89c23.58,0,45.7-10.68,65.22-38.45,21.42-30.47,45.93-60.94,72-83.78s53.63-38,81.16-38c31.1,0,62.3,19.34,91.45,69.24l0.69-.4c-29.21-50-60.67-69.64-92.14-69.64-27.84,0-55.57,15.32-81.69,38.23S68.48,98.79,47,129.28C27.61,156.9,5.8,167.38-17.53,167.39c-32,0-66.88-19.81-102-42.76s-70.51-49-103.58-61.37a33.25,33.25,0,0,0-11.74-2.08c-15.37,0-32.24,9.65-49.84,24.16-26.39,21.77-54.42,54.58-81.14,82.73-13.36,14.07-26.39,27-38.71,36.76s-23.92,16.41-34.38,18c-18.3,2.74-32.53,15.68-47.77,27.86s-31.47,23.62-53.72,23.62c-26.85,0-62.66-16.68-116.16-69.25l-0.56.57h0Z"/><path class="cls-5" d="M-657.12,215.19c52.37,50.59,87.74,66.9,114.48,66.9,23.4,0,40-12.51,55.47-25.25,7.72-6.37,15.14-12.8,22.94-17.78s16-8.5,25.27-9.1c14.53-.95,30.89-11.3,48.3-26.23,26.11-22.4,54.56-55.19,82.25-82.35,13.85-13.59,27.51-25.77,40.57-34.54s25.53-14.13,37-14.13a33.19,33.19,0,0,1,11.45,2c32.88,12,68,38,102.77,61s69.39,43.08,101.44,43.09c23.15,0,44.93-10.53,64.32-37.89,21.4-30.19,45.75-60.56,71.58-83.37s53.12-38,80.37-38c30.42,0,61,18.92,89.62,67.76l0.69-.4c-28.73-49-59.52-68.16-90.31-68.16-27.57,0-55,15.36-80.9,38.23s-50.28,53.29-71.7,83.51C29.16,167.64,7.69,178-15.2,178c-31.7,0-66.2-20-101-43S-186.09,86-219.13,74a34,34,0,0,0-11.73-2c-15.59,0-32.77,9.67-50.72,24.14-26.92,21.71-55.57,54.33-82.87,81.85-13.65,13.76-27,26.25-39.53,35.45s-24.4,15.13-35,15.81c-9.45.61-17.77,4.21-25.65,9.23-11.81,7.53-22.65,18.28-34.87,27.12s-25.8,15.78-43.12,15.78c-26.39,0-61.62-16.14-113.92-66.68l-0.55.57h0Z"/><path class="cls-5" d="M-657.09,224.81c52.38,49.76,87.68,66,114.25,66,23.67,0,40.26-12.88,55.61-26.07,7.68-6.6,15-13.29,22.84-18.52s16-9,25.34-9.81c14.59-1.27,31.16-11.51,48.85-26.1,26.54-21.89,55.59-53.63,83.87-79.89,14.14-13.13,28.09-24.88,41.42-33.35s26-13.63,37.66-13.63a35.27,35.27,0,0,1,11.86,2C-182.56,97-147.77,123-113.3,146.08s68.65,43.29,100.43,43.3C9.84,189.39,31.28,179,50.53,152c21.38-29.92,45.57-60.19,71.17-83s52.6-38,79.58-38c29.75,0,59.61,18.52,87.81,66.3l0.69-.4C261.52,49,231.39,30.24,201.28,30.25c-27.29,0-54.43,15.4-80.1,38.23s-49.89,53.15-71.29,83.1c-19.17,26.8-40.31,37-62.77,37-31.43,0-65.53-20.09-100-43.17s-69.26-49.07-102.28-60.77a36,36,0,0,0-12.12-2c-15.83,0-33.35,9.31-51.66,23.28-27.48,21-56.76,52.47-84.58,79.2-13.91,13.36-27.46,25.53-40.21,34.58s-24.71,15-35.41,15.9c-9.53.83-17.86,4.67-25.71,9.95-11.78,7.92-22.53,19-34.71,28.18S-525.32,290-542.84,290c-26.22,0-61.38-16-113.7-65.75l-0.55.58h0Z"/><path class="cls-5" d="M-657.07,234.43c52.39,49,87.63,65,114,65,23.94,0,40.49-13.24,55.75-26.9,7.63-6.83,15-13.78,22.72-19.27s16-9.51,25.4-10.53c14.65-1.6,31.42-11.72,49.4-26,27-21.37,56.61-52.07,85.47-77.41s57-45.3,80.61-45.28a37.46,37.46,0,0,1,12.27,2c32.81,11.28,67.31,37.22,101.43,60.37S-42.08,200-10.56,200c22.28,0,43.4-10.24,62.52-36.79,21.35-29.65,45.38-59.82,70.75-82.57s52.08-38,78.78-38c29.08,0,58.29,18.11,86,64.84l0.68-.4c-27.77-46.84-57.24-65.23-86.68-65.23-27,0-53.86,15.44-79.3,38.24s-49.5,53-70.87,82.69c-19,26.4-39.85,36.45-61.88,36.46-31.17,0-64.86-20.24-99-43.38s-68.62-49.11-101.62-60.46a38.26,38.26,0,0,0-12.53-2c-16.06,0-33.92,9-52.61,22.42-28,20.2-57.95,50.61-86.29,76.54-14.17,13-27.95,24.82-40.88,33.71s-25,14.82-35.79,16c-9.6,1-17.94,5.14-25.77,10.67-11.75,8.3-22.39,19.83-34.53,29.26s-25.76,16.77-43.48,16.77c-26.07,0-61.17-15.91-113.5-64.82l-0.54.58h0Z"/><path class="cls-5" d="M-657,244c52.39,48.16,87.57,64.11,113.83,64.11,24.23,0,40.72-13.6,55.88-27.73,7.59-7.07,14.86-14.28,22.6-20s16-10,25.46-11.25c14.71-1.92,31.68-11.93,49.94-25.83,27.38-20.86,57.62-50.51,87.07-74.94s58.11-43.6,82.15-43.58a39.92,39.92,0,0,1,12.7,2c32.78,10.92,67,36.84,100.76,60s67.13,43.72,98.39,43.74c21.86,0,42.65-10.1,61.63-36.24C74.71,145,98.57,114.88,123.71,92.17s51.56-38.06,78-38.05c28.41,0,57,17.71,84.2,63.39l0.68-.4c-27.29-45.79-56.1-63.77-84.88-63.77-26.73,0-53.28,15.48-78.5,38.26s-49.1,52.9-70.45,82.29c-18.9,26-39.39,35.91-61,35.92-30.9,0-64.19-20.4-97.94-43.6s-68-49.15-101-60.15a40.69,40.69,0,0,0-12.95-2c-16.31,0-34.49,8.6-53.55,21.56-28.59,19.44-59.13,48.74-88,73.89-14.43,12.57-28.44,24.1-41.55,32.84s-25.34,14.67-36.17,16.08c-9.68,1.26-18,5.61-25.83,11.4-11.71,8.68-22.25,20.6-34.35,30.33s-25.73,17.26-43.66,17.26c-25.92,0-61-15.79-113.3-63.9L-657,244h0Z"/><path class="cls-6" d="M-657,253.66c52.4,47.39,87.52,63.2,113.64,63.2,24.52,0,40.95-14,56-28.57,7.54-7.3,14.75-14.77,22.48-20.77s15.95-10.52,25.52-12c14.77-2.25,31.94-12.15,50.47-25.7,27.79-20.34,58.63-48.95,88.65-72.46s59.26-41.9,83.69-41.89a42.52,42.52,0,0,1,13.14,2c32.76,10.55,66.67,36.45,100.08,59.72s66.36,43.95,97.36,44c21.44,0,41.9-10,60.75-35.69,21.31-29.1,45-59.08,69.91-81.77s51-38.08,77.16-38.07c27.75,0,55.66,17.31,82.42,61.94l0.67-.4c-26.81-44.75-55-62.33-83.09-62.32-26.45,0-52.7,15.52-77.68,38.27s-48.7,52.77-70,81.89c-18.76,25.6-38.93,35.36-60.11,35.37-30.64,0-63.51-20.55-96.91-43.82s-67.34-49.2-100.29-59.83a43.36,43.36,0,0,0-13.38-2c-16.55,0-35.08,8.24-54.51,20.7-29.14,18.68-60.3,46.88-89.68,71.23s-57,44.84-78.75,48.13c-9.75,1.48-18.1,6.09-25.88,12.13-11.67,9.07-22.11,21.39-34.16,31.41s-25.71,17.76-43.85,17.76c-25.78,0-60.78-15.66-113.12-63l-0.53.58h0Z"/><path class="cls-6" d="M-657,263.28c52.39,46.62,87.47,62.3,113.46,62.3,24.81,0,41.18-14.33,56.16-29.4,7.49-7.54,14.65-15.27,22.34-21.53s15.92-11,25.57-12.7c14.82-2.57,32.2-12.36,51-25.57,28.21-19.83,59.62-47.39,90.23-70s60.41-40.2,85.24-40.19a45.5,45.5,0,0,1,13.59,2c32.73,10.18,66.34,36,99.4,59.4s65.59,44.18,96.33,44.19c21,0,41.17-9.81,59.88-35.14C77.51,167.8,101,137.91,125.7,115.25S176.2,77.15,202,77.16c27.09,0,54.36,16.91,80.64,60.51l0.67-.4C257,93.55,229.5,76.37,202,76.37c-26.16,0-52.12,15.57-76.87,38.3s-48.29,52.66-69.58,81.49C37,221.36,17.11,231-3.65,231c-30.38,0-62.84-20.71-95.88-44.05s-66.69-49.25-99.62-59.5a46.29,46.29,0,0,0-13.82-2c-16.8,0-35.66,7.89-55.46,19.84-29.69,17.92-61.48,45-91.36,68.57s-57.87,43.57-79.78,47.35c-9.83,1.7-18.18,6.56-25.93,12.87-11.63,9.46-22,22.17-34,32.5s-25.68,18.26-44,18.26c-25.65,0-60.61-15.53-112.94-62.11l-0.52.58h0Z"/><path class="cls-6" d="M-656.95,272.89c52.39,45.87,87.42,61.41,113.28,61.42,25.12,0,41.43-14.7,56.3-30.25s28.39-32,47.82-35.73c14.88-2.9,32.45-12.57,51.53-25.44,28.61-19.31,60.61-45.82,91.79-67.5s61.55-38.5,86.78-38.49a48.67,48.67,0,0,1,14.06,2c32.71,9.8,66,35.64,98.72,59.06s64.81,44.42,95.3,44.43c20.62,0,40.44-9.67,59-34.6,21.26-28.54,44.61-58.34,69.05-81s50-38.12,75.52-38.12c26.44,0,53.08,16.52,78.88,59.08l0.67-.4C255.9,104.67,229,87.89,202.21,87.89c-25.89,0-51.54,15.62-76,38.32S78.29,178.75,57,207.31c-18.49,24.8-38,34.28-58.39,34.28-30.12,0-62.16-20.88-94.85-44.29s-66-49.3-98.95-59.17a49.51,49.51,0,0,0-14.28-2c-17,0-36.25,7.53-56.42,19-30.24,17.16-62.65,43.14-93,65.91s-58.77,42.3-80.79,46.57c-19.81,3.86-33.38,20.44-48.24,36s-31,30-55.74,30c-25.53,0-60.45-15.4-112.77-61.22l-0.51.58h0Z"/><path class="cls-6" d="M-656.92,282.51c52.38,45.13,87.37,60.53,113.12,60.54a58.47,58.47,0,0,0,32.22-9.54c13.63-8.66,24.25-21.8,35.16-33.54s22.1-22.08,36.79-25.24c14.94-3.22,32.7-12.79,52-25.31,29-18.79,61.59-44.25,93.35-65s62.7-36.8,88.33-36.79a52.27,52.27,0,0,1,14.54,2c32.68,9.41,65.69,35.23,98,58.73S-29.33,253,.91,253c20.21,0,39.72-9.52,58.15-34.05,21.24-28.27,44.41-58,68.61-80.61s49.42-38.15,74.69-38.15c25.79,0,51.8,16.13,77.12,57.66l0.66-.4c-25.38-41.64-51.64-58-77.79-58-25.6,0-51,15.67-75.22,38.36s-47.46,52.43-68.7,80.71C40.1,242.85,20.87,252.19.91,252.2c-29.87,0-61.49-21-93.81-44.53s-65.36-49.35-98.27-58.84a53,53,0,0,0-14.75-2c-17.3,0-36.85,7.18-57.38,18.11-30.79,16.4-63.82,41.27-94.71,63.24s-59.66,41-81.8,45.78c-20,4.31-33.38,21.48-48.13,37.46-7.37,8-15.08,15.72-24.07,21.42a57.69,57.69,0,0,1-31.8,9.42c-25.42,0-60.3-15.27-112.61-60.35l-0.5.59h0Z"/><path class="cls-6" d="M-656.89,292.13c52.36,44.4,87.32,59.67,113,59.67A57.8,57.8,0,0,0-511.49,342c13.64-8.89,24.15-22.39,35-34.52s22-22.88,36.76-26.38c30-7.1,71.85-37.81,115-66.74s87.58-56.07,122.31-56a56.24,56.24,0,0,1,15,1.93c32.66,9,65.36,34.82,97.33,58.38s63.23,44.92,93.23,44.93c19.81,0,39-9.38,57.3-33.51,21.21-28,44.21-57.61,68.17-80.22s48.87-38.19,73.85-38.18c25.15,0,50.54,15.74,75.38,56.24l0.66-.4c-24.9-40.62-50.54-56.62-76-56.61-25.32,0-50.36,15.73-74.38,38.4s-47,52.33-68.25,80.32c-18.21,24-37.13,33.2-56.69,33.21-29.61,0-60.81-21.22-92.77-44.78s-64.7-49.41-97.59-58.51a57,57,0,0,0-15.23-2c-35.11,0-79.56,27.24-122.74,56.18s-85.08,59.63-114.77,66.63c-20.1,4.76-33.37,22.52-48,39-7.32,8.24-15,16.16-24,22a57,57,0,0,1-32,9.66c-25.31,0-60.16-15.13-112.46-59.49l-0.5.59h0Z"/><path class="cls-6" d="M-656.86,301.75c52.34,43.69,87.27,58.81,112.8,58.82a57.18,57.18,0,0,0,32.68-10c13.65-9.11,24.06-23,34.81-35.5s21.82-23.69,36.73-27.52c30.09-7.74,72.6-37.37,116.5-65.06s89.15-53.42,124.42-53.4A60.64,60.64,0,0,1-183.38,171c32.64,8.62,65,34.39,96.63,58s62.44,45.17,92.19,45.19c19.42,0,38.32-9.24,56.46-33,21.19-27.7,44-57.24,67.72-79.84s48.31-38.23,73-38.23c24.51,0,49.28,15.35,73.65,54.84l0.65-.4c-24.42-39.6-49.44-55.21-74.31-55.21-25,0-49.77,15.78-73.54,38.44S82.49,213,61.3,240.75C43.23,264.36,24.6,273.41,5.44,273.42c-29.36,0-60.13-21.39-91.73-45s-64-49.47-96.9-58.16a61.41,61.41,0,0,0-15.74-1.93c-35.63,0-80.91,25.83-124.83,53.52s-86.45,57.31-116.28,65c-20.25,5.22-33.36,23.56-47.89,40.51-7.27,8.48-14.88,16.61-23.88,22.62a56.4,56.4,0,0,1-32.26,9.9c-25.21,0-60-15-112.31-58.64l-0.49.59h0Z"/><path class="cls-6" d="M-656.83,311.36c52.32,43,87.22,58,112.66,58a56.61,56.61,0,0,0,32.92-10.27c13.67-9.34,24-23.57,34.62-36.49s21.67-24.5,36.7-28.67c30.2-8.39,73.34-36.93,118-63.37s90.71-50.76,126.53-50.75a65.64,65.64,0,0,1,16.06,1.87c32.62,8.21,64.69,34,95.92,57.68S-21.81,284.78,7.7,284.8c19,0,37.63-9.1,55.63-32.43,21.16-27.42,43.79-56.88,67.26-79.47s47.75-38.28,72.17-38.27c23.88,0,48,15,71.94,53.45l0.65-.4c-23.95-38.59-48.35-53.81-72.59-53.81-24.76,0-49.17,15.84-72.7,38.49s-46.17,52.13-67.33,79.55C44.8,275.11,26.47,284,7.7,284c-29.11,0-59.46-21.57-90.68-45.3s-63.33-49.53-96.2-57.82a66.37,66.37,0,0,0-16.25-1.9c-36.16,0-82.28,24.41-126.92,50.86s-87.8,55-117.78,63.29c-20.4,5.67-33.34,24.61-47.76,42-7.21,8.72-14.77,17.06-23.79,23.22a55.85,55.85,0,0,1-32.49,10.14c-25.12,0-59.91-14.85-112.17-57.8l-0.48.59h0Z"/><path class="cls-6" d="M-656.81,321c52.29,42.29,87.16,57.13,112.51,57.13a56.07,56.07,0,0,0,33.17-10.52c13.68-9.57,23.86-24.17,34.43-37.47S-455.17,304.8-440,300.3c30.3-9,74.07-36.49,119.42-61.68s92.26-48.11,128.64-48.1a71.21,71.21,0,0,1,16.6,1.84c32.6,7.8,64.35,33.52,95.21,57.33s60.83,45.71,90.1,45.72c18.65,0,36.95-9,54.81-31.9,21.13-27.14,43.58-56.52,66.8-79.1s47.19-38.33,71.31-38.32c23.25,0,46.81,14.58,70.23,52.06l0.65-.4c-23.47-37.58-47.27-52.42-70.88-52.42-24.47,0-48.57,15.91-71.84,38.54S85.28,235.9,64.15,263c-17.78,22.82-35.82,31.6-54.21,31.61-28.87,0-58.78-21.76-89.63-45.57s-62.64-49.59-95.5-57.47A71.94,71.94,0,0,0-192,189.76c-36.69,0-83.64,23-129,48.2s-89.15,52.65-119.27,61.62c-20.54,6.13-33.32,25.67-47.62,43.58-7.15,9-14.67,17.51-23.69,23.82a55.3,55.3,0,0,1-32.73,10.38c-25,0-59.81-14.71-112-57l-0.48.59h0Z"/></g><path class="cls-7" d="M13,87.58h3.25c2.66,0,4.23.87,4.23,3.33s-1.59,3.47-4.23,3.47H13.84V99.5H13V87.58Zm3,6.09c2.44,0,3.6-.81,3.6-2.77s-1.18-2.62-3.6-2.62H13.84v5.39H16Z"/><path class="cls-7" d="M22.93,90.82h0.69l0.07,1.61h0.05a3,3,0,0,1,2.46-1.83,1.79,1.79,0,0,1,.87.18l-0.18.72a1.89,1.89,0,0,0-.79-0.14c-0.78,0-1.7.6-2.37,2.22V99.5h-0.8V90.82Z"/><path class="cls-7" d="M31.73,90.6c2.06,0,3.33,1.46,3.33,4a3.93,3.93,0,0,1,0,.65H28.76C28.8,97.45,30.08,99,32,99a3.85,3.85,0,0,0,2.33-.78l0.33,0.61a4.84,4.84,0,0,1-2.73.85c-2.22,0-4-1.7-4-4.54S29.79,90.6,31.73,90.6Zm2.57,4.05c0-2.22-1-3.36-2.55-3.36s-2.8,1.28-3,3.36h5.53Z"/><path class="cls-7" d="M40.53,90.6a4,4,0,0,1,2.62,1.07l0-1.59V86.5h0.8v13H43.23l-0.07-1.12H43.1a4.07,4.07,0,0,1-2.82,1.34c-2.19,0-3.6-1.61-3.6-4.54S38.47,90.6,40.53,90.6ZM40.39,99a3.92,3.92,0,0,0,2.73-1.43V92.43a3.67,3.67,0,0,0-2.53-1.12c-1.74,0-3.06,1.68-3.06,3.87S38.55,99,40.39,99Z"/><path class="cls-7" d="M46.94,88a0.72,0.72,0,1,1,.72.71A0.69,0.69,0,0,1,46.94,88Zm0.31,2.8H48V99.5h-0.8V90.82Z"/><path class="cls-7" d="M54.63,90.6a3.56,3.56,0,0,1,2.55,1.07l-0.47.56a3,3,0,0,0-2.06-.92c-1.77,0-3.15,1.57-3.15,3.87S52.74,99,54.64,99A3.49,3.49,0,0,0,57,98l0.42,0.54a4.1,4.1,0,0,1-2.77,1.16c-2.24,0-3.94-1.66-3.94-4.54S52.51,90.6,54.63,90.6Z"/><path class="cls-7" d="M59.71,91.5H58.35V90.89l1.38-.07,0.11-2.51h0.69v2.51H63V91.5H60.52v5.66c0,1.1.27,1.84,1.46,1.84a2.9,2.9,0,0,0,1.08-.27l0.22,0.65a4.85,4.85,0,0,1-1.41.33c-1.68,0-2.17-1.07-2.17-2.62V91.5Z"/><path class="cls-7" d="M64.85,88a0.72,0.72,0,1,1,.72.71A0.69,0.69,0,0,1,64.85,88Zm0.31,2.8h0.8V99.5h-0.8V90.82Z"/><path class="cls-7" d="M72.46,90.6c2.1,0,3.91,1.66,3.91,4.57s-1.81,4.54-3.91,4.54-3.89-1.66-3.89-4.54S70.38,90.6,72.46,90.6Zm0,8.41c1.75,0,3.07-1.56,3.07-3.83s-1.32-3.87-3.07-3.87-3.06,1.57-3.06,3.87S70.71,99,72.46,99Z"/><path class="cls-7" d="M79,90.82h0.69l0.07,1.34h0.05a4.24,4.24,0,0,1,3-1.56c1.79,0,2.62,1.08,2.62,3.33V99.5H84.6V94c0-1.84-.58-2.71-2-2.71-1,0-1.77.54-2.84,1.63V99.5H79V90.82Z"/><path class="cls-7" d="M88,97.92A4,4,0,0,0,90.75,99a1.8,1.8,0,0,0,2.06-1.72c0-1.08-1.12-1.56-2.12-1.92-1.32-.47-2.77-1-2.77-2.48,0-1.27,1-2.31,2.8-2.31a4,4,0,0,1,2.48.9l-0.43.56a3.29,3.29,0,0,0-2.08-.78,1.68,1.68,0,0,0-2,1.57c0,1,1,1.37,2,1.75,1.36,0.51,2.84,1,2.84,2.66,0,1.3-1,2.44-2.93,2.44a5,5,0,0,1-3.18-1.19Z"/><path class="cls-7" d="M102.69,90.6c2.1,0,3.91,1.66,3.91,4.57s-1.81,4.54-3.91,4.54-3.89-1.66-3.89-4.54S100.61,90.6,102.69,90.6Zm0,8.41c1.75,0,3.07-1.56,3.07-3.83s-1.32-3.87-3.07-3.87-3.06,1.57-3.06,3.87S100.93,99,102.69,99Z"/><path class="cls-7" d="M109.2,90.82h0.69L110,92.16H110a4.24,4.24,0,0,1,3-1.56c1.79,0,2.62,1.08,2.62,3.33V99.5h-0.79V94c0-1.84-.58-2.71-2-2.71-1,0-1.77.54-2.84,1.63V99.5h-0.8V90.82Z"/><path class="cls-7" d="M122.62,91.5h-1.36V90.89l1.38-.07,0.11-2.51h0.69v2.51h2.51V91.5h-2.51v5.66c0,1.1.27,1.84,1.46,1.84a2.9,2.9,0,0,0,1.08-.27l0.22,0.65a4.85,4.85,0,0,1-1.41.33c-1.68,0-2.17-1.07-2.17-2.62V91.5Z"/><path class="cls-7" d="M128.07,86.5h0.8v5.68a4.27,4.27,0,0,1,3-1.57c1.79,0,2.62,1.08,2.62,3.33V99.5h-0.79V94c0-1.84-.58-2.71-2-2.71-1,0-1.77.54-2.84,1.63V99.5h-0.8v-13Z"/><path class="cls-7" d="M140.67,90.6c2.06,0,3.33,1.46,3.33,4a3.93,3.93,0,0,1,0,.65h-6.26C137.74,97.45,139,99,141,99a3.85,3.85,0,0,0,2.33-.78l0.33,0.61a4.84,4.84,0,0,1-2.73.85c-2.22,0-4-1.7-4-4.54S138.74,90.6,140.67,90.6Zm2.57,4.05c0-2.22-1-3.36-2.55-3.36s-2.8,1.28-3,3.36h5.53Z"/><path class="cls-7" d="M16.3,108.93a2.34,2.34,0,0,0-1-.25c-0.92,0-1.36.72-1.36,2v1.88h2v0.69h-2v8H13.1v-8H11.9V112.6l1.19-.07v-1.94c0-1.72.78-2.6,2.15-2.6a3.23,3.23,0,0,1,1.27.29Z"/><path class="cls-7" d="M17.6,112.52h0.8V118c0,1.84.58,2.71,2,2.71,1,0,1.79-.54,2.8-1.77v-6.4H24v8.68H23.29l-0.09-1.45h0a3.88,3.88,0,0,1-2.95,1.66c-1.79,0-2.62-1.08-2.62-3.33v-5.57Z"/><path class="cls-7" d="M27.49,113.21H26.14V112.6l1.38-.07L27.62,110h0.69v2.51h2.51v0.69H28.31v5.66c0,1.1.27,1.84,1.46,1.84a2.9,2.9,0,0,0,1.08-.27l0.22,0.65a4.85,4.85,0,0,1-1.41.33c-1.68,0-2.17-1.07-2.17-2.62v-5.59Z"/><path class="cls-7" d="M32.81,112.52h0.8V118c0,1.84.58,2.71,2,2.71,1,0,1.79-.54,2.8-1.77v-6.4h0.79v8.68H38.51l-0.09-1.45h0a3.88,3.88,0,0,1-2.95,1.66c-1.79,0-2.62-1.08-2.62-3.33v-5.57Z"/><path class="cls-7" d="M42.51,112.52h0.69l0.07,1.61h0.05a3,3,0,0,1,2.46-1.83,1.79,1.79,0,0,1,.87.18l-0.18.72a1.89,1.89,0,0,0-.79-0.14c-0.78,0-1.7.6-2.37,2.22v5.91h-0.8v-8.68Z"/><path class="cls-7" d="M51.3,112.31c2.06,0,3.33,1.46,3.33,4a3.93,3.93,0,0,1,0,.65H48.33c0,2.19,1.32,3.76,3.27,3.76a3.85,3.85,0,0,0,2.33-.78l0.33,0.61a4.84,4.84,0,0,1-2.73.85c-2.22,0-4-1.7-4-4.54S49.36,112.31,51.3,112.31Zm2.57,4.05c0-2.22-1-3.36-2.55-3.36s-2.8,1.28-3,3.36h5.53Z"/><path class="cls-7" d="M63.74,112.31c2.1,0,3.91,1.66,3.91,4.57s-1.81,4.54-3.91,4.54-3.89-1.66-3.89-4.54S61.66,112.31,63.74,112.31Zm0,8.41c1.75,0,3.07-1.56,3.07-3.83S65.5,113,63.74,113s-3.06,1.57-3.06,3.87S62,120.72,63.74,120.72Z"/><path class="cls-7" d="M73.58,108.93a2.34,2.34,0,0,0-1-.25c-0.92,0-1.36.72-1.36,2v1.88h2v0.69h-2v8h-0.8v-8H69.19V112.6l1.19-.07v-1.94c0-1.72.78-2.6,2.15-2.6a3.23,3.23,0,0,1,1.27.29Z"/><path class="cls-7" d="M78,119.63a4,4,0,0,0,2.77,1.1A1.8,1.8,0,0,0,82.83,119c0-1.08-1.12-1.56-2.12-1.92-1.32-.47-2.77-1-2.77-2.48,0-1.27,1-2.31,2.8-2.31a4,4,0,0,1,2.48.9l-0.43.56a3.29,3.29,0,0,0-2.08-.78,1.68,1.68,0,0,0-2,1.57c0,1,1,1.37,2,1.75,1.36,0.51,2.84,1,2.84,2.66,0,1.3-1,2.44-2.93,2.44a5,5,0,0,1-3.18-1.19Z"/><path class="cls-7" d="M89,112.31c2.06,0,3.33,1.46,3.33,4a3.93,3.93,0,0,1,0,.65H86c0,2.19,1.32,3.76,3.27,3.76a3.85,3.85,0,0,0,2.33-.78L92,120.57a4.84,4.84,0,0,1-2.73.85c-2.22,0-4-1.7-4-4.54S87.06,112.31,89,112.31Zm2.57,4.05c0-2.22-1-3.36-2.55-3.36s-2.8,1.28-3,3.36h5.53Z"/><path class="cls-7" d="M94.67,112.52h0.69l0.07,1.61h0.05a3,3,0,0,1,2.46-1.83,1.79,1.79,0,0,1,.87.18l-0.18.72a1.89,1.89,0,0,0-.79-0.14c-0.78,0-1.7.6-2.37,2.22v5.91h-0.8v-8.68Z"/><path class="cls-7" d="M99,112.52h0.87l2,5.44c0.27,0.83.6,1.7,0.87,2.5h0.07c0.29-.8.6-1.66,0.89-2.5l2-5.44h0.81l-3.22,8.68h-0.94Z"/><path class="cls-7" d="M108,109.72a0.72,0.72,0,1,1,.72.71A0.69,0.69,0,0,1,108,109.72Zm0.31,2.8h0.8v8.68h-0.8v-8.68Z"/><path class="cls-7" d="M115.64,112.31a3.56,3.56,0,0,1,2.55,1.07l-0.47.56a3,3,0,0,0-2.06-.92c-1.77,0-3.15,1.57-3.15,3.87s1.25,3.83,3.15,3.83a3.49,3.49,0,0,0,2.31-1l0.42,0.54a4.1,4.1,0,0,1-2.77,1.16c-2.24,0-3.94-1.66-3.94-4.54S113.52,112.31,115.64,112.31Z"/><path class="cls-7" d="M123.58,112.31c2.06,0,3.33,1.46,3.33,4a3.93,3.93,0,0,1,0,.65h-6.26c0,2.19,1.32,3.76,3.27,3.76a3.85,3.85,0,0,0,2.33-.78l0.33,0.61a4.84,4.84,0,0,1-2.73.85c-2.22,0-4-1.7-4-4.54S121.64,112.31,123.58,112.31Zm2.57,4.05c0-2.22-1-3.36-2.55-3.36s-2.8,1.28-3,3.36h5.53Z"/><path class="cls-7" d="M136,112.31a4,4,0,0,1,2.62,1.07l0-1.59V108.2h0.8v13h-0.69l-0.07-1.12h-0.05a4.07,4.07,0,0,1-2.82,1.34c-2.19,0-3.6-1.61-3.6-4.54S133.93,112.31,136,112.31Zm-0.14,8.41a3.92,3.92,0,0,0,2.73-1.43v-5.15A3.67,3.67,0,0,0,136,113c-1.74,0-3.06,1.68-3.06,3.87S134,120.72,135.84,120.72Z"/><path class="cls-7" d="M145.76,112.31c2.06,0,3.33,1.46,3.33,4a3.93,3.93,0,0,1,0,.65h-6.26c0,2.19,1.32,3.76,3.27,3.76a3.85,3.85,0,0,0,2.33-.78l0.33,0.61a4.84,4.84,0,0,1-2.73.85c-2.22,0-4-1.7-4-4.54S143.82,112.31,145.76,112.31Zm2.57,4.05c0-2.22-1-3.36-2.55-3.36s-2.8,1.28-3,3.36h5.53Z"/><path class="cls-7" d="M150.82,119.63a4,4,0,0,0,2.77,1.1,1.8,1.8,0,0,0,2.06-1.72c0-1.08-1.12-1.56-2.12-1.92-1.32-.47-2.77-1-2.77-2.48,0-1.27,1-2.31,2.8-2.31a4,4,0,0,1,2.48.9l-0.43.56a3.29,3.29,0,0,0-2.08-.78,1.68,1.68,0,0,0-2,1.57c0,1,1,1.37,2,1.75,1.36,0.51,2.84,1,2.84,2.66,0,1.3-1,2.44-2.93,2.44a5,5,0,0,1-3.18-1.19Z"/><path class="cls-7" d="M158.46,109.72a0.72,0.72,0,1,1,.72.71A0.69,0.69,0,0,1,158.46,109.72Zm0.31,2.8h0.8v8.68h-0.8v-8.68Z"/><path class="cls-7" d="M163.47,120.88v-0.07a1.55,1.55,0,0,1-.76-1.39,2,2,0,0,1,.94-1.59v-0.07a3.24,3.24,0,0,1-1.08-2.39,3,3,0,0,1,3.06-3.06,3.1,3.1,0,0,1,1.14.22h2.95v0.67h-2a2.89,2.89,0,0,1,1,2.19,3,3,0,0,1-3,3.06,3,3,0,0,1-1.45-.36,1.56,1.56,0,0,0-.71,1.25c0,0.63.36,1.14,1.66,1.14H167c2,0,2.86.62,2.86,2s-1.61,2.93-4.1,2.93c-2.19,0-3.56-.94-3.56-2.4A2.74,2.74,0,0,1,163.47,120.88Zm2.37,3.85c2,0,3.2-1.1,3.2-2.19s-0.71-1.32-2-1.32h-1.86a5.38,5.38,0,0,1-1.08-.14,2.27,2.27,0,0,0-1.14,1.83C162.94,124,164,124.73,165.83,124.73Zm2-9.37a2.26,2.26,0,1,0-4.5,0A2.26,2.26,0,1,0,167.86,115.36Z"/><path class="cls-7" d="M171.71,112.52h0.69l0.07,1.34h0.05a4.24,4.24,0,0,1,3-1.56c1.79,0,2.62,1.08,2.62,3.33v5.57h-0.79v-5.46c0-1.84-.58-2.71-2-2.71-1,0-1.77.54-2.84,1.63v6.55h-0.8v-8.68Z"/><line class="cls-8" x1="11.3" y1="69.24" x2="39.73" y2="69.24"/><path class="cls-7" d="M14.12,29.37a8.88,8.88,0,0,1,2.15-6.15,6.89,6.89,0,0,1,5.36-2.41A8.94,8.94,0,0,1,26.34,22L26,22.82a7.87,7.87,0,0,0-2-.88,9.63,9.63,0,0,0-2.35-.24,6,6,0,0,0-4.72,2.13A8,8,0,0,0,15,29.36v4.23a6.72,6.72,0,0,1,2.51-3,6.94,6.94,0,0,1,3.95-1.15,6.31,6.31,0,0,1,5.11,2.23,8.77,8.77,0,0,1,1.87,5.83,8.49,8.49,0,0,1-2,5.87,6.6,6.6,0,0,1-5.16,2.26,6.39,6.39,0,0,1-5.15-2.42,9.72,9.72,0,0,1-2-6.41V29.37ZM15,36.07h0v0.7a9,9,0,0,0,1.74,5.78,5.49,5.49,0,0,0,4.51,2.19,5.69,5.69,0,0,0,4.53-2.05,7.47,7.47,0,0,0,1.76-5,8.24,8.24,0,0,0-1.61-5.38,5.6,5.6,0,0,0-4.59-2A6.38,6.38,0,0,0,16.92,32,5.3,5.3,0,0,0,15,36.07Z"/></svg>