<svg id="Layer_1" data-name="Layer 1" xmlns="http://www.w3.org/2000/svg" viewBox="0 0 189.76 147"><defs><style>.cls-1{fill:#fff;}.cls-2{fill:none;stroke:#2e74b5;stroke-width:0.47px;}</style></defs><title>thesis_final_website</title><path class="cls-1" d="M13.92,97.22a4.7,4.7,0,0,0,3.51,1.61c1.81,0,3-1,3-2.39s-1-2-2.15-2.5l-1.81-.81c-1-.45-2.41-1.19-2.41-3s1.48-2.93,3.45-2.93a4.54,4.54,0,0,1,3.33,1.43l-0.49.56A3.78,3.78,0,0,0,17.48,88c-1.57,0-2.62.83-2.62,2.13s1.19,1.9,2.06,2.3l1.81,0.8c1.32,0.6,2.5,1.34,2.5,3.16s-1.5,3.2-3.81,3.2a5.25,5.25,0,0,1-4-1.79Z"/><path class="cls-1" d="M26.63,90.48c2.06,0,3.33,1.46,3.33,4a3.93,3.93,0,0,1,0,.65H23.67c0,2.19,1.32,3.76,3.27,3.76a3.85,3.85,0,0,0,2.33-.78l0.33,0.61a4.84,4.84,0,0,1-2.73.85c-2.22,0-4-1.7-4-4.54S24.7,90.48,26.63,90.48Zm2.57,4.05c0-2.22-1-3.36-2.55-3.36s-2.8,1.28-3,3.36H29.2Z"/><path class="cls-1" d="M32.31,90.7H33l0.07,1.61h0.05a3,3,0,0,1,2.46-1.83,1.79,1.79,0,0,1,.87.18l-0.18.72a1.89,1.89,0,0,0-.79-0.14c-0.78,0-1.7.6-2.37,2.22v5.91h-0.8V90.7Z"/><path class="cls-1" d="M36.6,90.7h0.87l2,5.44c0.27,0.83.6,1.7,0.87,2.5h0.07c0.29-.8.6-1.66,0.89-2.5l2-5.44H44L40.8,99.38H39.86Z"/><path class="cls-1" d="M45.59,87.89a0.72,0.72,0,1,1,.72.71A0.69,0.69,0,0,1,45.59,87.89Zm0.31,2.8h0.8v8.68H45.9V90.7Z"/><path class="cls-1" d="M53.28,90.48a3.56,3.56,0,0,1,2.55,1.07l-0.47.56a3,3,0,0,0-2.06-.92c-1.77,0-3.15,1.57-3.15,3.87s1.25,3.83,3.15,3.83a3.49,3.49,0,0,0,2.31-1L56,98.44a4.1,4.1,0,0,1-2.77,1.16c-2.24,0-3.94-1.66-3.94-4.54S51.16,90.48,53.28,90.48Z"/><path class="cls-1" d="M61.22,90.48c2.06,0,3.33,1.46,3.33,4a3.93,3.93,0,0,1,0,.65H58.25c0,2.19,1.32,3.76,3.27,3.76a3.85,3.85,0,0,0,2.33-.78l0.33,0.61a4.84,4.84,0,0,1-2.73.85c-2.22,0-4-1.7-4-4.54S59.28,90.48,61.22,90.48Zm2.57,4.05c0-2.22-1-3.36-2.55-3.36s-2.8,1.28-3,3.36h5.53Z"/><path class="cls-1" d="M73.63,90.48a4,4,0,0,1,2.62,1.07l0-1.59V86.38H77v13H76.32l-0.07-1.12H76.19a4.06,4.06,0,0,1-2.82,1.34c-2.19,0-3.6-1.61-3.6-4.54S71.57,90.48,73.63,90.48Zm-0.14,8.41a3.92,3.92,0,0,0,2.73-1.43V92.31a3.67,3.67,0,0,0-2.53-1.12c-1.74,0-3.06,1.68-3.06,3.87S71.64,98.89,73.48,98.89Z"/><path class="cls-1" d="M83.39,90.48c2.06,0,3.33,1.46,3.33,4a3.93,3.93,0,0,1,0,.65H80.43c0,2.19,1.32,3.76,3.27,3.76A3.85,3.85,0,0,0,86,98.13l0.33,0.61a4.84,4.84,0,0,1-2.73.85c-2.22,0-4-1.7-4-4.54S81.46,90.48,83.39,90.48ZM86,94.53c0-2.22-1-3.36-2.55-3.36s-2.8,1.28-3,3.36H86Z"/><path class="cls-1" d="M88.46,97.8a4,4,0,0,0,2.77,1.1,1.8,1.8,0,0,0,2.06-1.72c0-1.08-1.12-1.55-2.12-1.92-1.32-.47-2.77-1-2.77-2.48,0-1.27,1-2.31,2.8-2.31a4,4,0,0,1,2.48.9l-0.43.56a3.29,3.29,0,0,0-2.08-.78,1.68,1.68,0,0,0-2,1.57c0,1,1,1.37,2,1.75,1.36,0.51,2.84,1,2.84,2.66,0,1.3-1,2.44-2.93,2.44A5,5,0,0,1,88,98.4Z"/><path class="cls-1" d="M96.09,87.89a0.72,0.72,0,1,1,.72.71A0.69,0.69,0,0,1,96.09,87.89Zm0.31,2.8h0.8v8.68H96.4V90.7Z"/><path class="cls-1" d="M101.1,99.05V99a1.55,1.55,0,0,1-.76-1.39,2,2,0,0,1,.94-1.59V95.92a3.24,3.24,0,0,1-1.08-2.39,3,3,0,0,1,3.06-3.06,3.1,3.1,0,0,1,1.14.22h2.95v0.67h-2a2.89,2.89,0,0,1,1,2.19,3,3,0,0,1-3,3.06,3,3,0,0,1-1.45-.36,1.56,1.56,0,0,0-.71,1.25c0,0.63.36,1.14,1.66,1.14h1.86c2,0,2.86.61,2.86,2s-1.61,2.93-4.1,2.93c-2.19,0-3.56-.94-3.56-2.4A2.74,2.74,0,0,1,101.1,99.05Zm2.37,3.85c2,0,3.2-1.1,3.2-2.19s-0.71-1.32-2-1.32H102.8a5.38,5.38,0,0,1-1.08-.14,2.27,2.27,0,0,0-1.14,1.83C100.58,102.16,101.63,102.9,103.47,102.9Zm2-9.37a2.26,2.26,0,1,0-4.5,0A2.26,2.26,0,1,0,105.5,93.54Z"/><path class="cls-1" d="M109.35,90.7H110L110.11,92h0.05a4.24,4.24,0,0,1,3-1.56c1.79,0,2.62,1.08,2.62,3.33v5.57H115V93.92c0-1.84-.58-2.71-2-2.71-1,0-1.77.54-2.84,1.63v6.55h-0.8V90.7Z"/><path class="cls-1" d="M122.58,86.38h0.8v3.76l0,1.7a5,5,0,0,1,3-1.36c2.31,0,3.47,1.74,3.47,4.43,0,2.95-1.79,4.68-3.83,4.68a4.49,4.49,0,0,1-2.6-1h0l-0.09.81h-0.67v-13Zm3.36,12.51c1.75,0,3-1.63,3-4,0-2.13-.76-3.72-2.75-3.72a4.55,4.55,0,0,0-2.84,1.43v5.15A4.17,4.17,0,0,0,125.94,98.89Z"/><path class="cls-1" d="M137.53,93.93c0-1.32-.34-2.75-2-2.75a4.79,4.79,0,0,0-2.77,1l-0.36-.6a5.79,5.79,0,0,1,3.22-1.12c2.06,0,2.75,1.48,2.75,3.35v5.55h-0.67l-0.09-1.12h0a5.15,5.15,0,0,1-3.07,1.34,2.29,2.29,0,0,1-2.53-2.39C131.93,95.29,133.68,94.37,137.53,93.93Zm-2.95,5a4.54,4.54,0,0,0,2.95-1.41V94.55c-3.56.42-4.77,1.25-4.77,2.62A1.63,1.63,0,0,0,134.59,98.91Z"/><path class="cls-1" d="M144.68,90.48a3.56,3.56,0,0,1,2.55,1.07l-0.47.56a3,3,0,0,0-2.06-.92c-1.77,0-3.15,1.57-3.15,3.87s1.25,3.83,3.15,3.83a3.49,3.49,0,0,0,2.31-1l0.42,0.54a4.1,4.1,0,0,1-2.77,1.16c-2.24,0-3.94-1.66-3.94-4.54S142.56,90.48,144.68,90.48Z"/><path class="cls-1" d="M149.56,86.38h0.8V96h0l4.29-5.26h0.92l-2.82,3.44,3.29,5.24h-0.89l-2.87-4.65-2,2.28v2.37h-0.8v-13Z"/><path class="cls-1" d="M157,94.51h4v0.71h-4V94.51Z"/><path class="cls-1" d="M14.84,120.76v-0.07a1.55,1.55,0,0,1-.76-1.39A2,2,0,0,1,15,117.7v-0.07a3.24,3.24,0,0,1-1.08-2.39A3,3,0,0,1,17,112.19a3.1,3.1,0,0,1,1.14.22h2.95v0.67h-2a2.89,2.89,0,0,1,1,2.19,3,3,0,0,1-3,3.06,3,3,0,0,1-1.45-.36,1.56,1.56,0,0,0-.71,1.25c0,0.63.36,1.14,1.66,1.14h1.86c2,0,2.86.61,2.86,2s-1.61,2.93-4.1,2.93c-2.19,0-3.56-.94-3.56-2.4A2.74,2.74,0,0,1,14.84,120.76Zm2.37,3.85c2,0,3.2-1.1,3.2-2.19s-0.71-1.32-2-1.32H16.54a5.38,5.38,0,0,1-1.08-.14,2.27,2.27,0,0,0-1.14,1.83C14.31,123.87,15.36,124.61,17.21,124.61Zm2-9.37a2.26,2.26,0,1,0-4.5,0A2.26,2.26,0,1,0,19.23,115.24Z"/><path class="cls-1" d="M23.09,112.4h0.69L23.85,114H23.9a3,3,0,0,1,2.46-1.83,1.79,1.79,0,0,1,.87.18l-0.18.72a1.89,1.89,0,0,0-.79-0.14c-0.78,0-1.7.6-2.37,2.22v5.91h-0.8V112.4Z"/><path class="cls-1" d="M32,112.19c2.1,0,3.91,1.66,3.91,4.57S34.08,121.3,32,121.3s-3.89-1.66-3.89-4.54S29.91,112.19,32,112.19Zm0,8.41c1.75,0,3.07-1.55,3.07-3.83s-1.32-3.87-3.07-3.87-3.06,1.57-3.06,3.87S30.23,120.59,32,120.59Z"/><path class="cls-1" d="M38.37,112.4h0.8v5.46c0,1.84.58,2.71,2,2.71,1,0,1.79-.54,2.8-1.77v-6.4h0.79v8.68H44.07L44,119.64h0A3.88,3.88,0,0,1,41,121.3c-1.79,0-2.62-1.08-2.62-3.33V112.4Z"/><path class="cls-1" d="M48.07,112.4h0.69l0.07,1.34h0.05a4.24,4.24,0,0,1,3-1.56c1.79,0,2.62,1.08,2.62,3.33v5.57H53.69v-5.46c0-1.84-.58-2.71-2-2.71-1,0-1.77.54-2.84,1.63v6.55h-0.8V112.4Z"/><path class="cls-1" d="M60.82,112.19a4,4,0,0,1,2.62,1.07l0-1.59v-3.58h0.8v13H63.52L63.44,120H63.39a4.06,4.06,0,0,1-2.82,1.34c-2.19,0-3.6-1.61-3.6-4.54S58.76,112.19,60.82,112.19Zm-0.14,8.41a3.92,3.92,0,0,0,2.73-1.43V114a3.67,3.67,0,0,0-2.53-1.12c-1.74,0-3.06,1.68-3.06,3.87S58.83,120.59,60.68,120.59Z"/><path class="cls-1" d="M76.25,115.64c0-1.32-.34-2.75-2-2.75a4.79,4.79,0,0,0-2.77,1l-0.36-.6a5.79,5.79,0,0,1,3.22-1.12c2.06,0,2.75,1.48,2.75,3.35v5.55H76.38L76.29,120h0a5.15,5.15,0,0,1-3.07,1.34,2.29,2.29,0,0,1-2.53-2.39C70.64,117,72.4,116.07,76.25,115.64Zm-2.95,5a4.54,4.54,0,0,0,2.95-1.41v-2.95c-3.56.42-4.77,1.25-4.77,2.62A1.63,1.63,0,0,0,73.3,120.61Z"/><path class="cls-1" d="M80.16,112.4h0.69l0.07,1.34H81a4.24,4.24,0,0,1,3-1.56c1.79,0,2.62,1.08,2.62,3.33v5.57H85.78v-5.46c0-1.84-.58-2.71-2-2.71-1,0-1.77.54-2.84,1.63v6.55h-0.8V112.4Z"/><path class="cls-1" d="M92.91,112.19a4,4,0,0,1,2.62,1.07l0-1.59v-3.58h0.8v13H95.6L95.53,120H95.48a4.06,4.06,0,0,1-2.82,1.34c-2.19,0-3.6-1.61-3.6-4.54S90.85,112.19,92.91,112.19Zm-0.14,8.41a3.92,3.92,0,0,0,2.73-1.43V114A3.67,3.67,0,0,0,93,112.89c-1.74,0-3.06,1.68-3.06,3.87S90.92,120.59,92.77,120.59Z"/><path class="cls-1" d="M106.28,112.19c2.06,0,3.33,1.46,3.33,4a3.93,3.93,0,0,1,0,.65h-6.26c0,2.19,1.32,3.76,3.27,3.76a3.85,3.85,0,0,0,2.33-.78l0.33,0.61a4.84,4.84,0,0,1-2.73.85c-2.22,0-4-1.7-4-4.54S104.34,112.19,106.28,112.19Zm2.57,4.05c0-2.22-1-3.36-2.55-3.36s-2.8,1.28-3,3.36h5.53Z"/><path class="cls-1" d="M110.51,112.4h0.87l2,5.44c0.27,0.83.6,1.7,0.87,2.5h0.07c0.29-.8.6-1.66,0.89-2.5l2-5.44h0.81l-3.22,8.68h-0.94Z"/><path class="cls-1" d="M123,112.19c2.1,0,3.91,1.66,3.91,4.57s-1.81,4.54-3.91,4.54-3.89-1.66-3.89-4.54S120.89,112.19,123,112.19Zm0,8.41c1.75,0,3.07-1.55,3.07-3.83s-1.32-3.87-3.07-3.87-3.06,1.57-3.06,3.87S121.22,120.59,123,120.59Z"/><path class="cls-1" d="M129.49,108.08h0.8v12c0,0.38.16,0.56,0.38,0.56a1.4,1.4,0,0,0,.33,0l0.14,0.65a1.68,1.68,0,0,1-.58.09c-0.71,0-1.07-.43-1.07-1.37V108.08Z"/><path class="cls-1" d="M133.65,112.4h0.8v5.46c0,1.84.58,2.71,2,2.71,1,0,1.79-.54,2.8-1.77v-6.4H140v8.68h-0.67l-0.09-1.45h0a3.88,3.88,0,0,1-2.95,1.66c-1.79,0-2.62-1.08-2.62-3.33V112.4Z"/><path class="cls-1" d="M143.54,113.09h-1.36v-0.61l1.38-.07,0.11-2.51h0.69v2.51h2.51v0.69h-2.51v5.66c0,1.1.27,1.84,1.46,1.84a2.91,2.91,0,0,0,1.08-.27l0.22,0.65a4.85,4.85,0,0,1-1.41.33c-1.68,0-2.17-1.07-2.17-2.62v-5.59Z"/><path class="cls-1" d="M148.68,109.6a0.72,0.72,0,1,1,.72.71A0.69,0.69,0,0,1,148.68,109.6Zm0.31,2.8h0.8v8.68H149V112.4Z"/><path class="cls-1" d="M156.29,112.19c2.1,0,3.91,1.66,3.91,4.57s-1.81,4.54-3.91,4.54-3.89-1.66-3.89-4.54S154.21,112.19,156.29,112.19Zm0,8.41c1.75,0,3.07-1.55,3.07-3.83s-1.32-3.87-3.07-3.87-3.06,1.57-3.06,3.87S154.54,120.59,156.29,120.59Z"/><path class="cls-1" d="M162.81,112.4h0.69l0.07,1.34h0.05a4.24,4.24,0,0,1,3-1.56c1.79,0,2.62,1.08,2.62,3.33v5.57h-0.79v-5.46c0-1.84-.58-2.71-2-2.71-1,0-1.77.54-2.84,1.63v6.55h-0.8V112.4Z"/><path class="cls-1" d="M23.53,45.48H22.64V21.87L16,23.17V22.4L23.53,21V45.48Z"/><line class="cls-2" x1="12.62" y1="69.24" x2="41.05" y2="69.24"/></svg>