<svg id="Layer_1" data-name="Layer 1" xmlns="http://www.w3.org/2000/svg" viewBox="0 0 95.81 50"><defs><style>.cls-1{fill:#2857a6;}.cls-2{fill:none;stroke:#2857a6;stroke-miterlimit:10;}</style></defs><title>menutopmenu</title><path class="cls-1" d="M11.39,9.7a4.72,4.72,0,0,1,3.38,1.42l-0.62.74a3.93,3.93,0,0,0-2.74-1.22c-2.35,0-4.18,2.09-4.18,5.14s1.66,5.09,4.18,5.09a4.63,4.63,0,0,0,3.07-1.32L15,20.26a5.45,5.45,0,0,1-3.67,1.54c-3,0-5.23-2.21-5.23-6S8.58,9.7,11.39,9.7Z"/><path class="cls-1" d="M17.87,4.25h1.06v7.54a5.66,5.66,0,0,1,4-2.09c2.38,0,3.48,1.44,3.48,4.42V21.5H25.34V14.26c0-2.45-.77-3.6-2.64-3.6-1.37,0-2.35.72-3.77,2.16V21.5H17.87V4.25Z"/><path class="cls-1" d="M37.34,14.28c0-1.75-.46-3.65-2.71-3.65A6.36,6.36,0,0,0,31,12l-0.48-.79A7.7,7.7,0,0,1,34.74,9.7c2.74,0,3.65,2,3.65,4.44V21.5H37.5L37.38,20h0a6.84,6.84,0,0,1-4.08,1.78,3,3,0,0,1-3.36-3.17C29.9,16.08,32.22,14.86,37.34,14.28Zm-3.91,6.6A6,6,0,0,0,37.34,19V15.1c-4.73.55-6.34,1.66-6.34,3.48A2.16,2.16,0,0,0,33.42,20.88Z"/><path class="cls-1" d="M43.58,22.51v4.2H42.52V10h0.91l0.1,1.44H43.6A6.74,6.74,0,0,1,47.51,9.7c3.07,0,4.61,2.3,4.61,5.88,0,3.91-2.38,6.22-5.09,6.22a6.09,6.09,0,0,1-3.46-1.42v2.14ZM47,20.86c2.33,0,4-2.16,4-5.28,0-2.83-1-4.94-3.65-4.94a6.1,6.1,0,0,0-3.77,1.9v6.84A5.64,5.64,0,0,0,47,20.86Z"/><path class="cls-1" d="M55.84,10.9H54V10.08l1.82-.1L56,6.65h0.91V10h3.34V10.9H56.92v7.51c0,1.46.36,2.45,1.94,2.45a3.87,3.87,0,0,0,1.44-.36l0.29,0.86a6.46,6.46,0,0,1-1.87.43c-2.23,0-2.88-1.42-2.88-3.48V10.9Z"/><path class="cls-1" d="M67.12,9.7c2.74,0,4.42,1.94,4.42,5.33a5.24,5.24,0,0,1,0,.86h-8.3c0,2.9,1.75,5,4.34,5a5.1,5.1,0,0,0,3.1-1l0.43,0.82a6.43,6.43,0,0,1-3.62,1.13c-3,0-5.33-2.26-5.33-6S64.55,9.7,67.12,9.7Zm3.41,5.38c0-3-1.32-4.46-3.38-4.46s-3.72,1.7-4,4.46h7.34Z"/><path class="cls-1" d="M74.66,10h0.91l0.1,2.14h0.07A4,4,0,0,1,79,9.7a2.38,2.38,0,0,1,1.15.24l-0.24,1a2.52,2.52,0,0,0-1.06-.19c-1,0-2.26.79-3.14,3V21.5H74.66V10Z"/><path class="cls-1" d="M81.45,19.42a5.34,5.34,0,0,0,3.67,1.46c1.8,0,2.74-1.06,2.74-2.28,0-1.44-1.49-2.06-2.81-2.54-1.75-.62-3.67-1.32-3.67-3.29,0-1.68,1.32-3.07,3.72-3.07a5.35,5.35,0,0,1,3.29,1.2l-0.58.74a4.37,4.37,0,0,0-2.76-1c-1.78,0-2.59,1-2.59,2.09,0,1.27,1.34,1.82,2.71,2.33,1.8,0.67,3.77,1.27,3.77,3.53,0,1.73-1.39,3.24-3.89,3.24a6.67,6.67,0,0,1-4.22-1.58Z"/><line class="cls-2" x1="35.35" y1="38.56" x2="58.09" y2="38.56"/><line class="cls-2" x1="35.35" y1="32.08" x2="58.09" y2="32.08"/><line class="cls-2" x1="35.35" y1="44.83" x2="58.09" y2="44.83"/></svg>