<svg id="Layer_1" data-name="Layer 1" xmlns="http://www.w3.org/2000/svg" xmlns:xlink="http://www.w3.org/1999/xlink" viewBox="0 0 362.94 37.57"><defs><style>.cls-1,.cls-3,.cls-5{fill:none;}.cls-2{clip-path:url(#clip-path);}.cls-3{stroke:#5c9ad2;stroke-width:2.49px;}.cls-3,.cls-5{stroke-miterlimit:10;}.cls-4{fill:#2e74b4;}.cls-5{stroke:#2857a6;}</style><clipPath id="clip-path"><rect class="cls-1" x="-1162.86" y="-216.28" width="1137.74" height="50"/></clipPath></defs><title>thesis_final_website</title><g class="cls-2"><path class="cls-3" d="M-1313.62-38.25C-1063.51,27-880.1,26.42-754.89,11.68c149-17.54,263.43-60.72,413-31.21,57.61,11.37,107.48,31,196.55,32.46A664.88,664.88,0,0,0,35.72-9.54"/><path class="cls-3" d="M34.92-19.18A538.48,538.48,0,0,1-64.64.58c-28,2.85-57.77,3.74-90.1,3.33-88.08-1.44-137.47-20.67-194.44-31.79-147.67-28.9-260.7,13.75-408.5,31.19-26.47,3.12-55.56,5.61-87.36,7-117.47,5-271.32-5.51-465.38-56"/><path class="cls-3" d="M34.13-28.83c-31.32,10-64.3,17.89-104,21.38-29.85,2.62-60.54,2.76-94.27,2.33-87.1-1.1-136-20.25-192.34-31.11-145.79-28.29-257.45,13.84-404,31.18C-786.67-2-815.44.5-846.9,1.86c-116.62,5.1-268.9-5.42-460.35-55.12"/></g><path class="cls-4" d="M16.7,10.61h1.37l0.14,2.66h0.11c1.55-1.76,3.53-3.1,5.44-3.1a4.49,4.49,0,0,1,4.79,3.53c2-2.16,3.89-3.53,5.87-3.53,3.46,0,5.18,2.16,5.18,6.62V27.88H38V17c0-3.67-1.22-5.4-3.85-5.4-1.62,0-3.28,1.08-5.18,3.24v13H27.36V17c0-3.67-1.22-5.4-3.89-5.4q-2.32,0-5.18,3.24v13H16.7V10.61Z"/><path class="cls-4" d="M52.23,10.17c4.18,0,7.77,3.31,7.77,9.11s-3.6,9-7.77,9-7.74-3.31-7.74-9S48.09,10.17,52.23,10.17Zm0,16.74c3.49,0,6.12-3.1,6.12-7.63s-2.63-7.7-6.12-7.7-6.08,3.13-6.08,7.7S48.74,26.91,52.23,26.91Z"/><path class="cls-4" d="M65.19,10.61h1.37l0.14,3.2h0.11c1.15-2.12,2.84-3.64,4.9-3.64a3.55,3.55,0,0,1,1.73.36L73.07,12a3.77,3.77,0,0,0-1.58-.29c-1.55,0-3.38,1.19-4.72,4.43V27.88H65.19V10.61Z"/><path class="cls-4" d="M82.69,10.17c4.1,0,6.62,2.92,6.62,8a7.82,7.82,0,0,1-.07,1.3H76.78c0.07,4.36,2.63,7.49,6.52,7.49a7.66,7.66,0,0,0,4.64-1.55l0.65,1.22a9.63,9.63,0,0,1-5.44,1.69c-4.43,0-8-3.38-8-9S78.83,10.17,82.69,10.17Zm5.11,8.06c0-4.43-2-6.7-5.08-6.7s-5.58,2.56-5.94,6.7h11Z"/><path class="cls-4" d="M107.45,10.17c4.18,0,7.77,3.31,7.77,9.11s-3.6,9-7.77,9-7.74-3.31-7.74-9S103.31,10.17,107.45,10.17Zm0,16.74c3.49,0,6.12-3.1,6.12-7.63s-2.63-7.7-6.12-7.7-6.08,3.13-6.08,7.7S104,26.91,107.45,26.91Z"/><path class="cls-4" d="M120.41,10.61h1.37l0.14,2.66H122c1.76-1.76,3.56-3.1,5.94-3.1,3.56,0,5.22,2.16,5.22,6.62V27.88h-1.58V17c0-3.67-1.15-5.4-4-5.4-2.05,0-3.53,1.08-5.65,3.24v13h-1.58V10.61Z"/><path class="cls-4" d="M147.13,12h-2.7V10.75l2.74-.14,0.22-5h1.37v5h5V12h-5V23.24c0,2.2.54,3.67,2.92,3.67a5.78,5.78,0,0,0,2.16-.54l0.43,1.3a9.66,9.66,0,0,1-2.81.65c-3.35,0-4.32-2.12-4.32-5.22V12Z"/><path class="cls-4" d="M158,2h1.58v11.3c1.8-1.8,3.6-3.13,6-3.13,3.56,0,5.22,2.16,5.22,6.62V27.88h-1.58V17c0-3.67-1.15-5.4-4-5.4-2.05,0-3.53,1.08-5.65,3.24v13H158V2Z"/><path class="cls-4" d="M176.36,5a1.44,1.44,0,0,1,2.88,0A1.44,1.44,0,0,1,176.36,5ZM177,10.61h1.58V27.88H177V10.61Z"/><path class="cls-4" d="M184,24.75a8,8,0,0,0,5.51,2.2c2.7,0,4.1-1.58,4.1-3.42,0-2.16-2.23-3.1-4.21-3.82-2.63-.94-5.51-2-5.51-4.93,0-2.52,2-4.61,5.58-4.61a8,8,0,0,1,4.93,1.8l-0.86,1.12a6.54,6.54,0,0,0-4.14-1.55c-2.66,0-3.89,1.55-3.89,3.13,0,1.91,2,2.74,4.07,3.49,2.7,1,5.65,1.91,5.65,5.29,0,2.59-2.09,4.86-5.83,4.86a10,10,0,0,1-6.34-2.37Z"/><path class="cls-4" d="M208.54,29.4v6.3H207V10.61h1.37l0.14,2.16h0.11c1.69-1.33,3.74-2.59,5.87-2.59,4.61,0,6.91,3.46,6.91,8.82,0,5.87-3.56,9.32-7.63,9.32a9.14,9.14,0,0,1-5.18-2.12v3.2Zm5.11-2.48c3.49,0,6-3.24,6-7.92,0-4.25-1.51-7.42-5.47-7.42-1.73,0-3.56,1-5.65,2.84V24.68A8.47,8.47,0,0,0,213.65,26.91Z"/><path class="cls-4" d="M226.54,10.61h1.37l0.14,3.2h0.11c1.15-2.12,2.84-3.64,4.9-3.64a3.55,3.55,0,0,1,1.73.36L234.42,12a3.77,3.77,0,0,0-1.58-.29c-1.55,0-3.38,1.19-4.72,4.43V27.88h-1.58V10.61Z"/><path class="cls-4" d="M244.25,10.17c4.18,0,7.77,3.31,7.77,9.11s-3.6,9-7.77,9-7.74-3.31-7.74-9S240.11,10.17,244.25,10.17Zm0,16.74c3.49,0,6.12-3.1,6.12-7.63s-2.63-7.7-6.12-7.7-6.08,3.13-6.08,7.7S240.76,26.91,244.25,26.91Z"/><path class="cls-4" d="M257.21,10.61h1.62V31.09c0,3.38-1.22,5-3.89,5a6.45,6.45,0,0,1-2.23-.43l0.4-1.29a5.9,5.9,0,0,0,1.8.36c1.94,0,2.3-1.58,2.3-3.78V10.61ZM256.6,5a1.46,1.46,0,0,1,2.92,0A1.46,1.46,0,0,1,256.6,5Z"/><path class="cls-4" d="M271.54,10.17c4.1,0,6.62,2.92,6.62,8a7.82,7.82,0,0,1-.07,1.3H265.63c0.07,4.36,2.63,7.49,6.52,7.49a7.66,7.66,0,0,0,4.64-1.55l0.65,1.22A9.63,9.63,0,0,1,272,28.32c-4.43,0-8-3.38-8-9S267.69,10.17,271.54,10.17Zm5.11,8.06c0-4.43-2-6.7-5.08-6.7s-5.58,2.56-5.94,6.7h11Z"/><path class="cls-4" d="M289.29,10.17a7.09,7.09,0,0,1,5.08,2.12l-0.94,1.12a5.89,5.89,0,0,0-4.1-1.84c-3.53,0-6.26,3.13-6.26,7.7s2.48,7.63,6.26,7.63a7,7,0,0,0,4.61-2L294.76,26a8.16,8.16,0,0,1-5.51,2.3c-4.46,0-7.85-3.31-7.85-9S285.07,10.17,289.29,10.17Z"/><path class="cls-4" d="M299.4,12h-2.7V10.75l2.74-.14,0.22-5H301v5h5V12h-5V23.24c0,2.2.54,3.67,2.92,3.67a5.78,5.78,0,0,0,2.16-.54l0.43,1.3a9.66,9.66,0,0,1-2.81.65c-3.35,0-4.32-2.12-4.32-5.22V12Z"/><line class="cls-5" x1="341.53" y1="26.42" x2="341.53" y2="10.08"/><line class="cls-5" x1="330.16" y1="18.25" x2="352.9" y2="18.25"/></svg>