<svg id="Layer_1" data-name="Layer 1" xmlns="http://www.w3.org/2000/svg" xmlns:xlink="http://www.w3.org/1999/xlink" viewBox="0 0 3478.25 2860.12"><defs><style>.cls-1,.cls-10,.cls-100,.cls-101,.cls-102,.cls-103,.cls-104,.cls-105,.cls-106,.cls-107,.cls-108,.cls-109,.cls-11,.cls-110,.cls-111,.cls-112,.cls-113,.cls-114,.cls-115,.cls-116,.cls-117,.cls-118,.cls-119,.cls-12,.cls-120,.cls-121,.cls-122,.cls-123,.cls-124,.cls-125,.cls-126,.cls-127,.cls-128,.cls-129,.cls-13,.cls-130,.cls-131,.cls-132,.cls-133,.cls-134,.cls-135,.cls-136,.cls-137,.cls-138,.cls-14,.cls-15,.cls-16,.cls-17,.cls-18,.cls-19,.cls-20,.cls-21,.cls-22,.cls-23,.cls-24,.cls-25,.cls-26,.cls-27,.cls-28,.cls-29,.cls-3,.cls-30,.cls-31,.cls-32,.cls-33,.cls-34,.cls-35,.cls-36,.cls-37,.cls-38,.cls-39,.cls-4,.cls-40,.cls-41,.cls-42,.cls-43,.cls-44,.cls-45,.cls-46,.cls-47,.cls-48,.cls-49,.cls-5,.cls-50,.cls-51,.cls-52,.cls-53,.cls-54,.cls-55,.cls-56,.cls-57,.cls-58,.cls-59,.cls-6,.cls-60,.cls-61,.cls-62,.cls-63,.cls-64,.cls-65,.cls-66,.cls-67,.cls-68,.cls-69,.cls-7,.cls-70,.cls-71,.cls-72,.cls-73,.cls-74,.cls-75,.cls-76,.cls-77,.cls-78,.cls-79,.cls-8,.cls-80,.cls-81,.cls-82,.cls-83,.cls-84,.cls-85,.cls-86,.cls-87,.cls-88,.cls-89,.cls-9,.cls-90,.cls-91,.cls-92,.cls-93,.cls-94,.cls-95,.cls-96,.cls-97,.cls-98,.cls-99{fill:none;}.cls-2{clip-path:url(#clip-path);}.cls-10,.cls-11,.cls-12,.cls-13,.cls-14,.cls-15,.cls-16,.cls-17,.cls-18,.cls-19,.cls-20,.cls-21,.cls-22,.cls-23,.cls-24,.cls-25,.cls-3,.cls-4,.cls-5,.cls-6,.cls-7,.cls-8,.cls-9{stroke:#b1d0e7;}.cls-3{stroke-miterlimit:10;stroke-width:1.96px;}.cls-10,.cls-100,.cls-101,.cls-102,.cls-103,.cls-104,.cls-105,.cls-106,.cls-107,.cls-108,.cls-109,.cls-11,.cls-110,.cls-111,.cls-112,.cls-113,.cls-114,.cls-115,.cls-116,.cls-117,.cls-118,.cls-119,.cls-12,.cls-120,.cls-121,.cls-122,.cls-123,.cls-124,.cls-125,.cls-126,.cls-127,.cls-128,.cls-129,.cls-13,.cls-130,.cls-131,.cls-132,.cls-133,.cls-134,.cls-135,.cls-136,.cls-137,.cls-138,.cls-14,.cls-15,.cls-16,.cls-17,.cls-18,.cls-19,.cls-20,.cls-21,.cls-22,.cls-23,.cls-24,.cls-25,.cls-26,.cls-27,.cls-28,.cls-29,.cls-30,.cls-31,.cls-32,.cls-33,.cls-34,.cls-35,.cls-36,.cls-37,.cls-38,.cls-39,.cls-4,.cls-40,.cls-41,.cls-42,.cls-43,.cls-44,.cls-45,.cls-46,.cls-47,.cls-48,.cls-49,.cls-5,.cls-50,.cls-51,.cls-52,.cls-53,.cls-54,.cls-55,.cls-56,.cls-57,.cls-58,.cls-59,.cls-6,.cls-60,.cls-61,.cls-62,.cls-63,.cls-64,.cls-65,.cls-66,.cls-67,.cls-68,.cls-69,.cls-7,.cls-70,.cls-71,.cls-72,.cls-73,.cls-74,.cls-75,.cls-76,.cls-77,.cls-78,.cls-79,.cls-8,.cls-80,.cls-81,.cls-82,.cls-83,.cls-84,.cls-85,.cls-86,.cls-87,.cls-88,.cls-89,.cls-9,.cls-90,.cls-91,.cls-92,.cls-93,.cls-94,.cls-95,.cls-96,.cls-97,.cls-98,.cls-99{stroke-miterlimit:10;}.cls-4{stroke-width:1.95px;}.cls-5{stroke-width:1.95px;}.cls-6{stroke-width:1.94px;}.cls-7{stroke-width:1.94px;}.cls-8{stroke-width:1.93px;}.cls-9{stroke-width:1.93px;}.cls-10{stroke-width:1.92px;}.cls-11{stroke-width:1.92px;}.cls-12{stroke-width:1.91px;}.cls-13{stroke-width:1.91px;}.cls-14{stroke-width:1.9px;}.cls-15{stroke-width:1.9px;}.cls-16{stroke-width:1.9px;}.cls-17{stroke-width:1.89px;}.cls-18{stroke-width:1.89px;}.cls-19{stroke-width:1.88px;}.cls-20{stroke-width:1.88px;}.cls-21{stroke-width:1.87px;}.cls-22{stroke-width:1.87px;}.cls-23{stroke-width:1.86px;}.cls-24{stroke-width:1.86px;}.cls-25{stroke-width:1.85px;}.cls-26,.cls-27,.cls-28,.cls-29,.cls-30,.cls-31,.cls-32,.cls-33,.cls-34,.cls-35,.cls-36,.cls-37,.cls-38,.cls-39,.cls-40,.cls-41,.cls-42,.cls-43,.cls-44,.cls-45,.cls-46,.cls-47,.cls-48,.cls-49,.cls-50,.cls-51,.cls-52,.cls-53,.cls-54,.cls-55,.cls-56,.cls-57,.cls-58,.cls-59,.cls-60,.cls-61,.cls-62,.cls-63,.cls-64,.cls-65,.cls-66,.cls-67,.cls-68,.cls-69,.cls-70,.cls-71,.cls-72{stroke:#b1d0e6;}.cls-26{stroke-width:1.85px;}.cls-27{stroke-width:1.84px;}.cls-28{stroke-width:1.84px;}.cls-29{stroke-width:1.84px;}.cls-30{stroke-width:1.83px;}.cls-31{stroke-width:1.83px;}.cls-32{stroke-width:1.82px;}.cls-33{stroke-width:1.82px;}.cls-34{stroke-width:1.81px;}.cls-35{stroke-width:1.81px;}.cls-36{stroke-width:1.8px;}.cls-37{stroke-width:1.8px;}.cls-38{stroke-width:1.79px;}.cls-39{stroke-width:1.79px;}.cls-40{stroke-width:1.78px;}.cls-41{stroke-width:1.78px;}.cls-42{stroke-width:1.77px;}.cls-43{stroke-width:1.77px;}.cls-44{stroke-width:1.77px;}.cls-45{stroke-width:1.76px;}.cls-46{stroke-width:1.76px;}.cls-47{stroke-width:1.75px;}.cls-48{stroke-width:1.75px;}.cls-49{stroke-width:1.74px;}.cls-50{stroke-width:1.74px;}.cls-51{stroke-width:1.73px;}.cls-52{stroke-width:1.73px;}.cls-53{stroke-width:1.72px;}.cls-54{stroke-width:1.72px;}.cls-55{stroke-width:1.71px;}.cls-56{stroke-width:1.71px;}.cls-57{stroke-width:1.71px;}.cls-58{stroke-width:1.7px;}.cls-59{stroke-width:1.7px;}.cls-60{stroke-width:1.69px;}.cls-61{stroke-width:1.69px;}.cls-62{stroke-width:1.68px;}.cls-63{stroke-width:1.68px;}.cls-64{stroke-width:1.67px;}.cls-65{stroke-width:1.67px;}.cls-66{stroke-width:1.66px;}.cls-67{stroke-width:1.66px;}.cls-68{stroke-width:1.65px;}.cls-69{stroke-width:1.65px;}.cls-70{stroke-width:1.65px;}.cls-71{stroke-width:1.64px;}.cls-72{stroke-width:1.64px;}.cls-100,.cls-101,.cls-102,.cls-103,.cls-104,.cls-105,.cls-106,.cls-107,.cls-108,.cls-109,.cls-110,.cls-111,.cls-112,.cls-113,.cls-114,.cls-115,.cls-116,.cls-117,.cls-118,.cls-119,.cls-73,.cls-74,.cls-75,.cls-76,.cls-77,.cls-78,.cls-79,.cls-80,.cls-81,.cls-82,.cls-83,.cls-84,.cls-85,.cls-86,.cls-87,.cls-88,.cls-89,.cls-90,.cls-91,.cls-92,.cls-93,.cls-94,.cls-95,.cls-96,.cls-97,.cls-98,.cls-99{stroke:#b2cfe5;}.cls-73{stroke-width:1.63px;}.cls-74{stroke-width:1.63px;}.cls-75{stroke-width:1.62px;}.cls-76{stroke-width:1.62px;}.cls-77{stroke-width:1.61px;}.cls-78{stroke-width:1.61px;}.cls-79{stroke-width:1.6px;}.cls-80{stroke-width:1.6px;}.cls-81{stroke-width:1.59px;}.cls-82{stroke-width:1.59px;}.cls-83{stroke-width:1.58px;}.cls-84{stroke-width:1.58px;}.cls-85{stroke-width:1.58px;}.cls-86{stroke-width:1.57px;}.cls-87{stroke-width:1.57px;}.cls-88{stroke-width:1.56px;}.cls-89{stroke-width:1.56px;}.cls-90{stroke-width:1.55px;}.cls-91{stroke-width:1.55px;}.cls-92{stroke-width:1.54px;}.cls-93{stroke-width:1.54px;}.cls-94{stroke-width:1.53px;}.cls-95{stroke-width:1.53px;}.cls-96{stroke-width:1.52px;}.cls-97{stroke-width:1.52px;}.cls-98{stroke-width:1.52px;}.cls-99{stroke-width:1.51px;}.cls-100{stroke-width:1.51px;}.cls-101{stroke-width:1.5px;}.cls-102{stroke-width:1.5px;}.cls-103{stroke-width:1.49px;}.cls-104{stroke-width:1.49px;}.cls-105{stroke-width:1.48px;}.cls-106{stroke-width:1.48px;}.cls-107{stroke-width:1.47px;}.cls-108{stroke-width:1.47px;}.cls-109{stroke-width:1.46px;}.cls-110{stroke-width:1.46px;}.cls-111{stroke-width:1.46px;}.cls-112{stroke-width:1.45px;}.cls-113{stroke-width:1.45px;}.cls-114{stroke-width:1.44px;}.cls-115{stroke-width:1.44px;}.cls-116{stroke-width:1.43px;}.cls-117{stroke-width:1.43px;}.cls-118{stroke-width:1.42px;}.cls-119{stroke-width:1.42px;}.cls-120,.cls-121,.cls-122,.cls-123,.cls-124,.cls-125,.cls-126,.cls-127,.cls-128,.cls-129,.cls-130,.cls-131,.cls-132,.cls-133,.cls-134,.cls-135,.cls-136,.cls-137,.cls-138{stroke:#b2cfe4;}.cls-120{stroke-width:1.41px;}.cls-121{stroke-width:1.41px;}.cls-122{stroke-width:1.4px;}.cls-123{stroke-width:1.4px;}.cls-124{stroke-width:1.39px;}.cls-125{stroke-width:1.39px;}.cls-126{stroke-width:1.39px;}.cls-127{stroke-width:1.38px;}.cls-128{stroke-width:1.38px;}.cls-129{stroke-width:1.37px;}.cls-130{stroke-width:1.37px;}.cls-131{stroke-width:1.36px;}.cls-132{stroke-width:1.36px;}.cls-133{stroke-width:1.35px;}.cls-134{stroke-width:1.35px;}.cls-135{stroke-width:1.34px;}.cls-136{stroke-width:1.34px;}.cls-137{stroke-width:1.33px;}.cls-138{stroke-width:1.33px;}</style><clipPath id="clip-path"><rect class="cls-1" x="2.79" width="3475.47" height="2860.12"/></clipPath></defs><title>bannertexture2</title><g class="cls-2"><path class="cls-3" d="M3677.84-161.68C3443-204.12,3535.66-52.87,3597.34,105.51c38.64,99.22,59.89,208.79-21.43,273.32-125.46,99.56,401,192.17,368,322.6-27.66,109.49-104,250.66-185.17,398.81-169.83,309.9-369.45,652.49-197.17,805.87,236.06,209.16-512.06,424.63,329.08,987.87"/><path class="cls-4" d="M3649.88-160.64c-231.21-39.64-142.61,115.58-79.48,273,39.47,98.44,58.56,212.86-21.24,277.07-123.56,99.42,398.17,191.89,365,322.2-27.87,109.38-104,250.18-183.84,397.47-167.18,308.1-368.74,649.37-196.7,803,234.22,209.17-506.87,422.52,327.88,982.65"/><path class="cls-5" d="M3621.93-159.6c-227.57-36.84-143,122.35-78.46,278.88,40.3,97.67,57.23,216.93-21,280.81-121.64,99.28,395.37,191.62,361.91,321.81-28.08,109.27-103.92,249.69-182.51,396.13-164.53,306.3-367.85,646-196.23,800.14,232.64,208.89-501.69,420.41,326.67,977.42"/><path class="cls-6" d="M3594-158.56c-223.92-34-143.5,129.11-77.45,284.73,41.12,96.89,55.91,221-20.84,284.55C3376,509.86,3888.28,602.06,3854.55,732.13c-28.29,109.16-103.88,249.2-181.18,394.79-161.88,304.5-367,642.72-195.77,797.28,231.05,208.62-496.51,418.3,325.46,972.2"/><path class="cls-7" d="M3566-157.52c-220.28-31.23-143.95,135.87-76.43,290.58,41.94,96.1,54.59,225.06-20.64,288.29-117.79,99,389.79,191.06,355.8,321-28.5,109-103.83,248.72-179.84,393.45-159.23,302.7-366.07,639.39-195.3,794.42,229.47,208.33-491.32,416.19,324.25,967"/><path class="cls-8" d="M3538.07-156.49c-216.64-28.43-144.4,142.62-75.41,296.43,42.76,95.32,53.28,229.12-20.44,292-115.85,98.88,387,190.79,352.75,320.62-28.71,108.93-103.79,248.23-178.51,392.11-156.58,300.91-365.18,636.05-194.83,791.56,227.89,208-486.14,414.07,323,961.76"/><path class="cls-9" d="M3510.12-155.45c-213-25.62-144.87,149.37-74.4,302.28,43.57,94.53,52,233.17-20.24,295.77-113.91,98.74,384.2,190.51,349.7,320.22-28.92,108.82-103.74,247.74-177.18,390.77-153.93,299.11-364.28,632.72-194.36,788.7,226.32,207.75-481,412,321.83,956.53"/><path class="cls-10" d="M3482.17-154.41c-209.36-22.82-145.34,156.1-73.38,308.12,44.37,93.74,50.67,237.23-20,299.52-112,98.61,381.41,190.23,346.65,319.82-29.13,108.71-103.7,247.26-175.85,389.43-151.28,297.31-363.39,629.38-193.89,785.84,224.74,207.45-475.77,409.85,320.62,951.31"/><path class="cls-11" d="M3454.22-153.37c-205.71-20-145.82,162.84-72.37,314,45.17,92.95,49.38,241.28-19.84,303.26-110,98.48,378.61,190,343.6,319.42-29.34,108.6-103.66,246.77-174.52,388.09-148.64,295.51-362.5,626-193.43,783,223.17,207.15-470.59,407.74,319.42,946.09"/><path class="cls-12" d="M3426.27-152.33c-202.07-17.21-146.3,169.56-71.35,319.82,46,92.16,48.09,245.33-19.64,307-108,98.34,375.82,189.68,340.55,319-29.55,108.49-103.61,246.28-173.18,386.75-146,293.71-361.61,622.69-193,780.12,221.6,206.84-465.4,405.63,318.21,940.86"/><path class="cls-13" d="M3398.31-151.29C3199.88-165.7,3251.52,25,3328,174.38c46.76,91.36,46.81,249.38-19.44,310.74-106,98.21,373,189.4,337.5,318.63-29.76,108.38-103.57,245.8-171.85,385.41-143.34,291.91-360.72,619.35-192.49,777.25,220,206.53-460.22,403.52,317,935.64"/><path class="cls-14" d="M3370.36-150.25c-194.79-11.61-147.29,183-69.32,331.52,47.55,90.56,45.53,253.42-19.24,314.48C3177.77,593.83,3652,684.87,3616.25,814c-30,108.26-103.52,245.31-170.52,384.07-140.69,290.11-359.83,616-192,774.39,218.47,206.21-455,401.41,315.79,930.42"/><path class="cls-15" d="M3342.41-149.22c-191.15-8.81-147.8,189.71-68.3,337.37,48.33,89.76,44.26,257.46-19,318.22-102,97.95,367.44,188.84,331.4,317.83C3556.29,932.36,3483,1069,3417.28,1206.93c-138,288.31-358.94,612.65-191.55,771.53,216.91,205.88-449.85,399.29,314.58,925.19"/><path class="cls-16" d="M3314.46-148.18c-187.5-6-148.31,196.42-67.28,343.22,49.1,89,43,261.49-18.84,322-100,97.81,364.65,188.57,328.35,317.44-30.38,108-103.43,244.34-167.86,381.38-135.39,286.51-358.05,609.3-191.09,768.67,215.35,205.56-444.67,397.18,313.37,920"/><path class="cls-17" d="M3286.5-147.14c-183.86-3.2-148.83,203.12-66.27,349.06,49.87,88.16,41.74,265.52-18.64,325.71-98,97.68,361.86,188.29,325.3,317-30.59,107.93-103.39,243.85-166.52,380-132.74,284.71-357.16,605.94-190.62,765.81,213.79,205.22-439.49,395.07,312.16,914.75"/><path class="cls-18" d="M3258.55-146.1c-180.22-.4-149.36,209.82-65.25,354.91,50.64,87.35,40.49,269.54-18.44,329.45-96,97.54,359.06,188,322.25,316.64-30.8,107.82-103.35,243.36-165.19,378.7-130.09,282.91-356.27,602.58-190.15,762.95,212.24,204.88-434.3,393,311,909.52"/><path class="cls-19" d="M3230.6-145.06C3054-142.65,3080.7,71.45,3166.36,215.7c51.4,86.55,39.25,273.56-18.24,333.19-93.91,97.4,356.27,187.74,319.2,316.24-31,107.71-103.3,242.87-163.86,377.36-127.44,281.12-355.38,599.22-189.68,760.09,210.69,204.54-429.12,390.85,309.75,904.3"/><path class="cls-20" d="M3202.65-144c-172.93,5.21-150.44,223.2-63.22,366.61,52.15,85.74,38,277.57-18,336.93-91.86,97.26,353.48,187.46,316.15,315.85-31.22,107.6-103.26,242.39-162.53,376-124.79,279.32-354.49,595.86-189.21,757.23,209.14,204.19-423.93,388.74,308.54,899.08"/><path class="cls-21" d="M3174.69-143c-169.29,8-151,229.89-62.2,372.46,52.9,84.94,36.79,281.58-17.84,340.67-89.79,97.11,350.68,187.18,313.1,315.45-31.43,107.48-103.21,241.9-161.2,374.68C3124.4,1537.8,2893,1852.77,3057.8,2014.64c207.6,203.84-418.75,386.63,307.33,893.85"/><path class="cls-22" d="M3146.74-141.95c-165.65,10.82-151.55,236.57-61.19,378.31,53.64,84.13,35.58,285.58-17.65,344.41-87.7,97,347.89,186.9,310,315.05-31.64,107.37-103.17,241.41-159.86,373.34-119.5,275.72-352.71,589.13-188.28,751.5,206.05,203.48-413.57,384.51,306.12,888.63"/><path class="cls-23" d="M3118.79-140.91c-162,13.62-152.12,243.25-60.17,384.16,54.38,83.32,34.37,289.57-17.45,348.16-85.61,96.8,345.1,186.63,307,314.65-31.85,107.26-103.12,240.93-158.53,372-116.85,273.92-351.81,585.76-187.81,748.64,204.51,203.12-408.38,382.4,304.91,883.41"/><path class="cls-24" d="M3090.84-139.87c-158.37,16.42-152.7,249.93-59.15,390,55.11,82.51,33.17,293.55-17.25,351.9-83.51,96.65,342.3,186.35,303.95,314.26-32.06,107.15-103.08,240.44-157.2,370.66-114.2,272.12-350.92,582.38-187.34,745.78,203,202.75-403.2,380.29,303.7,878.19"/><path class="cls-25" d="M3062.89-138.83C2908.16-119.6,2909.6,117.78,3004.75,257c55.83,81.7,32,297.53-17,355.64-81.39,96.48,339.51,186.07,300.9,313.86-32.27,107-103,240-155.87,369.32-111.55,270.32-350,579-186.87,742.92,201.44,202.38-398,378.18,302.5,873"/><path class="cls-26" d="M3034.93-137.79c-151.08,22-153.88,263.28-57.12,401.7,56.55,80.9,30.79,301.49-16.85,359.38-79.26,96.31,336.72,185.8,297.85,313.46-32.48,106.93-103,239.47-154.54,368-108.9,268.52-349.13,575.63-186.4,740.06,199.91,202-392.83,376.07,301.29,867.74"/><path class="cls-27" d="M3007-136.75c-147.44,24.83-154.49,270-56.11,407.55,57.26,80.09,29.62,305.45-16.65,363.12C2857.11,730,3268.15,819.44,3229,947c-32.69,106.82-102.69,239.08-153.2,366.64-105.71,266.94-348.24,572.25-185.94,737.2,198.39,201.62-387.65,374,300.08,862.52"/><path class="cls-28" d="M2979-135.71c-143.8,27.63-155.1,276.62-55.09,413.4,58,79.28,28.46,309.39-16.45,366.86-75,95.94,331.13,185.24,291.74,312.67-32.9,106.7-102.63,238.6-151.87,365.3-103,265.14-347.35,568.86-185.47,734.34,196.86,201.23-382.46,371.84,298.87,857.29"/><path class="cls-29" d="M2951.08-134.68c-140.16,30.44-155.72,283.29-54.07,419.25,58.67,78.47,27.3,313.33-16.25,370.61-72.8,95.74,328.34,185,288.69,312.27-33.11,106.59-102.58,238.11-150.54,364-100.37,263.35-346.45,565.48-185,731.48,195.34,200.84-377.28,369.73,297.66,852.07"/><path class="cls-30" d="M2923.12-133.64c-136.51,33.24-156.35,290-53.06,425.1,59.37,77.67,26.16,317.25-16,374.35-70.62,95.53,325.55,184.69,285.64,311.87-33.32,106.48-102.52,237.63-149.21,362.62-97.7,261.55-345.56,562.09-184.53,728.61,193.82,200.45-372.1,367.62,296.45,846.85"/><path class="cls-31" d="M2895.17-132.6c-132.87,36-157,296.63-52,430.94,60.06,76.86,25,321.17-15.85,378.09-68.43,95.31,322.75,184.41,282.59,311.48-33.53,106.37-102.47,237.14-147.88,361.27-95,259.76-344.66,558.69-184.06,725.75,192.31,200-366.91,365.51,295.24,841.62"/><path class="cls-32" d="M2867.22-131.56c-129.23,38.85-157.64,303.29-51,436.79,60.74,76.06,23.9,325.06-15.65,381.83-66.24,95.08,320,184.13,279.54,311.08-33.74,106.26-102.41,236.66-146.54,359.93-92.35,258-343.76,555.3-183.59,722.89,190.79,199.64-361.73,363.4,294,836.4"/><path class="cls-33" d="M2839.27-130.52c-125.59,41.65-158.3,310-50,442.64,61.42,75.25,22.78,328.95-15.45,385.57-64,94.83,317.17,183.85,276.49,310.68-33.95,106.15-102.36,236.17-145.21,358.59-89.68,256.17-342.87,551.9-183.13,720,189.28,199.23-356.55,361.29,292.83,831.18"/><path class="cls-34" d="M2811.31-129.48c-121.95,44.45-159,316.63-49,448.49,62.09,74.45,21.67,332.82-15.25,389.31-61.81,94.56,314.37,183.58,273.44,310.28-34.16,106-102.3,235.69-143.88,357.25-87,254.37-342,548.5-182.66,717.17,187.78,198.81-351.36,359.18,291.62,826"/><path class="cls-35" d="M2783.36-128.44c-118.3,47.26-159.64,323.3-48,454.34,62.76,73.65,20.58,336.67-15.05,393.06-59.58,94.28,311.58,183.3,270.39,309.89-34.37,105.92-102.24,235.2-142.55,355.91-84.33,252.57-341.07,545.1-182.19,714.31,186.28,198.39-346.18,357.06,290.41,820.73"/><path class="cls-36" d="M2755.41-127.41c-114.66,50.06-160.32,330-47,460.19,63.42,72.85,19.49,340.51-14.85,396.8-57.35,94,308.79,183,267.34,309.49-34.58,105.81-102.19,234.72-141.22,354.57-81.66,250.78-340.17,541.69-181.72,711.45,184.78,198-341,355,289.2,815.51"/><path class="cls-37" d="M2727.46-126.37c-111,52.86-161,336.64-45.94,466,64.07,72.05,18.41,344.33-14.65,400.54-55.1,93.67,306,182.75,264.29,309.09-34.79,105.7-102.13,234.23-139.88,353.23-79,249-339.27,538.28-181.25,708.59,183.28,197.54-335.81,352.84,288,810.28"/><path class="cls-38" d="M2699.51-125.33C2592.13-69.66,2537.79,218,2654.58,346.56c64.73,71.26,6.84,343.37-14.45,404.28-68.63,82.42,303.2,182.47,261.24,308.69-35,105.59-102.08,233.74-138.55,351.89-76.31,247.18-338.36,534.87-180.79,705.73,181.79,197.1-330.63,350.73,286.78,805.06"/><path class="cls-39" d="M2671.55-124.29c-103.73,58.47-162.42,350-43.91,477.73,65.37,70.46,5.33,347.22-14.25,408-67,81.94,300.41,182.19,258.19,308.3-35.21,105.48-102,233.26-137.22,350.55-73.64,245.38-337.46,531.46-180.32,702.86,180.3,196.67-325.44,348.62,285.57,799.84"/><path class="cls-40" d="M2643.6-123.25C2543.51-62,2480.46,233.42,2600.7,360.33c66,69.67,3.82,351.07-14.06,411.76C2521.28,853.56,2884.26,954,2841.79,1080c-35.42,105.37-102,232.77-135.89,349.21-71,243.58-336.55,528-179.85,700,178.81,196.22-320.26,346.51,284.37,794.62"/><path class="cls-41" d="M2615.65-122.21c-96.45,64.07-163.86,363.35-41.88,489.43,66.65,68.88,2.31,354.92-13.86,415.51-63.74,81,294.82,181.64,252.09,307.5-35.63,105.25-101.91,232.28-134.56,347.87-68.29,241.78-335.65,524.62-179.38,697.14C2675.39,2331,2183,2479.63,2781.22,2924.63"/><path class="cls-42" d="M2587.7-121.17c-92.81,66.88-164.6,370-40.86,495.28,67.27,68.1.79,358.77-13.66,419.25-62.11,80.5,292,181.36,249,307.1C2746.38,1205.6,2680.36,1332.25,2649,1447c-65.62,240-334.74,521.2-178.91,694.28,175.85,195.32-309.89,342.28,281.95,784.17"/><path class="cls-43" d="M2559.74-120.14C2470.58-50.45,2394.4,256.58,2519.9,381c67.9,67.31-.72,362.63-13.46,423-60.47,80,289.24,181.08,246,306.71-36,105-101.8,231.31-131.89,345.19-62.95,238.18-333.83,517.77-178.45,691.42,174.37,194.86-304.71,340.17,280.74,778.95"/><path class="cls-44" d="M2531.79-119.1c-85.52,72.48-166.09,383.41-38.83,507,68.52,66.53-2.23,366.48-13.26,426.73-58.84,79.54,286.44,180.8,242.94,306.31-36.25,104.92-101.74,230.82-130.56,343.85-60.27,236.38-332.92,514.34-178,688.56,172.9,194.4-299.52,338.06,279.53,773.72"/><path class="cls-45" d="M2503.84-118.06C2422-42.77,2337,272,2466,394.77c69.14,65.75-3.74,370.33-13.06,430.47-57.21,79.06,283.65,180.53,239.89,305.91-36.46,104.81-101.68,230.33-129.23,342.5-57.6,234.58-332,510.91-177.51,685.7,171.43,193.94-294.34,335.95,278.32,768.5"/><path class="cls-46" d="M2475.89-117c-78.24,78.09-167.62,396.8-36.8,518.67,69.75,65-5.25,374.18-12.86,434.21-55.58,78.58,280.86,180.25,236.84,305.52-36.67,104.7-101.63,229.84-127.9,341.16-54.93,232.78-331.1,507.48-177,682.84,170,193.47-289.16,333.84,277.11,763.28"/><path class="cls-47" d="M2447.93-116c-74.6,80.89-168.39,403.51-35.78,524.52,70.35,64.2-6.76,378-12.66,438-53.95,78.1,278.06,180,233.79,305.12-36.88,104.59-101.57,229.35-126.56,339.82-52.25,231-330.19,504-176.57,680,168.51,193-284,331.73,275.91,758.05"/><path class="cls-48" d="M2420-114.94c-71,83.7-169.17,410.22-34.77,530.37,71,63.43-8.27,381.88-12.46,441.7-52.32,77.62,275.27,179.7,230.74,304.72-37.09,104.47-101.52,228.86-125.23,338.48-49.58,229.17-329.27,500.6-176.1,677.11,167,192.51-278.79,329.61,274.7,752.83"/><path class="cls-49" d="M2392-113.9c-67.31,86.5-170,416.93-33.75,536.22C2429.83,485,2348.5,808,2346,867.75c-50.69,77.15,272.48,179.42,227.68,304.32-37.3,104.36-101.46,228.37-123.9,337.14-46.91,227.37-328.35,497.16-175.64,674.25,165.59,192-273.61,327.5,273.49,747.61"/><path class="cls-50" d="M2364.08-112.87c-63.67,89.3-170.75,423.65-32.73,542.07,72.15,61.9-11.29,389.59-12.06,449.18C2270.23,955,2589,1057.52,2543.92,1182.31c-37.51,104.25-101.4,227.88-122.57,335.8-44.23,225.56-327.43,493.71-175.17,671.39,164.14,191.54-268.42,325.39,272.28,742.38"/><path class="cls-51" d="M2336.12-111.83c-60,92.1-171.56,430.37-31.72,547.91,72.74,61.14-12.8,393.44-11.86,452.92-47.42,76.19,266.89,178.86,221.58,303.53-37.72,104.14-101.35,227.39-121.24,334.46-41.56,223.76-326.51,490.26-174.7,668.53,162.69,191-263.24,323.28,271.07,737.16"/><path class="cls-52" d="M2308.17-110.79c-56.39,94.91-172.37,437.1-30.7,553.76,73.32,60.38-14.31,397.29-11.66,456.66-45.79,75.71,264.1,178.59,218.53,303.13-37.93,104-101.29,226.9-119.9,333.12-38.89,221.95-325.59,486.81-174.23,665.67,161.25,190.55-258.06,321.17,269.86,731.94"/><path class="cls-53" d="M2280.22-109.75C2227.47-12,2107,334.09,2250.53,449.86c73.9,59.63-15.82,401.14-11.46,460.4-44.16,75.23,261.31,178.31,215.48,302.73-38.14,103.92-101.24,226.41-118.57,331.78-36.22,220.14-324.66,483.36-173.76,662.81,159.81,190-252.87,319.06,268.65,726.71"/><path class="cls-54" d="M2252.27-108.71c-49.1,100.51-174,450.58-28.67,565.46,74.48,58.88-17.34,405-11.26,464.15-42.53,74.75,258.51,178,212.43,302.34-38.35,103.81-101.18,225.92-117.24,330.44-33.54,218.33-323.74,479.9-173.3,659.95,158.37,189.54-247.69,316.94,267.44,721.49"/><path class="cls-55" d="M2224.32-107.67c-45.46,103.32-174.83,457.33-27.65,571.31,75.06,58.13-18.85,408.84-11.06,467.89-40.9,74.27,255.72,177.76,209.38,301.94-38.56,103.69-101.13,225.43-115.91,329.1-30.87,216.52-322.81,476.44-172.83,657.09,156.94,189-242.5,314.83,266.24,716.27"/><path class="cls-56" d="M2196.36-106.63c-41.82,106.12-175.67,464.08-26.64,577.16,75.63,57.38-20.36,412.69-10.86,471.63-39.27,73.79,252.93,177.48,206.33,301.54-38.77,103.58-101.07,224.94-114.58,327.76-28.2,214.71-321.88,473-172.36,654.22,155.51,188.52-237.32,312.72,265,711"/><path class="cls-57" d="M2168.41-105.6c-38.18,108.92-176.51,470.84-25.62,583,76.2,56.64-21.87,416.55-10.67,475.37-37.63,73.31,250.13,177.2,203.28,301.14-39,103.47-101,224.45-113.24,326.42-25.53,212.9-320.94,469.5-171.89,651.36,154.09,188-232.14,310.61,263.82,705.82"/><path class="cls-58" d="M2140.46-104.56C2105.92,7.17,1963.1,373.06,2115.85,484.3c76.77,55.91-23.38,420.4-10.47,479.11-36,72.83,247.34,176.92,200.23,300.75-39.19,103.36-101,224-111.91,325.08-22.86,211.09-320,466-171.42,648.5,152.66,187.48-227,308.5,262.61,700.6"/><path class="cls-59" d="M2112.51-103.52C2081.61,11,1934.3,380.87,2088.92,491.19c77.33,55.17-24.89,424.25-10.27,482.85-34.37,72.35,244.55,176.65,197.18,300.35-39.4,103.25-100.91,223.46-110.58,323.74-20.19,209.28-319.07,462.56-171,645.64,151.25,187-221.77,306.39,261.4,695.38"/><path class="cls-60" d="M2084.55-102.48C2057.3,14.85,1905.49,388.69,2062,498.07c77.89,54.44-26.4,428.1-10.07,486.6-32.74,71.87,241.75,176.37,194.13,300-39.61,103.14-100.85,223-109.25,322.39-17.52,207.47-318.13,459.08-170.49,642.78,149.83,186.42-216.59,304.28,260.19,690.15"/><path class="cls-61" d="M2056.6-101.44C2033,18.69,1876.68,396.52,2035,505c78.45,53.72-27.91,432-9.87,490.34-31.11,71.39,239,176.09,191.08,299.55-39.82,103-100.8,222.47-107.92,321.05-14.85,205.66-317.19,455.6-170,639.92,148.42,185.89-211.4,302.16,259,684.93"/><path class="cls-62" d="M2028.65-100.4c-20,122.94-180.79,504.76-20.54,612.25,79,53-29.42,435.8-9.67,494.08-29.48,70.91,236.17,175.81,188,299.16-40,102.91-100.74,222-106.58,319.71-12.18,203.84-316.24,452.12-169.55,637.06,147,185.35-206.22,300.05,257.78,679.71"/><path class="cls-63" d="M2000.7-99.36C1984.37,26.38,1819,412.2,1981.17,518.73c79.56,52.28-30.93,439.65-9.47,497.82-27.85,70.43,233.38,175.54,185,298.76-40.24,102.8-100.69,221.48-105.25,318.37-9.51,202-315.29,448.64-169.08,634.2,145.61,184.81-201,297.94,256.57,674.48"/><path class="cls-64" d="M1972.74-98.33C1960.06,30.22,1790.21,420,1954.24,525.62c80.12,51.56-32.44,443.5-9.27,501.56-26.21,69.95,230.58,175.26,181.93,298.36-40.45,102.69-100.64,221-103.92,317-6.84,200.21-314.34,445.15-168.61,631.33,144.22,184.26-195.85,295.83,255.36,669.26"/><path class="cls-65" d="M1944.79-97.29c-9,131.35-183.42,525.2-17.49,629.79,80.67,50.85-34,447.36-9.07,505.3-24.58,69.47,227.79,175,178.88,298-40.66,102.58-100.58,220.49-102.59,315.69-4.18,198.39-313.39,441.65-168.15,628.47,142.82,183.71-190.67,293.72,254.15,664"/><path class="cls-66" d="M1916.84-96.25c-5.4,134.15-184.3,532-16.48,635.64,81.21,50.14-35.47,451.21-8.87,509-23,69,225,174.71,175.83,297.57-40.87,102.47-100.53,220-101.26,314.35-1.51,196.58-312.43,438.16-167.68,625.61,141.43,183.16-185.48,291.61,252.94,658.81"/><path class="cls-67" d="M1888.89-95.21c-1.76,137-185.19,538.86-15.46,641.49,81.76,49.44-37,455.06-8.67,512.79-21.32,68.51,222.2,174.43,172.78,297.17-41.08,102.36-100.48,219.5-99.92,313,1.16,194.76-311.47,434.66-167.21,622.75,140,182.6-180.3,289.49,251.73,653.59"/><path class="cls-68" d="M1860.94-94.17c1.89,139.76-186.08,545.7-14.44,647.34,82.31,48.74-38.49,458.91-8.47,516.53-19.69,68,219.41,174.15,169.73,296.77-41.29,102.25-100.43,219-98.59,311.67,3.82,192.94-310.51,431.16-166.74,619.89,138.66,182-175.12,287.38,250.52,648.37"/><path class="cls-69" d="M1833-93.13c5.53,142.56-187,552.56-13.43,653.19,82.85,48-40,462.76-8.27,520.27-18.06,67.55,216.62,173.87,166.68,296.38-41.5,102.13-100.37,218.51-97.26,310.33,6.48,191.12-309.54,427.65-166.27,617,137.28,181.47-169.93,285.27,249.32,643.14"/><path class="cls-70" d="M1805-92.09c9.17,145.36-187.87,559.42-12.41,659,83.39,47.35-41.51,466.61-8.07,524-16.42,67.07,213.82,173.6,163.63,296-41.71,102-100.32,218-95.93,309,9.15,189.3-308.57,424.14-165.81,614.17,135.91,180.9-164.75,283.16,248.11,637.92"/><path class="cls-71" d="M1777.08-91.06c12.81,148.17-188.77,566.29-11.4,664.89,83.94,46.66-43,470.46-7.87,527.75-14.79,66.59,211,173.32,160.57,295.58-41.92,101.91-100.27,217.51-94.6,307.65,11.81,187.47-307.6,420.63-165.34,611.31,134.54,180.33-159.56,281,246.9,632.7"/><path class="cls-72" d="M1749.13-90c16.45,151-189.67,573.16-10.38,670.73,84.48,46-44.53,474.32-7.67,531.49-13.16,66.11,208.24,173,157.52,295.18-42.13,101.8-100.22,217-93.26,306.31,14.47,185.65-306.62,417.12-164.87,608.45,133.17,179.75-154.38,278.94,245.69,627.48"/><path class="cls-73" d="M1721.17-89c20.1,153.77-190.57,580-9.36,676.58,85,45.29-46,478.17-7.47,535.24-11.53,65.63,205.45,172.76,154.47,294.79-42.34,101.69-100.17,216.51-91.93,305,17.13,183.83-305.64,413.6-164.4,605.58,131.81,179.17-149.2,276.83,244.48,622.25"/><path class="cls-74" d="M1693.22-87.94C1717,68.64,1501.74,499,1684.88,594.49c85.56,44.61-47.55,482-7.27,539-9.9,65.15,202.65,172.49,151.42,294.39-42.54,101.58-100.12,216-90.6,303.62,19.79,182-304.65,410.08-163.93,602.72,130.45,178.59-144,274.71,243.27,617"/><path class="cls-75" d="M1665.27-86.9c27.38,159.38-192.39,593.84-7.33,688.28,86.1,43.94-49.06,485.87-7.08,542.72-8.27,64.67,199.86,172.21,148.37,294-42.75,101.47-100.08,215.52-89.27,302.28,22.44,180.18-303.67,406.55-163.46,599.86,129.1,178-138.83,272.6,242.06,611.81"/><path class="cls-76" d="M1637.32-85.86c31,162.18-193.3,600.75-6.31,694.13,86.63,43.26-50.57,489.72-6.88,546.46-6.64,64.19,197.07,171.93,145.32,293.59-43,101.35-100,215-87.94,300.94,25.1,178.36-302.67,403-163,597,127.75,177.41-133.65,270.49,240.85,606.58"/><path class="cls-77" d="M1609.36-84.82c34.66,165-194.21,607.67-5.3,700,87.17,42.59-52.08,493.57-6.68,550.2-5,63.71,194.27,171.66,142.27,293.2-43.17,101.24-100,214.52-86.6,299.6,27.75,176.53-301.68,399.49-162.53,594.14,126.4,176.82-128.46,268.38,239.65,601.36"/><path class="cls-78" d="M1581.41-83.79C1619.72,84,1386.29,530.81,1577.13,622c87.71,41.93-53.59,497.42-6.48,553.94-3.37,63.23,191.48,171.38,139.22,292.8-43.38,101.13-99.93,214-85.27,298.26,30.41,174.71-300.68,396-162.06,591.28,125.06,176.22-123.28,266.27,238.44,596.14"/><path class="cls-79" d="M1553.46-82.75c41.95,170.59-196,621.53-3.27,711.67,88.25,41.27-55.11,501.28-6.28,557.69-1.74,62.75,188.69,171.1,136.17,292.4-43.59,101-99.89,213.52-83.94,296.92,33.06,172.88-299.67,392.42-161.59,588.42,123.73,175.62-118.09,264.16,237.23,590.91"/><path class="cls-80" d="M1525.51-81.71c45.59,173.39-197,628.47-2.25,717.52,88.78,40.61-56.62,505.13-6.08,561.43-0.11,62.27,185.89,170.82,133.12,292-43.8,100.91-99.84,213-82.61,295.58,35.71,171.05-298.66,388.88-161.12,585.56,122.39,175-112.91,262,236,585.69"/><path class="cls-81" d="M1497.56-80.67c49.23,176.2-197.87,635.42-1.23,723.37,89.32,40-58.13,509-5.88,565.17,1.52,61.79,183.1,170.55,130.07,291.61-44,100.8-99.8,212.52-81.28,294.24,38.36,169.23-297.65,385.33-160.66,582.69,121.06,174.41-107.73,259.93,234.81,580.47"/><path class="cls-82" d="M1469.6-79.63c52.88,179-198.78,642.38-.22,729.22,89.86,39.3-59.64,512.83-5.68,568.91,3.15,61.31,180.31,170.27,127,291.21-44.22,100.69-99.76,212-79.94,292.9,41,167.4-296.63,381.78-160.19,579.83,119.74,173.8-102.54,257.82,233.6,575.24"/><path class="cls-83" d="M1441.65-78.59c56.52,181.8-199.7,649.35.8,735.07,90.4,38.65-61.15,516.68-5.48,572.65,4.78,60.83,177.51,170,124,290.81-44.43,100.57-99.71,211.52-78.61,291.56,43.65,165.57-295.61,378.23-159.72,577,118.42,173.19-97.36,255.71,232.39,570"/><path class="cls-84" d="M1413.7-77.55c60.16,184.61-200.62,656.32,1.82,740.92,90.93,38-62.66,520.53-5.28,576.39,6.42,60.35,174.72,169.72,120.92,290.41-44.64,100.46-99.67,211-77.28,290.22,46.29,163.74-294.58,374.68-159.25,574.11,117.1,172.57-92.18,253.6,231.19,564.8"/><path class="cls-85" d="M1385.75-76.52c63.8,187.41-201.53,663.3,2.83,746.77,91.47,37.36-64.17,524.38-5.08,580.14,8,59.87,171.93,169.44,117.87,290-44.85,100.35-99.63,210.51-75.95,288.88,48.93,161.92-293.55,371.12-158.78,571.25,115.79,172-87,251.49,230,559.57"/><path class="cls-86" d="M1357.79-75.48c67.44,190.21-202.45,670.29,3.85,752.61,92,36.72-65.68,528.23-4.88,583.88,9.68,59.39,169.14,169.16,114.82,289.62-45.06,100.24-99.59,210-74.62,287.54,51.57,160.09-292.51,367.56-158.32,568.39,114.49,171.33-81.81,249.38,228.77,554.35"/><path class="cls-87" d="M1329.84-74.44c71.09,193-203.37,677.29,4.86,758.46,92.55,36.08-67.19,532.09-4.68,587.62,11.31,58.91,166.34,168.88,111.77,289.22-45.27,100.13-99.55,209.51-73.28,286.2,54.21,158.26-291.47,364-157.85,565.53,113.18,170.71-76.62,247.26,227.56,549.13"/><path class="cls-88" d="M1301.89-73.4c74.73,195.82-204.28,684.29,5.88,764.31,93.09,35.44-68.7,535.94-4.48,591.36,12.94,58.43,163.55,168.61,108.72,288.83-45.48,100-99.51,209-72,284.86,56.85,156.44-290.42,360.42-157.38,562.67,111.88,170.08-71.44,245.15,226.35,543.91"/><path class="cls-89" d="M1273.94-72.36c78.37,198.62-205.2,691.3,6.9,770.16,93.63,34.81-70.21,539.79-4.28,595.1,14.57,57.95,160.76,168.33,105.67,288.43-45.69,99.91-99.47,208.51-70.62,283.51,59.48,154.61-289.37,356.85-156.91,559.81,110.59,169.45-66.26,243,225.14,538.68"/><path class="cls-90" d="M1246-71.32c82,201.42-206.11,698.32,7.91,776,94.17,34.18-71.72,543.64-4.08,598.84,16.2,57.47,158,168.05,102.62,288-45.9,99.79-99.44,208-69.29,282.17,62.12,152.79-288.31,353.28-156.44,556.94,109.3,168.82-61.07,240.93,223.93,533.46"/><path class="cls-91" d="M1218-70.28c85.65,204.23-207,705.35,8.93,781.86,94.71,33.55-73.24,547.49-3.88,602.58,17.84,57,155.17,167.77,99.57,287.63-46.11,99.68-99.4,207.51-68,280.83,64.75,151-287.24,349.7-156,554.08,108,168.18-55.89,238.82,222.73,528.24"/><path class="cls-92" d="M1190.08-69.24c89.3,207-207.94,712.38,9.94,787.71,95.25,32.93-74.75,551.34-3.69,606.33,19.47,56.51,152.38,167.5,96.51,287.24-46.32,99.57-99.37,207-66.62,279.49,67.38,149.14-286.17,346.11-155.51,551.22,106.74,167.55-50.71,236.71,221.52,523"/><path class="cls-93" d="M1162.13-68.21c92.94,209.83-208.85,719.42,11,793.55,95.8,32.31-76.26,555.19-3.49,610.07,21.1,56,149.58,167.22,93.46,286.84-46.53,99.46-99.33,206.52-65.29,278.15,70,147.32-285.09,342.53-155,548.36,105.46,166.9-45.52,234.6,220.31,517.79"/><path class="cls-94" d="M1134.18-67.17c96.58,212.64-209.76,726.47,12,799.4,96.34,31.69-77.77,559-3.29,613.81,22.73,55.55,146.79,166.94,90.41,286.44-46.74,99.35-99.3,206-64,276.81,72.63,145.49-284,338.94-154.57,545.5,104.19,166.26-40.34,232.48,219.1,512.57"/><path class="cls-95" d="M1106.22-66.13c100.22,215.44-210.67,733.53,13,805.25,96.89,31.07-79.28,562.9-3.09,617.55,24.36,55.07,144,166.67,87.36,286-46.95,99.24-99.27,205.52-62.63,275.47,75.25,143.67-282.92,335.35-154.1,542.64,102.92,165.62-35.15,230.37,217.89,507.34"/><path class="cls-96" d="M1078.27-65.09c103.86,218.24-211.58,740.59,14,811.1,97.43,30.46-80.79,566.75-2.89,621.29,26,54.59,141.2,166.39,84.31,285.65-47.16,99.13-99.23,205-61.29,274.13,77.88,141.85-281.83,331.75-153.63,539.78,101.66,165-30,228.26,216.68,502.12"/><path class="cls-97" d="M1050.32-64.05c107.51,221-212.49,747.65,15,816.95,98,29.84-82.3,570.6-2.69,625,27.62,54.11,138.41,166.11,81.26,285.25-47.37,99-99.2,204.53-60,272.79,80.5,140-280.72,328.15-153.17,536.92,100.4,164.32-24.79,226.15,215.47,496.9"/><path class="cls-98" d="M1022.37-63c111.15,223.85-213.39,754.73,16,822.8,98.53,29.23-83.81,574.45-2.49,628.78,29.26,53.63,135.62,165.83,78.21,284.85-47.58,98.9-99.17,204-58.63,271.45,83.12,138.22-279.61,324.55-152.7,534.06,99.15,163.67-19.6,224,214.27,491.67"/><path class="cls-99" d="M994.41-62c114.79,226.65-214.3,761.81,17.06,828.65,99.08,28.62-85.32,578.3-2.29,632.52,30.89,53.15,132.83,165.56,75.16,284.45-47.79,98.79-99.14,203.54-57.3,270.11,85.74,136.4-278.5,320.94-152.23,531.19,97.9,163-14.42,221.93,213.06,486.45"/><path class="cls-100" d="M966.46-60.94C1084.89,168.52,751.26,708,984.54,773.56c99.63,28-86.83,582.15-2.09,636.26,32.52,52.67,130,165.28,72.11,284.06-48,98.68-99.11,203-56,268.77C1086.95,2097.23,721.22,2280,846.83,2491c96.65,162.36-9.24,219.81,211.85,481.23"/><path class="cls-101" d="M938.51-59.9c122.08,232.26-216.1,776,19.09,840.34,100.18,27.41-88.34,586-1.89,640,34.15,52.19,127.24,165,69.06,283.66-48.21,98.57-99.08,202.55-54.63,267.43,91,132.78-276.24,313.72-151.29,525.47,95.41,161.7-4.05,217.7,210.64,476"/><path class="cls-102" d="M910.56-58.86c125.72,235.06-217,783.08,20.11,846.19,100.74,26.81-89.85,589.86-1.69,643.74,35.78,51.71,124.45,164.72,66,283.26-48.42,98.46-99.06,202.06-53.3,266.09,93.59,131-275.1,310.1-150.82,522.61,94.18,161,1.13,215.59,209.43,470.78"/><path class="cls-103" d="M882.6-57.82C1012,180,664.71,732.37,903.73,794.22c101.29,26.21-91.37,593.71-1.49,647.48,37.41,51.23,121.65,164.45,63,282.86-48.63,98.34-99,201.57-52,264.74,96.2,129.16-274,306.48-150.36,519.75,92.95,160.38,6.31,213.48,208.22,465.56"/><path class="cls-104" d="M854.65-56.78c133,240.67-218.78,797.3,22.14,857.89,101.85,25.61-92.88,597.56-1.29,651.23,39,50.75,118.86,164.17,59.91,282.47-48.83,98.23-99,201.08-50.64,263.4,98.82,127.35-272.8,302.86-149.89,516.89,91.72,159.72,11.5,211.37,207,460.34"/><path class="cls-105" d="M826.7-55.74C963.34,187.73,607,748.67,849.85,808c102.4,25-94.39,601.41-1.09,655,40.68,50.27,116.07,163.89,56.86,282.07-49,98.12-99,200.59-49.31,262.06,101.43,125.55-271.64,299.23-149.42,514,90.5,159.05,16.68,209.26,205.8,455.11"/><path class="cls-106" d="M798.75-54.7C939,191.57,578.18,756.83,822.92,814.88c103,24.42-95.9,605.26-.89,658.71,42.31,49.79,113.27,163.62,53.81,281.67-49.25,98-98.95,200.1-48,260.72,104,123.74-270.47,295.6-149,511.17,89.28,158.39,21.87,207.15,204.6,449.89"/><path class="cls-107" d="M770.8-53.67C914.72,195.41,549.34,765,796,821.77c103.52,23.83-87,593.57-.69,662.45,51.63,41.19,110.48,163.34,50.76,281.28-49.46,97.9-98.92,199.61-46.64,259.38,106.65,121.94-269.29,292-148.48,508.3,88.07,157.72,27,205,203.39,444.67"/><path class="cls-108" d="M742.84-52.63C890.41,199.25,520.51,773.16,769,828.65c104.08,23.24-89,597.78-.49,666.19,52.85,40.84,107.69,163.06,47.71,280.88-49.67,97.79-98.89,199.12-45.31,258,109.26,120.14-268.1,288.33-148,505.44,86.86,157,32.23,202.92,202.18,439.44"/><path class="cls-109" d="M714.89-51.59C866.1,203.09,491.67,781.34,742.11,835.54c104.65,22.65-91,602-.29,669.93C795.91,1546,846.71,1668.26,786.47,1786c-49.88,97.68-98.87,198.64-44,256.7C854.37,2161,475.59,2327.34,594.95,2545.24c85.66,156.38,37.42,200.81,201,434.22"/><path class="cls-110" d="M686.94-50.55c154.85,257.49-224.1,840.07,28.24,893,105.21,22.06-93,606.25-.1,673.67,55.35,40.16,102.1,162.51,41.61,280.08-50.09,97.56-98.84,198.15-42.65,255.36,114.49,116.55-265.7,281-147.08,499.72,84.46,155.71,42.6,198.7,199.76,429"/><path class="cls-111" d="M659-49.51c158.5,260.29-225,847.21,29.25,898.83,105.78,21.48-95,610.5.1,677.42C745,1566.57,787.65,1689,726.9,1806.42c-50.3,97.45-98.82,197.67-41.31,254C802.68,2175.19,421.1,2337.83,539,2557.3c83.27,155,47.78,196.59,198.55,423.77"/><path class="cls-112" d="M631-48.47C793.17,214.62,405.19,805.89,661.3,856.2c106.34,20.89-97,614.77.3,681.16,57.9,39.52,96.52,162,35.51,279.29-50.51,97.34-98.79,197.18-40,252.68,119.71,113-263.26,273.75-146.14,494,82.08,154.36,53,194.48,197.34,418.55"/><path class="cls-113" d="M603.08-47.43c165.78,265.89-226.72,861.52,31.28,910.53,106.91,20.31-98.9,619,.5,684.9,59.2,39.22,93.72,161.68,32.46,278.89-50.72,97.23-98.76,196.7-38.65,251.34C751,2189.39,366.64,2348.31,483,2569.36c80.9,153.69,58.15,192.36,196.14,413.33"/><path class="cls-114" d="M575.13-46.4C744.55,222.3,347.54,822.28,607.43,870c107.48,19.73-100.83,623.32.7,688.64,60.51,38.92,90.93,161.4,29.4,278.49-50.93,97.12-98.74,196.22-37.32,250C725.15,2196.49,339.43,2353.54,455,2575.39c79.72,153,63.34,190.25,194.93,408.1"/><path class="cls-115" d="M547.18-45.36c173.06,271.5-228.45,875.84,33.32,922.22,108.05,19.15-102.75,627.61.9,692.38,61.83,38.64,88.14,161.12,26.35,278.1-51.14,97-98.71,195.74-36,248.66C699.3,2203.6,312.23,2358.77,427,2581.42c78.54,152.33,68.52,188.14,193.72,402.88"/><path class="cls-116" d="M519.22-44.32c176.71,274.3-229.32,883,34.33,928.07,108.63,18.57-104.65,631.91,1.1,696.12,63.16,38.36,85.34,160.84,23.3,277.7-51.35,96.9-98.68,195.26-34.65,247.32C673.46,2210.7,285,2364,399,2587.44c77.37,151.66,73.7,186,192.51,397.66"/><path class="cls-117" d="M491.27-43.28C671.62,233.83,261.1,846.9,526.62,890.64c109.2,18-106.54,636.2,1.3,699.87,64.51,38.08,82.55,160.57,20.25,277.3-51.56,96.78-98.66,194.78-33.32,246,132.77,104-257,255.44-143.8,479.69,76.21,151,78.89,183.92,191.3,392.43"/><path class="cls-118" d="M463.32-42.24c184,279.91-231,897.36,36.36,939.77,109.78,17.41-108.42,640.51,1.5,703.61,65.87,37.81,79.76,160.29,17.2,276.9-51.77,96.67-98.63,194.3-32,244.63,135.38,102.25-255.71,251.77-143.33,476.83,75,150.3,84.07,181.81,190.09,387.21"/><path class="cls-119" d="M435.37-41.2C623,241.51,203.48,863.33,472.75,904.41c110.35,16.84-110.28,644.81,1.7,707.35,67.24,37.55,77,160,14.15,276.51-52,96.56-98.6,193.83-30.66,243.29,138,100.47-254.42,248.1-142.87,474,73.89,149.62,89.25,179.7,188.88,382"/><path class="cls-120" d="M407.42-40.16c191.27,285.52-232.74,911.72,38.4,951.47,110.93,16.26-112.13,649.12,1.9,711.09,68.62,37.29,74.17,159.73,11.1,276.11-52.19,96.45-98.58,193.35-29.33,242,140.61,98.69-253.11,244.43-142.4,471.11,72.74,148.95,94.44,177.58,187.68,376.77"/><path class="cls-121" d="M379.46-39.13c194.92,288.32-233.59,918.91,39.41,957.31,111.51,15.69-114,653.43,2.1,714.83,70,37,71.38,159.46,8.05,275.71-52.4,96.34-98.55,192.87-28,240.61,143.23,96.91-251.79,240.75-141.93,468.25,71.6,148.27,99.62,175.47,186.47,371.54"/><path class="cls-122" d="M351.51-38.09C550.07,253,117.07,888,391.94,925.07c112.1,15.12-115.79,657.74,2.3,718.57,71.41,36.79,68.59,159.18,5,275.31-52.61,96.23-98.52,192.4-26.66,239.27,145.84,95.14-250.46,237.06-141.46,465.39,70.46,147.59,104.81,173.36,185.26,366.32"/><path class="cls-123" d="M323.56-37C525.76,256.88,88.28,896.24,365,932c112.68,14.54-117.6,662,2.5,722.32,72.83,36.55,65.79,158.9,2,274.92-52.82,96.12-98.49,191.92-25.33,237.93,148.46,93.36-249.12,233.38-141,462.53,69.32,146.91,110,171.25,184,361.1"/><path class="cls-124" d="M295.61-36C501.45,260.72,59.48,904.48,338.07,938.85c113.26,14-119.4,666.35,2.7,726.06,74.25,36.31,63,158.63-1.1,274.52-53,96-98.46,191.45-24,236.59,151.08,91.59-247.77,229.69-140.53,459.66,68.19,146.23,115.17,169.14,182.84,355.87"/><path class="cls-125" d="M267.65-35c209.49,299.53-237,947.69,43.48,980.71,113.85,13.4-121.19,670.66,2.9,729.8,75.68,36.07,60.21,158.35-4.15,274.12-53.24,95.89-98.43,191-22.67,235.25,153.7,89.82-246.4,226-140.06,456.8,67.06,145.55,120.36,167,181.63,350.65"/><path class="cls-126" d="M239.7-33.93C452.83,268.4,1.9,921,284.2,952.62c114.44,12.84-123,675,3.1,733.54,77.12,35.83,57.41,158.07-7.2,273.72-53.45,95.78-98.4,190.5-21.33,233.91,156.32,88-245,222.31-139.59,453.94,65.94,144.87,125.54,164.91,180.42,345.43"/><path class="cls-127" d="M211.75-32.89c216.77,305.14-238.63,962.1,45.51,992.4,115,12.27-124.73,679.27,3.29,737.28,78.57,35.6,54.62,157.79-10.25,273.33-53.66,95.67-98.37,190-20,232.57C389.24,2289-13.33,2421.3,91.18,2653.77,156,2798,221.9,2816.57,270.39,2994"/><path class="cls-128" d="M183.8-31.86C404.21,276.08-55.66,937.45,230.32,966.4c115.62,11.7-126.49,683.58,3.49,741,80,35.37,51.83,157.52-13.3,272.93-53.87,95.56-98.34,189.56-18.67,231.23,161.56,84.51-242.23,214.91-138.65,448.22,63.71,143.52,135.91,160.69,178,335"/><path class="cls-129" d="M155.84-30.82C379.9,279.93-84.44,945.7,203.39,973.28,319.6,984.42,75.16,1661.16,207.08,1718c81.49,35.14,49,157.24-16.35,272.53-54.08,95.45-98.31,189.09-17.34,229.89,164.19,82.74-240.81,211.21-138.19,445.36C97.81,2808.67,176.3,2824.41,212,2995.59"/><path class="cls-130" d="M127.89-29.78c227.7,313.55-241.11,983.74,48.56,1010,116.81,10.57-130,692.18,3.89,748.51,83,34.91,46.24,157-19.4,272.14-54.29,95.34-98.27,188.61-16,228.55,166.81,81-239.38,207.51-137.72,442.5C68.72,2814,153.49,2828.33,182.81,2996.39"/><path class="cls-131" d="M99.94-28.74c231.34,316.35-241.93,991,49.58,1015.8,117.4,10-131.69,696.47,4.09,752.25C238,1774,197.06,1896,131.15,2011c-54.5,95.22-98.24,188.14-14.67,227.21,169.44,79.2-237.93,203.8-137.25,439.64,60.41,141.49,151.46,154.36,174.38,319.31"/><path class="cls-132" d="M72-27.7C307,291.45-170.76,970.47,122.58,993.95c118,9.44-133.41,700.76,4.29,756,85.93,34.46,40.65,156.41-25.5,271.34C46.66,2116.39,3.16,2208.95,88,2247.14c172.06,77.44-236.47,200.09-136.78,436.78C10.56,2824.74,107.89,2836.16,124.42,2998"/><path class="cls-133" d="M44-26.66c238.62,322-243.57,1005.4,51.61,1027.5,118.6,8.88-135.12,705.05,4.49,759.73,87.42,34.24,37.86,156.13-28.55,270.94-54.92,95-98.17,187.2-12,224.52,174.69,75.67-235,196.38-136.31,433.91,58.23,140.15,161.83,150.13,172,308.86"/><path class="cls-134" d="M16.08-25.62C258.35,299.13-228.3,987,68.71,1007.72c119.2,8.32-136.82,709.34,4.69,763.47,88.92,34,35.07,155.85-31.6,270.55-55.12,94.89-98.2,186.89-10.68,223.18C208.3,2339.14-202.4,2457.59-104.73,2696c57.15,139.48,167,148,170.75,303.64"/><path class="cls-135" d="M-11.87-24.59C234,303-257.06,995.26,41.77,1014.61c119.8,7.75-138.51,713.62,4.89,767.21C137.09,1815.61,78.94,1937.4,12,2052c-55.33,94.78-98.16,186.4-9.35,221.84,179.84,72.42-232,189-135.38,428.19,56.07,138.81,172.19,145.91,169.55,298.42"/><path class="cls-136" d="M-39.82-23.55c249.55,330.37-246,1027.08,54.66,1045,120.4,7.19-140.2,717.9,5.09,771,91.94,33.57,29.48,155.3-37.71,269.75-55.54,94.67-98.11,185.91-8,220.5C156.69,2353.33-256.29,2467.94-160.7,2708c55,138.14,177.38,143.8,168.34,293.2"/><path class="cls-137" d="M-67.77-22.51C185.42,310.66-314.58,1011.8-12.1,1028.38c121,6.63-141.87,722.18,5.29,774.7,93.46,33.35,26.69,155-40.76,269.35-55.75,94.56-98.07,185.43-6.68,219.16,185.14,68.82-229,181.52-134.44,422.47,53.93,137.47,182.56,141.69,167.13,288"/><path class="cls-138" d="M-95.73-21.47C161.11,314.5-343.33,1020.07-39,1035.27c121.61,6.07-143.54,726.45,5.49,778.44,95,33.13,23.9,154.74-43.81,269-56,94.44-98,184.94-5.35,217.82,187.78,67-227.41,177.8-134,419.61,52.86,136.81,187.75,139.58,165.92,282.75"/></g></svg>