<svg id="Layer_1" data-name="Layer 1" xmlns="http://www.w3.org/2000/svg" viewBox="0 0 600 302.58"><defs><style>.cls-1,.cls-10,.cls-11,.cls-12,.cls-13,.cls-14,.cls-15,.cls-16,.cls-17,.cls-2,.cls-3,.cls-4,.cls-5,.cls-6,.cls-7,.cls-8,.cls-9{fill:none;}.cls-1{stroke:#a8d3ef;}.cls-1,.cls-10,.cls-11,.cls-12,.cls-13,.cls-14,.cls-15,.cls-16,.cls-17,.cls-3,.cls-4,.cls-5,.cls-6,.cls-7,.cls-8,.cls-9{stroke-miterlimit:10;}.cls-2{stroke:#a3cfec;stroke-miterlimit:10;}.cls-3{stroke:#9dcbea;}.cls-4{stroke:#98c7e7;}.cls-5{stroke:#93c2e5;}.cls-6{stroke:#8dbee2;}.cls-7{stroke:#88bae0;}.cls-8{stroke:#83b6dd;}.cls-9{stroke:#7eb2db;}.cls-10{stroke:#78aed8;}.cls-11{stroke:#73aad6;}.cls-12{stroke:#6ea6d3;}.cls-13{stroke:#68a1d1;}.cls-14{stroke:#639dce;}.cls-15{stroke:#5e99cc;}.cls-16{stroke:#5895c9;}.cls-17{stroke:#5391c7;}</style></defs><title>thesis_final_website</title><path class="cls-1" d="M803.29,227.14C768.41,163.21,766,60.92,718.12,48.54c-66.63-17.21-188.58,143.91-250.56,114C405,132.37,418.08,31.9,288.24-.2"/><path class="cls-2" d="M292.48-4.63c127.2,30.24,118.25,125.15,180.4,156.2,62,31.13,183.46-124.26,249.53-109,48,11.1,56.82,105.44,90.83,168.92"/><path class="cls-3" d="M296.71-9.06C421.26,19.33,416.43,108.66,478.19,140.6c61.94,32.34,183-117.32,248.5-103.95,48.08,9.82,63.36,96.21,96.48,159.24"/><path class="cls-4" d="M300.94-13.49C422.86,13,422.24,96.64,483.51,129.62,545.52,163,666.07,19.22,731,30.71c48.19,8.53,69.89,87,102.14,149.57"/><path class="cls-5" d="M305.17-17.91C424.45,6.75,428,84.74,488.82,118.65c62,34.56,182.14-103.51,246.44-93.89,48.31,7.23,76.43,77.76,107.8,139.89"/><path class="cls-6" d="M309.4-22.34C426,0.47,433.7,72.85,494.14,107.67c62,35.74,181.73-96.63,245.41-88.86C788,24.73,822.51,87.35,853,149"/><path class="cls-7" d="M313.64-26.77C427.63-5.82,439.43,61,499.46,96.7c62,36.93,181.33-89.77,244.38-83.83,48.58,4.58,89.5,59.31,119.11,120.54"/><path class="cls-8" d="M317.87-31.2C429.22-12.11,445.16,49.09,504.77,85.72c62,38.12,180.93-82.94,243.35-78.8,48.72,3.23,96,50.08,124.77,110.86"/><path class="cls-9" d="M322.1-35.62c108.71,17.23,128.78,72.84,188,110.37C572.11,114.07,690.64-1.39,752.4,1,801.28,2.85,855,41.83,882.83,102.16"/><path class="cls-10" d="M326.33-40.05C432.4-24.68,456.6,25.35,515.4,63.77,577.42,104.3,695.61-2.74,756.69-5c49-1.79,109.1,31.62,136.09,91.51"/><path class="cls-11" d="M330.56-44.48C434-31,462.32,13.5,520.72,52.8,582.73,94.53,700.64-6.88,761-10.91c49.09-3.28,115.64,22.4,141.75,81.83"/><path class="cls-12" d="M334.8-48.91C435.58-37.25,468,1.64,526,41.82c62,43,179.43-55.87,239.22-58.68,49.36-2.32,122.17,13.17,147.4,72.15"/><path class="cls-13" d="M339-53.34c98.14,9.8,134.72,43.13,192.32,84.18C593.33,75,710.41-18.31,769.55-22.8c49.52-3.76,128.71,3.94,153.06,62.48"/><path class="cls-14" d="M343.26-57.76C438.76-49.82,479.45-22,536.67,19.87c62,45.4,178.68-42.48,237.16-48.62C823.51-34,909.07-34,932.55,24.05"/><path class="cls-15" d="M347.49-62.19C440.35-56.11,485.16-33.89,542,8.9c61.94,46.63,178.3-35.82,236.13-43.59C828-41.39,919.89-49.21,942.49,8.43"/><path class="cls-16" d="M351.73-66.62C441.94-62.4,490.86-45.72,547.3-2.08c61.91,47.87,177.92-29.18,235.1-38.56,50-8.2,148.31-23.74,170,33.45"/><path class="cls-17" d="M356-71c87.57,2.36,140.59,13.49,196.66,58,61.87,49.11,177.52-22.57,234.07-33.53,50.13-9.72,154.84-33,175.69,23.77"/></svg>