<svg id="Layer_1" data-name="Layer 1" xmlns="http://www.w3.org/2000/svg" xmlns:xlink="http://www.w3.org/1999/xlink" viewBox="0 0 600 302.58"><defs><style>.cls-1,.cls-10,.cls-11,.cls-12,.cls-13,.cls-14,.cls-15,.cls-16,.cls-17,.cls-18,.cls-19,.cls-20,.cls-21,.cls-22,.cls-23,.cls-24,.cls-25,.cls-26,.cls-27,.cls-28,.cls-29,.cls-3,.cls-30,.cls-31,.cls-32,.cls-33,.cls-34,.cls-35,.cls-36,.cls-37,.cls-38,.cls-39,.cls-4,.cls-40,.cls-41,.cls-42,.cls-43,.cls-44,.cls-45,.cls-46,.cls-47,.cls-48,.cls-49,.cls-5,.cls-50,.cls-51,.cls-52,.cls-53,.cls-54,.cls-55,.cls-56,.cls-57,.cls-58,.cls-59,.cls-6,.cls-60,.cls-61,.cls-62,.cls-63,.cls-64,.cls-65,.cls-66,.cls-67,.cls-68,.cls-69,.cls-7,.cls-8,.cls-9{fill:none;}.cls-2{clip-path:url(#clip-path);}.cls-10,.cls-11,.cls-12,.cls-13,.cls-14,.cls-15,.cls-16,.cls-17,.cls-18,.cls-3,.cls-4,.cls-5,.cls-6,.cls-7,.cls-8,.cls-9{stroke:#b1d0e7;}.cls-10,.cls-11,.cls-12,.cls-13,.cls-14,.cls-15,.cls-16,.cls-17,.cls-18,.cls-19,.cls-20,.cls-21,.cls-22,.cls-23,.cls-24,.cls-25,.cls-26,.cls-27,.cls-28,.cls-29,.cls-3,.cls-30,.cls-31,.cls-32,.cls-33,.cls-34,.cls-35,.cls-36,.cls-37,.cls-38,.cls-39,.cls-4,.cls-40,.cls-41,.cls-42,.cls-43,.cls-44,.cls-45,.cls-46,.cls-47,.cls-48,.cls-49,.cls-5,.cls-50,.cls-52,.cls-53,.cls-54,.cls-55,.cls-56,.cls-57,.cls-58,.cls-59,.cls-6,.cls-60,.cls-61,.cls-62,.cls-63,.cls-64,.cls-65,.cls-66,.cls-67,.cls-68,.cls-69,.cls-7,.cls-8,.cls-9{stroke-miterlimit:10;}.cls-3{stroke-width:1.82px;}.cls-4{stroke-width:1.82px;}.cls-5{stroke-width:1.81px;}.cls-6{stroke-width:1.81px;}.cls-7{stroke-width:1.8px;}.cls-8{stroke-width:1.8px;}.cls-9{stroke-width:1.79px;}.cls-10{stroke-width:1.79px;}.cls-11{stroke-width:1.78px;}.cls-12{stroke-width:1.78px;}.cls-13{stroke-width:1.77px;}.cls-14{stroke-width:1.77px;}.cls-15{stroke-width:1.76px;}.cls-16{stroke-width:1.76px;}.cls-17{stroke-width:1.75px;}.cls-18{stroke-width:1.75px;}.cls-19,.cls-20,.cls-21,.cls-22,.cls-23,.cls-24,.cls-25,.cls-26,.cls-27,.cls-28,.cls-29,.cls-30,.cls-31,.cls-32,.cls-33,.cls-34,.cls-35,.cls-36,.cls-37,.cls-38,.cls-39,.cls-40,.cls-41,.cls-42,.cls-43,.cls-44,.cls-45,.cls-46,.cls-47,.cls-48,.cls-49{stroke:#b1d0e6;}.cls-19{stroke-width:1.74px;}.cls-20{stroke-width:1.74px;}.cls-21{stroke-width:1.73px;}.cls-22{stroke-width:1.73px;}.cls-23{stroke-width:1.72px;}.cls-24{stroke-width:1.72px;}.cls-25{stroke-width:1.71px;}.cls-26{stroke-width:1.71px;}.cls-27{stroke-width:1.7px;}.cls-28{stroke-width:1.7px;}.cls-29{stroke-width:1.69px;}.cls-30{stroke-width:1.69px;}.cls-31{stroke-width:1.68px;}.cls-32{stroke-width:1.68px;}.cls-33{stroke-width:1.67px;}.cls-34{stroke-width:1.67px;}.cls-35{stroke-width:1.66px;}.cls-36{stroke-width:1.65px;}.cls-37{stroke-width:1.65px;}.cls-38{stroke-width:1.64px;}.cls-39{stroke-width:1.64px;}.cls-40{stroke-width:1.63px;}.cls-41{stroke-width:1.63px;}.cls-42{stroke-width:1.62px;}.cls-43{stroke-width:1.62px;}.cls-44{stroke-width:1.61px;}.cls-45{stroke-width:1.61px;}.cls-46{stroke-width:1.6px;}.cls-47{stroke-width:1.6px;}.cls-48{stroke-width:1.59px;}.cls-49{stroke-width:1.59px;}.cls-50{stroke:#a29ecd;}.cls-51{stroke:#a3a0ce;stroke-miterlimit:10;}.cls-52{stroke:#a3a2cf;}.cls-53{stroke:#a4a4d0;}.cls-54{stroke:#a5a7d1;}.cls-55{stroke:#a5a9d2;}.cls-56{stroke:#a6abd3;}.cls-57{stroke:#a7add4;}.cls-58{stroke:#a8afd5;}.cls-59{stroke:#a8b1d6;}.cls-60{stroke:#a9b3d7;}.cls-61{stroke:#aab5d8;}.cls-62{stroke:#aab8d9;}.cls-63{stroke:#abbada;}.cls-64{stroke:#acbcdb;}.cls-65{stroke:#acbedc;}.cls-66{stroke:#adc0dd;}.cls-67{stroke:#aec2de;}.cls-68{stroke:#afc4df;}.cls-69{stroke:#afc6e0;}</style><clipPath id="clip-path"><rect class="cls-1" x="-47.27" y="-2608.06" width="1997.26" height="1808.4"/></clipPath></defs><title>thesis_final_website</title><g class="cls-2"><path class="cls-3" d="M-181.62,189.62c109.48-123.68,154.1-272,154.15-382.2,0-97,7.07-208.71,36-278.32,55.19-133-469.05-50.76-437.17-170.61,26.47-99.56,97.2-226.54,169.8-357.72,152.67-276.43,356-584.81,190.26-727.44-221.53-190.69,472.69-379.65-313.73-881.86"/><path class="cls-4" d="M-161.67,188.51C-55.43,63.13-7.51-89.53-9.37-199-11-295.14-1.4-410.7,26.54-480.7c53-132.68-464.6-51.8-432.69-171.7,26.46-99.48,96.58-226.08,167.79-356.34C-88.68-1283.24,116.58-1590-48.63-1733.11c-219.76-190.4,466.82-377.4-312.36-876.28"/><path class="cls-5" d="M-141.72,187.4C-38.72,60.32,12.5-96.68,8.74-205.36,5.45-300.66,17.59-420.08,44.6-490.5,95.36-622.8-415.54-543.33-383.6-663.29c26.46-99.41,96-225.63,165.78-355,146.67-272.58,353.9-577.68,189.19-721.3-218-190.09,461-375.15-311-870.71"/><path class="cls-6" d="M-121.76,186.29C-22,57.52,32.52-103.8,26.85-211.75c-5-94.4,9.72-217.68,35.81-288.54C111.24-632.19-393-554.17-361.06-674.17c26.45-99.34,95.35-225.17,163.77-353.58C-53.61-1298.4,155.58-1601.86-8.64-1746c-216.24-189.78,455.1-372.89-309.63-865.13"/><path class="cls-7" d="M-101.81,185.18C-5.31,54.71,52.54-110.88,45-218.14c-6.61-93.5,10.58-220.61,35.76-291.94,46.41-131.46-451.23-54.92-419.23-175,26.44-99.26,94.73-224.71,161.76-352.2C-36.08-1306,175.08-1607.8,11.35-1752.42-203.13-1941.88,460.59-2123.06-296.91-2612"/><path class="cls-8" d="M-81.85,184.07C11.4,51.9,72.57-117.94,63.07-224.53c-8.25-92.57,11.44-223.52,35.71-295.35C143-650.87-348-575.84-316-695.95c26.43-99.19,94.11-224.25,159.74-350.82,137.68-266.8,350.8-567,187.57-712.09-212.73-189.14,443.37-368.38-306.89-854"/><path class="cls-9" d="M-61.9,183C28.11,49.1,92.61-125,81.18-230.92c-9.89-91.63,12.29-226.39,35.67-298.75,42.15-130.48-442.32-57-410.27-177.16,26.42-99.12,93.49-223.79,157.73-349.44,134.68-264.88,349.77-563.38,187-709-211-188.8,437.51-366.13-305.52-848.4"/><path class="cls-10" d="M-41.95,181.86C44.82,46.29,112.66-132,99.28-237.31,87.77-328,112.41-466.55,134.9-539.47,175-669.41-303-597.51-270.88-717.72c26.42-99,92.88-223.33,155.72-348.06,131.68-263,348.74-559.8,186.49-706C-137.89-1960.2,503-2135.61-232.83-2614.56"/><path class="cls-11" d="M-22,180.75C61.53,43.48,132.71-138.93,117.39-243.7c-13.12-89.7,14-232.05,35.57-305.56,38-129.36-433.41-59.07-401.3-179.34,26.41-99,92.26-222.88,153.71-346.68,128.69-261,347.71-556.22,186-702.88-207.48-188.12,425.79-361.62-302.79-837.25"/><path class="cls-12" d="M-2,179.64c80.28-139,154.82-325.5,137.54-429.73-14.71-88.7,14.8-234.84,35.52-309,36-128.75-429-60.11-396.81-180.43,26.4-98.9,91.64-222.42,151.69-345.3,125.69-259.1,346.67-552.63,185.41-699.81C-94.42-1972.38,531.24-2144-190.11-2616.28"/><path class="cls-13" d="M17.91,178.53c77-140.66,154.95-331.29,135.69-435-16.28-87.69,15.62-237.6,35.47-312.37C223.09-697-235.42-630-203.25-750.38c26.39-98.82,91-222,149.68-343.92,122.69-257.18,345.64-549,184.88-696.74-204-187.42,414.06-357.11-300.06-826.1"/><path class="cls-14" d="M37.87,177.42C111.66,35.07,193-159.64,171.72-262.87c-17.84-86.66,16.45-240.34,35.42-315.78,32.05-127.44-420-62.19-387.84-182.61C-154.32-860-90.29-982.76-33-1103.81c119.69-255.25,344.61-545.44,184.34-693.67C-51-1984.53,559.5-2152.34-147.39-2618"/><path class="cls-15" d="M57.82,176.31c70.54-144.05,155.25-342.8,132-445.58-19.37-85.62,31-241,35.38-319.19,52.07-119.41-415.59-63.23-383.36-183.7,26.38-98.67,89.79-221,145.66-341.16,116.69-253.33,343.58-541.84,183.8-690.6-200.53-186.69,402.34-352.61-297.32-815"/><path class="cls-16" d="M77.78,175.2C145.07,29.45,233.2-173.3,207.93-275.65,187-360.22,240.63-519.51,243.26-598.25,294.48-716.78-167.88-662.51-135.62-783c26.37-98.6,89.18-220.58,143.65-339.78,113.69-251.4,342.55-538.24,183.26-687.53-198.8-186.32,396.47-350.35-296-809.38"/><path class="cls-17" d="M97.73,174.09C161.78,26.65,253.35-180.1,226-282c-22.37-83.5,34.37-246.67,35.28-326,50.37-117.67-406.68-65.31-374.39-185.88,26.36-98.53,88.81-220,141.63-338.4C139.78-1381.57,370.07-1667,211.28-1816.78c-197.07-185.94,390.61-348.1-294.59-803.8"/><path class="cls-18" d="M117.68,173C178.49,23.84,273.52-186.86,244.15-288.43c-23.84-82.42,36.05-249.49,35.23-329.4,49.52-116.8-402.23-66.35-369.91-187,26.35-98.45,88.2-219.55,139.62-337,108.25-247.31,340.48-531,182.18-681.39C35.93-2008.77,616-2169.06-61.95-2621.45"/><path class="cls-19" d="M137.64,171.88C195.2,21,293.72-193.6,262.26-294.82,237-376.15,300-547.13,297.44-627.63,346.11-743.56-100.34-695-68-815.7c26.34-98.38,87.6-219.09,137.61-335.64,105.28-245.38,339.45-527.42,181.64-678.32C57.64-2014.81,630.15-2173.25-40.59-2622.31"/><path class="cls-20" d="M157.59,170.77c54.32-152.54,156.34-371.09,122.77-472-26.69-80.23,39.41-255.12,35.13-336.21C363.32-752.48-77.82-705.85-45.44-826.58c26.34-98.31,87-218.63,135.6-334.26,102.32-243.45,338.41-523.8,181.1-675.25-191.91-184.76,373-341.34-290.49-787.07"/><path class="cls-21" d="M177.54,169.66C228.62,15.42,334.17-207,298.47-307.6c-28.08-79.12,41.09-257.94,35.09-339.62,47-114.18-388.86-69.46-356.45-190.25,26.33-98.23,86.4-218.17,133.59-332.88,99.35-241.52,337.38-520.19,180.56-672.18C101.05-2026.88,658.42-2181.61,2.13-2624"/><path class="cls-22" d="M197.5,168.55C245.33,12.62,354.43-213.7,316.58-314c-29.44-78,42.78-260.75,35-343,46.13-113.31-384.41-70.5-352-191.34,26.32-98.16,85.79-217.7,131.57-331.5,96.38-239.59,336.34-516.57,180-669.11-188.49-183.94,361.3-336.83-287.76-775.92"/><path class="cls-23" d="M217.45,167.44C262,9.81,374.72-220.37,334.69-320.38c-30.77-76.88,44.46-263.57,35-346.43C415-779.25-10.28-738.35,22.19-859.24c26.31-98.09,85.19-217.24,129.56-330.13,93.41-237.66,335.31-512.94,179.49-666C144.45-2038.93,686.68-2190,44.85-2625.75"/><path class="cls-24" d="M237.41,166.33C278.74,7,395-227,352.8-326.77c-32.07-75.76,46.14-266.38,34.94-349.84,44.43-111.57-375.5-72.58-343-193.52,26.3-98,84.59-216.78,127.55-328.75,90.45-235.73,334.27-509.31,178.95-663-185.09-183.1,349.57-332.32-285-764.77"/><path class="cls-25" d="M257.36,165.23c38.09-161,158-398.87,113.55-498.39-33.35-74.63,47.82-269.2,34.89-353.24C449.38-797.1,34.75-760,67.28-881c26.3-97.94,84-216.32,125.54-327.37,87.48-233.8,333.23-505.68,178.41-659.9-183.39-182.67,343.71-330.07-283.65-759.2"/><path class="cls-26" d="M277.31,164.12C312.16,1.39,435.75-240.27,389-339.55c-34.6-73.5,49.5-272,34.84-356.65C466.59-806,57.27-770.86,89.82-891.9c26.29-97.87,83.39-215.86,123.52-326,84.51-231.87,332.19-502,177.87-656.83-181.69-182.23,337.85-327.81-282.29-753.62"/><path class="cls-27" d="M297.27,163c31.6-164.42,175.47-420,109.85-509C384.53-423.47,458.3-620.77,441.92-706c41.88-109-362.14-75.7-329.55-196.79,26.28-97.79,82.78-215.4,121.51-324.61C315.43-1457.33,565-1725.8,411.21-1881.15c-180-181.79,332-325.56-280.92-748"/><path class="cls-28" d="M317.22,161.9c28.36-166.12,176.22-426.17,108-514.23C401.57-429,478.09-630,460-715.79c41-108.08-357.68-76.74-325.06-197.88,26.27-97.72,82.18-214.94,119.5-323.23,78.58-228,330.11-494.76,176.79-650.69-178.32-181.34,326.12-323.3-279.55-742.47"/><path class="cls-29" d="M337.17,160.79C362.29-7,514.14-271.54,443.34-358.72c-24.73-75.9,54.54-280.46,34.7-366.86,40.18-107.21-353.23-77.78-320.58-199C183.72-1022.2,239-1139,274.95-1246.41,350.56-1472.49,604-1737.52,451.2-1894c-176.64-180.89,320.26-321-278.19-736.89"/><path class="cls-30" d="M357.13,159.68C379-9.84,534.84-278.82,461.45-365.11c-25.8-75.09,56.22-283.28,34.65-370.27C535.43-841.72,147.32-814.2,180-935.44c26.25-97.57,81-214,115.48-320.47,72.65-224.16,328-487.47,175.71-644.54-175-180.43,314.4-318.8-276.82-731.32"/><path class="cls-31" d="M377.08,158.57C395.71-12.64,555.54-286.09,479.55-371.5c-26.87-74.28,57.9-286.09,34.6-373.67C552.64-850.65,169.84-825,202.54-946.33c26.25-97.5,80.38-213.56,113.46-319.09,69.68-222.24,327-483.82,175.18-641.47-173.29-180,308.54-316.54-275.45-725.74"/><path class="cls-32" d="M397,157.46c15.38-172.91,179.2-450.83,100.63-535.36C469.73-451.37,557.24-666.8,532.22-755c37.64-104.6-339.86-80.89-307.13-202.24,26.24-97.43,79.77-213.11,111.45-317.71,66.72-220.31,325.94-480.16,174.64-638.4-171.62-179.49,302.67-314.29-274.09-720.17"/><path class="cls-33" d="M417,156.36c12.13-174.61,179.95-457,98.78-540.64C486.77-456.95,577-676,550.28-764.77,587.06-868.5,214.87-846.7,247.63-968.1c26.23-97.35,79.17-212.65,109.44-316.33,63.75-218.39,324.89-476.5,174.1-635.33-170-179,296.81-312-272.72-714.59"/><path class="cls-34" d="M436.94,155.25c8.89-176.31,180.7-463.16,96.93-545.92-30.07-71.85,62.94-294.54,34.46-383.89,35.94-102.86-331-83-298.16-204.43,26.22-97.28,78.57-212.19,107.43-314.95,60.79-216.47,323.84-472.83,173.56-632.26-168.29-178.53,290.95-309.78-271.35-709"/><path class="cls-35" d="M456.9,154.14c5.64-178,181.44-469.33,95.09-551.2-31.14-71,64.62-297.35,34.41-387.3,35.09-102-326.5-84-293.67-205.52,26.21-97.21,78-211.73,105.42-313.57,57.82-214.54,322.79-469.17,173-629.19-166.63-178,285.09-307.53-270-703.44"/><path class="cls-36" d="M476.85,153c2.4-179.7,182.19-475.5,93.24-556.48-32.21-70.23,66.3-300.17,34.36-390.7,34.24-101.11-322-85-289.19-206.61,26.21-97.13,77.37-211.28,103.4-312.19,54.86-212.62,321.74-465.49,172.48-626.12-165-177.55,279.22-305.27-268.62-697.86"/><path class="cls-37" d="M496.81,151.92C496-29.48,679.74-329.74,588.2-409.84c-33.28-69.42,68-303,34.31-394.11,33.39-100.24-317.59-86.09-284.7-207.7,26.2-97.06,76.77-210.82,101.39-310.81,51.89-210.7,320.69-461.82,171.94-623.05-163.33-177,273.36-303-267.25-692.29"/><path class="cls-38" d="M516.76,150.81c-4.09-183.1,183.68-487.83,89.55-567C572-484.85,676-722,640.57-813.75c32.54-99.37-313.13-87.13-280.22-208.79,26.19-97,76.17-210.37,99.38-309.43,48.92-208.79,319.63-458.14,171.4-620-161.69-176.54,267.5-300.76-265.88-686.71"/><path class="cls-39" d="M536.71,149.7c-7.34-184.8,184.43-494,87.71-572.33-35.42-67.8,71.34-308.62,34.22-400.92C690.33-922,350-911.71,382.9-1033.42c26.18-96.91,75.56-209.91,97.37-308.05,46-206.87,318.57-454.46,170.86-616.91-160-176,261.64-298.51-264.52-681.14"/><path class="cls-40" d="M556.67,148.6C546.08-37.9,741.84-351.56,642.53-429c-36.49-67,73-311.43,34.17-404.32,30.84-97.63-304.22-89.21-271.25-211,26.17-96.84,75-209.46,95.35-306.67,43-205,317.51-450.77,170.33-613.84C512.71-2140.33,926.89-2261.08,408-2640.38"/><path class="cls-41" d="M576.62,147.49c-13.83-188.19,185.92-506.33,84-582.89-37.56-66.18,74.7-314.25,34.12-407.73,30-96.76-299.77-90.24-266.77-212.06,26.17-96.77,74.36-209,93.34-305.29,40-203,316.45-447.08,169.79-610.77-156.78-175,249.91-294-261.78-670"/><path class="cls-42" d="M596.57,146.38C579.5-43.51,783.24-366.11,678.74-441.79c-38.63-65.37,76.38-317.06,34.07-411.14C742-948.81,417.5-944.21,450.53-1066.08c26.16-96.69,73.76-208.55,91.33-303.91,37.06-201.12,315.39-443.38,169.25-607.7-155.15-174.45,244-291.75-260.42-664.41"/><path class="cls-43" d="M616.53,145.27C596.21-46.32,803.94-373.39,696.85-448.18c-39.7-64.56,78.06-319.88,34-414.54C759.17-957.74,440-955,473.07-1077c26.15-96.62,73.16-208.1,89.32-302.53,34.09-199.21,314.32-439.68,168.71-604.63C577.57-2158,969.29-2273.62,472.05-2643"/><path class="cls-44" d="M636.48,144.16C612.92-49.12,824.64-380.66,715-454.57c-40.77-63.75,79.74-322.69,34-417.95,27.45-94.14-286.4-93.36-253.31-215.33,26.14-96.54,72.55-207.64,87.31-301.15,31.13-197.3,313.25-436,168.17-601.56-151.91-173.38,232.32-287.24-257.68-653.26"/><path class="cls-45" d="M656.44,143.05c-26.81-195,188.91-531,76.63-604C691.23-523.91,814.49-786.47,767-882.31c26.6-93.27-281.95-94.4-248.83-216.43,26.13-96.47,72-207.19,85.29-299.77C631.62-1593.9,915.63-1830.79,771.09-1997c-150.3-172.83,226.46-285-256.32-647.68"/><path class="cls-46" d="M676.39,141.94C646.34-54.74,866-395.21,751.18-467.35c-42.91-62.13,83.1-328.33,33.88-424.76,25.75-92.4-277.49-95.44-244.35-217.52C566.83-1206,612.05-1316.37,624-1408c25.19-193.48,311.1-428.56,167.09-595.42-148.69-172.28,220.6-282.73-254.95-642.11"/><path class="cls-47" d="M696.34,140.84C663-57.54,886.75-402.49,769.28-473.74c-44-61.32,84.78-331.14,33.83-428.16,24.9-91.53-273-96.48-239.86-218.61,26.12-96.32,70.74-206.29,81.27-297,22.22-191.57,310-424.85,166.55-592.35C664-2181.6,1025.81-2290.35,557.49-2646.41"/><path class="cls-48" d="M716.3,139.73C679.75-60.35,907.45-409.76,787.39-480.13c-45-60.51,86.46-334,33.78-431.57,24.05-90.66-268.58-97.52-235.38-219.7,26.11-96.25,70.14-205.84,79.26-295.64,19.25-189.67,308.95-421.13,166-589.28-145.49-171.16,208.87-278.22-252.22-631"/><path class="cls-49" d="M736.25,138.62C696.46-63.16,928.15-417,805.5-486.52c-46.12-59.7,88.14-336.77,33.73-435,23.2-89.79-264.13-98.56-230.89-220.79,26.1-96.18,69.54-205.39,77.25-294.26,16.29-187.76,307.86-417.41,165.48-586.21-143.9-170.59,203-276-250.85-625.38"/></g><path class="cls-50" d="M665.2,189.55c-17.34-84.07-94.57-45-126.33-41-67.72,8.62-61-122-155.67-124.33C212.49,20,75.53-22.12,102.53-59.45"/><path class="cls-51" d="M106.91-61.21c-22.86,35.06,111,74.53,277.36,80,94.45,3.11,91.25,134.34,159.38,120.05,33.19-7,112.06-47.64,129.43,35.06"/><path class="cls-52" d="M111.29-63C92.57-30.17,223.4,6.68,385.34,13.38c94.25,3.9,94.64,135.46,163.09,115.77,34.68-10,115.13-52.21,132.53,29.12"/><path class="cls-53" d="M115.66-64.71C101.09-34.2,228.86.09,386.41,8c94,4.7,98.07,136.33,166.8,111.49,36.2-13.08,118.2-56.78,135.63,23.18"/><path class="cls-54" d="M120-66.47c-10.43,28.25,114.28,60,267.44,69C481.32,8.07,489,139.54,558,109.76,595.73,93.48,679.27,48.42,696.73,127"/><path class="cls-55" d="M124.42-68.22c-6.29,26,115.37,55.27,264.13,65.36C482.2,3.48,493.44,134.62,562.78,100.07,602,80.51,687.12,34.15,704.61,111.38"/><path class="cls-56" d="M128.8-70c-2.14,23.7,116.46,50.58,260.83,61.7,93.46,7.2,108.23,137.84,177.94,98.65C608.32,67.46,695,19.89,712.49,95.74"/><path class="cls-57" d="M133.17-71.73c2,21.43,117.56,45.93,257.52,58C484-5.63,502.21,124.39,572.35,80.68c42.23-26.33,130.48-75.05,148-.57"/><path class="cls-58" d="M137.55-73.48c6.14,19.16,118.65,41.33,254.21,54.37,93.09,9,114.76,138.25,185.37,90.09C620.8,41.19,710.68-8.64,728.26,64.47"/><path class="cls-59" d="M141.93-75.23c10.29,16.89,119.75,36.79,250.9,50.71,92.91,9.86,117.94,138.36,189.08,85.81C627,28,718.53-22.91,736.14,48.84"/><path class="cls-60" d="M146.3-77c14.43,14.61,120.84,32.29,247.6,47C486.63-19.14,515,108.48,586.69,51.59,633.13,14.76,726.39-37.17,744,33.21"/><path class="cls-61" d="M150.68-78.74C169.26-66.4,272.62-50.91,395-35.36c92.55,11.76,124.15,138.45,196.5,77.25C639.24,1.5,734.24-51.44,751.9,17.57"/><path class="cls-62" d="M155.06-80.5c22.72,10.07,123,23.43,241,39.72C488.41-28,523.22,97.69,596.26,32.2c49.05-44,145.83-97.9,163.53-30.26"/><path class="cls-63" d="M159.44-82.25c26.86,7.8,124.11,19.08,237.68,36.06C489.29-32.4,527.29,92.26,601,22.5,651.36-25.08,749.95-80,767.67-13.7"/><path class="cls-64" d="M163.81-84c31,5.53,125.18,14.78,234.37,32.4,92,14.85,133.13,138.43,207.64,64.41,51.55-51.21,152-107,169.72-42.14"/><path class="cls-65" d="M168.19-85.76C203.34-82.5,294.44-75.23,399.26-57c91.79,16,136,138.4,211.35,60.13,52.76-54.83,155-111.6,172.82-48.08"/><path class="cls-66" d="M172.57-87.51c39.29,1,127.31,6.32,227.76,25.08C491.91-45.33,539.27,75.94,615.39-6.58c53.94-58.47,158.11-116.17,175.92-54"/><path class="cls-67" d="M176.95-89.26c43.43-1.29,128.36,2.16,224.45,21.41C492.76-49.54,543.2,70.49,620.18-16.28c55.1-62.11,161.18-120.74,179-60"/><path class="cls-68" d="M181.32-91c47.57-3.56,129.39-2,221.14,17.75C493.59-53.69,547.12,65,625-26,681.2-91.74,789.21-151.29,807.08-91.87"/><path class="cls-69" d="M185.7-92.77c51.72-5.83,130.41-6,217.84,14.09,90.87,20.9,147.47,138.28,226.2,43C687.11-105.08,797.07-165.55,815-107.5"/></svg>