<svg id="Layer_1" data-name="Layer 1" xmlns="http://www.w3.org/2000/svg" viewBox="0 0 600 302.58"><defs><style>.cls-1,.cls-10,.cls-11,.cls-12,.cls-13,.cls-14,.cls-15,.cls-16,.cls-17,.cls-18,.cls-19,.cls-2,.cls-20,.cls-21,.cls-3,.cls-4,.cls-5,.cls-6,.cls-7,.cls-8,.cls-9{fill:none;}.cls-1{stroke:#a8d3ef;}.cls-1,.cls-10,.cls-11,.cls-12,.cls-13,.cls-14,.cls-15,.cls-16,.cls-17,.cls-18,.cls-19,.cls-20,.cls-21,.cls-3,.cls-4,.cls-5,.cls-6,.cls-7,.cls-8,.cls-9{stroke-miterlimit:10;}.cls-2{stroke:#aad1f0;stroke-miterlimit:10;}.cls-3{stroke:#acd0f0;}.cls-4{stroke:#afcef1;}.cls-5{stroke:#b1cdf2;}.cls-6{stroke:#b3cbf2;}.cls-7{stroke:#b5caf3;}.cls-8{stroke:#b8c8f4;}.cls-9{stroke:#bac6f5;}.cls-10{stroke:#bcc5f5;}.cls-11{stroke:#bec3f6;}.cls-12{stroke:#c0c2f7;}.cls-13{stroke:#c3c0f7;}.cls-14{stroke:#c5bff8;}.cls-15{stroke:#c7bdf9;}.cls-16{stroke:#c9bcf9;}.cls-17{stroke:#cbbafa;}.cls-18{stroke:#ceb8fb;}.cls-19{stroke:#d0b7fc;}.cls-20{stroke:#d2b5fc;}.cls-21{stroke:#d4b4fd;}</style></defs><title>thesis_final_website</title><path class="cls-1" d="M652.07,199.71c-38.78-61.64,66.11-158.1,29.25-188.28-53.24-43.6-129.08,128-217.49,129.36C394.4,141.9,286-16,154.4-40"/><path class="cls-2" d="M158.68-43.19c128.83,22.28,232.93,176.1,300.69,176.63C547.21,134.13,625.14-31.13,677.42,8.66c36.1,27.48-63.62,115-25,175.38"/><path class="cls-3" d="M163-46.43C289-25.84,388.83,125.18,454.91,126.1,542.21,127.32,622.25-30,673.53,5.89c35.41,24.82-59.21,103.4-20.75,162.48"/><path class="cls-4" d="M167.25-49.66c123.33,18.9,218.8,166.52,283.2,168.42,86.76,2.56,169-147.68,219.19-115.63,34.79,22.2-54.8,91.77-16.5,149.57"/><path class="cls-5" d="M171.53-52.9C292.11-35.7,383.28,108.56,446,111.41,532.23,115.33,616.7-27.77,665.74.35,700,20,615.35,80.49,653.49,137"/><path class="cls-6" d="M175.81-56.14c117.82,15.51,204.71,156.42,265.71,160.2,85.73,5.3,172.55-130.67,220.32-106.48,33.81,17.12-46,68.52-8,123.77"/><path class="cls-7" d="M180.09-59.38C295.17-45.55,377.76,92,437.07,96.71,522.3,103.43,611.58-25.46,657.95-5.19c33.49,14.64-41.57,56.89-3.75,110.86"/><path class="cls-8" d="M184.38-62.61C296.7-50.48,375,83.83,432.6,89.37,517.35,97.52,609.23-24.36,654.05-8c33.31,12.18-37.16,45.27.5,98"/><path class="cls-9" d="M188.66-65.85C298.23-55.41,372.26,75.64,428.14,82,512.4,91.64,610-30.79,650.16-10.73c34.47,3.68-32.75,33.64,4.75,85.06"/><path class="cls-10" d="M192.94-69.09C299.76-60.34,369.51,67.49,423.68,74.68c83.78,11.12,184-105.3,222.58-88.18,34.18,0.37-28.34,22,9,72.15"/><path class="cls-11" d="M197.22-72.32c104.06,7.06,169.54,131.69,222,139.65C502.53,80,605.45-30.45,642.37-16.27,676.25-19.22,618.44-5.89,655.62,43"/><path class="cls-12" d="M201.51-75.56C302.82-70.19,364,51.27,414.76,60c82.83,14.23,188.42-90.26,223.71-79C672.05-25.3,619-20.28,656,27.3"/><path class="cls-13" d="M205.79-78.8c98.56,3.68,155.47,122,204.51,131.44C492.66,68.49,600.92-30.1,634.58-21.81c33.28-9.57-15.1-12.86,21.75,33.44"/><path class="cls-14" d="M210.07-82c95.81,2,148.44,117.2,195.77,127.33,81.88,17.52,192.82-75.22,224.84-69.88,33-12.89-10.69-24.49,26,20.54"/><path class="cls-15" d="M214.35-85.27c93.06,0.3,141.39,112.44,187,123.22,81.38,19.23,195-67.7,225.41-65.3,32.69-16.2-6.28-36.12,30.25,7.63"/><path class="cls-16" d="M218.64-88.51C308.94-89.91,353,19.19,396.92,30.6c80.88,21,197.22-60.19,226-60.72,32.39-19.51-1.87-47.74,34.5-5.27"/><path class="cls-17" d="M222.92-91.75c87.55-3.09,127.28,103,169.54,115C472.81,46.09,591.87-29.41,619-32.89c32.09-22.82,2.54-59.37,38.75-18.17"/><path class="cls-18" d="M227.2-95C312-99.76,347.41,3.33,388,15.91,467.8,40.64,589.61-29.24,615.1-35.66c31.79-26.14,7-71,43-31.08"/><path class="cls-19" d="M231.48-98.22c82-6.47,113.12,93.66,152.05,106.78,79.22,26.7,203.81-37.63,227.67-47,31.5-29.45,11.36-82.62,47.25-44"/><path class="cls-20" d="M235.77-101.46c79.3-8.16,106,89,143.31,102.68C457.67,30,587.2-25.67,607.31-41.2c35.8-27.66,15.78-94.25,51.5-56.89"/><path class="cls-21" d="M240-104.7c76.54-9.85,98.89,84.44,134.57,98.57C452.54,24.72,584.66-26.51,603.42-44c34.76-32.37,20.19-105.87,55.75-69.79"/></svg>