<svg id="Layer_1" data-name="Layer 1" xmlns="http://www.w3.org/2000/svg" viewBox="0 0 600 302.58"><defs><style>.cls-1,.cls-10,.cls-11,.cls-12,.cls-13,.cls-14,.cls-15,.cls-16,.cls-2,.cls-3,.cls-4,.cls-5,.cls-6,.cls-7,.cls-8,.cls-9{fill:none;}.cls-1{stroke:#8bc4ea;}.cls-1,.cls-10,.cls-11,.cls-12,.cls-13,.cls-14,.cls-15,.cls-16,.cls-3,.cls-4,.cls-5,.cls-6,.cls-7,.cls-8,.cls-9{stroke-miterlimit:10;}.cls-2{stroke:#89c3e7;stroke-miterlimit:10;}.cls-3{stroke:#88c2e4;}.cls-4{stroke:#86c2e1;}.cls-5{stroke:#85c1dd;}.cls-6{stroke:#83c0da;}.cls-7{stroke:#82bfd7;}.cls-8{stroke:#80bed4;}.cls-9{stroke:#7ebdd1;}.cls-10{stroke:#7dbdce;}.cls-11{stroke:#7bbccb;}.cls-12{stroke:#7abbc8;}.cls-13{stroke:#78bac4;}.cls-14{stroke:#77b9c1;}.cls-15{stroke:#75b8be;}.cls-16{stroke:#74b8bb;}</style></defs><title>toppattern2</title><path class="cls-1" d="M623.91,162.21c-38.78-61.64,19.83-37.33-72.69-34-54.16,2-63.42-85.85-98.31-87.05-71-2.44-265.5-18.45-368-71.19"/><path class="cls-2" d="M88.53-31.44c101,49.8,290.56,62.49,360.89,68.07,36.25,2.88,47.68,85.52,103.89,82.73,92.87-4.62,40.87-31.22,78.75,30"/><path class="cls-3" d="M92.15-32.85C191.68,14,376.39,23.6,445.94,32.1c37.67,4.61,51.2,82.05,109.46,78.4,93.23-5.85,47.84-34.79,84.81,26.06"/><path class="cls-4" d="M95.77-34.26c98,43.91,278,50.6,346.69,61.83,39.13,6.4,54.72,78.61,115,74.08,93.58-7,54.8-38.36,90.88,22.09"/><path class="cls-5" d="M99.39-35.68C195.94,5.29,371.08,9.25,439,23c40.62,8.25,58.24,75.18,120.61,69.75,93.92-8.17,61.77-41.94,96.94,18.12"/><path class="cls-6" d="M103-37.09c95.06,38,265.43,39.42,332.48,55.59,42.12,10.16,61.75,71.77,126.19,65.43,94.27-9.28,68.74-45.51,103,14.15"/><path class="cls-7" d="M106.63-38.5C200.2-3.41,365.8-4.45,432,14c43.63,12.14,65.27,68.38,131.76,61.1C658.39,64.72,639.47,26,672.83,85.26"/><path class="cls-8" d="M110.25-39.92C202.34-7.77,363.15-11.11,428.52,9.44c45.14,14.19,68.78,65,137.33,56.77,95-11.4,82.67-52.66,115.13,6.22"/><path class="cls-9" d="M113.87-41.33C204.47-12.12,360.47-17.66,425,4.91c46.63,16.29,72.3,61.65,142.91,52.45,95.32-12.42,89.64-56.23,121.19,2.25"/><path class="cls-10" d="M117.49-42.74C206.6-16.48,357.76-24.11,421.55.37,469.66,18.84,497.37,58.68,570,48.5c95.68-13.41,96.6-59.81,127.26-1.72"/><path class="cls-11" d="M121.11-44.15c87.62,23.32,233.92,13.67,297,40,49.56,20.7,79.34,55,154.06,43.8,96-14.38,103.57-63.38,133.32-5.68"/><path class="cls-12" d="M124.73-45.57c86.14,20.38,227.53,8.78,289.86,36.88,51,23,82.86,51.68,159.63,39.47,96.4-15.33,110.54-67,139.39-9.65"/><path class="cls-13" d="M128.35-47C213-29.54,349.45-43,411.1-13.22c52.38,25.33,86.39,48.39,165.21,35.15C673.07,5.67,693.81-48.6,721.75,8.31"/><path class="cls-14" d="M132-48.39c83.16,14.5,214.64-.84,275.65,30.64C461.35,10,497.54,27.36,578.4,13.07,675.53-4.1,702.86-61,729.91-4.52"/><path class="cls-15" d="M135.59-49.81c81.67,11.55,208.14-5.59,268.54,27.52,55.05,30.18,93.46,41.85,176.35,26.5C678-13.86,711.92-73.46,738.06-17.34"/><path class="cls-16" d="M139.21-51.22c80.19,8.61,201.6-10.31,261.44,24.4C457,5.86,497.64,11.79,582.58-4.65,680.46-23.6,721-85.9,746.22-30.17"/></svg>