<svg id="Layer_1" data-name="Layer 1" xmlns="http://www.w3.org/2000/svg" viewBox="0 0 600 302.58"><defs><style>.cls-1,.cls-10,.cls-11,.cls-12,.cls-13,.cls-14,.cls-15,.cls-16,.cls-17,.cls-18,.cls-19,.cls-2,.cls-20,.cls-21,.cls-3,.cls-4,.cls-5,.cls-6,.cls-7,.cls-8,.cls-9{fill:none;}.cls-1{stroke:#99c3af;}.cls-1,.cls-10,.cls-11,.cls-12,.cls-13,.cls-14,.cls-15,.cls-16,.cls-17,.cls-18,.cls-19,.cls-20,.cls-21,.cls-3,.cls-4,.cls-5,.cls-6,.cls-7,.cls-8,.cls-9{stroke-miterlimit:10;}.cls-2{stroke:#96c1b1;stroke-miterlimit:10;}.cls-3{stroke:#94bfb2;}.cls-4{stroke:#91beb4;}.cls-5{stroke:#8ebcb5;}.cls-6{stroke:#8cbab7;}.cls-7{stroke:#89b8b8;}.cls-8{stroke:#86b7ba;}.cls-9{stroke:#84b5bb;}.cls-10{stroke:#81b3bd;}.cls-11{stroke:#7eb1be;}.cls-12{stroke:#7cafc0;}.cls-13{stroke:#79aec1;}.cls-14{stroke:#77acc3;}.cls-15{stroke:#74aac4;}.cls-16{stroke:#71a8c6;}.cls-17{stroke:#6fa6c7;}.cls-18{stroke:#6ca5c9;}.cls-19{stroke:#69a3ca;}.cls-20{stroke:#67a1cc;}.cls-21{stroke:#649fcd;}</style></defs><title>thesis_final_website</title><path class="cls-1" d="M695.1,181.52C656.32,119.88,646,94.28,609.19,64.1c-53.24-43.6-36.25,48.11-165.93,30.1-72-10-121.49-80.25-297.74-107"/><path class="cls-2" d="M149.24-17.83c171,25,221.83,93.8,293.13,104.56,21.82,3.21,39.47,3.39,53.93,1.45C564.88,79,562.1,25.11,605.62,60c36.92,29.6,48.57,54.39,85.9,112.47"/><path class="cls-3" d="M153-22.88C318.78,0.47,370.86,68,441.48,79.26c21.35,3.41,38.69,3.82,52.9,2.1,66.2-8,64.73-59.13,107.67-25.45,37,29,50,53,85.89,107.51"/><path class="cls-4" d="M156.68-27.92c160.62,21.65,214,87.8,283.91,99.7,20.88,3.56,37.91,4.26,51.87,2.74,63.81-6.91,63.67-55.2,106-22.72,37.06,28.43,51.45,51.6,85.88,102.56"/><path class="cls-5" d="M160.39-33C315.8-13,370.48,51.75,439.69,64.31,460.1,68,476.82,69,490.53,67.7c61.41-5.82,62.62-51.28,104.38-20,37.14,27.83,52.89,50.2,85.87,97.61"/><path class="cls-6" d="M164.11-38C314.31-19.76,370.28,43.61,438.8,56.83c19.94,3.85,36.34,5.12,49.8,4,59-4.75,61.58-47.36,102.74-17.25,37.23,27.24,54.33,48.81,85.85,92.66"/><path class="cls-7" d="M167.83-43.06c145,16.55,202.26,78.53,270.08,92.42,19.47,4,35.55,5.55,48.77,4.68,56.59-3.7,60.55-43.46,101.09-14.52,37.32,26.64,55.77,47.42,85.84,87.71"/><path class="cls-8" d="M171.54-48.1C311.33-33.25,369.89,27.31,437,41.88c19,4.12,34.76,6,47.73,5.33,54.16-2.69,59.53-39.56,99.45-11.79,37.42,26,57.21,46,85.83,82.76"/><path class="cls-9" d="M175.26-53.15C309.84-40,369.69,19.15,436.12,34.41c18.53,4.26,34.05,7.56,46.7,6,51.34-6.45,58.52-35.67,97.8-9.06,37.53,25.42,58.65,44.63,85.81,77.81"/><path class="cls-10" d="M179-58.19C308.34-46.74,369.49,11,435.23,26.94c18.06,4.39,33.25,8.1,45.67,6.62,48.93-5.84,57.51-31.79,96.16-6.33,37.64,24.8,60.09,43.23,85.8,72.85"/><path class="cls-11" d="M182.7-63.24c124.16,9.76,186.6,66,251.64,82.7C451.93,24,466.78,28.09,479,26.73c46.53-5.2,56.51-27.92,94.51-3.6C611.25,47.3,635,65,659.27,91"/><path class="cls-12" d="M186.41-68.28C305.36-60.23,369.11-5.42,433.45,12c17.12,4.63,31.62,9.14,43.6,7.91,44.13-4.51,55.53-24.06,92.87-.87,37.89,23.53,63,40.44,85.77,63"/><path class="cls-13" d="M190.13-73.33C303.87-67,368.92-13.64,432.56,4.51c16.65,4.75,30.79,9.63,42.56,8.56,41.75-3.79,54.55-20.21,91.22,1.86,38,22.89,64.41,39.05,85.76,58"/><path class="cls-14" d="M193.85-78.37C302.38-73.71,368.73-21.87,431.66-3,447.85,1.9,461.61,7.13,473.2,6.25c39.37-3,53.57-16.38,89.58,4.59,38.17,22.23,65.86,37.66,85.75,53"/><path class="cls-15" d="M197.56-83.42c103.32,3,171,53.3,233.21,73,15.72,5,29.13,8.81,40.5,9.85,36.92,3.4,52.61-12.55,87.93,7.32C597.52,28.3,626.5,43,644.94,54.84"/><path class="cls-16" d="M201.28-88.46c98.12,1.26,167.09,50.09,228.6,70.55,15.26,5.08,28.32,9.18,39.46,10.5C503.78-3.32,521-16.15,555.63,2.64c38.48,20.88,68.74,34.87,85.72,43.15"/><path class="cls-17" d="M205-93.51c92.91-.44,163.21,46.85,224,68.12,14.79,5.18,27.51,9.53,38.43,11.15,32,4.72,50.7-4.94,84.64,12.79C590.7,18.72,622.24,32,637.77,36.74"/><path class="cls-18" d="M208.71-98.55C296.41-100.69,368-55,428.1-32.86c14.33,5.27,26.7,9.87,37.4,11.79,29.48,5.3,49.75-1.15,83,15.52,38.81,19.46,71.62,32.08,85.7,33.24"/><path class="cls-19" d="M212.43-103.6c82.49-3.84,155.46,40.32,214.77,63.26C441.08-35,453.1-30.15,463.57-27.9c27,5.83,48.81,2.62,81.35,18.25C583.91,9.08,618,21,630.6,18.64"/><path class="cls-20" d="M216.15-108.64c77.28-5.54,151.6,37,210.16,60.83,13.42,5.45,25.1,10.47,35.33,13.08,24.58,6.29,47.87,6.38,79.71,21,39.18,18,74.5,29.29,85.67,23.34"/><path class="cls-21" d="M219.86-113.69c72.07-7.24,147.75,33.71,205.55,58.4,13,5.54,24.32,10.72,34.3,13.73,22.17,6.7,46.94,10.12,78.06,23.71C577.15-.65,613.72,10.06,623.44.55"/></svg>