<svg id="Layer_1" data-name="Layer 1" xmlns="http://www.w3.org/2000/svg" viewBox="0 0 600 302.58"><defs><style>.cls-1,.cls-10,.cls-11,.cls-12,.cls-13,.cls-14,.cls-15,.cls-16,.cls-2,.cls-3,.cls-4,.cls-5,.cls-6,.cls-7,.cls-8,.cls-9{fill:none;}.cls-1{stroke:#a29ecd;}.cls-1,.cls-10,.cls-11,.cls-12,.cls-13,.cls-14,.cls-15,.cls-16,.cls-3,.cls-4,.cls-5,.cls-6,.cls-7,.cls-8,.cls-9{stroke-miterlimit:10;}.cls-2{stroke:#a3a0ce;stroke-miterlimit:10;}.cls-3{stroke:#a3a2cf;}.cls-4{stroke:#a4a4d0;}.cls-5{stroke:#a5a7d1;}.cls-6{stroke:#a5a9d2;}.cls-7{stroke:#a6abd3;}.cls-8{stroke:#a7add4;}.cls-9{stroke:#a8afd5;}.cls-10{stroke:#a8b1d6;}.cls-11{stroke:#a9b3d7;}.cls-12{stroke:#aab5d8;}.cls-13{stroke:#aab8d9;}.cls-14{stroke:#abbada;}.cls-15{stroke:#acbcdb;}.cls-16{stroke:#acbedc;}</style></defs><title>thesis_final_website</title><path class="cls-1" d="M718.46-40C681-117.27,576.62,133.6,513.4,137c-68.17,3.7-60.8-107.78-155.25-100.93C187.84,48.45,69.86.63,93.11-39.14"/><path class="cls-2" d="M97.3-41.31C77.95-4.2,193.59,40.44,359.67,29.78c94.31-6.05,90.68,104.94,159,96.65C581.44,118.82,686.17-124,723-47.91"/><path class="cls-3" d="M101.49-43.48C86-9,199.36,32.47,361.18,23.45,455.36,18.2,455.41,128.74,524,115.82,586.22,104.1,691.34-130.71,727.54-55.79"/><path class="cls-4" d="M105.68-45.65c-11.55,31.79,99.45,70.2,257,62.77,94.06-4.43,97.73,105.71,166.62,88.08C591,89.44,696.51-137.43,732.07-63.67"/><path class="cls-5" d="M109.86-47.82c-7.64,29.12,101,64.49,254.35,58.62C458.15,7.2,465.42,117,534.62,94.6c61.07-19.76,167.05-238.75,202-166.15"/><path class="cls-6" d="M114-50C110.31-23.53,216.69,8.84,365.73,4.47,459.56,1.72,470.4,111.21,539.93,84,600.42,60.31,706.84-150.87,741.15-79.43"/><path class="cls-7" d="M118.24-52.16c0.16,23.8,104.25,53.22,249,50.3,93.72-1.89,108.14,107.35,178,75.23,59.9-27.54,166.77-231,200.46-160.69"/><path class="cls-8" d="M122.42-54.33c4.07,21.14,105.91,42.24,246.34,46.15,93.59,2.6,111.61,108,181.78,71,59.33-31.35,166.63-227.09,199.69-158"/><path class="cls-9" d="M126.61-56.5c8,18.47,107.6,36.34,243.67,42,93.44,3.88,115.11,108.75,185.57,66.67,58.78-35.1,166.5-223.2,198.93-155.23"/><path class="cls-10" d="M130.8-58.67c11.87,15.81,109.3,30.57,241,37.83,93.29,5.14,118.64,109.52,189.36,62.39C619.4,2.73,727.51-177.75,759.31-110.94"/><path class="cls-11" d="M135-60.83c15.78,13.15,111,25,238.32,33.67,93.14,6.37,122.19,110.34,193.15,58.1,57.75-42.51,166.22-215.42,197.39-149.76"/><path class="cls-12" d="M139.17-63c19.68,10.49,112.36,25.89,235.65,29.52C468.07-30.74,500.61,77.7,571.77,20.33,629-25.84,737.85-191.19,768.39-126.7"/><path class="cls-13" d="M143.36-65.17c23.58,7.82,114,20.57,233,25.36C469.5-36.06,505.75,72.25,577.07,9.72,633.89-40.09,743-197.91,772.93-134.58"/><path class="cls-14" d="M147.55-67.34C175-62.18,263.17-52,377.85-46.14c93.08,4.79,133.07,113,204.52,45.25,56.4-53.44,165.8-203.75,195.09-141.57"/><path class="cls-15" d="M151.73-69.51C183.12-67,269-59.43,379.37-52.47c93,5.87,136.77,113.87,208.31,41,56-57.06,165.66-199.86,194.33-138.84"/><path class="cls-16" d="M155.92-71.68c35.29-.16,118.88,4.91,225,12.89C473.79-51.8,521.38,56,593-22.11c55.63-60.67,165.52-196,193.56-136.11"/></svg>