<svg id="Layer_1" data-name="Layer 1" xmlns="http://www.w3.org/2000/svg" viewBox="0 0 600 302.58"><defs><style>.cls-1,.cls-10,.cls-11,.cls-12,.cls-13,.cls-14,.cls-15,.cls-16,.cls-17,.cls-18,.cls-19,.cls-2,.cls-20,.cls-3,.cls-4,.cls-5,.cls-6,.cls-7,.cls-8,.cls-9{fill:none;}.cls-1{stroke:#8bc4ea;}.cls-1,.cls-10,.cls-11,.cls-12,.cls-13,.cls-14,.cls-15,.cls-16,.cls-17,.cls-18,.cls-19,.cls-20,.cls-3,.cls-4,.cls-5,.cls-6,.cls-7,.cls-8,.cls-9{stroke-miterlimit:10;}.cls-2{stroke:#90c5e7;stroke-miterlimit:10;}.cls-3{stroke:#95c7e4;}.cls-4{stroke:#9ac8e0;}.cls-5{stroke:#9fcadd;}.cls-6{stroke:#a4cbda;}.cls-7{stroke:#a9cdd7;}.cls-8{stroke:#aeced3;}.cls-9{stroke:#b3cfd0;}.cls-10{stroke:#b8d1cd;}.cls-11{stroke:#bdd2ca;}.cls-12{stroke:#c2d4c7;}.cls-13{stroke:#c7d5c3;}.cls-14{stroke:#ccd7c0;}.cls-15{stroke:#d1d8bd;}.cls-16{stroke:#d6daba;}.cls-17{stroke:#dbdbb7;}.cls-18{stroke:#e0dcb3;}.cls-19{stroke:#e5deb0;}.cls-20{stroke:#eadfad;}</style></defs><title>thesis_final_website</title><path class="cls-1" d="M649,249.29c-38.78-61.64-130.11-64.58-222.62-61.24-54.16,2,15.35-105.84-19.54-107-71-2.44-136.86-69.83-268.44-93.8"/><path class="cls-2" d="M142-14.2C270.84,8.08,337.34,69.92,407.68,75.5c36.25,2.88-27.67,104.64,28.54,101.84,92.87-4.62,184.29-5.15,222.17,56.09"/><path class="cls-3" d="M145.63-15.61C271.71,5,339,61.48,408.52,70c37.67,4.61-20.72,100.3,37.54,96.65,93.23-5.85,184.73-9.91,221.71,50.94"/><path class="cls-4" d="M149.25-17C272.58,1.87,340.63,53.23,409.37,64.47c39.13,6.4-13.78,96,46.54,91.45,93.58-7,185.18-14.67,221.26,45.78"/><path class="cls-5" d="M152.87-18.44C273.45-1.23,342.32,45.17,410.21,59c40.62,8.25-6.84,91.69,55.54,86.26,93.92-8.17,185.63-19.43,220.8,40.63"/><path class="cls-6" d="M156.49-19.85C274.31-4.34,344,37.26,411.05,53.44c42.12,10.16.11,87.41,64.54,81.07,94.27-9.28,186.08-24.19,220.35,35.48"/><path class="cls-7" d="M160.11-21.26C275.18-7.44,345.69,29.5,411.9,47.92c43.63,12.14,7,83.15,73.54,75.87C580.06,113.44,672,94.85,705.33,154.12"/><path class="cls-8" d="M163.73-22.68C276-10.55,347.37,21.86,412.74,42.41c45.14,14.19,14,78.9,82.54,70.68,95-11.4,187-33.7,219.44,25.18"/><path class="cls-9" d="M167.35-24.09C276.92-13.65,349,14.33,413.59,36.89c46.63,16.29,20.93,74.68,91.54,65.48,95.32-12.42,187.42-38.46,219,20"/><path class="cls-10" d="M171-25.5C277.78-16.75,350.64,6.89,414.43,31.37,462.54,49.84,442.3,101.84,515,91.66c95.68-13.41,187.87-43.22,218.52,14.87"/><path class="cls-11" d="M174.59-26.92C278.65-19.86,352.23-.47,415.28,25.86,464.84,46.56,450.09,92.14,524.81,81c96-14.38,188.32-48,218.07,9.72"/><path class="cls-12" d="M178.21-28.33C279.52-23,353.79-7.76,416.12,20.34c51,23,41.77,62.1,118.53,49.9,96.4-15.33,188.76-52.74,217.61,4.57"/><path class="cls-13" d="M181.83-29.74C280.39-26.06,355.31-15,417,14.83c52.38,25.33,48.72,57.94,127.53,44.7C641.26,43.28,733.71,2,761.66,58.95"/><path class="cls-14" d="M185.45-31.16c95.81,2,171.35,9,232.36,40.47C471.55,37,473.48,63.11,554.34,48.82,651.48,31.65,744-13.43,771,43.08"/><path class="cls-15" d="M189.07-32.57c93.06,0.3,169.18,3.25,229.59,36.37C473.71,34,481.29,53.47,564.18,38.11,661.69,20,754.29-28.9,780.43,27.22"/><path class="cls-16" d="M192.69-34c90.3-1.39,167-2.45,226.81,32.26C475.83,31,489.09,43.84,574,27.4c97.89-18.95,190.55-71.77,215.79-16"/><path class="cls-17" d="M196.3-35.4c87.55-3.09,164.73-8.12,224,28.16C477.91,28,496.9,34.23,583.87,16.69c98.27-19.82,191-76.53,215.34-21.2"/><path class="cls-18" d="M199.92-36.81c84.8-4.78,162.45-13.78,221.26,24.06S504.72,24.63,593.71,6C692.37-14.69,785.16-75.3,808.59-20.36"/><path class="cls-19" d="M203.54-38.22c82-6.47,160.13-19.42,218.49,20C481.93,22.16,512.54,15,603.56-4.73c99-21.52,191.9-86,214.42-31.5"/><path class="cls-20" d="M207.16-39.63c79.3-8.16,157.78-25,215.71,15.85,61,43.08,97.49,29.26,190.53,8.34,99.44-22.35,192.34-90.8,214-36.65"/></svg>